<svg width="900" height="553" preserveAspectRatio="none" viewBox="-898 1918 4836 3076"
 xmlns="http://www.w3.org/2000/svg" xmlns:xlink="http://www.w3.org/1999/xlink">
   <defs>
    <marker id="arrow" markerWidth="10" markerHeight="10" refX="0" refY="2" orient="auto" markerUnits="strokeWidth">
      <path d="M0,0 L0,4 L5,3 z" fill="#f00" />
    </marker>
  </defs>

<polygon points="2039,3143 2066,3183 2127,3271 2063,3408 1782,3447 1543,3383 1519,3167 1672,3104 1672,3104 1896,3104 1896,3104 1896,3104 " fill="rgb(22,239,22)" stroke="rgb(70,70,70)" stroke-width="10" stroke-linecap="round" />
<polygon points="1780,3447 1554,3480 1543,3383 " fill="rgb(22,239,22)" stroke="rgb(70,70,70)" stroke-width="10" stroke-linecap="round" />
<polygon points="2062,3408 2011,3520 1559,3520 1554,3480 " fill="rgb(251,251,34)" stroke="rgb(70,70,70)" stroke-width="10" stroke-linecap="round" />
<polygon points="2128,3271 2176,3341 2176,3520 2011,3520 " fill="rgb(26,243,243)" stroke="rgb(70,70,70)" stroke-width="10" stroke-linecap="round" />
<polygon points="2039,3143 2176,3181 2176,3341 2087,3213 " fill="rgb(232,15,232)" stroke="rgb(70,70,70)" stroke-width="10" stroke-linecap="round" />
<polygon points="1896,3104 2176,3104 2176,3181 1896,3104 " fill="rgb(26,243,243)" stroke="rgb(70,70,70)" stroke-width="10" stroke-linecap="round" />
<polygon points="1672,3104 1519,3168 1512,3104 1672,3104 " fill="rgb(3,3,220)" stroke="rgb(70,70,70)" stroke-width="10" stroke-linecap="round" />
<polygon points="1376,3104 1376,3104 1376,3104 1512,3104 1559,3520 1376,3520 1376,3104 1376,3104 1376,3104 " fill="rgb(26,243,243)" stroke="rgb(70,70,70)" stroke-width="10" stroke-linecap="round" />
<polygon points="2176,3104 1376,3104 1376,3104 1376,2944 1472,2880 1856,2880 1856,2880 1856,2880 2176,3080 2176,3080 " fill="rgb(251,251,34)" stroke="rgb(70,70,70)" stroke-width="10" stroke-linecap="round" />
<polygon points="2176,2920 2176,3080 1920,2920 2176,2920 " fill="rgb(22,239,22)" stroke="rgb(70,70,70)" stroke-width="10" stroke-linecap="round" />
<polygon points="1920,2920 1856,2880 1856,2880 2176,2880 2176,2920 2176,2920 1920,2920 " fill="rgb(3,3,220)" stroke="rgb(70,70,70)" stroke-width="10" stroke-linecap="round" />
<polygon points="1376,3264 1376,3360 1376,3360 1344,3360 1344,3360 1344,3264 1344,3264 1376,3264 " fill="rgb(251,251,34)" stroke="rgb(70,70,70)" stroke-width="10" stroke-linecap="round" />
<polygon points="1376,3520 1344,3520 1344,3520 1344,3392 1376,3392 1376,3520 " fill="rgb(3,3,220)" stroke="rgb(70,70,70)" stroke-width="10" stroke-linecap="round" />
<polygon points="1376,3104 1376,3200 1344,3200 1344,3104 " fill="rgb(26,243,243)" stroke="rgb(70,70,70)" stroke-width="10" stroke-linecap="round" />
<polygon points="2176,4064 2176,4064 2112,4032 2048,3921 2048,3904 2176,3904 2176,3904 " fill="rgb(228,11,11)" stroke="rgb(70,70,70)" stroke-width="10" stroke-linecap="round" />
<polygon points="2176,3872 2176,3904 2176,3904 2048,3904 2048,3904 2048,3872 2176,3872 " fill="rgb(251,251,34)" stroke="rgb(70,70,70)" stroke-width="10" stroke-linecap="round" />
<polygon points="2176,3872 2176,3872 2048,3872 2048,3872 2048,3840 2176,3840 2176,3840 " fill="rgb(22,239,22)" stroke="rgb(70,70,70)" stroke-width="10" stroke-linecap="round" />
<polygon points="2176,3808 2176,3840 2176,3840 2048,3840 2048,3840 2048,3808 2176,3808 " fill="rgb(22,239,22)" stroke="rgb(70,70,70)" stroke-width="10" stroke-linecap="round" />
<polygon points="2176,3776 2176,3808 2176,3808 2048,3808 2048,3808 2048,3776 2176,3776 " fill="rgb(232,15,232)" stroke="rgb(70,70,70)" stroke-width="10" stroke-linecap="round" />
<polygon points="1376,3647 1376,3520 1984,3520 1984,3648 1377,3648 1377,3648 " fill="rgb(232,15,232)" stroke="rgb(70,70,70)" stroke-width="10" stroke-linecap="round" />
<polygon points="1984,3776 1984,3776 1984,3776 1984,3776 1377,3648 1984,3648 1984,3648 " fill="rgb(228,11,11)" stroke="rgb(70,70,70)" stroke-width="10" stroke-linecap="round" />
<polygon points="1672,3744 1527,3679 1984,3776 1984,3776 1984,3776 " fill="rgb(22,239,22)" stroke="rgb(70,70,70)" stroke-width="10" stroke-linecap="round" />
<polygon points="1984,3648 1984,3520 2176,3520 2176,3648 1984,3648 " fill="rgb(228,11,11)" stroke="rgb(70,70,70)" stroke-width="10" stroke-linecap="round" />
<polygon points="1984,3680 1984,3648 1984,3648 2176,3648 2176,3648 2176,3680 1984,3680 1984,3680 " fill="rgb(251,251,34)" stroke="rgb(70,70,70)" stroke-width="10" stroke-linecap="round" />
<polygon points="1984,3776 1984,3680 1984,3680 2016,3680 1984,3776 1984,3776 " fill="rgb(232,15,232)" stroke="rgb(70,70,70)" stroke-width="10" stroke-linecap="round" />
<polygon points="2048,3680 2176,3680 2176,3680 2176,3776 2176,3776 2176,3776 2048,3776 2048,3680 " fill="rgb(228,11,11)" stroke="rgb(70,70,70)" stroke-width="10" stroke-linecap="round" />
<polygon points="2176,2816 2176,2816 1664,2816 1664,2816 1664,2752 1664,2752 2176,2752 2176,2752 " fill="rgb(228,11,11)" stroke="rgb(70,70,70)" stroke-width="10" stroke-linecap="round" />
<polygon points="2176,2880 1664,2880 1664,2880 1664,2816 1664,2816 2176,2816 2176,2816 2176,2880 " fill="rgb(3,3,220)" stroke="rgb(70,70,70)" stroke-width="10" stroke-linecap="round" />
<polygon points="1992,2312 1992,2312 1992,2552 1664,2552 1664,2552 1664,2312 1664,2312 1664,2312 1664,2312 1664,2312 " fill="rgb(26,243,243)" stroke="rgb(70,70,70)" stroke-width="10" stroke-linecap="round" />
<polygon points="1992,2112 1992,2112 1992,2232 1664,2232 1664,2232 1664,2112 1664,2112 " fill="rgb(22,239,22)" stroke="rgb(70,70,70)" stroke-width="10" stroke-linecap="round" />
<polygon points="1784,2312 1664,2312 1664,2232 1664,2232 1784,2232 1784,2312 " fill="rgb(22,239,22)" stroke="rgb(70,70,70)" stroke-width="10" stroke-linecap="round" />
<polygon points="1992,2312 1984,2312 1984,2312 1984,2232 1984,2232 1992,2232 1992,2232 1992,2312 " fill="rgb(26,243,243)" stroke="rgb(70,70,70)" stroke-width="10" stroke-linecap="round" />
<polygon points="1784,2232 1784,2232 1984,2232 1984,2232 1984,2240 1784,2240 1784,2240 " fill="rgb(26,243,243)" stroke="rgb(70,70,70)" stroke-width="10" stroke-linecap="round" />
<polygon points="1784,2312 1784,2240 1784,2240 1792,2240 1792,2312 1792,2312 1784,2312 " fill="rgb(22,239,22)" stroke="rgb(70,70,70)" stroke-width="10" stroke-linecap="round" />
<polygon points="1984,2304 1984,2304 1984,2312 1792,2312 1792,2312 1792,2304 " fill="rgb(26,243,243)" stroke="rgb(70,70,70)" stroke-width="10" stroke-linecap="round" />
<polygon points="1984,2304 1984,2304 1792,2304 1792,2304 1792,2240 1792,2240 1984,2240 1984,2240 " fill="rgb(228,11,11)" stroke="rgb(70,70,70)" stroke-width="10" stroke-linecap="round" />
<polygon points="1664,2552 1664,2552 1784,2552 1784,2752 1784,2752 1664,2752 1664,2752 1664,2552 1664,2552 1664,2552 " fill="rgb(22,239,22)" stroke="rgb(70,70,70)" stroke-width="10" stroke-linecap="round" />
<polygon points="1784,2632 1992,2632 1992,2632 1992,2752 1784,2752 1784,2752 " fill="rgb(22,239,22)" stroke="rgb(70,70,70)" stroke-width="10" stroke-linecap="round" />
<polygon points="1992,2632 1992,2632 1984,2632 1984,2632 1984,2552 1984,2552 1992,2552 1992,2552 " fill="rgb(228,11,11)" stroke="rgb(70,70,70)" stroke-width="10" stroke-linecap="round" />
<polygon points="1784,2560 1784,2552 1784,2552 1984,2552 1984,2552 1984,2560 1784,2560 " fill="rgb(228,11,11)" stroke="rgb(70,70,70)" stroke-width="10" stroke-linecap="round" />
<polygon points="1784,2632 1784,2560 1784,2560 1792,2560 1792,2632 1792,2632 1784,2632 " fill="rgb(22,239,22)" stroke="rgb(70,70,70)" stroke-width="10" stroke-linecap="round" />
<polygon points="1984,2624 1984,2624 1984,2632 1792,2632 1792,2632 1792,2624 " fill="rgb(26,243,243)" stroke="rgb(70,70,70)" stroke-width="10" stroke-linecap="round" />
<polygon points="1984,2624 1984,2624 1792,2624 1792,2624 1792,2560 1792,2560 1984,2560 1984,2560 " fill="rgb(22,239,22)" stroke="rgb(70,70,70)" stroke-width="10" stroke-linecap="round" />
<polygon points="1992,2304 2144,2304 2144,2304 2144,2560 2144,2560 1992,2560 1992,2560 1992,2304 1992,2304 " fill="rgb(3,3,220)" stroke="rgb(70,70,70)" stroke-width="10" stroke-linecap="round" />
<polygon points="2176,2560 2176,2560 2144,2560 2144,2560 2144,2304 2144,2304 2176,2304 2176,2304 " fill="rgb(251,251,34)" stroke="rgb(70,70,70)" stroke-width="10" stroke-linecap="round" />
<polygon points="1992,2752 1992,2592 1992,2592 2176,2592 2176,2592 2176,2752 1992,2752 " fill="rgb(251,251,34)" stroke="rgb(70,70,70)" stroke-width="10" stroke-linecap="round" />
<polygon points="1992,2592 1992,2560 1992,2560 2112,2560 2112,2592 " fill="rgb(26,243,243)" stroke="rgb(70,70,70)" stroke-width="10" stroke-linecap="round" />
<polygon points="1992,2112 1992,2112 2176,2112 2176,2112 2176,2272 1992,2272 1992,2272 " fill="rgb(22,239,22)" stroke="rgb(70,70,70)" stroke-width="10" stroke-linecap="round" />
<polygon points="1992,2304 1992,2272 1992,2272 2112,2272 2112,2304 " fill="rgb(3,3,220)" stroke="rgb(70,70,70)" stroke-width="10" stroke-linecap="round" />
<polygon points="2176,2048 2176,2048 2176,2112 1664,2112 1664,2112 1664,2048 " fill="rgb(22,239,22)" stroke="rgb(70,70,70)" stroke-width="10" stroke-linecap="round" />
<polygon points="1664,2560 1664,2560 1552,2560 1552,2560 1552,2432 1552,2432 1664,2432 1664,2432 " fill="rgb(251,251,34)" stroke="rgb(70,70,70)" stroke-width="10" stroke-linecap="round" />
<polygon points="1664,2368 1664,2368 1600,2368 1600,2048 1600,2048 1664,2048 1664,2048 " fill="rgb(251,251,34)" stroke="rgb(70,70,70)" stroke-width="10" stroke-linecap="round" />
<polygon points="1664,2624 1664,2816 1664,2816 1664,2816 1600,2816 1600,2624 1600,2624 " fill="rgb(232,15,232)" stroke="rgb(70,70,70)" stroke-width="10" stroke-linecap="round" />
<polygon points="1472,2560 1472,2560 1472,2560 1344,2606 1344,2486 1472,2432 " fill="rgb(232,15,232)" stroke="rgb(70,70,70)" stroke-width="10" stroke-linecap="round" />
<polygon points="1344,2880 1344,2606 1384,2591 1344,2880 " fill="rgb(232,15,232)" stroke="rgb(70,70,70)" stroke-width="10" stroke-linecap="round" />
<polygon points="1472,2560 1472,2432 1536,2432 1536,2560 " fill="rgb(26,243,243)" stroke="rgb(70,70,70)" stroke-width="10" stroke-linecap="round" />
<polygon points="1552,2560 1536,2560 1536,2432 1552,2432 " fill="rgb(3,3,220)" stroke="rgb(70,70,70)" stroke-width="10" stroke-linecap="round" />
<polygon points="928,3360 928,3360 928,3104 928,3104 1344,3104 1344,3104 1344,3104 1344,3360 1344,3360 1344,3360 1344,3360 928,3360 " fill="rgb(26,243,243)" stroke="rgb(70,70,70)" stroke-width="10" stroke-linecap="round" />
<polygon points="896,3104 928,3104 928,3104 928,3360 928,3360 896,3360 896,3360 896,3104 " fill="rgb(3,3,220)" stroke="rgb(70,70,70)" stroke-width="10" stroke-linecap="round" />
<polygon points="704,3360 704,3104 704,3104 896,3104 896,3360 896,3360 " fill="rgb(22,239,22)" stroke="rgb(70,70,70)" stroke-width="10" stroke-linecap="round" />
<polygon points="928,3104 928,3072 928,3072 1184,3072 1184,3072 1184,3104 1184,3104 928,3104 " fill="rgb(232,15,232)" stroke="rgb(70,70,70)" stroke-width="10" stroke-linecap="round" />
<polygon points="928,3072 928,3072 928,3000 1184,3064 1184,3072 " fill="rgb(232,15,232)" stroke="rgb(70,70,70)" stroke-width="10" stroke-linecap="round" />
<polygon points="1184,3072 1184,3072 1184,3064 1216,3072 " fill="rgb(228,11,11)" stroke="rgb(70,70,70)" stroke-width="10" stroke-linecap="round" />
<polygon points="1344,3104 1344,3104 1344,3104 1216,3104 1216,3072 1216,3072 " fill="rgb(26,243,243)" stroke="rgb(70,70,70)" stroke-width="10" stroke-linecap="round" />
<polygon points="704,3104 704,2944 704,2944 896,2992 896,3104 896,3104 " fill="rgb(251,251,34)" stroke="rgb(70,70,70)" stroke-width="10" stroke-linecap="round" />
<polygon points="896,3072 896,2992 928,3000 928,3072 " fill="rgb(22,239,22)" stroke="rgb(70,70,70)" stroke-width="10" stroke-linecap="round" />
<polygon points="1344,3104 788,2964 968,2880 968,2880 1344,2880 1344,2880 1344,2880 1344,3104 1344,3104 1344,3104 " fill="rgb(228,11,11)" stroke="rgb(70,70,70)" stroke-width="10" stroke-linecap="round" />
<polygon points="830,2944 787,2964 704,2944 704,2944 " fill="rgb(3,3,220)" stroke="rgb(70,70,70)" stroke-width="10" stroke-linecap="round" />
<polygon points="1344,2880 1216,2880 1216,2880 1247,2528 1344,2486 " fill="rgb(3,3,220)" stroke="rgb(70,70,70)" stroke-width="10" stroke-linecap="round" />
<polygon points="1184,3360 1184,3392 1184,3392 928,3392 928,3392 928,3360 928,3360 1184,3360 " fill="rgb(22,239,22)" stroke="rgb(70,70,70)" stroke-width="10" stroke-linecap="round" />
<polygon points="1184,3392 1184,3392 1184,3552 928,3552 928,3392 " fill="rgb(232,15,232)" stroke="rgb(70,70,70)" stroke-width="10" stroke-linecap="round" />
<polygon points="704,3360 704,3360 896,3360 896,3552 896,3552 704,3552 704,3552 " fill="rgb(22,239,22)" stroke="rgb(70,70,70)" stroke-width="10" stroke-linecap="round" />
<polygon points="896,3392 928,3392 928,3552 896,3552 " fill="rgb(22,239,22)" stroke="rgb(70,70,70)" stroke-width="10" stroke-linecap="round" />
<polygon points="1344,3392 1344,3552 1344,3552 1344,3552 1184,3552 1184,3552 1184,3392 1344,3392 " fill="rgb(22,239,22)" stroke="rgb(70,70,70)" stroke-width="10" stroke-linecap="round" />
<polygon points="1344,3360 1344,3360 1216,3392 1216,3392 1216,3392 1216,3360 " fill="rgb(228,11,11)" stroke="rgb(70,70,70)" stroke-width="10" stroke-linecap="round" />
<polygon points="1344,3360 1344,3392 1344,3392 1216,3392 1344,3360 1344,3360 " fill="rgb(232,15,232)" stroke="rgb(70,70,70)" stroke-width="10" stroke-linecap="round" />
<polygon points="1280,3552 1152,3648 960,3648 960,3648 832,3552 " fill="rgb(251,251,34)" stroke="rgb(70,70,70)" stroke-width="10" stroke-linecap="round" />
<polygon points="1088,3648 1088,3648 1088,3680 1024,3680 1024,3648 " fill="rgb(3,3,220)" stroke="rgb(70,70,70)" stroke-width="10" stroke-linecap="round" />
<polygon points="704,3104 704,3360 680,3360 512,3328 512,3136 678,3104 " fill="rgb(251,251,34)" stroke="rgb(70,70,70)" stroke-width="10" stroke-linecap="round" />
<polygon points="512,3160 512,3304 496,3304 496,3160 " fill="rgb(251,251,34)" stroke="rgb(70,70,70)" stroke-width="10" stroke-linecap="round" />
<polygon points="496,3328 496,3328 320,3328 320,3136 320,3136 496,3136 496,3328 496,3328 " fill="rgb(228,11,11)" stroke="rgb(70,70,70)" stroke-width="10" stroke-linecap="round" />
<polygon points="320,3328 256,3328 256,3328 256,3264 320,3264 320,3264 320,3264 " fill="rgb(232,15,232)" stroke="rgb(70,70,70)" stroke-width="10" stroke-linecap="round" />
<polygon points="256,3200 256,3136 320,3136 320,3136 320,3200 256,3200 256,3200 " fill="rgb(228,11,11)" stroke="rgb(70,70,70)" stroke-width="10" stroke-linecap="round" />
<polygon points="288,3200 320,3200 320,3200 320,3264 320,3264 288,3264 288,3264 288,3200 " fill="rgb(22,239,22)" stroke="rgb(70,70,70)" stroke-width="10" stroke-linecap="round" />
<polygon points="256,3200 288,3200 288,3200 288,3264 288,3264 256,3264 256,3264 256,3200 " fill="rgb(251,251,34)" stroke="rgb(70,70,70)" stroke-width="10" stroke-linecap="round" />
<polygon points="256,3392 472,3392 472,3392 448,3456 256,3456 " fill="rgb(251,251,34)" stroke="rgb(70,70,70)" stroke-width="10" stroke-linecap="round" />
<polygon points="320,3392 320,3328 320,3328 496,3328 496,3328 472,3392 " fill="rgb(228,11,11)" stroke="rgb(70,70,70)" stroke-width="10" stroke-linecap="round" />
<polygon points="256,3328 320,3328 320,3328 320,3392 320,3392 256,3392 256,3392 256,3328 " fill="rgb(26,243,243)" stroke="rgb(70,70,70)" stroke-width="10" stroke-linecap="round" />
<polygon points="496,3136 320,3136 320,3008 320,3008 448,3008 496,3136 " fill="rgb(228,11,11)" stroke="rgb(70,70,70)" stroke-width="10" stroke-linecap="round" />
<polygon points="320,3072 256,3072 256,3072 256,3008 320,3008 " fill="rgb(3,3,220)" stroke="rgb(70,70,70)" stroke-width="10" stroke-linecap="round" />
<polygon points="256,3136 256,3072 256,3072 320,3072 320,3072 320,3136 320,3136 256,3136 " fill="rgb(3,3,220)" stroke="rgb(70,70,70)" stroke-width="10" stroke-linecap="round" />
<polygon points="256,3456 256,3456 160,3456 160,3264 256,3264 256,3264 256,3264 256,3264 " fill="rgb(251,251,34)" stroke="rgb(70,70,70)" stroke-width="10" stroke-linecap="round" />
<polygon points="160,3200 160,3200 160,3200 160,3008 256,3008 256,3200 256,3200 160,3200 " fill="rgb(251,251,34)" stroke="rgb(70,70,70)" stroke-width="10" stroke-linecap="round" />
<polygon points="256,3264 224,3264 224,3264 224,3200 224,3200 256,3200 256,3200 256,3264 " fill="rgb(232,15,232)" stroke="rgb(70,70,70)" stroke-width="10" stroke-linecap="round" />
<polygon points="192,3200 192,3200 224,3200 224,3200 224,3264 224,3264 192,3264 192,3264 " fill="rgb(3,3,220)" stroke="rgb(70,70,70)" stroke-width="10" stroke-linecap="round" />
<polygon points="160,3200 160,3200 192,3200 192,3200 192,3264 192,3264 160,3264 160,3264 " fill="rgb(26,243,243)" stroke="rgb(70,70,70)" stroke-width="10" stroke-linecap="round" />
<polygon points="64,3648 -640,3648 -768,3520 -768,3496 " fill="rgb(232,15,232)" stroke="rgb(70,70,70)" stroke-width="10" stroke-linecap="round" />
<polygon points="64,2816 -640,2944 -640,2944 -640,2816 64,2816 " fill="rgb(228,11,11)" stroke="rgb(70,70,70)" stroke-width="10" stroke-linecap="round" />
<polygon points="-128,3280 -256,3152 -256,3152 -256,3136 -128,3136 -128,3136 " fill="rgb(26,243,243)" stroke="rgb(70,70,70)" stroke-width="10" stroke-linecap="round" />
<polygon points="-256,2874 -128,2851 -128,3120 -256,3120 -256,3120 " fill="rgb(3,3,220)" stroke="rgb(70,70,70)" stroke-width="10" stroke-linecap="round" />
<polygon points="-128,3120 -128,3136 -128,3136 -256,3136 -256,3136 -256,3120 -256,3120 -128,3120 " fill="rgb(228,11,11)" stroke="rgb(70,70,70)" stroke-width="10" stroke-linecap="round" />
<polygon points="-256,3296 -256,3264 -144,3264 -144,3264 -128,3280 -128,3296 " fill="rgb(228,11,11)" stroke="rgb(70,70,70)" stroke-width="10" stroke-linecap="round" />
<polygon points="-176,3232 -144,3264 -208,3264 -176,3232 " fill="rgb(251,251,34)" stroke="rgb(70,70,70)" stroke-width="10" stroke-linecap="round" />
<polygon points="-192,3216 -176,3232 -192,3248 -192,3216 " fill="rgb(26,243,243)" stroke="rgb(70,70,70)" stroke-width="10" stroke-linecap="round" />
<polygon points="-256,3200 -256,3152 -208,3200 -256,3200 " fill="rgb(251,251,34)" stroke="rgb(70,70,70)" stroke-width="10" stroke-linecap="round" />
<polygon points="-256,3216 -256,3200 -240,3200 -256,3216 " fill="rgb(26,243,243)" stroke="rgb(70,70,70)" stroke-width="10" stroke-linecap="round" />
<polygon points="-240,3264 -256,3264 -256,3248 -240,3264 " fill="rgb(22,239,22)" stroke="rgb(70,70,70)" stroke-width="10" stroke-linecap="round" />
<polygon points="-192,3216 -192,3248 -192,3248 -208,3264 -208,3264 -240,3264 -240,3264 -256,3248 -256,3248 -256,3216 -256,3216 -240,3200 -240,3200 -208,3200 -208,3200 -192,3216 " fill="rgb(228,11,11)" stroke="rgb(70,70,70)" stroke-width="10" stroke-linecap="round" />
<polygon points="-320,3168 -320,3168 -256,3168 -256,3296 -256,3296 -320,3296 " fill="rgb(3,3,220)" stroke="rgb(70,70,70)" stroke-width="10" stroke-linecap="round" />
<polygon points="-640,3296 -640,3168 -640,3168 -336,3168 -336,3296 -336,3296 " fill="rgb(3,3,220)" stroke="rgb(70,70,70)" stroke-width="10" stroke-linecap="round" />
<polygon points="-320,3168 -320,3296 -320,3296 -336,3296 -336,3296 -336,3168 -336,3168 -320,3168 " fill="rgb(251,251,34)" stroke="rgb(70,70,70)" stroke-width="10" stroke-linecap="round" />
<polygon points="-256,3136 -256,3168 -320,3168 -256,3136 " fill="rgb(251,251,34)" stroke="rgb(70,70,70)" stroke-width="10" stroke-linecap="round" />
<polygon points="-640,2944 -640,2944 -256,2874 -256,3120 -640,3120 -640,3120 -640,2944 " fill="rgb(251,251,34)" stroke="rgb(70,70,70)" stroke-width="10" stroke-linecap="round" />
<polygon points="-640,3168 -640,3120 -640,3120 -336,3120 -336,3168 " fill="rgb(228,11,11)" stroke="rgb(70,70,70)" stroke-width="10" stroke-linecap="round" />
<polygon points="-128,3612 -256,3588 -256,3344 -128,3344 -128,3344 " fill="rgb(228,11,11)" stroke="rgb(70,70,70)" stroke-width="10" stroke-linecap="round" />
<polygon points="-256,3328 -256,3328 -256,3296 -128,3296 -128,3328 " fill="rgb(26,243,243)" stroke="rgb(70,70,70)" stroke-width="10" stroke-linecap="round" />
<polygon points="-256,3344 -256,3328 -256,3328 -128,3328 -128,3328 -128,3344 -128,3344 -256,3344 " fill="rgb(232,15,232)" stroke="rgb(70,70,70)" stroke-width="10" stroke-linecap="round" />
<polygon points="-320,3296 -256,3296 -256,3328 -320,3296 " fill="rgb(22,239,22)" stroke="rgb(70,70,70)" stroke-width="10" stroke-linecap="round" />
<polygon points="-640,3296 -640,3296 -336,3296 -336,3573 -336,3573 -640,3519 " fill="rgb(26,243,243)" stroke="rgb(70,70,70)" stroke-width="10" stroke-linecap="round" />
<polygon points="-256,3588 -336,3573 -336,3344 -256,3344 " fill="rgb(26,243,243)" stroke="rgb(70,70,70)" stroke-width="10" stroke-linecap="round" />
<polygon points="-64,3327 -64,3327 -128,3291 -128,3172 -64,3135 " fill="rgb(3,3,220)" stroke="rgb(70,70,70)" stroke-width="10" stroke-linecap="round" />
<polygon points="-64,3327 -64,3136 -64,3136 46,3072 64,3072 64,3392 48,3392 48,3392 " fill="rgb(22,239,22)" stroke="rgb(70,70,70)" stroke-width="10" stroke-linecap="round" />
<polygon points="64,2816 64,2944 64,2944 -96,3120 -128,3120 -128,3120 -128,2851 64,2816 " fill="rgb(3,3,220)" stroke="rgb(70,70,70)" stroke-width="10" stroke-linecap="round" />
<polygon points="-65,3136 -128,3172 -128,3136 -65,3136 " fill="rgb(232,15,232)" stroke="rgb(70,70,70)" stroke-width="10" stroke-linecap="round" />
<polygon points="64,3647 -128,3612 -128,3344 -96,3344 64,3520 64,3647 " fill="rgb(22,239,22)" stroke="rgb(70,70,70)" stroke-width="10" stroke-linecap="round" />
<polygon points="-128,3328 -128,3291 -63,3328 -128,3328 " fill="rgb(3,3,220)" stroke="rgb(70,70,70)" stroke-width="10" stroke-linecap="round" />
<polygon points="-768,2944 -640,2816 -640,3519 -640,3519 -768,3496 " fill="rgb(251,251,34)" stroke="rgb(70,70,70)" stroke-width="10" stroke-linecap="round" />
<polygon points="128,3456 128,3264 160,3264 160,3264 160,3456 " fill="rgb(232,15,232)" stroke="rgb(70,70,70)" stroke-width="10" stroke-linecap="round" />
<polygon points="128,3200 128,3008 160,3008 160,3200 128,3200 " fill="rgb(232,15,232)" stroke="rgb(70,70,70)" stroke-width="10" stroke-linecap="round" />
<polygon points="128,3200 128,3200 160,3200 160,3200 160,3264 160,3264 128,3264 128,3264 " fill="rgb(3,3,220)" stroke="rgb(70,70,70)" stroke-width="10" stroke-linecap="round" />
<polygon points="64,3072 64,3072 128,3008 128,3200 64,3072 " fill="rgb(232,15,232)" stroke="rgb(70,70,70)" stroke-width="10" stroke-linecap="round" />
<polygon points="64,3392 64,3392 128,3264 128,3264 128,3456 " fill="rgb(22,239,22)" stroke="rgb(70,70,70)" stroke-width="10" stroke-linecap="round" />
<polygon points="64,3392 64,3072 128,3200 128,3200 128,3264 128,3264 64,3392 " fill="rgb(232,15,232)" stroke="rgb(70,70,70)" stroke-width="10" stroke-linecap="round" />
<polygon points="2752,2784 2752,2784 2944,2656 2960,2656 3047,2878 2959,2929 2752,2800 2752,2800 " fill="rgb(232,15,232)" stroke="rgb(70,70,70)" stroke-width="10" stroke-linecap="round" />
<polygon points="2931,2912 2931,2912 2959,2929 2752,3047 2752,2912 2752,2912 " fill="rgb(22,239,22)" stroke="rgb(70,70,70)" stroke-width="10" stroke-linecap="round" />
<polygon points="2880,2880 2931,2912 2880,2912 " fill="rgb(228,11,11)" stroke="rgb(70,70,70)" stroke-width="10" stroke-linecap="round" />
<polygon points="2944,2656 2752,2784 2752,2784 2752,2560 " fill="rgb(228,11,11)" stroke="rgb(70,70,70)" stroke-width="10" stroke-linecap="round" />
<polygon points="2752,3360 2752,3360 2943,3536 2752,3584 2752,3584 2752,3360 " fill="rgb(232,15,232)" stroke="rgb(70,70,70)" stroke-width="10" stroke-linecap="round" />
<polygon points="2752,3584 2752,3584 2752,3584 2752,3584 2943,3536 3066,3648 2985,3661 " fill="rgb(228,11,11)" stroke="rgb(70,70,70)" stroke-width="10" stroke-linecap="round" />
<polygon points="2944,3668 2944,3647 2985,3661 " fill="rgb(251,251,34)" stroke="rgb(70,70,70)" stroke-width="10" stroke-linecap="round" />
<polygon points="3070,3647 3066,3648 2949,3540 " fill="rgb(26,243,243)" stroke="rgb(70,70,70)" stroke-width="10" stroke-linecap="round" />
<polygon points="3351,3568 3270,3612 3261,3614 3104,3551 3241,3370 " fill="rgb(228,11,11)" stroke="rgb(70,70,70)" stroke-width="10" stroke-linecap="round" />
<polygon points="3352,3569 3367,3596 3352,3598 3352,3569 " fill="rgb(26,243,243)" stroke="rgb(70,70,70)" stroke-width="10" stroke-linecap="round" />
<polygon points="3352,3569 3352,3592 3349,3568 3351,3568 " fill="rgb(228,11,11)" stroke="rgb(70,70,70)" stroke-width="10" stroke-linecap="round" />
<polygon points="3302,3290 3407,3432 3311,3496 3241,3370 " fill="rgb(232,15,232)" stroke="rgb(70,70,70)" stroke-width="10" stroke-linecap="round" />
<polygon points="3351,3567 3311,3495 3407,3432 3454,3495 3447,3520 " fill="rgb(26,243,243)" stroke="rgb(70,70,70)" stroke-width="10" stroke-linecap="round" />
<polygon points="3446,3520 3430,3586 3367,3596 3351,3568 " fill="rgb(26,243,243)" stroke="rgb(70,70,70)" stroke-width="10" stroke-linecap="round" />
<polygon points="3472,3520 3472,3520 3511,3573 3430,3586 3447,3520 " fill="rgb(22,239,22)" stroke="rgb(70,70,70)" stroke-width="10" stroke-linecap="round" />
<polygon points="3047,3626 3102,3551 3259,3614 3071,3647 3047,3626 " fill="rgb(251,251,34)" stroke="rgb(70,70,70)" stroke-width="10" stroke-linecap="round" />
<polygon points="2752,3296 2752,3048 2752,3048 2752,3048 2752,3048 2974,3071 2752,3296 " fill="rgb(232,15,232)" stroke="rgb(70,70,70)" stroke-width="10" stroke-linecap="round" />
<polygon points="2752,3048 3012,2899 3070,2977 2975,3071 2752,3048 2752,3048 " fill="rgb(26,243,243)" stroke="rgb(70,70,70)" stroke-width="10" stroke-linecap="round" />
<polygon points="2944,3535 2941,3533 2752,3360 2752,3360 2752,3296 2752,3296 2814,3231 3111,3359 " fill="rgb(232,15,232)" stroke="rgb(70,70,70)" stroke-width="10" stroke-linecap="round" />
<polygon points="3214,3403 3047,3626 3047,3626 2944,3535 3112,3359 3215,3404 " fill="rgb(228,11,11)" stroke="rgb(70,70,70)" stroke-width="10" stroke-linecap="round" />
<polygon points="3279,3319 2984,3199 3138,3069 3302,3290 " fill="rgb(228,11,11)" stroke="rgb(70,70,70)" stroke-width="10" stroke-linecap="round" />
<polygon points="3138,3069 2984,3199 2886,3160 3070,2978 " fill="rgb(3,3,220)" stroke="rgb(70,70,70)" stroke-width="10" stroke-linecap="round" />
<polygon points="3214,3403 2816,3231 2886,3160 3278,3319 3215,3404 " fill="rgb(251,251,34)" stroke="rgb(70,70,70)" stroke-width="10" stroke-linecap="round" />
<polygon points="3406,3432 3406,3432 3139,3071 3303,3040 3398,3150 3471,3432 " fill="rgb(22,239,22)" stroke="rgb(70,70,70)" stroke-width="10" stroke-linecap="round" />
<polygon points="3303,3039 3304,3039 3377,3067 3397,3149 " fill="rgb(26,243,243)" stroke="rgb(70,70,70)" stroke-width="10" stroke-linecap="round" />
<polygon points="3471,3432 3471,3433 3453,3496 3406,3432 3471,3432 " fill="rgb(22,239,22)" stroke="rgb(70,70,70)" stroke-width="10" stroke-linecap="round" />
<polygon points="3302,3039 3139,3071 3044,2942 " fill="rgb(3,3,220)" stroke="rgb(70,70,70)" stroke-width="10" stroke-linecap="round" />
<polygon points="3044,2942 3012,2899 3048,2880 3048,2943 3048,2943 " fill="rgb(228,11,11)" stroke="rgb(70,70,70)" stroke-width="10" stroke-linecap="round" />
<polygon points="3370,3040 3377,3067 3305,3040 3370,3040 " fill="rgb(26,243,243)" stroke="rgb(70,70,70)" stroke-width="10" stroke-linecap="round" />
<polygon points="3344,2940 3370,3040 3320,3040 " fill="rgb(251,251,34)" stroke="rgb(70,70,70)" stroke-width="10" stroke-linecap="round" />
<polygon points="3680,3221 3680,3545 3680,3545 3555,3565 3552,3553 3552,3392 " fill="rgb(26,243,243)" stroke="rgb(70,70,70)" stroke-width="10" stroke-linecap="round" />
<polygon points="3680,3220 3737,3143 3808,3264 3808,3264 3680,3392 " fill="rgb(3,3,220)" stroke="rgb(70,70,70)" stroke-width="10" stroke-linecap="round" />
<polygon points="3344,2940 3360,2880 3583,2880 3672,3032 3368,3032 3368,3032 " fill="rgb(232,15,232)" stroke="rgb(70,70,70)" stroke-width="10" stroke-linecap="round" />
<polygon points="3496,3032 3496,3032 3672,3032 3737,3142 3647,3262 " fill="rgb(3,3,220)" stroke="rgb(70,70,70)" stroke-width="10" stroke-linecap="round" />
<polygon points="3398,3152 3368,3032 3456,3032 3415,3152 " fill="rgb(26,243,243)" stroke="rgb(70,70,70)" stroke-width="10" stroke-linecap="round" />
<polygon points="2496,2560 2496,2560 2496,2560 2336,2560 2336,2112 2336,2112 2496,2112 2496,2112 2496,2560 " fill="rgb(232,15,232)" stroke="rgb(70,70,70)" stroke-width="10" stroke-linecap="round" />
<polygon points="2336,2112 2336,2112 2336,2272 2176,2272 2176,2272 2176,2112 " fill="rgb(232,15,232)" stroke="rgb(70,70,70)" stroke-width="10" stroke-linecap="round" />
<polygon points="2176,2560 2176,2304 2176,2304 2208,2304 2208,2560 2208,2560 2176,2560 " fill="rgb(26,243,243)" stroke="rgb(70,70,70)" stroke-width="10" stroke-linecap="round" />
<polygon points="2208,2560 2208,2304 2208,2304 2304,2304 2304,2560 2208,2560 " fill="rgb(3,3,220)" stroke="rgb(70,70,70)" stroke-width="10" stroke-linecap="round" />
<polygon points="2336,2560 2336,2560 2496,2560 2496,2752 2336,2752 " fill="rgb(22,239,22)" stroke="rgb(70,70,70)" stroke-width="10" stroke-linecap="round" />
<polygon points="2176,2592 2336,2592 2336,2752 2176,2752 2176,2752 " fill="rgb(3,3,220)" stroke="rgb(70,70,70)" stroke-width="10" stroke-linecap="round" />
<polygon points="2496,2112 2176,2112 2176,2112 2176,2048 2496,2048 2496,2048 " fill="rgb(232,15,232)" stroke="rgb(70,70,70)" stroke-width="10" stroke-linecap="round" />
<polygon points="2624,2784 2624,2784 2752,2560 2752,2560 2752,2560 2752,2784 " fill="rgb(232,15,232)" stroke="rgb(70,70,70)" stroke-width="10" stroke-linecap="round" />
<polygon points="2496,2560 2752,2560 2752,2560 2752,2560 2752,2560 2624,2784 2624,2784 2624,2784 2624,2784 2496,2665 2496,2560 " fill="rgb(26,243,243)" stroke="rgb(70,70,70)" stroke-width="10" stroke-linecap="round" />
<polygon points="2496,2665 2496,2665 2520,2688 2496,2688 " fill="rgb(228,11,11)" stroke="rgb(70,70,70)" stroke-width="10" stroke-linecap="round" />
<polygon points="2560,2048 2560,2496 2560,2496 2496,2496 2496,2048 2496,2048 2560,2048 " fill="rgb(22,239,22)" stroke="rgb(70,70,70)" stroke-width="10" stroke-linecap="round" />
<polygon points="2400,3360 2176,3360 2176,2920 2239,2920 2400,3360 " fill="rgb(228,11,11)" stroke="rgb(70,70,70)" stroke-width="10" stroke-linecap="round" />
<polygon points="2736,3360 2736,3360 2400,3360 2309,3112 2736,3112 2736,3112 " fill="rgb(22,239,22)" stroke="rgb(70,70,70)" stroke-width="10" stroke-linecap="round" />
<polygon points="2432,3112 2309,3112 2271,3007 " fill="rgb(22,239,22)" stroke="rgb(70,70,70)" stroke-width="10" stroke-linecap="round" />
<polygon points="2752,3360 2736,3360 2736,3360 2736,3112 2736,3112 2752,3112 2752,3360 " fill="rgb(26,243,243)" stroke="rgb(70,70,70)" stroke-width="10" stroke-linecap="round" />
<polygon points="2240,3648 2240,3648 2240,3360 2736,3360 2736,3648 " fill="rgb(228,11,11)" stroke="rgb(70,70,70)" stroke-width="10" stroke-linecap="round" />
<polygon points="2240,3648 2736,3648 2736,3648 2485,3744 2240,3776 2240,3648 " fill="rgb(251,251,34)" stroke="rgb(70,70,70)" stroke-width="10" stroke-linecap="round" />
<polygon points="2176,3648 2176,3648 2176,3360 2240,3360 2240,3648 " fill="rgb(228,11,11)" stroke="rgb(70,70,70)" stroke-width="10" stroke-linecap="round" />
<polygon points="2240,3648 2240,3648 2240,3776 2240,3776 2240,3776 2197,3648 " fill="rgb(232,15,232)" stroke="rgb(70,70,70)" stroke-width="10" stroke-linecap="round" />
<polygon points="2176,3648 2197,3648 2197,3648 2207,3680 2176,3680 " fill="rgb(22,239,22)" stroke="rgb(70,70,70)" stroke-width="10" stroke-linecap="round" />
<polygon points="2888,4160 2888,4160 2888,4160 3104,4160 3104,4160 3104,4160 3104,4352 2888,4352 2888,4352 2888,4352 2888,4160 " fill="rgb(22,239,22)" stroke="rgb(70,70,70)" stroke-width="10" stroke-linecap="round" />
<polygon points="2888,4352 2856,4352 2856,4352 2856,4160 2856,4160 2888,4160 2888,4160 2888,4352 2888,4352 2888,4352 " fill="rgb(232,15,232)" stroke="rgb(70,70,70)" stroke-width="10" stroke-linecap="round" />
<polygon points="2856,4352 2688,4352 2688,4160 2856,4160 2856,4352 " fill="rgb(26,243,243)" stroke="rgb(70,70,70)" stroke-width="10" stroke-linecap="round" />
<polygon points="2688,4544 2688,4384 3104,4384 3104,4384 3104,4544 2688,4544 " fill="rgb(26,243,243)" stroke="rgb(70,70,70)" stroke-width="10" stroke-linecap="round" />
<polygon points="2856,4384 2856,4384 2688,4384 2688,4352 2856,4352 " fill="rgb(22,239,22)" stroke="rgb(70,70,70)" stroke-width="10" stroke-linecap="round" />
<polygon points="3104,4384 2912,4384 2912,4352 3104,4352 3104,4352 3104,4384 " fill="rgb(228,11,11)" stroke="rgb(70,70,70)" stroke-width="10" stroke-linecap="round" />
<polygon points="3160,4544 3160,4544 3160,4160 3160,4160 3160,4160 3328,4160 3328,4544 " fill="rgb(228,11,11)" stroke="rgb(70,70,70)" stroke-width="10" stroke-linecap="round" />
<polygon points="3160,4544 3104,4544 3104,4544 3104,4384 3160,4384 3160,4384 " fill="rgb(26,243,243)" stroke="rgb(70,70,70)" stroke-width="10" stroke-linecap="round" />
<polygon points="3128,4352 3128,4352 3128,4352 3128,4352 3104,4352 3104,4160 3128,4160 3128,4160 " fill="rgb(232,15,232)" stroke="rgb(70,70,70)" stroke-width="10" stroke-linecap="round" />
<polygon points="3160,4160 3160,4160 3160,4352 3160,4352 3128,4352 3128,4160 3128,4160 3128,4160 3128,4160 " fill="rgb(251,251,34)" stroke="rgb(70,70,70)" stroke-width="10" stroke-linecap="round" />
<polygon points="2944,4608 2944,4600 3072,4600 3072,4600 3072,4608 2944,4608 2944,4608 2944,4608 " fill="rgb(228,11,11)" stroke="rgb(70,70,70)" stroke-width="10" stroke-linecap="round" />
<polygon points="3072,4600 3024,4600 3024,4544 3024,4544 3072,4544 3072,4544 " fill="rgb(3,3,220)" stroke="rgb(70,70,70)" stroke-width="10" stroke-linecap="round" />
<polygon points="2944,4592 2944,4544 3024,4544 3024,4544 3024,4592 2944,4592 " fill="rgb(3,3,220)" stroke="rgb(70,70,70)" stroke-width="10" stroke-linecap="round" />
<polygon points="2944,4592 2992,4592 2992,4600 2992,4600 2944,4600 " fill="rgb(22,239,22)" stroke="rgb(70,70,70)" stroke-width="10" stroke-linecap="round" />
<polygon points="2992,4592 3024,4592 3024,4592 3024,4600 3024,4600 2992,4600 2992,4600 2992,4592 " fill="rgb(26,243,243)" stroke="rgb(70,70,70)" stroke-width="10" stroke-linecap="round" />
<polygon points="2976,4632 2976,4632 2976,4608 3040,4608 3040,4608 3040,4632 " fill="rgb(26,243,243)" stroke="rgb(70,70,70)" stroke-width="10" stroke-linecap="round" />
<polygon points="2976,4648 2976,4632 3040,4632 3040,4632 3040,4648 2976,4648 " fill="rgb(3,3,220)" stroke="rgb(70,70,70)" stroke-width="10" stroke-linecap="round" />
<polygon points="2912,4672 3104,4672 3104,4672 3104,4840 2912,4840 2912,4840 2912,4672 2912,4672 " fill="rgb(228,11,11)" stroke="rgb(70,70,70)" stroke-width="10" stroke-linecap="round" />
<polygon points="3024,4864 3024,4840 3024,4840 3104,4840 3104,4864 3024,4864 " fill="rgb(22,239,22)" stroke="rgb(70,70,70)" stroke-width="10" stroke-linecap="round" />
<polygon points="3024,4848 3024,4864 2912,4864 2912,4864 2912,4848 3024,4848 " fill="rgb(251,251,34)" stroke="rgb(70,70,70)" stroke-width="10" stroke-linecap="round" />
<polygon points="2992,4840 2992,4848 2992,4848 2912,4848 2912,4840 " fill="rgb(251,251,34)" stroke="rgb(70,70,70)" stroke-width="10" stroke-linecap="round" />
<polygon points="3024,4848 2992,4848 2992,4848 2992,4840 2992,4840 3024,4840 3024,4840 3024,4848 " fill="rgb(22,239,22)" stroke="rgb(70,70,70)" stroke-width="10" stroke-linecap="round" />
<polygon points="3040,4648 3040,4648 3040,4672 2976,4672 2976,4672 2976,4648 " fill="rgb(228,11,11)" stroke="rgb(70,70,70)" stroke-width="10" stroke-linecap="round" />
<polygon points="2719,3904 2687,3776 2752,3776 2752,3904 " fill="rgb(22,239,22)" stroke="rgb(70,70,70)" stroke-width="10" stroke-linecap="round" />
<polygon points="2784,3776 2784,3904 2784,3904 2752,3904 2752,3904 2752,3776 " fill="rgb(251,251,34)" stroke="rgb(70,70,70)" stroke-width="10" stroke-linecap="round" />
<polygon points="2816,3776 2816,3904 2816,3904 2784,3904 2784,3904 2784,3776 " fill="rgb(26,243,243)" stroke="rgb(70,70,70)" stroke-width="10" stroke-linecap="round" />
<polygon points="2816,4128 2816,4160 2784,4160 2776,4128 " fill="rgb(26,243,243)" stroke="rgb(70,70,70)" stroke-width="10" stroke-linecap="round" />
<polygon points="2848,3776 2848,3904 2848,3904 2816,3904 2816,3904 2816,3776 " fill="rgb(228,11,11)" stroke="rgb(70,70,70)" stroke-width="10" stroke-linecap="round" />
<polygon points="2880,3904 2880,3904 2848,3904 2848,3904 2848,3776 2880,3776 " fill="rgb(3,3,220)" stroke="rgb(70,70,70)" stroke-width="10" stroke-linecap="round" />
<polygon points="2856,4160 2816,4160 2816,4128 " fill="rgb(22,239,22)" stroke="rgb(70,70,70)" stroke-width="10" stroke-linecap="round" />
<polygon points="2912,3904 2880,3904 2880,3776 2912,3776 2912,3904 " fill="rgb(22,239,22)" stroke="rgb(70,70,70)" stroke-width="10" stroke-linecap="round" />
<polygon points="2240,3968 2368,3968 2368,3968 2368,3968 2368,4096 2240,4096 2240,4096 2240,4096 " fill="rgb(228,11,11)" stroke="rgb(70,70,70)" stroke-width="10" stroke-linecap="round" />
<polygon points="2240,3968 2240,4096 2240,4096 2176,4064 2176,3920 " fill="rgb(22,239,22)" stroke="rgb(70,70,70)" stroke-width="10" stroke-linecap="round" />
<polygon points="2784,4160 2688,4160 2688,4128 2775,4128 2775,4128 " fill="rgb(26,243,243)" stroke="rgb(70,70,70)" stroke-width="10" stroke-linecap="round" />
<polygon points="2630,3792 2687,3920 2435,3920 2614,3792 " fill="rgb(251,251,34)" stroke="rgb(70,70,70)" stroke-width="10" stroke-linecap="round" />
<polygon points="2368,3968 2435,3920 2672,3920 2368,4096 " fill="rgb(3,3,220)" stroke="rgb(70,70,70)" stroke-width="10" stroke-linecap="round" />
<polygon points="2687,3776 2719,3904 2687,3920 2631,3792 " fill="rgb(228,11,11)" stroke="rgb(70,70,70)" stroke-width="10" stroke-linecap="round" />
<polygon points="3072,3647 3072,4000 2944,4000 2944,4000 2944,3668 2944,3668 2944,3668 2944,3668 " fill="rgb(22,239,22)" stroke="rgb(70,70,70)" stroke-width="10" stroke-linecap="round" />
<polygon points="3072,4016 2944,4016 2944,4016 2944,4000 2944,4000 3072,4000 " fill="rgb(232,15,232)" stroke="rgb(70,70,70)" stroke-width="10" stroke-linecap="round" />
<polygon points="2944,3904 2944,3904 2912,3904 2912,3776 2912,3776 2944,3776 " fill="rgb(228,11,11)" stroke="rgb(70,70,70)" stroke-width="10" stroke-linecap="round" />
<polygon points="2944,4032 3072,4032 3072,4032 3104,4128 3104,4160 3104,4160 2912,4160 2912,4160 2912,4128 " fill="rgb(3,3,220)" stroke="rgb(70,70,70)" stroke-width="10" stroke-linecap="round" />
<polygon points="3072,4016 3072,4032 2944,4032 2944,4032 2944,4016 3072,4016 " fill="rgb(22,239,22)" stroke="rgb(70,70,70)" stroke-width="10" stroke-linecap="round" />
<polygon points="3328,4128 3328,4128 3328,4160 3328,4160 3160,4160 3200,4128 " fill="rgb(232,15,232)" stroke="rgb(70,70,70)" stroke-width="10" stroke-linecap="round" />
<polygon points="3200,3744 3328,3744 3328,3744 3328,3968 3200,3968 3200,3968 " fill="rgb(26,243,243)" stroke="rgb(70,70,70)" stroke-width="10" stroke-linecap="round" />
<polygon points="3511,3573 3520,3584 3520,3904 3520,3904 3520,3904 3328,3968 3328,3744 3328,3744 3328,3744 3377,3594 " fill="rgb(26,243,243)" stroke="rgb(70,70,70)" stroke-width="10" stroke-linecap="round" />
<polygon points="3352,3599 3377,3595 3359,3647 " fill="rgb(232,15,232)" stroke="rgb(70,70,70)" stroke-width="10" stroke-linecap="round" />
<polygon points="3584,3840 3584,3904 3520,3904 3520,3904 3520,3840 3520,3840 3584,3840 3584,3840 " fill="rgb(251,251,34)" stroke="rgb(70,70,70)" stroke-width="10" stroke-linecap="round" />
<polygon points="3584,3840 3584,3840 3680,3840 3680,3904 3584,3904 " fill="rgb(228,11,11)" stroke="rgb(70,70,70)" stroke-width="10" stroke-linecap="round" />
<polygon points="3680,3648 3680,3648 3680,3840 3584,3840 " fill="rgb(22,239,22)" stroke="rgb(70,70,70)" stroke-width="10" stroke-linecap="round" />
<polygon points="3680,3545 3680,3648 3680,3648 3616,3776 3555,3565 " fill="rgb(228,11,11)" stroke="rgb(70,70,70)" stroke-width="10" stroke-linecap="round" />
<polygon points="3744,3808 3680,3904 3680,3552 " fill="rgb(22,239,22)" stroke="rgb(70,70,70)" stroke-width="10" stroke-linecap="round" />

</svg>

