<svg width="900" height="661" preserveAspectRatio="none" viewBox="-2882 -2882 5572 4164"
 xmlns="http://www.w3.org/2000/svg" xmlns:xlink="http://www.w3.org/1999/xlink">
   <defs>
    <marker id="arrow" markerWidth="10" markerHeight="10" refX="0" refY="2" orient="auto" markerUnits="strokeWidth">
      <path d="M0,0 L0,4 L5,3 z" fill="#f00" />
    </marker>
  </defs>

<line x1="1152" y1="-448" x2="1152" y2="-512" stroke-width="10" stroke="black"/>
<line x1="896" y1="-1600" x2="1344" y2="-1565" stroke-width="10" stroke="black"/>
<line x1="960" y1="-672" x2="944" y2="-672" stroke-width="10" stroke="black"/>
<line x1="960" y1="-800" x2="960" y2="-672" stroke-width="10" stroke="black"/>
<line x1="1088" y1="-864" x2="1088" y2="-736" stroke-width="10" stroke="black"/>
<line x1="1024" y1="-832" x2="1024" y2="-704" stroke-width="10" stroke="black"/>
<line x1="1216" y1="-928" x2="1216" y2="-800" stroke-width="10" stroke="black"/>
<line x1="1280" y1="-960" x2="1280" y2="-832" stroke-width="10" stroke="black"/>
<line x1="1152" y1="-896" x2="1152" y2="-768" stroke-width="10" stroke="black"/>
<line x1="1344" y1="-976" x2="896" y2="-976" stroke-width="10" stroke="black"/>
<line x1="1152" y1="-512" x2="1280" y2="-512" stroke-width="10" stroke="black"/>
<line x1="1568" y1="-768" x2="1360" y2="-768" stroke-width="10" stroke="black"/>
<line x1="1568" y1="-704" x2="1376" y2="-704" stroke-width="10" stroke="black"/>
<line x1="1568" y1="-512" x2="1424" y2="-512" stroke-width="10" stroke="black"/>
<line x1="1568" y1="-576" x2="1408" y2="-576" stroke-width="10" stroke="black"/>
<line x1="1568" y1="-640" x2="1392" y2="-640" stroke-width="10" stroke="black"/>
<line x1="1344" y1="-1564" x2="1568" y2="-1547" stroke-width="10" stroke="black"/>
<line x1="1464" y1="-1088" x2="1464" y2="-1024" stroke-width="10" stroke="black"/>
<line x1="1568" y1="-1088" x2="1464" y2="-1088" stroke-width="10" stroke="black"/>
<line x1="1464" y1="-1024" x2="1464" y2="-976" stroke-width="10" stroke="black"/>
<line x1="1568" y1="-1024" x2="1464" y2="-1024" stroke-width="10" stroke="black"/>
<line x1="1440" y1="-976" x2="1440" y2="-960" stroke-width="10" stroke="black"/>
<line x1="1344" y1="-960" x2="1360" y2="-960" stroke-width="10" stroke="black"/>
<line x1="1440" y1="-976" x2="1360" y2="-976" stroke-width="10" stroke="black"/>
<line x1="1344" y1="-832" x2="1568" y2="-832" stroke-width="10" stroke="black"/>
<line x1="1760" y1="-464" x2="1760" y2="-448" stroke-width="10" stroke="black"/>
<line x1="1760" y1="-464" x2="1632" y2="-464" stroke-width="10" stroke="black"/>
<line x1="2304" y1="-1488" x2="2432" y2="-1232" stroke-width="10" stroke="black"/>
<line x1="2432" y1="-1232" x2="2432" y2="-448" stroke-width="10" stroke="black"/>
<line x1="1584" y1="-464" x2="1584" y2="-640" stroke-width="10" stroke="black"/>
<line x1="1584" y1="-976" x2="1568" y2="-976" stroke-width="10" stroke="black"/>
<line x1="1568" y1="-936" x2="1584" y2="-936" stroke-width="10" stroke="black"/>
<line x1="1632" y1="-448" x2="1632" y2="-464" stroke-width="10" stroke="black"/>
<line x1="1568" y1="-1546" x2="2304" y2="-1488" stroke-width="10" stroke="black"/>
<line x1="1568" y1="-832" x2="1568" y2="-768" stroke-width="10" stroke="black"/>
<line x1="1344" y1="-960" x2="1344" y2="-832" stroke-width="10" stroke="black"/>
<line x1="808" y1="-640" x2="640" y2="-576" stroke-width="10" stroke="black"/>
<line x1="640" y1="-704" x2="640" y2="-576" stroke-width="10" stroke="black"/>
<line x1="832" y1="-768" x2="832" y2="-640" stroke-width="10" stroke="black"/>
<line x1="128" y1="-1024" x2="64" y2="-1024" stroke-width="10" stroke="black"/>
<line x1="-64" y1="-960" x2="64" y2="-960" stroke-width="10" stroke="black"/>
<line x1="-128" y1="-760" x2="128" y2="-760" stroke-width="10" stroke="black"/>
<line x1="128" y1="-760" x2="-128" y2="-760" stroke-width="10" stroke="black"/>
<line x1="640" y1="-704" x2="808" y2="-768" stroke-width="10" stroke="black"/>
<line x1="320" y1="-448" x2="192" y2="-576" stroke-width="10" stroke="black"/>
<line x1="432" y1="-576" x2="416" y2="-560" stroke-width="10" stroke="black"/>
<line x1="480" y1="-560" x2="464" y2="-576" stroke-width="10" stroke="black"/>
<line x1="480" y1="-528" x2="480" y2="-560" stroke-width="10" stroke="black"/>
<line x1="432" y1="-512" x2="464" y2="-512" stroke-width="10" stroke="black"/>
<line x1="464" y1="-512" x2="480" y2="-528" stroke-width="10" stroke="black"/>
<line x1="416" y1="-560" x2="416" y2="-528" stroke-width="10" stroke="black"/>
<line x1="80" y1="-560" x2="-80" y2="-560" stroke-width="10" stroke="black"/>
<line x1="64" y1="-528" x2="-64" y2="-528" stroke-width="10" stroke="black"/>
<line x1="-64" y1="-528" x2="-64" y2="-544" stroke-width="10" stroke="black"/>
<line x1="64" y1="-544" x2="-64" y2="-544" stroke-width="10" stroke="black"/>
<line x1="96" y1="-448" x2="96" y2="-544" stroke-width="10" stroke="black"/>
<line x1="192" y1="-576" x2="96" y2="-576" stroke-width="10" stroke="black"/>
<line x1="848" y1="-640" x2="848" y2="-768" stroke-width="10" stroke="black"/>
<line x1="-320" y1="-576" x2="-320" y2="-448" stroke-width="10" stroke="black"/>
<line x1="-203" y1="-576" x2="-319" y2="-576" stroke-width="10" stroke="black"/>
<line x1="-544" y1="-592" x2="-544" y2="-560" stroke-width="10" stroke="black"/>
<line x1="-496" y1="-608" x2="-528" y2="-608" stroke-width="10" stroke="black"/>
<line x1="-480" y1="-592" x2="-496" y2="-608" stroke-width="10" stroke="black"/>
<line x1="-528" y1="-544" x2="-496" y2="-544" stroke-width="10" stroke="black"/>
<line x1="-480" y1="-560" x2="-480" y2="-592" stroke-width="10" stroke="black"/>
<line x1="-528" y1="-608" x2="-544" y2="-592" stroke-width="10" stroke="black"/>
<line x1="-496" y1="-544" x2="-480" y2="-560" stroke-width="10" stroke="black"/>
<line x1="-1088" y1="-640" x2="-960" y2="-640" stroke-width="10" stroke="black"/>
<line x1="-960" y1="-656" x2="-1088" y2="-656" stroke-width="10" stroke="black"/>
<line x1="-960" y1="-512" x2="-896" y2="-480" stroke-width="10" stroke="black"/>
<line x1="-736" y1="-480" x2="-736" y2="-448" stroke-width="10" stroke="black"/>
<line x1="-960" y1="-669" x2="-960" y2="-656" stroke-width="10" stroke="black"/>
<line x1="-704" y1="-448" x2="-704" y2="-464" stroke-width="10" stroke="black"/>
<line x1="-64" y1="-1024" x2="-128" y2="-1024" stroke-width="10" stroke="black"/>
<line x1="-576" y1="-1120" x2="-592" y2="-1120" stroke-width="10" stroke="black"/>
<line x1="-576" y1="-1056" x2="-576" y2="-1120" stroke-width="10" stroke="black"/>
<line x1="-592" y1="-1056" x2="-576" y2="-1056" stroke-width="10" stroke="black"/>
<line x1="-592" y1="-1120" x2="-640" y2="-1120" stroke-width="10" stroke="black"/>
<line x1="-640" y1="-1056" x2="-592" y2="-1056" stroke-width="10" stroke="black"/>
<line x1="-592" y1="-1056" x2="-592" y2="-1120" stroke-width="10" stroke="black"/>
<line x1="-704" y1="-992" x2="-512" y2="-992" stroke-width="10" stroke="black"/>
<line x1="-512" y1="-992" x2="-512" y2="-1184" stroke-width="10" stroke="black"/>
<line x1="-512" y1="-1184" x2="-704" y2="-1184" stroke-width="10" stroke="black"/>
<line x1="-704" y1="-1184" x2="-704" y2="-992" stroke-width="10" stroke="black"/>
<line x1="-128" y1="-1024" x2="-128" y2="-1088" stroke-width="10" stroke="black"/>
<line x1="-960" y1="-832" x2="-960" y2="-669" stroke-width="10" stroke="black"/>
<line x1="-768" y1="-832" x2="-832" y2="-896" stroke-width="10" stroke="black"/>
<line x1="-640" y1="-704" x2="-137" y2="-759" stroke-width="10" stroke="black"/>
<line x1="-304" y1="-2288" x2="-240" y2="-2240" stroke-width="10" stroke="black"/>
<line x1="-240" y1="-2240" x2="-304" y2="-2176" stroke-width="10" stroke="black"/>
<line x1="-240" y1="-2240" x2="-232" y2="-2232" stroke-width="10" stroke="black"/>
<line x1="-296" y1="-2168" x2="-232" y2="-2232" stroke-width="10" stroke="black"/>
<line x1="-632" y1="-2232" x2="-568" y2="-2168" stroke-width="10" stroke="black"/>
<line x1="-560" y1="-2176" x2="-624" y2="-2240" stroke-width="10" stroke="black"/>
<line x1="-304" y1="-2176" x2="-368" y2="-2176" stroke-width="10" stroke="black"/>
<line x1="-560" y1="-2176" x2="-568" y2="-2168" stroke-width="10" stroke="black"/>
<line x1="-496" y1="-2168" x2="-368" y2="-2168" stroke-width="10" stroke="black"/>
<line x1="-296" y1="-2168" x2="-304" y2="-2176" stroke-width="10" stroke="black"/>
<line x1="-96" y1="-2112" x2="-832" y2="-1952" stroke-width="10" stroke="black"/>
<line x1="-96" y1="-2304" x2="-96" y2="-2112" stroke-width="10" stroke="black"/>
<line x1="-219" y1="-2645" x2="-96" y2="-2624" stroke-width="10" stroke="black"/>
<line x1="-96" y1="-2624" x2="-96" y2="-2304" stroke-width="10" stroke="black"/>
<line x1="-320" y1="-2304" x2="-320" y2="-2368" stroke-width="10" stroke="black"/>
<line x1="-240" y1="-2432" x2="-304" y2="-2384" stroke-width="10" stroke="black"/>
<line x1="-232" y1="-2440" x2="-296" y2="-2504" stroke-width="10" stroke="black"/>
<line x1="-304" y1="-2496" x2="-240" y2="-2432" stroke-width="10" stroke="black"/>
<line x1="-368" y1="-2496" x2="-304" y2="-2496" stroke-width="10" stroke="black"/>
<line x1="-304" y1="-2496" x2="-296" y2="-2504" stroke-width="10" stroke="black"/>
<line x1="-384" y1="-2368" x2="-320" y2="-2368" stroke-width="10" stroke="black"/>
<line x1="-232" y1="-2304" x2="-232" y2="-2440" stroke-width="10" stroke="black"/>
<line x1="-392" y1="-2352" x2="-400" y2="-2352" stroke-width="10" stroke="black"/>
<line x1="-400" y1="-2320" x2="-392" y2="-2320" stroke-width="10" stroke="black"/>
<line x1="-400" y1="-2352" x2="-400" y2="-2320" stroke-width="10" stroke="black"/>
<line x1="-392" y1="-2320" x2="-392" y2="-2352" stroke-width="10" stroke="black"/>
<line x1="-384" y1="-2304" x2="-384" y2="-2368" stroke-width="10" stroke="black"/>
<line x1="-384" y1="-2304" x2="-320" y2="-2304" stroke-width="10" stroke="black"/>
<line x1="-768" y1="-2208" x2="-768" y2="-2336" stroke-width="10" stroke="black"/>
<line x1="-640" y1="-2304" x2="-640" y2="-2368" stroke-width="10" stroke="black"/>
<line x1="-656" y1="-2368" x2="-656" y2="-2304" stroke-width="10" stroke="black"/>
<line x1="-768" y1="-2208" x2="-832" y2="-2176" stroke-width="10" stroke="black"/>
<line x1="-624" y1="-2240" x2="-624" y2="-2304" stroke-width="10" stroke="black"/>
<line x1="-832" y1="-2032" x2="-832" y2="-2160" stroke-width="10" stroke="black"/>
<line x1="-568" y1="-2504" x2="-632" y2="-2440" stroke-width="10" stroke="black"/>
<line x1="-624" y1="-2432" x2="-560" y2="-2496" stroke-width="10" stroke="black"/>
<line x1="-632" y1="-2440" x2="-632" y2="-2376" stroke-width="10" stroke="black"/>
<line x1="-560" y1="-2496" x2="-496" y2="-2496" stroke-width="10" stroke="black"/>
<line x1="-496" y1="-2504" x2="-568" y2="-2504" stroke-width="10" stroke="black"/>
<line x1="-568" y1="-2504" x2="-560" y2="-2496" stroke-width="10" stroke="black"/>
<line x1="-848" y1="-2752" x2="-219" y2="-2645" stroke-width="10" stroke="black"/>
<line x1="-704" y1="-2368" x2="-656" y2="-2368" stroke-width="10" stroke="black"/>
<line x1="-632" y1="-2232" x2="-624" y2="-2240" stroke-width="10" stroke="black"/>
<line x1="-960" y1="-2048" x2="-960" y2="-2264" stroke-width="10" stroke="black"/>
<line x1="-1024" y1="-2048" x2="-1024" y2="-2264" stroke-width="10" stroke="black"/>
<line x1="-896" y1="-2080" x2="-896" y2="-2304" stroke-width="10" stroke="black"/>
<line x1="-904" y1="-1312" x2="-440" y2="-1312" stroke-width="10" stroke="black"/>
<line x1="-128" y1="-784" x2="-64" y2="-960" stroke-width="10" stroke="black"/>
<line x1="1280" y1="-256" x2="1152" y2="-256" stroke-width="10" stroke="black"/>
<line x1="1024" y1="-192" x2="1024" y2="-352" stroke-width="10" stroke="black"/>
<line x1="1088" y1="-288" x2="1088" y2="-416" stroke-width="10" stroke="black"/>
<line x1="1152" y1="-192" x2="1152" y2="-256" stroke-width="10" stroke="black"/>
<line x1="1408" y1="-128" x2="1568" y2="-128" stroke-width="10" stroke="black"/>
<line x1="1424" y1="-256" x2="1568" y2="-256" stroke-width="10" stroke="black"/>
<line x1="1424" y1="-192" x2="1424" y2="-256" stroke-width="10" stroke="black"/>
<line x1="1424" y1="-192" x2="1568" y2="-192" stroke-width="10" stroke="black"/>
<line x1="1280" y1="-256" x2="1280" y2="-192" stroke-width="10" stroke="black"/>
<line x1="1632" y1="-240" x2="1760" y2="-240" stroke-width="10" stroke="black"/>
<line x1="1592" y1="-256" x2="1568" y2="-256" stroke-width="10" stroke="black"/>
<line x1="2432" y1="-448" x2="2432" y2="-64" stroke-width="10" stroke="black"/>
<line x1="1792" y1="-416" x2="1792" y2="-288" stroke-width="10" stroke="black"/>
<line x1="1792" y1="-288" x2="1760" y2="-256" stroke-width="10" stroke="black"/>
<line x1="1808" y1="-288" x2="1792" y2="-288" stroke-width="10" stroke="black"/>
<line x1="1808" y1="-288" x2="1808" y2="-416" stroke-width="10" stroke="black"/>
<line x1="1760" y1="-256" x2="1760" y2="-240" stroke-width="10" stroke="black"/>
<line x1="1568" y1="-192" x2="1568" y2="-128" stroke-width="10" stroke="black"/>
<line x1="1344" y1="128" x2="1344" y2="256" stroke-width="10" stroke="black"/>
<line x1="1376" y1="0" x2="1568" y2="0" stroke-width="10" stroke="black"/>
<line x1="1360" y1="64" x2="1568" y2="64" stroke-width="10" stroke="black"/>
<line x1="1344" y1="128" x2="1568" y2="128" stroke-width="10" stroke="black"/>
<line x1="2432" y1="-64" x2="2432" y2="256" stroke-width="10" stroke="black"/>
<line x1="1584" y1="256" x2="1584" y2="232" stroke-width="10" stroke="black"/>
<line x1="1568" y1="64" x2="1568" y2="128" stroke-width="10" stroke="black"/>
<line x1="1584" y1="272" x2="1584" y2="256" stroke-width="10" stroke="black"/>
<line x1="1544" y1="272" x2="1584" y2="272" stroke-width="10" stroke="black"/>
<line x1="2304" y1="576" x2="1211" y2="663" stroke-width="10" stroke="black"/>
<line x1="2432" y1="256" x2="2304" y2="576" stroke-width="10" stroke="black"/>
<line x1="1344" y1="256" x2="1320" y2="256" stroke-width="10" stroke="black"/>
<line x1="1210" y1="663" x2="704" y2="703" stroke-width="10" stroke="black"/>
<line x1="848" y1="-64" x2="944" y2="-32" stroke-width="10" stroke="black"/>
<line x1="960" y1="-32" x2="960" y2="96" stroke-width="10" stroke="black"/>
<line x1="832" y1="64" x2="808" y2="64" stroke-width="10" stroke="black"/>
<line x1="832" y1="-64" x2="832" y2="64" stroke-width="10" stroke="black"/>
<line x1="848" y1="64" x2="848" y2="-64" stroke-width="10" stroke="black"/>
<line x1="1088" y1="32" x2="1088" y2="160" stroke-width="10" stroke="black"/>
<line x1="1152" y1="64" x2="1152" y2="192" stroke-width="10" stroke="black"/>
<line x1="1280" y1="128" x2="1280" y2="256" stroke-width="10" stroke="black"/>
<line x1="1216" y1="96" x2="1216" y2="224" stroke-width="10" stroke="black"/>
<line x1="1024" y1="0" x2="1024" y2="128" stroke-width="10" stroke="black"/>
<line x1="896" y1="272" x2="1308" y2="272" stroke-width="10" stroke="black"/>
<line x1="1344" y1="128" x2="1360" y2="64" stroke-width="10" stroke="black"/>
<line x1="1568" y1="-64" x2="1392" y2="-64" stroke-width="10" stroke="black"/>
<line x1="-1088" y1="-54" x2="-960" y2="-127" stroke-width="10" stroke="black"/>
<line x1="-576" y1="-64" x2="-704" y2="-64" stroke-width="10" stroke="black"/>
<line x1="-736" y1="-128" x2="-736" y2="0" stroke-width="10" stroke="black"/>
<line x1="-864" y1="64" x2="-704" y2="320" stroke-width="10" stroke="black"/>
<line x1="-864" y1="64" x2="-1088" y2="64" stroke-width="10" stroke="black"/>
<line x1="-864" y1="320" x2="-864" y2="64" stroke-width="10" stroke="black"/>
<line x1="-736" y1="0" x2="-736" y2="160" stroke-width="10" stroke="black"/>
<line x1="-736" y1="160" x2="-576" y2="160" stroke-width="10" stroke="black"/>
<line x1="-736" y1="160" x2="-576" y2="320" stroke-width="10" stroke="black"/>
<line x1="-576" y1="0" x2="-704" y2="0" stroke-width="10" stroke="black"/>
<line x1="-480" y1="160" x2="-480" y2="320" stroke-width="10" stroke="black"/>
<line x1="-520" y1="-64" x2="-576" y2="-64" stroke-width="10" stroke="black"/>
<line x1="-360" y1="96" x2="-520" y2="-64" stroke-width="10" stroke="black"/>
<line x1="-576" y1="160" x2="-480" y2="160" stroke-width="10" stroke="black"/>
<line x1="-576" y1="0" x2="-576" y2="128" stroke-width="10" stroke="black"/>
<line x1="-448" y1="640" x2="-512" y2="640" stroke-width="10" stroke="black"/>
<line x1="-448" y1="832" x2="-448" y2="640" stroke-width="10" stroke="black"/>
<line x1="-448" y1="448" x2="-448" y2="320" stroke-width="10" stroke="black"/>
<line x1="-480" y1="320" x2="-480" y2="448" stroke-width="10" stroke="black"/>
<line x1="-640" y1="512" x2="-320" y2="512" stroke-width="10" stroke="black"/>
<line x1="-1088" y1="448" x2="-1024" y2="448" stroke-width="10" stroke="black"/>
<line x1="-896" y1="320" x2="-896" y2="576" stroke-width="10" stroke="black"/>
<line x1="-1088" y1="704" x2="-864" y2="704" stroke-width="10" stroke="black"/>
<line x1="-704" y1="680" x2="-864" y2="680" stroke-width="10" stroke="black"/>
<line x1="-640" y1="704" x2="-640" y2="512" stroke-width="10" stroke="black"/>
<line x1="-576" y1="320" x2="-704" y2="320" stroke-width="10" stroke="black"/>
<line x1="-960" y1="-160" x2="-832" y2="-160" stroke-width="10" stroke="black"/>
<line x1="-960" y1="-192" x2="-832" y2="-192" stroke-width="10" stroke="black"/>
<line x1="-832" y1="-288" x2="-960" y2="-288" stroke-width="10" stroke="black"/>
<line x1="-960" y1="-272" x2="-832" y2="-272" stroke-width="10" stroke="black"/>
<line x1="-960" y1="-224" x2="-832" y2="-224" stroke-width="10" stroke="black"/>
<line x1="-960" y1="-288" x2="-1024" y2="-384" stroke-width="10" stroke="black"/>
<line x1="-1088" y1="-288" x2="-1064" y2="-288" stroke-width="10" stroke="black"/>
<line x1="-960" y1="-160" x2="-960" y2="-192" stroke-width="10" stroke="black"/>
<line x1="-704" y1="-304" x2="-704" y2="-448" stroke-width="10" stroke="black"/>
<line x1="-320" y1="-448" x2="-704" y2="-304" stroke-width="10" stroke="black"/>
<line x1="-736" y1="-448" x2="-736" y2="-320" stroke-width="10" stroke="black"/>
<line x1="-720" y1="-320" x2="-720" y2="-448" stroke-width="10" stroke="black"/>
<line x1="-832" y1="-272" x2="-832" y2="-224" stroke-width="10" stroke="black"/>
<line x1="-832" y1="-128" x2="-736" y2="-128" stroke-width="10" stroke="black"/>
<line x1="640" y1="-192" x2="640" y2="-128" stroke-width="10" stroke="black"/>
<line x1="448" y1="-48" x2="448" y2="-16" stroke-width="10" stroke="black"/>
<line x1="464" y1="-64" x2="448" y2="-48" stroke-width="10" stroke="black"/>
<line x1="512" y1="-48" x2="496" y2="-64" stroke-width="10" stroke="black"/>
<line x1="512" y1="-16" x2="512" y2="-48" stroke-width="10" stroke="black"/>
<line x1="496" y1="0" x2="512" y2="-16" stroke-width="10" stroke="black"/>
<line x1="496" y1="-64" x2="464" y2="-64" stroke-width="10" stroke="black"/>
<line x1="192" y1="-64" x2="192" y2="0" stroke-width="10" stroke="black"/>
<line x1="320" y1="-64" x2="192" y2="-64" stroke-width="10" stroke="black"/>
<line x1="-192" y1="0" x2="-192" y2="-64" stroke-width="10" stroke="black"/>
<line x1="-192" y1="-64" x2="-320" y2="-64" stroke-width="10" stroke="black"/>
<line x1="-80" y1="-96" x2="80" y2="-96" stroke-width="10" stroke="black"/>
<line x1="-176" y1="-192" x2="-80" y2="-96" stroke-width="10" stroke="black"/>
<line x1="80" y1="-96" x2="176" y2="-192" stroke-width="10" stroke="black"/>
<line x1="-80" y1="-72" x2="80" y2="-72" stroke-width="10" stroke="black"/>
<line x1="-200" y1="-192" x2="-80" y2="-72" stroke-width="10" stroke="black"/>
<line x1="80" y1="-72" x2="200" y2="-192" stroke-width="10" stroke="black"/>
<line x1="-80" y1="-48" x2="80" y2="-48" stroke-width="10" stroke="black"/>
<line x1="-224" y1="-192" x2="-80" y2="-48" stroke-width="10" stroke="black"/>
<line x1="80" y1="-48" x2="224" y2="-192" stroke-width="10" stroke="black"/>
<line x1="320" y1="-64" x2="320" y2="-192" stroke-width="10" stroke="black"/>
<line x1="-192" y1="0" x2="192" y2="0" stroke-width="10" stroke="black"/>
<line x1="-128" y1="320" x2="-128" y2="96" stroke-width="10" stroke="black"/>
<line x1="-192" y1="320" x2="-192" y2="448" stroke-width="10" stroke="black"/>
<line x1="-192" y1="448" x2="64" y2="448" stroke-width="10" stroke="black"/>
<line x1="-256" y1="320" x2="-320" y2="320" stroke-width="10" stroke="black"/>
<line x1="128" y1="96" x2="128" y2="320" stroke-width="10" stroke="black"/>
<line x1="-192" y1="1024" x2="320" y2="1024" stroke-width="10" stroke="black"/>
<line x1="320" y1="960" x2="-64" y2="960" stroke-width="10" stroke="black"/>
<line x1="-192" y1="832" x2="-192" y2="1024" stroke-width="10" stroke="black"/>
<line x1="256" y1="640" x2="384" y2="640" stroke-width="10" stroke="black"/>
<line x1="320" y1="768" x2="-128" y2="768" stroke-width="10" stroke="black"/>
<line x1="-128" y1="768" x2="-128" y2="576" stroke-width="10" stroke="black"/>
<line x1="-64" y1="832" x2="320" y2="832" stroke-width="10" stroke="black"/>
<line x1="384" y1="640" x2="384" y2="576" stroke-width="10" stroke="black"/>
<line x1="576" y1="928" x2="576" y2="864" stroke-width="10" stroke="black"/>
<line x1="512" y1="576" x2="512" y2="848" stroke-width="10" stroke="black"/>
<line x1="-128" y1="576" x2="-256" y2="576" stroke-width="10" stroke="black"/>
<line x1="-128" y1="96" x2="-320" y2="96" stroke-width="10" stroke="black"/>
<line x1="-64" y1="-320" x2="-64" y2="-448" stroke-width="10" stroke="black"/>
<line x1="-288" y1="-320" x2="-128" y2="-320" stroke-width="10" stroke="black"/>
<line x1="-256" y1="-384" x2="-128" y2="-384" stroke-width="10" stroke="black"/>
<line x1="-128" y1="-256" x2="-128" y2="-320" stroke-width="10" stroke="black"/>
<line x1="160" y1="-368" x2="160" y2="-400" stroke-width="10" stroke="black"/>
<line x1="160" y1="-400" x2="128" y2="-416" stroke-width="10" stroke="black"/>
<line x1="128" y1="-352" x2="160" y2="-368" stroke-width="10" stroke="black"/>
<line x1="192" y1="-320" x2="192" y2="-448" stroke-width="10" stroke="black"/>
<line x1="128" y1="-416" x2="96" y2="-416" stroke-width="10" stroke="black"/>
<line x1="96" y1="-352" x2="128" y2="-352" stroke-width="10" stroke="black"/>
<line x1="128" y1="-416" x2="128" y2="-448" stroke-width="10" stroke="black"/>
<line x1="96" y1="-320" x2="128" y2="-320" stroke-width="10" stroke="black"/>
<line x1="640" y1="-336" x2="320" y2="-336" stroke-width="10" stroke="black"/>
<line x1="320" y1="-320" x2="640" y2="-320" stroke-width="10" stroke="black"/>
<line x1="304" y1="-320" x2="304" y2="-256" stroke-width="10" stroke="black"/>
<line x1="320" y1="-336" x2="320" y2="-448" stroke-width="10" stroke="black"/>
<line x1="288" y1="-448" x2="288" y2="-320" stroke-width="10" stroke="black"/>
<line x1="64" y1="-400" x2="64" y2="-376" stroke-width="10" stroke="black"/>
<line x1="-176" y1="-192" x2="-64" y2="-192" stroke-width="10" stroke="black"/>
<line x1="-320" y1="-192" x2="-320" y2="-64" stroke-width="10" stroke="black"/>
<line x1="704" y1="704" x2="704" y2="384" stroke-width="10" stroke="black"/>
<line x1="1760" y1="-448" x2="1632" y2="-448" stroke-width="10" stroke="black"/>
<line x1="-1728" y1="-1728" x2="-1792" y2="-1728" stroke-width="10" stroke="black"/>
<line x1="-1728" y1="-1696" x2="-1824" y2="-1696" stroke-width="10" stroke="black"/>
<line x1="-1472" y1="-1704" x2="-1600" y2="-1704" stroke-width="10" stroke="black"/>
<line x1="-1728" y1="-1696" x2="-1728" y2="-1664" stroke-width="10" stroke="black"/>
<line x1="-1728" y1="-1792" x2="-1728" y2="-2048" stroke-width="10" stroke="black"/>
<line x1="-1792" y1="-1792" x2="-1728" y2="-1792" stroke-width="10" stroke="black"/>
<line x1="-1824" y1="-1696" x2="-1792" y2="-1728" stroke-width="10" stroke="black"/>
<line x1="-1648" y1="-2112" x2="-1696" y2="-2064" stroke-width="10" stroke="black"/>
<line x1="-1728" y1="-2048" x2="-1688" y2="-2056" stroke-width="10" stroke="black"/>
<line x1="-1688" y1="-2056" x2="-1696" y2="-2064" stroke-width="10" stroke="black"/>
<line x1="-1688" y1="-2056" x2="-1640" y2="-2104" stroke-width="10" stroke="black"/>
<line x1="-1600" y1="-2112" x2="-1600" y2="-2176" stroke-width="10" stroke="black"/>
<line x1="-1600" y1="-2176" x2="-1472" y2="-2176" stroke-width="10" stroke="black"/>
<line x1="-1696" y1="-2240" x2="-1696" y2="-2152" stroke-width="10" stroke="black"/>
<line x1="-1600" y1="-2112" x2="-1472" y2="-2112" stroke-width="10" stroke="black"/>
<line x1="-1792" y1="-2048" x2="-1728" y2="-2048" stroke-width="10" stroke="black"/>
<line x1="-1152" y1="-2112" x2="-1200" y2="-2144" stroke-width="10" stroke="black"/>
<line x1="-1152" y1="-2112" x2="-1152" y2="-2312" stroke-width="10" stroke="black"/>
<line x1="-1216" y1="-2144" x2="-1216" y2="-2336" stroke-width="10" stroke="black"/>
<line x1="-1312" y1="-2240" x2="-1312" y2="-2304" stroke-width="10" stroke="black"/>
<line x1="-1376" y1="-2152" x2="-1376" y2="-2240" stroke-width="10" stroke="black"/>
<line x1="-1432" y1="-2104" x2="-1384" y2="-2056" stroke-width="10" stroke="black"/>
<line x1="-1376" y1="-2064" x2="-1424" y2="-2112" stroke-width="10" stroke="black"/>
<line x1="-1344" y1="-2048" x2="-1344" y2="-1792" stroke-width="10" stroke="black"/>
<line x1="-1312" y1="-2112" x2="-1376" y2="-2064" stroke-width="10" stroke="black"/>
<line x1="-1376" y1="-2240" x2="-1472" y2="-2240" stroke-width="10" stroke="black"/>
<line x1="-1280" y1="-2304" x2="-1280" y2="-2336" stroke-width="10" stroke="black"/>
<line x1="-1472" y1="-2176" x2="-1472" y2="-2112" stroke-width="10" stroke="black"/>
<line x1="-1728" y1="-1632" x2="-1824" y2="-1632" stroke-width="10" stroke="black"/>
<line x1="-1728" y1="-1600" x2="-1824" y2="-1600" stroke-width="10" stroke="black"/>
<line x1="-1728" y1="-1536" x2="-1792" y2="-1472" stroke-width="10" stroke="black"/>
<line x1="-1728" y1="-1536" x2="-1824" y2="-1536" stroke-width="10" stroke="black"/>
<line x1="-1728" y1="-1568" x2="-1824" y2="-1568" stroke-width="10" stroke="black"/>
<line x1="-1472" y1="-1568" x2="-1600" y2="-1568" stroke-width="10" stroke="black"/>
<line x1="-1696" y1="-1496" x2="-1728" y2="-1432" stroke-width="10" stroke="black"/>
<line x1="-1616" y1="-1496" x2="-1616" y2="-1432" stroke-width="10" stroke="black"/>
<line x1="-1600" y1="-1568" x2="-1600" y2="-1664" stroke-width="10" stroke="black"/>
<line x1="-1728" y1="-1568" x2="-1728" y2="-1536" stroke-width="10" stroke="black"/>
<line x1="-1728" y1="-1024" x2="-1728" y2="-1088" stroke-width="10" stroke="black"/>
<line x1="-1664" y1="-960" x2="-1728" y2="-1024" stroke-width="10" stroke="black"/>
<line x1="-1600" y1="-1051" x2="-1728" y2="-1087" stroke-width="10" stroke="black"/>
<line x1="-1640" y1="-1344" x2="-1600" y2="-1408" stroke-width="10" stroke="black"/>
<line x1="-1728" y1="-1104" x2="-1824" y2="-1104" stroke-width="10" stroke="black"/>
<line x1="-1824" y1="-1088" x2="-1728" y2="-1088" stroke-width="10" stroke="black"/>
<line x1="-1472" y1="-1216" x2="-1472" y2="-1408" stroke-width="10" stroke="black"/>
<line x1="-1312" y1="-1024" x2="-1504" y2="-1024" stroke-width="10" stroke="black"/>
<line x1="-1312" y1="-1120" x2="-1312" y2="-1024" stroke-width="10" stroke="black"/>
<line x1="-1600" y1="-1120" x2="-1312" y2="-1120" stroke-width="10" stroke="black"/>
<line x1="-1216" y1="-1216" x2="-1472" y2="-1216" stroke-width="10" stroke="black"/>
<line x1="-1504" y1="-1024" x2="-1600" y2="-1051" stroke-width="10" stroke="black"/>
<line x1="-1600" y1="-1408" x2="-1600" y2="-1120" stroke-width="10" stroke="black"/>
<line x1="-1600" y1="-1408" x2="-1472" y2="-1408" stroke-width="10" stroke="black"/>
<line x1="-1616" y1="-1432" x2="-1728" y2="-1432" stroke-width="10" stroke="black"/>
<line x1="-1472" y1="-1664" x2="-1600" y2="-1664" stroke-width="10" stroke="black"/>
<line x1="-1408" y1="-32" x2="-1664" y2="-32" stroke-width="10" stroke="black"/>
<line x1="-1152" y1="-32" x2="-1152" y2="-128" stroke-width="10" stroke="black"/>
<line x1="-1344" y1="-128" x2="-1344" y2="-32" stroke-width="10" stroke="black"/>
<line x1="-1568" y1="-192" x2="-1568" y2="-128" stroke-width="10" stroke="black"/>
<line x1="-1280" y1="-160" x2="-1280" y2="-272" stroke-width="10" stroke="black"/>
<line x1="-1408" y1="-272" x2="-1408" y2="-192" stroke-width="10" stroke="black"/>
<line x1="-1152" y1="-128" x2="-1088" y2="-128" stroke-width="10" stroke="black"/>
<line x1="-1296" y1="64" x2="-1088" y2="-54" stroke-width="10" stroke="black"/>
<line x1="-1408" y1="88" x2="-1296" y2="88" stroke-width="10" stroke="black"/>
<line x1="-1408" y1="192" x2="-1408" y2="88" stroke-width="10" stroke="black"/>
<line x1="-1408" y1="192" x2="-1088" y2="64" stroke-width="10" stroke="black"/>
<line x1="-1296" y1="64" x2="-1408" y2="64" stroke-width="10" stroke="black"/>
<line x1="-1856" y1="256" x2="-1728" y2="192" stroke-width="10" stroke="black"/>
<line x1="-1408" y1="320" x2="-1408" y2="192" stroke-width="10" stroke="black"/>
<line x1="-1432" y1="192" x2="-1432" y2="320" stroke-width="10" stroke="black"/>
<line x1="-1664" y1="608" x2="-1344" y2="608" stroke-width="10" stroke="black"/>
<line x1="-1792" y1="576" x2="-1728" y2="704" stroke-width="10" stroke="black"/>
<line x1="-1728" y1="768" x2="-1728" y2="704" stroke-width="10" stroke="black"/>
<line x1="-1664" y1="512" x2="-1664" y2="576" stroke-width="10" stroke="black"/>
<line x1="-1600" y1="384" x2="-1600" y2="320" stroke-width="10" stroke="black"/>
<line x1="-1856" y1="576" x2="-1792" y2="576" stroke-width="10" stroke="black"/>
<line x1="-1472" y1="768" x2="-1728" y2="768" stroke-width="10" stroke="black"/>
<line x1="-1600" y1="320" x2="-1856" y2="320" stroke-width="10" stroke="black"/>
<line x1="-1088" y1="832" x2="-1152" y2="832" stroke-width="10" stroke="black"/>
<line x1="-1344" y1="768" x2="-1216" y2="768" stroke-width="10" stroke="black"/>
<line x1="-1216" y1="552" x2="-1344" y2="552" stroke-width="10" stroke="black"/>
<line x1="-1216" y1="424" x2="-1344" y2="424" stroke-width="10" stroke="black"/>
<line x1="-1216" y1="448" x2="-1088" y2="448" stroke-width="10" stroke="black"/>
<line x1="-1344" y1="608" x2="-1344" y2="768" stroke-width="10" stroke="black"/>
<line x1="-1088" y1="192" x2="-1216" y2="192" stroke-width="10" stroke="black"/>
<line x1="-1632" y1="-384" x2="-1632" y2="-544" stroke-width="10" stroke="black"/>
<line x1="-1544" y1="-544" x2="-1184" y2="-544" stroke-width="10" stroke="black"/>
<line x1="-1472" y1="-368" x2="-1216" y2="-368" stroke-width="10" stroke="black"/>
<line x1="-1568" y1="-544" x2="-1568" y2="-384" stroke-width="10" stroke="black"/>
<line x1="-1808" y1="-424" x2="-1680" y2="-552" stroke-width="10" stroke="black"/>
<line x1="-1856" y1="-624" x2="-1696" y2="-624" stroke-width="10" stroke="black"/>
<line x1="-1856" y1="-576" x2="-1696" y2="-576" stroke-width="10" stroke="black"/>
<line x1="-1856" y1="-512" x2="-1696" y2="-560" stroke-width="10" stroke="black"/>
<line x1="-1728" y1="-384" x2="-1656" y2="-544" stroke-width="10" stroke="black"/>
<line x1="-1856" y1="-768" x2="-1696" y2="-768" stroke-width="10" stroke="black"/>
<line x1="-1856" y1="-720" x2="-1696" y2="-720" stroke-width="10" stroke="black"/>
<line x1="-1856" y1="-864" x2="-1696" y2="-864" stroke-width="10" stroke="black"/>
<line x1="-1856" y1="-912" x2="-1696" y2="-912" stroke-width="10" stroke="black"/>
<line x1="-1856" y1="-816" x2="-1696" y2="-816" stroke-width="10" stroke="black"/>
<line x1="-1584" y1="-928" x2="-1216" y2="-928" stroke-width="10" stroke="black"/>
<line x1="-1664" y1="-960" x2="-1584" y2="-928" stroke-width="10" stroke="black"/>
<line x1="-1696" y1="-960" x2="-1696" y2="-912" stroke-width="10" stroke="black"/>
<line x1="-1856" y1="-672" x2="-1696" y2="-672" stroke-width="10" stroke="black"/>
<line x1="-1664" y1="-288" x2="-1472" y2="-288" stroke-width="10" stroke="black"/>
<line x1="-1680" y1="-960" x2="-1696" y2="-960" stroke-width="10" stroke="black"/>
<line x1="-2368" y1="-416" x2="-2240" y2="-416" stroke-width="10" stroke="black"/>
<line x1="-2368" y1="-480" x2="-2240" y2="-480" stroke-width="10" stroke="black"/>
<line x1="-2368" y1="-448" x2="-2240" y2="-448" stroke-width="10" stroke="black"/>
<line x1="-2216" y1="-512" x2="-2240" y2="-512" stroke-width="10" stroke="black"/>
<line x1="-2240" y1="-512" x2="-2240" y2="-480" stroke-width="10" stroke="black"/>
<line x1="-2232" y1="-1088" x2="-2232" y2="-928" stroke-width="10" stroke="black"/>
<line x1="-2216" y1="-888" x2="-2216" y2="-928" stroke-width="10" stroke="black"/>
<line x1="-1984" y1="-1168" x2="-2176" y2="-1168" stroke-width="10" stroke="black"/>
<line x1="-2176" y1="-1152" x2="-1984" y2="-1152" stroke-width="10" stroke="black"/>
<line x1="-2216" y1="-1088" x2="-2216" y2="-1152" stroke-width="10" stroke="black"/>
<line x1="-2176" y1="-1168" x2="-2232" y2="-1168" stroke-width="10" stroke="black"/>
<line x1="-2176" y1="-1152" x2="-2176" y2="-1168" stroke-width="10" stroke="black"/>
<line x1="-2232" y1="-1088" x2="-2216" y2="-1088" stroke-width="10" stroke="black"/>
<line x1="-2592" y1="-1312" x2="-1984" y2="-1536" stroke-width="10" stroke="black"/>
<line x1="-2448" y1="-656" x2="-2592" y2="-1312" stroke-width="10" stroke="black"/>
<line x1="-1984" y1="-1152" x2="-1952" y2="-1152" stroke-width="10" stroke="black"/>
<line x1="-1984" y1="-1168" x2="-1984" y2="-1152" stroke-width="10" stroke="black"/>
<line x1="-2056" y1="-888" x2="-2056" y2="-936" stroke-width="10" stroke="black"/>
<line x1="-2104" y1="-888" x2="-2056" y2="-888" stroke-width="10" stroke="black"/>
<line x1="-2104" y1="-936" x2="-2104" y2="-888" stroke-width="10" stroke="black"/>
<line x1="-2056" y1="-936" x2="-2104" y2="-936" stroke-width="10" stroke="black"/>
<line x1="-2144" y1="-864" x2="-2144" y2="-960" stroke-width="10" stroke="black"/>
<line x1="-2048" y1="-832" x2="-2112" y2="-832" stroke-width="10" stroke="black"/>
<line x1="-2016" y1="-864" x2="-2048" y2="-832" stroke-width="10" stroke="black"/>
<line x1="-2048" y1="-992" x2="-2016" y2="-960" stroke-width="10" stroke="black"/>
<line x1="-2112" y1="-992" x2="-2048" y2="-992" stroke-width="10" stroke="black"/>
<line x1="-2016" y1="-960" x2="-2016" y2="-864" stroke-width="10" stroke="black"/>
<line x1="-2112" y1="-832" x2="-2144" y2="-864" stroke-width="10" stroke="black"/>
<line x1="-2232" y1="-864" x2="-2232" y2="-736" stroke-width="10" stroke="black"/>
<line x1="-2216" y1="-640" x2="-2216" y2="-736" stroke-width="10" stroke="black"/>
<line x1="-1936" y1="-1024" x2="-1936" y2="-1128" stroke-width="10" stroke="black"/>
<line x1="-1856" y1="-960" x2="-1920" y2="-960" stroke-width="10" stroke="black"/>
<line x1="-1920" y1="-1024" x2="-1936" y2="-1024" stroke-width="10" stroke="black"/>
<line x1="-1952" y1="-1152" x2="-1952" y2="-1128" stroke-width="10" stroke="black"/>
<line x1="-2112" y1="-992" x2="-2144" y2="-960" stroke-width="10" stroke="black"/>
<line x1="-2240" y1="-640" x2="-2216" y2="-640" stroke-width="10" stroke="black"/>
<line x1="-2208" y1="-64" x2="-2304" y2="-64" stroke-width="10" stroke="black"/>
<line x1="-1856" y1="256" x2="-1920" y2="128" stroke-width="10" stroke="black"/>
<line x1="-2112" y1="-192" x2="-2112" y2="-64" stroke-width="10" stroke="black"/>
<line x1="-2144" y1="-192" x2="-2144" y2="-64" stroke-width="10" stroke="black"/>
<line x1="-1920" y1="64" x2="-1856" y2="64" stroke-width="10" stroke="black"/>
<line x1="-2176" y1="-192" x2="-2176" y2="-64" stroke-width="10" stroke="black"/>
<line x1="-2048" y1="256" x2="-2048" y2="320" stroke-width="10" stroke="black"/>
<line x1="-2048" y1="448" x2="-2048" y2="512" stroke-width="10" stroke="black"/>
<line x1="-1920" y1="512" x2="-1920" y2="576" stroke-width="10" stroke="black"/>
<line x1="-1984" y1="448" x2="-2048" y2="448" stroke-width="10" stroke="black"/>
<line x1="-2240" y1="320" x2="-2176" y2="320" stroke-width="10" stroke="black"/>
<line x1="-2176" y1="320" x2="-2176" y2="128" stroke-width="10" stroke="black"/>
<line x1="-2240" y1="64" x2="-2368" y2="-64" stroke-width="10" stroke="black"/>
<line x1="-2112" y1="-224" x2="-1984" y2="-224" stroke-width="10" stroke="black"/>
<line x1="-1952" y1="-256" x2="-1952" y2="-384" stroke-width="10" stroke="black"/>
<line x1="-1984" y1="-384" x2="-1984" y2="-256" stroke-width="10" stroke="black"/>
<line x1="-2112" y1="-256" x2="-1984" y2="-256" stroke-width="10" stroke="black"/>
<line x1="-2176" y1="-256" x2="-2176" y2="-384" stroke-width="10" stroke="black"/>
<line x1="-2144" y1="-256" x2="-2144" y2="-384" stroke-width="10" stroke="black"/>
<line x1="-2240" y1="-256" x2="-2240" y2="-384" stroke-width="10" stroke="black"/>
<line x1="-2208" y1="-256" x2="-2208" y2="-384" stroke-width="10" stroke="black"/>
<line x1="-2112" y1="-224" x2="-2112" y2="-256" stroke-width="10" stroke="black"/>
<line x1="-2176" y1="-192" x2="-2144" y2="-192" stroke-width="10" stroke="black"/>
<line x1="-2240" y1="-384" x2="-2368" y2="-384" stroke-width="10" stroke="black"/>
<line x1="-1856" y1="-912" x2="-1856" y2="-960" stroke-width="10" stroke="black"/>
<line x1="-1088" y1="-160" x2="-1088" y2="-288" stroke-width="10" stroke="black"/>

</svg>

