<svg width="900" height="651" preserveAspectRatio="none" viewBox="-3426 222 4484 3316"
 xmlns="http://www.w3.org/2000/svg" xmlns:xlink="http://www.w3.org/1999/xlink">
   <defs>
    <marker id="arrow" markerWidth="10" markerHeight="10" refX="0" refY="2" orient="auto" markerUnits="strokeWidth">
      <path d="M0,0 L0,4 L5,3 z" fill="#f00" />
    </marker>
  </defs>

<line x1="440" y1="1584" x2="432" y2="1584" stroke-width="10" stroke="black"/>
<line x1="440" y1="1616" x2="440" y2="1584" stroke-width="10" stroke="black"/>
<line x1="432" y1="1584" x2="432" y2="1616" stroke-width="10" stroke="black"/>
<line x1="432" y1="1616" x2="440" y2="1616" stroke-width="10" stroke="black"/>
<line x1="576" y1="1568" x2="576" y2="1632" stroke-width="10" stroke="black"/>
<line x1="552" y1="1472" x2="552" y2="1496" stroke-width="10" stroke="black"/>
<line x1="616" y1="1568" x2="616" y2="1512" stroke-width="10" stroke="black"/>
<line x1="736" y1="1696" x2="672" y2="1696" stroke-width="10" stroke="black"/>
<line x1="712" y1="1616" x2="712" y2="1584" stroke-width="10" stroke="black"/>
<line x1="704" y1="1584" x2="704" y2="1616" stroke-width="10" stroke="black"/>
<line x1="712" y1="1584" x2="704" y2="1584" stroke-width="10" stroke="black"/>
<line x1="704" y1="1616" x2="712" y2="1616" stroke-width="10" stroke="black"/>
<line x1="736" y1="1760" x2="736" y2="1696" stroke-width="10" stroke="black"/>
<line x1="672" y1="1696" x2="672" y2="1760" stroke-width="10" stroke="black"/>
<line x1="592" y1="1568" x2="592" y2="1632" stroke-width="10" stroke="black"/>
<line x1="32" y1="1536" x2="32" y2="1664" stroke-width="10" stroke="black"/>
<line x1="96" y1="1536" x2="96" y2="1664" stroke-width="10" stroke="black"/>
<line x1="64" y1="1536" x2="64" y2="1664" stroke-width="10" stroke="black"/>
<line x1="32" y1="1664" x2="0" y2="1664" stroke-width="10" stroke="black"/>
<line x1="160" y1="1536" x2="160" y2="1664" stroke-width="10" stroke="black"/>
<line x1="192" y1="1536" x2="280" y2="1536" stroke-width="10" stroke="black"/>
<line x1="280" y1="1664" x2="192" y2="1664" stroke-width="10" stroke="black"/>
<line x1="192" y1="1536" x2="192" y2="1664" stroke-width="10" stroke="black"/>
<line x1="128" y1="1696" x2="288" y2="1696" stroke-width="10" stroke="black"/>
<line x1="128" y1="1536" x2="128" y2="1664" stroke-width="10" stroke="black"/>
<line x1="288" y1="1504" x2="0" y2="1504" stroke-width="10" stroke="black"/>
<line x1="-256" y1="1536" x2="-224" y2="1536" stroke-width="10" stroke="black"/>
<line x1="-256" y1="1696" x2="-224" y2="1696" stroke-width="10" stroke="black"/>
<line x1="-224" y1="1696" x2="-224" y2="1664" stroke-width="10" stroke="black"/>
<line x1="-256" y1="1664" x2="-256" y2="1696" stroke-width="10" stroke="black"/>
<line x1="-128" y1="1536" x2="-128" y2="1664" stroke-width="10" stroke="black"/>
<line x1="-96" y1="1536" x2="-96" y2="1664" stroke-width="10" stroke="black"/>
<line x1="-32" y1="1536" x2="-32" y2="1664" stroke-width="10" stroke="black"/>
<line x1="-64" y1="1536" x2="-64" y2="1664" stroke-width="10" stroke="black"/>
<line x1="-96" y1="1664" x2="-128" y2="1664" stroke-width="10" stroke="black"/>
<line x1="-128" y1="1536" x2="-96" y2="1536" stroke-width="10" stroke="black"/>
<line x1="-192" y1="1504" x2="-192" y2="1536" stroke-width="10" stroke="black"/>
<line x1="0" y1="1664" x2="0" y2="1536" stroke-width="10" stroke="black"/>
<line x1="192" y1="1888" x2="-64" y2="1888" stroke-width="10" stroke="black"/>
<line x1="-64" y1="1760" x2="192" y2="1760" stroke-width="10" stroke="black"/>
<line x1="-320" y1="1920" x2="-448" y2="1728" stroke-width="10" stroke="black"/>
<line x1="-64" y1="1888" x2="-64" y2="1760" stroke-width="10" stroke="black"/>
<line x1="288" y1="1728" x2="288" y2="1920" stroke-width="10" stroke="black"/>
<line x1="192" y1="1760" x2="192" y2="1888" stroke-width="10" stroke="black"/>
<line x1="-448" y1="1728" x2="-512" y2="1728" stroke-width="10" stroke="black"/>
<line x1="304" y1="1680" x2="304" y2="1520" stroke-width="10" stroke="black"/>
<line x1="192" y1="1440" x2="-64" y2="1440" stroke-width="10" stroke="black"/>
<line x1="192" y1="1312" x2="192" y2="1440" stroke-width="10" stroke="black"/>
<line x1="-64" y1="1312" x2="192" y2="1312" stroke-width="10" stroke="black"/>
<line x1="-128" y1="1280" x2="-64" y2="1216" stroke-width="10" stroke="black"/>
<line x1="-64" y1="1440" x2="-64" y2="1312" stroke-width="10" stroke="black"/>
<line x1="304" y1="1472" x2="304" y2="1280" stroke-width="10" stroke="black"/>
<line x1="288" y1="1280" x2="288" y2="1472" stroke-width="10" stroke="black"/>
<line x1="-448" y1="640" x2="-448" y2="896" stroke-width="10" stroke="black"/>
<line x1="-448" y1="896" x2="-512" y2="896" stroke-width="10" stroke="black"/>
<line x1="-512" y1="640" x2="-448" y2="640" stroke-width="10" stroke="black"/>
<line x1="-512" y1="416" x2="-384" y2="448" stroke-width="10" stroke="black"/>
<line x1="-128" y1="832" x2="-192" y2="832" stroke-width="10" stroke="black"/>
<line x1="-128" y1="896" x2="-128" y2="832" stroke-width="10" stroke="black"/>
<line x1="-192" y1="832" x2="-192" y2="896" stroke-width="10" stroke="black"/>
<line x1="-200" y1="824" x2="-200" y2="896" stroke-width="10" stroke="black"/>
<line x1="-120" y1="896" x2="-120" y2="824" stroke-width="10" stroke="black"/>
<line x1="-320" y1="648" x2="-208" y2="648" stroke-width="10" stroke="black"/>
<line x1="-208" y1="632" x2="-320" y2="632" stroke-width="10" stroke="black"/>
<line x1="-208" y1="648" x2="-192" y2="648" stroke-width="10" stroke="black"/>
<line x1="-208" y1="632" x2="-208" y2="648" stroke-width="10" stroke="black"/>
<line x1="-64" y1="384" x2="-64" y2="408" stroke-width="10" stroke="black"/>
<line x1="-312" y1="480" x2="-344" y2="448" stroke-width="10" stroke="black"/>
<line x1="-192" y1="480" x2="-64" y2="384" stroke-width="10" stroke="black"/>
<line x1="-320" y1="512" x2="-208" y2="512" stroke-width="10" stroke="black"/>
<line x1="-200" y1="824" x2="-120" y2="824" stroke-width="10" stroke="black"/>
<line x1="-384" y1="448" x2="-384" y2="992" stroke-width="10" stroke="black"/>
<line x1="-64" y1="1216" x2="224" y2="1216" stroke-width="10" stroke="black"/>
<line x1="-512" y1="1472" x2="-448" y2="1472" stroke-width="10" stroke="black"/>
<line x1="-1440" y1="1624" x2="-1344" y2="1664" stroke-width="10" stroke="black"/>
<line x1="-1344" y1="1664" x2="-1280" y2="1792" stroke-width="10" stroke="black"/>
<line x1="-1328" y1="1640" x2="-1440" y2="1592" stroke-width="10" stroke="black"/>
<line x1="-1248" y1="1792" x2="-1328" y2="1640" stroke-width="10" stroke="black"/>
<line x1="-1696" y1="1728" x2="-1664" y2="1664" stroke-width="10" stroke="black"/>
<line x1="-1680" y1="1640" x2="-1696" y2="1670" stroke-width="10" stroke="black"/>
<line x1="-1568" y1="1592" x2="-1680" y2="1640" stroke-width="10" stroke="black"/>
<line x1="-1664" y1="1664" x2="-1568" y2="1624" stroke-width="10" stroke="black"/>
<line x1="-1440" y1="1592" x2="-1568" y2="1592" stroke-width="10" stroke="black"/>
<line x1="-1440" y1="1624" x2="-1440" y2="1592" stroke-width="10" stroke="black"/>
<line x1="-1248" y1="1792" x2="-1280" y2="1792" stroke-width="10" stroke="black"/>
<line x1="-808" y1="1792" x2="-640" y2="1624" stroke-width="10" stroke="black"/>
<line x1="-768" y1="1920" x2="-800" y2="1888" stroke-width="10" stroke="black"/>
<line x1="-960" y1="1888" x2="-1048" y2="1888" stroke-width="10" stroke="black"/>
<line x1="-536" y1="1728" x2="-664" y2="1856" stroke-width="10" stroke="black"/>
<line x1="-1024" y1="1536" x2="-1152" y2="1536" stroke-width="10" stroke="black"/>
<line x1="-640" y1="1624" x2="-536" y2="1728" stroke-width="10" stroke="black"/>
<line x1="-1216" y1="1536" x2="-1184" y2="1776" stroke-width="10" stroke="black"/>
<line x1="-1664" y1="1216" x2="-1664" y2="1344" stroke-width="10" stroke="black"/>
<line x1="-1120" y1="1296" x2="-1056" y2="1296" stroke-width="10" stroke="black"/>
<line x1="-1056" y1="1120" x2="-1120" y2="1120" stroke-width="10" stroke="black"/>
<line x1="-1600" y1="960" x2="-1600" y2="1152" stroke-width="10" stroke="black"/>
<line x1="-1056" y1="1456" x2="-1048" y2="1456" stroke-width="10" stroke="black"/>
<line x1="-1048" y1="1424" x2="-1056" y2="1424" stroke-width="10" stroke="black"/>
<line x1="-1048" y1="1456" x2="-1048" y2="1424" stroke-width="10" stroke="black"/>
<line x1="-1056" y1="1424" x2="-1056" y2="1456" stroke-width="10" stroke="black"/>
<line x1="-1152" y1="1408" x2="-1152" y2="1344" stroke-width="10" stroke="black"/>
<line x1="-1344" y1="1456" x2="-1472" y2="1456" stroke-width="10" stroke="black"/>
<line x1="-1216" y1="1408" x2="-1192" y2="1408" stroke-width="10" stroke="black"/>
<line x1="-1536" y1="1472" x2="-1536" y2="1392" stroke-width="10" stroke="black"/>
<line x1="-1472" y1="1456" x2="-1536" y2="1392" stroke-width="10" stroke="black"/>
<line x1="-1192" y1="1408" x2="-1192" y2="1472" stroke-width="10" stroke="black"/>
<line x1="-1176" y1="1472" x2="-1176" y2="1408" stroke-width="10" stroke="black"/>
<line x1="-1024" y1="1344" x2="-1152" y2="1344" stroke-width="10" stroke="black"/>
<line x1="-1600" y1="1472" x2="-1536" y2="1472" stroke-width="10" stroke="black"/>
<line x1="-704" y1="704" x2="-800" y2="704" stroke-width="10" stroke="black"/>
<line x1="-1408" y1="704" x2="-1536" y2="704" stroke-width="10" stroke="black"/>
<line x1="-992" y1="672" x2="-1224" y2="672" stroke-width="10" stroke="black"/>
<line x1="-896" y1="736" x2="-992" y2="672" stroke-width="10" stroke="black"/>
<line x1="-1224" y1="672" x2="-1312" y2="736" stroke-width="10" stroke="black"/>
<line x1="-1216" y1="576" x2="-1344" y2="640" stroke-width="10" stroke="black"/>
<line x1="-864" y1="640" x2="-992" y2="576" stroke-width="10" stroke="black"/>
<line x1="-1344" y1="640" x2="-1408" y2="704" stroke-width="10" stroke="black"/>
<line x1="-800" y1="704" x2="-864" y2="640" stroke-width="10" stroke="black"/>
<line x1="-992" y1="576" x2="-1216" y2="576" stroke-width="10" stroke="black"/>
<line x1="-800" y1="832" x2="-704" y2="832" stroke-width="10" stroke="black"/>
<line x1="-1216" y1="864" x2="-992" y2="864" stroke-width="10" stroke="black"/>
<line x1="-1312" y1="800" x2="-1216" y2="864" stroke-width="10" stroke="black"/>
<line x1="-992" y1="864" x2="-896" y2="800" stroke-width="10" stroke="black"/>
<line x1="-992" y1="960" x2="-864" y2="896" stroke-width="10" stroke="black"/>
<line x1="-1344" y1="896" x2="-1216" y2="960" stroke-width="10" stroke="black"/>
<line x1="-896" y1="800" x2="-896" y2="736" stroke-width="10" stroke="black"/>
<line x1="-1312" y1="800" x2="-1312" y2="736" stroke-width="10" stroke="black"/>
<line x1="-1280" y1="800" x2="-1280" y2="736" stroke-width="10" stroke="black"/>
<line x1="-1312" y1="800" x2="-1280" y2="800" stroke-width="10" stroke="black"/>
<line x1="-864" y1="896" x2="-800" y2="832" stroke-width="10" stroke="black"/>
<line x1="-1280" y1="736" x2="-1312" y2="736" stroke-width="10" stroke="black"/>
<line x1="-1536" y1="832" x2="-1536" y2="704" stroke-width="10" stroke="black"/>
<line x1="-1664" y1="896" x2="-1600" y2="960" stroke-width="10" stroke="black"/>
<line x1="-1536" y1="856" x2="-1536" y2="832" stroke-width="10" stroke="black"/>
<line x1="-1536" y1="832" x2="-1664" y2="832" stroke-width="10" stroke="black"/>
<line x1="-1344" y1="896" x2="-1408" y2="832" stroke-width="10" stroke="black"/>
<line x1="-576" y1="896" x2="-640" y2="896" stroke-width="10" stroke="black"/>
<line x1="-640" y1="896" x2="-640" y2="640" stroke-width="10" stroke="black"/>
<line x1="-640" y1="640" x2="-576" y2="640" stroke-width="10" stroke="black"/>
<line x1="-576" y1="832" x2="-512" y2="832" stroke-width="10" stroke="black"/>
<line x1="-576" y1="704" x2="-576" y2="832" stroke-width="10" stroke="black"/>
<line x1="-704" y1="704" x2="-704" y2="832" stroke-width="10" stroke="black"/>
<line x1="-1216" y1="960" x2="-992" y2="960" stroke-width="10" stroke="black"/>
<line x1="-512" y1="992" x2="-512" y2="896" stroke-width="10" stroke="black"/>
<line x1="-1552" y1="2128" x2="-1456" y2="2128" stroke-width="10" stroke="black"/>
<line x1="-1616" y1="1984" x2="-1392" y2="1984" stroke-width="10" stroke="black"/>
<line x1="-1392" y1="1960" x2="-1616" y2="1960" stroke-width="10" stroke="black"/>
<line x1="-1616" y1="2080" x2="-1392" y2="1984" stroke-width="10" stroke="black"/>
<line x1="-1368" y1="2080" x2="-1368" y2="1984" stroke-width="10" stroke="black"/>
<line x1="-1328" y1="1960" x2="-1392" y2="1960" stroke-width="10" stroke="black"/>
<line x1="-1344" y1="2304" x2="-1344" y2="2112" stroke-width="10" stroke="black"/>
<line x1="-1368" y1="2080" x2="-1392" y2="2080" stroke-width="10" stroke="black"/>
<line x1="-1120" y1="2192" x2="-1136" y2="2176" stroke-width="10" stroke="black"/>
<line x1="-1136" y1="2176" x2="-1136" y2="2152" stroke-width="10" stroke="black"/>
<line x1="-960" y1="1992" x2="-944" y2="1920" stroke-width="10" stroke="black"/>
<line x1="-1136" y1="2152" x2="-960" y2="1992" stroke-width="10" stroke="black"/>
<line x1="-768" y1="2112" x2="-856" y2="2192" stroke-width="10" stroke="black"/>
<line x1="-856" y1="2192" x2="-1120" y2="2192" stroke-width="10" stroke="black"/>
<line x1="-1248" y1="1984" x2="-1248" y2="2080" stroke-width="10" stroke="black"/>
<line x1="-1280" y1="2376" x2="-1280" y2="2360" stroke-width="10" stroke="black"/>
<line x1="-1160" y1="2360" x2="-1160" y2="2376" stroke-width="10" stroke="black"/>
<line x1="-1160" y1="2376" x2="-1280" y2="2376" stroke-width="10" stroke="black"/>
<line x1="-1072" y1="2336" x2="-1072" y2="2304" stroke-width="10" stroke="black"/>
<line x1="-1328" y1="2304" x2="-1344" y2="2304" stroke-width="10" stroke="black"/>
<line x1="-1392" y1="1984" x2="-1392" y2="2080" stroke-width="10" stroke="black"/>
<line x1="-1440" y1="3264" x2="-1440" y2="3200" stroke-width="10" stroke="black"/>
<line x1="-1568" y1="3264" x2="-1440" y2="3264" stroke-width="10" stroke="black"/>
<line x1="-1568" y1="3200" x2="-1568" y2="3264" stroke-width="10" stroke="black"/>
<line x1="-1344" y1="3392" x2="-1472" y2="3392" stroke-width="10" stroke="black"/>
<line x1="-1664" y1="3200" x2="-1568" y2="3200" stroke-width="10" stroke="black"/>
<line x1="-1552" y1="2640" x2="-1600" y2="2944" stroke-width="10" stroke="black"/>
<line x1="-1696" y1="2624" x2="-1600" y2="2624" stroke-width="10" stroke="black"/>
<line x1="-1600" y1="2640" x2="-1552" y2="2640" stroke-width="10" stroke="black"/>
<line x1="-1600" y1="3008" x2="-1600" y2="2944" stroke-width="10" stroke="black"/>
<line x1="-1664" y1="3008" x2="-1696" y2="3008" stroke-width="10" stroke="black"/>
<line x1="-1408" y1="2944" x2="-1600" y2="2944" stroke-width="10" stroke="black"/>
<line x1="-1568" y1="3184" x2="-1440" y2="3184" stroke-width="10" stroke="black"/>
<line x1="-1408" y1="2624" x2="-1280" y2="2624" stroke-width="10" stroke="black"/>
<line x1="-1280" y1="3008" x2="-1344" y2="3008" stroke-width="10" stroke="black"/>
<line x1="-1376" y1="2944" x2="-1408" y2="2944" stroke-width="10" stroke="black"/>
<line x1="-1216" y1="2624" x2="-1280" y2="2624" stroke-width="10" stroke="black"/>
<line x1="-1264" y1="2688" x2="-1216" y2="2688" stroke-width="10" stroke="black"/>
<line x1="-1280" y1="3008" x2="-1216" y2="3008" stroke-width="10" stroke="black"/>
<line x1="-1216" y1="2944" x2="-1264" y2="2944" stroke-width="10" stroke="black"/>
<line x1="-1216" y1="3008" x2="-1216" y2="2944" stroke-width="10" stroke="black"/>
<line x1="-1280" y1="2960" x2="-1280" y2="3008" stroke-width="10" stroke="black"/>
<line x1="-1136" y1="2416" x2="-1304" y2="2416" stroke-width="10" stroke="black"/>
<line x1="-1344" y1="2432" x2="-1304" y2="2432" stroke-width="10" stroke="black"/>
<line x1="-1408" y1="2944" x2="-1456" y2="2640" stroke-width="10" stroke="black"/>
<line x1="-1552" y1="2640" x2="-1456" y2="2640" stroke-width="10" stroke="black"/>
<line x1="-1408" y1="2640" x2="-1408" y2="2624" stroke-width="10" stroke="black"/>
<line x1="-1552" y1="2640" x2="-1408" y2="2944" stroke-width="10" stroke="black"/>
<line x1="-1160" y1="2392" x2="-1280" y2="2392" stroke-width="10" stroke="black"/>
<line x1="-592" y1="2176" x2="-592" y2="2112" stroke-width="10" stroke="black"/>
<line x1="-96" y1="2080" x2="-32" y2="2096" stroke-width="10" stroke="black"/>
<line x1="-192" y1="2080" x2="-128" y2="2176" stroke-width="10" stroke="black"/>
<line x1="-768" y1="2112" x2="-752" y2="2112" stroke-width="10" stroke="black"/>
<line x1="-640" y1="2112" x2="-640" y2="2176" stroke-width="10" stroke="black"/>
<line x1="-752" y1="2048" x2="-752" y2="1936" stroke-width="10" stroke="black"/>
<line x1="-664" y1="2048" x2="-752" y2="2048" stroke-width="10" stroke="black"/>
<line x1="-752" y1="2080" x2="-664" y2="2080" stroke-width="10" stroke="black"/>
<line x1="-616" y1="2176" x2="-616" y2="2112" stroke-width="10" stroke="black"/>
<line x1="-128" y1="2176" x2="-128" y2="2368" stroke-width="10" stroke="black"/>
<line x1="-480" y1="2264" x2="-592" y2="2240" stroke-width="10" stroke="black"/>
<line x1="-416" y1="2264" x2="-480" y2="2264" stroke-width="10" stroke="black"/>
<line x1="-528" y1="2320" x2="-664" y2="2296" stroke-width="10" stroke="black"/>
<line x1="-512" y1="2288" x2="-632" y2="2264" stroke-width="10" stroke="black"/>
<line x1="-680" y1="2240" x2="-768" y2="2304" stroke-width="10" stroke="black"/>
<line x1="-632" y1="2264" x2="-592" y2="2240" stroke-width="10" stroke="black"/>
<line x1="-528" y1="2344" x2="-672" y2="2336" stroke-width="10" stroke="black"/>
<line x1="-416" y1="2368" x2="-416" y2="2264" stroke-width="10" stroke="black"/>
<line x1="-520" y1="2400" x2="-664" y2="2440" stroke-width="10" stroke="black"/>
<line x1="-528" y1="2384" x2="-672" y2="2400" stroke-width="10" stroke="black"/>
<line x1="-504" y1="2408" x2="-576" y2="2496" stroke-width="10" stroke="black"/>
<line x1="-504" y1="2408" x2="-416" y2="2408" stroke-width="10" stroke="black"/>
<line x1="-504" y1="2408" x2="-504" y2="2496" stroke-width="10" stroke="black"/>
<line x1="-512" y1="2408" x2="-632" y2="2472" stroke-width="10" stroke="black"/>
<line x1="-528" y1="2368" x2="-672" y2="2368" stroke-width="10" stroke="black"/>
<line x1="-592" y1="2176" x2="-616" y2="2176" stroke-width="10" stroke="black"/>
<line x1="192" y1="2048" x2="448" y2="2048" stroke-width="10" stroke="black"/>
<line x1="320" y1="2224" x2="336" y2="2224" stroke-width="10" stroke="black"/>
<line x1="232" y1="2208" x2="192" y2="2272" stroke-width="10" stroke="black"/>
<line x1="320" y1="2208" x2="232" y2="2208" stroke-width="10" stroke="black"/>
<line x1="32" y1="2208" x2="32" y2="2272" stroke-width="10" stroke="black"/>
<line x1="32" y1="2208" x2="64" y2="2208" stroke-width="10" stroke="black"/>
<line x1="96" y1="2208" x2="96" y2="2272" stroke-width="10" stroke="black"/>
<line x1="64" y1="2208" x2="96" y2="2208" stroke-width="10" stroke="black"/>
<line x1="64" y1="2208" x2="64" y2="2272" stroke-width="10" stroke="black"/>
<line x1="128" y1="2272" x2="128" y2="2208" stroke-width="10" stroke="black"/>
<line x1="320" y1="2496" x2="352" y2="2528" stroke-width="10" stroke="black"/>
<line x1="320" y1="2496" x2="256" y2="2496" stroke-width="10" stroke="black"/>
<line x1="480" y1="2528" x2="480" y2="2560" stroke-width="10" stroke="black"/>
<line x1="800" y1="2912" x2="608" y2="3104" stroke-width="10" stroke="black"/>
<line x1="608" y1="3104" x2="32" y2="3232" stroke-width="10" stroke="black"/>
<line x1="480" y1="2848" x2="448" y2="2848" stroke-width="10" stroke="black"/>
<line x1="928" y1="2464" x2="800" y2="2912" stroke-width="10" stroke="black"/>
<line x1="160" y1="2560" x2="256" y2="2496" stroke-width="10" stroke="black"/>
<line x1="320" y1="2432" x2="256" y2="2432" stroke-width="10" stroke="black"/>
<line x1="256" y1="2464" x2="320" y2="2464" stroke-width="10" stroke="black"/>
<line x1="320" y1="2400" x2="256" y2="2400" stroke-width="10" stroke="black"/>
<line x1="0" y1="2208" x2="0" y2="2272" stroke-width="10" stroke="black"/>
<line x1="-768" y1="1952" x2="-768" y2="2112" stroke-width="10" stroke="black"/>
<line x1="-1280" y1="1920" x2="-1696" y2="1920" stroke-width="10" stroke="black"/>
<line x1="-1792" y1="2944" x2="-1792" y2="2688" stroke-width="10" stroke="black"/>
<line x1="-1696" y1="3008" x2="-1728" y2="3008" stroke-width="10" stroke="black"/>
<line x1="-1792" y1="2944" x2="-1792" y2="3008" stroke-width="10" stroke="black"/>
<line x1="-1728" y1="3008" x2="-1728" y2="2960" stroke-width="10" stroke="black"/>
<line x1="-1728" y1="2960" x2="-1744" y2="2944" stroke-width="10" stroke="black"/>
<line x1="-1744" y1="2944" x2="-1792" y2="2944" stroke-width="10" stroke="black"/>
<line x1="-1728" y1="2672" x2="-1728" y2="2624" stroke-width="10" stroke="black"/>
<line x1="-1728" y1="2624" x2="-1792" y2="2624" stroke-width="10" stroke="black"/>
<line x1="-1744" y1="2688" x2="-1728" y2="2672" stroke-width="10" stroke="black"/>
<line x1="-1792" y1="2688" x2="-1744" y2="2688" stroke-width="10" stroke="black"/>
<line x1="-1936" y1="2576" x2="-1848" y2="2488" stroke-width="10" stroke="black"/>
<line x1="-1984" y1="2640" x2="-1928" y2="2584" stroke-width="10" stroke="black"/>
<line x1="-1888" y1="2176" x2="-1760" y2="2176" stroke-width="10" stroke="black"/>
<line x1="-1888" y1="2208" x2="-1760" y2="2208" stroke-width="10" stroke="black"/>
<line x1="-2016" y1="2304" x2="-2032" y2="2240" stroke-width="10" stroke="black"/>
<line x1="-1920" y1="2216" x2="-2032" y2="2216" stroke-width="10" stroke="black"/>
<line x1="-1920" y1="2240" x2="-1888" y2="2240" stroke-width="10" stroke="black"/>
<line x1="-1888" y1="2240" x2="-1888" y2="2208" stroke-width="10" stroke="black"/>
<line x1="-1864" y1="2440" x2="-1984" y2="2560" stroke-width="10" stroke="black"/>
<line x1="-1760" y1="2368" x2="-1792" y2="2368" stroke-width="10" stroke="black"/>
<line x1="-1952" y1="2560" x2="-1864" y2="2472" stroke-width="10" stroke="black"/>
<line x1="-2016" y1="1952" x2="-2016" y2="2048" stroke-width="10" stroke="black"/>
<line x1="-1984" y1="1952" x2="-1984" y2="2048" stroke-width="10" stroke="black"/>
<line x1="-2000" y1="1952" x2="-2000" y2="2048" stroke-width="10" stroke="black"/>
<line x1="-1968" y1="2048" x2="-1984" y2="2048" stroke-width="10" stroke="black"/>
<line x1="-1888" y1="2112" x2="-1760" y2="2112" stroke-width="10" stroke="black"/>
<line x1="-1952" y1="1952" x2="-1952" y2="2048" stroke-width="10" stroke="black"/>
<line x1="-1920" y1="1952" x2="-1920" y2="2048" stroke-width="10" stroke="black"/>
<line x1="-1936" y1="1952" x2="-1936" y2="2048" stroke-width="10" stroke="black"/>
<line x1="-1968" y1="2088" x2="-1904" y2="2088" stroke-width="10" stroke="black"/>
<line x1="-1888" y1="2048" x2="-1920" y2="2048" stroke-width="10" stroke="black"/>
<line x1="-1888" y1="2144" x2="-1888" y2="2112" stroke-width="10" stroke="black"/>
<line x1="-1968" y1="1952" x2="-1968" y2="2048" stroke-width="10" stroke="black"/>
<line x1="-1904" y1="1952" x2="-1904" y2="1920" stroke-width="10" stroke="black"/>
<line x1="-1792" y1="1920" x2="-1760" y2="1952" stroke-width="10" stroke="black"/>
<line x1="-1760" y1="1832" x2="-1760" y2="1896" stroke-width="10" stroke="black"/>
<line x1="-1792" y1="1832" x2="-1792" y2="1896" stroke-width="10" stroke="black"/>
<line x1="-1728" y1="1920" x2="-1696" y2="1920" stroke-width="10" stroke="black"/>
<line x1="-1728" y1="1920" x2="-1728" y2="1896" stroke-width="10" stroke="black"/>
<line x1="-1736" y1="1896" x2="-1736" y2="1832" stroke-width="10" stroke="black"/>
<line x1="-1744" y1="1832" x2="-1744" y2="1896" stroke-width="10" stroke="black"/>
<line x1="-1920" y1="1952" x2="-1904" y2="1952" stroke-width="10" stroke="black"/>
<line x1="-1888" y1="2144" x2="-1760" y2="2144" stroke-width="10" stroke="black"/>
<line x1="-2208" y1="2272" x2="-2144" y2="2208" stroke-width="10" stroke="black"/>
<line x1="-2256" y1="2224" x2="-2192" y2="2160" stroke-width="10" stroke="black"/>
<line x1="-2232" y1="2248" x2="-2168" y2="2184" stroke-width="10" stroke="black"/>
<line x1="-2048" y1="2048" x2="-2048" y2="2088" stroke-width="10" stroke="black"/>
<line x1="-2048" y1="2088" x2="-2032" y2="2088" stroke-width="10" stroke="black"/>
<line x1="-2216" y1="2136" x2="-2192" y2="2160" stroke-width="10" stroke="black"/>
<line x1="-2133" y1="2394" x2="-2112" y2="2399" stroke-width="10" stroke="black"/>
<line x1="-2112" y1="2400" x2="-2096" y2="2384" stroke-width="10" stroke="black"/>
<line x1="-2048" y1="2304" x2="-2112" y2="2368" stroke-width="10" stroke="black"/>
<line x1="-2072" y1="1912" x2="-2072" y2="1952" stroke-width="10" stroke="black"/>
<line x1="-2072" y1="1896" x2="-2216" y2="1896" stroke-width="10" stroke="black"/>
<line x1="-2216" y1="1912" x2="-2072" y2="1912" stroke-width="10" stroke="black"/>
<line x1="-2344" y1="2136" x2="-2416" y2="2112" stroke-width="10" stroke="black"/>
<line x1="-2304" y1="2000" x2="-2280" y2="2072" stroke-width="10" stroke="black"/>
<line x1="-2440" y1="2088" x2="-2328" y2="1976" stroke-width="10" stroke="black"/>
<line x1="-2352" y1="1952" x2="-2328" y2="1976" stroke-width="10" stroke="black"/>
<line x1="-2464" y1="2064" x2="-2352" y2="1952" stroke-width="10" stroke="black"/>
<line x1="-2416" y1="2112" x2="-2304" y2="2000" stroke-width="10" stroke="black"/>
<line x1="-2216" y1="2112" x2="-2216" y2="1912" stroke-width="10" stroke="black"/>
<line x1="-2280" y1="2200" x2="-2216" y2="2136" stroke-width="10" stroke="black"/>
<line x1="-2560" y1="2584" x2="-2560" y2="2328" stroke-width="10" stroke="black"/>
<line x1="-2584" y1="2328" x2="-2688" y2="2384" stroke-width="10" stroke="black"/>
<line x1="-2368" y1="2432" x2="-2368" y2="2496" stroke-width="10" stroke="black"/>
<line x1="-2304" y1="2432" x2="-2368" y2="2432" stroke-width="10" stroke="black"/>
<line x1="-2304" y1="2496" x2="-2304" y2="2432" stroke-width="10" stroke="black"/>
<line x1="-2368" y1="2496" x2="-2304" y2="2496" stroke-width="10" stroke="black"/>
<line x1="-2432" y1="2232" x2="-2432" y2="2352" stroke-width="10" stroke="black"/>
<line x1="-2176" y1="2656" x2="-2176" y2="2528" stroke-width="10" stroke="black"/>
<line x1="-2200" y1="2384" x2="-2200" y2="2528" stroke-width="10" stroke="black"/>
<line x1="-2440" y1="2088" x2="-2464" y2="2064" stroke-width="10" stroke="black"/>
<line x1="-3064" y1="2040" x2="-3160" y2="1944" stroke-width="10" stroke="black"/>
<line x1="-3024" y1="2080" x2="-3000" y2="2056" stroke-width="10" stroke="black"/>
<line x1="-2904" y1="2152" x2="-3000" y2="2056" stroke-width="10" stroke="black"/>
<line x1="-2896" y1="2288" x2="-2824" y2="2280" stroke-width="10" stroke="black"/>
<line x1="-2696" y1="2232" x2="-2680" y2="2232" stroke-width="10" stroke="black"/>
<line x1="-2904" y1="2152" x2="-2928" y2="2176" stroke-width="10" stroke="black"/>
<line x1="-2512" y1="1840" x2="-2520" y2="1832" stroke-width="10" stroke="black"/>
<line x1="-2576" y1="1904" x2="-2512" y2="1840" stroke-width="10" stroke="black"/>
<line x1="-2936" y1="1832" x2="-2984" y2="1880" stroke-width="10" stroke="black"/>
<line x1="-2832" y1="2032" x2="-2640" y2="1840" stroke-width="10" stroke="black"/>
<line x1="-2336" y1="1840" x2="-2400" y2="1904" stroke-width="10" stroke="black"/>
<line x1="-2624" y1="2032" x2="-2728" y2="2136" stroke-width="10" stroke="black"/>
<line x1="-2984" y1="1880" x2="-2832" y2="2032" stroke-width="10" stroke="black"/>
<line x1="-2880" y1="2416" x2="-2896" y2="2288" stroke-width="10" stroke="black"/>
<line x1="-2912" y1="2416" x2="-2912" y2="2288" stroke-width="10" stroke="black"/>
<line x1="-2976" y1="2416" x2="-2960" y2="2280" stroke-width="10" stroke="black"/>
<line x1="-2944" y1="2416" x2="-2936" y2="2288" stroke-width="10" stroke="black"/>
<line x1="-3040" y1="2392" x2="-3000" y2="2264" stroke-width="10" stroke="black"/>
<line x1="-3104" y1="2360" x2="-3040" y2="2248" stroke-width="10" stroke="black"/>
<line x1="-3136" y1="2344" x2="-3056" y2="2240" stroke-width="10" stroke="black"/>
<line x1="-3072" y1="2376" x2="-3024" y2="2256" stroke-width="10" stroke="black"/>
<line x1="-3008" y1="2408" x2="-2984" y2="2272" stroke-width="10" stroke="black"/>
<line x1="-3232" y1="2272" x2="-3104" y2="2200" stroke-width="10" stroke="black"/>
<line x1="-3200" y1="2296" x2="-3088" y2="2216" stroke-width="10" stroke="black"/>
<line x1="-3264" y1="2200" x2="-3120" y2="2168" stroke-width="10" stroke="black"/>
<line x1="-3256" y1="2232" x2="-3112" y2="2184" stroke-width="10" stroke="black"/>
<line x1="-3272" y1="2136" x2="-3120" y2="2136" stroke-width="10" stroke="black"/>
<line x1="-3264" y1="2072" x2="-3112" y2="2096" stroke-width="10" stroke="black"/>
<line x1="-3272" y1="2104" x2="-3120" y2="2112" stroke-width="10" stroke="black"/>
<line x1="-3272" y1="2168" x2="-3120" y2="2152" stroke-width="10" stroke="black"/>
<line x1="-3168" y1="2320" x2="-3072" y2="2232" stroke-width="10" stroke="black"/>
<line x1="-3104" y1="2080" x2="-3200" y2="1984" stroke-width="10" stroke="black"/>
<line x1="-2488" y1="2040" x2="-2376" y2="1928" stroke-width="10" stroke="black"/>
<line x1="-2032" y1="2240" x2="-2032" y2="2216" stroke-width="10" stroke="black"/>
<line x1="-2880" y1="704" x2="-2992" y2="716" stroke-width="10" stroke="black"/>
<line x1="-2760" y1="800" x2="-2808" y2="720" stroke-width="10" stroke="black"/>
<line x1="-2808" y1="720" x2="-2880" y2="704" stroke-width="10" stroke="black"/>
<line x1="-2760" y1="992" x2="-2808" y2="1032" stroke-width="10" stroke="black"/>
<line x1="-2744" y1="992" x2="-2760" y2="992" stroke-width="10" stroke="black"/>
<line x1="-2736" y1="896" x2="-2760" y2="800" stroke-width="10" stroke="black"/>
<line x1="-2744" y1="992" x2="-2736" y2="896" stroke-width="10" stroke="black"/>
<line x1="-2928" y1="816" x2="-2928" y2="848" stroke-width="10" stroke="black"/>
<line x1="-2912" y1="800" x2="-2928" y2="816" stroke-width="10" stroke="black"/>
<line x1="-2864" y1="816" x2="-2880" y2="800" stroke-width="10" stroke="black"/>
<line x1="-2864" y1="848" x2="-2864" y2="816" stroke-width="10" stroke="black"/>
<line x1="-2912" y1="864" x2="-2880" y2="864" stroke-width="10" stroke="black"/>
<line x1="-2880" y1="864" x2="-2864" y2="848" stroke-width="10" stroke="black"/>
<line x1="-2880" y1="800" x2="-2912" y2="800" stroke-width="10" stroke="black"/>
<line x1="-3056" y1="976" x2="-3056" y2="1008" stroke-width="10" stroke="black"/>
<line x1="-3008" y1="960" x2="-3040" y2="960" stroke-width="10" stroke="black"/>
<line x1="-2992" y1="976" x2="-3008" y2="960" stroke-width="10" stroke="black"/>
<line x1="-3008" y1="1024" x2="-2992" y2="1008" stroke-width="10" stroke="black"/>
<line x1="-3040" y1="1024" x2="-3008" y2="1024" stroke-width="10" stroke="black"/>
<line x1="-3040" y1="960" x2="-3056" y2="976" stroke-width="10" stroke="black"/>
<line x1="-3136" y1="1096" x2="-3088" y2="1152" stroke-width="10" stroke="black"/>
<line x1="-3160" y1="1000" x2="-3136" y2="1096" stroke-width="10" stroke="black"/>
<line x1="-3160" y1="896" x2="-3160" y2="1000" stroke-width="10" stroke="black"/>
<line x1="-3024" y1="720" x2="-3120" y2="784" stroke-width="10" stroke="black"/>
<line x1="-2992" y1="716" x2="-3024" y2="719" stroke-width="10" stroke="black"/>
<line x1="-3120" y1="784" x2="-3160" y2="896" stroke-width="10" stroke="black"/>
<line x1="-2992" y1="1008" x2="-2992" y2="976" stroke-width="10" stroke="black"/>
<line x1="-3016" y1="1288" x2="-3016" y2="1264" stroke-width="10" stroke="black"/>
<line x1="-3032" y1="1248" x2="-3056" y2="1240" stroke-width="10" stroke="black"/>
<line x1="-3008" y1="1192" x2="-3024" y2="1208" stroke-width="10" stroke="black"/>
<line x1="-3008" y1="1192" x2="-3088" y2="1152" stroke-width="10" stroke="black"/>
<line x1="-2600" y1="1088" x2="-2600" y2="1040" stroke-width="10" stroke="black"/>
<line x1="-2560" y1="1024" x2="-2496" y2="1024" stroke-width="10" stroke="black"/>
<line x1="-2496" y1="1024" x2="-2496" y2="1088" stroke-width="10" stroke="black"/>
<line x1="-2560" y1="1024" x2="-2496" y2="1088" stroke-width="10" stroke="black"/>
<line x1="-2584" y1="1152" x2="-2584" y2="1112" stroke-width="10" stroke="black"/>
<line x1="-2456" y1="1320" x2="-2432" y2="1296" stroke-width="10" stroke="black"/>
<line x1="-2464" y1="1168" x2="-2544" y2="1168" stroke-width="10" stroke="black"/>
<line x1="-2600" y1="1088" x2="-2664" y2="1088" stroke-width="10" stroke="black"/>
<line x1="-2672" y1="984" x2="-2720" y2="992" stroke-width="10" stroke="black"/>
<line x1="-2672" y1="1024" x2="-2656" y2="1040" stroke-width="10" stroke="black"/>
<line x1="-2640" y1="976" x2="-2672" y2="984" stroke-width="10" stroke="black"/>
<line x1="-2560" y1="1024" x2="-2560" y2="896" stroke-width="10" stroke="black"/>
<line x1="-2672" y1="984" x2="-2672" y2="1024" stroke-width="10" stroke="black"/>
<line x1="-2600" y1="1040" x2="-2560" y2="1024" stroke-width="10" stroke="black"/>
<line x1="-2624" y1="1600" x2="-2664" y2="1560" stroke-width="10" stroke="black"/>
<line x1="-2576" y1="1776" x2="-2432" y2="1632" stroke-width="10" stroke="black"/>
<line x1="-2432" y1="1536" x2="-2536" y2="1432" stroke-width="10" stroke="black"/>
<line x1="-2856" y1="1752" x2="-2816" y2="1792" stroke-width="10" stroke="black"/>
<line x1="-2752" y1="1728" x2="-2688" y2="1792" stroke-width="10" stroke="black"/>
<line x1="-2520" y1="1832" x2="-2576" y2="1776" stroke-width="10" stroke="black"/>
<line x1="-2920" y1="1816" x2="-2936" y2="1832" stroke-width="10" stroke="black"/>
<line x1="-2856" y1="1480" x2="-2832" y2="1504" stroke-width="10" stroke="black"/>
<line x1="-3040" y1="1664" x2="-3016" y2="1688" stroke-width="10" stroke="black"/>
<line x1="-2816" y1="1120" x2="-2904" y2="1208" stroke-width="10" stroke="black"/>
<line x1="-2744" y1="1368" x2="-2904" y2="1208" stroke-width="10" stroke="black"/>
<line x1="-3136" y1="1760" x2="-3040" y2="1664" stroke-width="10" stroke="black"/>
<line x1="-2928" y1="1600" x2="-2832" y2="1504" stroke-width="10" stroke="black"/>
<line x1="-2696" y1="1080" x2="-2720" y2="1056" stroke-width="10" stroke="black"/>
<line x1="-2832" y1="1104" x2="-2920" y2="1192" stroke-width="10" stroke="black"/>
<line x1="-2384" y1="1584" x2="-2432" y2="1536" stroke-width="10" stroke="black"/>
<line x1="-2264" y1="1512" x2="-2184" y2="1592" stroke-width="10" stroke="black"/>
<line x1="-2384" y1="1792" x2="-2344" y2="1832" stroke-width="10" stroke="black"/>
<line x1="-2048" y1="1696" x2="-2048" y2="1728" stroke-width="10" stroke="black"/>
<line x1="-2240" y1="1728" x2="-2048" y2="1728" stroke-width="10" stroke="black"/>
<line x1="-2240" y1="1792" x2="-2048" y2="1792" stroke-width="10" stroke="black"/>
<line x1="-2184" y1="1592" x2="-2384" y2="1792" stroke-width="10" stroke="black"/>
<line x1="-1984" y1="1344" x2="-2176" y2="1344" stroke-width="10" stroke="black"/>
<line x1="-1984" y1="1408" x2="-2176" y2="1408" stroke-width="10" stroke="black"/>
<line x1="-2144" y1="1472" x2="-1984" y2="1472" stroke-width="10" stroke="black"/>
<line x1="-1984" y1="1464" x2="-2144" y2="1464" stroke-width="10" stroke="black"/>
<line x1="-2432" y1="1296" x2="-2240" y2="1488" stroke-width="10" stroke="black"/>
<line x1="-2432" y1="960" x2="-2368" y2="960" stroke-width="10" stroke="black"/>
<line x1="-2352" y1="1088" x2="-2352" y2="1024" stroke-width="10" stroke="black"/>
<line x1="-2368" y1="944" x2="-2368" y2="960" stroke-width="10" stroke="black"/>
<line x1="-2432" y1="1168" x2="-2416" y2="1200" stroke-width="10" stroke="black"/>
<line x1="-2376" y1="1216" x2="-2240" y2="1216" stroke-width="10" stroke="black"/>
<line x1="-2176" y1="1280" x2="-2176" y2="1216" stroke-width="10" stroke="black"/>
<line x1="-2240" y1="1216" x2="-2240" y2="1264" stroke-width="10" stroke="black"/>
<line x1="-2240" y1="1152" x2="-2304" y2="1152" stroke-width="10" stroke="black"/>
<line x1="-2176" y1="1280" x2="-1984" y2="1280" stroke-width="10" stroke="black"/>
<line x1="-1728" y1="928" x2="-1696" y2="960" stroke-width="10" stroke="black"/>
<line x1="-1696" y1="1152" x2="-1728" y2="1184" stroke-width="10" stroke="black"/>
<line x1="-1728" y1="1184" x2="-1728" y2="1312" stroke-width="10" stroke="black"/>
<line x1="-1792" y1="768" x2="-1728" y2="768" stroke-width="10" stroke="black"/>
<line x1="-1824" y1="1152" x2="-1824" y2="960" stroke-width="10" stroke="black"/>
<line x1="-1824" y1="960" x2="-1792" y2="928" stroke-width="10" stroke="black"/>
<line x1="-1792" y1="1184" x2="-1824" y2="1152" stroke-width="10" stroke="black"/>
<line x1="-1920" y1="1312" x2="-1856" y2="1248" stroke-width="10" stroke="black"/>
<line x1="-1856" y1="1248" x2="-1856" y2="1216" stroke-width="10" stroke="black"/>
<line x1="-1792" y1="1312" x2="-1792" y2="1184" stroke-width="10" stroke="black"/>
<line x1="-1824" y1="1704" x2="-1848" y2="1728" stroke-width="10" stroke="black"/>
<line x1="-1816" y1="1776" x2="-1800" y2="1616" stroke-width="10" stroke="black"/>
<line x1="-1848" y1="1792" x2="-1792" y2="1832" stroke-width="10" stroke="black"/>
<line x1="-1952" y1="1696" x2="-1952" y2="1616" stroke-width="10" stroke="black"/>
<line x1="-1728" y1="1792" x2="-1696" y2="1728" stroke-width="10" stroke="black"/>
<line x1="-1696" y1="1670" x2="-1760" y2="1791" stroke-width="10" stroke="black"/>
<line x1="-1792" y1="1376" x2="-1856" y2="1376" stroke-width="10" stroke="black"/>
<line x1="-1856" y1="1376" x2="-1856" y2="1312" stroke-width="10" stroke="black"/>
<line x1="-1824" y1="1600" x2="-1952" y2="1600" stroke-width="10" stroke="black"/>
<line x1="-1800" y1="1616" x2="-1792" y2="1536" stroke-width="10" stroke="black"/>
<line x1="-1696" y1="1376" x2="-1792" y2="1472" stroke-width="10" stroke="black"/>
<line x1="-1824" y1="1600" x2="-1824" y2="1616" stroke-width="10" stroke="black"/>
<line x1="-1728" y1="1312" x2="-1792" y2="1376" stroke-width="10" stroke="black"/>
<line x1="-1952" y1="1616" x2="-1824" y2="1616" stroke-width="10" stroke="black"/>
<line x1="-1792" y1="1312" x2="-1856" y2="1312" stroke-width="10" stroke="black"/>
<line x1="-1984" y1="1472" x2="-1984" y2="1696" stroke-width="10" stroke="black"/>
<line x1="-2432" y1="1088" x2="-2432" y2="1168" stroke-width="10" stroke="black"/>
<line x1="-1760" y1="1832" x2="-1744" y2="1832" stroke-width="10" stroke="black"/>
<line x1="-1696" y1="1152" x2="-1696" y2="960" stroke-width="10" stroke="black"/>

</svg>

