<svg width="900" height="673" preserveAspectRatio="none" viewBox="-1730 -2306 3980 3044"
 xmlns="http://www.w3.org/2000/svg" xmlns:xlink="http://www.w3.org/1999/xlink">
   <defs>
    <marker id="arrow" markerWidth="10" markerHeight="10" refX="0" refY="2" orient="auto" markerUnits="strokeWidth">
      <path d="M0,0 L0,4 L5,3 z" fill="#f00" />
    </marker>
  </defs>

<line x1="-608" y1="-928" x2="-736" y2="-928" stroke-width="10" stroke="black"/>
<line x1="-736" y1="-896" x2="-608" y2="-896" stroke-width="10" stroke="black"/>
<line x1="-736" y1="-448" x2="-608" y2="-448" stroke-width="10" stroke="black"/>
<line x1="-608" y1="-480" x2="-736" y2="-480" stroke-width="10" stroke="black"/>
<line x1="-208" y1="-912" x2="-192" y2="-919" stroke-width="10" stroke="black"/>
<line x1="-272" y1="-768" x2="-208" y2="-912" stroke-width="10" stroke="black"/>
<line x1="-192" y1="-424" x2="-208" y2="-431" stroke-width="10" stroke="black"/>
<line x1="-272" y1="-768" x2="-272" y2="-576" stroke-width="10" stroke="black"/>
<line x1="-200" y1="-608" x2="-200" y2="-736" stroke-width="10" stroke="black"/>
<line x1="-216" y1="-736" x2="-216" y2="-608" stroke-width="10" stroke="black"/>
<line x1="-272" y1="-576" x2="-224" y2="-576" stroke-width="10" stroke="black"/>
<line x1="-224" y1="-768" x2="-272" y2="-768" stroke-width="10" stroke="black"/>
<line x1="-544" y1="-608" x2="-544" y2="-736" stroke-width="10" stroke="black"/>
<line x1="-576" y1="-344" x2="-351" y2="-192" stroke-width="10" stroke="black"/>
<line x1="-544" y1="-608" x2="-576" y2="-608" stroke-width="10" stroke="black"/>
<line x1="-208" y1="-432" x2="-272" y2="-576" stroke-width="10" stroke="black"/>
<line x1="-576" y1="-832" x2="-576" y2="-736" stroke-width="10" stroke="black"/>
<line x1="-1344" y1="-512" x2="-1344" y2="-448" stroke-width="10" stroke="black"/>
<line x1="-1376" y1="-224" x2="-1376" y2="-192" stroke-width="10" stroke="black"/>
<line x1="-1344" y1="-320" x2="-1344" y2="-224" stroke-width="10" stroke="black"/>
<line x1="-1280" y1="-352" x2="-1472" y2="-352" stroke-width="10" stroke="black"/>
<line x1="-1256" y1="-1024" x2="-1256" y2="-1016" stroke-width="10" stroke="black"/>
<line x1="-1408" y1="-544" x2="-1408" y2="-704" stroke-width="10" stroke="black"/>
<line x1="-1312" y1="-640" x2="-1280" y2="-640" stroke-width="10" stroke="black"/>
<line x1="-1312" y1="-800" x2="-1312" y2="-640" stroke-width="10" stroke="black"/>
<line x1="-1216" y1="-832" x2="-1408" y2="-832" stroke-width="10" stroke="black"/>
<line x1="-1472" y1="-512" x2="-1344" y2="-512" stroke-width="10" stroke="black"/>
<line x1="-1216" y1="-992" x2="-944" y2="-992" stroke-width="10" stroke="black"/>
<line x1="-832" y1="-896" x2="-832" y2="-856" stroke-width="10" stroke="black"/>
<line x1="-912" y1="-864" x2="-912" y2="-992" stroke-width="10" stroke="black"/>
<line x1="-944" y1="-992" x2="-944" y2="-864" stroke-width="10" stroke="black"/>
<line x1="-1152" y1="-320" x2="-1056" y2="-320" stroke-width="10" stroke="black"/>
<line x1="-1152" y1="-800" x2="-1152" y2="-832" stroke-width="10" stroke="black"/>
<line x1="-960" y1="-384" x2="-992" y2="-512" stroke-width="10" stroke="black"/>
<line x1="-832" y1="-192" x2="-768" y2="-320" stroke-width="10" stroke="black"/>
<line x1="-960" y1="-608" x2="-960" y2="-672" stroke-width="10" stroke="black"/>
<line x1="-896" y1="-736" x2="-800" y2="-736" stroke-width="10" stroke="black"/>
<line x1="-832" y1="-768" x2="-896" y2="-768" stroke-width="10" stroke="black"/>
<line x1="-960" y1="-576" x2="-832" y2="-576" stroke-width="10" stroke="black"/>
<line x1="-1056" y1="-832" x2="-1056" y2="-768" stroke-width="10" stroke="black"/>
<line x1="-1024" y1="-856" x2="-1216" y2="-856" stroke-width="10" stroke="black"/>
<line x1="-1216" y1="-1016" x2="-1216" y2="-992" stroke-width="10" stroke="black"/>
<line x1="-768" y1="-512" x2="-768" y2="-832" stroke-width="10" stroke="black"/>
<line x1="-192" y1="-170" x2="-256" y2="-191" stroke-width="10" stroke="black"/>
<line x1="-520" y1="168" x2="-416" y2="120" stroke-width="10" stroke="black"/>
<line x1="-584" y1="128" x2="-640" y2="256" stroke-width="10" stroke="black"/>
<line x1="-560" y1="112" x2="-584" y2="128" stroke-width="10" stroke="black"/>
<line x1="-560" y1="112" x2="-448" y2="64" stroke-width="10" stroke="black"/>
<line x1="-488" y1="224" x2="-392" y2="192" stroke-width="10" stroke="black"/>
<line x1="-640" y1="256" x2="-640" y2="288" stroke-width="10" stroke="black"/>
<line x1="-352" y1="56" x2="-432" y2="56" stroke-width="10" stroke="black"/>
<line x1="-448" y1="64" x2="-416" y2="120" stroke-width="10" stroke="black"/>
<line x1="-480" y1="-24" x2="-656" y2="48" stroke-width="10" stroke="black"/>
<line x1="-656" y1="48" x2="-720" y2="224" stroke-width="10" stroke="black"/>
<line x1="-576" y1="320" x2="-480" y2="288" stroke-width="10" stroke="black"/>
<line x1="-320" y1="240" x2="-320" y2="-24" stroke-width="10" stroke="black"/>
<line x1="-720" y1="320" x2="-576" y2="320" stroke-width="10" stroke="black"/>
<line x1="-352" y1="-24" x2="-480" y2="-24" stroke-width="10" stroke="black"/>
<line x1="-824" y1="352" x2="-824" y2="224" stroke-width="10" stroke="black"/>
<line x1="-808" y1="128" x2="-832" y2="0" stroke-width="10" stroke="black"/>
<line x1="-808" y1="224" x2="-808" y2="128" stroke-width="10" stroke="black"/>
<line x1="-752" y1="448" x2="-808" y2="352" stroke-width="10" stroke="black"/>
<line x1="-720" y1="320" x2="-808" y2="352" stroke-width="10" stroke="black"/>
<line x1="-720" y1="288" x2="-720" y2="224" stroke-width="10" stroke="black"/>
<line x1="-896" y1="512" x2="-1120" y2="512" stroke-width="10" stroke="black"/>
<line x1="-1000" y1="352" x2="-1000" y2="416" stroke-width="10" stroke="black"/>
<line x1="-1056" y1="128" x2="-1120" y2="208" stroke-width="10" stroke="black"/>
<line x1="-1056" y1="128" x2="-960" y2="128" stroke-width="10" stroke="black"/>
<line x1="-960" y1="0" x2="-1024" y2="-192" stroke-width="10" stroke="black"/>
<line x1="-840" y1="192" x2="-1000" y2="192" stroke-width="10" stroke="black"/>
<line x1="-1056" y1="-192" x2="-1056" y2="128" stroke-width="10" stroke="black"/>
<line x1="-856" y1="224" x2="-840" y2="224" stroke-width="10" stroke="black"/>
<line x1="-1000" y1="416" x2="-840" y2="416" stroke-width="10" stroke="black"/>
<line x1="-1312" y1="32" x2="-1184" y2="32" stroke-width="10" stroke="black"/>
<line x1="-1280" y1="128" x2="-1280" y2="96" stroke-width="10" stroke="black"/>
<line x1="-1280" y1="96" x2="-1472" y2="96" stroke-width="10" stroke="black"/>
<line x1="-1408" y1="288" x2="-1408" y2="192" stroke-width="10" stroke="black"/>
<line x1="-1312" y1="192" x2="-1312" y2="384" stroke-width="10" stroke="black"/>
<line x1="-1376" y1="416" x2="-1248" y2="416" stroke-width="10" stroke="black"/>
<line x1="-1472" y1="512" x2="-1376" y2="416" stroke-width="10" stroke="black"/>
<line x1="-1312" y1="384" x2="-1376" y2="384" stroke-width="10" stroke="black"/>
<line x1="-1184" y1="192" x2="-1312" y2="192" stroke-width="10" stroke="black"/>
<line x1="-1184" y1="304" x2="-1120" y2="304" stroke-width="10" stroke="black"/>
<line x1="-1120" y1="416" x2="-1152" y2="416" stroke-width="10" stroke="black"/>
<line x1="-1184" y1="32" x2="-1184" y2="192" stroke-width="10" stroke="black"/>
<line x1="-1280" y1="-192" x2="-1280" y2="-128" stroke-width="10" stroke="black"/>
<line x1="-1152" y1="0" x2="-1152" y2="-96" stroke-width="10" stroke="black"/>
<line x1="-1184" y1="-128" x2="-1184" y2="-96" stroke-width="10" stroke="black"/>
<line x1="-1408" y1="-96" x2="-1280" y2="-96" stroke-width="10" stroke="black"/>
<line x1="-1280" y1="-128" x2="-1472" y2="-128" stroke-width="10" stroke="black"/>
<line x1="-1472" y1="0" x2="-1408" y2="0" stroke-width="10" stroke="black"/>
<line x1="-1120" y1="416" x2="-1120" y2="304" stroke-width="10" stroke="black"/>
<line x1="-840" y1="352" x2="-840" y2="224" stroke-width="10" stroke="black"/>
<line x1="-1216" y1="-192" x2="-1280" y2="-192" stroke-width="10" stroke="black"/>
<line x1="-1440" y1="-1472" x2="-1344" y2="-1440" stroke-width="10" stroke="black"/>
<line x1="-1344" y1="-1440" x2="-1344" y2="-1408" stroke-width="10" stroke="black"/>
<line x1="-1216" y1="-1536" x2="-1216" y2="-1440" stroke-width="10" stroke="black"/>
<line x1="-1152" y1="-1440" x2="-1152" y2="-1536" stroke-width="10" stroke="black"/>
<line x1="-1280" y1="-1536" x2="-1280" y2="-1440" stroke-width="10" stroke="black"/>
<line x1="-1216" y1="-1600" x2="-1216" y2="-1664" stroke-width="10" stroke="black"/>
<line x1="-1056" y1="-1600" x2="-1216" y2="-1600" stroke-width="10" stroke="black"/>
<line x1="-1152" y1="-1544" x2="-1120" y2="-1544" stroke-width="10" stroke="black"/>
<line x1="-1040" y1="-1560" x2="-976" y2="-1560" stroke-width="10" stroke="black"/>
<line x1="-976" y1="-1576" x2="-1040" y2="-1576" stroke-width="10" stroke="black"/>
<line x1="-1344" y1="-1536" x2="-1280" y2="-1536" stroke-width="10" stroke="black"/>
<line x1="-1016" y1="-1088" x2="-1016" y2="-1024" stroke-width="10" stroke="black"/>
<line x1="-968" y1="-1088" x2="-968" y2="-1024" stroke-width="10" stroke="black"/>
<line x1="-968" y1="-1088" x2="-1016" y2="-1088" stroke-width="10" stroke="black"/>
<line x1="-1256" y1="-1088" x2="-1256" y2="-1024" stroke-width="10" stroke="black"/>
<line x1="-1160" y1="-1024" x2="-1160" y2="-1216" stroke-width="10" stroke="black"/>
<line x1="-1216" y1="-1408" x2="-1216" y2="-1344" stroke-width="10" stroke="black"/>
<line x1="-1152" y1="-1024" x2="-1152" y2="-1216" stroke-width="10" stroke="black"/>
<line x1="-1344" y1="-1408" x2="-1440" y2="-1408" stroke-width="10" stroke="black"/>
<line x1="-736" y1="-1520" x2="-608" y2="-1520" stroke-width="10" stroke="black"/>
<line x1="-768" y1="-1536" x2="-736" y2="-1520" stroke-width="10" stroke="black"/>
<line x1="-920" y1="-1088" x2="-960" y2="-1088" stroke-width="10" stroke="black"/>
<line x1="-944" y1="-1392" x2="-944" y2="-1424" stroke-width="10" stroke="black"/>
<line x1="-960" y1="-1392" x2="-944" y2="-1392" stroke-width="10" stroke="black"/>
<line x1="-864" y1="-1088" x2="-920" y2="-1088" stroke-width="10" stroke="black"/>
<line x1="-784" y1="-1536" x2="-864" y2="-1088" stroke-width="10" stroke="black"/>
<line x1="-864" y1="-1088" x2="-872" y2="-1024" stroke-width="10" stroke="black"/>
<line x1="-920" y1="-1088" x2="-920" y2="-1024" stroke-width="10" stroke="black"/>
<line x1="-784" y1="-1536" x2="-768" y2="-1536" stroke-width="10" stroke="black"/>
<line x1="-856" y1="-1024" x2="-768" y2="-1536" stroke-width="10" stroke="black"/>
<line x1="-672" y1="-1600" x2="-960" y2="-1600" stroke-width="10" stroke="black"/>
<line x1="-256" y1="-1600" x2="-256" y2="-1664" stroke-width="10" stroke="black"/>
<line x1="-448" y1="-1600" x2="-256" y2="-1600" stroke-width="10" stroke="black"/>
<line x1="-448" y1="-1664" x2="-448" y2="-1600" stroke-width="10" stroke="black"/>
<line x1="-576" y1="-1536" x2="-448" y2="-1600" stroke-width="10" stroke="black"/>
<line x1="-384" y1="-1344" x2="-384" y2="-1216" stroke-width="10" stroke="black"/>
<line x1="-384" y1="-1152" x2="-512" y2="-1024" stroke-width="10" stroke="black"/>
<line x1="-192" y1="-1216" x2="-360" y2="-1216" stroke-width="10" stroke="black"/>
<line x1="-320" y1="-1408" x2="-384" y2="-1408" stroke-width="10" stroke="black"/>
<line x1="-384" y1="-1408" x2="-384" y2="-1536" stroke-width="10" stroke="black"/>
<line x1="-384" y1="-1344" x2="-360" y2="-1344" stroke-width="10" stroke="black"/>
<line x1="-384" y1="-1536" x2="-576" y2="-1536" stroke-width="10" stroke="black"/>
<line x1="-608" y1="-1552" x2="-608" y2="-1520" stroke-width="10" stroke="black"/>
<line x1="-960" y1="-1536" x2="-960" y2="-1424" stroke-width="10" stroke="black"/>
<line x1="-1216" y1="-1824" x2="-1024" y2="-1824" stroke-width="10" stroke="black"/>
<line x1="-1024" y1="-1952" x2="-1216" y2="-1952" stroke-width="10" stroke="black"/>
<line x1="-1216" y1="-1952" x2="-1216" y2="-2176" stroke-width="10" stroke="black"/>
<line x1="-1312" y1="-1944" x2="-1312" y2="-1832" stroke-width="10" stroke="black"/>
<line x1="-1280" y1="-1664" x2="-1280" y2="-1832" stroke-width="10" stroke="black"/>
<line x1="-1448" y1="-1904" x2="-1448" y2="-1872" stroke-width="10" stroke="black"/>
<line x1="-1440" y1="-1904" x2="-1448" y2="-1904" stroke-width="10" stroke="black"/>
<line x1="-1448" y1="-1872" x2="-1440" y2="-1872" stroke-width="10" stroke="black"/>
<line x1="-1440" y1="-1872" x2="-1440" y2="-1904" stroke-width="10" stroke="black"/>
<line x1="-1472" y1="-1920" x2="-1472" y2="-1856" stroke-width="10" stroke="black"/>
<line x1="-1456" y1="-1856" x2="-1456" y2="-1920" stroke-width="10" stroke="black"/>
<line x1="-1432" y1="-1920" x2="-1432" y2="-1984" stroke-width="10" stroke="black"/>
<line x1="-736" y1="-1824" x2="-736" y2="-1952" stroke-width="10" stroke="black"/>
<line x1="-800" y1="-1824" x2="-800" y2="-1952" stroke-width="10" stroke="black"/>
<line x1="-768" y1="-1824" x2="-768" y2="-1952" stroke-width="10" stroke="black"/>
<line x1="-704" y1="-1824" x2="-736" y2="-1824" stroke-width="10" stroke="black"/>
<line x1="-704" y1="-1792" x2="-704" y2="-1824" stroke-width="10" stroke="black"/>
<line x1="-864" y1="-1824" x2="-864" y2="-1952" stroke-width="10" stroke="black"/>
<line x1="-928" y1="-1824" x2="-928" y2="-1952" stroke-width="10" stroke="black"/>
<line x1="-896" y1="-1824" x2="-896" y2="-1952" stroke-width="10" stroke="black"/>
<line x1="-832" y1="-1824" x2="-864" y2="-1824" stroke-width="10" stroke="black"/>
<line x1="-832" y1="-1824" x2="-832" y2="-1952" stroke-width="10" stroke="black"/>
<line x1="-704" y1="-1952" x2="-704" y2="-1984" stroke-width="10" stroke="black"/>
<line x1="-928" y1="-1952" x2="-896" y2="-1952" stroke-width="10" stroke="black"/>
<line x1="-384" y1="-1920" x2="-448" y2="-1920" stroke-width="10" stroke="black"/>
<line x1="-448" y1="-1728" x2="-384" y2="-1728" stroke-width="10" stroke="black"/>
<line x1="-448" y1="-1920" x2="-448" y2="-1728" stroke-width="10" stroke="black"/>
<line x1="-256" y1="-1856" x2="-256" y2="-1792" stroke-width="10" stroke="black"/>
<line x1="-320" y1="-1920" x2="-320" y2="-1856" stroke-width="10" stroke="black"/>
<line x1="-320" y1="-1856" x2="-256" y2="-1856" stroke-width="10" stroke="black"/>
<line x1="-192" y1="-1920" x2="-320" y2="-1920" stroke-width="10" stroke="black"/>
<line x1="-320" y1="-1664" x2="-320" y2="-1728" stroke-width="10" stroke="black"/>
<line x1="-320" y1="-1728" x2="-192" y2="-1728" stroke-width="10" stroke="black"/>
<line x1="-256" y1="-1792" x2="-384" y2="-1792" stroke-width="10" stroke="black"/>
<line x1="-384" y1="-1728" x2="-384" y2="-1664" stroke-width="10" stroke="black"/>
<line x1="-584" y1="-1824" x2="-584" y2="-1952" stroke-width="10" stroke="black"/>
<line x1="-600" y1="-1952" x2="-600" y2="-1824" stroke-width="10" stroke="black"/>
<line x1="-576" y1="-1824" x2="-576" y2="-1952" stroke-width="10" stroke="black"/>
<line x1="-608" y1="-2112" x2="-608" y2="-1952" stroke-width="10" stroke="black"/>
<line x1="-1024" y1="-1984" x2="-1024" y2="-1952" stroke-width="10" stroke="black"/>
<line x1="-448" y1="-1664" x2="-384" y2="-1664" stroke-width="10" stroke="black"/>
<line x1="-1152" y1="-1024" x2="-1016" y2="-1024" stroke-width="10" stroke="black"/>
<line x1="1504" y1="-1184" x2="1696" y2="-1184" stroke-width="10" stroke="black"/>
<line x1="1696" y1="-1184" x2="1696" y2="-448" stroke-width="10" stroke="black"/>
<line x1="1696" y1="-448" x2="1504" y2="-448" stroke-width="10" stroke="black"/>
<line x1="1504" y1="-448" x2="1504" y2="-1184" stroke-width="10" stroke="black"/>
<line x1="2112" y1="-1216" x2="2112" y2="-1184" stroke-width="10" stroke="black"/>
<line x1="1840" y1="-1216" x2="1840" y2="-1088" stroke-width="10" stroke="black"/>
<line x1="1856" y1="-1088" x2="1856" y2="-1216" stroke-width="10" stroke="black"/>
<line x1="1872" y1="-1072" x2="1984" y2="-1072" stroke-width="10" stroke="black"/>
<line x1="1984" y1="-1088" x2="1872" y2="-1088" stroke-width="10" stroke="black"/>
<line x1="1792" y1="-1088" x2="1792" y2="-336" stroke-width="10" stroke="black"/>
<line x1="1728" y1="-1664" x2="1600" y2="-1664" stroke-width="10" stroke="black"/>
<line x1="1728" y1="-1792" x2="1728" y2="-1664" stroke-width="10" stroke="black"/>
<line x1="1608" y1="-1656" x2="1736" y2="-1656" stroke-width="10" stroke="black"/>
<line x1="1736" y1="-1656" x2="1736" y2="-1792" stroke-width="10" stroke="black"/>
<line x1="1600" y1="-1792" x2="1600" y2="-1664" stroke-width="10" stroke="black"/>
<line x1="1424" y1="-1280" x2="1776" y2="-1280" stroke-width="10" stroke="black"/>
<line x1="1408" y1="-1856" x2="1600" y2="-1856" stroke-width="10" stroke="black"/>
<line x1="1600" y1="-1856" x2="1600" y2="-1792" stroke-width="10" stroke="black"/>
<line x1="1600" y1="-1792" x2="1728" y2="-1792" stroke-width="10" stroke="black"/>
<line x1="1792" y1="-1216" x2="1840" y2="-1216" stroke-width="10" stroke="black"/>
<line x1="1392" y1="-672" x2="1392" y2="-544" stroke-width="10" stroke="black"/>
<line x1="1344" y1="-384" x2="1302" y2="-320" stroke-width="10" stroke="black"/>
<line x1="1392" y1="-544" x2="1312" y2="-544" stroke-width="10" stroke="black"/>
<line x1="1312" y1="-544" x2="1088" y2="-320" stroke-width="10" stroke="black"/>
<line x1="1408" y1="-528" x2="1392" y2="-544" stroke-width="10" stroke="black"/>
<line x1="1392" y1="-1040" x2="1392" y2="-944" stroke-width="10" stroke="black"/>
<line x1="832" y1="-448" x2="704" y2="-448" stroke-width="10" stroke="black"/>
<line x1="1392" y1="-944" x2="1232" y2="-944" stroke-width="10" stroke="black"/>
<line x1="1152" y1="-960" x2="1152" y2="-864" stroke-width="10" stroke="black"/>
<line x1="960" y1="-960" x2="1152" y2="-960" stroke-width="10" stroke="black"/>
<line x1="1184" y1="-736" x2="1184" y2="-864" stroke-width="10" stroke="black"/>
<line x1="1280" y1="-672" x2="1392" y2="-672" stroke-width="10" stroke="black"/>
<line x1="1152" y1="-576" x2="1024" y2="-576" stroke-width="10" stroke="black"/>
<line x1="928" y1="-320" x2="1264" y2="-656" stroke-width="10" stroke="black"/>
<line x1="1216" y1="-704" x2="1184" y2="-736" stroke-width="10" stroke="black"/>
<line x1="1152" y1="-736" x2="832" y2="-448" stroke-width="10" stroke="black"/>
<line x1="1184" y1="-736" x2="1152" y2="-736" stroke-width="10" stroke="black"/>
<line x1="832" y1="-448" x2="832" y2="-320" stroke-width="10" stroke="black"/>
<line x1="704" y1="-832" x2="768" y2="-832" stroke-width="10" stroke="black"/>
<line x1="704" y1="-704" x2="960" y2="-960" stroke-width="10" stroke="black"/>
<line x1="1408" y1="-928" x2="1392" y2="-944" stroke-width="10" stroke="black"/>
<line x1="704" y1="-1856" x2="1408" y2="-1856" stroke-width="10" stroke="black"/>
<line x1="1312" y1="-1280" x2="1376" y2="-1216" stroke-width="10" stroke="black"/>
<line x1="1376" y1="-1216" x2="1408" y2="-1216" stroke-width="10" stroke="black"/>
<line x1="1344" y1="-1088" x2="1152" y2="-1280" stroke-width="10" stroke="black"/>
<line x1="1152" y1="-1448" x2="1128" y2="-1472" stroke-width="10" stroke="black"/>
<line x1="1336" y1="-1472" x2="1312" y2="-1448" stroke-width="10" stroke="black"/>
<line x1="1056" y1="-1472" x2="1056" y2="-1440" stroke-width="10" stroke="black"/>
<line x1="800" y1="-1376" x2="992" y2="-1376" stroke-width="10" stroke="black"/>
<line x1="928" y1="-1248" x2="736" y2="-1248" stroke-width="10" stroke="black"/>
<line x1="736" y1="-1376" x2="800" y2="-1376" stroke-width="10" stroke="black"/>
<line x1="1136" y1="-1040" x2="928" y2="-1248" stroke-width="10" stroke="black"/>
<line x1="1392" y1="-1040" x2="1408" y2="-1056" stroke-width="10" stroke="black"/>
<line x1="1408" y1="-1472" x2="1336" y2="-1472" stroke-width="10" stroke="black"/>
<line x1="1328" y1="-1040" x2="1392" y2="-1040" stroke-width="10" stroke="black"/>
<line x1="1392" y1="-672" x2="1408" y2="-688" stroke-width="10" stroke="black"/>
<line x1="1408" y1="-896" x2="1408" y2="-928" stroke-width="10" stroke="black"/>
<line x1="1280" y1="448" x2="704" y2="502" stroke-width="10" stroke="black"/>
<line x1="704" y1="374" x2="1280" y2="320" stroke-width="10" stroke="black"/>
<line x1="1088" y1="-320" x2="960" y2="-192" stroke-width="10" stroke="black"/>
<line x1="832" y1="-128" x2="1152" y2="-128" stroke-width="10" stroke="black"/>
<line x1="1432" y1="320" x2="1520" y2="296" stroke-width="10" stroke="black"/>
<line x1="1576" y1="256" x2="1576" y2="232" stroke-width="10" stroke="black"/>
<line x1="1280" y1="320" x2="1432" y2="320" stroke-width="10" stroke="black"/>
<line x1="1576" y1="232" x2="1552" y2="160" stroke-width="10" stroke="black"/>
<line x1="1472" y1="-192" x2="1600" y2="-192" stroke-width="10" stroke="black"/>
<line x1="1408" y1="-136" x2="1464" y2="-192" stroke-width="10" stroke="black"/>
<line x1="1472" y1="-192" x2="1472" y2="-256" stroke-width="10" stroke="black"/>
<line x1="1301" y1="-320" x2="1280" y2="-288" stroke-width="10" stroke="black"/>
<line x1="1472" y1="-256" x2="1600" y2="-256" stroke-width="10" stroke="black"/>
<line x1="1576" y1="232" x2="1776" y2="240" stroke-width="10" stroke="black"/>
<line x1="1280" y1="-128" x2="1280" y2="320" stroke-width="10" stroke="black"/>
<line x1="1776" y1="-320" x2="1600" y2="-320" stroke-width="10" stroke="black"/>
<line x1="-64" y1="-368" x2="-192" y2="-424" stroke-width="10" stroke="black"/>
<line x1="-64" y1="-448" x2="-192" y2="-576" stroke-width="10" stroke="black"/>
<line x1="-128" y1="-448" x2="-64" y2="-416" stroke-width="10" stroke="black"/>
<line x1="-64" y1="-368" x2="128" y2="-368" stroke-width="10" stroke="black"/>
<line x1="128" y1="-448" x2="96" y2="-448" stroke-width="10" stroke="black"/>
<line x1="96" y1="-440" x2="-32" y2="-440" stroke-width="10" stroke="black"/>
<line x1="-32" y1="-424" x2="96" y2="-424" stroke-width="10" stroke="black"/>
<line x1="-64" y1="-416" x2="-64" y2="-368" stroke-width="10" stroke="black"/>
<line x1="256" y1="-512" x2="288" y2="-576" stroke-width="10" stroke="black"/>
<line x1="128" y1="-416" x2="192" y2="-448" stroke-width="10" stroke="black"/>
<line x1="272" y1="-432" x2="128" y2="-368" stroke-width="10" stroke="black"/>
<line x1="256" y1="-576" x2="128" y2="-448" stroke-width="10" stroke="black"/>
<line x1="576" y1="-576" x2="512" y2="-384" stroke-width="10" stroke="black"/>
<line x1="512" y1="-384" x2="320" y2="-192" stroke-width="10" stroke="black"/>
<line x1="336" y1="-576" x2="272" y2="-432" stroke-width="10" stroke="black"/>
<line x1="320" y1="-192" x2="128" y2="-128" stroke-width="10" stroke="black"/>
<line x1="576" y1="-192" x2="320" y2="-192" stroke-width="10" stroke="black"/>
<line x1="704" y1="-448" x2="640" y2="-448" stroke-width="10" stroke="black"/>
<line x1="576" y1="-344" x2="600" y2="-320" stroke-width="10" stroke="black"/>
<line x1="576" y1="-576" x2="576" y2="-344" stroke-width="10" stroke="black"/>
<line x1="128" y1="-416" x2="128" y2="-368" stroke-width="10" stroke="black"/>
<line x1="704" y1="502" x2="608" y2="511" stroke-width="10" stroke="black"/>
<line x1="144" y1="424" x2="168" y2="424" stroke-width="10" stroke="black"/>
<line x1="608" y1="576" x2="608" y2="512" stroke-width="10" stroke="black"/>
<line x1="-64" y1="544" x2="-32" y2="384" stroke-width="10" stroke="black"/>
<line x1="144" y1="576" x2="144" y2="424" stroke-width="10" stroke="black"/>
<line x1="-32" y1="320" x2="96" y2="320" stroke-width="10" stroke="black"/>
<line x1="128" y1="224" x2="96" y2="224" stroke-width="10" stroke="black"/>
<line x1="-64" y1="64" x2="128" y2="64" stroke-width="10" stroke="black"/>
<line x1="-32" y1="-104" x2="-32" y2="-128" stroke-width="10" stroke="black"/>
<line x1="96" y1="-128" x2="96" y2="-104" stroke-width="10" stroke="black"/>
<line x1="-64" y1="0" x2="128" y2="0" stroke-width="10" stroke="black"/>
<line x1="-64" y1="192" x2="128" y2="64" stroke-width="10" stroke="black"/>
<line x1="192" y1="64" x2="192" y2="0" stroke-width="10" stroke="black"/>
<line x1="608" y1="384" x2="704" y2="375" stroke-width="10" stroke="black"/>
<line x1="512" y1="-16" x2="688" y2="64" stroke-width="10" stroke="black"/>
<line x1="608" y1="256" x2="704" y2="64" stroke-width="10" stroke="black"/>
<line x1="512" y1="-16" x2="384" y2="256" stroke-width="10" stroke="black"/>
<line x1="128" y1="-64" x2="128" y2="0" stroke-width="10" stroke="black"/>
<line x1="-64" y1="384" x2="-32" y2="384" stroke-width="10" stroke="black"/>
<line x1="-32" y1="-128" x2="-64" y2="-128" stroke-width="10" stroke="black"/>
<line x1="664" y1="-1184" x2="424" y2="-1184" stroke-width="10" stroke="black"/>
<line x1="424" y1="-1440" x2="664" y2="-1440" stroke-width="10" stroke="black"/>
<line x1="-32" y1="-1216" x2="-32" y2="-1240" stroke-width="10" stroke="black"/>
<line x1="-160" y1="-1384" x2="-160" y2="-1216" stroke-width="10" stroke="black"/>
<line x1="-64" y1="-1216" x2="-32" y2="-1216" stroke-width="10" stroke="black"/>
<line x1="352" y1="-1240" x2="96" y2="-1240" stroke-width="10" stroke="black"/>
<line x1="128" y1="-1216" x2="320" y2="-1152" stroke-width="10" stroke="black"/>
<line x1="96" y1="-1240" x2="96" y2="-1216" stroke-width="10" stroke="black"/>
<line x1="128" y1="-1408" x2="0" y2="-1408" stroke-width="10" stroke="black"/>
<line x1="352" y1="-1384" x2="424" y2="-1440" stroke-width="10" stroke="black"/>
<line x1="128" y1="-1472" x2="128" y2="-1408" stroke-width="10" stroke="black"/>
<line x1="-32" y1="-1408" x2="-160" y2="-1408" stroke-width="10" stroke="black"/>
<line x1="0" y1="-1384" x2="0" y2="-1408" stroke-width="10" stroke="black"/>
<line x1="152" y1="-1384" x2="352" y2="-1384" stroke-width="10" stroke="black"/>
<line x1="424" y1="-1152" x2="424" y2="-1184" stroke-width="10" stroke="black"/>
<line x1="-192" y1="-1600" x2="-128" y2="-1600" stroke-width="10" stroke="black"/>
<line x1="-128" y1="-1600" x2="-128" y2="-1728" stroke-width="10" stroke="black"/>
<line x1="-128" y1="-1792" x2="-192" y2="-1792" stroke-width="10" stroke="black"/>
<line x1="-128" y1="-1728" x2="-128" y2="-1792" stroke-width="10" stroke="black"/>
<line x1="-128" y1="-1856" x2="-128" y2="-1920" stroke-width="10" stroke="black"/>
<line x1="-128" y1="-1920" x2="-192" y2="-1920" stroke-width="10" stroke="black"/>
<line x1="-192" y1="-1856" x2="-128" y2="-1856" stroke-width="10" stroke="black"/>
<line x1="-128" y1="-1728" x2="-32" y2="-1728" stroke-width="10" stroke="black"/>
<line x1="552" y1="-1824" x2="616" y2="-1824" stroke-width="10" stroke="black"/>
<line x1="616" y1="-1688" x2="552" y2="-1688" stroke-width="10" stroke="black"/>
<line x1="640" y1="-1664" x2="640" y2="-1856" stroke-width="10" stroke="black"/>
<line x1="552" y1="-1688" x2="552" y2="-1824" stroke-width="10" stroke="black"/>
<line x1="192" y1="-1600" x2="192" y2="-1824" stroke-width="10" stroke="black"/>
<line x1="128" y1="-1536" x2="0" y2="-1688" stroke-width="10" stroke="black"/>
<line x1="192" y1="-1600" x2="64" y2="-1792" stroke-width="10" stroke="black"/>
<line x1="320" y1="-1688" x2="320" y2="-1824" stroke-width="10" stroke="black"/>
<line x1="-32" y1="-1728" x2="-32" y2="-1472" stroke-width="10" stroke="black"/>
<line x1="424" y1="-1472" x2="664" y2="-1472" stroke-width="10" stroke="black"/>
<line x1="640" y1="-640" x2="704" y2="-704" stroke-width="10" stroke="black"/>
<line x1="576" y1="-768" x2="576" y2="-576" stroke-width="10" stroke="black"/>
<line x1="336" y1="-576" x2="336" y2="-768" stroke-width="10" stroke="black"/>
<line x1="264" y1="-736" x2="264" y2="-608" stroke-width="10" stroke="black"/>
<line x1="256" y1="-768" x2="256" y2="-736" stroke-width="10" stroke="black"/>
<line x1="280" y1="-608" x2="280" y2="-736" stroke-width="10" stroke="black"/>
<line x1="176" y1="-816" x2="128" y2="-816" stroke-width="10" stroke="black"/>
<line x1="176" y1="-768" x2="176" y2="-816" stroke-width="10" stroke="black"/>
<line x1="192" y1="-896" x2="128" y2="-928" stroke-width="10" stroke="black"/>
<line x1="288" y1="-768" x2="256" y2="-832" stroke-width="10" stroke="black"/>
<line x1="128" y1="-976" x2="272" y2="-912" stroke-width="10" stroke="black"/>
<line x1="512" y1="-960" x2="576" y2="-768" stroke-width="10" stroke="black"/>
<line x1="272" y1="-912" x2="336" y2="-768" stroke-width="10" stroke="black"/>
<line x1="128" y1="-896" x2="256" y2="-768" stroke-width="10" stroke="black"/>
<line x1="128" y1="-768" x2="176" y2="-768" stroke-width="10" stroke="black"/>
<line x1="-192" y1="-768" x2="-64" y2="-896" stroke-width="10" stroke="black"/>
<line x1="-192" y1="-919" x2="-64" y2="-975" stroke-width="10" stroke="black"/>
<line x1="128" y1="-976" x2="-64" y2="-976" stroke-width="10" stroke="black"/>
<line x1="-32" y1="-904" x2="96" y2="-904" stroke-width="10" stroke="black"/>
<line x1="96" y1="-920" x2="-32" y2="-920" stroke-width="10" stroke="black"/>
<line x1="-64" y1="-976" x2="-64" y2="-928" stroke-width="10" stroke="black"/>
<line x1="-64" y1="-896" x2="-32" y2="-896" stroke-width="10" stroke="black"/>
<line x1="128" y1="-768" x2="128" y2="-816" stroke-width="10" stroke="black"/>
<line x1="664" y1="-1152" x2="424" y2="-1152" stroke-width="10" stroke="black"/>
<line x1="288" y1="-576" x2="336" y2="-576" stroke-width="10" stroke="black"/>
<line x1="704" y1="-1856" x2="704" y2="-1984" stroke-width="10" stroke="black"/>
<line x1="-192" y1="-1728" x2="-192" y2="-1600" stroke-width="10" stroke="black"/>

</svg>

