<svg width="900" height="733" preserveAspectRatio="none" viewBox="-2370 -2626 4228 3492"
 xmlns="http://www.w3.org/2000/svg" xmlns:xlink="http://www.w3.org/1999/xlink">
   <defs>
    <marker id="arrow" markerWidth="10" markerHeight="10" refX="0" refY="2" orient="auto" markerUnits="strokeWidth">
      <path d="M0,0 L0,4 L5,3 z" fill="#f00" />
    </marker>
  </defs>

<line x1="-1920" y1="-624" x2="-1856" y2="-624" stroke-width="10" stroke="black"/>
<line x1="-1920" y1="-656" x2="-1920" y2="-624" stroke-width="10" stroke="black"/>
<line x1="-1920" y1="-688" x2="-1856" y2="-688" stroke-width="10" stroke="black"/>
<line x1="-1920" y1="-720" x2="-1920" y2="-688" stroke-width="10" stroke="black"/>
<line x1="-1920" y1="-656" x2="-1856" y2="-656" stroke-width="10" stroke="black"/>
<line x1="-2080" y1="-320" x2="-2176" y2="-448" stroke-width="10" stroke="black"/>
<line x1="-1856" y1="-728" x2="-1920" y2="-728" stroke-width="10" stroke="black"/>
<line x1="-1920" y1="-864" x2="-1856" y2="-864" stroke-width="10" stroke="black"/>
<line x1="-1856" y1="-800" x2="-1920" y2="-800" stroke-width="10" stroke="black"/>
<line x1="-1920" y1="-792" x2="-1856" y2="-792" stroke-width="10" stroke="black"/>
<line x1="-1936" y1="-880" x2="-1936" y2="-720" stroke-width="10" stroke="black"/>
<line x1="-1936" y1="-720" x2="-1920" y2="-720" stroke-width="10" stroke="black"/>
<line x1="-2176" y1="-448" x2="-2176" y2="-896" stroke-width="10" stroke="black"/>
<line x1="-1848" y1="-864" x2="-1848" y2="-800" stroke-width="10" stroke="black"/>
<line x1="-1840" y1="-800" x2="-1840" y2="-864" stroke-width="10" stroke="black"/>
<line x1="-1840" y1="-864" x2="-1792" y2="-864" stroke-width="10" stroke="black"/>
<line x1="-1792" y1="-864" x2="-1792" y2="-896" stroke-width="10" stroke="black"/>
<line x1="-1792" y1="-576" x2="-1792" y2="-704" stroke-width="10" stroke="black"/>
<line x1="-1728" y1="-448" x2="-1792" y2="-576" stroke-width="10" stroke="black"/>
<line x1="-1728" y1="-448" x2="-1744" y2="-448" stroke-width="10" stroke="black"/>
<line x1="-1808" y1="-720" x2="-1808" y2="-704" stroke-width="10" stroke="black"/>
<line x1="-1808" y1="-568" x2="-1744" y2="-448" stroke-width="10" stroke="black"/>
<line x1="-1792" y1="-800" x2="-1840" y2="-800" stroke-width="10" stroke="black"/>
<line x1="-1856" y1="-728" x2="-1856" y2="-720" stroke-width="10" stroke="black"/>
<line x1="-1744" y1="-256" x2="-2080" y2="-320" stroke-width="10" stroke="black"/>
<line x1="-704" y1="-896" x2="-704" y2="-768" stroke-width="10" stroke="black"/>
<line x1="-576" y1="-752" x2="-624" y2="-768" stroke-width="10" stroke="black"/>
<line x1="-640" y1="-768" x2="-640" y2="-896" stroke-width="10" stroke="black"/>
<line x1="-656" y1="-896" x2="-656" y2="-768" stroke-width="10" stroke="black"/>
<line x1="-1064" y1="-672" x2="-896" y2="-664" stroke-width="10" stroke="black"/>
<line x1="-1064" y1="-768" x2="-896" y2="-768" stroke-width="10" stroke="black"/>
<line x1="-1064" y1="-704" x2="-896" y2="-704" stroke-width="10" stroke="black"/>
<line x1="-1344" y1="-736" x2="-1440" y2="-736" stroke-width="10" stroke="black"/>
<line x1="-1440" y1="-736" x2="-1440" y2="-640" stroke-width="10" stroke="black"/>
<line x1="-1216" y1="-896" x2="-1216" y2="-768" stroke-width="10" stroke="black"/>
<line x1="-1216" y1="-768" x2="-1088" y2="-768" stroke-width="10" stroke="black"/>
<line x1="-1344" y1="-720" x2="-1344" y2="-656" stroke-width="10" stroke="black"/>
<line x1="-1064" y1="-768" x2="-1064" y2="-896" stroke-width="10" stroke="black"/>
<line x1="-896" y1="-768" x2="-896" y2="-896" stroke-width="10" stroke="black"/>
<line x1="-1104" y1="-592" x2="-1179" y2="-592" stroke-width="10" stroke="black"/>
<line x1="-1120" y1="-536" x2="-1024" y2="-416" stroke-width="10" stroke="black"/>
<line x1="-1088" y1="-576" x2="-920" y2="-520" stroke-width="10" stroke="black"/>
<line x1="-1104" y1="-552" x2="-960" y2="-464" stroke-width="10" stroke="black"/>
<line x1="-1104" y1="-592" x2="-1158" y2="-538" stroke-width="10" stroke="black"/>
<line x1="-1099" y1="-640" x2="-1101" y2="-614" stroke-width="10" stroke="black"/>
<line x1="-1072" y1="-608" x2="-904" y2="-576" stroke-width="10" stroke="black"/>
<line x1="-1064" y1="-640" x2="-896" y2="-624" stroke-width="10" stroke="black"/>
<line x1="-960" y1="-464" x2="-1024" y2="-416" stroke-width="10" stroke="black"/>
<line x1="-1184" y1="-512" x2="-1184" y2="-384" stroke-width="10" stroke="black"/>
<line x1="-1408" y1="-512" x2="-1408" y2="-384" stroke-width="10" stroke="black"/>
<line x1="-1472" y1="-528" x2="-1600" y2="-560" stroke-width="10" stroke="black"/>
<line x1="-1179" y1="-592" x2="-1280" y2="-592" stroke-width="10" stroke="black"/>
<line x1="-1184" y1="-512" x2="-1152" y2="-520" stroke-width="10" stroke="black"/>
<line x1="-1280" y1="-592" x2="-1280" y2="-528" stroke-width="10" stroke="black"/>
<line x1="-1408" y1="-512" x2="-1184" y2="-512" stroke-width="10" stroke="black"/>
<line x1="-1392" y1="-368" x2="-1216" y2="-368" stroke-width="10" stroke="black"/>
<line x1="-1408" y1="-384" x2="-1600" y2="-384" stroke-width="10" stroke="black"/>
<line x1="-1104" y1="-392" x2="-1152" y2="-520" stroke-width="10" stroke="black"/>
<line x1="-896" y1="-624" x2="-904" y2="-576" stroke-width="10" stroke="black"/>
<line x1="-1344" y1="-640" x2="-1440" y2="-640" stroke-width="10" stroke="black"/>
<line x1="-1600" y1="-896" x2="-1600" y2="-560" stroke-width="10" stroke="black"/>
<line x1="-2176" y1="-1216" x2="-2072" y2="-1344" stroke-width="10" stroke="black"/>
<line x1="-2072" y1="-1344" x2="-1744" y2="-1408" stroke-width="10" stroke="black"/>
<line x1="-2176" y1="-896" x2="-2176" y2="-1216" stroke-width="10" stroke="black"/>
<line x1="-1792" y1="-896" x2="-1792" y2="-1088" stroke-width="10" stroke="black"/>
<line x1="-1792" y1="-1088" x2="-1728" y2="-1216" stroke-width="10" stroke="black"/>
<line x1="-1744" y1="-1216" x2="-1728" y2="-1216" stroke-width="10" stroke="black"/>
<line x1="-1808" y1="-1096" x2="-1808" y2="-896" stroke-width="10" stroke="black"/>
<line x1="-1744" y1="-1216" x2="-1808" y2="-1096" stroke-width="10" stroke="black"/>
<line x1="-1440" y1="-928" x2="-1344" y2="-928" stroke-width="10" stroke="black"/>
<line x1="-1440" y1="-1024" x2="-1440" y2="-928" stroke-width="10" stroke="black"/>
<line x1="-1344" y1="-1008" x2="-1344" y2="-944" stroke-width="10" stroke="black"/>
<line x1="-1344" y1="-1024" x2="-1440" y2="-1024" stroke-width="10" stroke="black"/>
<line x1="-1536" y1="-1136" x2="-1600" y2="-1120" stroke-width="10" stroke="black"/>
<line x1="-1280" y1="-1072" x2="-1179" y2="-1072" stroke-width="10" stroke="black"/>
<line x1="-1280" y1="-1136" x2="-1280" y2="-1072" stroke-width="10" stroke="black"/>
<line x1="-1408" y1="-1152" x2="-1472" y2="-1152" stroke-width="10" stroke="black"/>
<line x1="-1184" y1="-1280" x2="-1184" y2="-1152" stroke-width="10" stroke="black"/>
<line x1="-1408" y1="-1280" x2="-1408" y2="-1152" stroke-width="10" stroke="black"/>
<line x1="-1216" y1="-1296" x2="-1392" y2="-1296" stroke-width="10" stroke="black"/>
<line x1="-1600" y1="-1280" x2="-1408" y2="-1280" stroke-width="10" stroke="black"/>
<line x1="-1280" y1="-1136" x2="-1168" y2="-1136" stroke-width="10" stroke="black"/>
<line x1="-1179" y1="-1072" x2="-1104" y2="-1072" stroke-width="10" stroke="black"/>
<line x1="-1024" y1="-1248" x2="-1120" y2="-1128" stroke-width="10" stroke="black"/>
<line x1="-920" y1="-1144" x2="-1088" y2="-1088" stroke-width="10" stroke="black"/>
<line x1="-960" y1="-1200" x2="-1104" y2="-1112" stroke-width="10" stroke="black"/>
<line x1="-1158" y1="-1126" x2="-1104" y2="-1072" stroke-width="10" stroke="black"/>
<line x1="-896" y1="-1040" x2="-1064" y2="-1024" stroke-width="10" stroke="black"/>
<line x1="-896" y1="-960" x2="-1064" y2="-960" stroke-width="10" stroke="black"/>
<line x1="-896" y1="-1000" x2="-1064" y2="-992" stroke-width="10" stroke="black"/>
<line x1="-1102" y1="-1050" x2="-1088" y2="-896" stroke-width="10" stroke="black"/>
<line x1="-624" y1="-896" x2="-576" y2="-912" stroke-width="10" stroke="black"/>
<line x1="-904" y1="-1088" x2="-1072" y2="-1056" stroke-width="10" stroke="black"/>
<line x1="-1104" y1="-1272" x2="-1152" y2="-1144" stroke-width="10" stroke="black"/>
<line x1="-1600" y1="-1120" x2="-1600" y2="-1104" stroke-width="10" stroke="black"/>
<line x1="-944" y1="-1248" x2="-944" y2="-1312" stroke-width="10" stroke="black"/>
<line x1="-960" y1="-1312" x2="-960" y2="-1248" stroke-width="10" stroke="black"/>
<line x1="-608" y1="-1248" x2="-608" y2="-1168" stroke-width="10" stroke="black"/>
<line x1="-864" y1="-1248" x2="-864" y2="-1312" stroke-width="10" stroke="black"/>
<line x1="-736" y1="-1248" x2="-608" y2="-1248" stroke-width="10" stroke="black"/>
<line x1="-880" y1="-1312" x2="-880" y2="-1248" stroke-width="10" stroke="black"/>
<line x1="-1216" y1="-1472" x2="-1216" y2="-1392" stroke-width="10" stroke="black"/>
<line x1="-776" y1="-1448" x2="-752" y2="-1464" stroke-width="10" stroke="black"/>
<line x1="-824" y1="-1448" x2="-776" y2="-1448" stroke-width="10" stroke="black"/>
<line x1="-752" y1="-1464" x2="-776" y2="-1504" stroke-width="10" stroke="black"/>
<line x1="-800" y1="-1488" x2="-752" y2="-1464" stroke-width="10" stroke="black"/>
<line x1="-848" y1="-1464" x2="-800" y2="-1488" stroke-width="10" stroke="black"/>
<line x1="-824" y1="-1504" x2="-848" y2="-1464" stroke-width="10" stroke="black"/>
<line x1="-816" y1="-1520" x2="-864" y2="-1528" stroke-width="10" stroke="black"/>
<line x1="-784" y1="-1520" x2="-800" y2="-1568" stroke-width="10" stroke="black"/>
<line x1="-736" y1="-1528" x2="-784" y2="-1520" stroke-width="10" stroke="black"/>
<line x1="-800" y1="-1568" x2="-816" y2="-1520" stroke-width="10" stroke="black"/>
<line x1="-864" y1="-1528" x2="-824" y2="-1504" stroke-width="10" stroke="black"/>
<line x1="-776" y1="-1504" x2="-736" y2="-1528" stroke-width="10" stroke="black"/>
<line x1="-848" y1="-1464" x2="-824" y2="-1448" stroke-width="10" stroke="black"/>
<line x1="-760" y1="-1560" x2="-800" y2="-1568" stroke-width="10" stroke="black"/>
<line x1="-736" y1="-1528" x2="-760" y2="-1560" stroke-width="10" stroke="black"/>
<line x1="-752" y1="-1464" x2="-736" y2="-1480" stroke-width="10" stroke="black"/>
<line x1="-840" y1="-1560" x2="-864" y2="-1528" stroke-width="10" stroke="black"/>
<line x1="-848" y1="-1464" x2="-864" y2="-1480" stroke-width="10" stroke="black"/>
<line x1="-800" y1="-1568" x2="-840" y2="-1560" stroke-width="10" stroke="black"/>
<line x1="-736" y1="-1480" x2="-736" y2="-1528" stroke-width="10" stroke="black"/>
<line x1="-864" y1="-1528" x2="-864" y2="-1480" stroke-width="10" stroke="black"/>
<line x1="-736" y1="-1792" x2="-736" y2="-1664" stroke-width="10" stroke="black"/>
<line x1="-608" y1="-1856" x2="-624" y2="-1856" stroke-width="10" stroke="black"/>
<line x1="-608" y1="-1960" x2="-608" y2="-1856" stroke-width="10" stroke="black"/>
<line x1="-864" y1="-1664" x2="-736" y2="-1664" stroke-width="10" stroke="black"/>
<line x1="-864" y1="-1344" x2="-736" y2="-1344" stroke-width="10" stroke="black"/>
<line x1="-1024" y1="-1248" x2="-960" y2="-1200" stroke-width="10" stroke="black"/>
<line x1="-896" y1="-896" x2="-872" y2="-896" stroke-width="10" stroke="black"/>
<line x1="-472" y1="480" x2="-472" y2="216" stroke-width="10" stroke="black"/>
<line x1="-424" y1="640" x2="-472" y2="480" stroke-width="10" stroke="black"/>
<line x1="32" y1="480" x2="-472" y2="480" stroke-width="10" stroke="black"/>
<line x1="112" y1="496" x2="32" y2="480" stroke-width="10" stroke="black"/>
<line x1="160" y1="640" x2="160" y2="568" stroke-width="10" stroke="black"/>
<line x1="32" y1="216" x2="32" y2="480" stroke-width="10" stroke="black"/>
<line x1="-192" y1="704" x2="-256" y2="704" stroke-width="10" stroke="black"/>
<line x1="320" y1="640" x2="160" y2="640" stroke-width="10" stroke="black"/>
<line x1="416" y1="-16" x2="256" y2="64" stroke-width="10" stroke="black"/>
<line x1="256" y1="64" x2="-128" y2="64" stroke-width="10" stroke="black"/>
<line x1="-128" y1="96" x2="-16" y2="112" stroke-width="10" stroke="black"/>
<line x1="448" y1="80" x2="256" y2="64" stroke-width="10" stroke="black"/>
<line x1="-416" y1="112" x2="-320" y2="96" stroke-width="10" stroke="black"/>
<line x1="-472" y1="216" x2="32" y2="216" stroke-width="10" stroke="black"/>
<line x1="416" y1="-96" x2="416" y2="-16" stroke-width="10" stroke="black"/>
<line x1="224" y1="-192" x2="256" y2="-192" stroke-width="10" stroke="black"/>
<line x1="224" y1="-256" x2="224" y2="-232" stroke-width="10" stroke="black"/>
<line x1="96" y1="-280" x2="224" y2="-280" stroke-width="10" stroke="black"/>
<line x1="96" y1="-328" x2="224" y2="-328" stroke-width="10" stroke="black"/>
<line x1="96" y1="-304" x2="224" y2="-304" stroke-width="10" stroke="black"/>
<line x1="224" y1="-280" x2="224" y2="-256" stroke-width="10" stroke="black"/>
<line x1="96" y1="-256" x2="224" y2="-256" stroke-width="10" stroke="black"/>
<line x1="64" y1="-304" x2="64" y2="-192" stroke-width="10" stroke="black"/>
<line x1="-192" y1="-64" x2="-192" y2="-304" stroke-width="10" stroke="black"/>
<line x1="0" y1="-336" x2="-128" y2="-336" stroke-width="10" stroke="black"/>
<line x1="-128" y1="-320" x2="0" y2="-320" stroke-width="10" stroke="black"/>
<line x1="-192" y1="-304" x2="-128" y2="-304" stroke-width="10" stroke="black"/>
<line x1="96" y1="-256" x2="96" y2="-280" stroke-width="10" stroke="black"/>
<line x1="416" y1="-16" x2="448" y2="-16" stroke-width="10" stroke="black"/>
<line x1="-32" y1="-768" x2="64" y2="-768" stroke-width="10" stroke="black"/>
<line x1="-32" y1="-896" x2="-32" y2="-768" stroke-width="10" stroke="black"/>
<line x1="-224" y1="-784" x2="-296" y2="-784" stroke-width="10" stroke="black"/>
<line x1="-416" y1="-704" x2="-320" y2="-768" stroke-width="10" stroke="black"/>
<line x1="-416" y1="-720" x2="-416" y2="-704" stroke-width="10" stroke="black"/>
<line x1="-320" y1="-784" x2="-320" y2="-880" stroke-width="10" stroke="black"/>
<line x1="-224" y1="-768" x2="-224" y2="-784" stroke-width="10" stroke="black"/>
<line x1="-576" y1="-496" x2="-416" y2="-528" stroke-width="10" stroke="black"/>
<line x1="-368" y1="-480" x2="-352" y2="-480" stroke-width="10" stroke="black"/>
<line x1="-368" y1="-480" x2="-400" y2="-352" stroke-width="10" stroke="black"/>
<line x1="-352" y1="-544" x2="-416" y2="-544" stroke-width="10" stroke="black"/>
<line x1="96" y1="-376" x2="224" y2="-376" stroke-width="10" stroke="black"/>
<line x1="80" y1="-400" x2="80" y2="-544" stroke-width="10" stroke="black"/>
<line x1="96" y1="-400" x2="224" y2="-400" stroke-width="10" stroke="black"/>
<line x1="384" y1="-672" x2="384" y2="-544" stroke-width="10" stroke="black"/>
<line x1="448" y1="-480" x2="416" y2="-480" stroke-width="10" stroke="black"/>
<line x1="256" y1="-384" x2="384" y2="-384" stroke-width="10" stroke="black"/>
<line x1="416" y1="-400" x2="384" y2="-400" stroke-width="10" stroke="black"/>
<line x1="224" y1="-376" x2="224" y2="-352" stroke-width="10" stroke="black"/>
<line x1="192" y1="-896" x2="192" y2="-768" stroke-width="10" stroke="black"/>
<line x1="264" y1="-880" x2="264" y2="-784" stroke-width="10" stroke="black"/>
<line x1="240" y1="-880" x2="240" y2="-784" stroke-width="10" stroke="black"/>
<line x1="216" y1="-888" x2="216" y2="-776" stroke-width="10" stroke="black"/>
<line x1="192" y1="-768" x2="64" y2="-768" stroke-width="10" stroke="black"/>
<line x1="336" y1="-880" x2="384" y2="-880" stroke-width="10" stroke="black"/>
<line x1="336" y1="-880" x2="336" y2="-784" stroke-width="10" stroke="black"/>
<line x1="312" y1="-880" x2="312" y2="-784" stroke-width="10" stroke="black"/>
<line x1="448" y1="-741" x2="384" y2="-783" stroke-width="10" stroke="black"/>
<line x1="384" y1="-720" x2="384" y2="-672" stroke-width="10" stroke="black"/>
<line x1="312" y1="-784" x2="288" y2="-784" stroke-width="10" stroke="black"/>
<line x1="288" y1="-880" x2="288" y2="-784" stroke-width="10" stroke="black"/>
<line x1="64" y1="-672" x2="80" y2="-672" stroke-width="10" stroke="black"/>
<line x1="64" y1="-480" x2="64" y2="-352" stroke-width="10" stroke="black"/>
<line x1="96" y1="-352" x2="224" y2="-352" stroke-width="10" stroke="black"/>
<line x1="1104" y1="-272" x2="1104" y2="-288" stroke-width="10" stroke="black"/>
<line x1="1104" y1="-288" x2="1040" y2="-288" stroke-width="10" stroke="black"/>
<line x1="1024" y1="-704" x2="1088" y2="-704" stroke-width="10" stroke="black"/>
<line x1="1024" y1="-792" x2="1120" y2="-792" stroke-width="10" stroke="black"/>
<line x1="1088" y1="-704" x2="1120" y2="-792" stroke-width="10" stroke="black"/>
<line x1="1088" y1="-64" x2="1088" y2="0" stroke-width="10" stroke="black"/>
<line x1="1088" y1="0" x2="1152" y2="0" stroke-width="10" stroke="black"/>
<line x1="1104" y1="-192" x2="1152" y2="-192" stroke-width="10" stroke="black"/>
<line x1="1064" y1="-64" x2="1088" y2="-64" stroke-width="10" stroke="black"/>
<line x1="1152" y1="-272" x2="1104" y2="-272" stroke-width="10" stroke="black"/>
<line x1="1216" y1="-192" x2="1344" y2="-192" stroke-width="10" stroke="black"/>
<line x1="1368" y1="-576" x2="1368" y2="-320" stroke-width="10" stroke="black"/>
<line x1="1208" y1="-712" x2="1368" y2="-576" stroke-width="10" stroke="black"/>
<line x1="1184" y1="-712" x2="1216" y2="-480" stroke-width="10" stroke="black"/>
<line x1="1216" y1="-480" x2="1192" y2="-320" stroke-width="10" stroke="black"/>
<line x1="1216" y1="-320" x2="1240" y2="-480" stroke-width="10" stroke="black"/>
<line x1="1240" y1="-480" x2="1208" y2="-712" stroke-width="10" stroke="black"/>
<line x1="1192" y1="-320" x2="1152" y2="-272" stroke-width="10" stroke="black"/>
<line x1="1216" y1="-320" x2="1192" y2="-320" stroke-width="10" stroke="black"/>
<line x1="1184" y1="-712" x2="1208" y2="-712" stroke-width="10" stroke="black"/>
<line x1="1152" y1="-256" x2="1216" y2="-256" stroke-width="10" stroke="black"/>
<line x1="1488" y1="-768" x2="1440" y2="-784" stroke-width="10" stroke="black"/>
<line x1="1376" y1="-896" x2="1376" y2="-800" stroke-width="10" stroke="black"/>
<line x1="1472" y1="-704" x2="1664" y2="-704" stroke-width="10" stroke="black"/>
<line x1="1664" y1="-896" x2="1664" y2="-864" stroke-width="10" stroke="black"/>
<line x1="1280" y1="-712" x2="1408" y2="-576" stroke-width="10" stroke="black"/>
<line x1="1152" y1="-272" x2="1152" y2="-256" stroke-width="10" stroke="black"/>
<line x1="832" y1="-448" x2="944" y2="-448" stroke-width="10" stroke="black"/>
<line x1="944" y1="-448" x2="944" y2="-248" stroke-width="10" stroke="black"/>
<line x1="832" y1="-248" x2="832" y2="-448" stroke-width="10" stroke="black"/>
<line x1="960" y1="-464" x2="816" y2="-464" stroke-width="10" stroke="black"/>
<line x1="960" y1="-248" x2="960" y2="-464" stroke-width="10" stroke="black"/>
<line x1="816" y1="-464" x2="816" y2="-248" stroke-width="10" stroke="black"/>
<line x1="576" y1="-32" x2="576" y2="96" stroke-width="10" stroke="black"/>
<line x1="944" y1="-128" x2="544" y2="-128" stroke-width="10" stroke="black"/>
<line x1="544" y1="-128" x2="448" y2="-104" stroke-width="10" stroke="black"/>
<line x1="448" y1="-224" x2="832" y2="-224" stroke-width="10" stroke="black"/>
<line x1="576" y1="-32" x2="992" y2="-32" stroke-width="10" stroke="black"/>
<line x1="832" y1="-248" x2="816" y2="-248" stroke-width="10" stroke="black"/>
<line x1="960" y1="-856" x2="888" y2="-856" stroke-width="10" stroke="black"/>
<line x1="864" y1="-784" x2="928" y2="-792" stroke-width="10" stroke="black"/>
<line x1="888" y1="-856" x2="736" y2="-704" stroke-width="10" stroke="black"/>
<line x1="448" y1="-720" x2="456" y2="-720" stroke-width="10" stroke="black"/>
<line x1="456" y1="-736" x2="448" y2="-741" stroke-width="10" stroke="black"/>
<line x1="640" y1="-896" x2="640" y2="-704" stroke-width="10" stroke="black"/>
<line x1="656" y1="-704" x2="656" y2="-896" stroke-width="10" stroke="black"/>
<line x1="576" y1="-576" x2="800" y2="-576" stroke-width="10" stroke="black"/>
<line x1="544" y1="-496" x2="576" y2="-576" stroke-width="10" stroke="black"/>
<line x1="752" y1="-680" x2="772" y2="-704" stroke-width="10" stroke="black"/>
<line x1="640" y1="-672" x2="448" y2="-672" stroke-width="10" stroke="black"/>
<line x1="680" y1="-656" x2="752" y2="-680" stroke-width="10" stroke="black"/>
<line x1="800" y1="-576" x2="896" y2="-704" stroke-width="10" stroke="black"/>
<line x1="736" y1="-704" x2="656" y2="-704" stroke-width="10" stroke="black"/>
<line x1="448" y1="-480" x2="544" y2="-496" stroke-width="10" stroke="black"/>
<line x1="1024" y1="-792" x2="1024" y2="-816" stroke-width="10" stroke="black"/>
<line x1="448" y1="-360" x2="448" y2="-256" stroke-width="10" stroke="black"/>
<line x1="32" y1="-1600" x2="-32" y2="-1600" stroke-width="10" stroke="black"/>
<line x1="-32" y1="-1552" x2="-32" y2="-1568" stroke-width="10" stroke="black"/>
<line x1="-32" y1="-1568" x2="32" y2="-1568" stroke-width="10" stroke="black"/>
<line x1="32" y1="-1584" x2="-32" y2="-1584" stroke-width="10" stroke="black"/>
<line x1="-144" y1="-1584" x2="-192" y2="-1584" stroke-width="10" stroke="black"/>
<line x1="-96" y1="-1472" x2="-144" y2="-1536" stroke-width="10" stroke="black"/>
<line x1="-144" y1="-1640" x2="-144" y2="-1624" stroke-width="10" stroke="black"/>
<line x1="-64" y1="-1640" x2="-144" y2="-1640" stroke-width="10" stroke="black"/>
<line x1="-64" y1="-1408" x2="-64" y2="-1552" stroke-width="10" stroke="black"/>
<line x1="240" y1="-1424" x2="254" y2="-1408" stroke-width="10" stroke="black"/>
<line x1="920" y1="-1472" x2="960" y2="-1504" stroke-width="10" stroke="black"/>
<line x1="64" y1="-1408" x2="64" y2="-1520" stroke-width="10" stroke="black"/>
<line x1="256" y1="-1640" x2="64" y2="-1640" stroke-width="10" stroke="black"/>
<line x1="512" y1="-1728" x2="256" y2="-1640" stroke-width="10" stroke="black"/>
<line x1="64" y1="-1520" x2="144" y2="-1520" stroke-width="10" stroke="black"/>
<line x1="240" y1="-1424" x2="352" y2="-1472" stroke-width="10" stroke="black"/>
<line x1="32" y1="-1600" x2="32" y2="-1584" stroke-width="10" stroke="black"/>
<line x1="-408" y1="-1952" x2="-424" y2="-1936" stroke-width="10" stroke="black"/>
<line x1="-376" y1="-1952" x2="-408" y2="-1952" stroke-width="10" stroke="black"/>
<line x1="-360" y1="-1936" x2="-376" y2="-1952" stroke-width="10" stroke="black"/>
<line x1="-376" y1="-1888" x2="-360" y2="-1904" stroke-width="10" stroke="black"/>
<line x1="-408" y1="-1888" x2="-376" y2="-1888" stroke-width="10" stroke="black"/>
<line x1="-424" y1="-1936" x2="-424" y2="-1904" stroke-width="10" stroke="black"/>
<line x1="-360" y1="-1904" x2="-360" y2="-1936" stroke-width="10" stroke="black"/>
<line x1="-32" y1="-1776" x2="-32" y2="-1744" stroke-width="10" stroke="black"/>
<line x1="32" y1="-1776" x2="16" y2="-1792" stroke-width="10" stroke="black"/>
<line x1="32" y1="-1744" x2="32" y2="-1776" stroke-width="10" stroke="black"/>
<line x1="16" y1="-1728" x2="32" y2="-1744" stroke-width="10" stroke="black"/>
<line x1="-16" y1="-1792" x2="-32" y2="-1776" stroke-width="10" stroke="black"/>
<line x1="-208" y1="-1808" x2="-208" y2="-1872" stroke-width="10" stroke="black"/>
<line x1="-128" y1="-1792" x2="-64" y2="-1856" stroke-width="10" stroke="black"/>
<line x1="-144" y1="-2048" x2="-144" y2="-1808" stroke-width="10" stroke="black"/>
<line x1="-256" y1="-1792" x2="-128" y2="-1792" stroke-width="10" stroke="black"/>
<line x1="-256" y1="-1872" x2="-256" y2="-1792" stroke-width="10" stroke="black"/>
<line x1="360" y1="-1840" x2="360" y2="-1808" stroke-width="10" stroke="black"/>
<line x1="376" y1="-1856" x2="360" y2="-1840" stroke-width="10" stroke="black"/>
<line x1="408" y1="-1856" x2="376" y2="-1856" stroke-width="10" stroke="black"/>
<line x1="408" y1="-1792" x2="424" y2="-1808" stroke-width="10" stroke="black"/>
<line x1="376" y1="-1792" x2="408" y2="-1792" stroke-width="10" stroke="black"/>
<line x1="424" y1="-1840" x2="408" y2="-1856" stroke-width="10" stroke="black"/>
<line x1="424" y1="-1808" x2="424" y2="-1840" stroke-width="10" stroke="black"/>
<line x1="272" y1="-2016" x2="256" y2="-2000" stroke-width="10" stroke="black"/>
<line x1="304" y1="-2016" x2="272" y2="-2016" stroke-width="10" stroke="black"/>
<line x1="320" y1="-2000" x2="304" y2="-2016" stroke-width="10" stroke="black"/>
<line x1="304" y1="-1952" x2="320" y2="-1968" stroke-width="10" stroke="black"/>
<line x1="272" y1="-1952" x2="304" y2="-1952" stroke-width="10" stroke="black"/>
<line x1="128" y1="-1792" x2="256" y2="-1792" stroke-width="10" stroke="black"/>
<line x1="64" y1="-1984" x2="64" y2="-1856" stroke-width="10" stroke="black"/>
<line x1="256" y1="-1792" x2="256" y2="-1856" stroke-width="10" stroke="black"/>
<line x1="320" y1="-1968" x2="320" y2="-2000" stroke-width="10" stroke="black"/>
<line x1="64" y1="-1856" x2="128" y2="-1792" stroke-width="10" stroke="black"/>
<line x1="-16" y1="-1728" x2="16" y2="-1728" stroke-width="10" stroke="black"/>
<line x1="-304" y1="-2096" x2="-304" y2="-2064" stroke-width="10" stroke="black"/>
<line x1="-256" y1="-2112" x2="-288" y2="-2112" stroke-width="10" stroke="black"/>
<line x1="-240" y1="-2096" x2="-256" y2="-2112" stroke-width="10" stroke="black"/>
<line x1="-240" y1="-2064" x2="-240" y2="-2096" stroke-width="10" stroke="black"/>
<line x1="-256" y1="-2048" x2="-240" y2="-2064" stroke-width="10" stroke="black"/>
<line x1="-288" y1="-2112" x2="-304" y2="-2096" stroke-width="10" stroke="black"/>
<line x1="-288" y1="-2424" x2="-288" y2="-2432" stroke-width="10" stroke="black"/>
<line x1="-320" y1="-2424" x2="-288" y2="-2424" stroke-width="10" stroke="black"/>
<line x1="-288" y1="-2432" x2="-320" y2="-2432" stroke-width="10" stroke="black"/>
<line x1="-320" y1="-2432" x2="-320" y2="-2424" stroke-width="10" stroke="black"/>
<line x1="-224" y1="-2304" x2="-224" y2="-2272" stroke-width="10" stroke="black"/>
<line x1="-448" y1="-2176" x2="-256" y2="-2240" stroke-width="10" stroke="black"/>
<line x1="256" y1="-2176" x2="384" y2="-2176" stroke-width="10" stroke="black"/>
<line x1="64" y1="-2112" x2="0" y2="-2144" stroke-width="10" stroke="black"/>
<line x1="-64" y1="-2112" x2="-144" y2="-2048" stroke-width="10" stroke="black"/>
<line x1="0" y1="-2144" x2="-64" y2="-2112" stroke-width="10" stroke="black"/>
<line x1="144" y1="-2048" x2="64" y2="-2112" stroke-width="10" stroke="black"/>
<line x1="-96" y1="-2264" x2="-160" y2="-2304" stroke-width="10" stroke="black"/>
<line x1="-184" y1="-2304" x2="-184" y2="-2368" stroke-width="10" stroke="black"/>
<line x1="-160" y1="-2304" x2="-160" y2="-2368" stroke-width="10" stroke="black"/>
<line x1="-200" y1="-2240" x2="-96" y2="-2240" stroke-width="10" stroke="black"/>
<line x1="-200" y1="-2368" x2="-200" y2="-2304" stroke-width="10" stroke="black"/>
<line x1="-288" y1="-2048" x2="-256" y2="-2048" stroke-width="10" stroke="black"/>
<line x1="1472" y1="-1024" x2="1408" y2="-1024" stroke-width="10" stroke="black"/>
<line x1="1408" y1="-1024" x2="1344" y2="-1024" stroke-width="10" stroke="black"/>
<line x1="1408" y1="-960" x2="1408" y2="-1024" stroke-width="10" stroke="black"/>
<line x1="1216" y1="-960" x2="1216" y2="-1344" stroke-width="10" stroke="black"/>
<line x1="1152" y1="-1344" x2="1216" y2="-1344" stroke-width="10" stroke="black"/>
<line x1="1280" y1="-944" x2="1344" y2="-944" stroke-width="10" stroke="black"/>
<line x1="1404" y1="-896" x2="1407" y2="-944" stroke-width="10" stroke="black"/>
<line x1="1408" y1="-944" x2="1472" y2="-944" stroke-width="10" stroke="black"/>
<line x1="1344" y1="-960" x2="1344" y2="-944" stroke-width="10" stroke="black"/>
<line x1="1216" y1="-960" x2="1152" y2="-960" stroke-width="10" stroke="black"/>
<line x1="1504" y1="-912" x2="1520" y2="-912" stroke-width="10" stroke="black"/>
<line x1="1480" y1="-920" x2="1504" y2="-912" stroke-width="10" stroke="black"/>
<line x1="1472" y1="-944" x2="1480" y2="-920" stroke-width="10" stroke="black"/>
<line x1="1512" y1="-1368" x2="1472" y2="-1376" stroke-width="10" stroke="black"/>
<line x1="1536" y1="-1336" x2="1512" y2="-1368" stroke-width="10" stroke="black"/>
<line x1="1536" y1="-928" x2="1536" y2="-1336" stroke-width="10" stroke="black"/>
<line x1="1472" y1="-1344" x2="1472" y2="-1024" stroke-width="10" stroke="black"/>
<line x1="768" y1="-896" x2="808" y2="-936" stroke-width="10" stroke="black"/>
<line x1="448" y1="-944" x2="640" y2="-944" stroke-width="10" stroke="black"/>
<line x1="1024" y1="-1280" x2="1024" y2="-1344" stroke-width="10" stroke="black"/>
<line x1="1040" y1="-1376" x2="960" y2="-1344" stroke-width="10" stroke="black"/>
<line x1="1024" y1="-1344" x2="1152" y2="-1344" stroke-width="10" stroke="black"/>
<line x1="704" y1="-1280" x2="704" y2="-1024" stroke-width="10" stroke="black"/>
<line x1="768" y1="-1256" x2="768" y2="-1048" stroke-width="10" stroke="black"/>
<line x1="448" y1="-1280" x2="704" y2="-1280" stroke-width="10" stroke="black"/>
<line x1="896" y1="-1088" x2="880" y2="-1088" stroke-width="10" stroke="black"/>
<line x1="832" y1="-1232" x2="880" y2="-1216" stroke-width="10" stroke="black"/>
<line x1="896" y1="-1216" x2="896" y2="-1088" stroke-width="10" stroke="black"/>
<line x1="928" y1="-1312" x2="832" y2="-1312" stroke-width="10" stroke="black"/>
<line x1="832" y1="-1232" x2="832" y2="-1072" stroke-width="10" stroke="black"/>
<line x1="960" y1="-1216" x2="960" y2="-1280" stroke-width="10" stroke="black"/>
<line x1="448" y1="-960" x2="640" y2="-960" stroke-width="10" stroke="black"/>
<line x1="1152" y1="-960" x2="1152" y2="-1344" stroke-width="10" stroke="black"/>
<line x1="296" y1="-1216" x2="320" y2="-1216" stroke-width="10" stroke="black"/>
<line x1="448" y1="-960" x2="384" y2="-960" stroke-width="10" stroke="black"/>
<line x1="320" y1="-1216" x2="320" y2="-912" stroke-width="10" stroke="black"/>
<line x1="254" y1="-1408" x2="343" y2="-1312" stroke-width="10" stroke="black"/>
<line x1="192" y1="-1344" x2="320" y2="-1304" stroke-width="10" stroke="black"/>
<line x1="384" y1="-1280" x2="448" y2="-1280" stroke-width="10" stroke="black"/>
<line x1="144" y1="-1376" x2="80" y2="-1376" stroke-width="10" stroke="black"/>
<line x1="144" y1="-1312" x2="80" y2="-1312" stroke-width="10" stroke="black"/>
<line x1="144" y1="-1344" x2="80" y2="-1344" stroke-width="10" stroke="black"/>
<line x1="144" y1="-1248" x2="80" y2="-1248" stroke-width="10" stroke="black"/>
<line x1="144" y1="-1216" x2="168" y2="-1216" stroke-width="10" stroke="black"/>
<line x1="144" y1="-1280" x2="80" y2="-1280" stroke-width="10" stroke="black"/>
<line x1="168" y1="-1216" x2="168" y2="-1280" stroke-width="10" stroke="black"/>
<line x1="-320" y1="-896" x2="-416" y2="-960" stroke-width="10" stroke="black"/>
<line x1="-416" y1="-1136" x2="-416" y2="-1120" stroke-width="10" stroke="black"/>
<line x1="-416" y1="-1136" x2="-576" y2="-1168" stroke-width="10" stroke="black"/>
<line x1="64" y1="-1344" x2="-64" y2="-1344" stroke-width="10" stroke="black"/>
<line x1="-400" y1="-1312" x2="-64" y2="-1312" stroke-width="10" stroke="black"/>
<line x1="64" y1="-1184" x2="64" y2="-1120" stroke-width="10" stroke="black"/>
<line x1="-352" y1="-1184" x2="-368" y2="-1184" stroke-width="10" stroke="black"/>
<line x1="-400" y1="-1312" x2="-368" y2="-1184" stroke-width="10" stroke="black"/>
<line x1="80" y1="-1120" x2="80" y2="-1216" stroke-width="10" stroke="black"/>
<line x1="448" y1="-944" x2="448" y2="-960" stroke-width="10" stroke="black"/>
<line x1="80" y1="-1408" x2="64" y2="-1408" stroke-width="10" stroke="black"/>
<line x1="656" y1="-896" x2="768" y2="-896" stroke-width="10" stroke="black"/>
<line x1="-576" y1="512" x2="-576" y2="640" stroke-width="10" stroke="black"/>

</svg>

