<svg width="900" height="742" preserveAspectRatio="none" viewBox="-2418 -2498 6036 5028"
 xmlns="http://www.w3.org/2000/svg" xmlns:xlink="http://www.w3.org/1999/xlink">
   <defs>
    <marker id="arrow" markerWidth="10" markerHeight="10" refX="0" refY="2" orient="auto" markerUnits="strokeWidth">
      <path d="M0,0 L0,4 L5,3 z" fill="#f00" />
    </marker>
  </defs>

<line x1="-992" y1="-1312" x2="-992" y2="-1344" stroke-width="10" stroke="black"/>
<line x1="-1088" y1="-1248" x2="-1088" y2="-1312" stroke-width="10" stroke="black"/>
<line x1="-1056" y1="-1248" x2="-1056" y2="-1312" stroke-width="10" stroke="black"/>
<line x1="-1024" y1="-1248" x2="-1024" y2="-1312" stroke-width="10" stroke="black"/>
<line x1="-1184" y1="-1216" x2="-1184" y2="-1344" stroke-width="10" stroke="black"/>
<line x1="-1152" y1="-1248" x2="-1152" y2="-1312" stroke-width="10" stroke="black"/>
<line x1="-1424" y1="-1232" x2="-1440" y2="-1232" stroke-width="10" stroke="black"/>
<line x1="-1440" y1="-1328" x2="-1424" y2="-1328" stroke-width="10" stroke="black"/>
<line x1="-1248" y1="-1216" x2="-1248" y2="-1344" stroke-width="10" stroke="black"/>
<line x1="-1216" y1="-1216" x2="-1216" y2="-1344" stroke-width="10" stroke="black"/>
<line x1="-1120" y1="-1248" x2="-1120" y2="-1312" stroke-width="10" stroke="black"/>
<line x1="-1088" y1="-1472" x2="-1088" y2="-1344" stroke-width="10" stroke="black"/>
<line x1="-1056" y1="-1472" x2="-1056" y2="-1344" stroke-width="10" stroke="black"/>
<line x1="-992" y1="-1472" x2="-992" y2="-1344" stroke-width="10" stroke="black"/>
<line x1="-1024" y1="-1472" x2="-1024" y2="-1344" stroke-width="10" stroke="black"/>
<line x1="-1264" y1="-1536" x2="-1248" y2="-1536" stroke-width="10" stroke="black"/>
<line x1="-1248" y1="-1536" x2="-1248" y2="-1408" stroke-width="10" stroke="black"/>
<line x1="-1184" y1="-1536" x2="-1184" y2="-1408" stroke-width="10" stroke="black"/>
<line x1="-1152" y1="-1504" x2="-1152" y2="-1376" stroke-width="10" stroke="black"/>
<line x1="-1216" y1="-1536" x2="-1216" y2="-1408" stroke-width="10" stroke="black"/>
<line x1="-1120" y1="-1344" x2="-1120" y2="-1472" stroke-width="10" stroke="black"/>
<line x1="-1216" y1="-1344" x2="-1184" y2="-1344" stroke-width="10" stroke="black"/>
<line x1="-1616" y1="-1536" x2="-1616" y2="-1472" stroke-width="10" stroke="black"/>
<line x1="-1632" y1="-1416" x2="-1600" y2="-1344" stroke-width="10" stroke="black"/>
<line x1="-1504" y1="-1352" x2="-1504" y2="-1344" stroke-width="10" stroke="black"/>
<line x1="-1440" y1="-1472" x2="-1616" y2="-1472" stroke-width="10" stroke="black"/>
<line x1="-1584" y1="-1232" x2="-1584" y2="-1328" stroke-width="10" stroke="black"/>
<line x1="-1584" y1="-1328" x2="-1440" y2="-1328" stroke-width="10" stroke="black"/>
<line x1="-1440" y1="-1232" x2="-1584" y2="-1232" stroke-width="10" stroke="black"/>
<line x1="-1600" y1="-1344" x2="-1600" y2="-1216" stroke-width="10" stroke="black"/>
<line x1="-1504" y1="-1344" x2="-1600" y2="-1344" stroke-width="10" stroke="black"/>
<line x1="-2112" y1="-1456" x2="-2112" y2="-1216" stroke-width="10" stroke="black"/>
<line x1="-2080" y1="-1216" x2="-2080" y2="-1456" stroke-width="10" stroke="black"/>
<line x1="-1888" y1="-1472" x2="-1888" y2="-1408" stroke-width="10" stroke="black"/>
<line x1="-1760" y1="-1408" x2="-1760" y2="-1472" stroke-width="10" stroke="black"/>
<line x1="-1760" y1="-1472" x2="-1888" y2="-1472" stroke-width="10" stroke="black"/>
<line x1="-1696" y1="-1216" x2="-1696" y2="-1408" stroke-width="10" stroke="black"/>
<line x1="-1888" y1="-1408" x2="-1952" y2="-1408" stroke-width="10" stroke="black"/>
<line x1="-1952" y1="-1408" x2="-1952" y2="-1216" stroke-width="10" stroke="black"/>
<line x1="-1632" y1="-1472" x2="-1632" y2="-1536" stroke-width="10" stroke="black"/>
<line x1="-1952" y1="-1664" x2="-2080" y2="-1664" stroke-width="10" stroke="black"/>
<line x1="-2048" y1="-1880" x2="-1984" y2="-1880" stroke-width="10" stroke="black"/>
<line x1="-2112" y1="-1856" x2="-2048" y2="-1856" stroke-width="10" stroke="black"/>
<line x1="-2000" y1="-2072" x2="-2000" y2="-2080" stroke-width="10" stroke="black"/>
<line x1="-2032" y1="-2080" x2="-2032" y2="-2072" stroke-width="10" stroke="black"/>
<line x1="-2032" y1="-2072" x2="-2000" y2="-2072" stroke-width="10" stroke="black"/>
<line x1="-1984" y1="-1920" x2="-2048" y2="-1920" stroke-width="10" stroke="black"/>
<line x1="-1984" y1="-1920" x2="-1984" y2="-1896" stroke-width="10" stroke="black"/>
<line x1="-2000" y1="-2080" x2="-2032" y2="-2080" stroke-width="10" stroke="black"/>
<line x1="-2048" y1="-1896" x2="-1984" y2="-1896" stroke-width="10" stroke="black"/>
<line x1="-1952" y1="-1600" x2="-1824" y2="-1600" stroke-width="10" stroke="black"/>
<line x1="-1440" y1="-1232" x2="-1440" y2="-1328" stroke-width="10" stroke="black"/>
<line x1="-576" y1="-1216" x2="-576" y2="-1344" stroke-width="10" stroke="black"/>
<line x1="-656" y1="-1344" x2="-656" y2="-1216" stroke-width="10" stroke="black"/>
<line x1="-640" y1="-1216" x2="-640" y2="-1344" stroke-width="10" stroke="black"/>
<line x1="-352" y1="-1824" x2="-320" y2="-1824" stroke-width="10" stroke="black"/>
<line x1="-352" y1="-1600" x2="-320" y2="-1600" stroke-width="10" stroke="black"/>
<line x1="-352" y1="-1824" x2="-368" y2="-1824" stroke-width="10" stroke="black"/>
<line x1="-576" y1="-1536" x2="-512" y2="-1600" stroke-width="10" stroke="black"/>
<line x1="-592" y1="-1552" x2="-592" y2="-1472" stroke-width="10" stroke="black"/>
<line x1="-368" y1="-1616" x2="-528" y2="-1616" stroke-width="10" stroke="black"/>
<line x1="-592" y1="-1472" x2="-640" y2="-1536" stroke-width="10" stroke="black"/>
<line x1="-640" y1="-2240" x2="-352" y2="-2304" stroke-width="10" stroke="black"/>
<line x1="-640" y1="-1536" x2="-640" y2="-2240" stroke-width="10" stroke="black"/>
<line x1="-424" y1="-1408" x2="-424" y2="-1440" stroke-width="10" stroke="black"/>
<line x1="-472" y1="-1376" x2="-440" y2="-1376" stroke-width="10" stroke="black"/>
<line x1="-488" y1="-1408" x2="-472" y2="-1376" stroke-width="10" stroke="black"/>
<line x1="-488" y1="-1440" x2="-488" y2="-1408" stroke-width="10" stroke="black"/>
<line x1="-472" y1="-1472" x2="-488" y2="-1440" stroke-width="10" stroke="black"/>
<line x1="-440" y1="-1472" x2="-472" y2="-1472" stroke-width="10" stroke="black"/>
<line x1="-440" y1="-1376" x2="-424" y2="-1408" stroke-width="10" stroke="black"/>
<line x1="-352" y1="-1800" x2="-352" y2="-1824" stroke-width="10" stroke="black"/>
<line x1="-704" y1="-1344" x2="-656" y2="-1344" stroke-width="10" stroke="black"/>
<line x1="-192" y1="-1624" x2="-320" y2="-1624" stroke-width="10" stroke="black"/>
<line x1="-320" y1="-1600" x2="-192" y2="-1600" stroke-width="10" stroke="black"/>
<line x1="-192" y1="-2176" x2="-320" y2="-2200" stroke-width="10" stroke="black"/>
<line x1="-192" y1="-2176" x2="-256" y2="-2176" stroke-width="10" stroke="black"/>
<line x1="-320" y1="-1824" x2="-192" y2="-1824" stroke-width="10" stroke="black"/>
<line x1="-320" y1="-1600" x2="-320" y2="-1216" stroke-width="10" stroke="black"/>
<line x1="-128" y1="-1984" x2="0" y2="-1984" stroke-width="10" stroke="black"/>
<line x1="-128" y1="-2080" x2="0" y2="-2080" stroke-width="10" stroke="black"/>
<line x1="-128" y1="-2048" x2="0" y2="-2048" stroke-width="10" stroke="black"/>
<line x1="-128" y1="-2016" x2="0" y2="-2016" stroke-width="10" stroke="black"/>
<line x1="-128" y1="-2080" x2="-128" y2="-2112" stroke-width="10" stroke="black"/>
<line x1="-128" y1="-2144" x2="0" y2="-2144" stroke-width="10" stroke="black"/>
<line x1="-128" y1="-2112" x2="-128" y2="-2144" stroke-width="10" stroke="black"/>
<line x1="-128" y1="-2176" x2="-192" y2="-2176" stroke-width="10" stroke="black"/>
<line x1="-128" y1="-2368" x2="-128" y2="-2304" stroke-width="10" stroke="black"/>
<line x1="-128" y1="-2304" x2="0" y2="-2304" stroke-width="10" stroke="black"/>
<line x1="-192" y1="-2160" x2="-160" y2="-2160" stroke-width="10" stroke="black"/>
<line x1="-128" y1="-2112" x2="0" y2="-2112" stroke-width="10" stroke="black"/>
<line x1="-32" y1="-1472" x2="-48" y2="-1504" stroke-width="10" stroke="black"/>
<line x1="-96" y1="-1440" x2="-80" y2="-1408" stroke-width="10" stroke="black"/>
<line x1="-96" y1="-1472" x2="-96" y2="-1440" stroke-width="10" stroke="black"/>
<line x1="-32" y1="-1440" x2="-32" y2="-1472" stroke-width="10" stroke="black"/>
<line x1="-80" y1="-1504" x2="-96" y2="-1472" stroke-width="10" stroke="black"/>
<line x1="-48" y1="-1408" x2="-32" y2="-1440" stroke-width="10" stroke="black"/>
<line x1="-80" y1="-1408" x2="-48" y2="-1408" stroke-width="10" stroke="black"/>
<line x1="-128" y1="-1312" x2="-192" y2="-1344" stroke-width="10" stroke="black"/>
<line x1="0" y1="-1312" x2="-128" y2="-1312" stroke-width="10" stroke="black"/>
<line x1="0" y1="-1696" x2="-160" y2="-1696" stroke-width="10" stroke="black"/>
<line x1="-192" y1="-1600" x2="0" y2="-1600" stroke-width="10" stroke="black"/>
<line x1="-128" y1="-1856" x2="0" y2="-1856" stroke-width="10" stroke="black"/>
<line x1="-128" y1="-1920" x2="0" y2="-1920" stroke-width="10" stroke="black"/>
<line x1="-128" y1="-1888" x2="0" y2="-1888" stroke-width="10" stroke="black"/>
<line x1="-128" y1="-1920" x2="-128" y2="-1952" stroke-width="10" stroke="black"/>
<line x1="-160" y1="-1824" x2="-128" y2="-1824" stroke-width="10" stroke="black"/>
<line x1="0" y1="-1952" x2="-128" y2="-1952" stroke-width="10" stroke="black"/>
<line x1="-192" y1="-2176" x2="-192" y2="-2160" stroke-width="10" stroke="black"/>
<line x1="64" y1="-1624" x2="64" y2="-1664" stroke-width="10" stroke="black"/>
<line x1="32" y1="-1696" x2="0" y2="-1696" stroke-width="10" stroke="black"/>
<line x1="64" y1="-1344" x2="0" y2="-1312" stroke-width="10" stroke="black"/>
<line x1="192" y1="-1216" x2="192" y2="-1600" stroke-width="10" stroke="black"/>
<line x1="192" y1="-1600" x2="224" y2="-1600" stroke-width="10" stroke="black"/>
<line x1="64" y1="-1600" x2="64" y2="-1344" stroke-width="10" stroke="black"/>
<line x1="192" y1="-1624" x2="64" y2="-1624" stroke-width="10" stroke="black"/>
<line x1="32" y1="-2160" x2="64" y2="-2160" stroke-width="10" stroke="black"/>
<line x1="192" y1="-2200" x2="64" y2="-2176" stroke-width="10" stroke="black"/>
<line x1="192" y1="-2176" x2="224" y2="-2176" stroke-width="10" stroke="black"/>
<line x1="64" y1="-1824" x2="192" y2="-1824" stroke-width="10" stroke="black"/>
<line x1="304" y1="-1760" x2="240" y2="-1760" stroke-width="10" stroke="black"/>
<line x1="304" y1="-1696" x2="304" y2="-1760" stroke-width="10" stroke="black"/>
<line x1="240" y1="-1696" x2="304" y2="-1696" stroke-width="10" stroke="black"/>
<line x1="336" y1="-1824" x2="240" y2="-1824" stroke-width="10" stroke="black"/>
<line x1="400" y1="-1616" x2="400" y2="-1728" stroke-width="10" stroke="black"/>
<line x1="240" y1="-1824" x2="224" y2="-1824" stroke-width="10" stroke="black"/>
<line x1="240" y1="-1616" x2="240" y2="-1696" stroke-width="10" stroke="black"/>
<line x1="400" y1="-1728" x2="336" y2="-1824" stroke-width="10" stroke="black"/>
<line x1="384" y1="-1600" x2="448" y2="-1536" stroke-width="10" stroke="black"/>
<line x1="464" y1="-1472" x2="464" y2="-1552" stroke-width="10" stroke="black"/>
<line x1="400" y1="-1616" x2="240" y2="-1616" stroke-width="10" stroke="black"/>
<line x1="512" y1="-1536" x2="464" y2="-1472" stroke-width="10" stroke="black"/>
<line x1="224" y1="-2304" x2="512" y2="-2240" stroke-width="10" stroke="black"/>
<line x1="512" y1="-2240" x2="512" y2="-1536" stroke-width="10" stroke="black"/>
<line x1="360" y1="-1408" x2="360" y2="-1440" stroke-width="10" stroke="black"/>
<line x1="312" y1="-1376" x2="344" y2="-1376" stroke-width="10" stroke="black"/>
<line x1="296" y1="-1408" x2="312" y2="-1376" stroke-width="10" stroke="black"/>
<line x1="296" y1="-1440" x2="296" y2="-1408" stroke-width="10" stroke="black"/>
<line x1="312" y1="-1472" x2="296" y2="-1440" stroke-width="10" stroke="black"/>
<line x1="344" y1="-1376" x2="360" y2="-1408" stroke-width="10" stroke="black"/>
<line x1="464" y1="-1312" x2="768" y2="-1280" stroke-width="10" stroke="black"/>
<line x1="592" y1="-1456" x2="768" y2="-1456" stroke-width="10" stroke="black"/>
<line x1="448" y1="-1472" x2="448" y2="-1216" stroke-width="10" stroke="black"/>
<line x1="344" y1="-1472" x2="312" y2="-1472" stroke-width="10" stroke="black"/>
<line x1="224" y1="-1800" x2="224" y2="-1760" stroke-width="10" stroke="black"/>
<line x1="0" y1="-2144" x2="0" y2="-2112" stroke-width="10" stroke="black"/>
<line x1="-704" y1="-1424" x2="-704" y2="-1344" stroke-width="10" stroke="black"/>
<line x1="0" y1="-1152" x2="-128" y2="-1152" stroke-width="10" stroke="black"/>
<line x1="0" y1="-1120" x2="-128" y2="-1120" stroke-width="10" stroke="black"/>
<line x1="0" y1="-1056" x2="-128" y2="-1056" stroke-width="10" stroke="black"/>
<line x1="0" y1="-1024" x2="-128" y2="-1024" stroke-width="10" stroke="black"/>
<line x1="0" y1="-1088" x2="-128" y2="-1088" stroke-width="10" stroke="black"/>
<line x1="0" y1="-960" x2="-128" y2="-960" stroke-width="10" stroke="black"/>
<line x1="0" y1="-928" x2="-128" y2="-928" stroke-width="10" stroke="black"/>
<line x1="0" y1="-832" x2="-128" y2="-832" stroke-width="10" stroke="black"/>
<line x1="0" y1="-864" x2="-128" y2="-864" stroke-width="10" stroke="black"/>
<line x1="0" y1="-896" x2="-128" y2="-896" stroke-width="10" stroke="black"/>
<line x1="0" y1="-992" x2="-128" y2="-992" stroke-width="10" stroke="black"/>
<line x1="1056" y1="-704" x2="992" y2="-736" stroke-width="10" stroke="black"/>
<line x1="448" y1="-832" x2="512" y2="-768" stroke-width="10" stroke="black"/>
<line x1="304" y1="-1072" x2="288" y2="-1104" stroke-width="10" stroke="black"/>
<line x1="304" y1="-1040" x2="304" y2="-1072" stroke-width="10" stroke="black"/>
<line x1="240" y1="-1040" x2="256" y2="-1008" stroke-width="10" stroke="black"/>
<line x1="240" y1="-1072" x2="240" y2="-1040" stroke-width="10" stroke="black"/>
<line x1="288" y1="-1008" x2="304" y2="-1040" stroke-width="10" stroke="black"/>
<line x1="256" y1="-1008" x2="288" y2="-1008" stroke-width="10" stroke="black"/>
<line x1="256" y1="-1104" x2="240" y2="-1072" stroke-width="10" stroke="black"/>
<line x1="64" y1="-1152" x2="192" y2="-1216" stroke-width="10" stroke="black"/>
<line x1="448" y1="-864" x2="64" y2="-864" stroke-width="10" stroke="black"/>
<line x1="704" y1="-864" x2="720" y2="-840" stroke-width="10" stroke="black"/>
<line x1="704" y1="-1216" x2="704" y2="-864" stroke-width="10" stroke="black"/>
<line x1="448" y1="-864" x2="448" y2="-832" stroke-width="10" stroke="black"/>
<line x1="64" y1="-832" x2="448" y2="-832" stroke-width="10" stroke="black"/>
<line x1="0" y1="-1088" x2="0" y2="-1056" stroke-width="10" stroke="black"/>
<line x1="384" y1="-224" x2="512" y2="-224" stroke-width="10" stroke="black"/>
<line x1="1272" y1="-256" x2="1336" y2="-192" stroke-width="10" stroke="black"/>
<line x1="1088" y1="-216" x2="1232" y2="-216" stroke-width="10" stroke="black"/>
<line x1="1264" y1="-232" x2="1272" y2="-256" stroke-width="10" stroke="black"/>
<line x1="512" y1="-256" x2="512" y2="-224" stroke-width="10" stroke="black"/>
<line x1="384" y1="-288" x2="512" y2="-288" stroke-width="10" stroke="black"/>
<line x1="384" y1="-352" x2="512" y2="-352" stroke-width="10" stroke="black"/>
<line x1="384" y1="-320" x2="512" y2="-320" stroke-width="10" stroke="black"/>
<line x1="1272" y1="-256" x2="1272" y2="-272" stroke-width="10" stroke="black"/>
<line x1="512" y1="-384" x2="512" y2="-352" stroke-width="10" stroke="black"/>
<line x1="384" y1="-256" x2="512" y2="-256" stroke-width="10" stroke="black"/>
<line x1="384" y1="-416" x2="512" y2="-416" stroke-width="10" stroke="black"/>
<line x1="384" y1="-512" x2="512" y2="-512" stroke-width="10" stroke="black"/>
<line x1="384" y1="-480" x2="512" y2="-480" stroke-width="10" stroke="black"/>
<line x1="384" y1="-448" x2="512" y2="-448" stroke-width="10" stroke="black"/>
<line x1="1200" y1="-640" x2="1376" y2="-384" stroke-width="10" stroke="black"/>
<line x1="1088" y1="-672" x2="1056" y2="-704" stroke-width="10" stroke="black"/>
<line x1="512" y1="-704" x2="512" y2="-512" stroke-width="10" stroke="black"/>
<line x1="384" y1="-384" x2="512" y2="-384" stroke-width="10" stroke="black"/>
<line x1="256" y1="-704" x2="224" y2="-688" stroke-width="10" stroke="black"/>
<line x1="384" y1="-688" x2="352" y2="-704" stroke-width="10" stroke="black"/>
<line x1="352" y1="-640" x2="384" y2="-656" stroke-width="10" stroke="black"/>
<line x1="256" y1="-640" x2="352" y2="-640" stroke-width="10" stroke="black"/>
<line x1="224" y1="-656" x2="256" y2="-640" stroke-width="10" stroke="black"/>
<line x1="96" y1="-544" x2="0" y2="-448" stroke-width="10" stroke="black"/>
<line x1="128" y1="-512" x2="96" y2="-704" stroke-width="10" stroke="black"/>
<line x1="-128" y1="-576" x2="0" y2="-576" stroke-width="10" stroke="black"/>
<line x1="-128" y1="-352" x2="0" y2="-352" stroke-width="10" stroke="black"/>
<line x1="-128" y1="-688" x2="0" y2="-688" stroke-width="10" stroke="black"/>
<line x1="-128" y1="-640" x2="0" y2="-640" stroke-width="10" stroke="black"/>
<line x1="0" y1="-352" x2="0" y2="-448" stroke-width="10" stroke="black"/>
<line x1="384" y1="-448" x2="384" y2="-480" stroke-width="10" stroke="black"/>
<line x1="96" y1="-704" x2="16" y2="-704" stroke-width="10" stroke="black"/>
<line x1="-1296" y1="-1000" x2="-1360" y2="-936" stroke-width="10" stroke="black"/>
<line x1="-1248" y1="-1024" x2="-1264" y2="-1024" stroke-width="10" stroke="black"/>
<line x1="-1216" y1="-1152" x2="-1216" y2="-1024" stroke-width="10" stroke="black"/>
<line x1="-1184" y1="-1152" x2="-1184" y2="-1024" stroke-width="10" stroke="black"/>
<line x1="-1248" y1="-1152" x2="-1248" y2="-1024" stroke-width="10" stroke="black"/>
<line x1="-1120" y1="-1216" x2="-1120" y2="-1088" stroke-width="10" stroke="black"/>
<line x1="-1088" y1="-1216" x2="-1088" y2="-1088" stroke-width="10" stroke="black"/>
<line x1="-1024" y1="-1216" x2="-1024" y2="-1088" stroke-width="10" stroke="black"/>
<line x1="-992" y1="-1216" x2="-992" y2="-1088" stroke-width="10" stroke="black"/>
<line x1="-1056" y1="-1216" x2="-1056" y2="-1088" stroke-width="10" stroke="black"/>
<line x1="-1152" y1="-1184" x2="-1152" y2="-1056" stroke-width="10" stroke="black"/>
<line x1="-1632" y1="-1088" x2="-1728" y2="-1088" stroke-width="10" stroke="black"/>
<line x1="-1632" y1="-1072" x2="-1728" y2="-1072" stroke-width="10" stroke="black"/>
<line x1="-1632" y1="-1088" x2="-1632" y2="-1072" stroke-width="10" stroke="black"/>
<line x1="-1440" y1="-1032" x2="-1352" y2="-1096" stroke-width="10" stroke="black"/>
<line x1="-1536" y1="-1008" x2="-1440" y2="-1032" stroke-width="10" stroke="black"/>
<line x1="-1624" y1="-1008" x2="-1536" y2="-1008" stroke-width="10" stroke="black"/>
<line x1="-1632" y1="-1072" x2="-1624" y2="-1008" stroke-width="10" stroke="black"/>
<line x1="-1888" y1="-1152" x2="-1760" y2="-1152" stroke-width="10" stroke="black"/>
<line x1="-1888" y1="-1216" x2="-1888" y2="-1152" stroke-width="10" stroke="black"/>
<line x1="-2112" y1="-1216" x2="-2112" y2="-1184" stroke-width="10" stroke="black"/>
<line x1="-2080" y1="-1024" x2="-2080" y2="-1184" stroke-width="10" stroke="black"/>
<line x1="-1920" y1="-1008" x2="-1760" y2="-1008" stroke-width="10" stroke="black"/>
<line x1="-1760" y1="-1024" x2="-1920" y2="-1024" stroke-width="10" stroke="black"/>
<line x1="-1760" y1="-1152" x2="-1760" y2="-1216" stroke-width="10" stroke="black"/>
<line x1="-1352" y1="-1096" x2="-1304" y2="-1144" stroke-width="10" stroke="black"/>
<line x1="-640" y1="-256" x2="-512" y2="-256" stroke-width="10" stroke="black"/>
<line x1="-640" y1="-224" x2="-512" y2="-224" stroke-width="10" stroke="black"/>
<line x1="-640" y1="-320" x2="-512" y2="-320" stroke-width="10" stroke="black"/>
<line x1="-640" y1="-288" x2="-512" y2="-288" stroke-width="10" stroke="black"/>
<line x1="-640" y1="-384" x2="-512" y2="-384" stroke-width="10" stroke="black"/>
<line x1="-640" y1="-416" x2="-512" y2="-416" stroke-width="10" stroke="black"/>
<line x1="-640" y1="-512" x2="-512" y2="-512" stroke-width="10" stroke="black"/>
<line x1="-640" y1="-480" x2="-512" y2="-480" stroke-width="10" stroke="black"/>
<line x1="-640" y1="-448" x2="-512" y2="-448" stroke-width="10" stroke="black"/>
<line x1="-640" y1="-352" x2="-512" y2="-352" stroke-width="10" stroke="black"/>
<line x1="-128" y1="-448" x2="-224" y2="-544" stroke-width="10" stroke="black"/>
<line x1="-224" y1="-704" x2="-256" y2="-512" stroke-width="10" stroke="black"/>
<line x1="-224" y1="-544" x2="-192" y2="-576" stroke-width="10" stroke="black"/>
<line x1="-512" y1="-512" x2="-512" y2="-480" stroke-width="10" stroke="black"/>
<line x1="-368" y1="-1072" x2="-384" y2="-1104" stroke-width="10" stroke="black"/>
<line x1="-384" y1="-1008" x2="-368" y2="-1040" stroke-width="10" stroke="black"/>
<line x1="-416" y1="-1008" x2="-384" y2="-1008" stroke-width="10" stroke="black"/>
<line x1="-432" y1="-1072" x2="-432" y2="-1040" stroke-width="10" stroke="black"/>
<line x1="-416" y1="-1104" x2="-432" y2="-1072" stroke-width="10" stroke="black"/>
<line x1="-432" y1="-1040" x2="-416" y2="-1008" stroke-width="10" stroke="black"/>
<line x1="-368" y1="-1040" x2="-368" y2="-1072" stroke-width="10" stroke="black"/>
<line x1="-320" y1="-1216" x2="-192" y2="-1152" stroke-width="10" stroke="black"/>
<line x1="-576" y1="-832" x2="-192" y2="-832" stroke-width="10" stroke="black"/>
<line x1="-480" y1="-704" x2="-512" y2="-688" stroke-width="10" stroke="black"/>
<line x1="-352" y1="-688" x2="-384" y2="-704" stroke-width="10" stroke="black"/>
<line x1="-352" y1="-656" x2="-352" y2="-688" stroke-width="10" stroke="black"/>
<line x1="-480" y1="-640" x2="-384" y2="-640" stroke-width="10" stroke="black"/>
<line x1="-512" y1="-688" x2="-512" y2="-656" stroke-width="10" stroke="black"/>
<line x1="-384" y1="-704" x2="-480" y2="-704" stroke-width="10" stroke="black"/>
<line x1="-192" y1="-864" x2="-576" y2="-864" stroke-width="10" stroke="black"/>
<line x1="-384" y1="-640" x2="-352" y2="-656" stroke-width="10" stroke="black"/>
<line x1="-704" y1="-1136" x2="-752" y2="-1088" stroke-width="10" stroke="black"/>
<line x1="-128" y1="-832" x2="-128" y2="-864" stroke-width="10" stroke="black"/>
<line x1="-1440" y1="-1216" x2="-1504" y2="-1216" stroke-width="10" stroke="black"/>
<line x1="-640" y1="1024" x2="-480" y2="864" stroke-width="10" stroke="black"/>
<line x1="-480" y1="864" x2="-160" y2="864" stroke-width="10" stroke="black"/>
<line x1="-704" y1="704" x2="-832" y2="832" stroke-width="10" stroke="black"/>
<line x1="-128" y1="1120" x2="-128" y2="864" stroke-width="10" stroke="black"/>
<line x1="-160" y1="704" x2="-160" y2="864" stroke-width="10" stroke="black"/>
<line x1="0" y1="1408" x2="-32" y2="1408" stroke-width="10" stroke="black"/>
<line x1="-336" y1="1328" x2="-160" y2="1152" stroke-width="10" stroke="black"/>
<line x1="-256" y1="1120" x2="-256" y2="1152" stroke-width="10" stroke="black"/>
<line x1="-512" y1="1152" x2="-448" y2="1152" stroke-width="10" stroke="black"/>
<line x1="-448" y1="1120" x2="-544" y2="1120" stroke-width="10" stroke="black"/>
<line x1="0" y1="496" x2="-128" y2="496" stroke-width="10" stroke="black"/>
<line x1="-128" y1="528" x2="0" y2="528" stroke-width="10" stroke="black"/>
<line x1="0" y1="512" x2="-128" y2="512" stroke-width="10" stroke="black"/>
<line x1="-576" y1="512" x2="-160" y2="512" stroke-width="10" stroke="black"/>
<line x1="-128" y1="448" x2="-320" y2="448" stroke-width="10" stroke="black"/>
<line x1="-576" y1="320" x2="-656" y2="400" stroke-width="10" stroke="black"/>
<line x1="-896" y1="704" x2="-680" y2="488" stroke-width="10" stroke="black"/>
<line x1="-128" y1="496" x2="-128" y2="448" stroke-width="10" stroke="black"/>
<line x1="-160" y1="704" x2="-128" y2="704" stroke-width="10" stroke="black"/>
<line x1="0" y1="-32" x2="-128" y2="-32" stroke-width="10" stroke="black"/>
<line x1="0" y1="32" x2="-128" y2="32" stroke-width="10" stroke="black"/>
<line x1="0" y1="0" x2="-128" y2="0" stroke-width="10" stroke="black"/>
<line x1="-128" y1="288" x2="0" y2="288" stroke-width="10" stroke="black"/>
<line x1="-128" y1="256" x2="0" y2="256" stroke-width="10" stroke="black"/>
<line x1="-128" y1="192" x2="0" y2="192" stroke-width="10" stroke="black"/>
<line x1="-128" y1="224" x2="0" y2="224" stroke-width="10" stroke="black"/>
<line x1="0" y1="64" x2="-128" y2="64" stroke-width="10" stroke="black"/>
<line x1="-704" y1="192" x2="-576" y2="320" stroke-width="10" stroke="black"/>
<line x1="-128" y1="192" x2="-256" y2="192" stroke-width="10" stroke="black"/>
<line x1="-128" y1="-64" x2="-192" y2="-64" stroke-width="10" stroke="black"/>
<line x1="-256" y1="64" x2="-128" y2="64" stroke-width="10" stroke="black"/>
<line x1="-320" y1="64" x2="-320" y2="192" stroke-width="10" stroke="black"/>
<line x1="-464" y1="-64" x2="-464" y2="-192" stroke-width="10" stroke="black"/>
<line x1="-480" y1="-192" x2="-480" y2="-64" stroke-width="10" stroke="black"/>
<line x1="-832" y1="320" x2="-704" y2="192" stroke-width="10" stroke="black"/>
<line x1="-128" y1="32" x2="-128" y2="0" stroke-width="10" stroke="black"/>
<line x1="-192" y1="320" x2="-128" y2="320" stroke-width="10" stroke="black"/>
<line x1="192" y1="-192" x2="320" y2="-64" stroke-width="10" stroke="black"/>
<line x1="352" y1="-64" x2="352" y2="-192" stroke-width="10" stroke="black"/>
<line x1="336" y1="-192" x2="336" y2="-64" stroke-width="10" stroke="black"/>
<line x1="192" y1="192" x2="192" y2="64" stroke-width="10" stroke="black"/>
<line x1="0" y1="64" x2="128" y2="64" stroke-width="10" stroke="black"/>
<line x1="384" y1="64" x2="384" y2="192" stroke-width="10" stroke="black"/>
<line x1="320" y1="-64" x2="320" y2="64" stroke-width="10" stroke="black"/>
<line x1="64" y1="-64" x2="0" y2="-64" stroke-width="10" stroke="black"/>
<line x1="1336" y1="-192" x2="1352" y2="-176" stroke-width="10" stroke="black"/>
<line x1="1128" y1="-24" x2="1136" y2="-32" stroke-width="10" stroke="black"/>
<line x1="1074" y1="-41" x2="1111" y2="-24" stroke-width="10" stroke="black"/>
<line x1="1128" y1="-40" x2="1096" y2="-56" stroke-width="10" stroke="black"/>
<line x1="1112" y1="-24" x2="1128" y2="-24" stroke-width="10" stroke="black"/>
<line x1="1048" y1="64" x2="1016" y2="48" stroke-width="10" stroke="black"/>
<line x1="1160" y1="-120" x2="1080" y2="-64" stroke-width="10" stroke="black"/>
<line x1="1096" y1="-56" x2="1080" y2="-64" stroke-width="10" stroke="black"/>
<line x1="1096" y1="-56" x2="1176" y2="-112" stroke-width="10" stroke="black"/>
<line x1="1280" y1="-128" x2="1160" y2="-128" stroke-width="10" stroke="black"/>
<line x1="1200" y1="152" x2="1216" y2="192" stroke-width="10" stroke="black"/>
<line x1="992" y1="64" x2="1016" y2="88" stroke-width="10" stroke="black"/>
<line x1="1016" y1="88" x2="1072" y2="96" stroke-width="10" stroke="black"/>
<line x1="1240" y1="192" x2="1373" y2="163" stroke-width="10" stroke="black"/>
<line x1="1216" y1="192" x2="512" y2="64" stroke-width="10" stroke="black"/>
<line x1="1192" y1="64" x2="1048" y2="64" stroke-width="10" stroke="black"/>
<line x1="512" y1="64" x2="512" y2="192" stroke-width="10" stroke="black"/>
<line x1="1216" y1="192" x2="1216" y2="320" stroke-width="10" stroke="black"/>
<line x1="512" y1="192" x2="1216" y2="320" stroke-width="10" stroke="black"/>
<line x1="0" y1="320" x2="64" y2="320" stroke-width="10" stroke="black"/>
<line x1="512" y1="384" x2="512" y2="192" stroke-width="10" stroke="black"/>
<line x1="384" y1="512" x2="576" y2="704" stroke-width="10" stroke="black"/>
<line x1="864" y1="576" x2="736" y2="576" stroke-width="10" stroke="black"/>
<line x1="896" y1="640" x2="880" y2="640" stroke-width="10" stroke="black"/>
<line x1="896" y1="640" x2="864" y2="576" stroke-width="10" stroke="black"/>
<line x1="736" y1="576" x2="704" y2="640" stroke-width="10" stroke="black"/>
<line x1="192" y1="448" x2="0" y2="448" stroke-width="10" stroke="black"/>
<line x1="576" y1="704" x2="704" y2="832" stroke-width="10" stroke="black"/>
<line x1="224" y1="864" x2="448" y2="1088" stroke-width="10" stroke="black"/>
<line x1="32" y1="864" x2="224" y2="864" stroke-width="10" stroke="black"/>
<line x1="32" y1="1120" x2="32" y2="864" stroke-width="10" stroke="black"/>
<line x1="576" y1="960" x2="320" y2="704" stroke-width="10" stroke="black"/>
<line x1="32" y1="1152" x2="208" y2="1328" stroke-width="10" stroke="black"/>
<line x1="0" y1="1120" x2="32" y2="1152" stroke-width="10" stroke="black"/>
<line x1="32" y1="1152" x2="128" y2="1152" stroke-width="10" stroke="black"/>
<line x1="416" y1="1120" x2="320" y2="1120" stroke-width="10" stroke="black"/>
<line x1="320" y1="704" x2="32" y2="704" stroke-width="10" stroke="black"/>
<line x1="384" y1="192" x2="320" y2="192" stroke-width="10" stroke="black"/>
<line x1="0" y1="192" x2="0" y2="224" stroke-width="10" stroke="black"/>
<line x1="-416" y1="1408" x2="-336" y2="1328" stroke-width="10" stroke="black"/>
<line x1="-256" y1="1408" x2="-320" y2="1408" stroke-width="10" stroke="black"/>
<line x1="-384" y1="1424" x2="-320" y2="1424" stroke-width="10" stroke="black"/>
<line x1="-384" y1="1664" x2="-384" y2="1792" stroke-width="10" stroke="black"/>
<line x1="-320" y1="1664" x2="-288" y2="1664" stroke-width="10" stroke="black"/>
<line x1="-320" y1="1664" x2="-320" y2="1792" stroke-width="10" stroke="black"/>
<line x1="-352" y1="1664" x2="-352" y2="1792" stroke-width="10" stroke="black"/>
<line x1="-288" y1="1632" x2="-416" y2="1504" stroke-width="10" stroke="black"/>
<line x1="-544" y1="1664" x2="-544" y2="1792" stroke-width="10" stroke="black"/>
<line x1="-448" y1="1664" x2="-448" y2="1792" stroke-width="10" stroke="black"/>
<line x1="-480" y1="1664" x2="-480" y2="1792" stroke-width="10" stroke="black"/>
<line x1="-512" y1="1664" x2="-512" y2="1792" stroke-width="10" stroke="black"/>
<line x1="-416" y1="1408" x2="-576" y2="1408" stroke-width="10" stroke="black"/>
<line x1="-416" y1="1792" x2="-416" y2="1664" stroke-width="10" stroke="black"/>
<line x1="-928" y1="1280" x2="-864" y2="1280" stroke-width="10" stroke="black"/>
<line x1="-928" y1="1504" x2="-928" y2="1280" stroke-width="10" stroke="black"/>
<line x1="-960" y1="1536" x2="-928" y2="1504" stroke-width="10" stroke="black"/>
<line x1="-864" y1="1280" x2="-864" y2="1600" stroke-width="10" stroke="black"/>
<line x1="-864" y1="1600" x2="-960" y2="1696" stroke-width="10" stroke="black"/>
<line x1="-864" y1="1920" x2="-864" y2="1792" stroke-width="10" stroke="black"/>
<line x1="-960" y1="1856" x2="-896" y2="1920" stroke-width="10" stroke="black"/>
<line x1="-640" y1="1792" x2="-656" y2="1792" stroke-width="10" stroke="black"/>
<line x1="-608" y1="1664" x2="-608" y2="1792" stroke-width="10" stroke="black"/>
<line x1="-640" y1="1664" x2="-640" y2="1792" stroke-width="10" stroke="black"/>
<line x1="-832" y1="1600" x2="-960" y2="1728" stroke-width="10" stroke="black"/>
<line x1="-896" y1="896" x2="-704" y2="1088" stroke-width="10" stroke="black"/>
<line x1="-704" y1="1152" x2="-960" y2="1152" stroke-width="10" stroke="black"/>
<line x1="-704" y1="1088" x2="-704" y2="1152" stroke-width="10" stroke="black"/>
<line x1="-960" y1="896" x2="-896" y2="896" stroke-width="10" stroke="black"/>
<line x1="-928" y1="800" x2="-864" y2="864" stroke-width="10" stroke="black"/>
<line x1="-832" y1="1232" x2="-960" y2="1232" stroke-width="10" stroke="black"/>
<line x1="-704" y1="1216" x2="-832" y2="1216" stroke-width="10" stroke="black"/>
<line x1="-960" y1="1248" x2="-832" y2="1248" stroke-width="10" stroke="black"/>
<line x1="-576" y1="1408" x2="-576" y2="1152" stroke-width="10" stroke="black"/>
<line x1="-1376" y1="1056" x2="-1088" y2="1056" stroke-width="10" stroke="black"/>
<line x1="-1088" y1="1056" x2="-1088" y2="1120" stroke-width="10" stroke="black"/>
<line x1="-1312" y1="1120" x2="-1344" y2="1152" stroke-width="10" stroke="black"/>
<line x1="-1088" y1="1120" x2="-1312" y2="1120" stroke-width="10" stroke="black"/>
<line x1="-1040" y1="1152" x2="-1040" y2="1024" stroke-width="10" stroke="black"/>
<line x1="-1056" y1="1024" x2="-1056" y2="1152" stroke-width="10" stroke="black"/>
<line x1="-976" y1="1552" x2="-960" y2="1536" stroke-width="10" stroke="black"/>
<line x1="-1344" y1="1152" x2="-1360" y2="1168" stroke-width="10" stroke="black"/>
<line x1="-1104" y1="1360" x2="-1168" y2="1296" stroke-width="10" stroke="black"/>
<line x1="-1280" y1="1152" x2="-1312" y2="1184" stroke-width="10" stroke="black"/>
<line x1="-960" y1="1216" x2="-1024" y2="1152" stroke-width="10" stroke="black"/>
<line x1="-1024" y1="1216" x2="-1024" y2="1360" stroke-width="10" stroke="black"/>
<line x1="-1312" y1="1184" x2="-1184" y2="1312" stroke-width="10" stroke="black"/>
<line x1="-1024" y1="1152" x2="-1040" y2="1152" stroke-width="10" stroke="black"/>
<line x1="-1360" y1="1168" x2="-976" y2="1552" stroke-width="10" stroke="black"/>
<line x1="-1488" y1="1168" x2="-1376" y2="1056" stroke-width="10" stroke="black"/>
<line x1="-1408" y1="1024" x2="-1056" y2="1024" stroke-width="10" stroke="black"/>
<line x1="-1488" y1="1168" x2="-960" y2="1696" stroke-width="10" stroke="black"/>
<line x1="-1760" y1="1584" x2="-1776" y2="1568" stroke-width="10" stroke="black"/>
<line x1="-1776" y1="1632" x2="-1760" y2="1616" stroke-width="10" stroke="black"/>
<line x1="-1808" y1="1632" x2="-1776" y2="1632" stroke-width="10" stroke="black"/>
<line x1="-1824" y1="1584" x2="-1824" y2="1616" stroke-width="10" stroke="black"/>
<line x1="-1824" y1="1616" x2="-1808" y2="1632" stroke-width="10" stroke="black"/>
<line x1="-1808" y1="1568" x2="-1824" y2="1584" stroke-width="10" stroke="black"/>
<line x1="-1760" y1="1616" x2="-1760" y2="1584" stroke-width="10" stroke="black"/>
<line x1="-1536" y1="1664" x2="-1600" y2="1728" stroke-width="10" stroke="black"/>
<line x1="-1536" y1="1536" x2="-1536" y2="1664" stroke-width="10" stroke="black"/>
<line x1="-1632" y1="1376" x2="-1664" y2="1408" stroke-width="10" stroke="black"/>
<line x1="-1568" y1="1440" x2="-1632" y2="1376" stroke-width="10" stroke="black"/>
<line x1="-1536" y1="1536" x2="-1344" y2="1344" stroke-width="10" stroke="black"/>
<line x1="-1600" y1="1728" x2="-1536" y2="1792" stroke-width="10" stroke="black"/>
<line x1="-1472" y1="1728" x2="-1344" y2="1728" stroke-width="10" stroke="black"/>
<line x1="-1376" y1="2000" x2="-1376" y2="1968" stroke-width="10" stroke="black"/>
<line x1="-1424" y1="2016" x2="-1392" y2="2016" stroke-width="10" stroke="black"/>
<line x1="-1440" y1="1968" x2="-1440" y2="2000" stroke-width="10" stroke="black"/>
<line x1="-1424" y1="1952" x2="-1440" y2="1968" stroke-width="10" stroke="black"/>
<line x1="-1392" y1="2016" x2="-1376" y2="2000" stroke-width="10" stroke="black"/>
<line x1="-1440" y1="2000" x2="-1424" y2="2016" stroke-width="10" stroke="black"/>
<line x1="-1392" y1="1952" x2="-1424" y2="1952" stroke-width="10" stroke="black"/>
<line x1="-1216" y1="1856" x2="-1184" y2="1824" stroke-width="10" stroke="black"/>
<line x1="-1152" y1="1792" x2="-1024" y2="1920" stroke-width="10" stroke="black"/>
<line x1="-1024" y1="1920" x2="-1088" y2="1984" stroke-width="10" stroke="black"/>
<line x1="-1152" y1="1536" x2="-1344" y2="1728" stroke-width="10" stroke="black"/>
<line x1="-1344" y1="1728" x2="-1216" y2="1856" stroke-width="10" stroke="black"/>
<line x1="-1472" y1="1728" x2="-1536" y2="1792" stroke-width="10" stroke="black"/>
<line x1="-2048" y1="2400" x2="-2048" y2="2336" stroke-width="10" stroke="black"/>
<line x1="-1776" y1="2032" x2="-1680" y2="2128" stroke-width="10" stroke="black"/>
<line x1="-2112" y1="2336" x2="-2048" y2="2336" stroke-width="10" stroke="black"/>
<line x1="-1760" y1="2016" x2="-2112" y2="1664" stroke-width="10" stroke="black"/>
<line x1="-1344" y1="1344" x2="-1536" y2="1152" stroke-width="10" stroke="black"/>
<line x1="-960" y1="1152" x2="-960" y2="896" stroke-width="10" stroke="black"/>
<line x1="-640" y1="1024" x2="-832" y2="832" stroke-width="10" stroke="black"/>
<line x1="784" y1="1200" x2="792" y2="1216" stroke-width="10" stroke="black"/>
<line x1="208" y1="1328" x2="288" y2="1408" stroke-width="10" stroke="black"/>
<line x1="576" y1="1408" x2="576" y2="1312" stroke-width="10" stroke="black"/>
<line x1="592" y1="976" x2="624" y2="944" stroke-width="10" stroke="black"/>
<line x1="320" y1="1216" x2="320" y2="1408" stroke-width="10" stroke="black"/>
<line x1="576" y1="1408" x2="784" y2="1200" stroke-width="10" stroke="black"/>
<line x1="1024" y1="1280" x2="1024" y2="1088" stroke-width="10" stroke="black"/>
<line x1="1024" y1="1088" x2="1376" y2="1088" stroke-width="10" stroke="black"/>
<line x1="1664" y1="1088" x2="1664" y2="1280" stroke-width="10" stroke="black"/>
<line x1="1408" y1="1088" x2="1664" y2="1088" stroke-width="10" stroke="black"/>
<line x1="1376" y1="1088" x2="1376" y2="1280" stroke-width="10" stroke="black"/>
<line x1="960" y1="1216" x2="960" y2="1024" stroke-width="10" stroke="black"/>
<line x1="1656" y1="1368" x2="1704" y2="1368" stroke-width="10" stroke="black"/>
<line x1="1656" y1="1320" x2="1656" y2="1368" stroke-width="10" stroke="black"/>
<line x1="1704" y1="1320" x2="1656" y2="1320" stroke-width="10" stroke="black"/>
<line x1="1704" y1="1368" x2="1704" y2="1320" stroke-width="10" stroke="black"/>
<line x1="1664" y1="1280" x2="1408" y2="1280" stroke-width="10" stroke="black"/>
<line x1="880" y1="848" x2="880" y2="864" stroke-width="10" stroke="black"/>
<line x1="720" y1="864" x2="880" y2="864" stroke-width="10" stroke="black"/>
<line x1="1280" y1="992" x2="1152" y2="992" stroke-width="10" stroke="black"/>
<line x1="1472" y1="992" x2="1328" y2="848" stroke-width="10" stroke="black"/>
<line x1="1056" y1="848" x2="1056" y2="864" stroke-width="10" stroke="black"/>
<line x1="1152" y1="1024" x2="1280" y2="1024" stroke-width="10" stroke="black"/>
<line x1="624" y1="944" x2="832" y2="1152" stroke-width="10" stroke="black"/>
<line x1="832" y1="1728" x2="832" y2="1408" stroke-width="10" stroke="black"/>
<line x1="1200" y1="1728" x2="832" y2="1728" stroke-width="10" stroke="black"/>
<line x1="1600" y1="1408" x2="1600" y2="1728" stroke-width="10" stroke="black"/>
<line x1="1600" y1="1728" x2="1232" y2="1728" stroke-width="10" stroke="black"/>
<line x1="1200" y1="1408" x2="1200" y2="1728" stroke-width="10" stroke="black"/>
<line x1="1560" y1="1856" x2="1728" y2="1688" stroke-width="10" stroke="black"/>
<line x1="1728" y1="1664" x2="1536" y2="1856" stroke-width="10" stroke="black"/>
<line x1="960" y1="1888" x2="1408" y2="1888" stroke-width="10" stroke="black"/>
<line x1="1560" y1="1920" x2="1560" y2="1856" stroke-width="10" stroke="black"/>
<line x1="1408" y1="1856" x2="960" y2="1856" stroke-width="10" stroke="black"/>
<line x1="-160" y1="1696" x2="-160" y2="1792" stroke-width="10" stroke="black"/>
<line x1="736" y1="1600" x2="736" y2="1728" stroke-width="10" stroke="black"/>
<line x1="768" y1="1600" x2="768" y2="1408" stroke-width="10" stroke="black"/>
<line x1="768" y1="1408" x2="600" y2="1408" stroke-width="10" stroke="black"/>
<line x1="1312" y1="832" x2="1168" y2="832" stroke-width="10" stroke="black"/>
<line x1="1136" y1="816" x2="1296" y2="656" stroke-width="10" stroke="black"/>
<line x1="1152" y1="832" x2="1312" y2="672" stroke-width="10" stroke="black"/>
<line x1="1104" y1="784" x2="1264" y2="624" stroke-width="10" stroke="black"/>
<line x1="960" y1="608" x2="1088" y2="480" stroke-width="10" stroke="black"/>
<line x1="1088" y1="768" x2="1248" y2="608" stroke-width="10" stroke="black"/>
<line x1="1120" y1="800" x2="1280" y2="640" stroke-width="10" stroke="black"/>
<line x1="928" y1="832" x2="1056" y2="832" stroke-width="10" stroke="black"/>
<line x1="928" y1="816" x2="1056" y2="816" stroke-width="10" stroke="black"/>
<line x1="880" y1="800" x2="880" y2="848" stroke-width="10" stroke="black"/>
<line x1="1088" y1="768" x2="1024" y2="768" stroke-width="10" stroke="black"/>
<line x1="960" y1="784" x2="1024" y2="784" stroke-width="10" stroke="black"/>
<line x1="880" y1="656" x2="880" y2="800" stroke-width="10" stroke="black"/>
<line x1="928" y1="800" x2="1056" y2="800" stroke-width="10" stroke="black"/>
<line x1="1120" y1="800" x2="1104" y2="784" stroke-width="10" stroke="black"/>
<line x1="1728" y1="832" x2="1592" y2="832" stroke-width="10" stroke="black"/>
<line x1="1248" y1="480" x2="1248" y2="608" stroke-width="10" stroke="black"/>
<line x1="1344" y1="704" x2="1424" y2="704" stroke-width="10" stroke="black"/>
<line x1="1592" y1="848" x2="1592" y2="832" stroke-width="10" stroke="black"/>
<line x1="1688" y1="272" x2="1608" y2="272" stroke-width="10" stroke="black"/>
<line x1="1704" y1="256" x2="1704" y2="128" stroke-width="10" stroke="black"/>
<line x1="1688" y1="256" x2="1688" y2="272" stroke-width="10" stroke="black"/>
<line x1="1120" y1="480" x2="1248" y2="480" stroke-width="10" stroke="black"/>
<line x1="1280" y1="640" x2="1296" y2="656" stroke-width="10" stroke="black"/>
<line x1="1152" y1="848" x2="1280" y2="848" stroke-width="10" stroke="black"/>
<line x1="2720" y1="2272" x2="2656" y2="2144" stroke-width="10" stroke="black"/>
<line x1="2592" y1="2144" x2="2528" y2="2272" stroke-width="10" stroke="black"/>
<line x1="2816" y1="2272" x2="2720" y2="2272" stroke-width="10" stroke="black"/>
<line x1="2432" y1="2016" x2="2448" y2="1840" stroke-width="10" stroke="black"/>
<line x1="2432" y1="2016" x2="2432" y2="2080" stroke-width="10" stroke="black"/>
<line x1="2624" y1="2016" x2="2432" y2="2016" stroke-width="10" stroke="black"/>
<line x1="2624" y1="1760" x2="2448" y2="1744" stroke-width="10" stroke="black"/>
<line x1="2448" y1="1840" x2="2624" y2="1824" stroke-width="10" stroke="black"/>
<line x1="2752" y1="2144" x2="2752" y2="2080" stroke-width="10" stroke="black"/>
<line x1="2688" y1="1760" x2="2688" y2="1504" stroke-width="10" stroke="black"/>
<line x1="2624" y1="1568" x2="2624" y2="1760" stroke-width="10" stroke="black"/>
<line x1="2560" y1="2144" x2="2592" y2="2144" stroke-width="10" stroke="black"/>
<line x1="2800" y1="1200" x2="2816" y2="1376" stroke-width="10" stroke="black"/>
<line x1="2816" y1="1376" x2="2624" y2="1376" stroke-width="10" stroke="black"/>
<line x1="2624" y1="1184" x2="2800" y2="1200" stroke-width="10" stroke="black"/>
<line x1="2368" y1="1568" x2="2432" y2="1568" stroke-width="10" stroke="black"/>
<line x1="2448" y1="1744" x2="2432" y2="1568" stroke-width="10" stroke="black"/>
<line x1="2560" y1="1184" x2="2560" y2="1312" stroke-width="10" stroke="black"/>
<line x1="2432" y1="1568" x2="2624" y2="1568" stroke-width="10" stroke="black"/>
<line x1="2432" y1="1504" x2="2432" y2="1568" stroke-width="10" stroke="black"/>
<line x1="2624" y1="1376" x2="2624" y2="1184" stroke-width="10" stroke="black"/>
<line x1="2816" y1="928" x2="2800" y2="1104" stroke-width="10" stroke="black"/>
<line x1="2432" y1="1137" x2="2432" y2="992" stroke-width="10" stroke="black"/>
<line x1="2560" y1="928" x2="2560" y2="1120" stroke-width="10" stroke="black"/>
<line x1="2624" y1="1120" x2="2624" y2="928" stroke-width="10" stroke="black"/>
<line x1="2432" y1="672" x2="2432" y2="608" stroke-width="10" stroke="black"/>
<line x1="2560" y1="672" x2="2816" y2="672" stroke-width="10" stroke="black"/>
<line x1="2752" y1="800" x2="2432" y2="800" stroke-width="10" stroke="black"/>
<line x1="2368" y1="928" x2="2560" y2="928" stroke-width="10" stroke="black"/>
<line x1="2624" y1="1120" x2="2800" y2="1104" stroke-width="10" stroke="black"/>
<line x1="2752" y1="1440" x2="2816" y2="1376" stroke-width="10" stroke="black"/>
<line x1="2880" y1="1376" x2="2816" y2="1376" stroke-width="10" stroke="black"/>
<line x1="2880" y1="1504" x2="2816" y2="1504" stroke-width="10" stroke="black"/>
<line x1="2880" y1="1376" x2="2896" y2="1200" stroke-width="10" stroke="black"/>
<line x1="3072" y1="1376" x2="2880" y2="1376" stroke-width="10" stroke="black"/>
<line x1="2880" y1="1376" x2="2880" y2="1504" stroke-width="10" stroke="black"/>
<line x1="2816" y1="928" x2="2880" y2="928" stroke-width="10" stroke="black"/>
<line x1="2896" y1="1104" x2="2880" y2="928" stroke-width="10" stroke="black"/>
<line x1="3072" y1="1120" x2="2896" y2="1104" stroke-width="10" stroke="black"/>
<line x1="2880" y1="672" x2="2880" y2="928" stroke-width="10" stroke="black"/>
<line x1="2896" y1="1200" x2="3072" y2="1184" stroke-width="10" stroke="black"/>
<line x1="3072" y1="1632" x2="3136" y2="1632" stroke-width="10" stroke="black"/>
<line x1="3136" y1="1184" x2="3072" y2="1184" stroke-width="10" stroke="black"/>
<line x1="3264" y1="1312" x2="3136" y2="1184" stroke-width="10" stroke="black"/>
<line x1="3136" y1="1632" x2="3264" y2="1504" stroke-width="10" stroke="black"/>
<line x1="3200" y1="1760" x2="3136" y2="1760" stroke-width="10" stroke="black"/>
<line x1="3408" y1="1504" x2="3408" y2="1472" stroke-width="10" stroke="black"/>
<line x1="3392" y1="1312" x2="3392" y2="1504" stroke-width="10" stroke="black"/>
<line x1="3072" y1="1184" x2="3072" y2="1376" stroke-width="10" stroke="black"/>
<line x1="2816" y1="1504" x2="2816" y2="1888" stroke-width="10" stroke="black"/>
<line x1="2176" y1="1184" x2="2192" y2="1008" stroke-width="10" stroke="black"/>
<line x1="2192" y1="1008" x2="2368" y2="992" stroke-width="10" stroke="black"/>
<line x1="2368" y1="1568" x2="2352" y2="1744" stroke-width="10" stroke="black"/>
<line x1="2368" y1="1184" x2="2176" y2="1184" stroke-width="10" stroke="black"/>
<line x1="2352" y1="1840" x2="2368" y2="2016" stroke-width="10" stroke="black"/>
<line x1="2176" y1="1824" x2="2352" y2="1840" stroke-width="10" stroke="black"/>
<line x1="2368" y1="2016" x2="2176" y2="2016" stroke-width="10" stroke="black"/>
<line x1="2352" y1="1744" x2="2176" y2="1760" stroke-width="10" stroke="black"/>
<line x1="2176" y1="1824" x2="2112" y2="1824" stroke-width="10" stroke="black"/>
<line x1="1920" y1="1632" x2="1920" y2="1888" stroke-width="10" stroke="black"/>
<line x1="1984" y1="1888" x2="1984" y2="1760" stroke-width="10" stroke="black"/>
<line x1="2176" y1="1440" x2="1920" y2="1632" stroke-width="10" stroke="black"/>
<line x1="1792" y1="2016" x2="1792" y2="1568" stroke-width="10" stroke="black"/>
<line x1="2112" y1="1184" x2="1920" y2="1184" stroke-width="10" stroke="black"/>
<line x1="2176" y1="1184" x2="2112" y2="1184" stroke-width="10" stroke="black"/>
<line x1="2096" y1="1008" x2="2112" y2="1184" stroke-width="10" stroke="black"/>
<line x1="1744" y1="1408" x2="1744" y2="1088" stroke-width="10" stroke="black"/>
<line x1="1904" y1="992" x2="1728" y2="992" stroke-width="10" stroke="black"/>
<line x1="1920" y1="1184" x2="1920" y2="1016" stroke-width="10" stroke="black"/>
<line x1="1792" y1="1568" x2="2112" y2="1312" stroke-width="10" stroke="black"/>
<line x1="1904" y1="928" x2="1904" y2="992" stroke-width="10" stroke="black"/>
<line x1="1920" y1="992" x2="1920" y2="928" stroke-width="10" stroke="black"/>
<line x1="1920" y1="992" x2="2096" y2="1008" stroke-width="10" stroke="black"/>
<line x1="2176" y1="2016" x2="2176" y2="1824" stroke-width="10" stroke="black"/>
<line x1="1792" y1="160" x2="1728" y2="96" stroke-width="10" stroke="black"/>
<line x1="1792" y1="224" x2="1904" y2="240" stroke-width="10" stroke="black"/>
<line x1="1728" y1="288" x2="1792" y2="224" stroke-width="10" stroke="black"/>
<line x1="2000" y1="240" x2="2176" y2="224" stroke-width="10" stroke="black"/>
<line x1="1904" y1="144" x2="2000" y2="144" stroke-width="10" stroke="black"/>
<line x1="1984" y1="416" x2="2000" y2="240" stroke-width="10" stroke="black"/>
<line x1="1904" y1="144" x2="2000" y2="144" stroke-width="10" stroke="black"/>
<line x1="1904" y1="240" x2="1920" y2="416" stroke-width="10" stroke="black"/>
<line x1="2000" y1="144" x2="1904" y2="144" stroke-width="10" stroke="black"/>
<line x1="2176" y1="160" x2="2000" y2="144" stroke-width="10" stroke="black"/>
<line x1="1904" y1="144" x2="1792" y2="160" stroke-width="10" stroke="black"/>
<line x1="2240" y1="416" x2="2240" y2="224" stroke-width="10" stroke="black"/>
<line x1="2176" y1="-32" x2="2176" y2="160" stroke-width="10" stroke="black"/>
<line x1="2096" y1="912" x2="1920" y2="928" stroke-width="10" stroke="black"/>
<line x1="2112" y1="736" x2="2096" y2="912" stroke-width="10" stroke="black"/>
<line x1="1984" y1="416" x2="1984" y2="480" stroke-width="10" stroke="black"/>
<line x1="2112" y1="704" x2="1920" y2="608" stroke-width="10" stroke="black"/>
<line x1="1920" y1="736" x2="2112" y2="736" stroke-width="10" stroke="black"/>
<line x1="1728" y1="848" x2="1824" y2="848" stroke-width="10" stroke="black"/>
<line x1="1824" y1="832" x2="1728" y2="832" stroke-width="10" stroke="black"/>
<line x1="1920" y1="608" x2="1920" y2="416" stroke-width="10" stroke="black"/>
<line x1="2192" y1="912" x2="2176" y2="736" stroke-width="10" stroke="black"/>
<line x1="2368" y1="928" x2="2192" y2="912" stroke-width="10" stroke="black"/>
<line x1="2176" y1="736" x2="2368" y2="736" stroke-width="10" stroke="black"/>
<line x1="2176" y1="576" x2="2176" y2="736" stroke-width="10" stroke="black"/>
<line x1="2176" y1="416" x2="1984" y2="416" stroke-width="10" stroke="black"/>
<line x1="1904" y1="928" x2="1920" y2="928" stroke-width="10" stroke="black"/>
<line x1="2368" y1="992" x2="2368" y2="928" stroke-width="10" stroke="black"/>
<line x1="1728" y1="1024" x2="1728" y2="1088" stroke-width="10" stroke="black"/>
<line x1="448" y1="1088" x2="416" y2="1120" stroke-width="10" stroke="black"/>
<line x1="512" y1="-192" x2="384" y2="-192" stroke-width="10" stroke="black"/>

</svg>

