<svg width="900" height="766" preserveAspectRatio="none" viewBox="-1922 -746 4292 3692"
 xmlns="http://www.w3.org/2000/svg" xmlns:xlink="http://www.w3.org/1999/xlink">
   <defs>
    <marker id="arrow" markerWidth="10" markerHeight="10" refX="0" refY="2" orient="auto" markerUnits="strokeWidth">
      <path d="M0,0 L0,4 L5,3 z" fill="#f00" />
    </marker>
  </defs>

<line x1="-992" y1="448" x2="-928" y2="448" stroke-width="10" stroke="black"/>
<line x1="-1024" y1="384" x2="-992" y2="448" stroke-width="10" stroke="black"/>
<line x1="-928" y1="696" x2="-928" y2="680" stroke-width="10" stroke="black"/>
<line x1="-960" y1="640" x2="-1152" y2="640" stroke-width="10" stroke="black"/>
<line x1="-800" y1="712" x2="-928" y2="712" stroke-width="10" stroke="black"/>
<line x1="-800" y1="696" x2="-928" y2="696" stroke-width="10" stroke="black"/>
<line x1="-712" y1="384" x2="-712" y2="512" stroke-width="10" stroke="black"/>
<line x1="-712" y1="512" x2="-800" y2="680" stroke-width="10" stroke="black"/>
<line x1="-696" y1="512" x2="-712" y2="512" stroke-width="10" stroke="black"/>
<line x1="-696" y1="512" x2="-696" y2="384" stroke-width="10" stroke="black"/>
<line x1="-800" y1="680" x2="-800" y2="696" stroke-width="10" stroke="black"/>
<line x1="-560" y1="1048" x2="-603" y2="1088" stroke-width="10" stroke="black"/>
<line x1="-664" y1="936" x2="-560" y2="1048" stroke-width="10" stroke="black"/>
<line x1="-528" y1="1048" x2="-648" y2="920" stroke-width="10" stroke="black"/>
<line x1="-800" y1="728" x2="-760" y2="848" stroke-width="10" stroke="black"/>
<line x1="-760" y1="1016" x2="-664" y2="936" stroke-width="10" stroke="black"/>
<line x1="-648" y1="920" x2="-736" y2="768" stroke-width="10" stroke="black"/>
<line x1="-664" y1="936" x2="-648" y2="920" stroke-width="10" stroke="black"/>
<line x1="-697" y1="1088" x2="-759" y2="1016" stroke-width="10" stroke="black"/>
<line x1="-776" y1="1032" x2="-727" y2="1088" stroke-width="10" stroke="black"/>
<line x1="-776" y1="1000" x2="-832" y2="960" stroke-width="10" stroke="black"/>
<line x1="-864" y1="992" x2="-864" y2="1088" stroke-width="10" stroke="black"/>
<line x1="-776" y1="1032" x2="-760" y2="1016" stroke-width="10" stroke="black"/>
<line x1="-760" y1="1016" x2="-776" y2="1000" stroke-width="10" stroke="black"/>
<line x1="-544" y1="832" x2="-528" y2="912" stroke-width="10" stroke="black"/>
<line x1="-570" y1="1088" x2="-528" y2="1048" stroke-width="10" stroke="black"/>
<line x1="-800" y1="728" x2="-928" y2="728" stroke-width="10" stroke="black"/>
<line x1="-320" y1="640" x2="-192" y2="640" stroke-width="10" stroke="black"/>
<line x1="-320" y1="608" x2="-192" y2="608" stroke-width="10" stroke="black"/>
<line x1="-320" y1="544" x2="-192" y2="544" stroke-width="10" stroke="black"/>
<line x1="-320" y1="576" x2="-192" y2="576" stroke-width="10" stroke="black"/>
<line x1="-512" y1="592" x2="-512" y2="576" stroke-width="10" stroke="black"/>
<line x1="-320" y1="544" x2="-320" y2="384" stroke-width="10" stroke="black"/>
<line x1="-320" y1="704" x2="-192" y2="704" stroke-width="10" stroke="black"/>
<line x1="-320" y1="736" x2="-192" y2="736" stroke-width="10" stroke="black"/>
<line x1="-384" y1="672" x2="-384" y2="768" stroke-width="10" stroke="black"/>
<line x1="-384" y1="768" x2="-320" y2="768" stroke-width="10" stroke="black"/>
<line x1="-528" y1="912" x2="-448" y2="912" stroke-width="10" stroke="black"/>
<line x1="-448" y1="896" x2="-464" y2="896" stroke-width="10" stroke="black"/>
<line x1="-192" y1="672" x2="-320" y2="672" stroke-width="10" stroke="black"/>
<line x1="-528" y1="384" x2="-528" y2="576" stroke-width="10" stroke="black"/>
<line x1="1472" y1="800" x2="1526" y2="1088" stroke-width="10" stroke="black"/>
<line x1="896" y1="800" x2="896" y2="832" stroke-width="10" stroke="black"/>
<line x1="912" y1="1088" x2="912" y2="832" stroke-width="10" stroke="black"/>
<line x1="1408" y1="640" x2="1408" y2="768" stroke-width="10" stroke="black"/>
<line x1="1152" y1="784" x2="1136" y2="784" stroke-width="10" stroke="black"/>
<line x1="1280" y1="768" x2="1280" y2="640" stroke-width="10" stroke="black"/>
<line x1="768" y1="800" x2="896" y2="800" stroke-width="10" stroke="black"/>
<line x1="1384" y1="616" x2="1280" y2="640" stroke-width="10" stroke="black"/>
<line x1="1408" y1="616" x2="1384" y2="616" stroke-width="10" stroke="black"/>
<line x1="1408" y1="384" x2="1408" y2="616" stroke-width="10" stroke="black"/>
<line x1="1128" y1="624" x2="1152" y2="640" stroke-width="10" stroke="black"/>
<line x1="1152" y1="384" x2="1128" y2="400" stroke-width="10" stroke="black"/>
<line x1="1152" y1="640" x2="1152" y2="384" stroke-width="10" stroke="black"/>
<line x1="896" y1="512" x2="896" y2="384" stroke-width="10" stroke="black"/>
<line x1="960" y1="536" x2="912" y2="512" stroke-width="10" stroke="black"/>
<line x1="896" y1="512" x2="864" y2="512" stroke-width="10" stroke="black"/>
<line x1="960" y1="608" x2="960" y2="536" stroke-width="10" stroke="black"/>
<line x1="832" y1="512" x2="832" y2="384" stroke-width="10" stroke="black"/>
<line x1="800" y1="512" x2="800" y2="384" stroke-width="10" stroke="black"/>
<line x1="864" y1="512" x2="832" y2="512" stroke-width="10" stroke="black"/>
<line x1="864" y1="512" x2="864" y2="384" stroke-width="10" stroke="black"/>
<line x1="1128" y1="624" x2="1128" y2="400" stroke-width="10" stroke="black"/>
<line x1="1384" y1="640" x2="1408" y2="640" stroke-width="10" stroke="black"/>
<line x1="320" y1="704" x2="320" y2="576" stroke-width="10" stroke="black"/>
<line x1="192" y1="576" x2="192" y2="704" stroke-width="10" stroke="black"/>
<line x1="320" y1="768" x2="192" y2="768" stroke-width="10" stroke="black"/>
<line x1="96" y1="864" x2="192" y2="864" stroke-width="10" stroke="black"/>
<line x1="96" y1="800" x2="96" y2="864" stroke-width="10" stroke="black"/>
<line x1="128" y1="800" x2="96" y2="800" stroke-width="10" stroke="black"/>
<line x1="192" y1="768" x2="192" y2="704" stroke-width="10" stroke="black"/>
<line x1="0" y1="704" x2="0" y2="960" stroke-width="10" stroke="black"/>
<line x1="384" y1="800" x2="384" y2="832" stroke-width="10" stroke="black"/>
<line x1="416" y1="800" x2="384" y2="800" stroke-width="10" stroke="black"/>
<line x1="320" y1="864" x2="416" y2="864" stroke-width="10" stroke="black"/>
<line x1="416" y1="864" x2="416" y2="848" stroke-width="10" stroke="black"/>
<line x1="384" y1="832" x2="320" y2="832" stroke-width="10" stroke="black"/>
<line x1="320" y1="704" x2="320" y2="768" stroke-width="10" stroke="black"/>
<line x1="0" y1="960" x2="512" y2="960" stroke-width="10" stroke="black"/>
<line x1="512" y1="704" x2="320" y2="704" stroke-width="10" stroke="black"/>
<line x1="-128" y1="896" x2="128" y2="1088" stroke-width="10" stroke="black"/>
<line x1="-176" y1="768" x2="-176" y2="896" stroke-width="10" stroke="black"/>
<line x1="-192" y1="960" x2="-160" y2="1088" stroke-width="10" stroke="black"/>
<line x1="-152" y1="896" x2="-152" y2="768" stroke-width="10" stroke="black"/>
<line x1="-128" y1="896" x2="-128" y2="768" stroke-width="10" stroke="black"/>
<line x1="640" y1="640" x2="640" y2="768" stroke-width="10" stroke="black"/>
<line x1="680" y1="768" x2="680" y2="640" stroke-width="10" stroke="black"/>
<line x1="664" y1="640" x2="664" y2="768" stroke-width="10" stroke="black"/>
<line x1="640" y1="800" x2="768" y2="800" stroke-width="10" stroke="black"/>
<line x1="640" y1="768" x2="640" y2="800" stroke-width="10" stroke="black"/>
<line x1="664" y1="768" x2="640" y2="768" stroke-width="10" stroke="black"/>
<line x1="608" y1="576" x2="640" y2="640" stroke-width="10" stroke="black"/>
<line x1="640" y1="640" x2="664" y2="640" stroke-width="10" stroke="black"/>
<line x1="608" y1="1024" x2="672" y2="1024" stroke-width="10" stroke="black"/>
<line x1="608" y1="960" x2="608" y2="1024" stroke-width="10" stroke="black"/>
<line x1="672" y1="960" x2="608" y2="960" stroke-width="10" stroke="black"/>
<line x1="768" y1="896" x2="512" y2="896" stroke-width="10" stroke="black"/>
<line x1="512" y1="960" x2="512" y2="1088" stroke-width="10" stroke="black"/>
<line x1="736" y1="512" x2="736" y2="384" stroke-width="10" stroke="black"/>
<line x1="704" y1="512" x2="704" y2="384" stroke-width="10" stroke="black"/>
<line x1="-64" y1="576" x2="192" y2="576" stroke-width="10" stroke="black"/>
<line x1="768" y1="1088" x2="768" y2="896" stroke-width="10" stroke="black"/>
<line x1="-192" y1="544" x2="-192" y2="576" stroke-width="10" stroke="black"/>
<line x1="704" y1="192" x2="576" y2="192" stroke-width="10" stroke="black"/>
<line x1="960" y1="352" x2="704" y2="192" stroke-width="10" stroke="black"/>
<line x1="528" y1="224" x2="512" y2="240" stroke-width="10" stroke="black"/>
<line x1="1152" y1="256" x2="1152" y2="360" stroke-width="10" stroke="black"/>
<line x1="1152" y1="256" x2="960" y2="352" stroke-width="10" stroke="black"/>
<line x1="448" y1="368" x2="320" y2="368" stroke-width="10" stroke="black"/>
<line x1="512" y1="240" x2="384" y2="96" stroke-width="10" stroke="black"/>
<line x1="1408" y1="256" x2="1280" y2="256" stroke-width="10" stroke="black"/>
<line x1="1280" y1="320" x2="1408" y2="320" stroke-width="10" stroke="black"/>
<line x1="848" y1="-64" x2="896" y2="64" stroke-width="10" stroke="black"/>
<line x1="1216" y1="288" x2="1216" y2="128" stroke-width="10" stroke="black"/>
<line x1="384" y1="-160" x2="351" y2="-144" stroke-width="10" stroke="black"/>
<line x1="640" y1="-80" x2="640" y2="-128" stroke-width="10" stroke="black"/>
<line x1="592" y1="-160" x2="384" y2="-160" stroke-width="10" stroke="black"/>
<line x1="384" y1="-288" x2="728" y2="-288" stroke-width="10" stroke="black"/>
<line x1="640" y1="-80" x2="848" y2="-80" stroke-width="10" stroke="black"/>
<line x1="512" y1="-64" x2="640" y2="-64" stroke-width="10" stroke="black"/>
<line x1="1216" y1="288" x2="1280" y2="320" stroke-width="10" stroke="black"/>
<line x1="64" y1="368" x2="-64" y2="368" stroke-width="10" stroke="black"/>
<line x1="112" y1="304" x2="101" y2="240" stroke-width="10" stroke="black"/>
<line x1="64" y1="368" x2="64" y2="384" stroke-width="10" stroke="black"/>
<line x1="-128" y1="368" x2="-128" y2="240" stroke-width="10" stroke="black"/>
<line x1="-160" y1="368" x2="-384" y2="352" stroke-width="10" stroke="black"/>
<line x1="-160" y1="368" x2="-160" y2="240" stroke-width="10" stroke="black"/>
<line x1="-64" y1="384" x2="-64" y2="368" stroke-width="10" stroke="black"/>
<line x1="232" y1="272" x2="192" y2="256" stroke-width="10" stroke="black"/>
<line x1="192" y1="256" x2="152" y2="272" stroke-width="10" stroke="black"/>
<line x1="232" y1="288" x2="152" y2="288" stroke-width="10" stroke="black"/>
<line x1="136" y1="272" x2="112" y2="304" stroke-width="10" stroke="black"/>
<line x1="232" y1="272" x2="152" y2="272" stroke-width="10" stroke="black"/>
<line x1="272" y1="304" x2="248" y2="272" stroke-width="10" stroke="black"/>
<line x1="256" y1="320" x2="128" y2="320" stroke-width="10" stroke="black"/>
<line x1="256" y1="368" x2="128" y2="368" stroke-width="10" stroke="black"/>
<line x1="256" y1="352" x2="128" y2="352" stroke-width="10" stroke="black"/>
<line x1="256" y1="336" x2="128" y2="336" stroke-width="10" stroke="black"/>
<line x1="248" y1="304" x2="136" y2="304" stroke-width="10" stroke="black"/>
<line x1="112" y1="328" x2="112" y2="368" stroke-width="10" stroke="black"/>
<line x1="16" y1="-576" x2="160" y2="-576" stroke-width="10" stroke="black"/>
<line x1="-224" y1="-288" x2="0" y2="-288" stroke-width="10" stroke="black"/>
<line x1="8" y1="-352" x2="128" y2="-352" stroke-width="10" stroke="black"/>
<line x1="376" y1="-368" x2="256" y2="-368" stroke-width="10" stroke="black"/>
<line x1="100" y1="240" x2="64" y2="32" stroke-width="10" stroke="black"/>
<line x1="320" y1="-128" x2="320" y2="16" stroke-width="10" stroke="black"/>
<line x1="64" y1="16" x2="320" y2="16" stroke-width="10" stroke="black"/>
<line x1="64" y1="32" x2="320" y2="32" stroke-width="10" stroke="black"/>
<line x1="-336" y1="96" x2="-352" y2="96" stroke-width="10" stroke="black"/>
<line x1="-256" y1="16" x2="-240" y2="16" stroke-width="10" stroke="black"/>
<line x1="-352" y1="96" x2="-384" y2="216" stroke-width="10" stroke="black"/>
<line x1="-256" y1="-128" x2="-320" y2="0" stroke-width="10" stroke="black"/>
<line x1="-240" y1="16" x2="-240" y2="-64" stroke-width="10" stroke="black"/>
<line x1="-216" y1="-160" x2="-256" y2="-128" stroke-width="10" stroke="black"/>
<line x1="-384" y1="216" x2="-160" y2="240" stroke-width="10" stroke="black"/>
<line x1="64" y1="-128" x2="0" y2="-160" stroke-width="10" stroke="black"/>
<line x1="-128" y1="240" x2="48" y2="48" stroke-width="10" stroke="black"/>
<line x1="64" y1="16" x2="64" y2="-128" stroke-width="10" stroke="black"/>
<line x1="0" y1="-160" x2="-216" y2="-160" stroke-width="10" stroke="black"/>
<line x1="-160" y1="240" x2="-128" y2="240" stroke-width="10" stroke="black"/>
<line x1="272" y1="304" x2="320" y2="32" stroke-width="10" stroke="black"/>
<line x1="-992" y1="256" x2="-1024" y2="320" stroke-width="10" stroke="black"/>
<line x1="-896" y1="320" x2="-928" y2="256" stroke-width="10" stroke="black"/>
<line x1="-896" y1="384" x2="-896" y2="320" stroke-width="10" stroke="black"/>
<line x1="-928" y1="256" x2="-992" y2="256" stroke-width="10" stroke="black"/>
<line x1="-1064" y1="16" x2="-800" y2="16" stroke-width="10" stroke="black"/>
<line x1="-1216" y1="160" x2="-1152" y2="64" stroke-width="10" stroke="black"/>
<line x1="-1064" y1="16" x2="-1064" y2="0" stroke-width="10" stroke="black"/>
<line x1="-1232" y1="256" x2="-1232" y2="368" stroke-width="10" stroke="black"/>
<line x1="-1280" y1="128" x2="-1280" y2="0" stroke-width="10" stroke="black"/>
<line x1="-1232" y1="256" x2="-1216" y2="256" stroke-width="10" stroke="black"/>
<line x1="-1216" y1="384" x2="-1216" y2="368" stroke-width="10" stroke="black"/>
<line x1="-640" y1="64" x2="-640" y2="128" stroke-width="10" stroke="black"/>
<line x1="-528" y1="64" x2="-640" y2="64" stroke-width="10" stroke="black"/>
<line x1="-640" y1="128" x2="-528" y2="128" stroke-width="10" stroke="black"/>
<line x1="-712" y1="192" x2="-712" y2="384" stroke-width="10" stroke="black"/>
<line x1="-696" y1="384" x2="-696" y2="192" stroke-width="10" stroke="black"/>
<line x1="-528" y1="192" x2="-512" y2="192" stroke-width="10" stroke="black"/>
<line x1="-512" y1="384" x2="-512" y2="192" stroke-width="10" stroke="black"/>
<line x1="-528" y1="192" x2="-528" y2="384" stroke-width="10" stroke="black"/>
<line x1="-800" y1="0" x2="-800" y2="16" stroke-width="10" stroke="black"/>
<line x1="-1792" y1="-64" x2="-1664" y2="-192" stroke-width="10" stroke="black"/>
<line x1="-1392" y1="-320" x2="-1416" y2="-320" stroke-width="10" stroke="black"/>
<line x1="-1241" y1="-64" x2="-1375" y2="-320" stroke-width="10" stroke="black"/>
<line x1="-1376" y1="-320" x2="-1392" y2="-320" stroke-width="10" stroke="black"/>
<line x1="-1376" y1="-320" x2="-1376" y2="-448" stroke-width="10" stroke="black"/>
<line x1="-1392" y1="-448" x2="-1392" y2="-320" stroke-width="10" stroke="black"/>
<line x1="-1216" y1="-16" x2="-1241" y2="-64" stroke-width="10" stroke="black"/>
<line x1="-1472" y1="-64" x2="-1792" y2="-64" stroke-width="10" stroke="black"/>
<line x1="-1392" y1="-448" x2="-1376" y2="-448" stroke-width="10" stroke="black"/>
<line x1="-912" y1="-384" x2="-1040" y2="-384" stroke-width="10" stroke="black"/>
<line x1="-848" y1="-176" x2="-1008" y2="-176" stroke-width="10" stroke="black"/>
<line x1="-1008" y1="-176" x2="-1008" y2="-368" stroke-width="10" stroke="black"/>
<line x1="-832" y1="-160" x2="-832" y2="-240" stroke-width="10" stroke="black"/>
<line x1="-832" y1="-240" x2="-552" y2="-264" stroke-width="10" stroke="black"/>
<line x1="-552" y1="-280" x2="-848" y2="-256" stroke-width="10" stroke="black"/>
<line x1="-848" y1="-256" x2="-848" y2="-176" stroke-width="10" stroke="black"/>
<line x1="-912" y1="-368" x2="-600" y2="-408" stroke-width="10" stroke="black"/>
<line x1="-1008" y1="-368" x2="-912" y2="-368" stroke-width="10" stroke="black"/>
<line x1="-608" y1="-424" x2="-912" y2="-384" stroke-width="10" stroke="black"/>
<line x1="-552" y1="-280" x2="-552" y2="-264" stroke-width="10" stroke="black"/>
<line x1="-1040" y1="-160" x2="-832" y2="-160" stroke-width="10" stroke="black"/>
<line x1="-608" y1="-424" x2="-600" y2="-408" stroke-width="10" stroke="black"/>
<line x1="-552" y1="-408" x2="-528" y2="-408" stroke-width="10" stroke="black"/>
<line x1="-528" y1="-408" x2="-528" y2="-280" stroke-width="10" stroke="black"/>
<line x1="-600" y1="-408" x2="-552" y2="-280" stroke-width="10" stroke="black"/>
<line x1="-384" y1="-224" x2="-416" y2="-272" stroke-width="10" stroke="black"/>
<line x1="-416" y1="-272" x2="-496" y2="-272" stroke-width="10" stroke="black"/>
<line x1="-512" y1="-408" x2="-512" y2="-280" stroke-width="10" stroke="black"/>
<line x1="-1040" y1="-384" x2="-1040" y2="-160" stroke-width="10" stroke="black"/>
<line x1="-1064" y1="0" x2="-800" y2="0" stroke-width="10" stroke="black"/>
<line x1="-352" y1="96" x2="-320" y2="0" stroke-width="10" stroke="black"/>
<line x1="800" y1="384" x2="832" y2="384" stroke-width="10" stroke="black"/>
<line x1="544" y1="1856" x2="544" y2="1888" stroke-width="10" stroke="black"/>
<line x1="576" y1="1888" x2="576" y2="1824" stroke-width="10" stroke="black"/>
<line x1="808" y1="1696" x2="640" y2="1728" stroke-width="10" stroke="black"/>
<line x1="808" y1="1760" x2="640" y2="1760" stroke-width="10" stroke="black"/>
<line x1="808" y1="1792" x2="960" y2="1792" stroke-width="10" stroke="black"/>
<line x1="704" y1="2128" x2="576" y2="2128" stroke-width="10" stroke="black"/>
<line x1="704" y1="2112" x2="576" y2="2112" stroke-width="10" stroke="black"/>
<line x1="728" y1="2064" x2="712" y2="2080" stroke-width="10" stroke="black"/>
<line x1="752" y1="2048" x2="728" y2="2064" stroke-width="10" stroke="black"/>
<line x1="704" y1="2128" x2="792" y2="2320" stroke-width="10" stroke="black"/>
<line x1="704" y1="2112" x2="704" y2="2128" stroke-width="10" stroke="black"/>
<line x1="480" y1="2400" x2="384" y2="2424" stroke-width="10" stroke="black"/>
<line x1="640" y1="2464" x2="640" y2="2336" stroke-width="10" stroke="black"/>
<line x1="384" y1="2272" x2="528" y2="2272" stroke-width="10" stroke="black"/>
<line x1="512" y1="2528" x2="640" y2="2464" stroke-width="10" stroke="black"/>
<line x1="640" y1="2336" x2="576" y2="2128" stroke-width="10" stroke="black"/>
<line x1="960" y1="2048" x2="752" y2="2048" stroke-width="10" stroke="black"/>
<line x1="400" y1="1664" x2="400" y2="1536" stroke-width="10" stroke="black"/>
<line x1="496" y1="1536" x2="496" y2="1664" stroke-width="10" stroke="black"/>
<line x1="704" y1="1568" x2="600" y2="1680" stroke-width="10" stroke="black"/>
<line x1="616" y1="1536" x2="576" y2="1664" stroke-width="10" stroke="black"/>
<line x1="544" y1="1536" x2="544" y2="1664" stroke-width="10" stroke="black"/>
<line x1="416" y1="1472" x2="416" y2="1344" stroke-width="10" stroke="black"/>
<line x1="400" y1="1504" x2="448" y2="1504" stroke-width="10" stroke="black"/>
<line x1="928" y1="1344" x2="928" y2="1472" stroke-width="10" stroke="black"/>
<line x1="640" y1="1216" x2="640" y2="1280" stroke-width="10" stroke="black"/>
<line x1="640" y1="1280" x2="384" y2="1152" stroke-width="10" stroke="black"/>
<line x1="912" y1="1184" x2="912" y2="1088" stroke-width="10" stroke="black"/>
<line x1="896" y1="1088" x2="896" y2="1184" stroke-width="10" stroke="black"/>
<line x1="416" y1="1344" x2="928" y2="1344" stroke-width="10" stroke="black"/>
<line x1="520" y1="1536" x2="544" y2="1536" stroke-width="10" stroke="black"/>
<line x1="616" y1="1696" x2="768" y2="1632" stroke-width="10" stroke="black"/>
<line x1="1600" y1="2590" x2="1216" y2="2623" stroke-width="10" stroke="black"/>
<line x1="1408" y1="2368" x2="1216" y2="2368" stroke-width="10" stroke="black"/>
<line x1="1216" y1="2384" x2="1408" y2="2384" stroke-width="10" stroke="black"/>
<line x1="1600" y1="2224" x2="1408" y2="2224" stroke-width="10" stroke="black"/>
<line x1="1360" y1="2224" x2="1334" y2="2128" stroke-width="10" stroke="black"/>
<line x1="1408" y1="2240" x2="1408" y2="2224" stroke-width="10" stroke="black"/>
<line x1="1320" y1="2240" x2="1408" y2="2240" stroke-width="10" stroke="black"/>
<line x1="960" y1="1792" x2="1056" y2="1792" stroke-width="10" stroke="black"/>
<line x1="1280" y1="2112" x2="1152" y2="2112" stroke-width="10" stroke="black"/>
<line x1="1112" y1="2080" x2="1096" y2="2064" stroke-width="10" stroke="black"/>
<line x1="1120" y1="2112" x2="1112" y2="2080" stroke-width="10" stroke="black"/>
<line x1="1152" y1="2128" x2="1152" y2="2112" stroke-width="10" stroke="black"/>
<line x1="1072" y1="2048" x2="960" y2="2048" stroke-width="10" stroke="black"/>
<line x1="1320" y1="2080" x2="1320" y2="1920" stroke-width="10" stroke="black"/>
<line x1="1304" y1="2080" x2="1304" y2="2112" stroke-width="10" stroke="black"/>
<line x1="1280" y1="2112" x2="1280" y2="2128" stroke-width="10" stroke="black"/>
<line x1="1152" y1="2128" x2="1280" y2="2128" stroke-width="10" stroke="black"/>
<line x1="1216" y1="1088" x2="1216" y2="1152" stroke-width="10" stroke="black"/>
<line x1="1280" y1="1152" x2="1280" y2="1088" stroke-width="10" stroke="black"/>
<line x1="1216" y1="1152" x2="1280" y2="1152" stroke-width="10" stroke="black"/>
<line x1="1526" y1="1088" x2="1599" y2="1472" stroke-width="10" stroke="black"/>
<line x1="1552" y1="1536" x2="960" y2="1536" stroke-width="10" stroke="black"/>
<line x1="1552" y1="1472" x2="960" y2="1472" stroke-width="10" stroke="black"/>
<line x1="1056" y1="1776" x2="1280" y2="1776" stroke-width="10" stroke="black"/>
<line x1="1824" y1="2288" x2="1824" y2="2320" stroke-width="10" stroke="black"/>
<line x1="1832" y1="2320" x2="1832" y2="2288" stroke-width="10" stroke="black"/>
<line x1="1824" y1="2320" x2="1832" y2="2320" stroke-width="10" stroke="black"/>
<line x1="1832" y1="2288" x2="1824" y2="2288" stroke-width="10" stroke="black"/>
<line x1="1920" y1="2368" x2="1728" y2="2368" stroke-width="10" stroke="black"/>
<line x1="1920" y1="2224" x2="1728" y2="2224" stroke-width="10" stroke="black"/>
<line x1="1728" y1="2240" x2="1920" y2="2240" stroke-width="10" stroke="black"/>
<line x1="1952" y1="2272" x2="1952" y2="2336" stroke-width="10" stroke="black"/>
<line x1="1984" y1="2224" x2="1920" y2="2224" stroke-width="10" stroke="black"/>
<line x1="1920" y1="2368" x2="1920" y2="2384" stroke-width="10" stroke="black"/>
<line x1="1728" y1="2384" x2="1920" y2="2384" stroke-width="10" stroke="black"/>
<line x1="1696" y1="2336" x2="1696" y2="2272" stroke-width="10" stroke="black"/>
<line x1="1664" y1="2272" x2="1664" y2="2336" stroke-width="10" stroke="black"/>
<line x1="1680" y1="2336" x2="1680" y2="2272" stroke-width="10" stroke="black"/>
<line x1="1664" y1="2336" x2="1664" y2="2368" stroke-width="10" stroke="black"/>
<line x1="1600" y1="2384" x2="1728" y2="2384" stroke-width="10" stroke="black"/>
<line x1="1680" y1="2336" x2="1664" y2="2336" stroke-width="10" stroke="black"/>
<line x1="1664" y1="2240" x2="1664" y2="2272" stroke-width="10" stroke="black"/>
<line x1="1728" y1="2224" x2="1600" y2="2224" stroke-width="10" stroke="black"/>
<line x1="1664" y1="2272" x2="1680" y2="2272" stroke-width="10" stroke="black"/>
<line x1="1728" y1="2240" x2="1728" y2="2224" stroke-width="10" stroke="black"/>
<line x1="1600" y1="1536" x2="2176" y2="2048" stroke-width="10" stroke="black"/>
<line x1="2176" y1="2464" x2="2176" y2="2048" stroke-width="10" stroke="black"/>
<line x1="2176" y1="2464" x2="1952" y2="2560" stroke-width="10" stroke="black"/>
<line x1="1600" y1="2590" x2="1952" y2="2560" stroke-width="10" stroke="black"/>
<line x1="1600" y1="2224" x2="1600" y2="2240" stroke-width="10" stroke="black"/>
<line x1="960" y1="1344" x2="960" y2="1472" stroke-width="10" stroke="black"/>
<line x1="-64" y1="2208" x2="-88" y2="1928" stroke-width="10" stroke="black"/>
<line x1="-320" y1="2104" x2="-320" y2="2040" stroke-width="10" stroke="black"/>
<line x1="-448" y1="2104" x2="-448" y2="2040" stroke-width="10" stroke="black"/>
<line x1="-320" y1="2040" x2="-352" y2="2008" stroke-width="10" stroke="black"/>
<line x1="-416" y1="2136" x2="-352" y2="2136" stroke-width="10" stroke="black"/>
<line x1="-448" y1="2104" x2="-416" y2="2136" stroke-width="10" stroke="black"/>
<line x1="-416" y1="2008" x2="-448" y2="2040" stroke-width="10" stroke="black"/>
<line x1="-352" y1="2008" x2="-416" y2="2008" stroke-width="10" stroke="black"/>
<line x1="-352" y1="2136" x2="-320" y2="2104" stroke-width="10" stroke="black"/>
<line x1="-168" y1="2216" x2="-616" y2="2216" stroke-width="10" stroke="black"/>
<line x1="-64" y1="2208" x2="-88" y2="2208" stroke-width="10" stroke="black"/>
<line x1="-192" y1="1840" x2="-224" y2="1896" stroke-width="10" stroke="black"/>
<line x1="-496" y1="1920" x2="-168" y2="1920" stroke-width="10" stroke="black"/>
<line x1="-168" y1="1896" x2="-224" y2="1896" stroke-width="10" stroke="black"/>
<line x1="-192" y1="1728" x2="-192" y2="1840" stroke-width="10" stroke="black"/>
<line x1="-128" y1="1728" x2="-192" y2="1728" stroke-width="10" stroke="black"/>
<line x1="-128" y1="1728" x2="-144" y2="1792" stroke-width="10" stroke="black"/>
<line x1="-192" y1="1840" x2="-160" y2="1840" stroke-width="10" stroke="black"/>
<line x1="-576" y1="1888" x2="-544" y2="1920" stroke-width="10" stroke="black"/>
<line x1="-616" y1="1819" x2="-576" y2="1888" stroke-width="10" stroke="black"/>
<line x1="-496" y1="1896" x2="-599" y2="1712" stroke-width="10" stroke="black"/>
<line x1="-496" y1="1920" x2="-496" y2="1896" stroke-width="10" stroke="black"/>
<line x1="-88" y1="1928" x2="-64" y2="1928" stroke-width="10" stroke="black"/>
<line x1="-1024" y1="2240" x2="-1024" y2="2112" stroke-width="10" stroke="black"/>
<line x1="-960" y1="2112" x2="-960" y2="2240" stroke-width="10" stroke="black"/>
<line x1="-696" y1="2208" x2="-696" y2="2080" stroke-width="10" stroke="black"/>
<line x1="-704" y1="2208" x2="-704" y2="2080" stroke-width="10" stroke="black"/>
<line x1="-720" y1="2080" x2="-720" y2="2208" stroke-width="10" stroke="black"/>
<line x1="-640" y1="2064" x2="-640" y2="2032" stroke-width="10" stroke="black"/>
<line x1="-640" y1="2032" x2="-776" y2="1840" stroke-width="10" stroke="black"/>
<line x1="-776" y1="1840" x2="-784" y2="1824" stroke-width="10" stroke="black"/>
<line x1="-776" y1="1840" x2="-664" y2="1736" stroke-width="10" stroke="black"/>
<line x1="-720" y1="2080" x2="-704" y2="2080" stroke-width="10" stroke="black"/>
<line x1="-616" y1="2240" x2="-616" y2="2216" stroke-width="10" stroke="black"/>
<line x1="384" y1="1856" x2="320" y2="1856" stroke-width="10" stroke="black"/>
<line x1="128" y1="1824" x2="128" y2="1712" stroke-width="10" stroke="black"/>
<line x1="112" y1="1712" x2="112" y2="1824" stroke-width="10" stroke="black"/>
<line x1="128" y1="1848" x2="128" y2="1824" stroke-width="10" stroke="black"/>
<line x1="128" y1="1824" x2="112" y2="1824" stroke-width="10" stroke="black"/>
<line x1="-16" y1="1728" x2="-16" y2="1792" stroke-width="10" stroke="black"/>
<line x1="320" y1="2009" x2="320" y2="1856" stroke-width="10" stroke="black"/>
<line x1="40" y1="2176" x2="-40" y2="1928" stroke-width="10" stroke="black"/>
<line x1="72" y1="2224" x2="86" y2="2240" stroke-width="10" stroke="black"/>
<line x1="72" y1="2224" x2="168" y2="2176" stroke-width="10" stroke="black"/>
<line x1="0" y1="2240" x2="72" y2="2224" stroke-width="10" stroke="black"/>
<line x1="136" y1="2128" x2="40" y2="2176" stroke-width="10" stroke="black"/>
<line x1="200" y1="2080" x2="40" y2="1904" stroke-width="10" stroke="black"/>
<line x1="248" y1="2032" x2="64" y2="1888" stroke-width="10" stroke="black"/>
<line x1="320" y1="2240" x2="320" y2="2010" stroke-width="10" stroke="black"/>
<line x1="248" y1="2032" x2="200" y2="2080" stroke-width="10" stroke="black"/>
<line x1="136" y1="2128" x2="8" y2="1920" stroke-width="10" stroke="black"/>
<line x1="136" y1="2128" x2="168" y2="2176" stroke-width="10" stroke="black"/>
<line x1="248" y1="1968" x2="80" y2="1872" stroke-width="10" stroke="black"/>
<line x1="-64" y1="1728" x2="-64" y2="1792" stroke-width="10" stroke="black"/>
<line x1="-1152" y1="2624" x2="-1152" y2="2816" stroke-width="10" stroke="black"/>
<line x1="-1056" y1="2400" x2="-1184" y2="2400" stroke-width="10" stroke="black"/>
<line x1="-1056" y1="2528" x2="-1056" y2="2400" stroke-width="10" stroke="black"/>
<line x1="-1184" y1="2528" x2="-1056" y2="2528" stroke-width="10" stroke="black"/>
<line x1="-1024" y1="2304" x2="-896" y2="2304" stroke-width="10" stroke="black"/>
<line x1="-1344" y1="2624" x2="-1344" y2="2688" stroke-width="10" stroke="black"/>
<line x1="-1280" y1="2624" x2="-1344" y2="2624" stroke-width="10" stroke="black"/>
<line x1="-1280" y1="2688" x2="-1280" y2="2624" stroke-width="10" stroke="black"/>
<line x1="-1344" y1="2688" x2="-1280" y2="2688" stroke-width="10" stroke="black"/>
<line x1="-1264" y1="2704" x2="-1264" y2="2608" stroke-width="10" stroke="black"/>
<line x1="-1360" y1="2704" x2="-1264" y2="2704" stroke-width="10" stroke="black"/>
<line x1="-1360" y1="2608" x2="-1360" y2="2704" stroke-width="10" stroke="black"/>
<line x1="-1264" y1="2608" x2="-1360" y2="2608" stroke-width="10" stroke="black"/>
<line x1="-1376" y1="2720" x2="-1248" y2="2720" stroke-width="10" stroke="black"/>
<line x1="-1376" y1="2592" x2="-1376" y2="2720" stroke-width="10" stroke="black"/>
<line x1="-1248" y1="2592" x2="-1376" y2="2592" stroke-width="10" stroke="black"/>
<line x1="-1472" y1="2496" x2="-1280" y2="2496" stroke-width="10" stroke="black"/>
<line x1="-1248" y1="2720" x2="-1248" y2="2592" stroke-width="10" stroke="black"/>
<line x1="-896" y1="2432" x2="-896" y2="2600" stroke-width="10" stroke="black"/>
<line x1="192" y1="2336" x2="192" y2="2432" stroke-width="10" stroke="black"/>
<line x1="86" y1="2240" x2="128" y2="2288" stroke-width="10" stroke="black"/>
<line x1="320" y1="2272" x2="384" y2="2272" stroke-width="10" stroke="black"/>
<line x1="232" y1="2240" x2="128" y2="2288" stroke-width="10" stroke="black"/>
<line x1="0" y1="2336" x2="192" y2="2336" stroke-width="10" stroke="black"/>
<line x1="192" y1="2528" x2="192" y2="2688" stroke-width="10" stroke="black"/>
<line x1="128" y1="2448" x2="128" y2="2512" stroke-width="10" stroke="black"/>
<line x1="352" y1="2432" x2="216" y2="2432" stroke-width="10" stroke="black"/>
<line x1="128" y1="2512" x2="192" y2="2528" stroke-width="10" stroke="black"/>
<line x1="192" y1="2432" x2="128" y2="2448" stroke-width="10" stroke="black"/>
<line x1="-64" y1="2408" x2="-192" y2="2536" stroke-width="10" stroke="black"/>
<line x1="-184" y1="2544" x2="-56" y2="2416" stroke-width="10" stroke="black"/>
<line x1="-128" y1="2288" x2="-128" y2="2304" stroke-width="10" stroke="black"/>
<line x1="-56" y1="2416" x2="-32" y2="2400" stroke-width="10" stroke="black"/>
<line x1="-64" y1="2328" x2="-64" y2="2408" stroke-width="10" stroke="black"/>
<line x1="-64" y1="2408" x2="-56" y2="2416" stroke-width="10" stroke="black"/>
<line x1="-192" y1="2536" x2="-320" y2="2664" stroke-width="10" stroke="black"/>
<line x1="-184" y1="2544" x2="-192" y2="2536" stroke-width="10" stroke="black"/>
<line x1="-352" y1="2240" x2="-352" y2="2288" stroke-width="10" stroke="black"/>
<line x1="-64" y1="2240" x2="-64" y2="2288" stroke-width="10" stroke="black"/>
<line x1="-128" y1="2240" x2="-128" y2="2288" stroke-width="10" stroke="black"/>
<line x1="-352" y1="2288" x2="-128" y2="2288" stroke-width="10" stroke="black"/>
<line x1="0" y1="2288" x2="0" y2="2240" stroke-width="10" stroke="black"/>
<line x1="-880" y1="2432" x2="-880" y2="2600" stroke-width="10" stroke="black"/>
<line x1="-960" y1="2240" x2="-1000" y2="2240" stroke-width="10" stroke="black"/>
<line x1="-840" y1="1712" x2="-800" y2="1696" stroke-width="10" stroke="black"/>
<line x1="-800" y1="1696" x2="-800" y2="1672" stroke-width="10" stroke="black"/>
<line x1="-800" y1="1672" x2="-872" y2="1536" stroke-width="10" stroke="black"/>
<line x1="-832" y1="1280" x2="-832" y2="1152" stroke-width="10" stroke="black"/>
<line x1="-864" y1="1280" x2="-768" y2="1344" stroke-width="10" stroke="black"/>
<line x1="-1088" y1="1408" x2="-1024" y2="1248" stroke-width="10" stroke="black"/>
<line x1="-960" y1="1344" x2="-984" y2="1376" stroke-width="10" stroke="black"/>
<line x1="-912" y1="1344" x2="-960" y2="1344" stroke-width="10" stroke="black"/>
<line x1="-872" y1="1376" x2="-912" y2="1344" stroke-width="10" stroke="black"/>
<line x1="-984" y1="1376" x2="-984" y2="1536" stroke-width="10" stroke="black"/>
<line x1="-872" y1="1536" x2="-872" y2="1376" stroke-width="10" stroke="black"/>
<line x1="-672" y1="1584" x2="-584" y2="1568" stroke-width="10" stroke="black"/>
<line x1="-768" y1="1504" x2="-676" y2="1712" stroke-width="10" stroke="black"/>
<line x1="-599" y1="1712" x2="-671" y2="1584" stroke-width="10" stroke="black"/>
<line x1="-544" y1="1472" x2="-528" y2="1488" stroke-width="10" stroke="black"/>
<line x1="-584" y1="1568" x2="-448" y2="1568" stroke-width="10" stroke="black"/>
<line x1="-608" y1="1472" x2="-608" y2="1536" stroke-width="10" stroke="black"/>
<line x1="-592" y1="1536" x2="-592" y2="1472" stroke-width="10" stroke="black"/>
<line x1="-608" y1="1544" x2="-584" y2="1568" stroke-width="10" stroke="black"/>
<line x1="-568" y1="1440" x2="-608" y2="1464" stroke-width="10" stroke="black"/>
<line x1="-640" y1="1392" x2="-768" y2="1318" stroke-width="10" stroke="black"/>
<line x1="-672" y1="1424" x2="-640" y2="1392" stroke-width="10" stroke="black"/>
<line x1="-568" y1="1440" x2="-640" y2="1392" stroke-width="10" stroke="black"/>
<line x1="-656" y1="1136" x2="-697" y2="1088" stroke-width="10" stroke="black"/>
<line x1="-603" y1="1088" x2="-655" y2="1136" stroke-width="10" stroke="black"/>
<line x1="-726" y1="1088" x2="-656" y2="1168" stroke-width="10" stroke="black"/>
<line x1="-656" y1="1168" x2="-571" y2="1088" stroke-width="10" stroke="black"/>
<line x1="-608" y1="1472" x2="-592" y2="1472" stroke-width="10" stroke="black"/>
<line x1="-768" y1="1344" x2="-768" y2="1504" stroke-width="10" stroke="black"/>
<line x1="-400" y1="1296" x2="-400" y2="1360" stroke-width="10" stroke="black"/>
<line x1="-384" y1="1280" x2="-400" y2="1296" stroke-width="10" stroke="black"/>
<line x1="-368" y1="1376" x2="-368" y2="1312" stroke-width="10" stroke="black"/>
<line x1="-288" y1="1280" x2="-384" y2="1280" stroke-width="10" stroke="black"/>
<line x1="-384" y1="1376" x2="-368" y2="1376" stroke-width="10" stroke="black"/>
<line x1="-416" y1="1488" x2="-416" y2="1552" stroke-width="10" stroke="black"/>
<line x1="-320" y1="1488" x2="-320" y2="1552" stroke-width="10" stroke="black"/>
<line x1="-352" y1="1488" x2="-352" y2="1552" stroke-width="10" stroke="black"/>
<line x1="-384" y1="1488" x2="-384" y2="1552" stroke-width="10" stroke="black"/>
<line x1="-448" y1="1568" x2="-288" y2="1568" stroke-width="10" stroke="black"/>
<line x1="-288" y1="1456" x2="-448" y2="1456" stroke-width="10" stroke="black"/>
<line x1="-448" y1="1488" x2="-448" y2="1552" stroke-width="10" stroke="black"/>
<line x1="368" y1="1536" x2="384" y2="1536" stroke-width="10" stroke="black"/>
<line x1="384" y1="1664" x2="368" y2="1664" stroke-width="10" stroke="black"/>
<line x1="288" y1="1696" x2="272" y2="1696" stroke-width="10" stroke="black"/>
<line x1="64" y1="1600" x2="64" y2="1696" stroke-width="10" stroke="black"/>
<line x1="128" y1="1696" x2="43" y2="1504" stroke-width="10" stroke="black"/>
<line x1="288" y1="1664" x2="288" y2="1536" stroke-width="10" stroke="black"/>
<line x1="0" y1="1408" x2="128" y2="1344" stroke-width="10" stroke="black"/>
<line x1="128" y1="1408" x2="256" y2="1504" stroke-width="10" stroke="black"/>
<line x1="384" y1="1280" x2="256" y2="1280" stroke-width="10" stroke="black"/>
<line x1="256" y1="1296" x2="384" y2="1296" stroke-width="10" stroke="black"/>
<line x1="128" y1="1088" x2="128" y2="1152" stroke-width="10" stroke="black"/>
<line x1="256" y1="1504" x2="288" y2="1504" stroke-width="10" stroke="black"/>
<line x1="-128" y1="1112" x2="-64" y2="1112" stroke-width="10" stroke="black"/>
<line x1="-16" y1="1136" x2="-16" y2="1280" stroke-width="10" stroke="black"/>
<line x1="-272" y1="1360" x2="-272" y2="1296" stroke-width="10" stroke="black"/>
<line x1="-288" y1="1376" x2="-272" y2="1360" stroke-width="10" stroke="black"/>
<line x1="0" y1="1280" x2="-16" y2="1280" stroke-width="10" stroke="black"/>
<line x1="-288" y1="1568" x2="-256" y2="1568" stroke-width="10" stroke="black"/>
<line x1="-224" y1="1480" x2="-224" y2="1544" stroke-width="10" stroke="black"/>
<line x1="-128" y1="1600" x2="-128" y2="1536" stroke-width="10" stroke="black"/>
<line x1="-192" y1="1472" x2="-192" y2="1536" stroke-width="10" stroke="black"/>
<line x1="-256" y1="1568" x2="-160" y2="1600" stroke-width="10" stroke="black"/>
<line x1="-160" y1="1600" x2="-132" y2="1712" stroke-width="10" stroke="black"/>
<line x1="-96" y1="1600" x2="-128" y2="1600" stroke-width="10" stroke="black"/>
<line x1="-256" y1="1488" x2="-256" y2="1552" stroke-width="10" stroke="black"/>
<line x1="-144" y1="1456" x2="-288" y2="1456" stroke-width="10" stroke="black"/>
<line x1="0" y1="1408" x2="0" y2="1280" stroke-width="10" stroke="black"/>
<line x1="-288" y1="1488" x2="-288" y2="1552" stroke-width="10" stroke="black"/>
<line x1="112" y1="1712" x2="128" y2="1712" stroke-width="10" stroke="black"/>
<line x1="384" y1="1152" x2="384" y2="1088" stroke-width="10" stroke="black"/>
<line x1="128" y1="1088" x2="0" y2="1088" stroke-width="10" stroke="black"/>

</svg>

