<svg width="900" height="970" preserveAspectRatio="none" viewBox="-3026 -6786 6876 7396"
 xmlns="http://www.w3.org/2000/svg" xmlns:xlink="http://www.w3.org/1999/xlink">
   <defs>
    <marker id="arrow" markerWidth="10" markerHeight="10" refX="0" refY="2" orient="auto" markerUnits="strokeWidth">
      <path d="M0,0 L0,4 L5,3 z" fill="#f00" />
    </marker>
  </defs>

<polygon points="384,128 384,128 448,128 448,128 512,192 512,192 512,256 512,256 448,320 448,320 384,320 384,320 320,256 320,256 320,192 320,192 " fill="rgb(228,11,11)" stroke="rgb(70,70,70)" stroke-width="10" stroke-linecap="round" />
<polygon points="384,320 320,320 320,256 384,320 " fill="rgb(232,15,232)" stroke="rgb(70,70,70)" stroke-width="10" stroke-linecap="round" />
<polygon points="512,256 512,320 448,320 512,256 " fill="rgb(251,251,34)" stroke="rgb(70,70,70)" stroke-width="10" stroke-linecap="round" />
<polygon points="512,192 640,320 512,320 512,192 " fill="rgb(22,239,22)" stroke="rgb(70,70,70)" stroke-width="10" stroke-linecap="round" />
<polygon points="320,192 320,128 384,128 320,192 " fill="rgb(228,11,11)" stroke="rgb(70,70,70)" stroke-width="10" stroke-linecap="round" />
<polygon points="448,128 768,128 768,320 768,320 640,320 448,128 " fill="rgb(3,3,220)" stroke="rgb(70,70,70)" stroke-width="10" stroke-linecap="round" />
<polygon points="64,320 64,128 64,128 320,128 320,320 320,320 " fill="rgb(26,243,243)" stroke="rgb(70,70,70)" stroke-width="10" stroke-linecap="round" />
<polygon points="64,320 64,320 768,320 768,320 768,320 640,448 480,480 352,480 191,447 " fill="rgb(232,15,232)" stroke="rgb(70,70,70)" stroke-width="10" stroke-linecap="round" />
<polygon points="768,128 768,128 896,128 896,128 896,320 896,320 768,320 " fill="rgb(251,251,34)" stroke="rgb(70,70,70)" stroke-width="10" stroke-linecap="round" />
<polygon points="896,128 896,128 960,128 960,320 896,320 " fill="rgb(26,243,243)" stroke="rgb(70,70,70)" stroke-width="10" stroke-linecap="round" />
<polygon points="352,-96 352,-96 352,-128 480,-128 480,-128 480,-96 " fill="rgb(232,15,232)" stroke="rgb(70,70,70)" stroke-width="10" stroke-linecap="round" />
<polygon points="352,-64 352,-64 352,-96 480,-96 480,-96 480,-64 " fill="rgb(228,11,11)" stroke="rgb(70,70,70)" stroke-width="10" stroke-linecap="round" />
<polygon points="64,128 64,128 64,128 192,0 352,-64 480,-64 480,-64 640,0 768,128 " fill="rgb(232,15,232)" stroke="rgb(70,70,70)" stroke-width="10" stroke-linecap="round" />
<polygon points="32,320 32,128 32,128 64,128 64,320 64,320 " fill="rgb(22,239,22)" stroke="rgb(70,70,70)" stroke-width="10" stroke-linecap="round" />
<polygon points="0,320 0,128 0,128 32,128 32,320 32,320 " fill="rgb(22,239,22)" stroke="rgb(70,70,70)" stroke-width="10" stroke-linecap="round" />
<polygon points="-32,128 0,128 0,320 0,320 -32,320 " fill="rgb(22,239,22)" stroke="rgb(70,70,70)" stroke-width="10" stroke-linecap="round" />
<polygon points="-64,320 -64,320 -224,320 -224,128 -64,128 -64,320 -64,320 " fill="rgb(232,15,232)" stroke="rgb(70,70,70)" stroke-width="10" stroke-linecap="round" />
<polygon points="-64,128 -64,128 -64,128 -64,128 -32,128 -32,320 -32,320 -64,320 " fill="rgb(228,11,11)" stroke="rgb(70,70,70)" stroke-width="10" stroke-linecap="round" />
<polygon points="352,-320 352,-320 352,-352 480,-352 480,-352 480,-320 " fill="rgb(26,243,243)" stroke="rgb(70,70,70)" stroke-width="10" stroke-linecap="round" />
<polygon points="352,-288 352,-288 352,-320 480,-320 480,-320 480,-288 " fill="rgb(3,3,220)" stroke="rgb(70,70,70)" stroke-width="10" stroke-linecap="round" />
<polygon points="352,-256 352,-288 480,-288 480,-288 480,-256 352,-256 " fill="rgb(22,239,22)" stroke="rgb(70,70,70)" stroke-width="10" stroke-linecap="round" />
<polygon points="352,-224 352,-256 480,-256 480,-256 480,-224 352,-224 " fill="rgb(26,243,243)" stroke="rgb(70,70,70)" stroke-width="10" stroke-linecap="round" />
<polygon points="480,-224 480,-192 352,-192 352,-192 352,-224 480,-224 " fill="rgb(232,15,232)" stroke="rgb(70,70,70)" stroke-width="10" stroke-linecap="round" />
<polygon points="352,-160 352,-192 480,-192 480,-192 480,-160 352,-160 " fill="rgb(228,11,11)" stroke="rgb(70,70,70)" stroke-width="10" stroke-linecap="round" />
<polygon points="352,-128 352,-160 480,-160 480,-160 480,-128 352,-128 " fill="rgb(251,251,34)" stroke="rgb(70,70,70)" stroke-width="10" stroke-linecap="round" />
<polygon points="512,-592 512,-592 512,-448 320,-448 320,-592 512,-592 " fill="rgb(251,251,34)" stroke="rgb(70,70,70)" stroke-width="10" stroke-linecap="round" />
<polygon points="352,-416 352,-448 480,-448 480,-448 480,-416 352,-416 " fill="rgb(3,3,220)" stroke="rgb(70,70,70)" stroke-width="10" stroke-linecap="round" />
<polygon points="352,-592 352,-608 480,-608 480,-608 480,-592 352,-592 " fill="rgb(232,15,232)" stroke="rgb(70,70,70)" stroke-width="10" stroke-linecap="round" />
<polygon points="480,-624 480,-608 352,-608 352,-608 352,-624 480,-624 " fill="rgb(22,239,22)" stroke="rgb(70,70,70)" stroke-width="10" stroke-linecap="round" />
<polygon points="480,-416 480,-384 480,-384 352,-384 352,-384 352,-416 480,-416 " fill="rgb(251,251,34)" stroke="rgb(70,70,70)" stroke-width="10" stroke-linecap="round" />
<polygon points="352,-384 480,-384 480,-384 480,-352 480,-352 352,-352 352,-352 " fill="rgb(232,15,232)" stroke="rgb(70,70,70)" stroke-width="10" stroke-linecap="round" />
<polygon points="488,-352 488,-352 488,-416 488,-416 544,-416 544,-352 " fill="rgb(26,243,243)" stroke="rgb(70,70,70)" stroke-width="10" stroke-linecap="round" />
<polygon points="480,-416 480,-416 488,-416 488,-416 488,-352 488,-352 480,-352 480,-352 480,-416 " fill="rgb(232,15,232)" stroke="rgb(70,70,70)" stroke-width="10" stroke-linecap="round" />
<polygon points="320,-2432 512,-2432 512,-2432 512,-2432 512,-2432 512,-1695 512,-1695 320,-1551 320,-2432 " fill="rgb(3,3,220)" stroke="rgb(70,70,70)" stroke-width="10" stroke-linecap="round" />
<polygon points="320,-2496 320,-2624 512,-2624 512,-2624 512,-2496 320,-2496 " fill="rgb(232,15,232)" stroke="rgb(70,70,70)" stroke-width="10" stroke-linecap="round" />
<polygon points="320,-2432 320,-2496 320,-2496 512,-2496 512,-2496 512,-2432 512,-2432 320,-2432 320,-2432 320,-2432 " fill="rgb(22,239,22)" stroke="rgb(70,70,70)" stroke-width="10" stroke-linecap="round" />
<polygon points="320,-1600 320,-1551 125,-1405 320,-1600 " fill="rgb(251,251,34)" stroke="rgb(70,70,70)" stroke-width="10" stroke-linecap="round" />
<polygon points="-2645,-2624 -143,-2624 -142,-2624 -718,-772 -759,-743 -2896,-1792 -2896,-1792 " fill="rgb(26,243,243)" stroke="rgb(70,70,70)" stroke-width="10" stroke-linecap="round" />
<polygon points="256,-2391 256,-1600 256,-1600 128,-1408 128,-1408 128,-1408 -713,-777 -350,-1953 " fill="rgb(232,15,232)" stroke="rgb(70,70,70)" stroke-width="10" stroke-linecap="round" />
<polygon points="256,-1600 256,-1600 256,-1536 128,-1408 128,-1408 " fill="rgb(22,239,22)" stroke="rgb(70,70,70)" stroke-width="10" stroke-linecap="round" />
<polygon points="256,-2391 256,-2391 320,-2438 320,-1600 320,-1600 320,-1600 256,-1536 256,-1536 " fill="rgb(22,239,22)" stroke="rgb(70,70,70)" stroke-width="10" stroke-linecap="round" />
<polygon points="320,-2496 320,-2496 320,-2496 320,-2496 -287,-2048 -214,-2273 -101,-2624 192,-2624 " fill="rgb(22,239,22)" stroke="rgb(70,70,70)" stroke-width="10" stroke-linecap="round" />
<polygon points="-214,-2273 -288,-2045 -330,-2016 -143,-2624 -143,-2624 -102,-2624 " fill="rgb(26,243,243)" stroke="rgb(70,70,70)" stroke-width="10" stroke-linecap="round" />
<polygon points="320,-2496 320,-2438 -349,-1953 -330,-2016 320,-2496 320,-2496 " fill="rgb(228,11,11)" stroke="rgb(70,70,70)" stroke-width="10" stroke-linecap="round" />
<polygon points="320,-2624 320,-2624 320,-2496 192,-2624 192,-2624 " fill="rgb(22,239,22)" stroke="rgb(70,70,70)" stroke-width="10" stroke-linecap="round" />
<polygon points="320,-640 320,-640 320,-640 320,-1088 320,-1088 320,-1088 320,-1088 320,-1088 512,-1088 512,-1088 512,-640 512,-640 512,-640 512,-640 512,-640 320,-640 " fill="rgb(22,239,22)" stroke="rgb(70,70,70)" stroke-width="10" stroke-linecap="round" />
<polygon points="352,-640 480,-640 480,-640 480,-624 352,-624 352,-624 " fill="rgb(22,239,22)" stroke="rgb(70,70,70)" stroke-width="10" stroke-linecap="round" />
<polygon points="320,-1088 320,-1088 320,-1551 320,-1551 512,-1695 512,-1088 512,-1088 512,-1088 " fill="rgb(228,11,11)" stroke="rgb(70,70,70)" stroke-width="10" stroke-linecap="round" />
<polygon points="256,-960 320,-960 320,-960 320,-768 256,-768 256,-768 " fill="rgb(3,3,220)" stroke="rgb(70,70,70)" stroke-width="10" stroke-linecap="round" />
<polygon points="256,-768 256,-768 320,-768 320,-768 320,-704 320,-704 256,-704 " fill="rgb(228,11,11)" stroke="rgb(70,70,70)" stroke-width="10" stroke-linecap="round" />
<polygon points="192,-960 256,-960 256,-960 256,-768 192,-768 192,-960 192,-960 192,-960 " fill="rgb(232,15,232)" stroke="rgb(70,70,70)" stroke-width="10" stroke-linecap="round" />
<polygon points="160,-960 160,-768 64,-640 -64,-640 -192,-768 -192,-960 " fill="rgb(3,3,220)" stroke="rgb(70,70,70)" stroke-width="10" stroke-linecap="round" />
<polygon points="192,-832 160,-832 160,-928 192,-928 " fill="rgb(22,239,22)" stroke="rgb(70,70,70)" stroke-width="10" stroke-linecap="round" />
<polygon points="-72,-1088 63,-1088 160,-960 160,-960 -192,-960 " fill="rgb(251,251,34)" stroke="rgb(70,70,70)" stroke-width="10" stroke-linecap="round" />
<polygon points="320,-960 320,-960 256,-960 256,-960 256,-1024 320,-1024 320,-1024 " fill="rgb(232,15,232)" stroke="rgb(70,70,70)" stroke-width="10" stroke-linecap="round" />
<polygon points="128,-1407 320,-1551 320,-1112 " fill="rgb(22,239,22)" stroke="rgb(70,70,70)" stroke-width="10" stroke-linecap="round" />
<polygon points="512,-1600 705,-1406 512,-1572 512,-1600 " fill="rgb(26,243,243)" stroke="rgb(70,70,70)" stroke-width="10" stroke-linecap="round" />
<polygon points="3719,-1727 1550,-774 1131,-2121 976,-2624 3418,-2624 3719,-1728 " fill="rgb(3,3,220)" stroke="rgb(70,70,70)" stroke-width="10" stroke-linecap="round" />
<polygon points="1480,-743 706,-1404 576,-1600 576,-1600 576,-2391 576,-2391 1183,-1952 1548,-773 " fill="rgb(228,11,11)" stroke="rgb(70,70,70)" stroke-width="10" stroke-linecap="round" />
<polygon points="576,-1600 576,-1600 701,-1410 576,-1536 " fill="rgb(232,15,232)" stroke="rgb(70,70,70)" stroke-width="10" stroke-linecap="round" />
<polygon points="512,-2438 512,-2438 576,-2391 576,-1536 576,-1536 512,-1600 512,-1600 512,-2438 " fill="rgb(26,243,243)" stroke="rgb(70,70,70)" stroke-width="10" stroke-linecap="round" />
<polygon points="512,-2496 640,-2624 640,-2624 928,-2624 928,-2624 1119,-2048 512,-2496 512,-2496 " fill="rgb(232,15,232)" stroke="rgb(70,70,70)" stroke-width="10" stroke-linecap="round" />
<polygon points="928,-2624 928,-2624 975,-2624 1086,-2264 1163,-2016 1120,-2046 " fill="rgb(232,15,232)" stroke="rgb(70,70,70)" stroke-width="10" stroke-linecap="round" />
<polygon points="512,-2496 512,-2496 512,-2496 1163,-2016 1182,-1952 512,-2438 512,-2496 " fill="rgb(251,251,34)" stroke="rgb(70,70,70)" stroke-width="10" stroke-linecap="round" />
<polygon points="640,-2624 640,-2624 512,-2496 512,-2496 512,-2624 " fill="rgb(26,243,243)" stroke="rgb(70,70,70)" stroke-width="10" stroke-linecap="round" />
<polygon points="512,-768 512,-960 576,-960 576,-960 576,-768 512,-768 " fill="rgb(232,15,232)" stroke="rgb(70,70,70)" stroke-width="10" stroke-linecap="round" />
<polygon points="512,-768 576,-768 576,-768 576,-704 512,-704 512,-768 " fill="rgb(3,3,220)" stroke="rgb(70,70,70)" stroke-width="10" stroke-linecap="round" />
<polygon points="576,-768 576,-960 640,-960 640,-960 640,-768 " fill="rgb(22,239,22)" stroke="rgb(70,70,70)" stroke-width="10" stroke-linecap="round" />
<polygon points="768,-640 672,-768 672,-960 672,-960 672,-960 1024,-960 1024,-768 896,-640 " fill="rgb(251,251,34)" stroke="rgb(70,70,70)" stroke-width="10" stroke-linecap="round" />
<polygon points="640,-832 640,-928 672,-928 672,-832 " fill="rgb(232,15,232)" stroke="rgb(70,70,70)" stroke-width="10" stroke-linecap="round" />
<polygon points="1024,-960 672,-960 672,-960 768,-1088 896,-1088 " fill="rgb(26,243,243)" stroke="rgb(70,70,70)" stroke-width="10" stroke-linecap="round" />
<polygon points="512,-960 512,-1024 512,-1024 576,-1024 576,-960 512,-960 " fill="rgb(22,239,22)" stroke="rgb(70,70,70)" stroke-width="10" stroke-linecap="round" />
<polygon points="512,-1112 512,-1572 703,-1407 " fill="rgb(228,11,11)" stroke="rgb(70,70,70)" stroke-width="10" stroke-linecap="round" />
<polygon points="472,-3392 472,-3144 115,-2787 115,-2787 -672,-3392 -672,-3392 472,-3392 " fill="rgb(3,3,220)" stroke="rgb(70,70,70)" stroke-width="10" stroke-linecap="round" />
<polygon points="115,-2787 -48,-2624 -101,-2624 -100,-2624 -16,-2887 " fill="rgb(232,15,232)" stroke="rgb(70,70,70)" stroke-width="10" stroke-linecap="round" />
<polygon points="-2645,-2624 -2414,-3392 -731,-3392 -730,-3392 -64,-2879 -143,-2624 -143,-2624 " fill="rgb(26,243,243)" stroke="rgb(70,70,70)" stroke-width="10" stroke-linecap="round" />
<polygon points="-731,-3392 -731,-3392 -672,-3392 -672,-3392 -53,-2915 -62,-2879 " fill="rgb(22,239,22)" stroke="rgb(70,70,70)" stroke-width="10" stroke-linecap="round" />
<polygon points="-101,-2624 -143,-2624 -142,-2624 -53,-2915 -16,-2887 -101,-2624 " fill="rgb(228,11,11)" stroke="rgb(70,70,70)" stroke-width="10" stroke-linecap="round" />
<polygon points="192,-2624 -48,-2624 16,-2688 192,-2688 192,-2624 " fill="rgb(232,15,232)" stroke="rgb(70,70,70)" stroke-width="10" stroke-linecap="round" />
<polygon points="192,-2688 472,-2688 472,-2688 472,-2624 192,-2624 192,-2624 192,-2688 " fill="rgb(26,243,243)" stroke="rgb(70,70,70)" stroke-width="10" stroke-linecap="round" />
<polygon points="192,-2688 16,-2688 80,-2752 248,-2752 192,-2688 " fill="rgb(26,243,243)" stroke="rgb(70,70,70)" stroke-width="10" stroke-linecap="round" />
<polygon points="472,-2752 415,-2711 360,-2752 360,-2752 472,-2752 472,-2752 " fill="rgb(3,3,220)" stroke="rgb(70,70,70)" stroke-width="10" stroke-linecap="round" />
<polygon points="472,-2752 472,-2688 449,-2688 449,-2688 415,-2711 472,-2752 472,-2752 " fill="rgb(232,15,232)" stroke="rgb(70,70,70)" stroke-width="10" stroke-linecap="round" />
<polygon points="449,-2688 192,-2688 192,-2688 248,-2752 248,-2752 360,-2752 360,-2752 360,-2752 " fill="rgb(251,251,34)" stroke="rgb(70,70,70)" stroke-width="10" stroke-linecap="round" />
<polygon points="360,-2800 360,-2800 472,-2800 472,-2752 472,-2752 360,-2752 " fill="rgb(251,251,34)" stroke="rgb(70,70,70)" stroke-width="10" stroke-linecap="round" />
<polygon points="248,-2752 80,-2752 128,-2800 248,-2800 248,-2752 " fill="rgb(3,3,220)" stroke="rgb(70,70,70)" stroke-width="10" stroke-linecap="round" />
<polygon points="360,-2752 360,-2752 248,-2752 248,-2752 248,-2800 248,-2800 360,-2800 360,-2800 360,-2800 360,-2800 " fill="rgb(251,251,34)" stroke="rgb(70,70,70)" stroke-width="10" stroke-linecap="round" />
<polygon points="336,-2832 336,-2832 272,-2832 272,-2832 272,-2912 272,-2912 336,-2912 336,-2912 " fill="rgb(26,243,243)" stroke="rgb(70,70,70)" stroke-width="10" stroke-linecap="round" />
<polygon points="272,-2944 272,-2944 336,-3008 336,-2944 " fill="rgb(22,239,22)" stroke="rgb(70,70,70)" stroke-width="10" stroke-linecap="round" />
<polygon points="336,-2800 272,-2800 272,-2800 272,-2824 272,-2824 336,-2824 336,-2824 336,-2800 " fill="rgb(26,243,243)" stroke="rgb(70,70,70)" stroke-width="10" stroke-linecap="round" />
<polygon points="336,-2832 336,-2824 336,-2824 272,-2824 272,-2824 272,-2832 272,-2832 336,-2832 " fill="rgb(26,243,243)" stroke="rgb(70,70,70)" stroke-width="10" stroke-linecap="round" />
<polygon points="248,-2800 128,-2800 208,-2880 " fill="rgb(232,15,232)" stroke="rgb(70,70,70)" stroke-width="10" stroke-linecap="round" />
<polygon points="472,-2905 404,-2800 360,-2800 418,-3090 418,-3090 472,-3144 472,-2905 " fill="rgb(228,11,11)" stroke="rgb(70,70,70)" stroke-width="10" stroke-linecap="round" />
<polygon points="472,-2800 472,-2800 404,-2800 455,-2880 " fill="rgb(26,243,243)" stroke="rgb(70,70,70)" stroke-width="10" stroke-linecap="round" />
<polygon points="376,-2880 336,-2944 336,-3008 418,-3090 " fill="rgb(228,11,11)" stroke="rgb(70,70,70)" stroke-width="10" stroke-linecap="round" />
<polygon points="1504,-3392 1504,-3392 1504,-3392 640,-2736 640,-3392 " fill="rgb(251,251,34)" stroke="rgb(70,70,70)" stroke-width="10" stroke-linecap="round" />
<polygon points="928,-2624 640,-2624 640,-2736 640,-2736 840,-2887 928,-2624 " fill="rgb(26,243,243)" stroke="rgb(70,70,70)" stroke-width="10" stroke-linecap="round" />
<polygon points="974,-2624 896,-2879 1549,-3392 1549,-3392 3162,-3392 3419,-2624 975,-2624 " fill="rgb(232,15,232)" stroke="rgb(70,70,70)" stroke-width="10" stroke-linecap="round" />
<polygon points="853,-2846 853,-2846 896,-2879 975,-2624 975,-2624 928,-2624 " fill="rgb(26,243,243)" stroke="rgb(70,70,70)" stroke-width="10" stroke-linecap="round" />
<polygon points="1549,-3392 852,-2846 840,-2887 1504,-3392 1504,-3392 1549,-3392 " fill="rgb(22,239,22)" stroke="rgb(70,70,70)" stroke-width="10" stroke-linecap="round" />
<polygon points="640,-2624 472,-2624 472,-2624 472,-2688 640,-2688 640,-2688 640,-2624 " fill="rgb(232,15,232)" stroke="rgb(70,70,70)" stroke-width="10" stroke-linecap="round" />
<polygon points="640,-2688 584,-2752 584,-2752 640,-2752 640,-2688 " fill="rgb(26,243,243)" stroke="rgb(70,70,70)" stroke-width="10" stroke-linecap="round" />
<polygon points="472,-2688 472,-2752 584,-2752 584,-2752 640,-2688 640,-2688 640,-2688 472,-2688 " fill="rgb(26,243,243)" stroke="rgb(70,70,70)" stroke-width="10" stroke-linecap="round" />
<polygon points="584,-2800 640,-2800 640,-2752 584,-2752 584,-2800 " fill="rgb(251,251,34)" stroke="rgb(70,70,70)" stroke-width="10" stroke-linecap="round" />
<polygon points="584,-2752 472,-2752 472,-2752 472,-2800 472,-2800 584,-2800 584,-2800 584,-2800 584,-2800 584,-2752 " fill="rgb(22,239,22)" stroke="rgb(70,70,70)" stroke-width="10" stroke-linecap="round" />
<polygon points="560,-2912 560,-2832 560,-2832 496,-2832 496,-2832 496,-2912 496,-2912 560,-2912 " fill="rgb(232,15,232)" stroke="rgb(70,70,70)" stroke-width="10" stroke-linecap="round" />
<polygon points="496,-2944 496,-3392 560,-3392 560,-2944 " fill="rgb(3,3,220)" stroke="rgb(70,70,70)" stroke-width="10" stroke-linecap="round" />
<polygon points="472,-2905 472,-3392 496,-3392 496,-2944 " fill="rgb(26,243,243)" stroke="rgb(70,70,70)" stroke-width="10" stroke-linecap="round" />
<polygon points="496,-2800 496,-2824 560,-2824 560,-2824 560,-2800 560,-2800 496,-2800 " fill="rgb(22,239,22)" stroke="rgb(70,70,70)" stroke-width="10" stroke-linecap="round" />
<polygon points="560,-2832 560,-2824 560,-2824 496,-2824 496,-2824 496,-2832 560,-2832 " fill="rgb(251,251,34)" stroke="rgb(70,70,70)" stroke-width="10" stroke-linecap="round" />
<polygon points="640,-2912 640,-2800 584,-2800 640,-2912 " fill="rgb(251,251,34)" stroke="rgb(70,70,70)" stroke-width="10" stroke-linecap="round" />
<polygon points="624,-2880 560,-2944 560,-2944 560,-3392 640,-3392 640,-2912 " fill="rgb(228,11,11)" stroke="rgb(70,70,70)" stroke-width="10" stroke-linecap="round" />
<polygon points="592,-2832 568,-2832 568,-2912 568,-2912 592,-2896 " fill="rgb(26,243,243)" stroke="rgb(70,70,70)" stroke-width="10" stroke-linecap="round" />
<polygon points="568,-2832 568,-2832 560,-2832 560,-2912 568,-2912 " fill="rgb(232,15,232)" stroke="rgb(70,70,70)" stroke-width="10" stroke-linecap="round" />
<polygon points="415,-4239 127,-3432 -2402,-3432 -2402,-3432 -2106,-4416 352,-4416 352,-4416 " fill="rgb(228,11,11)" stroke="rgb(70,70,70)" stroke-width="10" stroke-linecap="round" />
<polygon points="288,-4480 288,-4416 288,-4416 -2106,-4416 -2087,-4480 " fill="rgb(251,251,34)" stroke="rgb(70,70,70)" stroke-width="10" stroke-linecap="round" />
<polygon points="352,-4416 288,-4416 288,-4416 288,-4480 288,-4480 330,-4480 " fill="rgb(232,15,232)" stroke="rgb(70,70,70)" stroke-width="10" stroke-linecap="round" />
<polygon points="-784,-3432 -784,-3432 -732,-3392 -2414,-3392 -2402,-3432 " fill="rgb(251,251,34)" stroke="rgb(70,70,70)" stroke-width="10" stroke-linecap="round" />
<polygon points="-731,-3392 -784,-3432 -784,-3432 127,-3432 127,-3432 113,-3392 " fill="rgb(228,11,11)" stroke="rgb(70,70,70)" stroke-width="10" stroke-linecap="round" />
<polygon points="672,-3392 160,-3392 160,-3392 415,-4165 672,-3392 " fill="rgb(228,11,11)" stroke="rgb(70,70,70)" stroke-width="10" stroke-linecap="round" />
<polygon points="113,-3392 403,-4205 415,-4167 160,-3392 160,-3392 " fill="rgb(26,243,243)" stroke="rgb(70,70,70)" stroke-width="10" stroke-linecap="round" />
<polygon points="718,-3392 672,-3392 672,-3392 672,-3392 403,-4205 415,-4238 " fill="rgb(251,251,34)" stroke="rgb(70,70,70)" stroke-width="10" stroke-linecap="round" />
<polygon points="544,-3880 353,-4416 544,-4416 544,-4416 " fill="rgb(3,3,220)" stroke="rgb(70,70,70)" stroke-width="10" stroke-linecap="round" />
<polygon points="352,-4448 352,-4448 544,-4448 544,-4448 544,-4416 544,-4416 352,-4416 352,-4416 352,-4416 " fill="rgb(26,243,243)" stroke="rgb(70,70,70)" stroke-width="10" stroke-linecap="round" />
<polygon points="352,-4416 352,-4416 341,-4448 352,-4448 352,-4416 " fill="rgb(251,251,34)" stroke="rgb(70,70,70)" stroke-width="10" stroke-linecap="round" />
<polygon points="544,-4448 352,-4448 352,-4448 352,-4480 352,-4480 544,-4480 544,-4480 544,-4448 " fill="rgb(232,15,232)" stroke="rgb(70,70,70)" stroke-width="10" stroke-linecap="round" />
<polygon points="352,-4480 352,-4448 352,-4448 341,-4448 330,-4480 " fill="rgb(22,239,22)" stroke="rgb(70,70,70)" stroke-width="10" stroke-linecap="round" />
<polygon points="703,-3432 544,-3880 544,-4416 2819,-4416 2819,-4416 3147,-3432 " fill="rgb(232,15,232)" stroke="rgb(70,70,70)" stroke-width="10" stroke-linecap="round" />
<polygon points="1549,-3392 1600,-3432 1600,-3432 3148,-3432 3162,-3392 " fill="rgb(22,239,22)" stroke="rgb(70,70,70)" stroke-width="10" stroke-linecap="round" />
<polygon points="703,-3432 1600,-3432 1600,-3432 1600,-3432 1548,-3392 718,-3392 718,-3392 " fill="rgb(228,11,11)" stroke="rgb(70,70,70)" stroke-width="10" stroke-linecap="round" />
<polygon points="2819,-4416 608,-4416 608,-4480 608,-4480 2797,-4480 " fill="rgb(3,3,220)" stroke="rgb(70,70,70)" stroke-width="10" stroke-linecap="round" />
<polygon points="544,-4416 544,-4416 544,-4480 544,-4480 544,-4480 608,-4480 608,-4416 608,-4416 " fill="rgb(228,11,11)" stroke="rgb(70,70,70)" stroke-width="10" stroke-linecap="round" />
<polygon points="2797,-4480 608,-4480 608,-4832 608,-4832 2679,-4832 " fill="rgb(228,11,11)" stroke="rgb(70,70,70)" stroke-width="10" stroke-linecap="round" />
<polygon points="544,-4832 544,-4832 544,-4832 544,-4832 608,-4832 608,-4480 608,-4480 544,-4480 544,-4832 544,-4832 544,-4832 544,-4832 544,-4832 544,-4832 544,-4832 544,-4832 " fill="rgb(26,243,243)" stroke="rgb(70,70,70)" stroke-width="10" stroke-linecap="round" />
<polygon points="544,-4640 352,-4640 352,-4640 352,-4672 352,-4672 544,-4672 544,-4672 544,-4640 " fill="rgb(251,251,34)" stroke="rgb(70,70,70)" stroke-width="10" stroke-linecap="round" />
<polygon points="544,-4672 352,-4672 352,-4672 352,-4704 352,-4704 544,-4704 544,-4704 544,-4672 " fill="rgb(251,251,34)" stroke="rgb(70,70,70)" stroke-width="10" stroke-linecap="round" />
<polygon points="544,-4736 544,-4704 544,-4704 352,-4704 352,-4704 352,-4736 352,-4736 544,-4736 " fill="rgb(3,3,220)" stroke="rgb(70,70,70)" stroke-width="10" stroke-linecap="round" />
<polygon points="544,-4736 352,-4736 352,-4736 352,-4768 352,-4768 544,-4768 544,-4768 544,-4736 " fill="rgb(22,239,22)" stroke="rgb(70,70,70)" stroke-width="10" stroke-linecap="round" />
<polygon points="544,-4768 352,-4768 352,-4768 352,-4800 352,-4800 544,-4800 544,-4800 544,-4768 " fill="rgb(26,243,243)" stroke="rgb(70,70,70)" stroke-width="10" stroke-linecap="round" />
<polygon points="544,-4832 544,-4832 544,-4800 544,-4800 352,-4800 352,-4800 352,-4832 352,-4832 " fill="rgb(251,251,34)" stroke="rgb(70,70,70)" stroke-width="10" stroke-linecap="round" />
<polygon points="352,-4480 352,-4512 352,-4512 544,-4512 544,-4512 544,-4480 544,-4480 352,-4480 " fill="rgb(232,15,232)" stroke="rgb(70,70,70)" stroke-width="10" stroke-linecap="round" />
<polygon points="544,-4544 544,-4544 544,-4512 544,-4512 352,-4512 352,-4512 352,-4544 352,-4544 " fill="rgb(228,11,11)" stroke="rgb(70,70,70)" stroke-width="10" stroke-linecap="round" />
<polygon points="544,-4576 544,-4544 544,-4544 352,-4544 352,-4544 352,-4576 352,-4576 544,-4576 " fill="rgb(22,239,22)" stroke="rgb(70,70,70)" stroke-width="10" stroke-linecap="round" />
<polygon points="544,-4576 352,-4576 352,-4576 352,-4608 352,-4608 544,-4608 544,-4608 544,-4576 " fill="rgb(251,251,34)" stroke="rgb(70,70,70)" stroke-width="10" stroke-linecap="round" />
<polygon points="544,-4640 544,-4608 544,-4608 352,-4608 352,-4608 352,-4640 352,-4640 544,-4640 " fill="rgb(26,243,243)" stroke="rgb(70,70,70)" stroke-width="10" stroke-linecap="round" />
<polygon points="-1981,-4832 288,-4832 288,-4480 288,-4480 -2087,-4480 " fill="rgb(228,11,11)" stroke="rgb(70,70,70)" stroke-width="10" stroke-linecap="round" />
<polygon points="288,-4832 288,-4832 352,-4832 352,-4480 352,-4480 352,-4480 352,-4480 352,-4480 352,-4480 352,-4480 352,-4480 352,-4480 352,-4480 352,-4480 352,-4480 288,-4480 " fill="rgb(26,243,243)" stroke="rgb(70,70,70)" stroke-width="10" stroke-linecap="round" />
<polygon points="656,-6416 656,-6416 560,-6416 560,-6416 560,-6512 560,-6512 656,-6512 656,-6512 " fill="rgb(251,251,34)" stroke="rgb(70,70,70)" stroke-width="10" stroke-linecap="round" />
<polygon points="448,-6512 560,-6512 560,-6416 560,-6416 448,-6416 " fill="rgb(3,3,220)" stroke="rgb(70,70,70)" stroke-width="10" stroke-linecap="round" />
<polygon points="448,-6416 656,-6416 656,-6416 656,-6272 448,-6272 " fill="rgb(26,243,243)" stroke="rgb(70,70,70)" stroke-width="10" stroke-linecap="round" />
<polygon points="656,-6272 656,-6272 656,-6512 656,-6512 768,-6512 768,-6272 " fill="rgb(22,239,22)" stroke="rgb(70,70,70)" stroke-width="10" stroke-linecap="round" />
<polygon points="448,-6512 448,-6512 448,-6656 768,-6656 768,-6512 " fill="rgb(228,11,11)" stroke="rgb(70,70,70)" stroke-width="10" stroke-linecap="round" />
<polygon points="352,-4864 352,-4864 544,-4864 544,-4864 544,-4832 544,-4832 352,-4832 352,-4832 " fill="rgb(251,251,34)" stroke="rgb(70,70,70)" stroke-width="10" stroke-linecap="round" />
<polygon points="352,-4864 352,-4864 352,-5024 544,-5024 544,-5024 544,-4864 " fill="rgb(228,11,11)" stroke="rgb(70,70,70)" stroke-width="10" stroke-linecap="round" />
<polygon points="608,-4832 608,-4832 544,-4832 544,-5024 544,-5024 608,-5024 " fill="rgb(22,239,22)" stroke="rgb(70,70,70)" stroke-width="10" stroke-linecap="round" />
<polygon points="544,-5216 352,-5216 352,-5216 352,-5248 544,-5248 544,-5248 " fill="rgb(26,243,243)" stroke="rgb(70,70,70)" stroke-width="10" stroke-linecap="round" />
<polygon points="448,-5056 448,-5040 368,-5040 368,-5040 368,-5056 368,-5056 448,-5056 " fill="rgb(228,11,11)" stroke="rgb(70,70,70)" stroke-width="10" stroke-linecap="round" />
<polygon points="384,-5056 384,-5056 368,-5056 368,-5120 368,-5120 384,-5120 " fill="rgb(251,251,34)" stroke="rgb(70,70,70)" stroke-width="10" stroke-linecap="round" />
<polygon points="384,-5056 384,-5120 384,-5120 448,-5120 448,-5120 448,-5056 448,-5056 384,-5056 " fill="rgb(3,3,220)" stroke="rgb(70,70,70)" stroke-width="10" stroke-linecap="round" />
<polygon points="528,-5056 528,-5040 528,-5040 448,-5040 448,-5040 448,-5056 528,-5056 " fill="rgb(232,15,232)" stroke="rgb(70,70,70)" stroke-width="10" stroke-linecap="round" />
<polygon points="528,-5120 528,-5056 528,-5056 512,-5056 512,-5120 512,-5120 " fill="rgb(232,15,232)" stroke="rgb(70,70,70)" stroke-width="10" stroke-linecap="round" />
<polygon points="448,-5056 448,-5056 448,-5120 448,-5120 512,-5120 512,-5120 512,-5056 512,-5056 " fill="rgb(228,11,11)" stroke="rgb(70,70,70)" stroke-width="10" stroke-linecap="round" />
<polygon points="368,-5200 448,-5200 448,-5200 448,-5184 368,-5184 368,-5184 368,-5200 " fill="rgb(22,239,22)" stroke="rgb(70,70,70)" stroke-width="10" stroke-linecap="round" />
<polygon points="384,-5120 384,-5120 368,-5120 368,-5184 368,-5184 384,-5184 " fill="rgb(26,243,243)" stroke="rgb(70,70,70)" stroke-width="10" stroke-linecap="round" />
<polygon points="448,-5120 384,-5120 384,-5120 384,-5184 384,-5184 448,-5184 448,-5184 448,-5120 " fill="rgb(26,243,243)" stroke="rgb(70,70,70)" stroke-width="10" stroke-linecap="round" />
<polygon points="528,-5200 528,-5200 528,-5120 528,-5120 512,-5120 512,-5200 512,-5200 " fill="rgb(232,15,232)" stroke="rgb(70,70,70)" stroke-width="10" stroke-linecap="round" />
<polygon points="448,-5200 512,-5200 512,-5200 512,-5184 448,-5184 448,-5184 " fill="rgb(26,243,243)" stroke="rgb(70,70,70)" stroke-width="10" stroke-linecap="round" />
<polygon points="512,-5120 512,-5120 448,-5120 448,-5120 448,-5184 448,-5184 512,-5184 512,-5184 " fill="rgb(3,3,220)" stroke="rgb(70,70,70)" stroke-width="10" stroke-linecap="round" />
<polygon points="368,-5200 368,-5040 368,-5040 352,-5040 352,-5200 352,-5200 " fill="rgb(232,15,232)" stroke="rgb(70,70,70)" stroke-width="10" stroke-linecap="round" />
<polygon points="352,-5040 528,-5040 528,-5040 528,-5024 352,-5024 352,-5024 352,-5040 " fill="rgb(251,251,34)" stroke="rgb(70,70,70)" stroke-width="10" stroke-linecap="round" />
<polygon points="528,-5200 528,-5200 544,-5200 544,-5024 544,-5024 528,-5024 528,-5024 " fill="rgb(22,239,22)" stroke="rgb(70,70,70)" stroke-width="10" stroke-linecap="round" />
<polygon points="352,-5216 544,-5216 544,-5216 544,-5200 544,-5200 352,-5200 352,-5200 352,-5216 " fill="rgb(22,239,22)" stroke="rgb(70,70,70)" stroke-width="10" stroke-linecap="round" />
<polygon points="608,-5024 608,-5024 544,-5024 544,-5248 544,-5248 608,-5248 608,-5248 " fill="rgb(22,239,22)" stroke="rgb(70,70,70)" stroke-width="10" stroke-linecap="round" />
<polygon points="352,-5248 352,-5248 352,-4832 352,-4832 352,-4832 288,-4832 288,-5248 288,-5248 " fill="rgb(228,11,11)" stroke="rgb(70,70,70)" stroke-width="10" stroke-linecap="round" />
<polygon points="288,-5248 288,-6048 608,-6048 608,-5248 288,-5248 " fill="rgb(228,11,11)" stroke="rgb(70,70,70)" stroke-width="10" stroke-linecap="round" />
<polygon points="608,-4832 608,-6048 608,-6048 2272,-6048 2679,-4832 " fill="rgb(3,3,220)" stroke="rgb(70,70,70)" stroke-width="10" stroke-linecap="round" />
<polygon points="-1615,-6048 288,-6048 288,-4832 288,-4832 -1981,-4832 " fill="rgb(251,251,34)" stroke="rgb(70,70,70)" stroke-width="10" stroke-linecap="round" />

</svg>

