<svg width="900" height="970" preserveAspectRatio="none" viewBox="-3026 -6786 6876 7396"
 xmlns="http://www.w3.org/2000/svg" xmlns:xlink="http://www.w3.org/1999/xlink">
   <defs>
    <marker id="arrow" markerWidth="10" markerHeight="10" refX="0" refY="2" orient="auto" markerUnits="strokeWidth">
      <path d="M0,0 L0,4 L5,3 z" fill="#f00" />
    </marker>
  </defs>

<line x1="384" y1="320" x2="320" y2="256" stroke-width="10" stroke="black"/>
<line x1="512" y1="256" x2="448" y2="320" stroke-width="10" stroke="black"/>
<line x1="512" y1="192" x2="512" y2="256" stroke-width="10" stroke="black"/>
<line x1="320" y1="192" x2="384" y2="128" stroke-width="10" stroke="black"/>
<line x1="448" y1="128" x2="512" y2="192" stroke-width="10" stroke="black"/>
<line x1="320" y1="256" x2="320" y2="192" stroke-width="10" stroke="black"/>
<line x1="448" y1="320" x2="384" y2="320" stroke-width="10" stroke="black"/>
<line x1="896" y1="128" x2="896" y2="320" stroke-width="10" stroke="black"/>
<line x1="768" y1="128" x2="768" y2="320" stroke-width="10" stroke="black"/>
<line x1="480" y1="-96" x2="352" y2="-96" stroke-width="10" stroke="black"/>
<line x1="480" y1="-64" x2="352" y2="-64" stroke-width="10" stroke="black"/>
<line x1="768" y1="128" x2="896" y2="128" stroke-width="10" stroke="black"/>
<line x1="0" y1="320" x2="0" y2="128" stroke-width="10" stroke="black"/>
<line x1="32" y1="320" x2="32" y2="128" stroke-width="10" stroke="black"/>
<line x1="-64" y1="192" x2="-64" y2="256" stroke-width="10" stroke="black"/>
<line x1="-32" y1="320" x2="-32" y2="128" stroke-width="10" stroke="black"/>
<line x1="64" y1="320" x2="64" y2="128" stroke-width="10" stroke="black"/>
<line x1="480" y1="-320" x2="352" y2="-320" stroke-width="10" stroke="black"/>
<line x1="480" y1="-256" x2="352" y2="-256" stroke-width="10" stroke="black"/>
<line x1="480" y1="-288" x2="352" y2="-288" stroke-width="10" stroke="black"/>
<line x1="480" y1="-192" x2="352" y2="-192" stroke-width="10" stroke="black"/>
<line x1="480" y1="-160" x2="352" y2="-160" stroke-width="10" stroke="black"/>
<line x1="480" y1="-224" x2="352" y2="-224" stroke-width="10" stroke="black"/>
<line x1="352" y1="-448" x2="320" y2="-448" stroke-width="10" stroke="black"/>
<line x1="352" y1="-608" x2="480" y2="-608" stroke-width="10" stroke="black"/>
<line x1="480" y1="-592" x2="512" y2="-592" stroke-width="10" stroke="black"/>
<line x1="480" y1="-384" x2="352" y2="-384" stroke-width="10" stroke="black"/>
<line x1="488" y1="-352" x2="488" y2="-416" stroke-width="10" stroke="black"/>
<line x1="480" y1="-416" x2="480" y2="-384" stroke-width="10" stroke="black"/>
<line x1="480" y1="-416" x2="352" y2="-416" stroke-width="10" stroke="black"/>
<line x1="352" y1="-352" x2="480" y2="-352" stroke-width="10" stroke="black"/>
<line x1="352" y1="-128" x2="480" y2="-128" stroke-width="10" stroke="black"/>
<line x1="512" y1="-2496" x2="320" y2="-2496" stroke-width="10" stroke="black"/>
<line x1="448" y1="-2432" x2="512" y2="-2432" stroke-width="10" stroke="black"/>
<line x1="256" y1="-1600" x2="128" y2="-1408" stroke-width="10" stroke="black"/>
<line x1="256" y1="-2392" x2="256" y2="-1600" stroke-width="10" stroke="black"/>
<line x1="-288" y1="-2048" x2="-102" y2="-2624" stroke-width="10" stroke="black"/>
<line x1="320" y1="-2496" x2="-288" y2="-2048" stroke-width="10" stroke="black"/>
<line x1="-352" y1="-1952" x2="256" y2="-2392" stroke-width="10" stroke="black"/>
<line x1="-143" y1="-2624" x2="-351" y2="-1952" stroke-width="10" stroke="black"/>
<line x1="128" y1="-1408" x2="320" y2="-1600" stroke-width="10" stroke="black"/>
<line x1="192" y1="-2624" x2="320" y2="-2496" stroke-width="10" stroke="black"/>
<line x1="320" y1="-1600" x2="320" y2="-2432" stroke-width="10" stroke="black"/>
<line x1="512" y1="-640" x2="480" y2="-640" stroke-width="10" stroke="black"/>
<line x1="320" y1="-1088" x2="512" y2="-1088" stroke-width="10" stroke="black"/>
<line x1="320" y1="-768" x2="256" y2="-768" stroke-width="10" stroke="black"/>
<line x1="256" y1="-704" x2="256" y2="-768" stroke-width="10" stroke="black"/>
<line x1="160" y1="-960" x2="160" y2="-928" stroke-width="10" stroke="black"/>
<line x1="192" y1="-928" x2="192" y2="-960" stroke-width="10" stroke="black"/>
<line x1="256" y1="-1024" x2="320" y2="-1024" stroke-width="10" stroke="black"/>
<line x1="64" y1="-1088" x2="160" y2="-960" stroke-width="10" stroke="black"/>
<line x1="192" y1="-960" x2="256" y2="-960" stroke-width="10" stroke="black"/>
<line x1="320" y1="-704" x2="320" y2="-768" stroke-width="10" stroke="black"/>
<line x1="128" y1="-1408" x2="-760" y2="-744" stroke-width="10" stroke="black"/>
<line x1="704" y1="-1408" x2="576" y2="-1600" stroke-width="10" stroke="black"/>
<line x1="576" y1="-1600" x2="576" y2="-2392" stroke-width="10" stroke="black"/>
<line x1="928" y1="-2624" x2="1120" y2="-2048" stroke-width="10" stroke="black"/>
<line x1="1120" y1="-2048" x2="512" y2="-2496" stroke-width="10" stroke="black"/>
<line x1="576" y1="-2392" x2="1184" y2="-1952" stroke-width="10" stroke="black"/>
<line x1="1184" y1="-1952" x2="976" y2="-2624" stroke-width="10" stroke="black"/>
<line x1="512" y1="-1600" x2="704" y2="-1408" stroke-width="10" stroke="black"/>
<line x1="512" y1="-2496" x2="640" y2="-2624" stroke-width="10" stroke="black"/>
<line x1="576" y1="-768" x2="512" y2="-768" stroke-width="10" stroke="black"/>
<line x1="576" y1="-768" x2="576" y2="-704" stroke-width="10" stroke="black"/>
<line x1="672" y1="-928" x2="672" y2="-960" stroke-width="10" stroke="black"/>
<line x1="640" y1="-832" x2="640" y2="-768" stroke-width="10" stroke="black"/>
<line x1="512" y1="-1024" x2="576" y2="-1024" stroke-width="10" stroke="black"/>
<line x1="672" y1="-960" x2="768" y2="-1088" stroke-width="10" stroke="black"/>
<line x1="576" y1="-960" x2="640" y2="-960" stroke-width="10" stroke="black"/>
<line x1="1480" y1="-744" x2="704" y2="-1408" stroke-width="10" stroke="black"/>
<line x1="512" y1="-1088" x2="512" y2="-1024" stroke-width="10" stroke="black"/>
<line x1="352" y1="-624" x2="480" y2="-624" stroke-width="10" stroke="black"/>
<line x1="-731" y1="-3392" x2="-64" y2="-2880" stroke-width="10" stroke="black"/>
<line x1="-64" y1="-2880" x2="-143" y2="-2624" stroke-width="10" stroke="black"/>
<line x1="-101" y1="-2624" x2="-16" y2="-2888" stroke-width="10" stroke="black"/>
<line x1="-16" y1="-2888" x2="-672" y2="-3392" stroke-width="10" stroke="black"/>
<line x1="192" y1="-2688" x2="192" y2="-2624" stroke-width="10" stroke="black"/>
<line x1="472" y1="-2752" x2="416" y2="-2712" stroke-width="10" stroke="black"/>
<line x1="416" y1="-2712" x2="360" y2="-2752" stroke-width="10" stroke="black"/>
<line x1="248" y1="-2752" x2="192" y2="-2688" stroke-width="10" stroke="black"/>
<line x1="192" y1="-2688" x2="472" y2="-2688" stroke-width="10" stroke="black"/>
<line x1="248" y1="-2800" x2="248" y2="-2752" stroke-width="10" stroke="black"/>
<line x1="360" y1="-2752" x2="360" y2="-2800" stroke-width="10" stroke="black"/>
<line x1="248" y1="-2752" x2="360" y2="-2752" stroke-width="10" stroke="black"/>
<line x1="272" y1="-2912" x2="336" y2="-2912" stroke-width="10" stroke="black"/>
<line x1="272" y1="-2824" x2="336" y2="-2824" stroke-width="10" stroke="black"/>
<line x1="336" y1="-2832" x2="272" y2="-2832" stroke-width="10" stroke="black"/>
<line x1="272" y1="-2800" x2="272" y2="-2824" stroke-width="10" stroke="black"/>
<line x1="472" y1="-2905" x2="456" y2="-2880" stroke-width="10" stroke="black"/>
<line x1="360" y1="-2800" x2="376" y2="-2880" stroke-width="10" stroke="black"/>
<line x1="336" y1="-2912" x2="336" y2="-2832" stroke-width="10" stroke="black"/>
<line x1="248" y1="-2800" x2="272" y2="-2800" stroke-width="10" stroke="black"/>
<line x1="272" y1="-2944" x2="208" y2="-2880" stroke-width="10" stroke="black"/>
<line x1="975" y1="-2624" x2="896" y2="-2880" stroke-width="10" stroke="black"/>
<line x1="896" y1="-2880" x2="1549" y2="-3392" stroke-width="10" stroke="black"/>
<line x1="840" y1="-2888" x2="928" y2="-2624" stroke-width="10" stroke="black"/>
<line x1="1504" y1="-3392" x2="840" y2="-2888" stroke-width="10" stroke="black"/>
<line x1="640" y1="-2688" x2="584" y2="-2752" stroke-width="10" stroke="black"/>
<line x1="472" y1="-2688" x2="640" y2="-2688" stroke-width="10" stroke="black"/>
<line x1="584" y1="-2752" x2="584" y2="-2800" stroke-width="10" stroke="black"/>
<line x1="472" y1="-2752" x2="584" y2="-2752" stroke-width="10" stroke="black"/>
<line x1="496" y1="-2912" x2="560" y2="-2912" stroke-width="10" stroke="black"/>
<line x1="496" y1="-2832" x2="496" y2="-2912" stroke-width="10" stroke="black"/>
<line x1="496" y1="-2824" x2="560" y2="-2824" stroke-width="10" stroke="black"/>
<line x1="560" y1="-2832" x2="496" y2="-2832" stroke-width="10" stroke="black"/>
<line x1="568" y1="-2832" x2="568" y2="-2912" stroke-width="10" stroke="black"/>
<line x1="624" y1="-2880" x2="560" y2="-2944" stroke-width="10" stroke="black"/>
<line x1="584" y1="-2800" x2="624" y2="-2880" stroke-width="10" stroke="black"/>
<line x1="560" y1="-2912" x2="560" y2="-2832" stroke-width="10" stroke="black"/>
<line x1="472" y1="-2800" x2="496" y2="-2800" stroke-width="10" stroke="black"/>
<line x1="640" y1="-2624" x2="640" y2="-2688" stroke-width="10" stroke="black"/>
<line x1="472" y1="-2800" x2="472" y2="-2752" stroke-width="10" stroke="black"/>
<line x1="288" y1="-4480" x2="288" y2="-4416" stroke-width="10" stroke="black"/>
<line x1="288" y1="-4416" x2="352" y2="-4416" stroke-width="10" stroke="black"/>
<line x1="-784" y1="-3432" x2="-732" y2="-3392" stroke-width="10" stroke="black"/>
<line x1="128" y1="-3432" x2="-784" y2="-3432" stroke-width="10" stroke="black"/>
<line x1="160" y1="-3392" x2="416" y2="-4168" stroke-width="10" stroke="black"/>
<line x1="416" y1="-4168" x2="672" y2="-3392" stroke-width="10" stroke="black"/>
<line x1="416" y1="-4240" x2="128" y2="-3432" stroke-width="10" stroke="black"/>
<line x1="352" y1="-4416" x2="352" y2="-4448" stroke-width="10" stroke="black"/>
<line x1="352" y1="-4416" x2="544" y2="-4416" stroke-width="10" stroke="black"/>
<line x1="352" y1="-4448" x2="352" y2="-4480" stroke-width="10" stroke="black"/>
<line x1="352" y1="-4448" x2="544" y2="-4448" stroke-width="10" stroke="black"/>
<line x1="1549" y1="-3392" x2="1600" y2="-3432" stroke-width="10" stroke="black"/>
<line x1="1600" y1="-3432" x2="704" y2="-3432" stroke-width="10" stroke="black"/>
<line x1="608" y1="-4416" x2="608" y2="-4480" stroke-width="10" stroke="black"/>
<line x1="544" y1="-4416" x2="608" y2="-4416" stroke-width="10" stroke="black"/>
<line x1="544" y1="-4480" x2="544" y2="-4448" stroke-width="10" stroke="black"/>
<line x1="416" y1="-4240" x2="704" y2="-3432" stroke-width="10" stroke="black"/>
<line x1="-672" y1="-3392" x2="160" y2="-3392" stroke-width="10" stroke="black"/>
<line x1="608" y1="-4480" x2="608" y2="-4832" stroke-width="10" stroke="black"/>
<line x1="352" y1="-4704" x2="544" y2="-4704" stroke-width="10" stroke="black"/>
<line x1="352" y1="-4672" x2="544" y2="-4672" stroke-width="10" stroke="black"/>
<line x1="352" y1="-4800" x2="544" y2="-4800" stroke-width="10" stroke="black"/>
<line x1="352" y1="-4768" x2="544" y2="-4768" stroke-width="10" stroke="black"/>
<line x1="352" y1="-4736" x2="544" y2="-4736" stroke-width="10" stroke="black"/>
<line x1="352" y1="-4512" x2="544" y2="-4512" stroke-width="10" stroke="black"/>
<line x1="352" y1="-4608" x2="544" y2="-4608" stroke-width="10" stroke="black"/>
<line x1="352" y1="-4576" x2="544" y2="-4576" stroke-width="10" stroke="black"/>
<line x1="352" y1="-4544" x2="544" y2="-4544" stroke-width="10" stroke="black"/>
<line x1="544" y1="-4640" x2="352" y2="-4640" stroke-width="10" stroke="black"/>
<line x1="544" y1="-4768" x2="544" y2="-4800" stroke-width="10" stroke="black"/>
<line x1="288" y1="-4832" x2="288" y2="-4480" stroke-width="10" stroke="black"/>
<line x1="352" y1="-4480" x2="352" y2="-4512" stroke-width="10" stroke="black"/>
<line x1="560" y1="-6416" x2="560" y2="-6512" stroke-width="10" stroke="black"/>
<line x1="656" y1="-6416" x2="560" y2="-6416" stroke-width="10" stroke="black"/>
<line x1="656" y1="-6512" x2="656" y2="-6416" stroke-width="10" stroke="black"/>
<line x1="560" y1="-6512" x2="656" y2="-6512" stroke-width="10" stroke="black"/>
<line x1="352" y1="-4864" x2="544" y2="-4864" stroke-width="10" stroke="black"/>
<line x1="544" y1="-4864" x2="544" y2="-4832" stroke-width="10" stroke="black"/>
<line x1="384" y1="-5120" x2="384" y2="-5056" stroke-width="10" stroke="black"/>
<line x1="384" y1="-5056" x2="448" y2="-5056" stroke-width="10" stroke="black"/>
<line x1="512" y1="-5056" x2="512" y2="-5120" stroke-width="10" stroke="black"/>
<line x1="448" y1="-5056" x2="512" y2="-5056" stroke-width="10" stroke="black"/>
<line x1="448" y1="-5120" x2="448" y2="-5056" stroke-width="10" stroke="black"/>
<line x1="384" y1="-5184" x2="384" y2="-5120" stroke-width="10" stroke="black"/>
<line x1="448" y1="-5184" x2="384" y2="-5184" stroke-width="10" stroke="black"/>
<line x1="512" y1="-5184" x2="448" y2="-5184" stroke-width="10" stroke="black"/>
<line x1="512" y1="-5120" x2="512" y2="-5184" stroke-width="10" stroke="black"/>
<line x1="448" y1="-5184" x2="448" y2="-5120" stroke-width="10" stroke="black"/>
<line x1="384" y1="-5120" x2="448" y2="-5120" stroke-width="10" stroke="black"/>
<line x1="368" y1="-5040" x2="368" y2="-5200" stroke-width="10" stroke="black"/>
<line x1="528" y1="-5040" x2="368" y2="-5040" stroke-width="10" stroke="black"/>
<line x1="528" y1="-5200" x2="528" y2="-5040" stroke-width="10" stroke="black"/>
<line x1="368" y1="-5200" x2="528" y2="-5200" stroke-width="10" stroke="black"/>
<line x1="544" y1="-5216" x2="352" y2="-5216" stroke-width="10" stroke="black"/>
<line x1="544" y1="-5216" x2="544" y2="-5024" stroke-width="10" stroke="black"/>
<line x1="352" y1="-5024" x2="544" y2="-5024" stroke-width="10" stroke="black"/>
<line x1="352" y1="-4832" x2="352" y2="-4864" stroke-width="10" stroke="black"/>
<line x1="288" y1="-5248" x2="608" y2="-5248" stroke-width="10" stroke="black"/>
<line x1="608" y1="-5248" x2="608" y2="-4832" stroke-width="10" stroke="black"/>
<line x1="288" y1="-4832" x2="288" y2="-5248" stroke-width="10" stroke="black"/>
<line x1="768" y1="-6272" x2="448" y2="-6272" stroke-width="10" stroke="black"/>
<line x1="352" y1="-4832" x2="544" y2="-4832" stroke-width="10" stroke="black"/>
<line x1="352" y1="-4480" x2="544" y2="-4480" stroke-width="10" stroke="black"/>
<line x1="192" y1="-2624" x2="640" y2="-2624" stroke-width="10" stroke="black"/>

</svg>

