<svg width="900" height="849" preserveAspectRatio="none" viewBox="-834 -1858 3652 3460"
 xmlns="http://www.w3.org/2000/svg" xmlns:xlink="http://www.w3.org/1999/xlink">
   <defs>
    <marker id="arrow" markerWidth="10" markerHeight="10" refX="0" refY="2" orient="auto" markerUnits="strokeWidth">
      <path d="M0,0 L0,4 L5,3 z" fill="#f00" />
    </marker>
  </defs>

<polygon points="1824,-1376 1824,-1344 1536,-1344 1536,-1344 1472,-1408 1792,-1408 " fill="rgb(22,239,22)" stroke="rgb(70,70,70)" stroke-width="10" stroke-linecap="round" />
<polygon points="1824,-1280 1824,-1088 1824,-1088 1792,-1088 1600,-1280 1600,-1280 1824,-1280 " fill="rgb(232,15,232)" stroke="rgb(70,70,70)" stroke-width="10" stroke-linecap="round" />
<polygon points="1664,-1344 1664,-1280 1664,-1280 1600,-1280 1536,-1344 1536,-1344 " fill="rgb(251,251,34)" stroke="rgb(70,70,70)" stroke-width="10" stroke-linecap="round" />
<polygon points="1728,-1344 1824,-1344 1824,-1280 1728,-1280 1728,-1344 " fill="rgb(3,3,220)" stroke="rgb(70,70,70)" stroke-width="10" stroke-linecap="round" />
<polygon points="1664,-1280 1664,-1344 1664,-1344 1728,-1344 1728,-1344 1728,-1280 1728,-1280 1664,-1280 " fill="rgb(26,243,243)" stroke="rgb(70,70,70)" stroke-width="10" stroke-linecap="round" />
<polygon points="1824,-1088 1824,-1088 1824,-1088 1824,-1184 2016,-1184 2016,-1184 2048,-1152 2048,-1088 " fill="rgb(3,3,220)" stroke="rgb(70,70,70)" stroke-width="10" stroke-linecap="round" />
<polygon points="1952,-1248 1824,-1248 1824,-1248 1824,-1376 " fill="rgb(3,3,220)" stroke="rgb(70,70,70)" stroke-width="10" stroke-linecap="round" />
<polygon points="2016,-1184 1888,-1184 1888,-1248 1888,-1248 1952,-1248 " fill="rgb(228,11,11)" stroke="rgb(70,70,70)" stroke-width="10" stroke-linecap="round" />
<polygon points="1824,-1184 1824,-1248 1824,-1248 1888,-1248 1888,-1248 1888,-1184 1888,-1184 1824,-1184 " fill="rgb(251,251,34)" stroke="rgb(70,70,70)" stroke-width="10" stroke-linecap="round" />
<polygon points="1792,-1088 1920,-1088 1920,-960 1920,-960 1792,-1088 " fill="rgb(26,243,243)" stroke="rgb(70,70,70)" stroke-width="10" stroke-linecap="round" />
<polygon points="1984,-1024 1984,-896 1920,-960 1920,-960 1920,-1024 1984,-1024 " fill="rgb(26,243,243)" stroke="rgb(70,70,70)" stroke-width="10" stroke-linecap="round" />
<polygon points="1984,-1088 1984,-1024 1984,-1024 1920,-1024 1920,-1024 1920,-1088 1920,-1088 1984,-1088 " fill="rgb(22,239,22)" stroke="rgb(70,70,70)" stroke-width="10" stroke-linecap="round" />
<polygon points="2688,-512 2688,-512 2368,-512 2368,-512 2240,-640 2688,-640 2688,-640 " fill="rgb(228,11,11)" stroke="rgb(70,70,70)" stroke-width="10" stroke-linecap="round" />
<polygon points="1984,-896 1984,-1024 2048,-1024 2048,-1024 2048,-832 " fill="rgb(232,15,232)" stroke="rgb(70,70,70)" stroke-width="10" stroke-linecap="round" />
<polygon points="2048,-1024 1984,-1024 1984,-1024 1984,-1088 1984,-1088 2048,-1088 2048,-1088 " fill="rgb(251,251,34)" stroke="rgb(70,70,70)" stroke-width="10" stroke-linecap="round" />
<polygon points="1408,-1216 1408,-1216 1472,-1216 1472,-1088 1472,-1088 1408,-1088 " fill="rgb(22,239,22)" stroke="rgb(70,70,70)" stroke-width="10" stroke-linecap="round" />
<polygon points="1344,-1216 1344,-1216 1408,-1216 1408,-1088 1408,-1088 1344,-1088 " fill="rgb(232,15,232)" stroke="rgb(70,70,70)" stroke-width="10" stroke-linecap="round" />
<polygon points="1344,-1088 1280,-1088 1280,-1216 1280,-1216 1344,-1216 1344,-1088 " fill="rgb(232,15,232)" stroke="rgb(70,70,70)" stroke-width="10" stroke-linecap="round" />
<polygon points="1216,-1216 1280,-1216 1280,-1088 1280,-1088 1216,-1088 1216,-1216 " fill="rgb(26,243,243)" stroke="rgb(70,70,70)" stroke-width="10" stroke-linecap="round" />
<polygon points="1568,-1312 1568,-1024 1568,-1024 1536,-1024 1536,-1344 1536,-1344 1568,-1312 " fill="rgb(22,239,22)" stroke="rgb(70,70,70)" stroke-width="10" stroke-linecap="round" />
<polygon points="1568,-1024 1568,-1024 1568,-1120 1760,-1120 1760,-1120 1856,-1024 1856,-1024 " fill="rgb(232,15,232)" stroke="rgb(70,70,70)" stroke-width="10" stroke-linecap="round" />
<polygon points="1696,-1184 1696,-1184 1568,-1184 1568,-1184 1568,-1312 " fill="rgb(3,3,220)" stroke="rgb(70,70,70)" stroke-width="10" stroke-linecap="round" />
<polygon points="1760,-1120 1760,-1120 1632,-1120 1632,-1184 1632,-1184 1696,-1184 " fill="rgb(3,3,220)" stroke="rgb(70,70,70)" stroke-width="10" stroke-linecap="round" />
<polygon points="1632,-1120 1568,-1120 1568,-1120 1568,-1184 1568,-1184 1632,-1184 1632,-1184 1632,-1120 " fill="rgb(3,3,220)" stroke="rgb(70,70,70)" stroke-width="10" stroke-linecap="round" />
<polygon points="1536,-896 1536,-1024 1536,-1024 1600,-1024 1600,-896 1600,-896 1536,-896 " fill="rgb(3,3,220)" stroke="rgb(70,70,70)" stroke-width="10" stroke-linecap="round" />
<polygon points="1600,-896 1600,-896 1600,-960 1760,-960 1760,-960 1760,-896 1760,-896 " fill="rgb(232,15,232)" stroke="rgb(70,70,70)" stroke-width="10" stroke-linecap="round" />
<polygon points="1664,-960 1664,-1024 1664,-1024 1760,-1024 1760,-960 1760,-960 " fill="rgb(22,239,22)" stroke="rgb(70,70,70)" stroke-width="10" stroke-linecap="round" />
<polygon points="1664,-1024 1664,-1024 1664,-960 1664,-960 1600,-960 1600,-960 1600,-1024 1600,-1024 " fill="rgb(232,15,232)" stroke="rgb(70,70,70)" stroke-width="10" stroke-linecap="round" />
<polygon points="1760,-896 1760,-896 1760,-928 1952,-928 1952,-928 1984,-896 1984,-896 " fill="rgb(22,239,22)" stroke="rgb(70,70,70)" stroke-width="10" stroke-linecap="round" />
<polygon points="1824,-928 1824,-1024 1824,-1024 1856,-1024 1952,-928 1952,-928 " fill="rgb(251,251,34)" stroke="rgb(70,70,70)" stroke-width="10" stroke-linecap="round" />
<polygon points="1760,-992 1760,-1024 1824,-1024 1824,-992 1760,-992 " fill="rgb(22,239,22)" stroke="rgb(70,70,70)" stroke-width="10" stroke-linecap="round" />
<polygon points="1824,-992 1824,-928 1824,-928 1760,-928 1760,-928 1760,-992 1760,-992 1824,-992 " fill="rgb(251,251,34)" stroke="rgb(70,70,70)" stroke-width="10" stroke-linecap="round" />
<polygon points="1536,-832 1536,-832 1536,-896 1984,-896 1984,-896 2048,-832 " fill="rgb(251,251,34)" stroke="rgb(70,70,70)" stroke-width="10" stroke-linecap="round" />
<polygon points="1472,-832 1472,-1408 1472,-1408 1472,-1408 1472,-1408 1536,-1344 1536,-832 1536,-832 1472,-832 " fill="rgb(3,3,220)" stroke="rgb(70,70,70)" stroke-width="10" stroke-linecap="round" />
<polygon points="2368,-512 2240,-512 2240,-512 2240,-640 " fill="rgb(26,243,243)" stroke="rgb(70,70,70)" stroke-width="10" stroke-linecap="round" />
<polygon points="951,-1200 783,-1280 800,-1408 800,-1408 960,-1408 960,-1408 960,-1408 967,-1311 " fill="rgb(22,239,22)" stroke="rgb(70,70,70)" stroke-width="10" stroke-linecap="round" />
<polygon points="967,-1307 978,-1186 951,-1197 " fill="rgb(232,15,232)" stroke="rgb(70,70,70)" stroke-width="10" stroke-linecap="round" />
<polygon points="800,-1408 800,-1408 800,-1408 800,-1408 783,-1279 576,-1379 576,-1408 " fill="rgb(251,251,34)" stroke="rgb(70,70,70)" stroke-width="10" stroke-linecap="round" />
<polygon points="960,-1408 960,-1408 1024,-1408 1024,-1408 1024,-1165 1024,-1165 1024,-1165 978,-1185 " fill="rgb(26,243,243)" stroke="rgb(70,70,70)" stroke-width="10" stroke-linecap="round" />
<polygon points="576,-1048 576,-1216 576,-1216 576,-1216 782,-1279 950,-1199 863,-1143 576,-1048 " fill="rgb(3,3,220)" stroke="rgb(70,70,70)" stroke-width="10" stroke-linecap="round" />
<polygon points="576,-1216 576,-1379 781,-1279 576,-1216 " fill="rgb(232,15,232)" stroke="rgb(70,70,70)" stroke-width="10" stroke-linecap="round" />
<polygon points="576,-1048 865,-1144 576,-960 576,-1048 " fill="rgb(22,239,22)" stroke="rgb(70,70,70)" stroke-width="10" stroke-linecap="round" />
<polygon points="951,-1199 1024,-1165 1024,-896 1024,-896 1024,-896 576,-896 576,-896 576,-896 576,-896 576,-896 576,-896 576,-960 " fill="rgb(251,251,34)" stroke="rgb(70,70,70)" stroke-width="10" stroke-linecap="round" />
<polygon points="1152,-1216 1152,-1216 1216,-1216 1216,-1088 1216,-1088 1152,-1088 " fill="rgb(251,251,34)" stroke="rgb(70,70,70)" stroke-width="10" stroke-linecap="round" />
<polygon points="1088,-1184 1152,-1216 1152,-1088 1152,-1088 1088,-1120 1088,-1184 " fill="rgb(251,251,34)" stroke="rgb(70,70,70)" stroke-width="10" stroke-linecap="round" />
<polygon points="1024,-1184 1088,-1184 1088,-1120 1088,-1120 1024,-1120 1024,-1184 " fill="rgb(232,15,232)" stroke="rgb(70,70,70)" stroke-width="10" stroke-linecap="round" />
<polygon points="960,-1430 960,-1415 576,-1608 576,-1608 576,-1664 704,-1664 912,-1536 " fill="rgb(3,3,220)" stroke="rgb(70,70,70)" stroke-width="10" stroke-linecap="round" />
<polygon points="576,-1560 576,-1608 672,-1560 576,-1560 " fill="rgb(232,15,232)" stroke="rgb(70,70,70)" stroke-width="10" stroke-linecap="round" />
<polygon points="720,-1520 720,-1424 720,-1424 576,-1424 576,-1424 576,-1520 " fill="rgb(228,11,11)" stroke="rgb(70,70,70)" stroke-width="10" stroke-linecap="round" />
<polygon points="720,-1408 576,-1408 576,-1408 576,-1424 720,-1424 720,-1424 720,-1408 " fill="rgb(26,243,243)" stroke="rgb(70,70,70)" stroke-width="10" stroke-linecap="round" />
<polygon points="800,-1408 800,-1408 800,-1496 800,-1496 960,-1416 960,-1408 " fill="rgb(228,11,11)" stroke="rgb(70,70,70)" stroke-width="10" stroke-linecap="round" />
<polygon points="800,-1432 768,-1512 800,-1496 " fill="rgb(22,239,22)" stroke="rgb(70,70,70)" stroke-width="10" stroke-linecap="round" />
<polygon points="768,-800 768,-800 640,-800 640,-856 640,-856 768,-856 768,-856 " fill="rgb(251,251,34)" stroke="rgb(70,70,70)" stroke-width="10" stroke-linecap="round" />
<polygon points="640,-768 640,-768 640,-800 768,-800 768,-800 768,-768 " fill="rgb(228,11,11)" stroke="rgb(70,70,70)" stroke-width="10" stroke-linecap="round" />
<polygon points="768,-872 640,-872 640,-896 768,-896 " fill="rgb(22,239,22)" stroke="rgb(70,70,70)" stroke-width="10" stroke-linecap="round" />
<polygon points="640,-856 640,-872 768,-872 768,-872 768,-856 640,-856 " fill="rgb(251,251,34)" stroke="rgb(70,70,70)" stroke-width="10" stroke-linecap="round" />
<polygon points="640,-704 640,-704 640,-768 768,-768 768,-768 768,-704 " fill="rgb(3,3,220)" stroke="rgb(70,70,70)" stroke-width="10" stroke-linecap="round" />
<polygon points="640,-640 640,-640 640,-704 768,-704 768,-704 768,-640 " fill="rgb(251,251,34)" stroke="rgb(70,70,70)" stroke-width="10" stroke-linecap="round" />
<polygon points="768,-640 768,-576 640,-576 640,-576 640,-640 768,-640 " fill="rgb(228,11,11)" stroke="rgb(70,70,70)" stroke-width="10" stroke-linecap="round" />
<polygon points="640,-512 640,-576 768,-576 768,-576 768,-512 640,-512 " fill="rgb(3,3,220)" stroke="rgb(70,70,70)" stroke-width="10" stroke-linecap="round" />
<polygon points="-320,-832 -320,-768 -448,-768 -448,-768 -448,-832 -320,-832 " fill="rgb(26,243,243)" stroke="rgb(70,70,70)" stroke-width="10" stroke-linecap="round" />
<polygon points="-320,-768 -320,-704 -448,-704 -448,-704 -448,-768 -320,-768 " fill="rgb(251,251,34)" stroke="rgb(70,70,70)" stroke-width="10" stroke-linecap="round" />
<polygon points="-320,-704 -320,-704 -320,-640 -448,-640 -448,-640 -448,-704 " fill="rgb(232,15,232)" stroke="rgb(70,70,70)" stroke-width="10" stroke-linecap="round" />
<polygon points="-320,-640 -320,-640 -320,-576 -448,-576 -448,-576 -448,-640 " fill="rgb(22,239,22)" stroke="rgb(70,70,70)" stroke-width="10" stroke-linecap="round" />
<polygon points="-320,-576 -320,-576 -320,-512 -448,-512 -448,-512 -448,-576 " fill="rgb(228,11,11)" stroke="rgb(70,70,70)" stroke-width="10" stroke-linecap="round" />
<polygon points="-448,-1040 -448,-1040 -448,-1120 -448,-1120 -448,-1120 -448,-1120 -368,-1071 -415,-984 " fill="rgb(3,3,220)" stroke="rgb(70,70,70)" stroke-width="10" stroke-linecap="round" />
<polygon points="-415,-982 -448,-925 -448,-1040 -448,-1040 " fill="rgb(232,15,232)" stroke="rgb(70,70,70)" stroke-width="10" stroke-linecap="round" />
<polygon points="-448,-1120 -341,-1120 -341,-1120 -366,-1071 -448,-1120 -448,-1120 " fill="rgb(228,11,11)" stroke="rgb(70,70,70)" stroke-width="10" stroke-linecap="round" />
<polygon points="-368,-960 -368,-960 -368,-960 -415,-983 -415,-984 -320,-1047 -224,-983 -272,-960 " fill="rgb(22,239,22)" stroke="rgb(70,70,70)" stroke-width="10" stroke-linecap="round" />
<polygon points="-368,-960 -368,-960 -428,-960 -415,-983 " fill="rgb(232,15,232)" stroke="rgb(70,70,70)" stroke-width="10" stroke-linecap="round" />
<polygon points="-428,-960 -270,-960 -270,-960 -448,-872 -448,-925 " fill="rgb(228,11,11)" stroke="rgb(70,70,70)" stroke-width="10" stroke-linecap="round" />
<polygon points="-320,-1047 -414,-985 -364,-1077 " fill="rgb(251,251,34)" stroke="rgb(70,70,70)" stroke-width="10" stroke-linecap="round" />
<polygon points="-448,-832 -448,-832 -448,-832 -448,-872 -448,-872 -224,-983 -64,-877 -64,-832 -64,-832 " fill="rgb(228,11,11)" stroke="rgb(70,70,70)" stroke-width="10" stroke-linecap="round" />
<polygon points="-192,-1120 -192,-1120 -192,-1040 -192,-1040 -192,-1040 -223,-984 -271,-1072 -192,-1120 " fill="rgb(22,239,22)" stroke="rgb(70,70,70)" stroke-width="10" stroke-linecap="round" />
<polygon points="-192,-1040 -192,-962 -223,-983 -223,-984 -192,-1040 " fill="rgb(232,15,232)" stroke="rgb(70,70,70)" stroke-width="10" stroke-linecap="round" />
<polygon points="-64,-877 -64,-877 -192,-962 -192,-1120 -192,-1120 -192,-1120 -64,-1120 " fill="rgb(232,15,232)" stroke="rgb(70,70,70)" stroke-width="10" stroke-linecap="round" />
<polygon points="-192,-1120 -271,-1072 -298,-1120 -192,-1120 -192,-1120 " fill="rgb(251,251,34)" stroke="rgb(70,70,70)" stroke-width="10" stroke-linecap="round" />
<polygon points="-223,-983 -363,-1077 -341,-1120 -298,-1120 " fill="rgb(251,251,34)" stroke="rgb(70,70,70)" stroke-width="10" stroke-linecap="round" />
<polygon points="-576,-1120 -448,-1120 -448,-832 -448,-832 -448,-832 -576,-960 " fill="rgb(22,239,22)" stroke="rgb(70,70,70)" stroke-width="10" stroke-linecap="round" />
<polygon points="-288,-1120 -288,-1120 -319,-1216 -256,-1216 -192,-1160 -192,-1160 -192,-1120 -192,-1120 -288,-1120 " fill="rgb(3,3,220)" stroke="rgb(70,70,70)" stroke-width="10" stroke-linecap="round" />
<polygon points="-192,-1160 -146,-1120 -192,-1120 -192,-1160 " fill="rgb(26,243,243)" stroke="rgb(70,70,70)" stroke-width="10" stroke-linecap="round" />
<polygon points="-319,-1216 -346,-1295 -255,-1216 -319,-1216 " fill="rgb(22,239,22)" stroke="rgb(70,70,70)" stroke-width="10" stroke-linecap="round" />
<polygon points="-64,-1120 -146,-1120 -346,-1295 -384,-1408 -384,-1408 -64,-1408 -64,-1120 " fill="rgb(26,243,243)" stroke="rgb(70,70,70)" stroke-width="10" stroke-linecap="round" />
<polygon points="-352,-1120 -448,-1120 -448,-1120 -448,-1159 -448,-1159 -383,-1216 -320,-1216 -320,-1216 -352,-1120 " fill="rgb(232,15,232)" stroke="rgb(70,70,70)" stroke-width="10" stroke-linecap="round" />
<polygon points="-383,-1216 -334,-1259 -319,-1216 -319,-1216 -383,-1216 " fill="rgb(251,251,34)" stroke="rgb(70,70,70)" stroke-width="10" stroke-linecap="round" />
<polygon points="-448,-1120 -493,-1120 -448,-1159 -448,-1120 " fill="rgb(26,243,243)" stroke="rgb(70,70,70)" stroke-width="10" stroke-linecap="round" />
<polygon points="-288,-1120 -352,-1120 -352,-1120 -319,-1214 -288,-1120 " fill="rgb(22,239,22)" stroke="rgb(70,70,70)" stroke-width="10" stroke-linecap="round" />
<polygon points="-576,-1216 -384,-1408 -384,-1408 -384,-1408 -334,-1259 -493,-1120 -576,-1120 " fill="rgb(22,239,22)" stroke="rgb(70,70,70)" stroke-width="10" stroke-linecap="round" />
<polygon points="-704,-1536 -704,-1536 -704,-1536 -704,-1728 -704,-1728 -384,-1728 -384,-1536 " fill="rgb(228,11,11)" stroke="rgb(70,70,70)" stroke-width="10" stroke-linecap="round" />
<polygon points="-704,-1384 -704,-1384 -704,-1536 -704,-1536 -512,-1536 -512,-1384 -512,-1384 " fill="rgb(232,15,232)" stroke="rgb(70,70,70)" stroke-width="10" stroke-linecap="round" />
<polygon points="-400,-1536 -384,-1536 -384,-1408 -400,-1392 " fill="rgb(22,239,22)" stroke="rgb(70,70,70)" stroke-width="10" stroke-linecap="round" />
<polygon points="-592,-1312 -592,-1312 -704,-1312 -704,-1384 -704,-1384 -592,-1384 " fill="rgb(3,3,220)" stroke="rgb(70,70,70)" stroke-width="10" stroke-linecap="round" />
<polygon points="-592,-1384 -576,-1384 -576,-1384 -576,-1312 -576,-1312 -592,-1312 -592,-1384 " fill="rgb(228,11,11)" stroke="rgb(70,70,70)" stroke-width="10" stroke-linecap="round" />
<polygon points="-576,-1368 -576,-1384 -512,-1384 -512,-1384 -512,-1368 -576,-1368 " fill="rgb(232,15,232)" stroke="rgb(70,70,70)" stroke-width="10" stroke-linecap="round" />
<polygon points="-576,-1368 -512,-1368 -512,-1368 -512,-1312 -576,-1312 -576,-1368 " fill="rgb(251,251,34)" stroke="rgb(70,70,70)" stroke-width="10" stroke-linecap="round" />
<polygon points="528,-1408 576,-1408 576,-1408 576,-1312 528,-1312 528,-1408 " fill="rgb(228,11,11)" stroke="rgb(70,70,70)" stroke-width="10" stroke-linecap="round" />
<polygon points="528,-1408 528,-1408 528,-1336 480,-1336 480,-1336 480,-1408 480,-1408 528,-1408 " fill="rgb(3,3,220)" stroke="rgb(70,70,70)" stroke-width="10" stroke-linecap="round" />
<polygon points="496,-1336 496,-1312 496,-1312 480,-1312 480,-1336 480,-1336 " fill="rgb(251,251,34)" stroke="rgb(70,70,70)" stroke-width="10" stroke-linecap="round" />
<polygon points="528,-1328 528,-1312 496,-1312 496,-1328 528,-1328 " fill="rgb(3,3,220)" stroke="rgb(70,70,70)" stroke-width="10" stroke-linecap="round" />
<polygon points="496,-1328 496,-1336 496,-1336 528,-1336 528,-1336 528,-1328 528,-1328 496,-1328 " fill="rgb(232,15,232)" stroke="rgb(70,70,70)" stroke-width="10" stroke-linecap="round" />
<polygon points="480,-1408 480,-1312 480,-1312 384,-1312 384,-1312 480,-1408 480,-1408 " fill="rgb(22,239,22)" stroke="rgb(70,70,70)" stroke-width="10" stroke-linecap="round" />
<polygon points="112,-1408 280,-1408 272,-1312 112,-1312 " fill="rgb(228,11,11)" stroke="rgb(70,70,70)" stroke-width="10" stroke-linecap="round" />
<polygon points="416,-1664 416,-1560 416,-1560 112,-1433 112,-1536 264,-1664 " fill="rgb(251,251,34)" stroke="rgb(70,70,70)" stroke-width="10" stroke-linecap="round" />
<polygon points="280,-1408 112,-1408 112,-1433 320,-1520 280,-1408 " fill="rgb(26,243,243)" stroke="rgb(70,70,70)" stroke-width="10" stroke-linecap="round" />
<polygon points="280,-1408 280,-1408 320,-1520 320,-1520 416,-1560 416,-1560 416,-1408 416,-1408 280,-1408 " fill="rgb(228,11,11)" stroke="rgb(70,70,70)" stroke-width="10" stroke-linecap="round" />
<polygon points="576,-1664 576,-1560 416,-1560 416,-1560 416,-1664 " fill="rgb(3,3,220)" stroke="rgb(70,70,70)" stroke-width="10" stroke-linecap="round" />
<polygon points="528,-1424 528,-1520 576,-1520 576,-1424 " fill="rgb(22,239,22)" stroke="rgb(70,70,70)" stroke-width="10" stroke-linecap="round" />
<polygon points="576,-1408 528,-1408 528,-1424 576,-1424 576,-1424 " fill="rgb(228,11,11)" stroke="rgb(70,70,70)" stroke-width="10" stroke-linecap="round" />
<polygon points="0,-1239 128,-1176 128,-1176 0,-1176 0,-1239 " fill="rgb(3,3,220)" stroke="rgb(70,70,70)" stroke-width="10" stroke-linecap="round" />
<polygon points="112,-1303 126,-1312 256,-1312 256,-1176 144,-1176 144,-1176 " fill="rgb(251,251,34)" stroke="rgb(70,70,70)" stroke-width="10" stroke-linecap="round" />
<polygon points="128,-1176 0,-1239 112,-1303 144,-1176 144,-1176 128,-1176 128,-1176 " fill="rgb(251,251,34)" stroke="rgb(70,70,70)" stroke-width="10" stroke-linecap="round" />
<polygon points="0,-1176 128,-1176 128,-896 64,-896 0,-1008 " fill="rgb(232,15,232)" stroke="rgb(70,70,70)" stroke-width="10" stroke-linecap="round" />
<polygon points="256,-1050 199,-1056 144,-1176 256,-1176 256,-1050 " fill="rgb(26,243,243)" stroke="rgb(70,70,70)" stroke-width="10" stroke-linecap="round" />
<polygon points="128,-896 128,-1024 256,-1024 256,-1024 256,-896 128,-896 " fill="rgb(232,15,232)" stroke="rgb(70,70,70)" stroke-width="10" stroke-linecap="round" />
<polygon points="112,-1312 126,-1312 112,-1303 " fill="rgb(3,3,220)" stroke="rgb(70,70,70)" stroke-width="10" stroke-linecap="round" />
<polygon points="256,-1024 320,-1024 320,-1024 320,-896 320,-896 256,-896 256,-1024 " fill="rgb(3,3,220)" stroke="rgb(70,70,70)" stroke-width="10" stroke-linecap="round" />
<polygon points="320,-1024 368,-1024 368,-1024 368,-896 368,-896 320,-896 320,-1024 " fill="rgb(22,239,22)" stroke="rgb(70,70,70)" stroke-width="10" stroke-linecap="round" />
<polygon points="368,-896 368,-1024 368,-1024 384,-1024 384,-1024 384,-896 " fill="rgb(26,243,243)" stroke="rgb(70,70,70)" stroke-width="10" stroke-linecap="round" />
<polygon points="256,-1200 384,-1200 384,-1200 384,-1200 384,-1040 360,-1040 256,-1050 " fill="rgb(26,243,243)" stroke="rgb(70,70,70)" stroke-width="10" stroke-linecap="round" />
<polygon points="256,-1312 272,-1312 304,-1200 256,-1200 " fill="rgb(251,251,34)" stroke="rgb(70,70,70)" stroke-width="10" stroke-linecap="round" />
<polygon points="576,-1216 576,-1048 576,-1048 384,-1040 384,-1040 384,-1200 384,-1200 576,-1216 " fill="rgb(232,15,232)" stroke="rgb(70,70,70)" stroke-width="10" stroke-linecap="round" />
<polygon points="384,-896 384,-1040 384,-1040 384,-1040 576,-1048 576,-1048 576,-896 " fill="rgb(26,243,243)" stroke="rgb(70,70,70)" stroke-width="10" stroke-linecap="round" />
<polygon points="384,-1200 384,-1200 384,-1264 384,-1264 576,-1264 576,-1264 576,-1216 " fill="rgb(251,251,34)" stroke="rgb(70,70,70)" stroke-width="10" stroke-linecap="round" />
<polygon points="456,-1264 384,-1264 384,-1312 384,-1312 384,-1312 456,-1312 456,-1312 456,-1264 " fill="rgb(232,15,232)" stroke="rgb(70,70,70)" stroke-width="10" stroke-linecap="round" />
<polygon points="576,-1296 456,-1296 456,-1296 456,-1312 576,-1312 576,-1312 " fill="rgb(26,243,243)" stroke="rgb(70,70,70)" stroke-width="10" stroke-linecap="round" />
<polygon points="464,-1264 464,-1296 464,-1296 576,-1296 576,-1264 " fill="rgb(251,251,34)" stroke="rgb(70,70,70)" stroke-width="10" stroke-linecap="round" />
<polygon points="456,-1296 464,-1296 464,-1296 464,-1264 464,-1264 456,-1264 456,-1264 456,-1296 " fill="rgb(228,11,11)" stroke="rgb(70,70,70)" stroke-width="10" stroke-linecap="round" />
<polygon points="1536,-384 1536,-384 1536,-384 1600,-384 1600,192 1536,192 1536,192 1536,-384 " fill="rgb(232,15,232)" stroke="rgb(70,70,70)" stroke-width="10" stroke-linecap="round" />
<polygon points="1472,-128 1536,-128 1536,0 1536,0 1472,0 1472,-128 " fill="rgb(228,11,11)" stroke="rgb(70,70,70)" stroke-width="10" stroke-linecap="round" />
<polygon points="1408,-128 1472,-128 1472,0 1472,0 1408,0 1408,-128 " fill="rgb(251,251,34)" stroke="rgb(70,70,70)" stroke-width="10" stroke-linecap="round" />
<polygon points="1344,-128 1408,-128 1408,0 1408,0 1344,0 1344,-128 " fill="rgb(3,3,220)" stroke="rgb(70,70,70)" stroke-width="10" stroke-linecap="round" />
<polygon points="1280,0 1280,-128 1280,-128 1344,-128 1344,0 1344,0 " fill="rgb(26,243,243)" stroke="rgb(70,70,70)" stroke-width="10" stroke-linecap="round" />
<polygon points="1216,-128 1280,-128 1280,0 1280,0 1216,0 1216,-128 " fill="rgb(251,251,34)" stroke="rgb(70,70,70)" stroke-width="10" stroke-linecap="round" />
<polygon points="1152,-128 1216,-128 1216,0 1216,0 1152,0 1152,-128 " fill="rgb(26,243,243)" stroke="rgb(70,70,70)" stroke-width="10" stroke-linecap="round" />
<polygon points="1088,192 832,192 832,-448 832,-448 832,-448 832,-448 960,-448 1088,-320 1088,192 1088,192 " fill="rgb(22,239,22)" stroke="rgb(70,70,70)" stroke-width="10" stroke-linecap="round" />
<polygon points="1088,-128 1152,-128 1152,0 1152,0 1088,0 " fill="rgb(228,11,11)" stroke="rgb(70,70,70)" stroke-width="10" stroke-linecap="round" />
<polygon points="1056,544 1056,544 1216,384 1216,576 1216,576 1088,576 " fill="rgb(22,239,22)" stroke="rgb(70,70,70)" stroke-width="10" stroke-linecap="round" />
<polygon points="1056,544 1056,544 1088,576 1088,576 1024,576 " fill="rgb(26,243,243)" stroke="rgb(70,70,70)" stroke-width="10" stroke-linecap="round" />
<polygon points="1056,448 1216,288 1216,288 1216,384 1056,544 " fill="rgb(251,251,34)" stroke="rgb(70,70,70)" stroke-width="10" stroke-linecap="round" />
<polygon points="832,320 832,192 1088,192 960,320 " fill="rgb(232,15,232)" stroke="rgb(70,70,70)" stroke-width="10" stroke-linecap="round" />
<polygon points="1216,288 1216,288 1056,448 1056,448 1056,288 " fill="rgb(22,239,22)" stroke="rgb(70,70,70)" stroke-width="10" stroke-linecap="round" />
<polygon points="1216,448 1216,448 1216,288 1312,288 1472,448 1472,448 " fill="rgb(3,3,220)" stroke="rgb(70,70,70)" stroke-width="10" stroke-linecap="round" />
<polygon points="1344,448 1344,448 1472,448 1504,480 1504,480 1408,576 1344,576 " fill="rgb(228,11,11)" stroke="rgb(70,70,70)" stroke-width="10" stroke-linecap="round" />
<polygon points="1344,448 1344,448 1344,576 1344,576 1216,576 1216,576 1216,448 1216,448 " fill="rgb(251,251,34)" stroke="rgb(70,70,70)" stroke-width="10" stroke-linecap="round" />
<polygon points="1312,288 1344,256 1600,256 1600,256 1600,384 1504,480 1312,288 " fill="rgb(232,15,232)" stroke="rgb(70,70,70)" stroke-width="10" stroke-linecap="round" />
<polygon points="1536,192 1536,192 1536,256 1536,256 1344,256 1408,192 " fill="rgb(228,11,11)" stroke="rgb(70,70,70)" stroke-width="10" stroke-linecap="round" />
<polygon points="1600,192 1600,256 1600,256 1536,256 1536,256 1536,192 1536,192 1600,192 " fill="rgb(232,15,232)" stroke="rgb(70,70,70)" stroke-width="10" stroke-linecap="round" />
<polygon points="1856,512 1856,512 1856,576 1728,576 1728,576 1728,512 " fill="rgb(251,251,34)" stroke="rgb(70,70,70)" stroke-width="10" stroke-linecap="round" />
<polygon points="1856,448 1856,448 1856,512 1728,512 1728,512 1728,448 " fill="rgb(26,243,243)" stroke="rgb(70,70,70)" stroke-width="10" stroke-linecap="round" />
<polygon points="1856,384 1856,448 1728,448 1728,448 1728,384 1856,384 " fill="rgb(232,15,232)" stroke="rgb(70,70,70)" stroke-width="10" stroke-linecap="round" />
<polygon points="1856,320 1856,384 1728,384 1728,384 1728,320 1856,320 " fill="rgb(251,251,34)" stroke="rgb(70,70,70)" stroke-width="10" stroke-linecap="round" />
<polygon points="1920,64 1920,64 1824,64 1824,64 1824,-192 1824,-192 1920,-192 1920,-192 " fill="rgb(3,3,220)" stroke="rgb(70,70,70)" stroke-width="10" stroke-linecap="round" />
<polygon points="1824,-192 1824,64 1824,64 1600,64 1600,-192 " fill="rgb(3,3,220)" stroke="rgb(70,70,70)" stroke-width="10" stroke-linecap="round" />
<polygon points="1920,-192 1920,-192 1600,-192 1600,-192 1600,-384 1920,-384 1920,-192 " fill="rgb(232,15,232)" stroke="rgb(70,70,70)" stroke-width="10" stroke-linecap="round" />
<polygon points="1920,64 1920,64 1920,256 1920,256 1920,256 1600,256 1600,256 1600,256 1600,64 1600,64 " fill="rgb(22,239,22)" stroke="rgb(70,70,70)" stroke-width="10" stroke-linecap="round" />
<polygon points="1728,320 1728,256 1856,256 1856,320 1728,320 " fill="rgb(3,3,220)" stroke="rgb(70,70,70)" stroke-width="10" stroke-linecap="round" />
<polygon points="2176,-64 2496,-64 2496,-64 2496,128 2496,128 2176,128 2176,-64 " fill="rgb(3,3,220)" stroke="rgb(70,70,70)" stroke-width="10" stroke-linecap="round" />
<polygon points="2368,-512 2368,-512 2368,-64 2368,-64 2176,-64 2176,-256 2240,-512 " fill="rgb(26,243,243)" stroke="rgb(70,70,70)" stroke-width="10" stroke-linecap="round" />
<polygon points="2368,-512 2496,-512 2496,-512 2496,-128 2368,-128 2368,-128 " fill="rgb(251,251,34)" stroke="rgb(70,70,70)" stroke-width="10" stroke-linecap="round" />
<polygon points="2432,-128 2496,-128 2496,-64 2432,-64 2432,-128 " fill="rgb(251,251,34)" stroke="rgb(70,70,70)" stroke-width="10" stroke-linecap="round" />
<polygon points="2368,-128 2368,-128 2432,-128 2432,-128 2432,-64 2432,-64 2368,-64 2368,-64 " fill="rgb(26,243,243)" stroke="rgb(70,70,70)" stroke-width="10" stroke-linecap="round" />
<polygon points="2560,-128 2688,-128 2688,-128 2688,128 2560,128 2560,-128 " fill="rgb(251,251,34)" stroke="rgb(70,70,70)" stroke-width="10" stroke-linecap="round" />
<polygon points="2496,64 2560,64 2560,64 2560,128 2496,128 " fill="rgb(232,15,232)" stroke="rgb(70,70,70)" stroke-width="10" stroke-linecap="round" />
<polygon points="2496,0 2496,-128 2560,-128 2560,0 2496,0 " fill="rgb(228,11,11)" stroke="rgb(70,70,70)" stroke-width="10" stroke-linecap="round" />
<polygon points="2560,64 2496,64 2496,64 2496,0 2496,0 2560,0 2560,0 2560,64 " fill="rgb(3,3,220)" stroke="rgb(70,70,70)" stroke-width="10" stroke-linecap="round" />
<polygon points="2624,-512 2624,-512 2688,-512 2688,-512 2688,-128 2688,-128 2624,-128 " fill="rgb(232,15,232)" stroke="rgb(70,70,70)" stroke-width="10" stroke-linecap="round" />
<polygon points="2496,-512 2624,-512 2624,-512 2624,-192 2496,-192 2496,-192 " fill="rgb(251,251,34)" stroke="rgb(70,70,70)" stroke-width="10" stroke-linecap="round" />
<polygon points="2560,-192 2560,-128 2560,-128 2496,-128 2496,-192 " fill="rgb(3,3,220)" stroke="rgb(70,70,70)" stroke-width="10" stroke-linecap="round" />
<polygon points="2624,-128 2560,-128 2560,-128 2560,-192 2560,-192 2624,-192 2624,-192 2624,-128 " fill="rgb(3,3,220)" stroke="rgb(70,70,70)" stroke-width="10" stroke-linecap="round" />
<polygon points="1920,-192 2176,-256 2176,128 2176,128 1920,64 " fill="rgb(3,3,220)" stroke="rgb(70,70,70)" stroke-width="10" stroke-linecap="round" />
<polygon points="-448,576 -448,512 -448,512 -320,512 -320,512 -320,576 -320,576 -448,576 " fill="rgb(251,251,34)" stroke="rgb(70,70,70)" stroke-width="10" stroke-linecap="round" />
<polygon points="-448,448 -320,448 -320,448 -320,512 -320,512 -448,512 -448,512 -448,448 " fill="rgb(22,239,22)" stroke="rgb(70,70,70)" stroke-width="10" stroke-linecap="round" />
<polygon points="-320,384 -320,448 -320,448 -448,448 -448,448 -448,384 -448,384 -320,384 " fill="rgb(22,239,22)" stroke="rgb(70,70,70)" stroke-width="10" stroke-linecap="round" />
<polygon points="-320,320 -320,384 -320,384 -448,384 -448,384 -448,320 -448,320 -320,320 " fill="rgb(228,11,11)" stroke="rgb(70,70,70)" stroke-width="10" stroke-linecap="round" />
<polygon points="-320,64 -448,64 -448,64 -448,-192 -448,-192 -448,-192 -448,-192 -320,-192 -320,-192 -320,64 " fill="rgb(3,3,220)" stroke="rgb(70,70,70)" stroke-width="10" stroke-linecap="round" />
<polygon points="-448,320 -448,64 -448,64 -320,64 -320,64 -320,320 -320,320 -448,320 " fill="rgb(26,243,243)" stroke="rgb(70,70,70)" stroke-width="10" stroke-linecap="round" />
<polygon points="-320,-512 -320,-448 -320,-448 -448,-448 -448,-448 -448,-512 -448,-512 -320,-512 " fill="rgb(232,15,232)" stroke="rgb(70,70,70)" stroke-width="10" stroke-linecap="round" />
<polygon points="-320,-448 -320,-192 -320,-192 -448,-192 -448,-192 -448,-448 -448,-448 -320,-448 " fill="rgb(232,15,232)" stroke="rgb(70,70,70)" stroke-width="10" stroke-linecap="round" />
<polygon points="-320,-384 -128,-384 -128,256 -320,256 -320,-384 " fill="rgb(3,3,220)" stroke="rgb(70,70,70)" stroke-width="10" stroke-linecap="round" />
<polygon points="-64,-128 -64,0 -128,0 -128,-128 " fill="rgb(3,3,220)" stroke="rgb(70,70,70)" stroke-width="10" stroke-linecap="round" />
<polygon points="-64,0 -64,-128 0,-128 0,0 0,0 -64,0 " fill="rgb(232,15,232)" stroke="rgb(70,70,70)" stroke-width="10" stroke-linecap="round" />
<polygon points="0,240 0,304 0,304 -32,304 -32,240 " fill="rgb(251,251,34)" stroke="rgb(70,70,70)" stroke-width="10" stroke-linecap="round" />
<polygon points="-448,256 -640,256 -640,64 -448,64 -448,64 " fill="rgb(251,251,34)" stroke="rgb(70,70,70)" stroke-width="10" stroke-linecap="round" />
<polygon points="-512,32 -512,64 -640,64 -640,32 -512,32 " fill="rgb(22,239,22)" stroke="rgb(70,70,70)" stroke-width="10" stroke-linecap="round" />
<polygon points="-448,-192 -640,-192 -640,-384 -448,-384 " fill="rgb(251,251,34)" stroke="rgb(70,70,70)" stroke-width="10" stroke-linecap="round" />
<polygon points="-512,-160 -640,-160 -640,-160 -640,-192 -512,-192 " fill="rgb(232,15,232)" stroke="rgb(70,70,70)" stroke-width="10" stroke-linecap="round" />
<polygon points="-640,32 -640,-160 -512,-160 -512,-160 -512,32 -512,32 -512,32 -640,32 " fill="rgb(232,15,232)" stroke="rgb(70,70,70)" stroke-width="10" stroke-linecap="round" />
<polygon points="-480,0 -480,-128 -480,-128 -448,-128 -448,0 " fill="rgb(26,243,243)" stroke="rgb(70,70,70)" stroke-width="10" stroke-linecap="round" />
<polygon points="-480,0 -512,0 -512,-128 -480,-128 -480,0 " fill="rgb(228,11,11)" stroke="rgb(70,70,70)" stroke-width="10" stroke-linecap="round" />
<polygon points="64,-128 64,0 64,0 0,0 0,0 0,-128 " fill="rgb(232,15,232)" stroke="rgb(70,70,70)" stroke-width="10" stroke-linecap="round" />
<polygon points="128,0 128,0 64,0 64,0 64,-128 128,-128 " fill="rgb(232,15,232)" stroke="rgb(70,70,70)" stroke-width="10" stroke-linecap="round" />
<polygon points="192,0 192,0 128,0 128,0 128,-128 192,-128 " fill="rgb(232,15,232)" stroke="rgb(70,70,70)" stroke-width="10" stroke-linecap="round" />
<polygon points="256,-128 256,0 256,0 192,0 192,0 192,-128 " fill="rgb(26,243,243)" stroke="rgb(70,70,70)" stroke-width="10" stroke-linecap="round" />
<polygon points="448,0 320,0 320,-320 320,-320 448,-448 " fill="rgb(22,239,22)" stroke="rgb(70,70,70)" stroke-width="10" stroke-linecap="round" />
<polygon points="320,0 256,0 256,0 256,-128 256,-128 320,-128 " fill="rgb(251,251,34)" stroke="rgb(70,70,70)" stroke-width="10" stroke-linecap="round" />
<polygon points="320,192 320,0 448,0 448,320 320,192 " fill="rgb(26,243,243)" stroke="rgb(70,70,70)" stroke-width="10" stroke-linecap="round" />
<polygon points="448,352 0,352 0,192 0,192 0,192 0,192 320,192 448,320 448,320 " fill="rgb(26,243,243)" stroke="rgb(70,70,70)" stroke-width="10" stroke-linecap="round" />
<polygon points="768,512 768,512 768,576 640,576 640,576 640,512 " fill="rgb(232,15,232)" stroke="rgb(70,70,70)" stroke-width="10" stroke-linecap="round" />
<polygon points="768,448 768,448 768,512 640,512 640,512 640,448 " fill="rgb(228,11,11)" stroke="rgb(70,70,70)" stroke-width="10" stroke-linecap="round" />
<polygon points="768,384 768,384 768,448 640,448 640,448 640,384 " fill="rgb(232,15,232)" stroke="rgb(70,70,70)" stroke-width="10" stroke-linecap="round" />
<polygon points="832,64 832,64 832,64 832,320 448,320 448,320 448,320 448,64 832,64 " fill="rgb(26,243,243)" stroke="rgb(70,70,70)" stroke-width="10" stroke-linecap="round" />
<polygon points="768,320 768,384 640,384 640,384 640,320 " fill="rgb(22,239,22)" stroke="rgb(70,70,70)" stroke-width="10" stroke-linecap="round" />
<polygon points="832,-168 832,40 832,40 600,40 600,40 600,-168 832,-168 " fill="rgb(251,251,34)" stroke="rgb(70,70,70)" stroke-width="10" stroke-linecap="round" />
<polygon points="600,40 808,40 808,64 600,64 600,64 600,40 " fill="rgb(228,11,11)" stroke="rgb(70,70,70)" stroke-width="10" stroke-linecap="round" />
<polygon points="576,64 448,64 448,-168 576,-168 576,64 576,64 " fill="rgb(228,11,11)" stroke="rgb(70,70,70)" stroke-width="10" stroke-linecap="round" />
<polygon points="600,-168 600,-168 600,40 576,40 576,-168 576,-168 " fill="rgb(3,3,220)" stroke="rgb(70,70,70)" stroke-width="10" stroke-linecap="round" />
<polygon points="448,-192 448,-192 448,-192 448,-192 448,-448 832,-448 832,-448 832,-448 832,-192 " fill="rgb(26,243,243)" stroke="rgb(70,70,70)" stroke-width="10" stroke-linecap="round" />
<polygon points="768,-512 768,-448 640,-448 640,-512 768,-512 " fill="rgb(3,3,220)" stroke="rgb(70,70,70)" stroke-width="10" stroke-linecap="round" />
<polygon points="600,-168 600,-192 600,-192 808,-192 808,-168 " fill="rgb(3,3,220)" stroke="rgb(70,70,70)" stroke-width="10" stroke-linecap="round" />
<polygon points="576,-192 576,-168 448,-168 448,-192 " fill="rgb(232,15,232)" stroke="rgb(70,70,70)" stroke-width="10" stroke-linecap="round" />
<polygon points="-128,768 -128,1216 -128,1216 -576,768 -576,768 -128,768 " fill="rgb(232,15,232)" stroke="rgb(70,70,70)" stroke-width="10" stroke-linecap="round" />
<polygon points="-128,1216 -128,768 -128,768 -64,768 -64,1280 -64,1280 -64,1280 -64,1280 " fill="rgb(228,11,11)" stroke="rgb(70,70,70)" stroke-width="10" stroke-linecap="round" />
<polygon points="-64,704 -64,704 -64,768 -64,768 -576,768 -576,768 -640,704 -64,704 -64,704 " fill="rgb(228,11,11)" stroke="rgb(70,70,70)" stroke-width="10" stroke-linecap="round" />
<polygon points="-320,680 -320,680 -320,704 -448,704 -448,680 " fill="rgb(251,251,34)" stroke="rgb(70,70,70)" stroke-width="10" stroke-linecap="round" />
<polygon points="-320,664 -448,664 -448,608 -448,608 -320,608 -320,664 " fill="rgb(22,239,22)" stroke="rgb(70,70,70)" stroke-width="10" stroke-linecap="round" />
<polygon points="-448,664 -320,664 -320,664 -320,680 -448,680 -448,680 " fill="rgb(26,243,243)" stroke="rgb(70,70,70)" stroke-width="10" stroke-linecap="round" />
<polygon points="-320,576 -320,576 -320,608 -448,608 -448,608 -448,576 " fill="rgb(232,15,232)" stroke="rgb(70,70,70)" stroke-width="10" stroke-linecap="round" />
<polygon points="-640,704 -576,768 -576,1344 -576,1344 -640,1344 -640,704 " fill="rgb(232,15,232)" stroke="rgb(70,70,70)" stroke-width="10" stroke-linecap="round" />
<polygon points="-512,832 -512,832 -512,1152 -576,1152 -576,1152 -576,768 " fill="rgb(251,251,34)" stroke="rgb(70,70,70)" stroke-width="10" stroke-linecap="round" />
<polygon points="-512,1344 -512,1344 -576,1344 -576,1344 -576,1216 -512,1216 -512,1344 " fill="rgb(232,15,232)" stroke="rgb(70,70,70)" stroke-width="10" stroke-linecap="round" />
<polygon points="-512,1344 -512,1344 -512,1408 -640,1408 -640,1344 " fill="rgb(232,15,232)" stroke="rgb(70,70,70)" stroke-width="10" stroke-linecap="round" />
<polygon points="-256,1312 -256,1472 -256,1472 -384,1472 -384,1472 -384,1312 -256,1312 " fill="rgb(251,251,34)" stroke="rgb(70,70,70)" stroke-width="10" stroke-linecap="round" />
<polygon points="-256,1344 -64,1344 -64,1472 -64,1472 -256,1472 -256,1472 " fill="rgb(228,11,11)" stroke="rgb(70,70,70)" stroke-width="10" stroke-linecap="round" />
<polygon points="-384,1280 -512,1152 -512,832 -64,1280 -64,1280 -64,1280 -384,1280 -384,1280 " fill="rgb(251,251,34)" stroke="rgb(70,70,70)" stroke-width="10" stroke-linecap="round" />
<polygon points="-384,1312 -384,1280 -256,1280 -256,1312 " fill="rgb(228,11,11)" stroke="rgb(70,70,70)" stroke-width="10" stroke-linecap="round" />
<polygon points="-40,960 -40,1088 -40,1088 -64,1088 -64,1088 -64,960 " fill="rgb(26,243,243)" stroke="rgb(70,70,70)" stroke-width="10" stroke-linecap="round" />
<polygon points="-40,1472 -64,1472 -64,1472 -64,1344 -40,1344 " fill="rgb(3,3,220)" stroke="rgb(70,70,70)" stroke-width="10" stroke-linecap="round" />
<polygon points="-24,1088 -24,1088 -24,960 -24,960 0,960 0,1088 " fill="rgb(232,15,232)" stroke="rgb(70,70,70)" stroke-width="10" stroke-linecap="round" />
<polygon points="-24,1088 -40,1088 -40,1088 -40,960 -40,960 -24,960 -24,1088 " fill="rgb(22,239,22)" stroke="rgb(70,70,70)" stroke-width="10" stroke-linecap="round" />
<polygon points="0,1472 0,1472 -40,1472 -40,1472 -40,1344 0,1344 " fill="rgb(26,243,243)" stroke="rgb(70,70,70)" stroke-width="10" stroke-linecap="round" />
<polygon points="0,1088 0,960 32,960 32,1088 32,1088 0,1088 " fill="rgb(26,243,243)" stroke="rgb(70,70,70)" stroke-width="10" stroke-linecap="round" />
<polygon points="32,960 64,960 64,1088 64,1088 32,1088 32,1088 32,960 " fill="rgb(228,11,11)" stroke="rgb(70,70,70)" stroke-width="10" stroke-linecap="round" />
<polygon points="0,1472 0,1344 0,1344 64,1344 64,1472 64,1472 0,1472 " fill="rgb(22,239,22)" stroke="rgb(70,70,70)" stroke-width="10" stroke-linecap="round" />
<polygon points="64,960 128,960 128,1088 128,1088 64,1088 64,1088 64,960 " fill="rgb(251,251,34)" stroke="rgb(70,70,70)" stroke-width="10" stroke-linecap="round" />
<polygon points="128,960 192,960 192,1088 192,1088 128,1088 128,1088 128,960 " fill="rgb(3,3,220)" stroke="rgb(70,70,70)" stroke-width="10" stroke-linecap="round" />
<polygon points="256,1088 192,1088 192,1088 192,960 192,960 256,960 256,1088 " fill="rgb(26,243,243)" stroke="rgb(70,70,70)" stroke-width="10" stroke-linecap="round" />
<polygon points="64,1344 128,1344 128,1472 128,1472 64,1472 64,1472 64,1344 " fill="rgb(251,251,34)" stroke="rgb(70,70,70)" stroke-width="10" stroke-linecap="round" />
<polygon points="128,1344 192,1344 192,1472 192,1472 128,1472 128,1472 128,1344 " fill="rgb(228,11,11)" stroke="rgb(70,70,70)" stroke-width="10" stroke-linecap="round" />
<polygon points="256,1472 192,1472 192,1472 192,1344 192,1344 256,1344 256,1472 " fill="rgb(228,11,11)" stroke="rgb(70,70,70)" stroke-width="10" stroke-linecap="round" />
<polygon points="768,832 384,832 384,768 768,768 768,768 768,768 768,768 " fill="rgb(251,251,34)" stroke="rgb(70,70,70)" stroke-width="10" stroke-linecap="round" />
<polygon points="768,704 768,704 768,768 768,768 640,768 640,768 640,704 " fill="rgb(251,251,34)" stroke="rgb(70,70,70)" stroke-width="10" stroke-linecap="round" />
<polygon points="640,704 640,640 768,640 768,640 768,704 768,704 640,704 " fill="rgb(251,251,34)" stroke="rgb(70,70,70)" stroke-width="10" stroke-linecap="round" />
<polygon points="768,576 768,576 768,640 768,640 640,640 640,640 640,576 " fill="rgb(3,3,220)" stroke="rgb(70,70,70)" stroke-width="10" stroke-linecap="round" />
<polygon points="1248,736 1088,576 1088,576 1408,576 1408,576 1248,736 " fill="rgb(26,243,243)" stroke="rgb(70,70,70)" stroke-width="10" stroke-linecap="round" />
<polygon points="1024,832 1024,832 1024,576 1024,576 1088,576 1248,736 1248,736 1152,832 1152,832 " fill="rgb(3,3,220)" stroke="rgb(70,70,70)" stroke-width="10" stroke-linecap="round" />
<polygon points="960,768 1024,768 1024,768 1024,832 1024,832 960,832 960,832 960,768 " fill="rgb(251,251,34)" stroke="rgb(70,70,70)" stroke-width="10" stroke-linecap="round" />
<polygon points="960,768 960,768 960,768 960,832 960,832 768,832 768,768 " fill="rgb(228,11,11)" stroke="rgb(70,70,70)" stroke-width="10" stroke-linecap="round" />
<polygon points="1024,576 1024,576 1024,768 960,768 960,768 960,640 " fill="rgb(22,239,22)" stroke="rgb(70,70,70)" stroke-width="10" stroke-linecap="round" />
<polygon points="512,1472 384,1472 384,1472 384,1312 384,1312 512,1312 512,1312 512,1472 512,1472 " fill="rgb(251,251,34)" stroke="rgb(70,70,70)" stroke-width="10" stroke-linecap="round" />
<polygon points="384,832 384,832 512,832 512,1280 384,1280 384,1280 384,832 " fill="rgb(228,11,11)" stroke="rgb(70,70,70)" stroke-width="10" stroke-linecap="round" />
<polygon points="384,1312 384,1280 384,1280 512,1280 512,1280 512,1312 512,1312 384,1312 " fill="rgb(26,243,243)" stroke="rgb(70,70,70)" stroke-width="10" stroke-linecap="round" />
<polygon points="256,960 320,960 320,1088 320,1088 256,1088 256,1088 256,960 " fill="rgb(22,239,22)" stroke="rgb(70,70,70)" stroke-width="10" stroke-linecap="round" />
<polygon points="320,960 384,960 384,1088 320,1088 320,1088 320,960 " fill="rgb(26,243,243)" stroke="rgb(70,70,70)" stroke-width="10" stroke-linecap="round" />
<polygon points="256,1344 320,1344 320,1472 320,1472 256,1472 256,1472 256,1344 " fill="rgb(232,15,232)" stroke="rgb(70,70,70)" stroke-width="10" stroke-linecap="round" />
<polygon points="320,1344 320,1344 384,1344 384,1472 320,1472 320,1472 " fill="rgb(26,243,243)" stroke="rgb(70,70,70)" stroke-width="10" stroke-linecap="round" />
<polygon points="1024,832 1024,960 848,1136 848,832 848,832 1024,832 " fill="rgb(26,243,243)" stroke="rgb(70,70,70)" stroke-width="10" stroke-linecap="round" />
<polygon points="848,1136 704,1280 512,1280 512,1104 848,1104 848,1104 " fill="rgb(3,3,220)" stroke="rgb(70,70,70)" stroke-width="10" stroke-linecap="round" />
<polygon points="560,1104 512,1104 512,832 560,832 560,1104 " fill="rgb(3,3,220)" stroke="rgb(70,70,70)" stroke-width="10" stroke-linecap="round" />
<polygon points="560,944 560,832 848,832 848,944 560,944 " fill="rgb(3,3,220)" stroke="rgb(70,70,70)" stroke-width="10" stroke-linecap="round" />
<polygon points="832,1088 576,1088 576,1088 576,960 576,960 832,960 832,960 832,1088 " fill="rgb(232,15,232)" stroke="rgb(70,70,70)" stroke-width="10" stroke-linecap="round" />
<polygon points="576,1088 576,1088 560,1088 560,960 560,960 576,960 " fill="rgb(26,243,243)" stroke="rgb(70,70,70)" stroke-width="10" stroke-linecap="round" />
<polygon points="832,1088 832,1088 832,1104 560,1104 560,1104 560,1088 560,1088 " fill="rgb(232,15,232)" stroke="rgb(70,70,70)" stroke-width="10" stroke-linecap="round" />
<polygon points="832,960 832,960 848,960 848,1104 848,1104 832,1104 832,1104 " fill="rgb(26,243,243)" stroke="rgb(70,70,70)" stroke-width="10" stroke-linecap="round" />
<polygon points="560,944 560,944 848,944 848,944 848,960 848,960 560,960 560,960 " fill="rgb(251,251,34)" stroke="rgb(70,70,70)" stroke-width="10" stroke-linecap="round" />
<polygon points="1984,768 1536,1216 1536,1216 1536,768 1536,768 1984,768 " fill="rgb(232,15,232)" stroke="rgb(70,70,70)" stroke-width="10" stroke-linecap="round" />
<polygon points="2048,704 2048,704 1984,768 1536,768 1536,768 1536,704 2048,704 2048,704 " fill="rgb(26,243,243)" stroke="rgb(70,70,70)" stroke-width="10" stroke-linecap="round" />
<polygon points="1472,704 1536,704 1536,704 1536,1216 1536,1216 1472,1280 1472,704 1472,704 1472,704 " fill="rgb(251,251,34)" stroke="rgb(70,70,70)" stroke-width="10" stroke-linecap="round" />
<polygon points="1856,680 1856,680 1856,704 1728,704 1728,680 " fill="rgb(26,243,243)" stroke="rgb(70,70,70)" stroke-width="10" stroke-linecap="round" />
<polygon points="1728,608 1728,608 1856,608 1856,664 1856,664 1728,664 " fill="rgb(26,243,243)" stroke="rgb(70,70,70)" stroke-width="10" stroke-linecap="round" />
<polygon points="1728,680 1728,664 1856,664 1856,664 1856,680 1728,680 " fill="rgb(26,243,243)" stroke="rgb(70,70,70)" stroke-width="10" stroke-linecap="round" />
<polygon points="1856,576 1856,608 1728,608 1728,608 1728,576 1856,576 " fill="rgb(251,251,34)" stroke="rgb(70,70,70)" stroke-width="10" stroke-linecap="round" />
<polygon points="2016,1056 2016,1056 1696,1056 1696,1056 2048,704 2048,704 2048,1024 " fill="rgb(228,11,11)" stroke="rgb(70,70,70)" stroke-width="10" stroke-linecap="round" />
<polygon points="1472,1280 1696,1056 1696,1056 1824,1056 1824,1248 1824,1248 1792,1280 1792,1280 1472,1280 " fill="rgb(251,251,34)" stroke="rgb(70,70,70)" stroke-width="10" stroke-linecap="round" />
<polygon points="1952,1120 1824,1248 1824,1248 1824,1120 1952,1120 " fill="rgb(228,11,11)" stroke="rgb(70,70,70)" stroke-width="10" stroke-linecap="round" />
<polygon points="1952,1120 1952,1120 1888,1120 1888,1056 1888,1056 2016,1056 " fill="rgb(251,251,34)" stroke="rgb(70,70,70)" stroke-width="10" stroke-linecap="round" />
<polygon points="1888,1120 1824,1120 1824,1120 1824,1056 1824,1056 1888,1056 1888,1056 1888,1120 " fill="rgb(232,15,232)" stroke="rgb(70,70,70)" stroke-width="10" stroke-linecap="round" />
<polygon points="2072,1024 2072,1024 2112,1024 2112,1344 1792,1344 1792,1304 " fill="rgb(228,11,11)" stroke="rgb(70,70,70)" stroke-width="10" stroke-linecap="round" />
<polygon points="2048,1024 2048,1024 2072,1024 1792,1304 1792,1304 1792,1280 " fill="rgb(232,15,232)" stroke="rgb(70,70,70)" stroke-width="10" stroke-linecap="round" />
<polygon points="1432,1088 1376,1088 1376,1088 1376,960 1432,960 1432,960 " fill="rgb(26,243,243)" stroke="rgb(70,70,70)" stroke-width="10" stroke-linecap="round" />
<polygon points="1344,960 1376,960 1376,1088 1376,1088 1344,1088 1344,960 " fill="rgb(3,3,220)" stroke="rgb(70,70,70)" stroke-width="10" stroke-linecap="round" />
<polygon points="1448,1088 1448,960 1448,960 1472,960 1472,1088 " fill="rgb(3,3,220)" stroke="rgb(70,70,70)" stroke-width="10" stroke-linecap="round" />
<polygon points="1448,960 1448,1088 1448,1088 1432,1088 1432,960 1432,960 " fill="rgb(251,251,34)" stroke="rgb(70,70,70)" stroke-width="10" stroke-linecap="round" />
<polygon points="1280,960 1280,960 1344,960 1344,1088 1344,1088 1280,1088 " fill="rgb(232,15,232)" stroke="rgb(70,70,70)" stroke-width="10" stroke-linecap="round" />
<polygon points="1216,960 1216,960 1280,960 1280,1088 1280,1088 1216,1088 " fill="rgb(232,15,232)" stroke="rgb(70,70,70)" stroke-width="10" stroke-linecap="round" />
<polygon points="1152,960 1152,960 1216,960 1216,1088 1216,1088 1152,1088 " fill="rgb(3,3,220)" stroke="rgb(70,70,70)" stroke-width="10" stroke-linecap="round" />
<polygon points="1152,1088 1088,1088 1088,960 1088,960 1152,960 1152,1088 " fill="rgb(232,15,232)" stroke="rgb(70,70,70)" stroke-width="10" stroke-linecap="round" />
<polygon points="1088,1088 1088,1088 896,1088 896,1088 1024,960 1088,960 " fill="rgb(3,3,220)" stroke="rgb(70,70,70)" stroke-width="10" stroke-linecap="round" />
<polygon points="1024,1088 1024,1280 704,1280 896,1088 " fill="rgb(22,239,22)" stroke="rgb(70,70,70)" stroke-width="10" stroke-linecap="round" />

</svg>

