<svg width="900" height="693" preserveAspectRatio="none" viewBox="-418 -770 2836 2244"
 xmlns="http://www.w3.org/2000/svg" xmlns:xlink="http://www.w3.org/1999/xlink">
   <defs>
    <marker id="arrow" markerWidth="10" markerHeight="10" refX="0" refY="2" orient="auto" markerUnits="strokeWidth">
      <path d="M0,0 L0,4 L5,3 z" fill="#f00" />
    </marker>
  </defs>

<line x1="1200" y1="192" x2="1200" y2="256" stroke-width="10" stroke="black"/>
<line x1="1216" y1="192" x2="1200" y2="192" stroke-width="10" stroke="black"/>
<line x1="1200" y1="256" x2="1216" y2="256" stroke-width="10" stroke="black"/>
<line x1="896" y1="128" x2="1216" y2="73" stroke-width="10" stroke="black"/>
<line x1="832" y1="0" x2="832" y2="128" stroke-width="10" stroke="black"/>
<line x1="640" y1="384" x2="896" y2="128" stroke-width="10" stroke="black"/>
<line x1="768" y1="0" x2="832" y2="0" stroke-width="10" stroke="black"/>
<line x1="768" y1="-64" x2="768" y2="0" stroke-width="10" stroke="black"/>
<line x1="952" y1="-64" x2="960" y2="-32" stroke-width="10" stroke="black"/>
<line x1="952" y1="-64" x2="888" y2="-56" stroke-width="10" stroke="black"/>
<line x1="832" y1="-64" x2="832" y2="0" stroke-width="10" stroke="black"/>
<line x1="896" y1="-16" x2="960" y2="-32" stroke-width="10" stroke="black"/>
<line x1="1088" y1="-416" x2="1088" y2="-192" stroke-width="10" stroke="black"/>
<line x1="1216" y1="-192" x2="1088" y2="-192" stroke-width="10" stroke="black"/>
<line x1="1152" y1="-88" x2="1136" y2="-120" stroke-width="10" stroke="black"/>
<line x1="1152" y1="-88" x2="1216" y2="-128" stroke-width="10" stroke="black"/>
<line x1="1200" y1="-160" x2="1136" y2="-120" stroke-width="10" stroke="black"/>
<line x1="1088" y1="-192" x2="896" y2="-144" stroke-width="10" stroke="black"/>
<line x1="640" y1="-64" x2="768" y2="-64" stroke-width="10" stroke="black"/>
<line x1="1408" y1="-64" x2="1600" y2="-64" stroke-width="10" stroke="black"/>
<line x1="1728" y1="-320" x2="1728" y2="-384" stroke-width="10" stroke="black"/>
<line x1="1664" y1="-320" x2="1728" y2="-320" stroke-width="10" stroke="black"/>
<line x1="1600" y1="-64" x2="1728" y2="64" stroke-width="10" stroke="black"/>
<line x1="1600" y1="-384" x2="1600" y2="-64" stroke-width="10" stroke="black"/>
<line x1="1816" y1="224" x2="1792" y2="128" stroke-width="10" stroke="black"/>
<line x1="1792" y1="128" x2="2080" y2="0" stroke-width="10" stroke="black"/>
<line x1="2080" y1="0" x2="2136" y2="144" stroke-width="10" stroke="black"/>
<line x1="2136" y1="144" x2="1816" y2="224" stroke-width="10" stroke="black"/>
<line x1="2176" y1="-128" x2="2176" y2="64" stroke-width="10" stroke="black"/>
<line x1="1744" y1="320" x2="2240" y2="192" stroke-width="10" stroke="black"/>
<line x1="1728" y1="320" x2="1664" y2="384" stroke-width="10" stroke="black"/>
<line x1="1744" y1="320" x2="1744" y2="64" stroke-width="10" stroke="black"/>
<line x1="2176" y1="-128" x2="1744" y2="64" stroke-width="10" stroke="black"/>
<line x1="1280" y1="-272" x2="1216" y2="-272" stroke-width="10" stroke="black"/>
<line x1="1216" y1="-336" x2="1280" y2="-336" stroke-width="10" stroke="black"/>
<line x1="1280" y1="-384" x2="1280" y2="-336" stroke-width="10" stroke="black"/>
<line x1="1216" y1="72" x2="1264" y2="64" stroke-width="10" stroke="black"/>
<line x1="1216" y1="-64" x2="1280" y2="-64" stroke-width="10" stroke="black"/>
<line x1="1264" y1="64" x2="1264" y2="256" stroke-width="10" stroke="black"/>
<line x1="1280" y1="320" x2="1280" y2="64" stroke-width="10" stroke="black"/>
<line x1="1264" y1="320" x2="1328" y2="384" stroke-width="10" stroke="black"/>
<line x1="1336" y1="-8" x2="1264" y2="64" stroke-width="10" stroke="black"/>
<line x1="1408" y1="-192" x2="1280" y2="-192" stroke-width="10" stroke="black"/>
<line x1="1408" y1="-64" x2="1408" y2="-192" stroke-width="10" stroke="black"/>
<line x1="1216" y1="-128" x2="1216" y2="-64" stroke-width="10" stroke="black"/>
<line x1="1944" y1="552" x2="1984" y2="543" stroke-width="10" stroke="black"/>
<line x1="1984" y1="384" x2="1944" y2="552" stroke-width="10" stroke="black"/>
<line x1="1664" y1="576" x2="1600" y2="576" stroke-width="10" stroke="black"/>
<line x1="1664" y1="384" x2="1664" y2="448" stroke-width="10" stroke="black"/>
<line x1="1680" y1="576" x2="1680" y2="448" stroke-width="10" stroke="black"/>
<line x1="1600" y1="656" x2="1728" y2="1152" stroke-width="10" stroke="black"/>
<line x1="1600" y1="576" x2="1600" y2="640" stroke-width="10" stroke="black"/>
<line x1="1664" y1="640" x2="1600" y2="640" stroke-width="10" stroke="black"/>
<line x1="1408" y1="656" x2="1600" y2="656" stroke-width="10" stroke="black"/>
<line x1="1984" y1="960" x2="1680" y2="656" stroke-width="10" stroke="black"/>
<line x1="2112" y1="1128" x2="2176" y2="1128" stroke-width="10" stroke="black"/>
<line x1="2176" y1="1112" x2="2112" y2="1112" stroke-width="10" stroke="black"/>
<line x1="2288" y1="1088" x2="2240" y2="1088" stroke-width="10" stroke="black"/>
<line x1="2288" y1="816" x2="2000" y2="816" stroke-width="10" stroke="black"/>
<line x1="2288" y1="896" x2="2000" y2="896" stroke-width="10" stroke="black"/>
<line x1="1984" y1="542" x2="2112" y2="512" stroke-width="10" stroke="black"/>
<line x1="2112" y1="512" x2="1984" y2="384" stroke-width="10" stroke="black"/>
<line x1="2240" y1="448" x2="1984" y2="704" stroke-width="10" stroke="black"/>
<line x1="2112" y1="704" x2="2176" y2="704" stroke-width="10" stroke="black"/>
<line x1="2000" y1="960" x2="2288" y2="960" stroke-width="10" stroke="black"/>
<line x1="1984" y1="704" x2="1984" y2="960" stroke-width="10" stroke="black"/>
<line x1="2064" y1="1184" x2="2112" y2="1152" stroke-width="10" stroke="black"/>
<line x1="1664" y1="1184" x2="1408" y2="1184" stroke-width="10" stroke="black"/>
<line x1="2176" y1="1152" x2="2112" y2="1152" stroke-width="10" stroke="black"/>
<line x1="656" y1="1152" x2="832" y2="976" stroke-width="10" stroke="black"/>
<line x1="1328" y1="656" x2="1088" y2="960" stroke-width="10" stroke="black"/>
<line x1="1152" y1="1040" x2="1152" y2="1088" stroke-width="10" stroke="black"/>
<line x1="1344" y1="1152" x2="1088" y2="960" stroke-width="10" stroke="black"/>
<line x1="1088" y1="960" x2="832" y2="960" stroke-width="10" stroke="black"/>
<line x1="640" y1="784" x2="832" y2="976" stroke-width="10" stroke="black"/>
<line x1="1344" y1="1152" x2="1408" y2="656" stroke-width="10" stroke="black"/>
<line x1="1408" y1="576" x2="1344" y2="576" stroke-width="10" stroke="black"/>
<line x1="1328" y1="656" x2="1408" y2="656" stroke-width="10" stroke="black"/>
<line x1="832" y1="1152" x2="832" y2="1216" stroke-width="10" stroke="black"/>
<line x1="960" y1="1280" x2="896" y2="1280" stroke-width="10" stroke="black"/>
<line x1="896" y1="1280" x2="896" y2="1344" stroke-width="10" stroke="black"/>
<line x1="832" y1="1216" x2="768" y2="1216" stroke-width="10" stroke="black"/>
<line x1="1216" y1="1152" x2="1152" y2="1152" stroke-width="10" stroke="black"/>
<line x1="1208" y1="440" x2="1208" y2="520" stroke-width="10" stroke="black"/>
<line x1="1288" y1="440" x2="1208" y2="440" stroke-width="10" stroke="black"/>
<line x1="1208" y1="520" x2="1288" y2="520" stroke-width="10" stroke="black"/>
<line x1="1288" y1="520" x2="1288" y2="440" stroke-width="10" stroke="black"/>
<line x1="1328" y1="576" x2="1088" y2="640" stroke-width="10" stroke="black"/>
<line x1="1344" y1="448" x2="1344" y2="384" stroke-width="10" stroke="black"/>
<line x1="1328" y1="448" x2="1328" y2="576" stroke-width="10" stroke="black"/>
<line x1="712" y1="568" x2="712" y2="632" stroke-width="10" stroke="black"/>
<line x1="776" y1="568" x2="712" y2="568" stroke-width="10" stroke="black"/>
<line x1="776" y1="632" x2="776" y2="568" stroke-width="10" stroke="black"/>
<line x1="712" y1="632" x2="776" y2="632" stroke-width="10" stroke="black"/>
<line x1="1088" y1="640" x2="960" y2="680" stroke-width="10" stroke="black"/>
<line x1="896" y1="384" x2="960" y2="680" stroke-width="10" stroke="black"/>
<line x1="1088" y1="640" x2="1088" y2="384" stroke-width="10" stroke="black"/>
<line x1="640" y1="768" x2="960" y2="680" stroke-width="10" stroke="black"/>
<line x1="1408" y1="640" x2="1408" y2="576" stroke-width="10" stroke="black"/>
<line x1="1328" y1="384" x2="1088" y2="384" stroke-width="10" stroke="black"/>
<line x1="-192" y1="320" x2="-256" y2="320" stroke-width="10" stroke="black"/>
<line x1="-256" y1="-576" x2="-192" y2="-576" stroke-width="10" stroke="black"/>
<line x1="-288" y1="576" x2="-224" y2="576" stroke-width="10" stroke="black"/>
<line x1="-288" y1="512" x2="-224" y2="512" stroke-width="10" stroke="black"/>
<line x1="-288" y1="544" x2="-224" y2="544" stroke-width="10" stroke="black"/>
<line x1="-192" y1="384" x2="-256" y2="384" stroke-width="10" stroke="black"/>
<line x1="-192" y1="1216" x2="-256" y2="1216" stroke-width="10" stroke="black"/>
<line x1="-224" y1="768" x2="-192" y2="768" stroke-width="10" stroke="black"/>
<line x1="-256" y1="1088" x2="-200" y2="1032" stroke-width="10" stroke="black"/>
<line x1="-288" y1="704" x2="-224" y2="704" stroke-width="10" stroke="black"/>
<line x1="-288" y1="640" x2="-224" y2="640" stroke-width="10" stroke="black"/>
<line x1="-288" y1="672" x2="-224" y2="672" stroke-width="10" stroke="black"/>
<line x1="-288" y1="736" x2="-224" y2="736" stroke-width="10" stroke="black"/>
<line x1="-224" y1="608" x2="-288" y2="608" stroke-width="10" stroke="black"/>
<line x1="-192" y1="768" x2="0" y2="896" stroke-width="10" stroke="black"/>
<line x1="0" y1="1280" x2="-32" y2="1280" stroke-width="10" stroke="black"/>
<line x1="64" y1="832" x2="0" y2="896" stroke-width="10" stroke="black"/>
<line x1="-128" y1="320" x2="128" y2="320" stroke-width="10" stroke="black"/>
<line x1="0" y1="576" x2="0" y2="640" stroke-width="10" stroke="black"/>
<line x1="0" y1="640" x2="64" y2="640" stroke-width="10" stroke="black"/>
<line x1="120" y1="624" x2="128" y2="624" stroke-width="10" stroke="black"/>
<line x1="64" y1="576" x2="64" y2="640" stroke-width="10" stroke="black"/>
<line x1="128" y1="424" x2="-184" y2="424" stroke-width="10" stroke="black"/>
<line x1="-128" y1="704" x2="64" y2="832" stroke-width="10" stroke="black"/>
<line x1="-64" y1="-480" x2="-32" y2="-448" stroke-width="10" stroke="black"/>
<line x1="-32" y1="-448" x2="0" y2="-512" stroke-width="10" stroke="black"/>
<line x1="64" y1="-544" x2="32" y2="-576" stroke-width="10" stroke="black"/>
<line x1="32" y1="-576" x2="32" y2="-640" stroke-width="10" stroke="black"/>
<line x1="0" y1="-512" x2="64" y2="-544" stroke-width="10" stroke="black"/>
<line x1="-128" y1="-480" x2="-64" y2="-480" stroke-width="10" stroke="black"/>
<line x1="-128" y1="-576" x2="-64" y2="-576" stroke-width="10" stroke="black"/>
<line x1="-64" y1="-576" x2="-64" y2="-640" stroke-width="10" stroke="black"/>
<line x1="-64" y1="-128" x2="64" y2="-128" stroke-width="10" stroke="black"/>
<line x1="128" y1="64" x2="-128" y2="64" stroke-width="10" stroke="black"/>
<line x1="128" y1="-384" x2="64" y2="-384" stroke-width="10" stroke="black"/>
<line x1="-128" y1="128" x2="128" y2="128" stroke-width="10" stroke="black"/>
<line x1="-192" y1="-576" x2="-192" y2="320" stroke-width="10" stroke="black"/>
<line x1="624" y1="632" x2="624" y2="720" stroke-width="10" stroke="black"/>
<line x1="320" y1="632" x2="320" y2="624" stroke-width="10" stroke="black"/>
<line x1="448" y1="624" x2="448" y2="632" stroke-width="10" stroke="black"/>
<line x1="128" y1="632" x2="320" y2="632" stroke-width="10" stroke="black"/>
<line x1="320" y1="616" x2="448" y2="616" stroke-width="10" stroke="black"/>
<line x1="128" y1="624" x2="320" y2="624" stroke-width="10" stroke="black"/>
<line x1="640" y1="1136" x2="592" y2="1088" stroke-width="10" stroke="black"/>
<line x1="576" y1="1152" x2="576" y2="1216" stroke-width="10" stroke="black"/>
<line x1="408" y1="1088" x2="408" y2="1216" stroke-width="10" stroke="black"/>
<line x1="424" y1="1088" x2="424" y2="1216" stroke-width="10" stroke="black"/>
<line x1="440" y1="1216" x2="440" y2="1088" stroke-width="10" stroke="black"/>
<line x1="592" y1="1088" x2="448" y2="944" stroke-width="10" stroke="black"/>
<line x1="448" y1="944" x2="408" y2="984" stroke-width="10" stroke="black"/>
<line x1="424" y1="1088" x2="440" y2="1088" stroke-width="10" stroke="black"/>
<line x1="624" y1="720" x2="128" y2="720" stroke-width="10" stroke="black"/>
<line x1="624" y1="496" x2="624" y2="584" stroke-width="10" stroke="black"/>
<line x1="320" y1="600" x2="320" y2="584" stroke-width="10" stroke="black"/>
<line x1="448" y1="584" x2="448" y2="600" stroke-width="10" stroke="black"/>
<line x1="320" y1="584" x2="312" y2="584" stroke-width="10" stroke="black"/>
<line x1="576" y1="-256" x2="576" y2="-448" stroke-width="10" stroke="black"/>
<line x1="296" y1="-520" x2="416" y2="-472" stroke-width="10" stroke="black"/>
<line x1="128" y1="-640" x2="296" y2="-520" stroke-width="10" stroke="black"/>
<line x1="416" y1="-472" x2="576" y2="-448" stroke-width="10" stroke="black"/>
<line x1="576" y1="128" x2="576" y2="192" stroke-width="10" stroke="black"/>
<line x1="576" y1="192" x2="640" y2="192" stroke-width="10" stroke="black"/>
<line x1="416" y1="96" x2="352" y2="96" stroke-width="10" stroke="black"/>
<line x1="352" y1="96" x2="352" y2="160" stroke-width="10" stroke="black"/>
<line x1="416" y1="160" x2="416" y2="96" stroke-width="10" stroke="black"/>
<line x1="288" y1="-128" x2="288" y2="-64" stroke-width="10" stroke="black"/>
<line x1="352" y1="-128" x2="288" y2="-128" stroke-width="10" stroke="black"/>
<line x1="352" y1="-64" x2="352" y2="-128" stroke-width="10" stroke="black"/>
<line x1="512" y1="-64" x2="448" y2="-64" stroke-width="10" stroke="black"/>
<line x1="640" y1="-216" x2="576" y2="-256" stroke-width="10" stroke="black"/>
<line x1="448" y1="-64" x2="448" y2="0" stroke-width="10" stroke="black"/>
<line x1="448" y1="0" x2="512" y2="0" stroke-width="10" stroke="black"/>
<line x1="128" y1="496" x2="240" y2="384" stroke-width="10" stroke="black"/>
<line x1="640" y1="320" x2="384" y2="320" stroke-width="10" stroke="black"/>
<line x1="576" y1="-256" x2="384" y2="-288" stroke-width="10" stroke="black"/>
<line x1="128" y1="496" x2="624" y2="496" stroke-width="10" stroke="black"/>
<line x1="320" y1="600" x2="448" y2="600" stroke-width="10" stroke="black"/>
<line x1="128" y1="64" x2="128" y2="128" stroke-width="10" stroke="black"/>
<line x1="640" y1="192" x2="640" y2="128" stroke-width="10" stroke="black"/>

</svg>

