<svg width="900" height="693" preserveAspectRatio="none" viewBox="-418 -770 2836 2244"
 xmlns="http://www.w3.org/2000/svg" xmlns:xlink="http://www.w3.org/1999/xlink">
   <defs>
    <marker id="arrow" markerWidth="10" markerHeight="10" refX="0" refY="2" orient="auto" markerUnits="strokeWidth">
      <path d="M0,0 L0,4 L5,3 z" fill="#f00" />
    </marker>
  </defs>

<polygon points="640,384 640,384 768,256 768,256 1216,256 1216,256 1216,384 640,384 640,384 640,384 " fill="rgb(251,251,34)" stroke="rgb(70,70,70)" stroke-width="10" stroke-linecap="round" />
<polygon points="896,128 1216,73 1216,192 832,192 832,192 896,128 896,128 " fill="rgb(22,239,22)" stroke="rgb(70,70,70)" stroke-width="10" stroke-linecap="round" />
<polygon points="1200,192 1200,256 1200,256 768,256 832,192 832,192 " fill="rgb(3,3,220)" stroke="rgb(70,70,70)" stroke-width="10" stroke-linecap="round" />
<polygon points="1200,256 1200,256 1200,192 1200,192 1216,192 1216,192 1216,256 1216,256 " fill="rgb(3,3,220)" stroke="rgb(70,70,70)" stroke-width="10" stroke-linecap="round" />
<polygon points="1216,-64 1216,72 896,128 896,128 1088,-64 1088,-64 " fill="rgb(3,3,220)" stroke="rgb(70,70,70)" stroke-width="10" stroke-linecap="round" />
<polygon points="640,48 832,0 832,128 832,128 640,320 640,48 " fill="rgb(22,239,22)" stroke="rgb(70,70,70)" stroke-width="10" stroke-linecap="round" />
<polygon points="896,-16 1088,-64 1088,-64 1088,-64 896,128 " fill="rgb(3,3,220)" stroke="rgb(70,70,70)" stroke-width="10" stroke-linecap="round" />
<polygon points="768,16 768,16 640,48 640,-64 768,-64 768,-64 " fill="rgb(3,3,220)" stroke="rgb(70,70,70)" stroke-width="10" stroke-linecap="round" />
<polygon points="832,0 832,0 768,16 768,0 832,0 " fill="rgb(232,15,232)" stroke="rgb(70,70,70)" stroke-width="10" stroke-linecap="round" />
<polygon points="832,0 768,0 768,0 768,-64 768,-64 832,-64 832,-64 832,0 832,0 " fill="rgb(26,243,243)" stroke="rgb(70,70,70)" stroke-width="10" stroke-linecap="round" />
<polygon points="888,-56 888,-64 952,-64 888,-56 " fill="rgb(251,251,34)" stroke="rgb(70,70,70)" stroke-width="10" stroke-linecap="round" />
<polygon points="896,-16 888,-56 952,-64 952,-64 952,-64 960,-32 960,-32 896,-16 " fill="rgb(22,239,22)" stroke="rgb(70,70,70)" stroke-width="10" stroke-linecap="round" />
<polygon points="1069,-64 1088,-64 960,-32 960,-32 " fill="rgb(26,243,243)" stroke="rgb(70,70,70)" stroke-width="10" stroke-linecap="round" />
<polygon points="640,-216 640,-464 704,-480 896,-496 1088,-416 1088,-192 1088,-192 896,-144 705,-175 " fill="rgb(228,11,11)" stroke="rgb(70,70,70)" stroke-width="10" stroke-linecap="round" />
<polygon points="1216,-224 1088,-192 1088,-416 1088,-416 1216,-416 1216,-224 1216,-224 1216,-224 1216,-224 " fill="rgb(251,251,34)" stroke="rgb(70,70,70)" stroke-width="10" stroke-linecap="round" />
<polygon points="1088,-192 1216,-224 1216,-192 1216,-192 1088,-192 " fill="rgb(232,15,232)" stroke="rgb(70,70,70)" stroke-width="10" stroke-linecap="round" />
<polygon points="888,-128 1087,-184 1183,-184 1199,-159 1133,-118 952,-64 888,-64 " fill="rgb(26,243,243)" stroke="rgb(70,70,70)" stroke-width="10" stroke-linecap="round" />
<polygon points="1216,-64 1113,-64 1216,-128 1216,-128 1216,-64 " fill="rgb(22,239,22)" stroke="rgb(70,70,70)" stroke-width="10" stroke-linecap="round" />
<polygon points="1216,-128 1216,-128 1151,-88 1135,-119 1199,-159 1216,-128 " fill="rgb(26,243,243)" stroke="rgb(70,70,70)" stroke-width="10" stroke-linecap="round" />
<polygon points="1150,-87 1113,-64 1069,-64 " fill="rgb(228,11,11)" stroke="rgb(70,70,70)" stroke-width="10" stroke-linecap="round" />
<polygon points="1600,-64 1600,127 1408,213 1408,-64 1600,-64 " fill="rgb(22,239,22)" stroke="rgb(70,70,70)" stroke-width="10" stroke-linecap="round" />
<polygon points="1408,-416 1408,-416 1600,-384 1600,-64 1600,-64 1408,-64 1408,-64 " fill="rgb(3,3,220)" stroke="rgb(70,70,70)" stroke-width="10" stroke-linecap="round" />
<polygon points="1728,69 1600,127 1600,-64 1728,64 " fill="rgb(26,243,243)" stroke="rgb(70,70,70)" stroke-width="10" stroke-linecap="round" />
<polygon points="1664,-320 1984,-320 1984,-320 2175,-127 1998,-49 1743,63 1664,-16 " fill="rgb(251,251,34)" stroke="rgb(70,70,70)" stroke-width="10" stroke-linecap="round" />
<polygon points="1984,-320 1728,-320 1728,-384 1728,-384 1920,-384 " fill="rgb(3,3,220)" stroke="rgb(70,70,70)" stroke-width="10" stroke-linecap="round" />
<polygon points="1728,-320 1728,-320 1664,-320 1664,-320 1664,-384 1728,-384 " fill="rgb(3,3,220)" stroke="rgb(70,70,70)" stroke-width="10" stroke-linecap="round" />
<polygon points="1744,384 1744,320 1744,320 2240,192 2240,384 " fill="rgb(3,3,220)" stroke="rgb(70,70,70)" stroke-width="10" stroke-linecap="round" />
<polygon points="2136,144 2136,144 1816,224 1816,224 1816,224 1791,127 2079,0 " fill="rgb(232,15,232)" stroke="rgb(70,70,70)" stroke-width="10" stroke-linecap="round" />
<polygon points="1744,149 1744,149 1791,127 1816,224 1816,224 1744,242 " fill="rgb(26,243,243)" stroke="rgb(70,70,70)" stroke-width="10" stroke-linecap="round" />
<polygon points="1744,64 1744,64 2051,-72 2051,-72 2079,0 1744,149 " fill="rgb(22,239,22)" stroke="rgb(70,70,70)" stroke-width="10" stroke-linecap="round" />
<polygon points="2176,134 2136,144 2136,144 2051,-72 2176,-127 2176,134 " fill="rgb(228,11,11)" stroke="rgb(70,70,70)" stroke-width="10" stroke-linecap="round" />
<polygon points="2176,134 2176,134 2176,208 1744,320 1744,320 1744,242 1744,242 " fill="rgb(228,11,11)" stroke="rgb(70,70,70)" stroke-width="10" stroke-linecap="round" />
<polygon points="2176,208 2176,208 2176,64 2239,191 " fill="rgb(228,11,11)" stroke="rgb(70,70,70)" stroke-width="10" stroke-linecap="round" />
<polygon points="1664,384 1408,384 1408,384 1408,213 1728,71 1728,320 1664,384 " fill="rgb(22,239,22)" stroke="rgb(70,70,70)" stroke-width="10" stroke-linecap="round" />
<polygon points="1744,320 1744,384 1680,384 " fill="rgb(228,11,11)" stroke="rgb(70,70,70)" stroke-width="10" stroke-linecap="round" />
<polygon points="1216,-336 1280,-336 1280,-336 1280,-272 1280,-272 1216,-272 1216,-272 1216,-336 " fill="rgb(232,15,232)" stroke="rgb(70,70,70)" stroke-width="10" stroke-linecap="round" />
<polygon points="1216,-272 1216,-272 1280,-272 1280,-272 1280,-224 1280,-224 1216,-224 " fill="rgb(3,3,220)" stroke="rgb(70,70,70)" stroke-width="10" stroke-linecap="round" />
<polygon points="1216,-336 1216,-336 1216,-384 1216,-384 1280,-384 1280,-336 1280,-336 " fill="rgb(3,3,220)" stroke="rgb(70,70,70)" stroke-width="10" stroke-linecap="round" />
<polygon points="1280,-416 1280,-416 1280,-416 1280,-416 1280,-416 1408,-416 1408,-192 1408,-192 1280,-192 1280,-192 1280,-416 " fill="rgb(251,251,34)" stroke="rgb(70,70,70)" stroke-width="10" stroke-linecap="round" />
<polygon points="1264,64 1216,112 1216,72 1264,64 " fill="rgb(3,3,220)" stroke="rgb(70,70,70)" stroke-width="10" stroke-linecap="round" />
<polygon points="1216,72 1216,-64 1280,-64 1280,-64 1336,-8 1264,64 1264,64 1216,72 " fill="rgb(251,251,34)" stroke="rgb(70,70,70)" stroke-width="10" stroke-linecap="round" />
<polygon points="1216,-64 1216,-64 1216,-128 1216,-128 1280,-128 1280,-64 " fill="rgb(232,15,232)" stroke="rgb(70,70,70)" stroke-width="10" stroke-linecap="round" />
<polygon points="1216,384 1216,384 1216,272 1328,384 1328,384 " fill="rgb(232,15,232)" stroke="rgb(70,70,70)" stroke-width="10" stroke-linecap="round" />
<polygon points="1408,-64 1408,384 1344,384 1344,384 1280,320 1280,64 " fill="rgb(3,3,220)" stroke="rgb(70,70,70)" stroke-width="10" stroke-linecap="round" />
<polygon points="1216,112 1264,64 1264,320 1264,320 1264,320 1264,320 1216,272 1216,112 " fill="rgb(22,239,22)" stroke="rgb(70,70,70)" stroke-width="10" stroke-linecap="round" />
<polygon points="1272,312 1264,312 1264,256 1264,256 1272,256 " fill="rgb(232,15,232)" stroke="rgb(70,70,70)" stroke-width="10" stroke-linecap="round" />
<polygon points="1680,384 1680,384 1680,384 1680,384 1984,384 1984,384 1984,384 1873,849 1680,656 1680,656 " fill="rgb(26,243,243)" stroke="rgb(70,70,70)" stroke-width="10" stroke-linecap="round" />
<polygon points="1873,849 1873,849 1942,552 1951,550 1984,543 1984,960 1984,960 " fill="rgb(22,239,22)" stroke="rgb(70,70,70)" stroke-width="10" stroke-linecap="round" />
<polygon points="1984,542 1964,547 1944,551 1984,384 1984,384 1984,384 " fill="rgb(3,3,220)" stroke="rgb(70,70,70)" stroke-width="10" stroke-linecap="round" />
<polygon points="1664,384 1664,576 1664,576 1664,576 1600,576 1600,576 1408,384 1408,384 1664,384 " fill="rgb(251,251,34)" stroke="rgb(70,70,70)" stroke-width="10" stroke-linecap="round" />
<polygon points="1664,576 1664,640 1664,640 1600,576 1664,576 " fill="rgb(251,251,34)" stroke="rgb(70,70,70)" stroke-width="10" stroke-linecap="round" />
<polygon points="1664,448 1664,448 1680,448 1680,576 1664,576 " fill="rgb(3,3,220)" stroke="rgb(70,70,70)" stroke-width="10" stroke-linecap="round" />
<polygon points="1600,656 1728,1152 1728,1152 1408,1152 1408,1152 1408,1152 1408,656 1600,656 " fill="rgb(228,11,11)" stroke="rgb(70,70,70)" stroke-width="10" stroke-linecap="round" />
<polygon points="1600,656 1600,656 1680,656 1680,656 1984,960 1984,960 1984,960 1728,1152 1728,1152 " fill="rgb(251,251,34)" stroke="rgb(70,70,70)" stroke-width="10" stroke-linecap="round" />
<polygon points="1600,576 1600,640 1600,640 1408,640 1408,640 1408,384 1408,384 1408,384 " fill="rgb(26,243,243)" stroke="rgb(70,70,70)" stroke-width="10" stroke-linecap="round" />
<polygon points="1600,640 1600,640 1600,576 1600,576 1664,640 " fill="rgb(22,239,22)" stroke="rgb(70,70,70)" stroke-width="10" stroke-linecap="round" />
<polygon points="1600,640 1600,640 1600,656 1408,656 1408,656 1408,640 1408,640 " fill="rgb(228,11,11)" stroke="rgb(70,70,70)" stroke-width="10" stroke-linecap="round" />
<polygon points="2288,1088 2000,1088 2000,1088 2000,1088 2000,960 2288,960 2288,960 2288,1088 " fill="rgb(251,251,34)" stroke="rgb(70,70,70)" stroke-width="10" stroke-linecap="round" />
<polygon points="2176,1088 2176,1088 2176,1112 2112,1112 2112,1112 2112,1088 " fill="rgb(232,15,232)" stroke="rgb(70,70,70)" stroke-width="10" stroke-linecap="round" />
<polygon points="2176,1128 2176,1128 2176,1152 2112,1152 2112,1152 2112,1128 " fill="rgb(232,15,232)" stroke="rgb(70,70,70)" stroke-width="10" stroke-linecap="round" />
<polygon points="2176,1112 2176,1112 2176,1128 2112,1128 2112,1128 2112,1112 " fill="rgb(22,239,22)" stroke="rgb(70,70,70)" stroke-width="10" stroke-linecap="round" />
<polygon points="2176,704 2288,816 2288,816 2000,816 2000,816 2112,704 2176,704 " fill="rgb(26,243,243)" stroke="rgb(70,70,70)" stroke-width="10" stroke-linecap="round" />
<polygon points="2288,896 2000,896 2000,896 2000,816 2288,816 2288,816 2288,896 " fill="rgb(26,243,243)" stroke="rgb(70,70,70)" stroke-width="10" stroke-linecap="round" />
<polygon points="2000,960 2000,896 2288,896 2288,896 2288,960 2288,960 2000,960 " fill="rgb(22,239,22)" stroke="rgb(70,70,70)" stroke-width="10" stroke-linecap="round" />
<polygon points="2240,448 2144,544 2144,544 1984,384 1984,384 1984,384 2240,384 " fill="rgb(232,15,232)" stroke="rgb(70,70,70)" stroke-width="10" stroke-linecap="round" />
<polygon points="2112,512 2144,544 1984,704 1984,704 1984,704 1984,542 2112,512 " fill="rgb(3,3,220)" stroke="rgb(70,70,70)" stroke-width="10" stroke-linecap="round" />
<polygon points="1984,384 2112,512 2112,512 1984,542 1984,542 1984,384 " fill="rgb(3,3,220)" stroke="rgb(70,70,70)" stroke-width="10" stroke-linecap="round" />
<polygon points="2112,704 2112,704 2112,640 2176,640 2176,704 " fill="rgb(228,11,11)" stroke="rgb(70,70,70)" stroke-width="10" stroke-linecap="round" />
<polygon points="2064,1184 2112,1152 2112,1152 2176,1152 2176,1152 2224,1184 " fill="rgb(251,251,34)" stroke="rgb(70,70,70)" stroke-width="10" stroke-linecap="round" />
<polygon points="1408,1184 1408,1152 1408,1152 1664,1152 1664,1152 1664,1184 1408,1184 " fill="rgb(26,243,243)" stroke="rgb(70,70,70)" stroke-width="10" stroke-linecap="round" />
<polygon points="2064,1184 2224,1184 2176,1264 2112,1264 " fill="rgb(251,251,34)" stroke="rgb(70,70,70)" stroke-width="10" stroke-linecap="round" />
<polygon points="1408,656 1408,1152 1344,1152 1344,1152 1408,656 1408,656 " fill="rgb(22,239,22)" stroke="rgb(70,70,70)" stroke-width="10" stroke-linecap="round" />
<polygon points="656,1152 656,1152 656,1152 656,1152 832,976 832,976 1008,1152 656,1152 " fill="rgb(26,243,243)" stroke="rgb(70,70,70)" stroke-width="10" stroke-linecap="round" />
<polygon points="640,784 832,976 832,976 656,1152 656,1152 656,1152 640,1136 " fill="rgb(3,3,220)" stroke="rgb(70,70,70)" stroke-width="10" stroke-linecap="round" />
<polygon points="640,768 1047,656 1328,656 1088,960 1088,960 832,960 640,768 640,768 " fill="rgb(26,243,243)" stroke="rgb(70,70,70)" stroke-width="10" stroke-linecap="round" />
<polygon points="1328,656 1408,656 1408,656 1408,656 1368,960 1368,960 1088,960 1328,656 " fill="rgb(3,3,220)" stroke="rgb(70,70,70)" stroke-width="10" stroke-linecap="round" />
<polygon points="1344,1152 1088,960 1088,960 1368,960 1344,1152 1344,1152 " fill="rgb(3,3,220)" stroke="rgb(70,70,70)" stroke-width="10" stroke-linecap="round" />
<polygon points="1152,1152 1152,1152 1152,1152 1008,1152 1008,1152 832,976 1088,976 1152,1040 " fill="rgb(3,3,220)" stroke="rgb(70,70,70)" stroke-width="10" stroke-linecap="round" />
<polygon points="1216,1152 1152,1152 1152,1152 1152,1088 1152,1088 1216,1088 " fill="rgb(22,239,22)" stroke="rgb(70,70,70)" stroke-width="10" stroke-linecap="round" />
<polygon points="1335,576 1408,556 1408,576 1335,576 " fill="rgb(3,3,220)" stroke="rgb(70,70,70)" stroke-width="10" stroke-linecap="round" />
<polygon points="1328,656 1045,656 1328,577 " fill="rgb(26,243,243)" stroke="rgb(70,70,70)" stroke-width="10" stroke-linecap="round" />
<polygon points="832,1152 832,1216 832,1216 768,1216 768,1152 832,1152 " fill="rgb(26,243,243)" stroke="rgb(70,70,70)" stroke-width="10" stroke-linecap="round" />
<polygon points="832,1152 896,1152 896,1152 896,1216 832,1216 832,1216 832,1152 " fill="rgb(26,243,243)" stroke="rgb(70,70,70)" stroke-width="10" stroke-linecap="round" />
<polygon points="896,1216 896,1344 896,1344 832,1344 832,1344 832,1216 896,1216 " fill="rgb(228,11,11)" stroke="rgb(70,70,70)" stroke-width="10" stroke-linecap="round" />
<polygon points="960,1280 896,1280 896,1280 896,1216 960,1216 " fill="rgb(228,11,11)" stroke="rgb(70,70,70)" stroke-width="10" stroke-linecap="round" />
<polygon points="960,1344 896,1344 896,1344 896,1280 896,1280 960,1280 960,1280 " fill="rgb(22,239,22)" stroke="rgb(70,70,70)" stroke-width="10" stroke-linecap="round" />
<polygon points="1328,576 1288,586 1288,586 1288,384 1288,384 1328,384 1328,384 1328,576 1328,576 " fill="rgb(228,11,11)" stroke="rgb(70,70,70)" stroke-width="10" stroke-linecap="round" />
<polygon points="1288,520 1288,520 1288,586 1088,640 1088,640 1088,520 1088,520 " fill="rgb(22,239,22)" stroke="rgb(70,70,70)" stroke-width="10" stroke-linecap="round" />
<polygon points="1288,384 1288,384 1288,440 1088,440 1088,440 1088,384 1088,384 " fill="rgb(251,251,34)" stroke="rgb(70,70,70)" stroke-width="10" stroke-linecap="round" />
<polygon points="1208,520 1088,520 1088,440 1088,440 1208,440 1208,520 " fill="rgb(22,239,22)" stroke="rgb(70,70,70)" stroke-width="10" stroke-linecap="round" />
<polygon points="1208,520 1208,520 1208,440 1208,440 1288,440 1288,440 1288,520 1288,520 " fill="rgb(228,11,11)" stroke="rgb(70,70,70)" stroke-width="10" stroke-linecap="round" />
<polygon points="1328,578 1088,644 1088,640 1328,576 1328,576 1328,578 " fill="rgb(251,251,34)" stroke="rgb(70,70,70)" stroke-width="10" stroke-linecap="round" />
<polygon points="1408,556 1344,573 1344,384 1344,384 1344,384 1408,384 1408,384 " fill="rgb(22,239,22)" stroke="rgb(70,70,70)" stroke-width="10" stroke-linecap="round" />
<polygon points="1328,448 1344,448 1344,573 1344,573 1334,576 1328,576 " fill="rgb(228,11,11)" stroke="rgb(70,70,70)" stroke-width="10" stroke-linecap="round" />
<polygon points="640,632 640,632 948,632 948,632 959,679 640,768 640,768 " fill="rgb(228,11,11)" stroke="rgb(70,70,70)" stroke-width="10" stroke-linecap="round" />
<polygon points="896,384 896,384 948,632 776,632 776,384 776,384 896,384 " fill="rgb(228,11,11)" stroke="rgb(70,70,70)" stroke-width="10" stroke-linecap="round" />
<polygon points="776,384 776,384 776,568 640,568 640,568 640,384 640,384 " fill="rgb(232,15,232)" stroke="rgb(70,70,70)" stroke-width="10" stroke-linecap="round" />
<polygon points="712,568 712,632 712,632 640,632 640,568 640,568 " fill="rgb(251,251,34)" stroke="rgb(70,70,70)" stroke-width="10" stroke-linecap="round" />
<polygon points="712,632 712,632 712,568 712,568 776,568 776,568 776,632 776,632 " fill="rgb(232,15,232)" stroke="rgb(70,70,70)" stroke-width="10" stroke-linecap="round" />
<polygon points="990,670 959,678 896,384 896,384 1088,384 1088,384 1088,640 1088,640 1088,640 " fill="rgb(232,15,232)" stroke="rgb(70,70,70)" stroke-width="10" stroke-linecap="round" />
<polygon points="1088,640 1088,644 1003,666 1088,640 " fill="rgb(251,251,34)" stroke="rgb(70,70,70)" stroke-width="10" stroke-linecap="round" />
<polygon points="-256,320 -256,-576 -192,-576 -192,-576 -192,320 -192,320 -256,320 " fill="rgb(232,15,232)" stroke="rgb(70,70,70)" stroke-width="10" stroke-linecap="round" />
<polygon points="-192,320 -192,320 -192,384 -192,384 -256,384 -256,320 " fill="rgb(251,251,34)" stroke="rgb(70,70,70)" stroke-width="10" stroke-linecap="round" />
<polygon points="-192,-576 -192,-576 -256,-576 -256,-576 -256,-640 -192,-640 -192,-640 " fill="rgb(3,3,220)" stroke="rgb(70,70,70)" stroke-width="10" stroke-linecap="round" />
<polygon points="-288,608 -288,576 -288,576 -224,576 -224,576 -224,608 -288,608 " fill="rgb(232,15,232)" stroke="rgb(70,70,70)" stroke-width="10" stroke-linecap="round" />
<polygon points="-288,544 -224,544 -224,576 -288,576 -288,576 -288,544 " fill="rgb(22,239,22)" stroke="rgb(70,70,70)" stroke-width="10" stroke-linecap="round" />
<polygon points="-288,544 -288,512 -288,512 -224,512 -224,544 -288,544 " fill="rgb(22,239,22)" stroke="rgb(70,70,70)" stroke-width="10" stroke-linecap="round" />
<polygon points="-224,400 -224,512 -288,512 -288,512 -288,400 -288,400 " fill="rgb(22,239,22)" stroke="rgb(70,70,70)" stroke-width="10" stroke-linecap="round" />
<polygon points="-192,1024 -192,1024 -192,1216 -256,1216 -256,1216 -256,1088 " fill="rgb(232,15,232)" stroke="rgb(70,70,70)" stroke-width="10" stroke-linecap="round" />
<polygon points="-192,1216 -192,1216 -192,1280 -192,1280 -256,1280 -256,1216 " fill="rgb(251,251,34)" stroke="rgb(70,70,70)" stroke-width="10" stroke-linecap="round" />
<polygon points="-288,768 -288,768 -192,768 -192,768 -192,768 -192,1024 -200,1032 -288,944 " fill="rgb(232,15,232)" stroke="rgb(70,70,70)" stroke-width="10" stroke-linecap="round" />
<polygon points="-224,736 -224,736 -224,768 -288,768 -288,768 -288,736 -288,736 " fill="rgb(26,243,243)" stroke="rgb(70,70,70)" stroke-width="10" stroke-linecap="round" />
<polygon points="-288,736 -288,704 -288,704 -224,704 -224,704 -224,736 -288,736 " fill="rgb(3,3,220)" stroke="rgb(70,70,70)" stroke-width="10" stroke-linecap="round" />
<polygon points="-288,704 -288,672 -288,672 -224,672 -224,672 -224,704 -288,704 " fill="rgb(228,11,11)" stroke="rgb(70,70,70)" stroke-width="10" stroke-linecap="round" />
<polygon points="-288,672 -288,672 -288,640 -288,640 -224,640 -224,640 -224,672 " fill="rgb(228,11,11)" stroke="rgb(70,70,70)" stroke-width="10" stroke-linecap="round" />
<polygon points="-224,608 -224,640 -288,640 -288,640 -288,608 -288,608 -224,608 " fill="rgb(228,11,11)" stroke="rgb(70,70,70)" stroke-width="10" stroke-linecap="round" />
<polygon points="0,895 -192,1088 -192,768 -192,768 " fill="rgb(251,251,34)" stroke="rgb(70,70,70)" stroke-width="10" stroke-linecap="round" />
<polygon points="63,831 0,895 -192,768 -192,768 -192,768 -128,704 " fill="rgb(22,239,22)" stroke="rgb(70,70,70)" stroke-width="10" stroke-linecap="round" />
<polygon points="-192,1280 -192,1088 -192,1088 0,895 96,991 96,1184 0,1280 -192,1280 -192,1280 -192,1280 " fill="rgb(251,251,34)" stroke="rgb(70,70,70)" stroke-width="10" stroke-linecap="round" />
<polygon points="-32,1280 -32,1280 -32,1312 -160,1312 -160,1280 " fill="rgb(3,3,220)" stroke="rgb(70,70,70)" stroke-width="10" stroke-linecap="round" />
<polygon points="-184,424 -128,320 128,320 128,320 128,424 " fill="rgb(228,11,11)" stroke="rgb(70,70,70)" stroke-width="10" stroke-linecap="round" />
<polygon points="128,128 128,320 128,320 -128,320 -128,320 -128,128 128,128 " fill="rgb(3,3,220)" stroke="rgb(70,70,70)" stroke-width="10" stroke-linecap="round" />
<polygon points="-192,640 -192,640 64,640 64,640 64,831 64,831 -129,702 " fill="rgb(251,251,34)" stroke="rgb(70,70,70)" stroke-width="10" stroke-linecap="round" />
<polygon points="0,576 0,640 0,640 -192,640 -192,512 -128,448 " fill="rgb(228,11,11)" stroke="rgb(70,70,70)" stroke-width="10" stroke-linecap="round" />
<polygon points="64,640 0,640 0,640 0,576 0,576 64,576 64,640 " fill="rgb(22,239,22)" stroke="rgb(70,70,70)" stroke-width="10" stroke-linecap="round" />
<polygon points="128,624 128,624 128,720 120,720 120,624 " fill="rgb(251,251,34)" stroke="rgb(70,70,70)" stroke-width="10" stroke-linecap="round" />
<polygon points="120,496 128,496 128,592 128,592 120,592 " fill="rgb(232,15,232)" stroke="rgb(70,70,70)" stroke-width="10" stroke-linecap="round" />
<polygon points="-64,-384 0,-512 0,-512 128,-576 128,-576 128,-384 -64,-384 -64,-384 -64,-384 " fill="rgb(22,239,22)" stroke="rgb(70,70,70)" stroke-width="10" stroke-linecap="round" />
<polygon points="-64,-480 -64,-480 -32,-448 -32,-448 -64,-384 -64,-384 " fill="rgb(3,3,220)" stroke="rgb(70,70,70)" stroke-width="10" stroke-linecap="round" />
<polygon points="-64,-480 0,-512 -32,-448 -32,-448 -64,-480 -64,-480 " fill="rgb(3,3,220)" stroke="rgb(70,70,70)" stroke-width="10" stroke-linecap="round" />
<polygon points="32,-640 128,-640 128,-640 128,-576 64,-544 32,-576 32,-576 32,-640 " fill="rgb(3,3,220)" stroke="rgb(70,70,70)" stroke-width="10" stroke-linecap="round" />
<polygon points="32,-528 32,-576 64,-544 64,-544 32,-528 " fill="rgb(3,3,220)" stroke="rgb(70,70,70)" stroke-width="10" stroke-linecap="round" />
<polygon points="32,-640 32,-640 32,-528 32,-528 -64,-480 -64,-480 -64,-640 -64,-640 " fill="rgb(232,15,232)" stroke="rgb(70,70,70)" stroke-width="10" stroke-linecap="round" />
<polygon points="-128,-480 -64,-480 -64,-480 -64,-384 -128,-384 " fill="rgb(251,251,34)" stroke="rgb(70,70,70)" stroke-width="10" stroke-linecap="round" />
<polygon points="-64,-576 -64,-576 -64,-480 -128,-480 -128,-480 -128,-576 " fill="rgb(228,11,11)" stroke="rgb(70,70,70)" stroke-width="10" stroke-linecap="round" />
<polygon points="-128,-640 -64,-640 -64,-640 -64,-576 -64,-576 -128,-576 -128,-576 " fill="rgb(22,239,22)" stroke="rgb(70,70,70)" stroke-width="10" stroke-linecap="round" />
<polygon points="64,-128 128,-64 128,64 128,64 -128,64 -128,64 -128,-64 -64,-128 64,-128 " fill="rgb(22,239,22)" stroke="rgb(70,70,70)" stroke-width="10" stroke-linecap="round" />
<polygon points="64,-384 64,-128 -64,-128 -64,-128 -64,-384 64,-384 " fill="rgb(26,243,243)" stroke="rgb(70,70,70)" stroke-width="10" stroke-linecap="round" />
<polygon points="-128,128 -128,64 128,64 128,64 128,128 128,128 -128,128 " fill="rgb(232,15,232)" stroke="rgb(70,70,70)" stroke-width="10" stroke-linecap="round" />
<polygon points="624,632 624,632 624,632 624,632 624,720 624,720 128,720 128,720 128,632 128,632 " fill="rgb(26,243,243)" stroke="rgb(70,70,70)" stroke-width="10" stroke-linecap="round" />
<polygon points="632,720 624,720 624,720 624,632 624,632 632,632 " fill="rgb(251,251,34)" stroke="rgb(70,70,70)" stroke-width="10" stroke-linecap="round" />
<polygon points="448,632 320,632 320,632 320,624 320,624 448,624 448,632 " fill="rgb(232,15,232)" stroke="rgb(70,70,70)" stroke-width="10" stroke-linecap="round" />
<polygon points="128,632 128,624 320,624 320,624 320,632 320,632 128,632 " fill="rgb(228,11,11)" stroke="rgb(70,70,70)" stroke-width="10" stroke-linecap="round" />
<polygon points="448,632 448,632 448,624 448,624 632,624 632,632 " fill="rgb(3,3,220)" stroke="rgb(70,70,70)" stroke-width="10" stroke-linecap="round" />
<polygon points="448,624 320,624 320,616 448,616 448,616 " fill="rgb(232,15,232)" stroke="rgb(70,70,70)" stroke-width="10" stroke-linecap="round" />
<polygon points="448,616 320,616 320,616 320,600 448,600 448,600 " fill="rgb(22,239,22)" stroke="rgb(70,70,70)" stroke-width="10" stroke-linecap="round" />
<polygon points="544,1088 544,1088 576,1152 576,1216 440,1216 440,1088 440,1088 " fill="rgb(22,239,22)" stroke="rgb(70,70,70)" stroke-width="10" stroke-linecap="round" />
<polygon points="592,1088 640,1088 640,1136 592,1088 " fill="rgb(228,11,11)" stroke="rgb(70,70,70)" stroke-width="10" stroke-linecap="round" />
<polygon points="576,1152 576,1152 640,1152 640,1216 576,1216 " fill="rgb(3,3,220)" stroke="rgb(70,70,70)" stroke-width="10" stroke-linecap="round" />
<polygon points="128,1088 128,1088 408,1088 408,1216 408,1216 256,1216 " fill="rgb(26,243,243)" stroke="rgb(70,70,70)" stroke-width="10" stroke-linecap="round" />
<polygon points="424,1088 424,1216 408,1216 408,1088 408,1088 424,1088 " fill="rgb(26,243,243)" stroke="rgb(70,70,70)" stroke-width="10" stroke-linecap="round" />
<polygon points="440,1216 440,1216 424,1216 424,1088 424,1088 440,1088 440,1088 " fill="rgb(26,243,243)" stroke="rgb(70,70,70)" stroke-width="10" stroke-linecap="round" />
<polygon points="128,720 624,720 624,720 624,768 304,1088 304,1088 304,1088 128,1088 128,720 " fill="rgb(228,11,11)" stroke="rgb(70,70,70)" stroke-width="10" stroke-linecap="round" />
<polygon points="640,1088 592,1088 448,944 448,944 624,768 624,768 640,784 " fill="rgb(251,251,34)" stroke="rgb(70,70,70)" stroke-width="10" stroke-linecap="round" />
<polygon points="408,1088 304,1088 408,984 " fill="rgb(3,3,220)" stroke="rgb(70,70,70)" stroke-width="10" stroke-linecap="round" />
<polygon points="624,496 624,496 624,584 624,584 128,584 128,584 128,584 128,584 128,584 128,584 128,496 128,496 " fill="rgb(228,11,11)" stroke="rgb(70,70,70)" stroke-width="10" stroke-linecap="round" />
<polygon points="632,496 632,584 624,584 624,496 624,496 " fill="rgb(232,15,232)" stroke="rgb(70,70,70)" stroke-width="10" stroke-linecap="round" />
<polygon points="448,584 448,600 448,600 320,600 320,600 320,584 320,584 448,584 " fill="rgb(22,239,22)" stroke="rgb(70,70,70)" stroke-width="10" stroke-linecap="round" />
<polygon points="128,584 312,584 312,584 312,592 128,592 " fill="rgb(228,11,11)" stroke="rgb(70,70,70)" stroke-width="10" stroke-linecap="round" />
<polygon points="632,592 456,592 456,584 632,584 " fill="rgb(232,15,232)" stroke="rgb(70,70,70)" stroke-width="10" stroke-linecap="round" />
<polygon points="576,-447 640,-438 640,-245 576,-255 576,-447 " fill="rgb(251,251,34)" stroke="rgb(70,70,70)" stroke-width="10" stroke-linecap="round" />
<polygon points="128,-515 576,-447 576,-256 576,-256 372,-290 252,-320 128,-384 " fill="rgb(251,251,34)" stroke="rgb(70,70,70)" stroke-width="10" stroke-linecap="round" />
<polygon points="128,-640 128,-640 349,-481 128,-515 128,-640 " fill="rgb(232,15,232)" stroke="rgb(70,70,70)" stroke-width="10" stroke-linecap="round" />
<polygon points="349,-481 293,-521 419,-470 " fill="rgb(232,15,232)" stroke="rgb(70,70,70)" stroke-width="10" stroke-linecap="round" />
<polygon points="640,-464 640,-438 574,-447 " fill="rgb(26,243,243)" stroke="rgb(70,70,70)" stroke-width="10" stroke-linecap="round" />
<polygon points="416,320 416,320 416,192 640,192 640,192 640,320 " fill="rgb(251,251,34)" stroke="rgb(70,70,70)" stroke-width="10" stroke-linecap="round" />
<polygon points="416,0 416,0 576,0 576,0 576,192 576,192 416,192 " fill="rgb(22,239,22)" stroke="rgb(70,70,70)" stroke-width="10" stroke-linecap="round" />
<polygon points="576,128 576,0 640,0 640,128 " fill="rgb(251,251,34)" stroke="rgb(70,70,70)" stroke-width="10" stroke-linecap="round" />
<polygon points="352,0 352,288 352,288 192,128 192,0 " fill="rgb(26,243,243)" stroke="rgb(70,70,70)" stroke-width="10" stroke-linecap="round" />
<polygon points="352,96 352,0 416,0 416,96 352,96 " fill="rgb(228,11,11)" stroke="rgb(70,70,70)" stroke-width="10" stroke-linecap="round" />
<polygon points="352,160 416,160 416,320 384,320 352,288 " fill="rgb(22,239,22)" stroke="rgb(70,70,70)" stroke-width="10" stroke-linecap="round" />
<polygon points="448,0 352,0 352,-256 352,-256 448,-256 448,0 " fill="rgb(228,11,11)" stroke="rgb(70,70,70)" stroke-width="10" stroke-linecap="round" />
<polygon points="352,-256 352,-128 192,-128 192,-128 192,-256 " fill="rgb(22,239,22)" stroke="rgb(70,70,70)" stroke-width="10" stroke-linecap="round" />
<polygon points="192,-128 288,-128 288,0 288,0 192,0 " fill="rgb(251,251,34)" stroke="rgb(70,70,70)" stroke-width="10" stroke-linecap="round" />
<polygon points="288,0 288,-64 352,-64 352,0 " fill="rgb(251,251,34)" stroke="rgb(70,70,70)" stroke-width="10" stroke-linecap="round" />
<polygon points="577,-254 640,-245 640,-216 640,-216 " fill="rgb(26,243,243)" stroke="rgb(70,70,70)" stroke-width="10" stroke-linecap="round" />
<polygon points="640,-64 448,-64 448,-64 448,-256 640,-64 " fill="rgb(26,243,243)" stroke="rgb(70,70,70)" stroke-width="10" stroke-linecap="round" />
<polygon points="640,0 512,0 512,-64 640,-64 " fill="rgb(251,251,34)" stroke="rgb(70,70,70)" stroke-width="10" stroke-linecap="round" />
<polygon points="128,496 128,496 128,496 240,384 240,384 624,384 624,496 " fill="rgb(22,239,22)" stroke="rgb(70,70,70)" stroke-width="10" stroke-linecap="round" />
<polygon points="184,424 128,424 128,320 128,320 " fill="rgb(232,15,232)" stroke="rgb(70,70,70)" stroke-width="10" stroke-linecap="round" />

</svg>

