<svg width="900" height="870" preserveAspectRatio="none" viewBox="-1154 -898 4164 4036"
 xmlns="http://www.w3.org/2000/svg" xmlns:xlink="http://www.w3.org/1999/xlink">
   <defs>
    <marker id="arrow" markerWidth="10" markerHeight="10" refX="0" refY="2" orient="auto" markerUnits="strokeWidth">
      <path d="M0,0 L0,4 L5,3 z" fill="#f00" />
    </marker>
  </defs>

<line x1="2656" y1="344" x2="2656" y2="392" stroke-width="10" stroke="black"/>
<line x1="2704" y1="344" x2="2656" y2="344" stroke-width="10" stroke="black"/>
<line x1="2656" y1="392" x2="2704" y2="392" stroke-width="10" stroke="black"/>
<line x1="2704" y1="392" x2="2704" y2="344" stroke-width="10" stroke="black"/>
<line x1="2656" y1="312" x2="2704" y2="312" stroke-width="10" stroke="black"/>
<line x1="2704" y1="264" x2="2656" y2="264" stroke-width="10" stroke="black"/>
<line x1="2704" y1="312" x2="2704" y2="264" stroke-width="10" stroke="black"/>
<line x1="2656" y1="264" x2="2656" y2="312" stroke-width="10" stroke="black"/>
<line x1="2752" y1="256" x2="2752" y2="320" stroke-width="10" stroke="black"/>
<line x1="2752" y1="320" x2="2816" y2="320" stroke-width="10" stroke="black"/>
<line x1="2624" y1="640" x2="2496" y2="640" stroke-width="10" stroke="black"/>
<line x1="2576" y1="424" x2="2576" y2="472" stroke-width="10" stroke="black"/>
<line x1="2544" y1="472" x2="2544" y2="424" stroke-width="10" stroke="black"/>
<line x1="2496" y1="472" x2="2544" y2="472" stroke-width="10" stroke="black"/>
<line x1="2656" y1="424" x2="2656" y2="472" stroke-width="10" stroke="black"/>
<line x1="2704" y1="472" x2="2704" y2="424" stroke-width="10" stroke="black"/>
<line x1="2656" y1="472" x2="2704" y2="472" stroke-width="10" stroke="black"/>
<line x1="2624" y1="640" x2="2624" y2="768" stroke-width="10" stroke="black"/>
<line x1="2704" y1="424" x2="2656" y2="424" stroke-width="10" stroke="black"/>
<line x1="2464" y1="424" x2="2416" y2="424" stroke-width="10" stroke="black"/>
<line x1="2416" y1="424" x2="2416" y2="472" stroke-width="10" stroke="black"/>
<line x1="2464" y1="472" x2="2464" y2="424" stroke-width="10" stroke="black"/>
<line x1="2416" y1="472" x2="2464" y2="472" stroke-width="10" stroke="black"/>
<line x1="2464" y1="344" x2="2416" y2="344" stroke-width="10" stroke="black"/>
<line x1="2416" y1="344" x2="2416" y2="392" stroke-width="10" stroke="black"/>
<line x1="2416" y1="264" x2="2416" y2="312" stroke-width="10" stroke="black"/>
<line x1="2464" y1="264" x2="2416" y2="264" stroke-width="10" stroke="black"/>
<line x1="2416" y1="312" x2="2464" y2="312" stroke-width="10" stroke="black"/>
<line x1="2464" y1="392" x2="2464" y2="344" stroke-width="10" stroke="black"/>
<line x1="2416" y1="392" x2="2464" y2="392" stroke-width="10" stroke="black"/>
<line x1="1890" y1="564" x2="2239" y2="448" stroke-width="10" stroke="black"/>
<line x1="1584" y1="288" x2="1711" y2="288" stroke-width="10" stroke="black"/>
<line x1="1712" y1="256" x2="1712" y2="288" stroke-width="10" stroke="black"/>
<line x1="1856" y1="533" x2="1856" y2="320" stroke-width="10" stroke="black"/>
<line x1="2304" y1="576" x2="2304" y2="256" stroke-width="10" stroke="black"/>
<line x1="2496" y1="768" x2="2496" y2="640" stroke-width="10" stroke="black"/>
<line x1="2048" y1="64" x2="2176" y2="64" stroke-width="10" stroke="black"/>
<line x1="2048" y1="0" x2="2048" y2="64" stroke-width="10" stroke="black"/>
<line x1="1968" y1="0" x2="1968" y2="128" stroke-width="10" stroke="black"/>
<line x1="2432" y1="64" x2="2688" y2="64" stroke-width="10" stroke="black"/>
<line x1="2464" y1="192" x2="2432" y2="192" stroke-width="10" stroke="black"/>
<line x1="2304" y1="0" x2="2304" y2="192" stroke-width="10" stroke="black"/>
<line x1="1282" y1="0" x2="1289" y2="20" stroke-width="10" stroke="black"/>
<line x1="1408" y1="128" x2="1472" y2="128" stroke-width="10" stroke="black"/>
<line x1="1536" y1="32" x2="1536" y2="0" stroke-width="10" stroke="black"/>
<line x1="1600" y1="160" x2="1504" y2="160" stroke-width="10" stroke="black"/>
<line x1="1472" y1="128" x2="1472" y2="186" stroke-width="10" stroke="black"/>
<line x1="1712" y1="128" x2="1616" y2="128" stroke-width="10" stroke="black"/>
<line x1="1848" y1="128" x2="1736" y2="128" stroke-width="10" stroke="black"/>
<line x1="1712" y1="0" x2="1712" y2="128" stroke-width="10" stroke="black"/>
<line x1="1600" y1="0" x2="1600" y2="136" stroke-width="10" stroke="black"/>
<line x1="1872" y1="128" x2="1872" y2="0" stroke-width="10" stroke="black"/>
<line x1="2304" y1="256" x2="2464" y2="256" stroke-width="10" stroke="black"/>
<line x1="1312" y1="-400" x2="1272" y2="-560" stroke-width="10" stroke="black"/>
<line x1="1368" y1="-416" x2="1360" y2="-576" stroke-width="10" stroke="black"/>
<line x1="704" y1="-512" x2="960" y2="-448" stroke-width="10" stroke="black"/>
<line x1="1200" y1="-320" x2="1104" y2="-472" stroke-width="10" stroke="black"/>
<line x1="960" y1="-448" x2="1024" y2="-384" stroke-width="10" stroke="black"/>
<line x1="1248" y1="-368" x2="1184" y2="-528" stroke-width="10" stroke="black"/>
<line x1="1536" y1="-384" x2="1600" y2="-512" stroke-width="10" stroke="black"/>
<line x1="1472" y1="-408" x2="1512" y2="-552" stroke-width="10" stroke="black"/>
<line x1="1472" y1="-288" x2="1536" y2="-384" stroke-width="10" stroke="black"/>
<line x1="1536" y1="-32" x2="1600" y2="-32" stroke-width="10" stroke="black"/>
<line x1="1600" y1="-48" x2="1536" y2="-48" stroke-width="10" stroke="black"/>
<line x1="1536" y1="-64" x2="1472" y2="-64" stroke-width="10" stroke="black"/>
<line x1="1440" y1="-576" x2="1416" y2="-416" stroke-width="10" stroke="black"/>
<line x1="1720" y1="-512" x2="1728" y2="-552" stroke-width="10" stroke="black"/>
<line x1="1728" y1="-552" x2="1648" y2="-600" stroke-width="10" stroke="black"/>
<line x1="2112" y1="-640" x2="2112" y2="-768" stroke-width="10" stroke="black"/>
<line x1="1920" y1="-640" x2="2000" y2="-592" stroke-width="10" stroke="black"/>
<line x1="1616" y1="-544" x2="1720" y2="-512" stroke-width="10" stroke="black"/>
<line x1="1600" y1="-512" x2="2048" y2="-384" stroke-width="10" stroke="black"/>
<line x1="2048" y1="-416" x2="1720" y2="-512" stroke-width="10" stroke="black"/>
<line x1="1712" y1="-48" x2="1616" y2="-48" stroke-width="10" stroke="black"/>
<line x1="1616" y1="-32" x2="1712" y2="-32" stroke-width="10" stroke="black"/>
<line x1="1856" y1="-48" x2="1728" y2="-48" stroke-width="10" stroke="black"/>
<line x1="1728" y1="-32" x2="1856" y2="-32" stroke-width="10" stroke="black"/>
<line x1="1712" y1="-64" x2="1712" y2="-48" stroke-width="10" stroke="black"/>
<line x1="1968" y1="-48" x2="1872" y2="-48" stroke-width="10" stroke="black"/>
<line x1="1872" y1="-32" x2="1968" y2="-32" stroke-width="10" stroke="black"/>
<line x1="1984" y1="-32" x2="2048" y2="-32" stroke-width="10" stroke="black"/>
<line x1="2048" y1="-48" x2="1984" y2="-48" stroke-width="10" stroke="black"/>
<line x1="1968" y1="-64" x2="1968" y2="-48" stroke-width="10" stroke="black"/>
<line x1="1856" y1="-48" x2="1856" y2="-32" stroke-width="10" stroke="black"/>
<line x1="1872" y1="-64" x2="1856" y2="-64" stroke-width="10" stroke="black"/>
<line x1="1600" y1="-48" x2="1600" y2="-32" stroke-width="10" stroke="black"/>
<line x1="2368" y1="-384" x2="2240" y2="-384" stroke-width="10" stroke="black"/>
<line x1="2496" y1="-640" x2="2368" y2="-640" stroke-width="10" stroke="black"/>
<line x1="2368" y1="-384" x2="2368" y2="-256" stroke-width="10" stroke="black"/>
<line x1="2240" y1="-256" x2="2240" y2="-384" stroke-width="10" stroke="black"/>
<line x1="2176" y1="-128" x2="2240" y2="-128" stroke-width="10" stroke="black"/>
<line x1="2496" y1="-192" x2="2624" y2="-192" stroke-width="10" stroke="black"/>
<line x1="2496" y1="-256" x2="2496" y2="-192" stroke-width="10" stroke="black"/>
<line x1="2368" y1="-256" x2="2368" y2="-128" stroke-width="10" stroke="black"/>
<line x1="2368" y1="-256" x2="2240" y2="-256" stroke-width="10" stroke="black"/>
<line x1="2688" y1="-128" x2="2688" y2="-64" stroke-width="10" stroke="black"/>
<line x1="2696" y1="-64" x2="2696" y2="-128" stroke-width="10" stroke="black"/>
<line x1="2688" y1="-256" x2="2688" y2="-128" stroke-width="10" stroke="black"/>
<line x1="2816" y1="-704" x2="2632" y2="-704" stroke-width="10" stroke="black"/>
<line x1="2624" y1="-256" x2="2632" y2="-256" stroke-width="10" stroke="black"/>
<line x1="2632" y1="-704" x2="2632" y2="-768" stroke-width="10" stroke="black"/>
<line x1="2696" y1="-128" x2="2816" y2="-128" stroke-width="10" stroke="black"/>
<line x1="2624" y1="-256" x2="2624" y2="-192" stroke-width="10" stroke="black"/>
<line x1="2176" y1="-768" x2="2176" y2="-640" stroke-width="10" stroke="black"/>
<line x1="1984" y1="0" x2="2048" y2="0" stroke-width="10" stroke="black"/>
<line x1="-208" y1="128" x2="-208" y2="256" stroke-width="10" stroke="black"/>
<line x1="-176" y1="256" x2="-208" y2="256" stroke-width="10" stroke="black"/>
<line x1="-512" y1="256" x2="-640" y2="256" stroke-width="10" stroke="black"/>
<line x1="-640" y1="512" x2="-768" y2="512" stroke-width="10" stroke="black"/>
<line x1="-512" y1="384" x2="-512" y2="256" stroke-width="10" stroke="black"/>
<line x1="-384" y1="576" x2="-384" y2="768" stroke-width="10" stroke="black"/>
<line x1="-768" y1="544" x2="-640" y2="544" stroke-width="10" stroke="black"/>
<line x1="-640" y1="576" x2="-384" y2="576" stroke-width="10" stroke="black"/>
<line x1="-640" y1="528" x2="-768" y2="528" stroke-width="10" stroke="black"/>
<line x1="-704" y1="-448" x2="-704" y2="-256" stroke-width="10" stroke="black"/>
<line x1="-704" y1="-512" x2="-704" y2="-448" stroke-width="10" stroke="black"/>
<line x1="-640" y1="-512" x2="-704" y2="-512" stroke-width="10" stroke="black"/>
<line x1="-704" y1="-448" x2="-640" y2="-448" stroke-width="10" stroke="black"/>
<line x1="-384" y1="-256" x2="-384" y2="-448" stroke-width="10" stroke="black"/>
<line x1="-384" y1="-512" x2="-448" y2="-512" stroke-width="10" stroke="black"/>
<line x1="-448" y1="-448" x2="-384" y2="-448" stroke-width="10" stroke="black"/>
<line x1="-448" y1="-512" x2="-448" y2="-448" stroke-width="10" stroke="black"/>
<line x1="-640" y1="-192" x2="-448" y2="-192" stroke-width="10" stroke="black"/>
<line x1="-448" y1="-192" x2="-384" y2="-192" stroke-width="10" stroke="black"/>
<line x1="-448" y1="-256" x2="-448" y2="-192" stroke-width="10" stroke="black"/>
<line x1="-704" y1="-256" x2="-704" y2="-192" stroke-width="10" stroke="black"/>
<line x1="-640" y1="-192" x2="-640" y2="-256" stroke-width="10" stroke="black"/>
<line x1="-640" y1="-256" x2="-704" y2="-256" stroke-width="10" stroke="black"/>
<line x1="-368" y1="-176" x2="-368" y2="-528" stroke-width="10" stroke="black"/>
<line x1="-720" y1="-528" x2="-720" y2="-176" stroke-width="10" stroke="black"/>
<line x1="-368" y1="-528" x2="-720" y2="-528" stroke-width="10" stroke="black"/>
<line x1="-720" y1="-176" x2="-368" y2="-176" stroke-width="10" stroke="black"/>
<line x1="-512" y1="0" x2="-768" y2="0" stroke-width="10" stroke="black"/>
<line x1="-320" y1="0" x2="-320" y2="64" stroke-width="10" stroke="black"/>
<line x1="-768" y1="64" x2="-512" y2="64" stroke-width="10" stroke="black"/>
<line x1="904" y1="-328" x2="704" y2="-384" stroke-width="10" stroke="black"/>
<line x1="768" y1="-192" x2="672" y2="-192" stroke-width="10" stroke="black"/>
<line x1="640" y1="-384" x2="640" y2="-176" stroke-width="10" stroke="black"/>
<line x1="704" y1="-384" x2="640" y2="-384" stroke-width="10" stroke="black"/>
<line x1="192" y1="-448" x2="448" y2="-512" stroke-width="10" stroke="black"/>
<line x1="448" y1="-384" x2="248" y2="-328" stroke-width="10" stroke="black"/>
<line x1="256" y1="-320" x2="480" y2="-320" stroke-width="10" stroke="black"/>
<line x1="248" y1="-328" x2="98" y2="-192" stroke-width="10" stroke="black"/>
<line x1="97" y1="-192" x2="80" y2="-176" stroke-width="10" stroke="black"/>
<line x1="320" y1="-192" x2="256" y2="-192" stroke-width="10" stroke="black"/>
<line x1="512" y1="-176" x2="512" y2="-384" stroke-width="10" stroke="black"/>
<line x1="-128" y1="128" x2="-128" y2="64" stroke-width="10" stroke="black"/>
<line x1="-160" y1="256" x2="-160" y2="128" stroke-width="10" stroke="black"/>
<line x1="128" y1="768" x2="-64" y2="576" stroke-width="10" stroke="black"/>
<line x1="-128" y1="256" x2="-160" y2="256" stroke-width="10" stroke="black"/>
<line x1="80" y1="560" x2="231" y2="696" stroke-width="10" stroke="black"/>
<line x1="320" y1="288" x2="64" y2="320" stroke-width="10" stroke="black"/>
<line x1="64" y1="-128" x2="0" y2="64" stroke-width="10" stroke="black"/>
<line x1="0" y1="64" x2="0" y2="320" stroke-width="10" stroke="black"/>
<line x1="64" y1="320" x2="64" y2="288" stroke-width="10" stroke="black"/>
<line x1="448" y1="384" x2="512" y2="320" stroke-width="10" stroke="black"/>
<line x1="472" y1="408" x2="536" y2="344" stroke-width="10" stroke="black"/>
<line x1="406" y1="377" x2="479" y2="447" stroke-width="10" stroke="black"/>
<line x1="400" y1="336" x2="464" y2="272" stroke-width="10" stroke="black"/>
<line x1="352" y1="288" x2="416" y2="224" stroke-width="10" stroke="black"/>
<line x1="376" y1="312" x2="440" y2="248" stroke-width="10" stroke="black"/>
<line x1="320" y1="296" x2="406" y2="377" stroke-width="10" stroke="black"/>
<line x1="424" y1="360" x2="488" y2="296" stroke-width="10" stroke="black"/>
<line x1="320" y1="128" x2="320" y2="288" stroke-width="10" stroke="black"/>
<line x1="0" y1="320" x2="80" y2="560" stroke-width="10" stroke="black"/>
<line x1="352" y1="104" x2="416" y2="168" stroke-width="10" stroke="black"/>
<line x1="376" y1="80" x2="440" y2="144" stroke-width="10" stroke="black"/>
<line x1="448" y1="8" x2="512" y2="72" stroke-width="10" stroke="black"/>
<line x1="424" y1="32" x2="488" y2="96" stroke-width="10" stroke="black"/>
<line x1="400" y1="56" x2="464" y2="120" stroke-width="10" stroke="black"/>
<line x1="320" y1="96" x2="320" y2="128" stroke-width="10" stroke="black"/>
<line x1="80" y1="-176" x2="64" y2="-128" stroke-width="10" stroke="black"/>
<line x1="352" y1="104" x2="376" y2="80" stroke-width="10" stroke="black"/>
<line x1="416" y1="168" x2="416" y2="176" stroke-width="10" stroke="black"/>
<line x1="536" y1="176" x2="528" y2="168" stroke-width="10" stroke="black"/>
<line x1="560" y1="168" x2="552" y2="176" stroke-width="10" stroke="black"/>
<line x1="552" y1="144" x2="560" y2="152" stroke-width="10" stroke="black"/>
<line x1="552" y1="176" x2="536" y2="176" stroke-width="10" stroke="black"/>
<line x1="560" y1="152" x2="560" y2="168" stroke-width="10" stroke="black"/>
<line x1="528" y1="152" x2="536" y2="144" stroke-width="10" stroke="black"/>
<line x1="536" y1="144" x2="552" y2="144" stroke-width="10" stroke="black"/>
<line x1="528" y1="168" x2="528" y2="152" stroke-width="10" stroke="black"/>
<line x1="512" y1="128" x2="576" y2="128" stroke-width="10" stroke="black"/>
<line x1="512" y1="192" x2="512" y2="128" stroke-width="10" stroke="black"/>
<line x1="576" y1="192" x2="512" y2="192" stroke-width="10" stroke="black"/>
<line x1="576" y1="128" x2="576" y2="192" stroke-width="10" stroke="black"/>
<line x1="424" y1="176" x2="424" y2="216" stroke-width="10" stroke="black"/>
<line x1="464" y1="120" x2="440" y2="144" stroke-width="10" stroke="black"/>
<line x1="496" y1="-40" x2="560" y2="24" stroke-width="10" stroke="black"/>
<line x1="480" y1="-64" x2="452" y2="-36" stroke-width="10" stroke="black"/>
<line x1="656" y1="-40" x2="592" y2="24" stroke-width="10" stroke="black"/>
<line x1="700" y1="-36" x2="672" y2="-64" stroke-width="10" stroke="black"/>
<line x1="672" y1="-64" x2="480" y2="-64" stroke-width="10" stroke="black"/>
<line x1="1080" y1="-152" x2="1072" y2="-176" stroke-width="10" stroke="black"/>
<line x1="728" y1="32" x2="664" y2="96" stroke-width="10" stroke="black"/>
<line x1="704" y1="8" x2="640" y2="72" stroke-width="10" stroke="black"/>
<line x1="800" y1="104" x2="736" y2="168" stroke-width="10" stroke="black"/>
<line x1="776" y1="80" x2="712" y2="144" stroke-width="10" stroke="black"/>
<line x1="752" y1="56" x2="688" y2="120" stroke-width="10" stroke="black"/>
<line x1="736" y1="192" x2="736" y2="168" stroke-width="10" stroke="black"/>
<line x1="600" y1="88" x2="704" y2="192" stroke-width="10" stroke="black"/>
<line x1="640" y1="72" x2="616" y2="48" stroke-width="10" stroke="black"/>
<line x1="832" y1="96" x2="700" y2="-36" stroke-width="10" stroke="black"/>
<line x1="680" y1="-16" x2="616" y2="48" stroke-width="10" stroke="black"/>
<line x1="472" y1="-16" x2="536" y2="48" stroke-width="10" stroke="black"/>
<line x1="536" y1="344" x2="560" y2="368" stroke-width="10" stroke="black"/>
<line x1="568" y1="360" x2="600" y2="360" stroke-width="10" stroke="black"/>
<line x1="560" y1="368" x2="568" y2="368" stroke-width="10" stroke="black"/>
<line x1="672" y1="408" x2="616" y2="352" stroke-width="10" stroke="black"/>
<line x1="480" y1="704" x2="480" y2="448" stroke-width="10" stroke="black"/>
<line x1="656" y1="768" x2="672" y2="765" stroke-width="10" stroke="black"/>
<line x1="248" y1="712" x2="496" y2="768" stroke-width="10" stroke="black"/>
<line x1="672" y1="704" x2="640" y2="704" stroke-width="10" stroke="black"/>
<line x1="231" y1="696" x2="247" y2="711" stroke-width="10" stroke="black"/>
<line x1="1152" y1="320" x2="1152" y2="64" stroke-width="10" stroke="black"/>
<line x1="1088" y1="64" x2="1088" y2="96" stroke-width="10" stroke="black"/>
<line x1="1152" y1="64" x2="1080" y2="-152" stroke-width="10" stroke="black"/>
<line x1="832" y1="288" x2="832" y2="96" stroke-width="10" stroke="black"/>
<line x1="832" y1="296" x2="832" y2="288" stroke-width="10" stroke="black"/>
<line x1="796" y1="283" x2="672" y2="407" stroke-width="10" stroke="black"/>
<line x1="672" y1="764" x2="904" y2="712" stroke-width="10" stroke="black"/>
<line x1="904" y1="712" x2="1072" y2="560" stroke-width="10" stroke="black"/>
<line x1="1088" y1="320" x2="832" y2="288" stroke-width="10" stroke="black"/>
<line x1="1072" y1="560" x2="1152" y2="320" stroke-width="10" stroke="black"/>
<line x1="672" y1="448" x2="672" y2="704" stroke-width="10" stroke="black"/>
<line x1="1856" y1="576" x2="1856" y2="768" stroke-width="10" stroke="black"/>
<line x1="1600" y1="576" x2="1600" y2="768" stroke-width="10" stroke="black"/>
<line x1="1856" y1="576" x2="1890" y2="565" stroke-width="10" stroke="black"/>
<line x1="1856" y1="576" x2="1856" y2="534" stroke-width="10" stroke="black"/>
<line x1="1504" y1="512" x2="1504" y2="416" stroke-width="10" stroke="black"/>
<line x1="1344" y1="576" x2="1600" y2="576" stroke-width="10" stroke="black"/>
<line x1="1352" y1="168" x2="1408" y2="168" stroke-width="10" stroke="black"/>
<line x1="1344" y1="232" x2="1408" y2="168" stroke-width="10" stroke="black"/>
<line x1="1352" y1="168" x2="1336" y2="232" stroke-width="10" stroke="black"/>
<line x1="1504" y1="288" x2="1584" y2="288" stroke-width="10" stroke="black"/>
<line x1="1472" y1="186" x2="1472" y2="384" stroke-width="10" stroke="black"/>
<line x1="1280" y1="416" x2="1504" y2="416" stroke-width="10" stroke="black"/>
<line x1="1304" y1="64" x2="1280" y2="320" stroke-width="10" stroke="black"/>
<line x1="560" y1="368" x2="496" y2="432" stroke-width="10" stroke="black"/>
<line x1="832" y1="-176" x2="768" y2="-176" stroke-width="10" stroke="black"/>
<line x1="-176" y1="128" x2="-176" y2="256" stroke-width="10" stroke="black"/>
<line x1="1072" y1="-176" x2="904" y2="-328" stroke-width="10" stroke="black"/>
<line x1="1344" y1="832" x2="1600" y2="832" stroke-width="10" stroke="black"/>
<line x1="1344" y1="1152" x2="1600" y2="1152" stroke-width="10" stroke="black"/>
<line x1="1600" y1="1088" x2="1344" y2="1088" stroke-width="10" stroke="black"/>
<line x1="1600" y1="1728" x2="1344" y2="1728" stroke-width="10" stroke="black"/>
<line x1="1376" y1="1568" x2="1568" y2="1568" stroke-width="10" stroke="black"/>
<line x1="1344" y1="1600" x2="1376" y2="1600" stroke-width="10" stroke="black"/>
<line x1="1600" y1="1408" x2="1568" y2="1408" stroke-width="10" stroke="black"/>
<line x1="1728" y1="1920" x2="1728" y2="1728" stroke-width="10" stroke="black"/>
<line x1="1984" y1="1728" x2="1984" y2="1920" stroke-width="10" stroke="black"/>
<line x1="1728" y1="1536" x2="1600" y2="1408" stroke-width="10" stroke="black"/>
<line x1="1600" y1="1728" x2="1728" y2="1728" stroke-width="10" stroke="black"/>
<line x1="1856" y1="768" x2="1856" y2="832" stroke-width="10" stroke="black"/>
<line x1="1856" y1="832" x2="1600" y2="832" stroke-width="10" stroke="black"/>
<line x1="2240" y1="960" x2="1856" y2="832" stroke-width="10" stroke="black"/>
<line x1="1664" y1="1152" x2="1792" y2="1216" stroke-width="10" stroke="black"/>
<line x1="1600" y1="832" x2="1600" y2="1088" stroke-width="10" stroke="black"/>
<line x1="1216" y1="1728" x2="1216" y2="1920" stroke-width="10" stroke="black"/>
<line x1="704" y1="1728" x2="704" y2="1920" stroke-width="10" stroke="black"/>
<line x1="960" y1="1920" x2="960" y2="1728" stroke-width="10" stroke="black"/>
<line x1="1344" y1="1408" x2="1216" y2="1536" stroke-width="10" stroke="black"/>
<line x1="640" y1="1664" x2="704" y2="1664" stroke-width="10" stroke="black"/>
<line x1="960" y1="1728" x2="960" y2="1472" stroke-width="10" stroke="black"/>
<line x1="704" y1="1728" x2="960" y2="1728" stroke-width="10" stroke="black"/>
<line x1="656" y1="896" x2="656" y2="768" stroke-width="10" stroke="black"/>
<line x1="960" y1="1216" x2="960" y2="1312" stroke-width="10" stroke="black"/>
<line x1="832" y1="1280" x2="832" y2="1024" stroke-width="10" stroke="black"/>
<line x1="704" y1="1216" x2="704" y2="1280" stroke-width="10" stroke="black"/>
<line x1="768" y1="1408" x2="768" y2="1280" stroke-width="10" stroke="black"/>
<line x1="1024" y1="768" x2="960" y2="832" stroke-width="10" stroke="black"/>
<line x1="1152" y1="1216" x2="1280" y2="1152" stroke-width="10" stroke="black"/>
<line x1="1344" y1="1088" x2="1344" y2="832" stroke-width="10" stroke="black"/>
<line x1="2432" y1="896" x2="2400" y2="896" stroke-width="10" stroke="black"/>
<line x1="2720" y1="896" x2="2688" y2="896" stroke-width="10" stroke="black"/>
<line x1="2496" y1="832" x2="2624" y2="832" stroke-width="10" stroke="black"/>
<line x1="2624" y1="832" x2="2624" y2="768" stroke-width="10" stroke="black"/>
<line x1="2496" y1="768" x2="2496" y2="832" stroke-width="10" stroke="black"/>
<line x1="2688" y1="896" x2="2688" y2="768" stroke-width="10" stroke="black"/>
<line x1="2432" y1="768" x2="2432" y2="896" stroke-width="10" stroke="black"/>
<line x1="2688" y1="1120" x2="2688" y2="1152" stroke-width="10" stroke="black"/>
<line x1="2624" y1="1024" x2="2624" y2="1152" stroke-width="10" stroke="black"/>
<line x1="2496" y1="1024" x2="2624" y2="1024" stroke-width="10" stroke="black"/>
<line x1="2432" y1="1152" x2="2432" y2="1120" stroke-width="10" stroke="black"/>
<line x1="2400" y1="1024" x2="2496" y2="1024" stroke-width="10" stroke="black"/>
<line x1="2496" y1="1152" x2="2496" y2="1024" stroke-width="10" stroke="black"/>
<line x1="2400" y1="960" x2="2304" y2="960" stroke-width="10" stroke="black"/>
<line x1="2624" y1="1728" x2="2816" y2="1728" stroke-width="10" stroke="black"/>
<line x1="2624" y1="1664" x2="2816" y2="1664" stroke-width="10" stroke="black"/>
<line x1="2624" y1="1536" x2="2816" y2="1536" stroke-width="10" stroke="black"/>
<line x1="2624" y1="1600" x2="2816" y2="1600" stroke-width="10" stroke="black"/>
<line x1="2496" y1="1728" x2="2624" y2="1728" stroke-width="10" stroke="black"/>
<line x1="2304" y1="1664" x2="2496" y2="1664" stroke-width="10" stroke="black"/>
<line x1="2624" y1="1536" x2="2496" y2="1536" stroke-width="10" stroke="black"/>
<line x1="2304" y1="1600" x2="2496" y2="1600" stroke-width="10" stroke="black"/>
<line x1="2624" y1="1728" x2="2624" y2="1664" stroke-width="10" stroke="black"/>
<line x1="2496" y1="1152" x2="2432" y2="1152" stroke-width="10" stroke="black"/>
<line x1="2304" y1="1728" x2="2304" y2="1920" stroke-width="10" stroke="black"/>
<line x1="448" y1="1152" x2="448" y2="1216" stroke-width="10" stroke="black"/>
<line x1="320" y1="1152" x2="320" y2="1408" stroke-width="10" stroke="black"/>
<line x1="-64" y1="1280" x2="64" y2="1280" stroke-width="10" stroke="black"/>
<line x1="-64" y1="1216" x2="-64" y2="1280" stroke-width="10" stroke="black"/>
<line x1="-128" y1="1344" x2="128" y2="1344" stroke-width="10" stroke="black"/>
<line x1="64" y1="1216" x2="-64" y2="1216" stroke-width="10" stroke="black"/>
<line x1="128" y1="1344" x2="128" y2="1216" stroke-width="10" stroke="black"/>
<line x1="64" y1="1024" x2="-64" y2="1024" stroke-width="10" stroke="black"/>
<line x1="-64" y1="1024" x2="-64" y2="1088" stroke-width="10" stroke="black"/>
<line x1="128" y1="960" x2="-128" y2="960" stroke-width="10" stroke="black"/>
<line x1="128" y1="1088" x2="128" y2="960" stroke-width="10" stroke="black"/>
<line x1="192" y1="832" x2="128" y2="768" stroke-width="10" stroke="black"/>
<line x1="64" y1="896" x2="320" y2="896" stroke-width="10" stroke="black"/>
<line x1="512" y1="896" x2="512" y2="768" stroke-width="10" stroke="black"/>
<line x1="640" y1="1024" x2="576" y2="1024" stroke-width="10" stroke="black"/>
<line x1="512" y1="896" x2="496" y2="896" stroke-width="10" stroke="black"/>
<line x1="496" y1="768" x2="496" y2="896" stroke-width="10" stroke="black"/>
<line x1="-64" y1="1088" x2="64" y2="1088" stroke-width="10" stroke="black"/>
<line x1="192" y1="1920" x2="192" y2="1792" stroke-width="10" stroke="black"/>
<line x1="128" y1="1792" x2="128" y2="1920" stroke-width="10" stroke="black"/>
<line x1="128" y1="1760" x2="128" y2="1792" stroke-width="10" stroke="black"/>
<line x1="128" y1="1792" x2="192" y2="1792" stroke-width="10" stroke="black"/>
<line x1="576" y1="1664" x2="640" y2="1664" stroke-width="10" stroke="black"/>
<line x1="320" y1="1760" x2="320" y2="1664" stroke-width="10" stroke="black"/>
<line x1="448" y1="1664" x2="448" y2="1408" stroke-width="10" stroke="black"/>
<line x1="-128" y1="1760" x2="128" y2="1760" stroke-width="10" stroke="black"/>
<line x1="448" y1="1408" x2="320" y2="1408" stroke-width="10" stroke="black"/>
<line x1="-640" y1="1152" x2="-512" y2="1152" stroke-width="10" stroke="black"/>
<line x1="-512" y1="1088" x2="-640" y2="1088" stroke-width="10" stroke="black"/>
<line x1="-384" y1="1088" x2="-512" y2="1088" stroke-width="10" stroke="black"/>
<line x1="-512" y1="768" x2="-512" y2="896" stroke-width="10" stroke="black"/>
<line x1="-320" y1="1152" x2="-320" y2="768" stroke-width="10" stroke="black"/>
<line x1="-384" y1="1152" x2="-376" y2="1152" stroke-width="10" stroke="black"/>
<line x1="-384" y1="896" x2="-384" y2="1088" stroke-width="10" stroke="black"/>
<line x1="-896" y1="832" x2="-832" y2="832" stroke-width="10" stroke="black"/>
<line x1="-672" y1="1408" x2="-672" y2="1152" stroke-width="10" stroke="black"/>
<line x1="-640" y1="1088" x2="-768" y2="1088" stroke-width="10" stroke="black"/>
<line x1="-832" y1="832" x2="-832" y2="1152" stroke-width="10" stroke="black"/>
<line x1="-640" y1="1152" x2="-640" y2="1088" stroke-width="10" stroke="black"/>
<line x1="-992" y1="1792" x2="-960" y2="1792" stroke-width="10" stroke="black"/>
<line x1="-960" y1="1472" x2="-960" y2="1440" stroke-width="10" stroke="black"/>
<line x1="-704" y1="1472" x2="-640" y2="1472" stroke-width="10" stroke="black"/>
<line x1="-704" y1="1664" x2="-672" y2="1664" stroke-width="10" stroke="black"/>
<line x1="-640" y1="1600" x2="-704" y2="1600" stroke-width="10" stroke="black"/>
<line x1="-704" y1="1440" x2="-704" y2="1472" stroke-width="10" stroke="black"/>
<line x1="-160" y1="1728" x2="-192" y2="1728" stroke-width="10" stroke="black"/>
<line x1="-192" y1="1440" x2="-192" y2="1472" stroke-width="10" stroke="black"/>
<line x1="-448" y1="1600" x2="-512" y2="1600" stroke-width="10" stroke="black"/>
<line x1="-448" y1="1472" x2="-448" y2="1440" stroke-width="10" stroke="black"/>
<line x1="-512" y1="1408" x2="-512" y2="1472" stroke-width="10" stroke="black"/>
<line x1="-480" y1="1408" x2="-512" y2="1408" stroke-width="10" stroke="black"/>
<line x1="-128" y1="1792" x2="-128" y2="1760" stroke-width="10" stroke="black"/>
<line x1="640" y1="896" x2="640" y2="768" stroke-width="10" stroke="black"/>
<line x1="960" y1="2112" x2="960" y2="1984" stroke-width="10" stroke="black"/>
<line x1="1600" y1="2048" x2="1568" y2="2048" stroke-width="10" stroke="black"/>
<line x1="1728" y1="2112" x2="1728" y2="1920" stroke-width="10" stroke="black"/>
<line x1="1216" y1="1920" x2="1216" y2="2112" stroke-width="10" stroke="black"/>
<line x1="1216" y1="2112" x2="1344" y2="2240" stroke-width="10" stroke="black"/>
<line x1="1152" y1="2432" x2="1024" y2="2304" stroke-width="10" stroke="black"/>
<line x1="1600" y1="2240" x2="1664" y2="2496" stroke-width="10" stroke="black"/>
<line x1="960" y1="2112" x2="832" y2="2112" stroke-width="10" stroke="black"/>
<line x1="2112" y1="2048" x2="2112" y2="1984" stroke-width="10" stroke="black"/>
<line x1="1984" y1="1920" x2="1984" y2="2176" stroke-width="10" stroke="black"/>
<line x1="1168" y1="2640" x2="1184" y2="2640" stroke-width="10" stroke="black"/>
<line x1="856" y1="2592" x2="832" y2="2592" stroke-width="10" stroke="black"/>
<line x1="936" y1="2576" x2="968" y2="2576" stroke-width="10" stroke="black"/>
<line x1="832" y1="2648" x2="872" y2="2648" stroke-width="10" stroke="black"/>
<line x1="872" y1="2648" x2="936" y2="2576" stroke-width="10" stroke="black"/>
<line x1="1096" y1="2672" x2="1072" y2="2672" stroke-width="10" stroke="black"/>
<line x1="1184" y1="2584" x2="1152" y2="2584" stroke-width="10" stroke="black"/>
<line x1="1152" y1="2584" x2="1096" y2="2672" stroke-width="10" stroke="black"/>
<line x1="1072" y1="2672" x2="984" y2="2528" stroke-width="10" stroke="black"/>
<line x1="1048" y1="2720" x2="1120" y2="2720" stroke-width="10" stroke="black"/>
<line x1="968" y1="2576" x2="1048" y2="2720" stroke-width="10" stroke="black"/>
<line x1="984" y1="2528" x2="920" y2="2528" stroke-width="10" stroke="black"/>
<line x1="920" y1="2528" x2="856" y2="2592" stroke-width="10" stroke="black"/>
<line x1="960" y1="2432" x2="1120" y2="2432" stroke-width="10" stroke="black"/>
<line x1="1120" y1="2720" x2="1168" y2="2640" stroke-width="10" stroke="black"/>
<line x1="1184" y1="2584" x2="1184" y2="2496" stroke-width="10" stroke="black"/>
<line x1="1184" y1="2752" x2="1120" y2="2816" stroke-width="10" stroke="black"/>
<line x1="1248" y1="2816" x2="1408" y2="2816" stroke-width="10" stroke="black"/>
<line x1="896" y1="2816" x2="896" y2="2752" stroke-width="10" stroke="black"/>
<line x1="1248" y1="2944" x2="1120" y2="2816" stroke-width="10" stroke="black"/>
<line x1="1248" y1="2752" x2="1184" y2="2752" stroke-width="10" stroke="black"/>
<line x1="1280" y1="2496" x2="1152" y2="2432" stroke-width="10" stroke="black"/>
<line x1="2624" y1="2048" x2="2496" y2="2048" stroke-width="10" stroke="black"/>
<line x1="2496" y1="2048" x2="2304" y2="1920" stroke-width="10" stroke="black"/>
<line x1="2816" y1="1920" x2="2624" y2="2048" stroke-width="10" stroke="black"/>
<line x1="2240" y1="1984" x2="2240" y2="2016" stroke-width="10" stroke="black"/>
<line x1="1920" y1="2304" x2="2048" y2="2432" stroke-width="10" stroke="black"/>
<line x1="2112" y1="2176" x2="2112" y2="2112" stroke-width="10" stroke="black"/>
<line x1="2304" y1="2496" x2="2304" y2="1920" stroke-width="10" stroke="black"/>
<line x1="2840" y1="2816" x2="2816" y2="2816" stroke-width="10" stroke="black"/>
<line x1="2752" y1="2848" x2="2752" y2="2816" stroke-width="10" stroke="black"/>
<line x1="2712" y1="2752" x2="2712" y2="2816" stroke-width="10" stroke="black"/>
<line x1="2728" y1="2816" x2="2728" y2="2752" stroke-width="10" stroke="black"/>
<line x1="2752" y1="2752" x2="2752" y2="2720" stroke-width="10" stroke="black"/>
<line x1="2688" y1="2624" x2="2752" y2="2624" stroke-width="10" stroke="black"/>
<line x1="2688" y1="2752" x2="2712" y2="2752" stroke-width="10" stroke="black"/>
<line x1="2680" y1="2736" x2="2672" y2="2736" stroke-width="10" stroke="black"/>
<line x1="2680" y1="2704" x2="2680" y2="2736" stroke-width="10" stroke="black"/>
<line x1="2672" y1="2704" x2="2680" y2="2704" stroke-width="10" stroke="black"/>
<line x1="2672" y1="2736" x2="2672" y2="2704" stroke-width="10" stroke="black"/>
<line x1="2496" y1="2760" x2="2352" y2="2720" stroke-width="10" stroke="black"/>
<line x1="2280" y1="2648" x2="2368" y2="2624" stroke-width="10" stroke="black"/>
<line x1="2560" y1="2560" x2="2560" y2="2496" stroke-width="10" stroke="black"/>
<line x1="2368" y1="2624" x2="2688" y2="2624" stroke-width="10" stroke="black"/>
<line x1="2672" y1="2832" x2="2680" y2="2832" stroke-width="10" stroke="black"/>
<line x1="2672" y1="2864" x2="2672" y2="2832" stroke-width="10" stroke="black"/>
<line x1="2680" y1="2832" x2="2680" y2="2864" stroke-width="10" stroke="black"/>
<line x1="2680" y1="2864" x2="2672" y2="2864" stroke-width="10" stroke="black"/>
<line x1="2470" y1="2838" x2="2687" y2="2816" stroke-width="10" stroke="black"/>
<line x1="2688" y1="2752" x2="2496" y2="2760" stroke-width="10" stroke="black"/>
<line x1="2176" y1="2816" x2="2072" y2="2728" stroke-width="10" stroke="black"/>
<line x1="2296" y1="2784" x2="2176" y2="2816" stroke-width="10" stroke="black"/>
<line x1="2384" y1="2904" x2="2456" y2="2840" stroke-width="10" stroke="black"/>
<line x1="2120" y1="2904" x2="2384" y2="2904" stroke-width="10" stroke="black"/>
<line x1="2008" y1="2792" x2="2120" y2="2904" stroke-width="10" stroke="black"/>
<line x1="2456" y1="2840" x2="2470" y2="2839" stroke-width="10" stroke="black"/>
<line x1="2216" y1="2664" x2="2296" y2="2784" stroke-width="10" stroke="black"/>
<line x1="2296" y1="2784" x2="2456" y2="2840" stroke-width="10" stroke="black"/>
<line x1="2112" y1="2688" x2="2216" y2="2664" stroke-width="10" stroke="black"/>
<line x1="1984" y1="2880" x2="1984" y2="2816" stroke-width="10" stroke="black"/>
<line x1="1728" y1="2816" x2="1856" y2="2688" stroke-width="10" stroke="black"/>
<line x1="1408" y1="2816" x2="1728" y2="2816" stroke-width="10" stroke="black"/>
<line x1="2048" y1="2648" x2="1752" y2="2944" stroke-width="10" stroke="black"/>
<line x1="2112" y1="2688" x2="2112" y2="2496" stroke-width="10" stroke="black"/>
<line x1="2008" y1="2792" x2="2072" y2="2728" stroke-width="10" stroke="black"/>
<line x1="2352" y1="2720" x2="2280" y2="2648" stroke-width="10" stroke="black"/>
<line x1="2688" y1="2624" x2="2688" y2="2560" stroke-width="10" stroke="black"/>
<line x1="2816" y1="2496" x2="2624" y2="2496" stroke-width="10" stroke="black"/>
<line x1="1920" y1="2304" x2="1792" y2="2432" stroke-width="10" stroke="black"/>
<line x1="0" y1="2560" x2="128" y2="2560" stroke-width="10" stroke="black"/>
<line x1="-32" y1="2496" x2="-32" y2="2592" stroke-width="10" stroke="black"/>
<line x1="0" y1="2592" x2="0" y2="2560" stroke-width="10" stroke="black"/>
<line x1="-160" y1="2752" x2="-160" y2="2496" stroke-width="10" stroke="black"/>
<line x1="448" y1="2496" x2="448" y2="2560" stroke-width="10" stroke="black"/>
<line x1="704" y1="2560" x2="704" y2="2496" stroke-width="10" stroke="black"/>
<line x1="128" y1="2496" x2="128" y2="2560" stroke-width="10" stroke="black"/>
<line x1="-256" y1="2624" x2="-320" y2="2560" stroke-width="10" stroke="black"/>
<line x1="-384" y1="2560" x2="-448" y2="2624" stroke-width="10" stroke="black"/>
<line x1="-320" y1="2560" x2="-384" y2="2560" stroke-width="10" stroke="black"/>
<line x1="-320" y1="2752" x2="-256" y2="2688" stroke-width="10" stroke="black"/>
<line x1="-448" y1="2688" x2="-384" y2="2752" stroke-width="10" stroke="black"/>
<line x1="-320" y1="2688" x2="-320" y2="2624" stroke-width="10" stroke="black"/>
<line x1="-384" y1="2624" x2="-384" y2="2688" stroke-width="10" stroke="black"/>
<line x1="-384" y1="2688" x2="-320" y2="2688" stroke-width="10" stroke="black"/>
<line x1="-320" y1="2624" x2="-384" y2="2624" stroke-width="10" stroke="black"/>
<line x1="-256" y1="2688" x2="-256" y2="2624" stroke-width="10" stroke="black"/>
<line x1="-256" y1="2816" x2="-448" y2="2816" stroke-width="10" stroke="black"/>
<line x1="-240" y1="2824" x2="-176" y2="2760" stroke-width="10" stroke="black"/>
<line x1="768" y1="2816" x2="704" y2="2752" stroke-width="10" stroke="black"/>
<line x1="128" y1="2752" x2="-160" y2="2752" stroke-width="10" stroke="black"/>
<line x1="128" y1="1920" x2="128" y2="1952" stroke-width="10" stroke="black"/>
<line x1="-128" y1="1952" x2="-128" y2="1920" stroke-width="10" stroke="black"/>
<line x1="-160" y1="2400" x2="-192" y2="2400" stroke-width="10" stroke="black"/>
<line x1="-192" y1="2176" x2="-192" y2="2272" stroke-width="10" stroke="black"/>
<line x1="-320" y1="2432" x2="-320" y2="2176" stroke-width="10" stroke="black"/>
<line x1="-32" y1="2112" x2="-320" y2="2112" stroke-width="10" stroke="black"/>
<line x1="-320" y1="2176" x2="-192" y2="2176" stroke-width="10" stroke="black"/>
<line x1="256" y1="2368" x2="256" y2="2304" stroke-width="10" stroke="black"/>
<line x1="128" y1="2304" x2="128" y2="2368" stroke-width="10" stroke="black"/>
<line x1="0" y1="2432" x2="128" y2="2432" stroke-width="10" stroke="black"/>
<line x1="128" y1="2368" x2="128" y2="2432" stroke-width="10" stroke="black"/>
<line x1="128" y1="2368" x2="0" y2="2368" stroke-width="10" stroke="black"/>
<line x1="448" y1="2368" x2="448" y2="2112" stroke-width="10" stroke="black"/>
<line x1="384" y1="2176" x2="384" y2="2368" stroke-width="10" stroke="black"/>
<line x1="448" y1="2112" x2="-32" y2="2112" stroke-width="10" stroke="black"/>
<line x1="-32" y1="2272" x2="-32" y2="2496" stroke-width="10" stroke="black"/>
<line x1="704" y1="2496" x2="768" y2="2432" stroke-width="10" stroke="black"/>
<line x1="704" y1="2112" x2="576" y2="2112" stroke-width="10" stroke="black"/>
<line x1="576" y1="2112" x2="576" y2="2496" stroke-width="10" stroke="black"/>
<line x1="704" y1="1952" x2="192" y2="1952" stroke-width="10" stroke="black"/>
<line x1="0" y1="2496" x2="128" y2="2496" stroke-width="10" stroke="black"/>
<line x1="-576" y1="2208" x2="-576" y2="2184" stroke-width="10" stroke="black"/>
<line x1="-640" y1="2208" x2="-640" y2="2464" stroke-width="10" stroke="black"/>
<line x1="-672" y1="2048" x2="-704" y2="2048" stroke-width="10" stroke="black"/>
<line x1="-896" y1="2136" x2="-768" y2="2136" stroke-width="10" stroke="black"/>
<line x1="-768" y1="2128" x2="-896" y2="2128" stroke-width="10" stroke="black"/>
<line x1="-704" y1="2080" x2="-768" y2="2080" stroke-width="10" stroke="black"/>
<line x1="-768" y1="2176" x2="-704" y2="2176" stroke-width="10" stroke="black"/>
<line x1="-896" y1="2688" x2="-896" y2="2624" stroke-width="10" stroke="black"/>
<line x1="-608" y1="2752" x2="-640" y2="2560" stroke-width="10" stroke="black"/>
<line x1="-704" y1="2560" x2="-704" y2="2752" stroke-width="10" stroke="black"/>
<line x1="-640" y1="2464" x2="-704" y2="2528" stroke-width="10" stroke="black"/>
<line x1="-576" y1="2560" x2="-512" y2="2496" stroke-width="10" stroke="black"/>
<line x1="-640" y1="2464" x2="-640" y2="2488" stroke-width="10" stroke="black"/>
<line x1="-832" y1="2560" x2="-704" y2="2560" stroke-width="10" stroke="black"/>
<line x1="-608" y1="2768" x2="-576" y2="2944" stroke-width="10" stroke="black"/>
<line x1="-704" y1="2768" x2="-608" y2="2768" stroke-width="10" stroke="black"/>
<line x1="-448" y1="2816" x2="-512" y2="2816" stroke-width="10" stroke="black"/>
<line x1="-576" y1="2768" x2="-520" y2="2824" stroke-width="10" stroke="black"/>
<line x1="-576" y1="2752" x2="-608" y2="2752" stroke-width="10" stroke="black"/>
<line x1="-512" y1="2464" x2="-576" y2="2464" stroke-width="10" stroke="black"/>
<line x1="-448" y1="1952" x2="-448" y2="1920" stroke-width="10" stroke="black"/>
<line x1="832" y1="2752" x2="832" y2="2648" stroke-width="10" stroke="black"/>
<line x1="-128" y1="1920" x2="-192" y2="1920" stroke-width="10" stroke="black"/>
<line x1="-896" y1="768" x2="-1024" y2="768" stroke-width="10" stroke="black"/>

</svg>

