<svg width="900" height="1365" preserveAspectRatio="none" viewBox="-1474 -3530 3556 5260"
 xmlns="http://www.w3.org/2000/svg" xmlns:xlink="http://www.w3.org/1999/xlink">
   <defs>
    <marker id="arrow" markerWidth="10" markerHeight="10" refX="0" refY="2" orient="auto" markerUnits="strokeWidth">
      <path d="M0,0 L0,4 L5,3 z" fill="#f00" />
    </marker>
  </defs>

<line x1="-64" y1="-3040" x2="-192" y2="-3040" stroke-width="10" stroke="black"/>
<line x1="-192" y1="-3168" x2="-64" y2="-3168" stroke-width="10" stroke="black"/>
<line x1="-24" y1="-3288" x2="64" y2="-3200" stroke-width="10" stroke="black"/>
<line x1="80" y1="-3216" x2="-8" y2="-3304" stroke-width="10" stroke="black"/>
<line x1="80" y1="-3160" x2="176" y2="-3160" stroke-width="10" stroke="black"/>
<line x1="64" y1="-3200" x2="64" y2="-3176" stroke-width="10" stroke="black"/>
<line x1="80" y1="-3216" x2="64" y2="-3200" stroke-width="10" stroke="black"/>
<line x1="-48" y1="-3288" x2="-24" y2="-3288" stroke-width="10" stroke="black"/>
<line x1="-24" y1="-3288" x2="-8" y2="-3304" stroke-width="10" stroke="black"/>
<line x1="-64" y1="-3400" x2="-64" y2="-3304" stroke-width="10" stroke="black"/>
<line x1="80" y1="-3032" x2="64" y2="-3016" stroke-width="10" stroke="black"/>
<line x1="-24" y1="-2904" x2="-48" y2="-2904" stroke-width="10" stroke="black"/>
<line x1="-8" y1="-2888" x2="80" y2="-2976" stroke-width="10" stroke="black"/>
<line x1="64" y1="-2992" x2="-24" y2="-2904" stroke-width="10" stroke="black"/>
<line x1="176" y1="-3032" x2="80" y2="-3032" stroke-width="10" stroke="black"/>
<line x1="0" y1="-2432" x2="0" y2="-2304" stroke-width="10" stroke="black"/>
<line x1="320" y1="-2432" x2="448" y2="-2304" stroke-width="10" stroke="black"/>
<line x1="320" y1="-2432" x2="320" y2="-2848" stroke-width="10" stroke="black"/>
<line x1="-56" y1="-2488" x2="-8" y2="-2440" stroke-width="10" stroke="black"/>
<line x1="8" y1="-2456" x2="-40" y2="-2504" stroke-width="10" stroke="black"/>
<line x1="0" y1="-2432" x2="320" y2="-2432" stroke-width="10" stroke="black"/>
<line x1="320" y1="-2848" x2="448" y2="-2720" stroke-width="10" stroke="black"/>
<line x1="-192" y1="-2496" x2="-64" y2="-2496" stroke-width="10" stroke="black"/>
<line x1="-96" y1="-2848" x2="-64" y2="-2848" stroke-width="10" stroke="black"/>
<line x1="-96" y1="-2872" x2="-160" y2="-2872" stroke-width="10" stroke="black"/>
<line x1="-160" y1="-2864" x2="-96" y2="-2864" stroke-width="10" stroke="black"/>
<line x1="104" y1="-2888" x2="48" y2="-2832" stroke-width="10" stroke="black"/>
<line x1="-64" y1="-2848" x2="-64" y2="-2496" stroke-width="10" stroke="black"/>
<line x1="-56" y1="-2488" x2="-40" y2="-2504" stroke-width="10" stroke="black"/>
<line x1="-96" y1="-2888" x2="-160" y2="-2888" stroke-width="10" stroke="black"/>
<line x1="-1216" y1="-2304" x2="-1216" y2="-2432" stroke-width="10" stroke="black"/>
<line x1="-928" y1="-2304" x2="-928" y2="-2432" stroke-width="10" stroke="black"/>
<line x1="-960" y1="-2432" x2="-960" y2="-2304" stroke-width="10" stroke="black"/>
<line x1="-1232" y1="-2432" x2="-1232" y2="-2304" stroke-width="10" stroke="black"/>
<line x1="-1224" y1="-2304" x2="-1224" y2="-2432" stroke-width="10" stroke="black"/>
<line x1="-256" y1="-2304" x2="-256" y2="-2432" stroke-width="10" stroke="black"/>
<line x1="-664" y1="-2400" x2="-664" y2="-2432" stroke-width="10" stroke="black"/>
<line x1="-688" y1="-2400" x2="-688" y2="-2336" stroke-width="10" stroke="black"/>
<line x1="-704" y1="-2432" x2="-704" y2="-2400" stroke-width="10" stroke="black"/>
<line x1="-680" y1="-2336" x2="-680" y2="-2400" stroke-width="10" stroke="black"/>
<line x1="-896" y1="-2432" x2="-896" y2="-2304" stroke-width="10" stroke="black"/>
<line x1="-248" y1="-2440" x2="-200" y2="-2488" stroke-width="10" stroke="black"/>
<line x1="-216" y1="-2504" x2="-264" y2="-2456" stroke-width="10" stroke="black"/>
<line x1="-1152" y1="-2496" x2="-1152" y2="-2880" stroke-width="10" stroke="black"/>
<line x1="-960" y1="-2496" x2="-960" y2="-2432" stroke-width="10" stroke="black"/>
<line x1="-1024" y1="-2880" x2="-1024" y2="-2496" stroke-width="10" stroke="black"/>
<line x1="-248" y1="-2440" x2="-264" y2="-2456" stroke-width="10" stroke="black"/>
<line x1="-320" y1="-3200" x2="-232" y2="-3288" stroke-width="10" stroke="black"/>
<line x1="-248" y1="-3304" x2="-336" y2="-3216" stroke-width="10" stroke="black"/>
<line x1="-424" y1="-3160" x2="-336" y2="-3160" stroke-width="10" stroke="black"/>
<line x1="-320" y1="-3176" x2="-320" y2="-3200" stroke-width="10" stroke="black"/>
<line x1="-320" y1="-3200" x2="-336" y2="-3216" stroke-width="10" stroke="black"/>
<line x1="-232" y1="-3288" x2="-208" y2="-3288" stroke-width="10" stroke="black"/>
<line x1="-248" y1="-3304" x2="-232" y2="-3288" stroke-width="10" stroke="black"/>
<line x1="-248" y1="-2888" x2="-304" y2="-2832" stroke-width="10" stroke="black"/>
<line x1="-192" y1="-2888" x2="-208" y2="-2904" stroke-width="10" stroke="black"/>
<line x1="-232" y1="-2904" x2="-320" y2="-2992" stroke-width="10" stroke="black"/>
<line x1="-336" y1="-2976" x2="-248" y2="-2888" stroke-width="10" stroke="black"/>
<line x1="-336" y1="-3032" x2="-424" y2="-3032" stroke-width="10" stroke="black"/>
<line x1="-216" y1="-2504" x2="-200" y2="-2488" stroke-width="10" stroke="black"/>
<line x1="-664" y1="-2432" x2="-256" y2="-2432" stroke-width="10" stroke="black"/>
<line x1="-192" y1="-3304" x2="-192" y2="-3400" stroke-width="10" stroke="black"/>
<line x1="1032" y1="-2624" x2="1032" y2="-2752" stroke-width="10" stroke="black"/>
<line x1="1024" y1="-2560" x2="1216" y2="-2560" stroke-width="10" stroke="black"/>
<line x1="1216" y1="-2624" x2="1032" y2="-2624" stroke-width="10" stroke="black"/>
<line x1="1224" y1="-2800" x2="1224" y2="-2768" stroke-width="10" stroke="black"/>
<line x1="1224" y1="-2760" x2="1224" y2="-2768" stroke-width="10" stroke="black"/>
<line x1="1224" y1="-2768" x2="1216" y2="-2768" stroke-width="10" stroke="black"/>
<line x1="1224" y1="-2800" x2="1224" y2="-2808" stroke-width="10" stroke="black"/>
<line x1="1216" y1="-2800" x2="1224" y2="-2800" stroke-width="10" stroke="black"/>
<line x1="1280" y1="-2624" x2="1280" y2="-2944" stroke-width="10" stroke="black"/>
<line x1="1216" y1="-2560" x2="1280" y2="-2560" stroke-width="10" stroke="black"/>
<line x1="1280" y1="-2624" x2="1216" y2="-2624" stroke-width="10" stroke="black"/>
<line x1="1408" y1="-2624" x2="1408" y2="-2368" stroke-width="10" stroke="black"/>
<line x1="1216" y1="-2768" x2="1216" y2="-2760" stroke-width="10" stroke="black"/>
<line x1="1000" y1="-2816" x2="1000" y2="-2752" stroke-width="10" stroke="black"/>
<line x1="976" y1="-2816" x2="976" y2="-2752" stroke-width="10" stroke="black"/>
<line x1="712" y1="-2816" x2="712" y2="-2752" stroke-width="10" stroke="black"/>
<line x1="720" y1="-2752" x2="720" y2="-2816" stroke-width="10" stroke="black"/>
<line x1="744" y1="-2672" x2="744" y2="-2752" stroke-width="10" stroke="black"/>
<line x1="832" y1="-2904" x2="768" y2="-2904" stroke-width="10" stroke="black"/>
<line x1="744" y1="-2896" x2="768" y2="-2896" stroke-width="10" stroke="black"/>
<line x1="720" y1="-2816" x2="744" y2="-2816" stroke-width="10" stroke="black"/>
<line x1="1008" y1="-2752" x2="1008" y2="-2816" stroke-width="10" stroke="black"/>
<line x1="1376" y1="-3264" x2="1376" y2="-3328" stroke-width="10" stroke="black"/>
<line x1="1312" y1="-3264" x2="1312" y2="-3328" stroke-width="10" stroke="black"/>
<line x1="1344" y1="-3264" x2="1344" y2="-3328" stroke-width="10" stroke="black"/>
<line x1="1280" y1="-2944" x2="1280" y2="-3008" stroke-width="10" stroke="black"/>
<line x1="1216" y1="-3008" x2="1024" y2="-3008" stroke-width="10" stroke="black"/>
<line x1="832" y1="-3136" x2="768" y2="-3136" stroke-width="10" stroke="black"/>
<line x1="1024" y1="-3008" x2="1024" y2="-3200" stroke-width="10" stroke="black"/>
<line x1="1408" y1="-3264" x2="1376" y2="-3264" stroke-width="10" stroke="black"/>
<line x1="1536" y1="-2952" x2="1600" y2="-2952" stroke-width="10" stroke="black"/>
<line x1="1600" y1="-2960" x2="1536" y2="-2960" stroke-width="10" stroke="black"/>
<line x1="1504" y1="-3264" x2="1504" y2="-3328" stroke-width="10" stroke="black"/>
<line x1="1440" y1="-3264" x2="1440" y2="-3328" stroke-width="10" stroke="black"/>
<line x1="1472" y1="-3264" x2="1472" y2="-3328" stroke-width="10" stroke="black"/>
<line x1="1536" y1="-2944" x2="1536" y2="-2952" stroke-width="10" stroke="black"/>
<line x1="1408" y1="-3200" x2="1408" y2="-2944" stroke-width="10" stroke="black"/>
<line x1="1032" y1="-2944" x2="1216" y2="-2944" stroke-width="10" stroke="black"/>
<line x1="688" y1="-2816" x2="688" y2="-2752" stroke-width="10" stroke="black"/>
<line x1="896" y1="-1088" x2="1152" y2="-1216" stroke-width="10" stroke="black"/>
<line x1="1056" y1="-1448" x2="1032" y2="-1472" stroke-width="10" stroke="black"/>
<line x1="1056" y1="-1416" x2="1056" y2="-1448" stroke-width="10" stroke="black"/>
<line x1="1032" y1="-1392" x2="1056" y2="-1416" stroke-width="10" stroke="black"/>
<line x1="1000" y1="-1392" x2="1032" y2="-1392" stroke-width="10" stroke="black"/>
<line x1="976" y1="-1448" x2="976" y2="-1416" stroke-width="10" stroke="black"/>
<line x1="1000" y1="-1472" x2="976" y2="-1448" stroke-width="10" stroke="black"/>
<line x1="976" y1="-1416" x2="1000" y2="-1392" stroke-width="10" stroke="black"/>
<line x1="880" y1="-1256" x2="856" y2="-1280" stroke-width="10" stroke="black"/>
<line x1="856" y1="-1200" x2="880" y2="-1224" stroke-width="10" stroke="black"/>
<line x1="824" y1="-1200" x2="856" y2="-1200" stroke-width="10" stroke="black"/>
<line x1="800" y1="-1224" x2="824" y2="-1200" stroke-width="10" stroke="black"/>
<line x1="800" y1="-1256" x2="800" y2="-1224" stroke-width="10" stroke="black"/>
<line x1="824" y1="-1280" x2="800" y2="-1256" stroke-width="10" stroke="black"/>
<line x1="792" y1="-1568" x2="768" y2="-1592" stroke-width="10" stroke="black"/>
<line x1="792" y1="-1536" x2="792" y2="-1568" stroke-width="10" stroke="black"/>
<line x1="736" y1="-1512" x2="768" y2="-1512" stroke-width="10" stroke="black"/>
<line x1="712" y1="-1536" x2="736" y2="-1512" stroke-width="10" stroke="black"/>
<line x1="712" y1="-1568" x2="712" y2="-1536" stroke-width="10" stroke="black"/>
<line x1="736" y1="-1592" x2="712" y2="-1568" stroke-width="10" stroke="black"/>
<line x1="768" y1="-1512" x2="792" y2="-1536" stroke-width="10" stroke="black"/>
<line x1="880" y1="-1224" x2="880" y2="-1256" stroke-width="10" stroke="black"/>
<line x1="504" y1="-1392" x2="528" y2="-1416" stroke-width="10" stroke="black"/>
<line x1="472" y1="-1392" x2="504" y2="-1392" stroke-width="10" stroke="black"/>
<line x1="472" y1="-1472" x2="448" y2="-1448" stroke-width="10" stroke="black"/>
<line x1="448" y1="-1416" x2="472" y2="-1392" stroke-width="10" stroke="black"/>
<line x1="448" y1="-1448" x2="448" y2="-1416" stroke-width="10" stroke="black"/>
<line x1="528" y1="-1416" x2="528" y2="-1448" stroke-width="10" stroke="black"/>
<line x1="696" y1="-1256" x2="672" y2="-1280" stroke-width="10" stroke="black"/>
<line x1="696" y1="-1224" x2="696" y2="-1256" stroke-width="10" stroke="black"/>
<line x1="672" y1="-1200" x2="696" y2="-1224" stroke-width="10" stroke="black"/>
<line x1="616" y1="-1224" x2="640" y2="-1200" stroke-width="10" stroke="black"/>
<line x1="616" y1="-1256" x2="616" y2="-1224" stroke-width="10" stroke="black"/>
<line x1="640" y1="-1200" x2="672" y2="-1200" stroke-width="10" stroke="black"/>
<line x1="640" y1="-1280" x2="616" y2="-1256" stroke-width="10" stroke="black"/>
<line x1="352" y1="-1216" x2="608" y2="-1088" stroke-width="10" stroke="black"/>
<line x1="528" y1="-1448" x2="504" y2="-1472" stroke-width="10" stroke="black"/>
<line x1="1536" y1="-1472" x2="1536" y2="-1216" stroke-width="10" stroke="black"/>
<line x1="1728" y1="-1472" x2="1536" y2="-1472" stroke-width="10" stroke="black"/>
<line x1="1376" y1="-1312" x2="1376" y2="-1248" stroke-width="10" stroke="black"/>
<line x1="1376" y1="-1248" x2="1440" y2="-1248" stroke-width="10" stroke="black"/>
<line x1="1440" y1="-1312" x2="1376" y2="-1312" stroke-width="10" stroke="black"/>
<line x1="1440" y1="-1248" x2="1440" y2="-1312" stroke-width="10" stroke="black"/>
<line x1="1168" y1="-1216" x2="1168" y2="-1408" stroke-width="10" stroke="black"/>
<line x1="1152" y1="-1728" x2="1152" y2="-1408" stroke-width="10" stroke="black"/>
<line x1="1344" y1="-1408" x2="1344" y2="-1528" stroke-width="10" stroke="black"/>
<line x1="1728" y1="-1152" x2="1728" y2="-1216" stroke-width="10" stroke="black"/>
<line x1="1168" y1="-1216" x2="1152" y2="-1216" stroke-width="10" stroke="black"/>
<line x1="1152" y1="-1216" x2="1188" y2="-1088" stroke-width="10" stroke="black"/>
<line x1="704" y1="-2128" x2="800" y2="-2128" stroke-width="10" stroke="black"/>
<line x1="608" y1="-1760" x2="568" y2="-1688" stroke-width="10" stroke="black"/>
<line x1="896" y1="-1760" x2="1152" y2="-1920" stroke-width="10" stroke="black"/>
<line x1="608" y1="-1760" x2="896" y2="-1760" stroke-width="10" stroke="black"/>
<line x1="936" y1="-1688" x2="896" y2="-1760" stroke-width="10" stroke="black"/>
<line x1="800" y1="-1952" x2="704" y2="-1952" stroke-width="10" stroke="black"/>
<line x1="416" y1="-2112" x2="640" y2="-1952" stroke-width="10" stroke="black"/>
<line x1="704" y1="-1952" x2="704" y2="-2112" stroke-width="10" stroke="black"/>
<line x1="864" y1="-1952" x2="1088" y2="-2112" stroke-width="10" stroke="black"/>
<line x1="352" y1="-1920" x2="608" y2="-1760" stroke-width="10" stroke="black"/>
<line x1="568" y1="-1688" x2="648" y2="-1688" stroke-width="10" stroke="black"/>
<line x1="568" y1="-1688" x2="352" y2="-1728" stroke-width="10" stroke="black"/>
<line x1="800" y1="-2112" x2="704" y2="-2112" stroke-width="10" stroke="black"/>
<line x1="936" y1="-1688" x2="1152" y2="-1728" stroke-width="10" stroke="black"/>
<line x1="0" y1="-2304" x2="-8" y2="-2296" stroke-width="10" stroke="black"/>
<line x1="-40" y1="-2232" x2="8" y2="-2280" stroke-width="10" stroke="black"/>
<line x1="-256" y1="-2288" x2="-208" y2="-2240" stroke-width="10" stroke="black"/>
<line x1="-304" y1="-2240" x2="-256" y2="-2288" stroke-width="10" stroke="black"/>
<line x1="-256" y1="-2288" x2="-256" y2="-2304" stroke-width="10" stroke="black"/>
<line x1="-128" y1="-1816" x2="-192" y2="-1880" stroke-width="10" stroke="black"/>
<line x1="64" y1="-2008" x2="-64" y2="-1904" stroke-width="10" stroke="black"/>
<line x1="-192" y1="-1880" x2="-64" y2="-1880" stroke-width="10" stroke="black"/>
<line x1="32" y1="-1832" x2="112" y2="-1960" stroke-width="10" stroke="black"/>
<line x1="-2" y1="-1536" x2="32" y2="-1536" stroke-width="10" stroke="black"/>
<line x1="-88" y1="-1784" x2="-40" y2="-1736" stroke-width="10" stroke="black"/>
<line x1="-40" y1="-1856" x2="-88" y2="-1784" stroke-width="10" stroke="black"/>
<line x1="32" y1="-1832" x2="-50" y2="-1893" stroke-width="10" stroke="black"/>
<line x1="32" y1="-1536" x2="32" y2="-1832" stroke-width="10" stroke="black"/>
<line x1="-64" y1="-1880" x2="-128" y2="-1816" stroke-width="10" stroke="black"/>
<line x1="-288" y1="-1784" x2="-288" y2="-1536" stroke-width="10" stroke="black"/>
<line x1="-128" y1="-1504" x2="-216" y2="-1560" stroke-width="10" stroke="black"/>
<line x1="-40" y1="-1560" x2="-128" y2="-1504" stroke-width="10" stroke="black"/>
<line x1="-128" y1="-1720" x2="-40" y2="-1592" stroke-width="10" stroke="black"/>
<line x1="-32" y1="-1408" x2="-16" y2="-1536" stroke-width="10" stroke="black"/>
<line x1="-168" y1="-1784" x2="-216" y2="-1736" stroke-width="10" stroke="black"/>
<line x1="-216" y1="-1592" x2="-128" y2="-1720" stroke-width="10" stroke="black"/>
<line x1="-240" y1="-1536" x2="-224" y2="-1408" stroke-width="10" stroke="black"/>
<line x1="-168" y1="-1784" x2="-216" y2="-1856" stroke-width="10" stroke="black"/>
<line x1="-192" y1="-2072" x2="-160" y2="-2072" stroke-width="10" stroke="black"/>
<line x1="-96" y1="-2096" x2="-160" y2="-2096" stroke-width="10" stroke="black"/>
<line x1="-160" y1="-2112" x2="-192" y2="-2112" stroke-width="10" stroke="black"/>
<line x1="-160" y1="-2088" x2="-96" y2="-2088" stroke-width="10" stroke="black"/>
<line x1="-1088" y1="-1456" x2="-1064" y2="-1408" stroke-width="10" stroke="black"/>
<line x1="-1139" y1="-1408" x2="-1088" y2="-1456" stroke-width="10" stroke="black"/>
<line x1="-1088" y1="-1456" x2="-304" y2="-2240" stroke-width="10" stroke="black"/>
<line x1="-192" y1="-1904" x2="-320" y2="-2008" stroke-width="10" stroke="black"/>
<line x1="-368" y1="-1960" x2="-288" y2="-1832" stroke-width="10" stroke="black"/>
<line x1="-208" y1="-2240" x2="-1040" y2="-1408" stroke-width="10" stroke="black"/>
<line x1="-192" y1="-2112" x2="-192" y2="-2240" stroke-width="10" stroke="black"/>
<line x1="-216" y1="-1856" x2="-192" y2="-1880" stroke-width="10" stroke="black"/>
<line x1="-192" y1="-2240" x2="-208" y2="-2240" stroke-width="10" stroke="black"/>
<line x1="152" y1="-2040" x2="-40" y2="-2232" stroke-width="10" stroke="black"/>
<line x1="315" y1="-1088" x2="351" y2="-1216" stroke-width="10" stroke="black"/>
<line x1="72" y1="-1280" x2="72" y2="-1344" stroke-width="10" stroke="black"/>
<line x1="128" y1="-1088" x2="128" y2="-1120" stroke-width="10" stroke="black"/>
<line x1="56" y1="-1280" x2="56" y2="-1216" stroke-width="10" stroke="black"/>
<line x1="-184" y1="-1376" x2="-184" y2="-1288" stroke-width="10" stroke="black"/>
<line x1="64" y1="-1216" x2="64" y2="-1280" stroke-width="10" stroke="black"/>
<line x1="-448" y1="-1144" x2="-384" y2="-1144" stroke-width="10" stroke="black"/>
<line x1="-384" y1="-1096" x2="-448" y2="-1096" stroke-width="10" stroke="black"/>
<line x1="-384" y1="-1208" x2="-448" y2="-1288" stroke-width="10" stroke="black"/>
<line x1="-384" y1="-1160" x2="-448" y2="-1160" stroke-width="10" stroke="black"/>
<line x1="-448" y1="-1152" x2="-384" y2="-1152" stroke-width="10" stroke="black"/>
<line x1="-264" y1="-1288" x2="-264" y2="-1376" stroke-width="10" stroke="black"/>
<line x1="-472" y1="-1096" x2="-472" y2="-1088" stroke-width="10" stroke="black"/>
<line x1="-456" y1="-1096" x2="-456" y2="-1144" stroke-width="10" stroke="black"/>
<line x1="-464" y1="-1144" x2="-464" y2="-1096" stroke-width="10" stroke="black"/>
<line x1="-1128" y1="-1112" x2="-1088" y2="-1192" stroke-width="10" stroke="black"/>
<line x1="-1064" y1="-1408" x2="-1056" y2="-1392" stroke-width="10" stroke="black"/>
<line x1="-1216" y1="-1336" x2="-1128" y2="-1312" stroke-width="10" stroke="black"/>
<line x1="-1216" y1="-1216" x2="-1128" y2="-1232" stroke-width="10" stroke="black"/>
<line x1="-1024" y1="-1088" x2="-992" y2="-1152" stroke-width="10" stroke="black"/>
<line x1="-448" y1="-1144" x2="-448" y2="-1152" stroke-width="10" stroke="black"/>
<line x1="192" y1="-1408" x2="-32" y2="-1408" stroke-width="10" stroke="black"/>
<line x1="352" y1="-1856" x2="352" y2="-1920" stroke-width="10" stroke="black"/>
<line x1="-1224" y1="-2304" x2="-1232" y2="-2304" stroke-width="10" stroke="black"/>
<line x1="224" y1="-64" x2="128" y2="-192" stroke-width="10" stroke="black"/>
<line x1="48" y1="112" x2="-64" y2="-64" stroke-width="10" stroke="black"/>
<line x1="96" y1="64" x2="0" y2="-64" stroke-width="10" stroke="black"/>
<line x1="160" y1="0" x2="64" y2="-128" stroke-width="10" stroke="black"/>
<line x1="128" y1="128" x2="256" y2="128" stroke-width="10" stroke="black"/>
<line x1="240" y1="272" x2="208" y2="272" stroke-width="10" stroke="black"/>
<line x1="128" y1="128" x2="192" y2="256" stroke-width="10" stroke="black"/>
<line x1="160" y1="0" x2="96" y2="64" stroke-width="10" stroke="black"/>
<line x1="64" y1="320" x2="64" y2="256" stroke-width="10" stroke="black"/>
<line x1="0" y1="384" x2="64" y2="320" stroke-width="10" stroke="black"/>
<line x1="-64" y1="320" x2="0" y2="384" stroke-width="10" stroke="black"/>
<line x1="64" y1="256" x2="0" y2="192" stroke-width="10" stroke="black"/>
<line x1="128" y1="320" x2="192" y2="384" stroke-width="10" stroke="black"/>
<line x1="192" y1="256" x2="128" y2="320" stroke-width="10" stroke="black"/>
<line x1="240" y1="464" x2="256" y2="512" stroke-width="10" stroke="black"/>
<line x1="0" y1="512" x2="64" y2="512" stroke-width="10" stroke="black"/>
<line x1="176" y1="640" x2="176" y2="464" stroke-width="10" stroke="black"/>
<line x1="192" y1="448" x2="0" y2="448" stroke-width="10" stroke="black"/>
<line x1="208" y1="272" x2="192" y2="256" stroke-width="10" stroke="black"/>
<line x1="-568" y1="320" x2="-568" y2="192" stroke-width="10" stroke="black"/>
<line x1="-576" y1="192" x2="-576" y2="320" stroke-width="10" stroke="black"/>
<line x1="-464" y1="16" x2="-416" y2="32" stroke-width="10" stroke="black"/>
<line x1="-416" y1="-192" x2="-464" y2="-112" stroke-width="10" stroke="black"/>
<line x1="-632" y1="0" x2="-560" y2="-64" stroke-width="10" stroke="black"/>
<line x1="-568" y1="192" x2="-416" y2="192" stroke-width="10" stroke="black"/>
<line x1="-384" y1="0" x2="-352" y2="-32" stroke-width="10" stroke="black"/>
<line x1="-416" y1="192" x2="-384" y2="192" stroke-width="10" stroke="black"/>
<line x1="-384" y1="192" x2="-192" y2="128" stroke-width="10" stroke="black"/>
<line x1="-176" y1="80" x2="-176" y2="112" stroke-width="10" stroke="black"/>
<line x1="-192" y1="128" x2="-192" y2="320" stroke-width="10" stroke="black"/>
<line x1="-192" y1="64" x2="-384" y2="0" stroke-width="10" stroke="black"/>
<line x1="-128" y1="256" x2="-128" y2="64" stroke-width="10" stroke="black"/>
<line x1="-352" y1="-48" x2="-352" y2="-128" stroke-width="10" stroke="black"/>
<line x1="-352" y1="-48" x2="-128" y2="-160" stroke-width="10" stroke="black"/>
<line x1="-416" y1="32" x2="-416" y2="160" stroke-width="10" stroke="black"/>
<line x1="-128" y1="448" x2="-128" y2="320" stroke-width="10" stroke="black"/>
<line x1="-352" y1="512" x2="-64" y2="512" stroke-width="10" stroke="black"/>
<line x1="-512" y1="384" x2="-480" y2="384" stroke-width="10" stroke="black"/>
<line x1="-576" y1="624" x2="-768" y2="624" stroke-width="10" stroke="black"/>
<line x1="-512" y1="576" x2="-512" y2="384" stroke-width="10" stroke="black"/>
<line x1="-512" y1="576" x2="-352" y2="384" stroke-width="10" stroke="black"/>
<line x1="-192" y1="320" x2="-400" y2="320" stroke-width="10" stroke="black"/>
<line x1="-1152" y1="256" x2="-1152" y2="448" stroke-width="10" stroke="black"/>
<line x1="-1216" y1="192" x2="-1152" y2="256" stroke-width="10" stroke="black"/>
<line x1="-960" y1="640" x2="-960" y2="576" stroke-width="10" stroke="black"/>
<line x1="-960" y1="576" x2="-832" y2="576" stroke-width="10" stroke="black"/>
<line x1="-1096" y1="520" x2="-1280" y2="520" stroke-width="10" stroke="black"/>
<line x1="-768" y1="320" x2="-768" y2="192" stroke-width="10" stroke="black"/>
<line x1="-64" y1="512" x2="-64" y2="448" stroke-width="10" stroke="black"/>
<line x1="-448" y1="-1080" x2="-384" y2="-1080" stroke-width="10" stroke="black"/>
<line x1="-448" y1="-960" x2="-384" y2="-1024" stroke-width="10" stroke="black"/>
<line x1="72" y1="-1024" x2="72" y2="-1088" stroke-width="10" stroke="black"/>
<line x1="64" y1="-960" x2="64" y2="-1024" stroke-width="10" stroke="black"/>
<line x1="56" y1="-1024" x2="56" y2="-960" stroke-width="10" stroke="black"/>
<line x1="-384" y1="-704" x2="-320" y2="-704" stroke-width="10" stroke="black"/>
<line x1="-320" y1="-768" x2="-384" y2="-768" stroke-width="10" stroke="black"/>
<line x1="-384" y1="-768" x2="-384" y2="-704" stroke-width="10" stroke="black"/>
<line x1="-512" y1="-576" x2="-512" y2="-832" stroke-width="10" stroke="black"/>
<line x1="128" y1="-896" x2="128" y2="-960" stroke-width="10" stroke="black"/>
<line x1="-312" y1="-640" x2="-64" y2="-640" stroke-width="10" stroke="black"/>
<line x1="16" y1="-576" x2="16" y2="-640" stroke-width="10" stroke="black"/>
<line x1="-320" y1="-832" x2="-320" y2="-768" stroke-width="10" stroke="black"/>
<line x1="64" y1="-960" x2="56" y2="-960" stroke-width="10" stroke="black"/>
<line x1="-64" y1="-576" x2="-64" y2="-512" stroke-width="10" stroke="black"/>
<line x1="-448" y1="-512" x2="-448" y2="-576" stroke-width="10" stroke="black"/>
<line x1="-128" y1="-224" x2="-544" y2="-440" stroke-width="10" stroke="black"/>
<line x1="-64" y1="-320" x2="-152" y2="-472" stroke-width="10" stroke="black"/>
<line x1="-64" y1="-512" x2="-448" y2="-512" stroke-width="10" stroke="black"/>
<line x1="224" y1="-576" x2="224" y2="-288" stroke-width="10" stroke="black"/>
<line x1="8" y1="-512" x2="8" y2="-576" stroke-width="10" stroke="black"/>
<line x1="40" y1="-472" x2="64" y2="-472" stroke-width="10" stroke="black"/>
<line x1="64" y1="-256" x2="64" y2="-472" stroke-width="10" stroke="black"/>
<line x1="0" y1="-472" x2="0" y2="-320" stroke-width="10" stroke="black"/>
<line x1="-448" y1="-576" x2="-512" y2="-576" stroke-width="10" stroke="black"/>
<line x1="-544" y1="-192" x2="-416" y2="-192" stroke-width="10" stroke="black"/>
<line x1="-576" y1="768" x2="-512" y2="704" stroke-width="10" stroke="black"/>
<line x1="-288" y1="832" x2="-288" y2="704" stroke-width="10" stroke="black"/>
<line x1="-512" y1="704" x2="-384" y2="832" stroke-width="10" stroke="black"/>
<line x1="-128" y1="896" x2="128" y2="768" stroke-width="10" stroke="black"/>
<line x1="64" y1="704" x2="-224" y2="896" stroke-width="10" stroke="black"/>
<line x1="-256" y1="680" x2="-192" y2="680" stroke-width="10" stroke="black"/>
<line x1="-192" y1="656" x2="-256" y2="656" stroke-width="10" stroke="black"/>
<line x1="-256" y1="664" x2="-192" y2="664" stroke-width="10" stroke="black"/>
<line x1="-288" y1="704" x2="-256" y2="680" stroke-width="10" stroke="black"/>
<line x1="-256" y1="680" x2="-256" y2="664" stroke-width="10" stroke="black"/>
<line x1="256" y1="656" x2="176" y2="656" stroke-width="10" stroke="black"/>
<line x1="-192" y1="640" x2="-192" y2="656" stroke-width="10" stroke="black"/>
<line x1="-160" y1="704" x2="64" y2="704" stroke-width="10" stroke="black"/>
<line x1="-768" y1="640" x2="-640" y2="768" stroke-width="10" stroke="black"/>
<line x1="-592" y1="784" x2="-624" y2="784" stroke-width="10" stroke="black"/>
<line x1="-640" y1="768" x2="-704" y2="832" stroke-width="10" stroke="black"/>
<line x1="-832" y1="832" x2="-1088" y2="768" stroke-width="10" stroke="black"/>
<line x1="-1088" y1="704" x2="-1216" y2="704" stroke-width="10" stroke="black"/>
<line x1="-816" y1="848" x2="-816" y2="880" stroke-width="10" stroke="black"/>
<line x1="-768" y1="768" x2="-832" y2="832" stroke-width="10" stroke="black"/>
<line x1="-704" y1="832" x2="-768" y2="768" stroke-width="10" stroke="black"/>
<line x1="-576" y1="896" x2="-576" y2="768" stroke-width="10" stroke="black"/>
<line x1="-320" y1="1024" x2="-128" y2="1152" stroke-width="10" stroke="black"/>
<line x1="-336" y1="1008" x2="-336" y2="976" stroke-width="10" stroke="black"/>
<line x1="-448" y1="1024" x2="-384" y2="1088" stroke-width="10" stroke="black"/>
<line x1="-320" y1="1024" x2="-336" y2="1008" stroke-width="10" stroke="black"/>
<line x1="-224" y1="896" x2="-320" y2="960" stroke-width="10" stroke="black"/>
<line x1="-384" y1="896" x2="-448" y2="960" stroke-width="10" stroke="black"/>
<line x1="-320" y1="960" x2="-384" y2="896" stroke-width="10" stroke="black"/>
<line x1="-368" y1="976" x2="-336" y2="976" stroke-width="10" stroke="black"/>
<line x1="-384" y1="1088" x2="-320" y2="1024" stroke-width="10" stroke="black"/>
<line x1="256" y1="1024" x2="64" y2="1024" stroke-width="10" stroke="black"/>
<line x1="-104" y1="1312" x2="-104" y2="1152" stroke-width="10" stroke="black"/>
<line x1="64" y1="1024" x2="64" y2="896" stroke-width="10" stroke="black"/>
<line x1="48" y1="1312" x2="-104" y2="1312" stroke-width="10" stroke="black"/>
<line x1="-128" y1="1312" x2="-128" y2="1344" stroke-width="10" stroke="black"/>
<line x1="-1088" y1="960" x2="-832" y2="896" stroke-width="10" stroke="black"/>
<line x1="-1152" y1="1088" x2="-960" y2="1088" stroke-width="10" stroke="black"/>
<line x1="-960" y1="1024" x2="-1088" y2="1024" stroke-width="10" stroke="black"/>
<line x1="-768" y1="960" x2="-768" y2="1024" stroke-width="10" stroke="black"/>
<line x1="-704" y1="1152" x2="-704" y2="1088" stroke-width="10" stroke="black"/>
<line x1="-768" y1="1152" x2="-704" y2="1152" stroke-width="10" stroke="black"/>
<line x1="-768" y1="1024" x2="-832" y2="1088" stroke-width="10" stroke="black"/>
<line x1="-832" y1="1088" x2="-832" y2="1216" stroke-width="10" stroke="black"/>
<line x1="-576" y1="1280" x2="-576" y2="1088" stroke-width="10" stroke="black"/>
<line x1="64" y1="896" x2="-128" y2="896" stroke-width="10" stroke="black"/>
<line x1="-64" y1="640" x2="-192" y2="640" stroke-width="10" stroke="black"/>
<line x1="672" y1="-320" x2="672" y2="-304" stroke-width="10" stroke="black"/>
<line x1="520" y1="-288" x2="944" y2="-288" stroke-width="10" stroke="black"/>
<line x1="768" y1="-344" x2="744" y2="-392" stroke-width="10" stroke="black"/>
<line x1="888" y1="-552" x2="904" y2="-552" stroke-width="10" stroke="black"/>
<line x1="920" y1="-384" x2="896" y2="-336" stroke-width="10" stroke="black"/>
<line x1="904" y1="-392" x2="880" y2="-344" stroke-width="10" stroke="black"/>
<line x1="736" y1="-448" x2="696" y2="-320" stroke-width="10" stroke="black"/>
<line x1="544" y1="-320" x2="544" y2="-448" stroke-width="10" stroke="black"/>
<line x1="520" y1="-448" x2="544" y2="-448" stroke-width="10" stroke="black"/>
<line x1="744" y1="-392" x2="744" y2="-552" stroke-width="10" stroke="black"/>
<line x1="608" y1="-320" x2="672" y2="-320" stroke-width="10" stroke="black"/>
<line x1="384" y1="-560" x2="384" y2="-448" stroke-width="10" stroke="black"/>
<line x1="520" y1="-320" x2="520" y2="-448" stroke-width="10" stroke="black"/>
<line x1="1008" y1="-192" x2="464" y2="-192" stroke-width="10" stroke="black"/>
<line x1="256" y1="-256" x2="424" y2="-88" stroke-width="10" stroke="black"/>
<line x1="424" y1="-88" x2="1048" y2="-88" stroke-width="10" stroke="black"/>
<line x1="800" y1="-960" x2="928" y2="-896" stroke-width="10" stroke="black"/>
<line x1="888" y1="-568" x2="760" y2="-568" stroke-width="10" stroke="black"/>
<line x1="904" y1="-576" x2="888" y2="-576" stroke-width="10" stroke="black"/>
<line x1="560" y1="-992" x2="384" y2="-816" stroke-width="10" stroke="black"/>
<line x1="552" y1="-576" x2="536" y2="-576" stroke-width="10" stroke="black"/>
<line x1="384" y1="-816" x2="384" y2="-560" stroke-width="10" stroke="black"/>
<line x1="760" y1="-568" x2="760" y2="-576" stroke-width="10" stroke="black"/>
<line x1="288" y1="-992" x2="560" y2="-992" stroke-width="10" stroke="black"/>
<line x1="544" y1="-560" x2="552" y2="-560" stroke-width="10" stroke="black"/>
<line x1="704" y1="576" x2="640" y2="576" stroke-width="10" stroke="black"/>
<line x1="576" y1="448" x2="704" y2="576" stroke-width="10" stroke="black"/>
<line x1="480" y1="352" x2="576" y2="448" stroke-width="10" stroke="black"/>
<line x1="576" y1="448" x2="448" y2="448" stroke-width="10" stroke="black"/>
<line x1="576" y1="512" x2="576" y2="448" stroke-width="10" stroke="black"/>
<line x1="256" y1="256" x2="320" y2="128" stroke-width="10" stroke="black"/>
<line x1="464" y1="336" x2="464" y2="304" stroke-width="10" stroke="black"/>
<line x1="480" y1="288" x2="416" y2="288" stroke-width="10" stroke="black"/>
<line x1="464" y1="304" x2="480" y2="288" stroke-width="10" stroke="black"/>
<line x1="416" y1="288" x2="416" y2="352" stroke-width="10" stroke="black"/>
<line x1="416" y1="352" x2="480" y2="352" stroke-width="10" stroke="black"/>
<line x1="320" y1="1280" x2="256" y2="1216" stroke-width="10" stroke="black"/>
<line x1="384" y1="1472" x2="384" y2="1408" stroke-width="10" stroke="black"/>
<line x1="384" y1="1408" x2="256" y2="1408" stroke-width="10" stroke="black"/>
<line x1="304" y1="656" x2="256" y2="656" stroke-width="10" stroke="black"/>
<line x1="320" y1="640" x2="256" y2="448" stroke-width="10" stroke="black"/>
<line x1="512" y1="640" x2="512" y2="512" stroke-width="10" stroke="black"/>
<line x1="640" y1="640" x2="512" y2="640" stroke-width="10" stroke="black"/>
<line x1="320" y1="640" x2="304" y2="656" stroke-width="10" stroke="black"/>
<line x1="256" y1="512" x2="304" y2="656" stroke-width="10" stroke="black"/>
<line x1="320" y1="320" x2="256" y2="256" stroke-width="10" stroke="black"/>
<line x1="704" y1="384" x2="832" y2="384" stroke-width="10" stroke="black"/>
<line x1="960" y1="24" x2="1088" y2="24" stroke-width="10" stroke="black"/>
<line x1="768" y1="192" x2="832" y2="256" stroke-width="10" stroke="black"/>
<line x1="320" y1="64" x2="320" y2="128" stroke-width="10" stroke="black"/>
<line x1="424" y1="192" x2="424" y2="128" stroke-width="10" stroke="black"/>
<line x1="576" y1="320" x2="640" y2="384" stroke-width="10" stroke="black"/>
<line x1="640" y1="256" x2="576" y2="256" stroke-width="10" stroke="black"/>
<line x1="640" y1="128" x2="640" y2="256" stroke-width="10" stroke="black"/>
<line x1="640" y1="128" x2="480" y2="288" stroke-width="10" stroke="black"/>
<line x1="424" y1="128" x2="352" y2="128" stroke-width="10" stroke="black"/>
<line x1="704" y1="384" x2="704" y2="256" stroke-width="10" stroke="black"/>
<line x1="320" y1="128" x2="384" y2="192" stroke-width="10" stroke="black"/>
<line x1="960" y1="16" x2="304" y2="16" stroke-width="10" stroke="black"/>
<line x1="1632" y1="-944" x2="1632" y2="-912" stroke-width="10" stroke="black"/>
<line x1="1640" y1="-912" x2="1640" y2="-944" stroke-width="10" stroke="black"/>
<line x1="1632" y1="-912" x2="1640" y2="-912" stroke-width="10" stroke="black"/>
<line x1="1640" y1="-944" x2="1632" y2="-944" stroke-width="10" stroke="black"/>
<line x1="1568" y1="-896" x2="1568" y2="-960" stroke-width="10" stroke="black"/>
<line x1="1576" y1="-960" x2="1576" y2="-1000" stroke-width="10" stroke="black"/>
<line x1="1856" y1="-912" x2="1856" y2="-864" stroke-width="10" stroke="black"/>
<line x1="1672" y1="-960" x2="1672" y2="-896" stroke-width="10" stroke="black"/>
<line x1="1680" y1="-896" x2="1680" y2="-960" stroke-width="10" stroke="black"/>
<line x1="1648" y1="-1000" x2="1648" y2="-976" stroke-width="10" stroke="black"/>
<line x1="1432" y1="-880" x2="1432" y2="-864" stroke-width="10" stroke="black"/>
<line x1="1216" y1="-992" x2="1088" y2="-992" stroke-width="10" stroke="black"/>
<line x1="1216" y1="-992" x2="1216" y2="-864" stroke-width="10" stroke="black"/>
<line x1="1224" y1="-864" x2="1224" y2="-992" stroke-width="10" stroke="black"/>
<line x1="1536" y1="-1000" x2="1536" y2="-976" stroke-width="10" stroke="black"/>
<line x1="1560" y1="-896" x2="1536" y2="-896" stroke-width="10" stroke="black"/>
<line x1="1464" y1="-896" x2="1464" y2="-960" stroke-width="10" stroke="black"/>
<line x1="1472" y1="-960" x2="1472" y2="-1000" stroke-width="10" stroke="black"/>
<line x1="1456" y1="-960" x2="1456" y2="-896" stroke-width="10" stroke="black"/>
<line x1="1560" y1="-896" x2="1560" y2="-960" stroke-width="10" stroke="black"/>
<line x1="1504" y1="192" x2="1504" y2="256" stroke-width="10" stroke="black"/>
<line x1="1632" y1="288" x2="1536" y2="192" stroke-width="10" stroke="black"/>
<line x1="1616" y1="112" x2="1712" y2="208" stroke-width="10" stroke="black"/>
<line x1="1600" y1="64" x2="1440" y2="128" stroke-width="10" stroke="black"/>
<line x1="1376" y1="64" x2="1440" y2="128" stroke-width="10" stroke="black"/>
<line x1="1536" y1="384" x2="1632" y2="384" stroke-width="10" stroke="black"/>
<line x1="1728" y1="192" x2="1712" y2="208" stroke-width="10" stroke="black"/>
<line x1="1696" y1="-64" x2="1552" y2="-208" stroke-width="10" stroke="black"/>
<line x1="1680" y1="-48" x2="1728" y2="0" stroke-width="10" stroke="black"/>
<line x1="1728" y1="0" x2="1856" y2="-128" stroke-width="10" stroke="black"/>
<line x1="1632" y1="96" x2="1728" y2="192" stroke-width="10" stroke="black"/>
<line x1="1344" y1="-848" x2="1408" y2="-848" stroke-width="10" stroke="black"/>
<line x1="1408" y1="-856" x2="1344" y2="-856" stroke-width="10" stroke="black"/>
<line x1="1680" y1="-768" x2="1680" y2="-864" stroke-width="10" stroke="black"/>
<line x1="1408" y1="-856" x2="1408" y2="-848" stroke-width="10" stroke="black"/>
<line x1="1424" y1="-768" x2="1424" y2="-640" stroke-width="10" stroke="black"/>
<line x1="1432" y1="-640" x2="1432" y2="-768" stroke-width="10" stroke="black"/>
<line x1="1424" y1="-304" x2="1536" y2="-192" stroke-width="10" stroke="black"/>
<line x1="1432" y1="-640" x2="1424" y2="-640" stroke-width="10" stroke="black"/>
<line x1="1856" y1="-768" x2="1680" y2="-768" stroke-width="10" stroke="black"/>
<line x1="1344" y1="-192" x2="1232" y2="-80" stroke-width="10" stroke="black"/>
<line x1="1227" y1="116" x2="1120" y2="16" stroke-width="10" stroke="black"/>
<line x1="1088" y1="-432" x2="1120" y2="-464" stroke-width="10" stroke="black"/>
<line x1="1120" y1="-464" x2="1120" y2="-816" stroke-width="10" stroke="black"/>
<line x1="1216" y1="-864" x2="1216" y2="-400" stroke-width="10" stroke="black"/>
<line x1="1088" y1="-128" x2="1328" y2="-368" stroke-width="10" stroke="black"/>
<line x1="1344" y1="-848" x2="1344" y2="-856" stroke-width="10" stroke="black"/>
<line x1="1552" y1="-208" x2="1632" y2="-288" stroke-width="10" stroke="black"/>
<line x1="1432" y1="-864" x2="1408" y2="-864" stroke-width="10" stroke="black"/>
<line x1="1088" y1="24" x2="1088" y2="256" stroke-width="10" stroke="black"/>
<line x1="256" y1="896" x2="256" y2="1024" stroke-width="10" stroke="black"/>
<line x1="896" y1="-1088" x2="608" y2="-1088" stroke-width="10" stroke="black"/>

</svg>

