<svg width="900" height="1451" preserveAspectRatio="none" viewBox="-1794 -1794 3396 5316"
 xmlns="http://www.w3.org/2000/svg" xmlns:xlink="http://www.w3.org/1999/xlink">
   <defs>
    <marker id="arrow" markerWidth="10" markerHeight="10" refX="0" refY="2" orient="auto" markerUnits="strokeWidth">
      <path d="M0,0 L0,4 L5,3 z" fill="#f00" />
    </marker>
  </defs>

<polygon points="832,1168 832,1168 512,848 512,848 512,752 512,752 816,448 816,448 832,448 " fill="rgb(228,11,11)" stroke="rgb(70,70,70)" stroke-width="10" stroke-linecap="round" />
<polygon points="512,848 512,848 464,800 512,752 " fill="rgb(232,15,232)" stroke="rgb(70,70,70)" stroke-width="10" stroke-linecap="round" />
<polygon points="488,776 488,776 464,800 288,624 488,624 " fill="rgb(228,11,11)" stroke="rgb(70,70,70)" stroke-width="10" stroke-linecap="round" />
<polygon points="576,448 816,448 576,688 576,448 " fill="rgb(22,239,22)" stroke="rgb(70,70,70)" stroke-width="10" stroke-linecap="round" />
<polygon points="512,752 488,776 488,752 " fill="rgb(251,251,34)" stroke="rgb(70,70,70)" stroke-width="10" stroke-linecap="round" />
<polygon points="1088,864 1088,864 1088,1424 1088,1424 832,1168 832,864 " fill="rgb(228,11,11)" stroke="rgb(70,70,70)" stroke-width="10" stroke-linecap="round" />
<polygon points="960,448 1088,448 1088,864 960,864 960,448 " fill="rgb(22,239,22)" stroke="rgb(70,70,70)" stroke-width="10" stroke-linecap="round" />
<polygon points="960,448 960,736 832,736 832,448 " fill="rgb(22,239,22)" stroke="rgb(70,70,70)" stroke-width="10" stroke-linecap="round" />
<polygon points="1472,1808 1472,1808 1216,1552 1216,448 1216,448 1472,448 " fill="rgb(251,251,34)" stroke="rgb(70,70,70)" stroke-width="10" stroke-linecap="round" />
<polygon points="1088,1152 1088,1152 1088,448 1216,448 1216,448 1216,1152 " fill="rgb(3,3,220)" stroke="rgb(70,70,70)" stroke-width="10" stroke-linecap="round" />
<polygon points="1216,1280 1216,1552 1088,1424 1088,1280 " fill="rgb(228,11,11)" stroke="rgb(70,70,70)" stroke-width="10" stroke-linecap="round" />
<polygon points="128,51 128,-64 761,-64 415,223 " fill="rgb(22,239,22)" stroke="rgb(70,70,70)" stroke-width="10" stroke-linecap="round" />
<polygon points="128,128 128,51 256,128 " fill="rgb(22,239,22)" stroke="rgb(70,70,70)" stroke-width="10" stroke-linecap="round" />
<polygon points="751,-56 761,-64 1088,-64 1088,-64 1088,280 1088,280 " fill="rgb(251,251,34)" stroke="rgb(70,70,70)" stroke-width="10" stroke-linecap="round" />
<polygon points="479,288 759,-47 1088,280 1088,448 1088,448 576,448 " fill="rgb(26,243,243)" stroke="rgb(70,70,70)" stroke-width="10" stroke-linecap="round" />
<polygon points="1472,448 1472,448 1216,448 1216,-64 1216,-64 1472,-64 " fill="rgb(232,15,232)" stroke="rgb(70,70,70)" stroke-width="10" stroke-linecap="round" />
<polygon points="1216,320 1088,320 1088,-64 1216,-64 " fill="rgb(232,15,232)" stroke="rgb(70,70,70)" stroke-width="10" stroke-linecap="round" />
<polygon points="1472,-576 1472,-64 1472,-64 1024,-64 1024,-576 1024,-576 " fill="rgb(251,251,34)" stroke="rgb(70,70,70)" stroke-width="10" stroke-linecap="round" />
<polygon points="128,-320 128,-576 1024,-576 1024,-576 1024,-320 128,-320 " fill="rgb(228,11,11)" stroke="rgb(70,70,70)" stroke-width="10" stroke-linecap="round" />
<polygon points="768,-64 128,-64 128,-320 768,-320 " fill="rgb(232,15,232)" stroke="rgb(70,70,70)" stroke-width="10" stroke-linecap="round" />
<polygon points="1472,-704 1472,-704 128,-704 128,-704 128,-1540 1472,-768 " fill="rgb(228,11,11)" stroke="rgb(70,70,70)" stroke-width="10" stroke-linecap="round" />
<polygon points="1472,-576 1472,-576 448,-576 448,-704 448,-704 1472,-704 " fill="rgb(232,15,232)" stroke="rgb(70,70,70)" stroke-width="10" stroke-linecap="round" />
<polygon points="320,-576 128,-576 128,-704 320,-704 " fill="rgb(228,11,11)" stroke="rgb(70,70,70)" stroke-width="10" stroke-linecap="round" />
<polygon points="1036,1372 1036,1372 1328,1664 744,1664 744,1664 " fill="rgb(3,3,220)" stroke="rgb(70,70,70)" stroke-width="10" stroke-linecap="round" />
<polygon points="768,1664 768,2304 768,2304 128,2304 128,2304 128,2280 744,1664 " fill="rgb(3,3,220)" stroke="rgb(70,70,70)" stroke-width="10" stroke-linecap="round" />
<polygon points="1328,1664 1472,1808 1472,2304 1472,2304 1024,2304 1024,1664 1024,1664 " fill="rgb(22,239,22)" stroke="rgb(70,70,70)" stroke-width="10" stroke-linecap="round" />
<polygon points="1024,1920 1024,2304 768,2304 768,1920 " fill="rgb(251,251,34)" stroke="rgb(70,70,70)" stroke-width="10" stroke-linecap="round" />
<polygon points="512,2998 512,2304 512,2304 1472,2304 1472,2368 " fill="rgb(26,243,243)" stroke="rgb(70,70,70)" stroke-width="10" stroke-linecap="round" />
<polygon points="128,3250 128,2432 512,2432 512,2432 512,2998 " fill="rgb(232,15,232)" stroke="rgb(70,70,70)" stroke-width="10" stroke-linecap="round" />
<polygon points="384,2432 128,2432 128,2304 384,2304 " fill="rgb(26,243,243)" stroke="rgb(70,70,70)" stroke-width="10" stroke-linecap="round" />
<polygon points="752,1656 752,1656 128,2280 128,1557 416,1376 416,1376 " fill="rgb(22,239,22)" stroke="rgb(70,70,70)" stroke-width="10" stroke-linecap="round" />
<polygon points="263,1472 128,1557 128,1472 " fill="rgb(228,11,11)" stroke="rgb(70,70,70)" stroke-width="10" stroke-linecap="round" />
<polygon points="192,976 144,832 144,768 192,624 192,976 " fill="rgb(232,15,232)" stroke="rgb(70,70,70)" stroke-width="10" stroke-linecap="round" />
<polygon points="128,768 144,768 144,832 128,832 " fill="rgb(26,243,243)" stroke="rgb(70,70,70)" stroke-width="10" stroke-linecap="round" />
<polygon points="760,1648 479,1312 666,1002 666,1002 1036,1372 " fill="rgb(3,3,220)" stroke="rgb(70,70,70)" stroke-width="10" stroke-linecap="round" />
<polygon points="192,624 288,624 488,824 488,976 488,976 192,976 192,624 " fill="rgb(251,251,34)" stroke="rgb(70,70,70)" stroke-width="10" stroke-linecap="round" />
<polygon points="576,912 666,1002 576,1151 576,912 " fill="rgb(251,251,34)" stroke="rgb(70,70,70)" stroke-width="10" stroke-linecap="round" />
<polygon points="512,848 488,848 488,824 " fill="rgb(3,3,220)" stroke="rgb(70,70,70)" stroke-width="10" stroke-linecap="round" />
<polygon points="-1280,1664 -1280,1320 -936,1664 -936,1664 -1280,1664 " fill="rgb(3,3,220)" stroke="rgb(70,70,70)" stroke-width="10" stroke-linecap="round" />
<polygon points="-952,1648 -1280,1320 -1280,1024 -1280,1024 -844,1024 -671,1311 -952,1648 " fill="rgb(251,251,34)" stroke="rgb(70,70,70)" stroke-width="10" stroke-linecap="round" />
<polygon points="-627,1384 -460,1664 -936,1664 -944,1656 " fill="rgb(251,251,34)" stroke="rgb(70,70,70)" stroke-width="10" stroke-linecap="round" />
<polygon points="-1408,1664 -1664,1664 -1664,1024 -1664,1024 -1408,1024 -1408,1664 " fill="rgb(232,15,232)" stroke="rgb(70,70,70)" stroke-width="10" stroke-linecap="round" />
<polygon points="-1280,1152 -1408,1152 -1408,1152 -1408,1024 -1280,1024 " fill="rgb(228,11,11)" stroke="rgb(70,70,70)" stroke-width="10" stroke-linecap="round" />
<polygon points="-1280,1280 -1280,1664 -1408,1664 -1408,1280 " fill="rgb(232,15,232)" stroke="rgb(70,70,70)" stroke-width="10" stroke-linecap="round" />
<polygon points="-1216,2304 -1216,2304 -1664,2304 -1664,1664 -1664,1664 -1216,1664 " fill="rgb(3,3,220)" stroke="rgb(70,70,70)" stroke-width="10" stroke-linecap="round" />
<polygon points="-76,2304 -1216,2304 -1216,2304 -1216,1920 -306,1920 -306,1920 " fill="rgb(26,243,243)" stroke="rgb(70,70,70)" stroke-width="10" stroke-linecap="round" />
<polygon points="-306,1920 -960,1920 -960,1664 -460,1664 " fill="rgb(232,15,232)" stroke="rgb(70,70,70)" stroke-width="10" stroke-linecap="round" />
<polygon points="128,3250 -88,3392 -88,3392 -576,3075 -576,2304 -576,2304 -76,2304 128,2645 " fill="rgb(228,11,11)" stroke="rgb(70,70,70)" stroke-width="10" stroke-linecap="round" />
<polygon points="-1565,2432 -576,2432 -576,2432 -576,3075 " fill="rgb(22,239,22)" stroke="rgb(70,70,70)" stroke-width="10" stroke-linecap="round" />
<polygon points="-1664,2368 -1664,2304 -1664,2304 -704,2304 -704,2432 -1565,2432 " fill="rgb(228,11,11)" stroke="rgb(70,70,70)" stroke-width="10" stroke-linecap="round" />
<polygon points="128,1728 -421,1728 -421,1728 -575,1472 128,1472 128,1472 128,1472 " fill="rgb(22,239,22)" stroke="rgb(70,70,70)" stroke-width="10" stroke-linecap="round" />
<polygon points="128,1856 128,2645 -344,1856 128,1856 " fill="rgb(26,243,243)" stroke="rgb(70,70,70)" stroke-width="10" stroke-linecap="round" />
<polygon points="-32,1728 -32,1728 128,1728 128,1856 -32,1856 " fill="rgb(228,11,11)" stroke="rgb(70,70,70)" stroke-width="10" stroke-linecap="round" />
<polygon points="-160,1856 -344,1856 -421,1728 -160,1728 " fill="rgb(3,3,220)" stroke="rgb(70,70,70)" stroke-width="10" stroke-linecap="round" />
<polygon points="-272,1088 -128,1040 -64,1040 -64,1040 80,1088 -272,1088 -272,1088 " fill="rgb(251,251,34)" stroke="rgb(70,70,70)" stroke-width="10" stroke-linecap="round" />
<polygon points="-64,1024 -64,1040 -128,1040 -128,1040 -128,1024 " fill="rgb(228,11,11)" stroke="rgb(70,70,70)" stroke-width="10" stroke-linecap="round" />
<polygon points="80,1088 80,1088 80,1384 -272,1384 -272,1384 -272,1384 -272,1088 -272,1088 " fill="rgb(22,239,22)" stroke="rgb(70,70,70)" stroke-width="10" stroke-linecap="round" />
<polygon points="-144,1408 -48,1408 -48,1408 16,1472 -208,1472 " fill="rgb(22,239,22)" stroke="rgb(70,70,70)" stroke-width="10" stroke-linecap="round" />
<polygon points="-144,1384 -48,1384 -48,1408 -144,1408 " fill="rgb(228,11,11)" stroke="rgb(70,70,70)" stroke-width="10" stroke-linecap="round" />
<polygon points="-768,1150 -768,1150 -844,1024 -768,1024 " fill="rgb(228,11,11)" stroke="rgb(70,70,70)" stroke-width="10" stroke-linecap="round" />
<polygon points="-448,1472 -575,1472 -627,1384 -608,1367 " fill="rgb(232,15,232)" stroke="rgb(70,70,70)" stroke-width="10" stroke-linecap="round" />
<polygon points="16,832 -80,832 -80,768 -80,768 16,768 16,832 " fill="rgb(232,15,232)" stroke="rgb(70,70,70)" stroke-width="10" stroke-linecap="round" />
<polygon points="16,832 16,768 16,768 32,768 32,768 32,832 32,832 16,832 " fill="rgb(232,15,232)" stroke="rgb(70,70,70)" stroke-width="10" stroke-linecap="round" />
<polygon points="-80,816 -80,832 -128,832 -128,816 -80,816 " fill="rgb(22,239,22)" stroke="rgb(70,70,70)" stroke-width="10" stroke-linecap="round" />
<polygon points="-128,784 -128,768 -80,768 -80,784 -128,784 " fill="rgb(3,3,220)" stroke="rgb(70,70,70)" stroke-width="10" stroke-linecap="round" />
<polygon points="-112,784 -112,816 -112,816 -128,816 -128,784 " fill="rgb(232,15,232)" stroke="rgb(70,70,70)" stroke-width="10" stroke-linecap="round" />
<polygon points="-112,816 -112,816 -112,784 -112,784 -80,784 -80,784 -80,816 -80,816 " fill="rgb(228,11,11)" stroke="rgb(70,70,70)" stroke-width="10" stroke-linecap="round" />
<polygon points="32,768 48,768 48,768 48,832 48,832 32,832 32,832 32,768 " fill="rgb(228,11,11)" stroke="rgb(70,70,70)" stroke-width="10" stroke-linecap="round" />
<polygon points="48,768 48,768 64,768 64,768 64,832 64,832 48,832 48,832 " fill="rgb(26,243,243)" stroke="rgb(70,70,70)" stroke-width="10" stroke-linecap="round" />
<polygon points="128,832 64,832 64,832 64,768 64,768 128,768 128,768 128,832 " fill="rgb(26,243,243)" stroke="rgb(70,70,70)" stroke-width="10" stroke-linecap="round" />
<polygon points="-128,912 -128,832 -64,832 -64,912 -128,912 " fill="rgb(26,243,243)" stroke="rgb(70,70,70)" stroke-width="10" stroke-linecap="round" />
<polygon points="-64,928 -64,928 -128,928 -128,928 -128,912 -128,912 -64,912 -64,912 " fill="rgb(26,243,243)" stroke="rgb(70,70,70)" stroke-width="10" stroke-linecap="round" />
<polygon points="-128,944 -128,928 -128,928 -64,928 -64,928 -64,944 -64,944 -128,944 " fill="rgb(3,3,220)" stroke="rgb(70,70,70)" stroke-width="10" stroke-linecap="round" />
<polygon points="-128,944 -64,944 -64,944 -64,960 -64,960 -128,960 -128,960 -128,944 " fill="rgb(3,3,220)" stroke="rgb(70,70,70)" stroke-width="10" stroke-linecap="round" />
<polygon points="-128,1024 -128,960 -128,960 -64,960 -64,960 -64,1024 -64,1024 -128,1024 " fill="rgb(22,239,22)" stroke="rgb(70,70,70)" stroke-width="10" stroke-linecap="round" />
<polygon points="-64,832 -64,832 -64,832 64,832 64,832 64,832 64,832 -64,960 -64,832 " fill="rgb(3,3,220)" stroke="rgb(70,70,70)" stroke-width="10" stroke-linecap="round" />
<polygon points="-128,832 -128,960 -128,960 -128,960 -128,960 -256,832 -256,832 -128,832 -128,832 -128,832 " fill="rgb(232,15,232)" stroke="rgb(70,70,70)" stroke-width="10" stroke-linecap="round" />
<polygon points="-208,768 -128,768 -128,832 -208,832 -208,768 " fill="rgb(3,3,220)" stroke="rgb(70,70,70)" stroke-width="10" stroke-linecap="round" />
<polygon points="-224,832 -224,832 -224,768 -224,768 -208,768 -208,768 -208,832 -208,832 " fill="rgb(251,251,34)" stroke="rgb(70,70,70)" stroke-width="10" stroke-linecap="round" />
<polygon points="-240,768 -224,768 -224,768 -224,832 -224,832 -240,832 -240,832 -240,768 " fill="rgb(232,15,232)" stroke="rgb(70,70,70)" stroke-width="10" stroke-linecap="round" />
<polygon points="-256,768 -240,768 -240,768 -240,832 -240,832 -256,832 -256,832 -256,832 -256,768 " fill="rgb(228,11,11)" stroke="rgb(70,70,70)" stroke-width="10" stroke-linecap="round" />
<polygon points="-256,832 -320,768 -256,768 -256,768 -256,832 -256,832 " fill="rgb(26,243,243)" stroke="rgb(70,70,70)" stroke-width="10" stroke-linecap="round" />
<polygon points="-384,976 -384,768 -384,768 -336,768 -336,832 -336,832 " fill="rgb(26,243,243)" stroke="rgb(70,70,70)" stroke-width="10" stroke-linecap="round" />
<polygon points="-320,768 -256,832 -320,832 -320,768 -320,768 " fill="rgb(228,11,11)" stroke="rgb(70,70,70)" stroke-width="10" stroke-linecap="round" />
<polygon points="-336,768 -336,768 -320,768 -320,768 -320,768 -320,832 -336,832 " fill="rgb(22,239,22)" stroke="rgb(70,70,70)" stroke-width="10" stroke-linecap="round" />
<polygon points="-704,848 -704,848 -880,1024 -880,1024 -1024,1024 -1024,768 -1024,768 -704,768 " fill="rgb(232,15,232)" stroke="rgb(70,70,70)" stroke-width="10" stroke-linecap="round" />
<polygon points="-704,768 -624,768 -704,848 -704,768 " fill="rgb(26,243,243)" stroke="rgb(70,70,70)" stroke-width="10" stroke-linecap="round" />
<polygon points="-1664,768 -1664,768 -1152,768 -1152,1024 -1152,1024 -1664,1024 " fill="rgb(228,11,11)" stroke="rgb(70,70,70)" stroke-width="10" stroke-linecap="round" />
<polygon points="-1152,864 -1024,864 -1024,1024 -1152,1024 " fill="rgb(26,243,243)" stroke="rgb(70,70,70)" stroke-width="10" stroke-linecap="round" />
<polygon points="-680,976 -680,824 -680,824 -624,768 -384,768 -384,976 -384,976 " fill="rgb(22,239,22)" stroke="rgb(70,70,70)" stroke-width="10" stroke-linecap="round" />
<polygon points="-768,1024 -880,1024 -768,912 -768,1024 " fill="rgb(3,3,220)" stroke="rgb(70,70,70)" stroke-width="10" stroke-linecap="round" />
<polygon points="-704,848 -680,824 -680,848 " fill="rgb(228,11,11)" stroke="rgb(70,70,70)" stroke-width="10" stroke-linecap="round" />
<polygon points="-936,-64 -936,-64 -1280,280 -1280,280 -1280,-64 " fill="rgb(22,239,22)" stroke="rgb(70,70,70)" stroke-width="10" stroke-linecap="round" />
<polygon points="-944,-56 -936,-64 -460,-64 -624,209 -944,-56 " fill="rgb(228,11,11)" stroke="rgb(70,70,70)" stroke-width="10" stroke-linecap="round" />
<polygon points="-844,576 -1280,576 -1280,280 -1280,280 -952,-48 -671,287 " fill="rgb(22,239,22)" stroke="rgb(70,70,70)" stroke-width="10" stroke-linecap="round" />
<polygon points="-1664,-64 -1664,-64 -1408,-64 -1408,576 -1408,576 -1664,576 " fill="rgb(251,251,34)" stroke="rgb(70,70,70)" stroke-width="10" stroke-linecap="round" />
<polygon points="-1408,320 -1408,-64 -1280,-64 -1280,320 -1408,320 " fill="rgb(3,3,220)" stroke="rgb(70,70,70)" stroke-width="10" stroke-linecap="round" />
<polygon points="-1280,448 -1280,576 -1408,576 -1408,448 " fill="rgb(251,251,34)" stroke="rgb(70,70,70)" stroke-width="10" stroke-linecap="round" />
<polygon points="-960,-576 -960,-576 -153,-576 -153,-576 -460,-64 -960,-64 " fill="rgb(22,239,22)" stroke="rgb(70,70,70)" stroke-width="10" stroke-linecap="round" />
<polygon points="-1664,-64 -1664,-576 -1664,-576 -1216,-576 -1216,-64 -1216,-64 " fill="rgb(232,15,232)" stroke="rgb(70,70,70)" stroke-width="10" stroke-linecap="round" />
<polygon points="-1216,-320 -1216,-576 -960,-576 -960,-320 " fill="rgb(3,3,220)" stroke="rgb(70,70,70)" stroke-width="10" stroke-linecap="round" />
<polygon points="-88,-1664 -88,-1664 128,-1540 128,-1045 -76,-704 -1664,-704 -1664,-704 -1664,-760 -1664,-760 " fill="rgb(228,11,11)" stroke="rgb(70,70,70)" stroke-width="10" stroke-linecap="round" />
<polygon points="-512,-576 -512,-704 -512,-704 -76,-704 -153,-576 " fill="rgb(232,15,232)" stroke="rgb(70,70,70)" stroke-width="10" stroke-linecap="round" />
<polygon points="-1664,-704 -1664,-704 -640,-704 -640,-576 -1664,-576 " fill="rgb(228,11,11)" stroke="rgb(70,70,70)" stroke-width="10" stroke-linecap="round" />
<polygon points="-421,-128 128,-128 128,-128 128,128 -575,128 -575,128 -575,128 " fill="rgb(22,239,22)" stroke="rgb(70,70,70)" stroke-width="10" stroke-linecap="round" />
<polygon points="-32,-777 128,-1045 128,-128 -32,-128 -32,-777 " fill="rgb(251,251,34)" stroke="rgb(70,70,70)" stroke-width="10" stroke-linecap="round" />
<polygon points="-344,-256 -344,-256 -32,-777 -32,-256 " fill="rgb(251,251,34)" stroke="rgb(70,70,70)" stroke-width="10" stroke-linecap="round" />
<polygon points="-160,-128 -421,-128 -344,-256 -160,-256 " fill="rgb(251,251,34)" stroke="rgb(70,70,70)" stroke-width="10" stroke-linecap="round" />
<polygon points="80,512 -64,560 -128,560 -128,560 -272,512 -272,512 80,512 " fill="rgb(22,239,22)" stroke="rgb(70,70,70)" stroke-width="10" stroke-linecap="round" />
<polygon points="-128,560 -64,560 -64,560 -64,576 -128,576 " fill="rgb(228,11,11)" stroke="rgb(70,70,70)" stroke-width="10" stroke-linecap="round" />
<polygon points="-272,216 -272,216 80,216 80,216 80,216 80,512 -272,512 -272,512 " fill="rgb(3,3,220)" stroke="rgb(70,70,70)" stroke-width="10" stroke-linecap="round" />
<polygon points="16,128 -48,192 -144,192 -144,192 -208,128 " fill="rgb(3,3,220)" stroke="rgb(70,70,70)" stroke-width="10" stroke-linecap="round" />
<polygon points="-48,216 -144,216 -144,192 -48,192 " fill="rgb(251,251,34)" stroke="rgb(70,70,70)" stroke-width="10" stroke-linecap="round" />
<polygon points="-623,210 -575,128 -448,128 -448,128 -608,223 " fill="rgb(22,239,22)" stroke="rgb(70,70,70)" stroke-width="10" stroke-linecap="round" />
<polygon points="-768,449 -768,576 -844,576 " fill="rgb(22,239,22)" stroke="rgb(70,70,70)" stroke-width="10" stroke-linecap="round" />
<polygon points="-256,768 -256,768 -256,768 -128,640 -128,640 -128,768 -128,768 -128,768 -128,768 -256,768 " fill="rgb(251,251,34)" stroke="rgb(70,70,70)" stroke-width="10" stroke-linecap="round" />
<polygon points="-384,768 -384,624 -384,624 -336,768 " fill="rgb(3,3,220)" stroke="rgb(70,70,70)" stroke-width="10" stroke-linecap="round" />
<polygon points="-1024,576 -768,576 -768,768 -768,768 -1024,768 -1024,576 " fill="rgb(228,11,11)" stroke="rgb(70,70,70)" stroke-width="10" stroke-linecap="round" />
<polygon points="-1664,576 -1664,576 -1152,576 -1152,768 -1152,768 -1664,768 " fill="rgb(232,15,232)" stroke="rgb(70,70,70)" stroke-width="10" stroke-linecap="round" />
<polygon points="-1152,736 -1152,576 -1024,576 -1024,736 " fill="rgb(232,15,232)" stroke="rgb(70,70,70)" stroke-width="10" stroke-linecap="round" />
<polygon points="-768,688 -704,752 -704,752 -704,768 -704,768 -768,768 " fill="rgb(3,3,220)" stroke="rgb(70,70,70)" stroke-width="10" stroke-linecap="round" />
<polygon points="-704,752 -704,752 -688,768 -704,768 " fill="rgb(251,251,34)" stroke="rgb(70,70,70)" stroke-width="10" stroke-linecap="round" />
<polygon points="-384,768 -680,768 -680,624 -680,624 -384,624 -384,768 " fill="rgb(228,11,11)" stroke="rgb(70,70,70)" stroke-width="10" stroke-linecap="round" />
<polygon points="-680,752 -680,768 -688,768 -704,752 " fill="rgb(251,251,34)" stroke="rgb(70,70,70)" stroke-width="10" stroke-linecap="round" />
<polygon points="-64,688 -64,768 -128,768 -128,688 -64,688 " fill="rgb(251,251,34)" stroke="rgb(70,70,70)" stroke-width="10" stroke-linecap="round" />
<polygon points="-128,672 -128,672 -64,672 -64,672 -64,688 -64,688 -128,688 -128,688 " fill="rgb(232,15,232)" stroke="rgb(70,70,70)" stroke-width="10" stroke-linecap="round" />
<polygon points="-128,656 -64,656 -64,656 -64,672 -64,672 -128,672 -128,672 -128,656 " fill="rgb(3,3,220)" stroke="rgb(70,70,70)" stroke-width="10" stroke-linecap="round" />
<polygon points="-64,656 -64,656 -128,656 -128,656 -128,640 -128,640 -64,640 -64,640 " fill="rgb(251,251,34)" stroke="rgb(70,70,70)" stroke-width="10" stroke-linecap="round" />
<polygon points="-64,576 -64,640 -64,640 -128,640 -128,640 -128,576 -128,576 -64,576 " fill="rgb(228,11,11)" stroke="rgb(70,70,70)" stroke-width="10" stroke-linecap="round" />
<polygon points="-64,640 -64,640 -64,640 64,768 -64,768 -64,768 -64,768 -64,768 -64,640 " fill="rgb(228,11,11)" stroke="rgb(70,70,70)" stroke-width="10" stroke-linecap="round" />

</svg>

