<svg width="900" height="1451" preserveAspectRatio="none" viewBox="-1794 -1794 3396 5316"
 xmlns="http://www.w3.org/2000/svg" xmlns:xlink="http://www.w3.org/1999/xlink">
   <defs>
    <marker id="arrow" markerWidth="10" markerHeight="10" refX="0" refY="2" orient="auto" markerUnits="strokeWidth">
      <path d="M0,0 L0,4 L5,3 z" fill="#f00" />
    </marker>
  </defs>

<line x1="-1672" y1="3400" x2="1528" y2="3400" stroke-width="7" stroke="black"/>
<line x1="-1672" y1="3272" x2="1528" y2="3272" stroke-width="7" stroke="black"/>
<line x1="-1672" y1="3144" x2="1528" y2="3144" stroke-width="7" stroke="black"/>
<line x1="-1672" y1="3016" x2="1528" y2="3016" stroke-width="7" stroke="black"/>
<line x1="-1672" y1="2888" x2="1528" y2="2888" stroke-width="7" stroke="black"/>
<line x1="-1672" y1="2760" x2="1528" y2="2760" stroke-width="7" stroke="black"/>
<line x1="-1672" y1="2632" x2="1528" y2="2632" stroke-width="7" stroke="black"/>
<line x1="-1672" y1="2504" x2="1528" y2="2504" stroke-width="7" stroke="black"/>
<line x1="-1672" y1="2376" x2="1528" y2="2376" stroke-width="7" stroke="black"/>
<line x1="-1672" y1="2248" x2="1528" y2="2248" stroke-width="7" stroke="black"/>
<line x1="-1672" y1="2120" x2="1528" y2="2120" stroke-width="7" stroke="black"/>
<line x1="-1672" y1="1992" x2="1528" y2="1992" stroke-width="7" stroke="black"/>
<line x1="-1672" y1="1864" x2="1528" y2="1864" stroke-width="7" stroke="black"/>
<line x1="-1672" y1="1736" x2="1528" y2="1736" stroke-width="7" stroke="black"/>
<line x1="-1672" y1="1608" x2="1528" y2="1608" stroke-width="7" stroke="black"/>
<line x1="-1672" y1="1480" x2="1528" y2="1480" stroke-width="7" stroke="black"/>
<line x1="-1672" y1="1352" x2="1528" y2="1352" stroke-width="7" stroke="black"/>
<line x1="-1672" y1="1224" x2="1528" y2="1224" stroke-width="7" stroke="black"/>
<line x1="-1672" y1="1096" x2="1528" y2="1096" stroke-width="7" stroke="black"/>
<line x1="-1672" y1="968" x2="1528" y2="968" stroke-width="7" stroke="black"/>
<line x1="-1672" y1="840" x2="1528" y2="840" stroke-width="7" stroke="black"/>
<line x1="-1672" y1="712" x2="1528" y2="712" stroke-width="7" stroke="black"/>
<line x1="-1672" y1="584" x2="1528" y2="584" stroke-width="7" stroke="black"/>
<line x1="-1672" y1="456" x2="1528" y2="456" stroke-width="7" stroke="black"/>
<line x1="-1672" y1="328" x2="1528" y2="328" stroke-width="7" stroke="black"/>
<line x1="-1672" y1="200" x2="1528" y2="200" stroke-width="7" stroke="black"/>
<line x1="-1672" y1="72" x2="1528" y2="72" stroke-width="7" stroke="black"/>
<line x1="-1672" y1="-56" x2="1528" y2="-56" stroke-width="7" stroke="black"/>
<line x1="-1672" y1="-184" x2="1528" y2="-184" stroke-width="7" stroke="black"/>
<line x1="-1672" y1="-312" x2="1528" y2="-312" stroke-width="7" stroke="black"/>
<line x1="-1672" y1="-440" x2="1528" y2="-440" stroke-width="7" stroke="black"/>
<line x1="-1672" y1="-568" x2="1528" y2="-568" stroke-width="7" stroke="black"/>
<line x1="-1672" y1="-696" x2="1528" y2="-696" stroke-width="7" stroke="black"/>
<line x1="-1672" y1="-824" x2="1528" y2="-824" stroke-width="7" stroke="black"/>
<line x1="-1672" y1="-952" x2="1528" y2="-952" stroke-width="7" stroke="black"/>
<line x1="-1672" y1="-1080" x2="1528" y2="-1080" stroke-width="7" stroke="black"/>
<line x1="-1672" y1="-1208" x2="1528" y2="-1208" stroke-width="7" stroke="black"/>
<line x1="-1672" y1="-1336" x2="1528" y2="-1336" stroke-width="7" stroke="black"/>
<line x1="-1672" y1="-1464" x2="1528" y2="-1464" stroke-width="7" stroke="black"/>
<line x1="-1672" y1="-1592" x2="1528" y2="-1592" stroke-width="7" stroke="black"/>
<line x1="-1672" y1="-1720" x2="1528" y2="-1720" stroke-width="7" stroke="black"/>
<line x1="-1672" y1="3400" x2="-1672" y2="-1720" stroke-width="7" stroke="black"/>
<line x1="-1544" y1="3400" x2="-1544" y2="-1720" stroke-width="7" stroke="black"/>
<line x1="-1416" y1="3400" x2="-1416" y2="-1720" stroke-width="7" stroke="black"/>
<line x1="-1288" y1="3400" x2="-1288" y2="-1720" stroke-width="7" stroke="black"/>
<line x1="-1160" y1="3400" x2="-1160" y2="-1720" stroke-width="7" stroke="black"/>
<line x1="-1032" y1="3400" x2="-1032" y2="-1720" stroke-width="7" stroke="black"/>
<line x1="-904" y1="3400" x2="-904" y2="-1720" stroke-width="7" stroke="black"/>
<line x1="-776" y1="3400" x2="-776" y2="-1720" stroke-width="7" stroke="black"/>
<line x1="-648" y1="3400" x2="-648" y2="-1720" stroke-width="7" stroke="black"/>
<line x1="-520" y1="3400" x2="-520" y2="-1720" stroke-width="7" stroke="black"/>
<line x1="-392" y1="3400" x2="-392" y2="-1720" stroke-width="7" stroke="black"/>
<line x1="-264" y1="3400" x2="-264" y2="-1720" stroke-width="7" stroke="black"/>
<line x1="-136" y1="3400" x2="-136" y2="-1720" stroke-width="7" stroke="black"/>
<line x1="-8" y1="3400" x2="-8" y2="-1720" stroke-width="7" stroke="black"/>
<line x1="120" y1="3400" x2="120" y2="-1720" stroke-width="7" stroke="black"/>
<line x1="248" y1="3400" x2="248" y2="-1720" stroke-width="7" stroke="black"/>
<line x1="376" y1="3400" x2="376" y2="-1720" stroke-width="7" stroke="black"/>
<line x1="504" y1="3400" x2="504" y2="-1720" stroke-width="7" stroke="black"/>
<line x1="632" y1="3400" x2="632" y2="-1720" stroke-width="7" stroke="black"/>
<line x1="760" y1="3400" x2="760" y2="-1720" stroke-width="7" stroke="black"/>
<line x1="888" y1="3400" x2="888" y2="-1720" stroke-width="7" stroke="black"/>
<line x1="1016" y1="3400" x2="1016" y2="-1720" stroke-width="7" stroke="black"/>
<line x1="1144" y1="3400" x2="1144" y2="-1720" stroke-width="7" stroke="black"/>
<line x1="1272" y1="3400" x2="1272" y2="-1720" stroke-width="7" stroke="black"/>
<line x1="1400" y1="3400" x2="1400" y2="-1720" stroke-width="7" stroke="black"/>
<line x1="1528" y1="3400" x2="1528" y2="-1720" stroke-width="7" stroke="black"/>
<line x1="-128" y1="1024" x2="-128" y2="960" stroke-width="7" stroke="black" marker-end="url(#arrow)" />
    <circle cx="-128" cy="1024" r="10"/>    <circle cx="-128" cy="960" r="10"/>
<line x1="-128" y1="960" x2="-256" y2="832" stroke-width="7" stroke="black" marker-end="url(#arrow)" />
    <circle cx="-128" cy="960" r="10"/>    <circle cx="-256" cy="832" r="10"/>
<line x1="-256" y1="832" x2="-320" y2="832" stroke-width="7" stroke="black" marker-end="url(#arrow)" />
    <circle cx="-256" cy="832" r="10"/>    <circle cx="-320" cy="832" r="10"/>
<line x1="-320" y1="832" x2="-320" y2="768" stroke-width="7" stroke="black" marker-end="url(#arrow)" />
    <circle cx="-320" cy="832" r="10"/>    <circle cx="-320" cy="768" r="10"/>
<line x1="-320" y1="768" x2="-256" y2="768" stroke-width="7" stroke="black" marker-end="url(#arrow)" />
    <circle cx="-320" cy="768" r="10"/>    <circle cx="-256" cy="768" r="10"/>
<line x1="-256" y1="768" x2="-128" y2="640" stroke-width="7" stroke="black" marker-end="url(#arrow)" />
    <circle cx="-256" cy="768" r="10"/>    <circle cx="-128" cy="640" r="10"/>
<line x1="-128" y1="640" x2="-128" y2="576" stroke-width="7" stroke="black" marker-end="url(#arrow)" />
    <circle cx="-128" cy="640" r="10"/>    <circle cx="-128" cy="576" r="10"/>
<line x1="-128" y1="576" x2="-64" y2="576" stroke-width="7" stroke="black" marker-end="url(#arrow)" />
    <circle cx="-128" cy="576" r="10"/>    <circle cx="-64" cy="576" r="10"/>
<line x1="-64" y1="576" x2="-64" y2="640" stroke-width="7" stroke="black" marker-end="url(#arrow)" />
    <circle cx="-64" cy="576" r="10"/>    <circle cx="-64" cy="640" r="10"/>
<line x1="-64" y1="640" x2="64" y2="768" stroke-width="7" stroke="black" marker-end="url(#arrow)" />
    <circle cx="-64" cy="640" r="10"/>    <circle cx="64" cy="768" r="10"/>
<line x1="64" y1="768" x2="128" y2="768" stroke-width="7" stroke="black" marker-end="url(#arrow)" />
    <circle cx="64" cy="768" r="10"/>    <circle cx="128" cy="768" r="10"/>
<line x1="128" y1="768" x2="128" y2="832" stroke-width="7" stroke="black" marker-end="url(#arrow)" />
    <circle cx="128" cy="768" r="10"/>    <circle cx="128" cy="832" r="10"/>
<line x1="128" y1="832" x2="64" y2="832" stroke-width="7" stroke="black" marker-end="url(#arrow)" />
    <circle cx="128" cy="832" r="10"/>    <circle cx="64" cy="832" r="10"/>
<line x1="64" y1="832" x2="-64" y2="960" stroke-width="7" stroke="black" marker-end="url(#arrow)" />
    <circle cx="64" cy="832" r="10"/>    <circle cx="-64" cy="960" r="10"/>
<line x1="-64" y1="960" x2="-64" y2="1024" stroke-width="7" stroke="black" marker-end="url(#arrow)" />
    <circle cx="-64" cy="960" r="10"/>    <circle cx="-64" cy="1024" r="10"/>
<line x1="-64" y1="1024" x2="-128" y2="1024" stroke-width="7" stroke="black" marker-end="url(#arrow)" />
    <circle cx="-64" cy="1024" r="10"/>    <circle cx="-128" cy="1024" r="10"/>
<line x1="-256" y1="832" x2="-256" y2="768" stroke-width="7" stroke="black" marker-end="url(#arrow)" />
    <circle cx="-256" cy="832" r="10"/>    <circle cx="-256" cy="768" r="10"/>
<line x1="-128" y1="640" x2="-64" y2="640" stroke-width="7" stroke="black" marker-end="url(#arrow)" />
    <circle cx="-128" cy="640" r="10"/>    <circle cx="-64" cy="640" r="10"/>
<line x1="64" y1="768" x2="64" y2="832" stroke-width="7" stroke="black" marker-end="url(#arrow)" />
    <circle cx="64" cy="768" r="10"/>    <circle cx="64" cy="832" r="10"/>
<line x1="-64" y1="960" x2="-128" y2="960" stroke-width="7" stroke="black" marker-end="url(#arrow)" />
    <circle cx="-64" cy="960" r="10"/>    <circle cx="-128" cy="960" r="10"/>
<line x1="-112" y1="816" x2="-80" y2="816" stroke-width="7" stroke="black" marker-end="url(#arrow)" />
    <circle cx="-112" cy="816" r="10"/>    <circle cx="-80" cy="816" r="10"/>
<line x1="-80" y1="816" x2="-80" y2="784" stroke-width="7" stroke="black" marker-end="url(#arrow)" />
    <circle cx="-80" cy="816" r="10"/>    <circle cx="-80" cy="784" r="10"/>
<line x1="-80" y1="784" x2="-112" y2="784" stroke-width="7" stroke="black" marker-end="url(#arrow)" />
    <circle cx="-80" cy="784" r="10"/>    <circle cx="-112" cy="784" r="10"/>
<line x1="-112" y1="784" x2="-112" y2="816" stroke-width="7" stroke="black" marker-end="url(#arrow)" />
    <circle cx="-112" cy="784" r="10"/>    <circle cx="-112" cy="816" r="10"/>
<line x1="48" y1="832" x2="64" y2="832" stroke-width="7" stroke="black" marker-end="url(#arrow)" />
    <circle cx="48" cy="832" r="10"/>    <circle cx="64" cy="832" r="10"/>
<line x1="32" y1="832" x2="48" y2="832" stroke-width="7" stroke="black" marker-end="url(#arrow)" />
    <circle cx="32" cy="832" r="10"/>    <circle cx="48" cy="832" r="10"/>
<line x1="16" y1="832" x2="32" y2="832" stroke-width="7" stroke="black" marker-end="url(#arrow)" />
    <circle cx="16" cy="832" r="10"/>    <circle cx="32" cy="832" r="10"/>
<line x1="16" y1="768" x2="16" y2="832" stroke-width="7" stroke="black" marker-end="url(#arrow)" />
    <circle cx="16" cy="768" r="10"/>    <circle cx="16" cy="832" r="10"/>
<line x1="32" y1="768" x2="16" y2="768" stroke-width="7" stroke="black" marker-end="url(#arrow)" />
    <circle cx="32" cy="768" r="10"/>    <circle cx="16" cy="768" r="10"/>
<line x1="48" y1="768" x2="32" y2="768" stroke-width="7" stroke="black" marker-end="url(#arrow)" />
    <circle cx="48" cy="768" r="10"/>    <circle cx="32" cy="768" r="10"/>
<line x1="64" y1="768" x2="48" y2="768" stroke-width="7" stroke="black" marker-end="url(#arrow)" />
    <circle cx="64" cy="768" r="10"/>    <circle cx="48" cy="768" r="10"/>
<line x1="32" y1="768" x2="32" y2="832" stroke-width="7" stroke="black" marker-end="url(#arrow)" />
    <circle cx="32" cy="768" r="10"/>    <circle cx="32" cy="832" r="10"/>
<line x1="-64" y1="656" x2="-64" y2="640" stroke-width="7" stroke="black" marker-end="url(#arrow)" />
    <circle cx="-64" cy="656" r="10"/>    <circle cx="-64" cy="640" r="10"/>
<line x1="-64" y1="672" x2="-64" y2="656" stroke-width="7" stroke="black" marker-end="url(#arrow)" />
    <circle cx="-64" cy="672" r="10"/>    <circle cx="-64" cy="656" r="10"/>
<line x1="-64" y1="688" x2="-64" y2="672" stroke-width="7" stroke="black" marker-end="url(#arrow)" />
    <circle cx="-64" cy="688" r="10"/>    <circle cx="-64" cy="672" r="10"/>
<line x1="-128" y1="688" x2="-64" y2="688" stroke-width="7" stroke="black" marker-end="url(#arrow)" />
    <circle cx="-128" cy="688" r="10"/>    <circle cx="-64" cy="688" r="10"/>
<line x1="-128" y1="672" x2="-128" y2="688" stroke-width="7" stroke="black" marker-end="url(#arrow)" />
    <circle cx="-128" cy="672" r="10"/>    <circle cx="-128" cy="688" r="10"/>
<line x1="-128" y1="656" x2="-128" y2="672" stroke-width="7" stroke="black" marker-end="url(#arrow)" />
    <circle cx="-128" cy="656" r="10"/>    <circle cx="-128" cy="672" r="10"/>
<line x1="-128" y1="640" x2="-128" y2="656" stroke-width="7" stroke="black" marker-end="url(#arrow)" />
    <circle cx="-128" cy="640" r="10"/>    <circle cx="-128" cy="656" r="10"/>
<line x1="-128" y1="656" x2="-64" y2="656" stroke-width="7" stroke="black" marker-end="url(#arrow)" />
    <circle cx="-128" cy="656" r="10"/>    <circle cx="-64" cy="656" r="10"/>
<line x1="-128" y1="672" x2="-64" y2="672" stroke-width="7" stroke="black" marker-end="url(#arrow)" />
    <circle cx="-128" cy="672" r="10"/>    <circle cx="-64" cy="672" r="10"/>
<line x1="-256" y1="832" x2="-240" y2="832" stroke-width="7" stroke="black" marker-end="url(#arrow)" />
    <circle cx="-256" cy="832" r="10"/>    <circle cx="-240" cy="832" r="10"/>
<line x1="-240" y1="832" x2="-224" y2="832" stroke-width="7" stroke="black" marker-end="url(#arrow)" />
    <circle cx="-240" cy="832" r="10"/>    <circle cx="-224" cy="832" r="10"/>
<line x1="-224" y1="832" x2="-208" y2="832" stroke-width="7" stroke="black" marker-end="url(#arrow)" />
    <circle cx="-224" cy="832" r="10"/>    <circle cx="-208" cy="832" r="10"/>
<line x1="-208" y1="832" x2="-208" y2="768" stroke-width="7" stroke="black" marker-end="url(#arrow)" />
    <circle cx="-208" cy="832" r="10"/>    <circle cx="-208" cy="768" r="10"/>
<line x1="-208" y1="768" x2="-224" y2="768" stroke-width="7" stroke="black" marker-end="url(#arrow)" />
    <circle cx="-208" cy="768" r="10"/>    <circle cx="-224" cy="768" r="10"/>
<line x1="-224" y1="768" x2="-240" y2="768" stroke-width="7" stroke="black" marker-end="url(#arrow)" />
    <circle cx="-224" cy="768" r="10"/>    <circle cx="-240" cy="768" r="10"/>
<line x1="-240" y1="768" x2="-256" y2="768" stroke-width="7" stroke="black" marker-end="url(#arrow)" />
    <circle cx="-240" cy="768" r="10"/>    <circle cx="-256" cy="768" r="10"/>
<line x1="-240" y1="832" x2="-240" y2="768" stroke-width="7" stroke="black" marker-end="url(#arrow)" />
    <circle cx="-240" cy="832" r="10"/>    <circle cx="-240" cy="768" r="10"/>
<line x1="-224" y1="832" x2="-224" y2="768" stroke-width="7" stroke="black" marker-end="url(#arrow)" />
    <circle cx="-224" cy="832" r="10"/>    <circle cx="-224" cy="768" r="10"/>
<line x1="-64" y1="960" x2="-64" y2="944" stroke-width="7" stroke="black" marker-end="url(#arrow)" />
    <circle cx="-64" cy="960" r="10"/>    <circle cx="-64" cy="944" r="10"/>
<line x1="-64" y1="944" x2="-64" y2="928" stroke-width="7" stroke="black" marker-end="url(#arrow)" />
    <circle cx="-64" cy="944" r="10"/>    <circle cx="-64" cy="928" r="10"/>
<line x1="-64" y1="928" x2="-64" y2="912" stroke-width="7" stroke="black" marker-end="url(#arrow)" />
    <circle cx="-64" cy="928" r="10"/>    <circle cx="-64" cy="912" r="10"/>
<line x1="-64" y1="912" x2="-128" y2="912" stroke-width="7" stroke="black" marker-end="url(#arrow)" />
    <circle cx="-64" cy="912" r="10"/>    <circle cx="-128" cy="912" r="10"/>
<line x1="-128" y1="912" x2="-128" y2="928" stroke-width="7" stroke="black" marker-end="url(#arrow)" />
    <circle cx="-128" cy="912" r="10"/>    <circle cx="-128" cy="928" r="10"/>
<line x1="-128" y1="928" x2="-128" y2="944" stroke-width="7" stroke="black" marker-end="url(#arrow)" />
    <circle cx="-128" cy="928" r="10"/>    <circle cx="-128" cy="944" r="10"/>
<line x1="-128" y1="944" x2="-128" y2="960" stroke-width="7" stroke="black" marker-end="url(#arrow)" />
    <circle cx="-128" cy="944" r="10"/>    <circle cx="-128" cy="960" r="10"/>
<line x1="-64" y1="944" x2="-128" y2="944" stroke-width="7" stroke="black" marker-end="url(#arrow)" />
    <circle cx="-64" cy="944" r="10"/>    <circle cx="-128" cy="944" r="10"/>
<line x1="-64" y1="928" x2="-128" y2="928" stroke-width="7" stroke="black" marker-end="url(#arrow)" />
    <circle cx="-64" cy="928" r="10"/>    <circle cx="-128" cy="928" r="10"/>
<line x1="48" y1="768" x2="48" y2="832" stroke-width="7" stroke="black" marker-end="url(#arrow)" />
    <circle cx="48" cy="768" r="10"/>    <circle cx="48" cy="832" r="10"/>
<line x1="-64" y1="560" x2="-64" y2="576" stroke-width="7" stroke="black" marker-end="url(#arrow)" />
    <circle cx="-64" cy="560" r="10"/>    <circle cx="-64" cy="576" r="10"/>
<line x1="80" y1="512" x2="-64" y2="560" stroke-width="7" stroke="black" marker-end="url(#arrow)" />
    <circle cx="80" cy="512" r="10"/>    <circle cx="-64" cy="560" r="10"/>
<line x1="80" y1="216" x2="80" y2="512" stroke-width="7" stroke="black" marker-end="url(#arrow)" />
    <circle cx="80" cy="216" r="10"/>    <circle cx="80" cy="512" r="10"/>
<line x1="-272" y1="512" x2="-272" y2="216" stroke-width="7" stroke="black" marker-end="url(#arrow)" />
    <circle cx="-272" cy="512" r="10"/>    <circle cx="-272" cy="216" r="10"/>
<line x1="-128" y1="560" x2="-272" y2="512" stroke-width="7" stroke="black" marker-end="url(#arrow)" />
    <circle cx="-128" cy="560" r="10"/>    <circle cx="-272" cy="512" r="10"/>
<line x1="-128" y1="576" x2="-128" y2="560" stroke-width="7" stroke="black" marker-end="url(#arrow)" />
    <circle cx="-128" cy="576" r="10"/>    <circle cx="-128" cy="560" r="10"/>
<line x1="-64" y1="560" x2="-128" y2="560" stroke-width="7" stroke="black" marker-end="url(#arrow)" />
    <circle cx="-64" cy="560" r="10"/>    <circle cx="-128" cy="560" r="10"/>
<line x1="-320" y1="832" x2="-336" y2="832" stroke-width="7" stroke="black" marker-end="url(#arrow)" />
    <circle cx="-320" cy="832" r="10"/>    <circle cx="-336" cy="832" r="10"/>
<line x1="-336" y1="832" x2="-384" y2="976" stroke-width="7" stroke="black" marker-end="url(#arrow)" />
    <circle cx="-336" cy="832" r="10"/>    <circle cx="-384" cy="976" r="10"/>
<line x1="-384" y1="976" x2="-680" y2="976" stroke-width="7" stroke="black" marker-end="url(#arrow)" />
    <circle cx="-384" cy="976" r="10"/>    <circle cx="-680" cy="976" r="10"/>
<line x1="-680" y1="624" x2="-384" y2="624" stroke-width="7" stroke="black" marker-end="url(#arrow)" />
    <circle cx="-680" cy="624" r="10"/>    <circle cx="-384" cy="624" r="10"/>
<line x1="-384" y1="624" x2="-336" y2="768" stroke-width="7" stroke="black" marker-end="url(#arrow)" />
    <circle cx="-384" cy="624" r="10"/>    <circle cx="-336" cy="768" r="10"/>
<line x1="-336" y1="768" x2="-320" y2="768" stroke-width="7" stroke="black" marker-end="url(#arrow)" />
    <circle cx="-336" cy="768" r="10"/>    <circle cx="-320" cy="768" r="10"/>
<line x1="-336" y1="768" x2="-336" y2="832" stroke-width="7" stroke="black" marker-end="url(#arrow)" />
    <circle cx="-336" cy="768" r="10"/>    <circle cx="-336" cy="832" r="10"/>
<line x1="-64" y1="1024" x2="-64" y2="1040" stroke-width="7" stroke="black" marker-end="url(#arrow)" />
    <circle cx="-64" cy="1024" r="10"/>    <circle cx="-64" cy="1040" r="10"/>
<line x1="-64" y1="1040" x2="80" y2="1088" stroke-width="7" stroke="black" marker-end="url(#arrow)" />
    <circle cx="-64" cy="1040" r="10"/>    <circle cx="80" cy="1088" r="10"/>
<line x1="80" y1="1088" x2="80" y2="1384" stroke-width="7" stroke="black" marker-end="url(#arrow)" />
    <circle cx="80" cy="1088" r="10"/>    <circle cx="80" cy="1384" r="10"/>
<line x1="-272" y1="1384" x2="-272" y2="1088" stroke-width="7" stroke="black" marker-end="url(#arrow)" />
    <circle cx="-272" cy="1384" r="10"/>    <circle cx="-272" cy="1088" r="10"/>
<line x1="-272" y1="1088" x2="-128" y2="1040" stroke-width="7" stroke="black" marker-end="url(#arrow)" />
    <circle cx="-272" cy="1088" r="10"/>    <circle cx="-128" cy="1040" r="10"/>
<line x1="-128" y1="1040" x2="-128" y2="1024" stroke-width="7" stroke="black" marker-end="url(#arrow)" />
    <circle cx="-128" cy="1040" r="10"/>    <circle cx="-128" cy="1024" r="10"/>
<line x1="-128" y1="1040" x2="-64" y2="1040" stroke-width="7" stroke="black" marker-end="url(#arrow)" />
    <circle cx="-128" cy="1040" r="10"/>    <circle cx="-64" cy="1040" r="10"/>
<line x1="144" y1="832" x2="144" y2="768" stroke-width="7" stroke="black" marker-end="url(#arrow)" />
    <circle cx="144" cy="832" r="10"/>    <circle cx="144" cy="768" r="10"/>
<line x1="144" y1="832" x2="128" y2="832" stroke-width="7" stroke="black" marker-end="url(#arrow)" />
    <circle cx="144" cy="832" r="10"/>    <circle cx="128" cy="832" r="10"/>
<line x1="128" y1="768" x2="144" y2="768" stroke-width="7" stroke="black" marker-end="url(#arrow)" />
    <circle cx="128" cy="768" r="10"/>    <circle cx="144" cy="768" r="10"/>
<line x1="144" y1="768" x2="192" y2="624" stroke-width="7" stroke="black" marker-end="url(#arrow)" />
    <circle cx="144" cy="768" r="10"/>    <circle cx="192" cy="624" r="10"/>
<line x1="192" y1="624" x2="488" y2="624" stroke-width="7" stroke="black" marker-end="url(#arrow)" />
    <circle cx="192" cy="624" r="10"/>    <circle cx="488" cy="624" r="10"/>
<line x1="488" y1="976" x2="192" y2="976" stroke-width="7" stroke="black" marker-end="url(#arrow)" />
    <circle cx="488" cy="976" r="10"/>    <circle cx="192" cy="976" r="10"/>
<line x1="192" y1="976" x2="144" y2="832" stroke-width="7" stroke="black" marker-end="url(#arrow)" />
    <circle cx="192" cy="976" r="10"/>    <circle cx="144" cy="832" r="10"/>
<line x1="512" y1="752" x2="576" y2="688" stroke-width="7" stroke="black" marker-end="url(#arrow)" />
    <circle cx="512" cy="752" r="10"/>    <circle cx="576" cy="688" r="10"/>
<line x1="576" y1="688" x2="576" y2="448" stroke-width="7" stroke="black" marker-end="url(#arrow)" />
    <circle cx="576" cy="688" r="10"/>    <circle cx="576" cy="448" r="10"/>
<line x1="576" y1="448" x2="480" y2="288" stroke-width="7" stroke="black" marker-end="url(#arrow)" />
    <circle cx="576" cy="448" r="10"/>    <circle cx="480" cy="288" r="10"/>
<line x1="480" y1="288" x2="760" y2="-48" stroke-width="7" stroke="black" marker-end="url(#arrow)" />
    <circle cx="480" cy="288" r="10"/>    <circle cx="760" cy="-48" r="10"/>
<line x1="768" y1="-64" x2="1024" y2="-64" stroke-width="7" stroke="black" marker-end="url(#arrow)" />
    <circle cx="768" cy="-64" r="10"/>    <circle cx="1024" cy="-64" r="10"/>
<line x1="1024" y1="-64" x2="1024" y2="-320" stroke-width="7" stroke="black" marker-end="url(#arrow)" />
    <circle cx="1024" cy="-64" r="10"/>    <circle cx="1024" cy="-320" r="10"/>
<line x1="1024" y1="-320" x2="768" y2="-320" stroke-width="7" stroke="black" marker-end="url(#arrow)" />
    <circle cx="1024" cy="-320" r="10"/>    <circle cx="768" cy="-320" r="10"/>
<line x1="768" y1="-320" x2="768" y2="-64" stroke-width="7" stroke="black" marker-end="url(#arrow)" />
    <circle cx="768" cy="-320" r="10"/>    <circle cx="768" cy="-64" r="10"/>
<line x1="752" y1="-56" x2="416" y2="224" stroke-width="7" stroke="black" marker-end="url(#arrow)" />
    <circle cx="752" cy="-56" r="10"/>    <circle cx="416" cy="224" r="10"/>
<line x1="416" y1="224" x2="256" y2="128" stroke-width="7" stroke="black" marker-end="url(#arrow)" />
    <circle cx="416" cy="224" r="10"/>    <circle cx="256" cy="128" r="10"/>
<line x1="256" y1="128" x2="16" y2="128" stroke-width="7" stroke="black" marker-end="url(#arrow)" />
    <circle cx="256" cy="128" r="10"/>    <circle cx="16" cy="128" r="10"/>
<line x1="16" y1="128" x2="-48" y2="192" stroke-width="7" stroke="black" marker-end="url(#arrow)" />
    <circle cx="16" cy="128" r="10"/>    <circle cx="-48" cy="192" r="10"/>
<line x1="-48" y1="1408" x2="16" y2="1472" stroke-width="7" stroke="black" marker-end="url(#arrow)" />
    <circle cx="-48" cy="1408" r="10"/>    <circle cx="16" cy="1472" r="10"/>
<line x1="16" y1="1472" x2="264" y2="1472" stroke-width="7" stroke="black" marker-end="url(#arrow)" />
    <circle cx="16" cy="1472" r="10"/>    <circle cx="264" cy="1472" r="10"/>
<line x1="264" y1="1472" x2="416" y2="1376" stroke-width="7" stroke="black" marker-end="url(#arrow)" />
    <circle cx="264" cy="1472" r="10"/>    <circle cx="416" cy="1376" r="10"/>
<line x1="416" y1="1376" x2="752" y2="1656" stroke-width="7" stroke="black" marker-end="url(#arrow)" />
    <circle cx="416" cy="1376" r="10"/>    <circle cx="752" cy="1656" r="10"/>
<line x1="768" y1="1664" x2="768" y2="1920" stroke-width="7" stroke="black" marker-end="url(#arrow)" />
    <circle cx="768" cy="1664" r="10"/>    <circle cx="768" cy="1920" r="10"/>
<line x1="768" y1="1920" x2="1024" y2="1920" stroke-width="7" stroke="black" marker-end="url(#arrow)" />
    <circle cx="768" cy="1920" r="10"/>    <circle cx="1024" cy="1920" r="10"/>
<line x1="1024" y1="1920" x2="1024" y2="1664" stroke-width="7" stroke="black" marker-end="url(#arrow)" />
    <circle cx="1024" cy="1920" r="10"/>    <circle cx="1024" cy="1664" r="10"/>
<line x1="1024" y1="1664" x2="768" y2="1664" stroke-width="7" stroke="black" marker-end="url(#arrow)" />
    <circle cx="1024" cy="1664" r="10"/>    <circle cx="768" cy="1664" r="10"/>
<line x1="760" y1="1648" x2="480" y2="1312" stroke-width="7" stroke="black" marker-end="url(#arrow)" />
    <circle cx="760" cy="1648" r="10"/>    <circle cx="480" cy="1312" r="10"/>
<line x1="480" y1="1312" x2="576" y2="1152" stroke-width="7" stroke="black" marker-end="url(#arrow)" />
    <circle cx="480" cy="1312" r="10"/>    <circle cx="576" cy="1152" r="10"/>
<line x1="576" y1="1152" x2="576" y2="912" stroke-width="7" stroke="black" marker-end="url(#arrow)" />
    <circle cx="576" cy="1152" r="10"/>    <circle cx="576" cy="912" r="10"/>
<line x1="576" y1="912" x2="512" y2="848" stroke-width="7" stroke="black" marker-end="url(#arrow)" />
    <circle cx="576" cy="912" r="10"/>    <circle cx="512" cy="848" r="10"/>
<line x1="-704" y1="848" x2="-768" y2="912" stroke-width="7" stroke="black" marker-end="url(#arrow)" />
    <circle cx="-704" cy="848" r="10"/>    <circle cx="-768" cy="912" r="10"/>
<line x1="-768" y1="912" x2="-768" y2="1152" stroke-width="7" stroke="black" marker-end="url(#arrow)" />
    <circle cx="-768" cy="912" r="10"/>    <circle cx="-768" cy="1152" r="10"/>
<line x1="-768" y1="1152" x2="-672" y2="1312" stroke-width="7" stroke="black" marker-end="url(#arrow)" />
    <circle cx="-768" cy="1152" r="10"/>    <circle cx="-672" cy="1312" r="10"/>
<line x1="-672" y1="1312" x2="-952" y2="1648" stroke-width="7" stroke="black" marker-end="url(#arrow)" />
    <circle cx="-672" cy="1312" r="10"/>    <circle cx="-952" cy="1648" r="10"/>
<line x1="-960" y1="1664" x2="-1216" y2="1664" stroke-width="7" stroke="black" marker-end="url(#arrow)" />
    <circle cx="-960" cy="1664" r="10"/>    <circle cx="-1216" cy="1664" r="10"/>
<line x1="-1216" y1="1664" x2="-1216" y2="1920" stroke-width="7" stroke="black" marker-end="url(#arrow)" />
    <circle cx="-1216" cy="1664" r="10"/>    <circle cx="-1216" cy="1920" r="10"/>
<line x1="-1216" y1="1920" x2="-960" y2="1920" stroke-width="7" stroke="black" marker-end="url(#arrow)" />
    <circle cx="-1216" cy="1920" r="10"/>    <circle cx="-960" cy="1920" r="10"/>
<line x1="-960" y1="1920" x2="-960" y2="1664" stroke-width="7" stroke="black" marker-end="url(#arrow)" />
    <circle cx="-960" cy="1920" r="10"/>    <circle cx="-960" cy="1664" r="10"/>
<line x1="-944" y1="1656" x2="-608" y2="1368" stroke-width="7" stroke="black" marker-end="url(#arrow)" />
    <circle cx="-944" cy="1656" r="10"/>    <circle cx="-608" cy="1368" r="10"/>
<line x1="-608" y1="1368" x2="-448" y2="1472" stroke-width="7" stroke="black" marker-end="url(#arrow)" />
    <circle cx="-608" cy="1368" r="10"/>    <circle cx="-448" cy="1472" r="10"/>
<line x1="-448" y1="1472" x2="-208" y2="1472" stroke-width="7" stroke="black" marker-end="url(#arrow)" />
    <circle cx="-448" cy="1472" r="10"/>    <circle cx="-208" cy="1472" r="10"/>
<line x1="-208" y1="1472" x2="-144" y2="1408" stroke-width="7" stroke="black" marker-end="url(#arrow)" />
    <circle cx="-208" cy="1472" r="10"/>    <circle cx="-144" cy="1408" r="10"/>
<line x1="-144" y1="192" x2="-208" y2="128" stroke-width="7" stroke="black" marker-end="url(#arrow)" />
    <circle cx="-144" cy="192" r="10"/>    <circle cx="-208" cy="128" r="10"/>
<line x1="-208" y1="128" x2="-448" y2="128" stroke-width="7" stroke="black" marker-end="url(#arrow)" />
    <circle cx="-208" cy="128" r="10"/>    <circle cx="-448" cy="128" r="10"/>
<line x1="-448" y1="128" x2="-608" y2="224" stroke-width="7" stroke="black" marker-end="url(#arrow)" />
    <circle cx="-448" cy="128" r="10"/>    <circle cx="-608" cy="224" r="10"/>
<line x1="-608" y1="224" x2="-944" y2="-56" stroke-width="7" stroke="black" marker-end="url(#arrow)" />
    <circle cx="-608" cy="224" r="10"/>    <circle cx="-944" cy="-56" r="10"/>
<line x1="-960" y1="-64" x2="-960" y2="-320" stroke-width="7" stroke="black" marker-end="url(#arrow)" />
    <circle cx="-960" cy="-64" r="10"/>    <circle cx="-960" cy="-320" r="10"/>
<line x1="-960" y1="-320" x2="-1216" y2="-320" stroke-width="7" stroke="black" marker-end="url(#arrow)" />
    <circle cx="-960" cy="-320" r="10"/>    <circle cx="-1216" cy="-320" r="10"/>
<line x1="-1216" y1="-320" x2="-1216" y2="-64" stroke-width="7" stroke="black" marker-end="url(#arrow)" />
    <circle cx="-1216" cy="-320" r="10"/>    <circle cx="-1216" cy="-64" r="10"/>
<line x1="-1216" y1="-64" x2="-960" y2="-64" stroke-width="7" stroke="black" marker-end="url(#arrow)" />
    <circle cx="-1216" cy="-64" r="10"/>    <circle cx="-960" cy="-64" r="10"/>
<line x1="-952" y1="-48" x2="-672" y2="288" stroke-width="7" stroke="black" marker-end="url(#arrow)" />
    <circle cx="-952" cy="-48" r="10"/>    <circle cx="-672" cy="288" r="10"/>
<line x1="-672" y1="288" x2="-768" y2="448" stroke-width="7" stroke="black" marker-end="url(#arrow)" />
    <circle cx="-672" cy="288" r="10"/>    <circle cx="-768" cy="448" r="10"/>
<line x1="-768" y1="448" x2="-768" y2="688" stroke-width="7" stroke="black" marker-end="url(#arrow)" />
    <circle cx="-768" cy="448" r="10"/>    <circle cx="-768" cy="688" r="10"/>
<line x1="-768" y1="688" x2="-704" y2="752" stroke-width="7" stroke="black" marker-end="url(#arrow)" />
    <circle cx="-768" cy="688" r="10"/>    <circle cx="-704" cy="752" r="10"/>
<line x1="-48" y1="192" x2="-144" y2="192" stroke-width="7" stroke="black" marker-end="url(#arrow)" />
    <circle cx="-48" cy="192" r="10"/>    <circle cx="-144" cy="192" r="10"/>
<line x1="-704" y1="752" x2="-704" y2="848" stroke-width="7" stroke="black" marker-end="url(#arrow)" />
    <circle cx="-704" cy="752" r="10"/>    <circle cx="-704" cy="848" r="10"/>
<line x1="-144" y1="1408" x2="-48" y2="1408" stroke-width="7" stroke="black" marker-end="url(#arrow)" />
    <circle cx="-144" cy="1408" r="10"/>    <circle cx="-48" cy="1408" r="10"/>
<line x1="512" y1="848" x2="512" y2="752" stroke-width="7" stroke="black" marker-end="url(#arrow)" />
    <circle cx="512" cy="848" r="10"/>    <circle cx="512" cy="752" r="10"/>
<line x1="-272" y1="512" x2="80" y2="512" stroke-width="7" stroke="black" marker-end="url(#arrow)" />
    <circle cx="-272" cy="512" r="10"/>    <circle cx="80" cy="512" r="10"/>
<line x1="-384" y1="976" x2="-384" y2="624" stroke-width="7" stroke="black" marker-end="url(#arrow)" />
    <circle cx="-384" cy="976" r="10"/>    <circle cx="-384" cy="624" r="10"/>
<line x1="80" y1="1088" x2="-272" y2="1088" stroke-width="7" stroke="black" marker-end="url(#arrow)" />
    <circle cx="80" cy="1088" r="10"/>    <circle cx="-272" cy="1088" r="10"/>
<line x1="192" y1="624" x2="192" y2="976" stroke-width="7" stroke="black" marker-end="url(#arrow)" />
    <circle cx="192" cy="624" r="10"/>    <circle cx="192" cy="976" r="10"/>
<line x1="1472" y1="-768" x2="1472" y2="2368" stroke-width="7" stroke="black" marker-end="url(#arrow)" />
    <circle cx="1472" cy="-768" r="10"/>    <circle cx="1472" cy="2368" r="10"/>
<line x1="-88" y1="-1664" x2="1472" y2="-768" stroke-width="7" stroke="black" marker-end="url(#arrow)" />
    <circle cx="-88" cy="-1664" r="10"/>    <circle cx="1472" cy="-768" r="10"/>
<line x1="-1664" y1="-760" x2="-88" y2="-1664" stroke-width="7" stroke="black" marker-end="url(#arrow)" />
    <circle cx="-1664" cy="-760" r="10"/>    <circle cx="-88" cy="-1664" r="10"/>
<line x1="-1664" y1="2368" x2="-1664" y2="-760" stroke-width="7" stroke="black" marker-end="url(#arrow)" />
    <circle cx="-1664" cy="2368" r="10"/>    <circle cx="-1664" cy="-760" r="10"/>
<line x1="-88" y1="3392" x2="-1664" y2="2368" stroke-width="7" stroke="black" marker-end="url(#arrow)" />
    <circle cx="-88" cy="3392" r="10"/>    <circle cx="-1664" cy="2368" r="10"/>
<line x1="1472" y1="2368" x2="-88" y2="3392" stroke-width="7" stroke="black" marker-end="url(#arrow)" />
    <circle cx="1472" cy="2368" r="10"/>    <circle cx="-88" cy="3392" r="10"/>
<line x1="512" y1="2304" x2="384" y2="2304" stroke-width="7" stroke="black" marker-end="url(#arrow)" />
    <circle cx="512" cy="2304" r="10"/>    <circle cx="384" cy="2304" r="10"/>
<line x1="512" y1="2432" x2="512" y2="2304" stroke-width="7" stroke="black" marker-end="url(#arrow)" />
    <circle cx="512" cy="2432" r="10"/>    <circle cx="512" cy="2304" r="10"/>
<line x1="384" y1="2432" x2="512" y2="2432" stroke-width="7" stroke="black" marker-end="url(#arrow)" />
    <circle cx="384" cy="2432" r="10"/>    <circle cx="512" cy="2432" r="10"/>
<line x1="384" y1="2304" x2="384" y2="2432" stroke-width="7" stroke="black" marker-end="url(#arrow)" />
    <circle cx="384" cy="2304" r="10"/>    <circle cx="384" cy="2432" r="10"/>
<line x1="-576" y1="2304" x2="-704" y2="2304" stroke-width="7" stroke="black" marker-end="url(#arrow)" />
    <circle cx="-576" cy="2304" r="10"/>    <circle cx="-704" cy="2304" r="10"/>
<line x1="-576" y1="2432" x2="-576" y2="2304" stroke-width="7" stroke="black" marker-end="url(#arrow)" />
    <circle cx="-576" cy="2432" r="10"/>    <circle cx="-576" cy="2304" r="10"/>
<line x1="-704" y1="2432" x2="-576" y2="2432" stroke-width="7" stroke="black" marker-end="url(#arrow)" />
    <circle cx="-704" cy="2432" r="10"/>    <circle cx="-576" cy="2432" r="10"/>
<line x1="-704" y1="2304" x2="-704" y2="2432" stroke-width="7" stroke="black" marker-end="url(#arrow)" />
    <circle cx="-704" cy="2304" r="10"/>    <circle cx="-704" cy="2432" r="10"/>
<line x1="1216" y1="1152" x2="1088" y2="1152" stroke-width="7" stroke="black" marker-end="url(#arrow)" />
    <circle cx="1216" cy="1152" r="10"/>    <circle cx="1088" cy="1152" r="10"/>
<line x1="1216" y1="1280" x2="1216" y2="1152" stroke-width="7" stroke="black" marker-end="url(#arrow)" />
    <circle cx="1216" cy="1280" r="10"/>    <circle cx="1216" cy="1152" r="10"/>
<line x1="1088" y1="1280" x2="1216" y2="1280" stroke-width="7" stroke="black" marker-end="url(#arrow)" />
    <circle cx="1088" cy="1280" r="10"/>    <circle cx="1216" cy="1280" r="10"/>
<line x1="1088" y1="1152" x2="1088" y2="1280" stroke-width="7" stroke="black" marker-end="url(#arrow)" />
    <circle cx="1088" cy="1152" r="10"/>    <circle cx="1088" cy="1280" r="10"/>
<line x1="1216" y1="320" x2="1088" y2="320" stroke-width="7" stroke="black" marker-end="url(#arrow)" />
    <circle cx="1216" cy="320" r="10"/>    <circle cx="1088" cy="320" r="10"/>
<line x1="1216" y1="448" x2="1216" y2="320" stroke-width="7" stroke="black" marker-end="url(#arrow)" />
    <circle cx="1216" cy="448" r="10"/>    <circle cx="1216" cy="320" r="10"/>
<line x1="1088" y1="448" x2="1216" y2="448" stroke-width="7" stroke="black" marker-end="url(#arrow)" />
    <circle cx="1088" cy="448" r="10"/>    <circle cx="1216" cy="448" r="10"/>
<line x1="1088" y1="320" x2="1088" y2="448" stroke-width="7" stroke="black" marker-end="url(#arrow)" />
    <circle cx="1088" cy="320" r="10"/>    <circle cx="1088" cy="448" r="10"/>
<line x1="-1280" y1="1152" x2="-1408" y2="1152" stroke-width="7" stroke="black" marker-end="url(#arrow)" />
    <circle cx="-1280" cy="1152" r="10"/>    <circle cx="-1408" cy="1152" r="10"/>
<line x1="-1280" y1="1280" x2="-1280" y2="1152" stroke-width="7" stroke="black" marker-end="url(#arrow)" />
    <circle cx="-1280" cy="1280" r="10"/>    <circle cx="-1280" cy="1152" r="10"/>
<line x1="-1408" y1="1280" x2="-1280" y2="1280" stroke-width="7" stroke="black" marker-end="url(#arrow)" />
    <circle cx="-1408" cy="1280" r="10"/>    <circle cx="-1280" cy="1280" r="10"/>
<line x1="-1408" y1="1152" x2="-1408" y2="1280" stroke-width="7" stroke="black" marker-end="url(#arrow)" />
    <circle cx="-1408" cy="1152" r="10"/>    <circle cx="-1408" cy="1280" r="10"/>
<line x1="-1280" y1="320" x2="-1408" y2="320" stroke-width="7" stroke="black" marker-end="url(#arrow)" />
    <circle cx="-1280" cy="320" r="10"/>    <circle cx="-1408" cy="320" r="10"/>
<line x1="-1280" y1="448" x2="-1280" y2="320" stroke-width="7" stroke="black" marker-end="url(#arrow)" />
    <circle cx="-1280" cy="448" r="10"/>    <circle cx="-1280" cy="320" r="10"/>
<line x1="-1408" y1="448" x2="-1280" y2="448" stroke-width="7" stroke="black" marker-end="url(#arrow)" />
    <circle cx="-1408" cy="448" r="10"/>    <circle cx="-1280" cy="448" r="10"/>
<line x1="-1408" y1="320" x2="-1408" y2="448" stroke-width="7" stroke="black" marker-end="url(#arrow)" />
    <circle cx="-1408" cy="320" r="10"/>    <circle cx="-1408" cy="448" r="10"/>
<line x1="-512" y1="-704" x2="-640" y2="-704" stroke-width="7" stroke="black" marker-end="url(#arrow)" />
    <circle cx="-512" cy="-704" r="10"/>    <circle cx="-640" cy="-704" r="10"/>
<line x1="-512" y1="-576" x2="-512" y2="-704" stroke-width="7" stroke="black" marker-end="url(#arrow)" />
    <circle cx="-512" cy="-576" r="10"/>    <circle cx="-512" cy="-704" r="10"/>
<line x1="-640" y1="-576" x2="-512" y2="-576" stroke-width="7" stroke="black" marker-end="url(#arrow)" />
    <circle cx="-640" cy="-576" r="10"/>    <circle cx="-512" cy="-576" r="10"/>
<line x1="-640" y1="-704" x2="-640" y2="-576" stroke-width="7" stroke="black" marker-end="url(#arrow)" />
    <circle cx="-640" cy="-704" r="10"/>    <circle cx="-640" cy="-576" r="10"/>
<line x1="448" y1="-704" x2="320" y2="-704" stroke-width="7" stroke="black" marker-end="url(#arrow)" />
    <circle cx="448" cy="-704" r="10"/>    <circle cx="320" cy="-704" r="10"/>
<line x1="448" y1="-576" x2="448" y2="-704" stroke-width="7" stroke="black" marker-end="url(#arrow)" />
    <circle cx="448" cy="-576" r="10"/>    <circle cx="448" cy="-704" r="10"/>
<line x1="320" y1="-576" x2="448" y2="-576" stroke-width="7" stroke="black" marker-end="url(#arrow)" />
    <circle cx="320" cy="-576" r="10"/>    <circle cx="448" cy="-576" r="10"/>
<line x1="320" y1="-704" x2="320" y2="-576" stroke-width="7" stroke="black" marker-end="url(#arrow)" />
    <circle cx="320" cy="-704" r="10"/>    <circle cx="320" cy="-576" r="10"/>
<line x1="-160" y1="1856" x2="-32" y2="1856" stroke-width="7" stroke="black" marker-end="url(#arrow)" />
    <circle cx="-160" cy="1856" r="10"/>    <circle cx="-32" cy="1856" r="10"/>
<line x1="-32" y1="1856" x2="-32" y2="1728" stroke-width="7" stroke="black" marker-end="url(#arrow)" />
    <circle cx="-32" cy="1856" r="10"/>    <circle cx="-32" cy="1728" r="10"/>
<line x1="-32" y1="1728" x2="-160" y2="1728" stroke-width="7" stroke="black" marker-end="url(#arrow)" />
    <circle cx="-32" cy="1728" r="10"/>    <circle cx="-160" cy="1728" r="10"/>
<line x1="-160" y1="1728" x2="-160" y2="1856" stroke-width="7" stroke="black" marker-end="url(#arrow)" />
    <circle cx="-160" cy="1728" r="10"/>    <circle cx="-160" cy="1856" r="10"/>
<line x1="-1152" y1="864" x2="-1024" y2="864" stroke-width="7" stroke="black" marker-end="url(#arrow)" />
    <circle cx="-1152" cy="864" r="10"/>    <circle cx="-1024" cy="864" r="10"/>
<line x1="-1024" y1="864" x2="-1024" y2="736" stroke-width="7" stroke="black" marker-end="url(#arrow)" />
    <circle cx="-1024" cy="864" r="10"/>    <circle cx="-1024" cy="736" r="10"/>
<line x1="-1024" y1="736" x2="-1152" y2="736" stroke-width="7" stroke="black" marker-end="url(#arrow)" />
    <circle cx="-1024" cy="736" r="10"/>    <circle cx="-1152" cy="736" r="10"/>
<line x1="-1152" y1="736" x2="-1152" y2="864" stroke-width="7" stroke="black" marker-end="url(#arrow)" />
    <circle cx="-1152" cy="736" r="10"/>    <circle cx="-1152" cy="864" r="10"/>
<line x1="832" y1="864" x2="960" y2="864" stroke-width="7" stroke="black" marker-end="url(#arrow)" />
    <circle cx="832" cy="864" r="10"/>    <circle cx="960" cy="864" r="10"/>
<line x1="960" y1="864" x2="960" y2="736" stroke-width="7" stroke="black" marker-end="url(#arrow)" />
    <circle cx="960" cy="864" r="10"/>    <circle cx="960" cy="736" r="10"/>
<line x1="960" y1="736" x2="832" y2="736" stroke-width="7" stroke="black" marker-end="url(#arrow)" />
    <circle cx="960" cy="736" r="10"/>    <circle cx="832" cy="736" r="10"/>
<line x1="832" y1="736" x2="832" y2="864" stroke-width="7" stroke="black" marker-end="url(#arrow)" />
    <circle cx="832" cy="736" r="10"/>    <circle cx="832" cy="864" r="10"/>
<line x1="-160" y1="-128" x2="-32" y2="-128" stroke-width="7" stroke="black" marker-end="url(#arrow)" />
    <circle cx="-160" cy="-128" r="10"/>    <circle cx="-32" cy="-128" r="10"/>
<line x1="-32" y1="-128" x2="-32" y2="-256" stroke-width="7" stroke="black" marker-end="url(#arrow)" />
    <circle cx="-32" cy="-128" r="10"/>    <circle cx="-32" cy="-256" r="10"/>
<line x1="-32" y1="-256" x2="-160" y2="-256" stroke-width="7" stroke="black" marker-end="url(#arrow)" />
    <circle cx="-32" cy="-256" r="10"/>    <circle cx="-160" cy="-256" r="10"/>
<line x1="-160" y1="-256" x2="-160" y2="-128" stroke-width="7" stroke="black" marker-end="url(#arrow)" />
    <circle cx="-160" cy="-256" r="10"/>    <circle cx="-160" cy="-128" r="10"/>
<line x1="752" y1="1656" x2="760" y2="1648" stroke-width="7" stroke="black" marker-end="url(#arrow)" />
    <circle cx="752" cy="1656" r="10"/>    <circle cx="760" cy="1648" r="10"/>
<line x1="760" y1="-48" x2="752" y2="-56" stroke-width="7" stroke="black" marker-end="url(#arrow)" />
    <circle cx="760" cy="-48" r="10"/>    <circle cx="752" cy="-56" r="10"/>
<line x1="-944" y1="-56" x2="-952" y2="-48" stroke-width="7" stroke="black" marker-end="url(#arrow)" />
    <circle cx="-944" cy="-56" r="10"/>    <circle cx="-952" cy="-48" r="10"/>
<line x1="-952" y1="1648" x2="-944" y2="1656" stroke-width="7" stroke="black" marker-end="url(#arrow)" />
    <circle cx="-952" cy="1648" r="10"/>    <circle cx="-944" cy="1656" r="10"/>
<line x1="-272" y1="216" x2="-144" y2="216" stroke-width="7" stroke="black" marker-end="url(#arrow)" />
    <circle cx="-272" cy="216" r="10"/>    <circle cx="-144" cy="216" r="10"/>
<line x1="-144" y1="216" x2="-144" y2="192" stroke-width="7" stroke="black" marker-end="url(#arrow)" />
    <circle cx="-144" cy="216" r="10"/>    <circle cx="-144" cy="192" r="10"/>
<line x1="-48" y1="192" x2="-48" y2="216" stroke-width="7" stroke="black" marker-end="url(#arrow)" />
    <circle cx="-48" cy="192" r="10"/>    <circle cx="-48" cy="216" r="10"/>
<line x1="-48" y1="216" x2="80" y2="216" stroke-width="7" stroke="black" marker-end="url(#arrow)" />
    <circle cx="-48" cy="216" r="10"/>    <circle cx="80" cy="216" r="10"/>
<line x1="80" y1="1384" x2="-48" y2="1384" stroke-width="7" stroke="black" marker-end="url(#arrow)" />
    <circle cx="80" cy="1384" r="10"/>    <circle cx="-48" cy="1384" r="10"/>
<line x1="-48" y1="1384" x2="-48" y2="1408" stroke-width="7" stroke="black" marker-end="url(#arrow)" />
    <circle cx="-48" cy="1384" r="10"/>    <circle cx="-48" cy="1408" r="10"/>
<line x1="-144" y1="1408" x2="-144" y2="1384" stroke-width="7" stroke="black" marker-end="url(#arrow)" />
    <circle cx="-144" cy="1408" r="10"/>    <circle cx="-144" cy="1384" r="10"/>
<line x1="-144" y1="1384" x2="-272" y2="1384" stroke-width="7" stroke="black" marker-end="url(#arrow)" />
    <circle cx="-144" cy="1384" r="10"/>    <circle cx="-272" cy="1384" r="10"/>
<line x1="512" y1="848" x2="488" y2="848" stroke-width="7" stroke="black" marker-end="url(#arrow)" />
    <circle cx="512" cy="848" r="10"/>    <circle cx="488" cy="848" r="10"/>
<line x1="488" y1="848" x2="488" y2="976" stroke-width="7" stroke="black" marker-end="url(#arrow)" />
    <circle cx="488" cy="848" r="10"/>    <circle cx="488" cy="976" r="10"/>
<line x1="488" y1="752" x2="512" y2="752" stroke-width="7" stroke="black" marker-end="url(#arrow)" />
    <circle cx="488" cy="752" r="10"/>    <circle cx="512" cy="752" r="10"/>
<line x1="488" y1="624" x2="488" y2="752" stroke-width="7" stroke="black" marker-end="url(#arrow)" />
    <circle cx="488" cy="624" r="10"/>    <circle cx="488" cy="752" r="10"/>
<line x1="-680" y1="848" x2="-704" y2="848" stroke-width="7" stroke="black" marker-end="url(#arrow)" />
    <circle cx="-680" cy="848" r="10"/>    <circle cx="-704" cy="848" r="10"/>
<line x1="-680" y1="976" x2="-680" y2="848" stroke-width="7" stroke="black" marker-end="url(#arrow)" />
    <circle cx="-680" cy="976" r="10"/>    <circle cx="-680" cy="848" r="10"/>
<line x1="-704" y1="752" x2="-680" y2="752" stroke-width="7" stroke="black" marker-end="url(#arrow)" />
    <circle cx="-704" cy="752" r="10"/>    <circle cx="-680" cy="752" r="10"/>
<line x1="-680" y1="752" x2="-680" y2="624" stroke-width="7" stroke="black" marker-end="url(#arrow)" />
    <circle cx="-680" cy="752" r="10"/>    <circle cx="-680" cy="624" r="10"/>

</svg>

