<svg width="900" height="1451" preserveAspectRatio="none" viewBox="-1794 -1794 3396 5316"
 xmlns="http://www.w3.org/2000/svg" xmlns:xlink="http://www.w3.org/1999/xlink">
   <defs>
    <marker id="arrow" markerWidth="10" markerHeight="10" refX="0" refY="2" orient="auto" markerUnits="strokeWidth">
      <path d="M0,0 L0,4 L5,3 z" fill="#f00" />
    </marker>
  </defs>

<line x1="512" y1="752" x2="576" y2="688" stroke-width="10" stroke="rgb(0,-240,64)" marker-end="url(#arrow)" />
<line x1="576" y1="912" x2="512" y2="848" stroke-width="10" stroke="rgb(0,-240,64)" marker-end="url(#arrow)" />
<line x1="512" y1="848" x2="512" y2="752" stroke-width="10" stroke="rgb(0,-240,64)" marker-end="url(#arrow)" />
<line x1="832" y1="736" x2="832" y2="864" stroke-width="10" stroke="rgb(0,-240,64)" marker-end="url(#arrow)" />
<line x1="512" y1="752" x2="512" y2="848" stroke-width="10" stroke="rgb(0,-240,0)" marker-end="url(#arrow)" />
<line x1="288" y1="624" x2="488" y2="624" stroke-width="10" stroke="rgb(32,-112,232)" marker-end="url(#arrow)" />
<line x1="488" y1="624" x2="488" y2="752" stroke-width="10" stroke="rgb(32,-112,232)" marker-end="url(#arrow)" />
<line x1="576" y1="688" x2="576" y2="448" stroke-width="10" stroke="rgb(64,-176,64)" marker-end="url(#arrow)" />
<line x1="488" y1="752" x2="512" y2="752" stroke-width="10" stroke="rgb(232,-240,0)" marker-end="url(#arrow)" />
<line x1="1088" y1="1152" x2="1088" y2="1280" stroke-width="10" stroke="rgb(64,-128,64)" marker-end="url(#arrow)" />
<line x1="832" y1="864" x2="960" y2="864" stroke-width="10" stroke="rgb(64,-128,64)" marker-end="url(#arrow)" />
<line x1="960" y1="864" x2="960" y2="736" stroke-width="10" stroke="rgb(192,-96,192)" marker-end="url(#arrow)" />
<line x1="960" y1="736" x2="832" y2="736" stroke-width="10" stroke="rgb(192,-224,64)" marker-end="url(#arrow)" />
<line x1="1472" y1="448" x2="1472" y2="1808" stroke-width="10" stroke="rgb(192,-192,192)" marker-end="url(#arrow)" />
<line x1="1216" y1="1280" x2="1216" y2="1152" stroke-width="10" stroke="rgb(192,-192,192)" marker-end="url(#arrow)" />
<line x1="1216" y1="1152" x2="1088" y2="1152" stroke-width="10" stroke="rgb(192,-128,64)" marker-end="url(#arrow)" />
<line x1="1088" y1="448" x2="1216" y2="448" stroke-width="10" stroke="rgb(192,-128,64)" marker-end="url(#arrow)" />
<line x1="1088" y1="1280" x2="1216" y2="1280" stroke-width="10" stroke="rgb(64,0,192)" marker-end="url(#arrow)" />
<line x1="752" y1="-56" x2="416" y2="224" stroke-width="10" stroke="rgb(240,56,160)" marker-end="url(#arrow)" />
<line x1="416" y1="224" x2="256" y2="128" stroke-width="10" stroke="rgb(240,56,160)" marker-end="url(#arrow)" />
<line x1="256" y1="128" x2="128" y2="128" stroke-width="10" stroke="rgb(0,-128,128)" marker-end="url(#arrow)" />
<line x1="768" y1="-64" x2="1024" y2="-64" stroke-width="10" stroke="rgb(0,64,0)" marker-end="url(#arrow)" />
<line x1="760" y1="-48" x2="752" y2="-56" stroke-width="10" stroke="rgb(0,64,0)" marker-end="url(#arrow)" />
<line x1="576" y1="448" x2="480" y2="288" stroke-width="10" stroke="rgb(64,-192,224)" marker-end="url(#arrow)" />
<line x1="480" y1="288" x2="760" y2="-48" stroke-width="10" stroke="rgb(64,-192,224)" marker-end="url(#arrow)" />
<line x1="1088" y1="320" x2="1088" y2="448" stroke-width="10" stroke="rgb(64,-192,224)" marker-end="url(#arrow)" />
<line x1="1472" y1="-64" x2="1472" y2="448" stroke-width="10" stroke="rgb(192,64,192)" marker-end="url(#arrow)" />
<line x1="1216" y1="448" x2="1216" y2="320" stroke-width="10" stroke="rgb(192,64,192)" marker-end="url(#arrow)" />
<line x1="1216" y1="320" x2="1088" y2="320" stroke-width="10" stroke="rgb(192,-64,64)" marker-end="url(#arrow)" />
<line x1="1024" y1="-64" x2="1024" y2="-320" stroke-width="10" stroke="rgb(0,64,0)" marker-end="url(#arrow)" />
<line x1="1472" y1="-576" x2="1472" y2="-64" stroke-width="10" stroke="rgb(0,64,0)" marker-end="url(#arrow)" />
<line x1="1024" y1="-320" x2="768" y2="-320" stroke-width="10" stroke="rgb(0,64,0)" marker-end="url(#arrow)" />
<line x1="320" y1="-576" x2="448" y2="-576" stroke-width="10" stroke="rgb(0,64,0)" marker-end="url(#arrow)" />
<line x1="768" y1="-320" x2="768" y2="-64" stroke-width="10" stroke="rgb(0,64,0)" marker-end="url(#arrow)" />
<line x1="1472" y1="-768" x2="1472" y2="-704" stroke-width="10" stroke="rgb(192,0,192)" marker-end="url(#arrow)" />
<line x1="128" y1="-1540" x2="1472" y2="-768" stroke-width="10" stroke="rgb(192,0,192)" marker-end="url(#arrow)" />
<line x1="448" y1="-704" x2="320" y2="-704" stroke-width="10" stroke="rgb(192,0,192)" marker-end="url(#arrow)" />
<line x1="1472" y1="-704" x2="1472" y2="-576" stroke-width="10" stroke="rgb(192,192,192)" marker-end="url(#arrow)" />
<line x1="448" y1="-576" x2="448" y2="-704" stroke-width="10" stroke="rgb(192,192,192)" marker-end="url(#arrow)" />
<line x1="320" y1="-704" x2="320" y2="-576" stroke-width="10" stroke="rgb(64,192,64)" marker-end="url(#arrow)" />
<line x1="1024" y1="1664" x2="768" y2="1664" stroke-width="10" stroke="rgb(0,-128,0)" marker-end="url(#arrow)" />
<line x1="752" y1="1656" x2="760" y2="1648" stroke-width="10" stroke="rgb(0,-128,0)" marker-end="url(#arrow)" />
<line x1="768" y1="1664" x2="768" y2="1920" stroke-width="10" stroke="rgb(0,-128,0)" marker-end="url(#arrow)" />
<line x1="512" y1="2304" x2="384" y2="2304" stroke-width="10" stroke="rgb(0,-128,0)" marker-end="url(#arrow)" />
<line x1="1024" y1="1920" x2="1024" y2="1664" stroke-width="10" stroke="rgb(0,-128,0)" marker-end="url(#arrow)" />
<line x1="1472" y1="1808" x2="1472" y2="2304" stroke-width="10" stroke="rgb(0,-128,0)" marker-end="url(#arrow)" />
<line x1="768" y1="1920" x2="1024" y2="1920" stroke-width="10" stroke="rgb(0,-128,0)" marker-end="url(#arrow)" />
<line x1="1472" y1="2304" x2="1472" y2="2368" stroke-width="10" stroke="rgb(192,0,192)" marker-end="url(#arrow)" />
<line x1="1472" y1="2368" x2="512" y2="2998" stroke-width="10" stroke="rgb(192,0,192)" marker-end="url(#arrow)" />
<line x1="512" y1="2432" x2="512" y2="2304" stroke-width="10" stroke="rgb(192,0,192)" marker-end="url(#arrow)" />
<line x1="512" y1="2998" x2="128" y2="3250" stroke-width="10" stroke="rgb(0,-182,128)" marker-end="url(#arrow)" />
<line x1="384" y1="2432" x2="512" y2="2432" stroke-width="10" stroke="rgb(0,-182,128)" marker-end="url(#arrow)" />
<line x1="384" y1="2304" x2="384" y2="2432" stroke-width="10" stroke="rgb(128,0,128)" marker-end="url(#arrow)" />
<line x1="264" y1="1472" x2="416" y2="1376" stroke-width="10" stroke="rgb(8,-192,160)" marker-end="url(#arrow)" />
<line x1="416" y1="1376" x2="752" y2="1656" stroke-width="10" stroke="rgb(8,-192,160)" marker-end="url(#arrow)" />
<line x1="128" y1="1472" x2="264" y2="1472" stroke-width="10" stroke="rgb(128,-192,8)" marker-end="url(#arrow)" />
<line x1="144" y1="832" x2="144" y2="768" stroke-width="10" stroke="rgb(144,-64,144)" marker-end="url(#arrow)" />
<line x1="144" y1="768" x2="192" y2="624" stroke-width="10" stroke="rgb(144,-64,144)" marker-end="url(#arrow)" />
<line x1="192" y1="976" x2="144" y2="832" stroke-width="10" stroke="rgb(144,-64,144)" marker-end="url(#arrow)" />
<line x1="192" y1="624" x2="192" y2="976" stroke-width="10" stroke="rgb(144,-64,144)" marker-end="url(#arrow)" />
<line x1="128" y1="832" x2="128" y2="768" stroke-width="10" stroke="rgb(128,-64,128)" marker-end="url(#arrow)" />
<line x1="144" y1="768" x2="144" y2="832" stroke-width="10" stroke="rgb(128,-64,128)" marker-end="url(#arrow)" />
<line x1="144" y1="832" x2="128" y2="832" stroke-width="10" stroke="rgb(128,-64,128)" marker-end="url(#arrow)" />
<line x1="128" y1="768" x2="144" y2="768" stroke-width="10" stroke="rgb(128,-64,128)" marker-end="url(#arrow)" />
<line x1="760" y1="1648" x2="480" y2="1312" stroke-width="10" stroke="rgb(248,-112,224)" marker-end="url(#arrow)" />
<line x1="480" y1="1312" x2="576" y2="1152" stroke-width="10" stroke="rgb(248,-112,224)" marker-end="url(#arrow)" />
<line x1="192" y1="624" x2="288" y2="624" stroke-width="10" stroke="rgb(192,-112,32)" marker-end="url(#arrow)" />
<line x1="488" y1="976" x2="192" y2="976" stroke-width="10" stroke="rgb(192,-112,32)" marker-end="url(#arrow)" />
<line x1="192" y1="976" x2="192" y2="624" stroke-width="10" stroke="rgb(192,-112,32)" marker-end="url(#arrow)" />
<line x1="488" y1="848" x2="488" y2="976" stroke-width="10" stroke="rgb(192,-112,32)" marker-end="url(#arrow)" />
<line x1="576" y1="1152" x2="576" y2="912" stroke-width="10" stroke="rgb(64,-128,64)" marker-end="url(#arrow)" />
<line x1="512" y1="848" x2="488" y2="848" stroke-width="10" stroke="rgb(0,-80,232)" marker-end="url(#arrow)" />
<line x1="-960" y1="1664" x2="-1216" y2="1664" stroke-width="10" stroke="rgb(-192,-128,-192)" marker-end="url(#arrow)" />
<line x1="-952" y1="1648" x2="-944" y2="1656" stroke-width="10" stroke="rgb(-192,-128,-192)" marker-end="url(#arrow)" />
<line x1="-768" y1="1152" x2="-672" y2="1312" stroke-width="10" stroke="rgb(0,-128,-160)" marker-end="url(#arrow)" />
<line x1="-672" y1="1312" x2="-952" y2="1648" stroke-width="10" stroke="rgb(0,-128,-160)" marker-end="url(#arrow)" />
<line x1="-1280" y1="1280" x2="-1280" y2="1152" stroke-width="10" stroke="rgb(0,-128,-160)" marker-end="url(#arrow)" />
<line x1="-944" y1="1656" x2="-628" y2="1385" stroke-width="10" stroke="rgb(-176,-120,-116)" marker-end="url(#arrow)" />
<line x1="-1664" y1="1664" x2="-1664" y2="1024" stroke-width="10" stroke="rgb(-128,-128,-128)" marker-end="url(#arrow)" />
<line x1="-1408" y1="1152" x2="-1408" y2="1280" stroke-width="10" stroke="rgb(-128,-128,-128)" marker-end="url(#arrow)" />
<line x1="-1280" y1="1152" x2="-1408" y2="1152" stroke-width="10" stroke="rgb(0,-128,-128)" marker-end="url(#arrow)" />
<line x1="-1408" y1="1280" x2="-1280" y2="1280" stroke-width="10" stroke="rgb(-128,0,0)" marker-end="url(#arrow)" />
<line x1="-1216" y1="1664" x2="-1216" y2="1920" stroke-width="10" stroke="rgb(-192,-128,-192)" marker-end="url(#arrow)" />
<line x1="-1664" y1="2304" x2="-1664" y2="1664" stroke-width="10" stroke="rgb(-192,-128,-192)" marker-end="url(#arrow)" />
<line x1="-1216" y1="1920" x2="-960" y2="1920" stroke-width="10" stroke="rgb(-192,-128,-192)" marker-end="url(#arrow)" />
<line x1="-576" y1="2304" x2="-704" y2="2304" stroke-width="10" stroke="rgb(-192,-128,-192)" marker-end="url(#arrow)" />
<line x1="-960" y1="1920" x2="-960" y2="1664" stroke-width="10" stroke="rgb(-192,-128,-192)" marker-end="url(#arrow)" />
<line x1="-88" y1="3392" x2="-576" y2="3075" stroke-width="10" stroke="rgb(-88,-64,-64)" marker-end="url(#arrow)" />
<line x1="128" y1="3250" x2="-88" y2="3392" stroke-width="10" stroke="rgb(-88,-64,-64)" marker-end="url(#arrow)" />
<line x1="-576" y1="2432" x2="-576" y2="2304" stroke-width="10" stroke="rgb(-88,-64,-64)" marker-end="url(#arrow)" />
<line x1="-576" y1="3075" x2="-1565" y2="2432" stroke-width="10" stroke="rgb(-64,-3,-29)" marker-end="url(#arrow)" />
<line x1="-704" y1="2432" x2="-576" y2="2432" stroke-width="10" stroke="rgb(-64,-3,-29)" marker-end="url(#arrow)" />
<line x1="-1664" y1="2368" x2="-1664" y2="2304" stroke-width="10" stroke="rgb(-128,-64,-128)" marker-end="url(#arrow)" />
<line x1="-1565" y1="2432" x2="-1664" y2="2368" stroke-width="10" stroke="rgb(-128,-64,-128)" marker-end="url(#arrow)" />
<line x1="-704" y1="2304" x2="-704" y2="2432" stroke-width="10" stroke="rgb(-128,-64,-128)" marker-end="url(#arrow)" />
<line x1="16" y1="1472" x2="128" y2="1472" stroke-width="10" stroke="rgb(16,-192,128)" marker-end="url(#arrow)" />
<line x1="-448" y1="1472" x2="-208" y2="1472" stroke-width="10" stroke="rgb(16,-192,128)" marker-end="url(#arrow)" />
<line x1="-32" y1="1728" x2="-160" y2="1728" stroke-width="10" stroke="rgb(16,-192,128)" marker-end="url(#arrow)" />
<line x1="-160" y1="1856" x2="-32" y2="1856" stroke-width="10" stroke="rgb(-160,-64,-32)" marker-end="url(#arrow)" />
<line x1="-32" y1="1856" x2="-32" y2="1728" stroke-width="10" stroke="rgb(-32,-64,-32)" marker-end="url(#arrow)" />
<line x1="-160" y1="1728" x2="-160" y2="1856" stroke-width="10" stroke="rgb(-160,-192,-160)" marker-end="url(#arrow)" />
<line x1="-64" y1="1040" x2="80" y2="1088" stroke-width="10" stroke="rgb(-64,-16,80)" marker-end="url(#arrow)" />
<line x1="-272" y1="1088" x2="-128" y2="1040" stroke-width="10" stroke="rgb(-64,-16,80)" marker-end="url(#arrow)" />
<line x1="-128" y1="1040" x2="-64" y2="1040" stroke-width="10" stroke="rgb(-64,-16,80)" marker-end="url(#arrow)" />
<line x1="80" y1="1088" x2="-272" y2="1088" stroke-width="10" stroke="rgb(-64,-16,80)" marker-end="url(#arrow)" />
<line x1="-128" y1="1024" x2="-64" y2="1024" stroke-width="10" stroke="rgb(-128,0,-64)" marker-end="url(#arrow)" />
<line x1="-64" y1="1024" x2="-64" y2="1040" stroke-width="10" stroke="rgb(-128,0,-64)" marker-end="url(#arrow)" />
<line x1="-128" y1="1040" x2="-128" y2="1024" stroke-width="10" stroke="rgb(-128,0,-64)" marker-end="url(#arrow)" />
<line x1="-64" y1="1040" x2="-128" y2="1040" stroke-width="10" stroke="rgb(-128,0,-64)" marker-end="url(#arrow)" />
<line x1="80" y1="1088" x2="80" y2="1384" stroke-width="10" stroke="rgb(80,-64,80)" marker-end="url(#arrow)" />
<line x1="-272" y1="1384" x2="-272" y2="1088" stroke-width="10" stroke="rgb(80,-64,80)" marker-end="url(#arrow)" />
<line x1="-272" y1="1088" x2="80" y2="1088" stroke-width="10" stroke="rgb(80,-64,80)" marker-end="url(#arrow)" />
<line x1="80" y1="1384" x2="-48" y2="1384" stroke-width="10" stroke="rgb(80,-64,80)" marker-end="url(#arrow)" />
<line x1="-144" y1="1384" x2="-272" y2="1384" stroke-width="10" stroke="rgb(80,-64,80)" marker-end="url(#arrow)" />
<line x1="-48" y1="1408" x2="16" y2="1472" stroke-width="10" stroke="rgb(-48,-128,16)" marker-end="url(#arrow)" />
<line x1="-208" y1="1472" x2="-144" y2="1408" stroke-width="10" stroke="rgb(-48,-128,16)" marker-end="url(#arrow)" />
<line x1="-144" y1="1408" x2="-48" y2="1408" stroke-width="10" stroke="rgb(-48,-128,16)" marker-end="url(#arrow)" />
<line x1="-48" y1="1408" x2="-144" y2="1408" stroke-width="10" stroke="rgb(-48,-128,-144)" marker-end="url(#arrow)" />
<line x1="-48" y1="1384" x2="-48" y2="1408" stroke-width="10" stroke="rgb(-48,-128,-144)" marker-end="url(#arrow)" />
<line x1="-144" y1="1408" x2="-144" y2="1384" stroke-width="10" stroke="rgb(-48,-128,-144)" marker-end="url(#arrow)" />
<line x1="-768" y1="1024" x2="-768" y2="1152" stroke-width="10" stroke="rgb(0,0,0)" marker-end="url(#arrow)" />
<line x1="-628" y1="1385" x2="-608" y2="1368" stroke-width="10" stroke="rgb(-116,-105,-96)" marker-end="url(#arrow)" />
<line x1="-608" y1="1368" x2="-448" y2="1472" stroke-width="10" stroke="rgb(-116,-105,-96)" marker-end="url(#arrow)" />
<line x1="-80" y1="816" x2="-80" y2="784" stroke-width="10" stroke="rgb(-80,-48,-80)" marker-end="url(#arrow)" />
<line x1="16" y1="768" x2="16" y2="832" stroke-width="10" stroke="rgb(-80,-48,-80)" marker-end="url(#arrow)" />
<line x1="32" y1="832" x2="16" y2="832" stroke-width="10" stroke="rgb(32,-64,16)" marker-end="url(#arrow)" />
<line x1="16" y1="832" x2="16" y2="768" stroke-width="10" stroke="rgb(32,-64,16)" marker-end="url(#arrow)" />
<line x1="16" y1="768" x2="32" y2="768" stroke-width="10" stroke="rgb(32,-64,16)" marker-end="url(#arrow)" />
<line x1="32" y1="768" x2="32" y2="832" stroke-width="10" stroke="rgb(32,-64,16)" marker-end="url(#arrow)" />
<line x1="-112" y1="816" x2="-80" y2="816" stroke-width="10" stroke="rgb(-112,-48,-80)" marker-end="url(#arrow)" />
<line x1="-80" y1="784" x2="-112" y2="784" stroke-width="10" stroke="rgb(-80,-16,-112)" marker-end="url(#arrow)" />
<line x1="-112" y1="784" x2="-112" y2="816" stroke-width="10" stroke="rgb(-112,-16,-112)" marker-end="url(#arrow)" />
<line x1="-80" y1="816" x2="-112" y2="816" stroke-width="10" stroke="rgb(-80,-48,-112)" marker-end="url(#arrow)" />
<line x1="-80" y1="784" x2="-80" y2="816" stroke-width="10" stroke="rgb(-80,-48,-112)" marker-end="url(#arrow)" />
<line x1="-112" y1="784" x2="-80" y2="784" stroke-width="10" stroke="rgb(-80,-48,-112)" marker-end="url(#arrow)" />
<line x1="-112" y1="816" x2="-112" y2="784" stroke-width="10" stroke="rgb(-80,-48,-112)" marker-end="url(#arrow)" />
<line x1="48" y1="832" x2="32" y2="832" stroke-width="10" stroke="rgb(48,-64,32)" marker-end="url(#arrow)" />
<line x1="32" y1="768" x2="48" y2="768" stroke-width="10" stroke="rgb(48,-64,32)" marker-end="url(#arrow)" />
<line x1="32" y1="832" x2="32" y2="768" stroke-width="10" stroke="rgb(48,-64,32)" marker-end="url(#arrow)" />
<line x1="48" y1="768" x2="48" y2="832" stroke-width="10" stroke="rgb(48,-64,32)" marker-end="url(#arrow)" />
<line x1="64" y1="768" x2="64" y2="832" stroke-width="10" stroke="rgb(64,0,64)" marker-end="url(#arrow)" />
<line x1="64" y1="832" x2="48" y2="832" stroke-width="10" stroke="rgb(64,0,64)" marker-end="url(#arrow)" />
<line x1="48" y1="768" x2="64" y2="768" stroke-width="10" stroke="rgb(64,0,64)" marker-end="url(#arrow)" />
<line x1="48" y1="832" x2="48" y2="768" stroke-width="10" stroke="rgb(64,0,64)" marker-end="url(#arrow)" />
<line x1="64" y1="768" x2="128" y2="768" stroke-width="10" stroke="rgb(64,0,128)" marker-end="url(#arrow)" />
<line x1="128" y1="768" x2="128" y2="832" stroke-width="10" stroke="rgb(64,0,128)" marker-end="url(#arrow)" />
<line x1="128" y1="832" x2="64" y2="832" stroke-width="10" stroke="rgb(64,0,128)" marker-end="url(#arrow)" />
<line x1="64" y1="832" x2="64" y2="768" stroke-width="10" stroke="rgb(64,0,128)" marker-end="url(#arrow)" />
<line x1="-64" y1="912" x2="-128" y2="912" stroke-width="10" stroke="rgb(-64,-144,-128)" marker-end="url(#arrow)" />
<line x1="-64" y1="912" x2="-64" y2="928" stroke-width="10" stroke="rgb(-64,-144,-64)" marker-end="url(#arrow)" />
<line x1="-128" y1="912" x2="-64" y2="912" stroke-width="10" stroke="rgb(-64,-144,-64)" marker-end="url(#arrow)" />
<line x1="-128" y1="928" x2="-128" y2="912" stroke-width="10" stroke="rgb(-64,-144,-64)" marker-end="url(#arrow)" />
<line x1="-64" y1="928" x2="-128" y2="928" stroke-width="10" stroke="rgb(-64,-144,-64)" marker-end="url(#arrow)" />
<line x1="-64" y1="928" x2="-64" y2="944" stroke-width="10" stroke="rgb(-64,-160,-64)" marker-end="url(#arrow)" />
<line x1="-128" y1="944" x2="-128" y2="928" stroke-width="10" stroke="rgb(-64,-160,-64)" marker-end="url(#arrow)" />
<line x1="-64" y1="944" x2="-128" y2="944" stroke-width="10" stroke="rgb(-64,-160,-64)" marker-end="url(#arrow)" />
<line x1="-128" y1="928" x2="-64" y2="928" stroke-width="10" stroke="rgb(-64,-160,-64)" marker-end="url(#arrow)" />
<line x1="-64" y1="960" x2="-128" y2="960" stroke-width="10" stroke="rgb(-64,-192,-128)" marker-end="url(#arrow)" />
<line x1="-64" y1="944" x2="-64" y2="960" stroke-width="10" stroke="rgb(-64,-192,-128)" marker-end="url(#arrow)" />
<line x1="-128" y1="960" x2="-128" y2="944" stroke-width="10" stroke="rgb(-64,-192,-128)" marker-end="url(#arrow)" />
<line x1="-128" y1="944" x2="-64" y2="944" stroke-width="10" stroke="rgb(-64,-192,-128)" marker-end="url(#arrow)" />
<line x1="-128" y1="1024" x2="-128" y2="960" stroke-width="10" stroke="rgb(-128,0,-128)" marker-end="url(#arrow)" />
<line x1="-64" y1="960" x2="-64" y2="1024" stroke-width="10" stroke="rgb(-128,0,-128)" marker-end="url(#arrow)" />
<line x1="-64" y1="1024" x2="-128" y2="1024" stroke-width="10" stroke="rgb(-128,0,-128)" marker-end="url(#arrow)" />
<line x1="-128" y1="960" x2="-64" y2="960" stroke-width="10" stroke="rgb(-128,0,-128)" marker-end="url(#arrow)" />
<line x1="64" y1="832" x2="-64" y2="960" stroke-width="10" stroke="rgb(64,-64,-64)" marker-end="url(#arrow)" />
<line x1="48" y1="832" x2="64" y2="832" stroke-width="10" stroke="rgb(64,-64,-64)" marker-end="url(#arrow)" />
<line x1="32" y1="832" x2="48" y2="832" stroke-width="10" stroke="rgb(64,-64,-64)" marker-end="url(#arrow)" />
<line x1="16" y1="832" x2="32" y2="832" stroke-width="10" stroke="rgb(64,-64,-64)" marker-end="url(#arrow)" />
<line x1="-64" y1="960" x2="-64" y2="944" stroke-width="10" stroke="rgb(64,-64,-64)" marker-end="url(#arrow)" />
<line x1="-64" y1="944" x2="-64" y2="928" stroke-width="10" stroke="rgb(64,-64,-64)" marker-end="url(#arrow)" />
<line x1="-64" y1="928" x2="-64" y2="912" stroke-width="10" stroke="rgb(64,-64,-64)" marker-end="url(#arrow)" />
<line x1="-128" y1="960" x2="-256" y2="832" stroke-width="10" stroke="rgb(-128,-192,0)" marker-end="url(#arrow)" />
<line x1="-256" y1="832" x2="-240" y2="832" stroke-width="10" stroke="rgb(-128,-192,0)" marker-end="url(#arrow)" />
<line x1="-240" y1="832" x2="-224" y2="832" stroke-width="10" stroke="rgb(-128,-192,0)" marker-end="url(#arrow)" />
<line x1="-224" y1="832" x2="-208" y2="832" stroke-width="10" stroke="rgb(-128,-192,0)" marker-end="url(#arrow)" />
<line x1="-128" y1="912" x2="-128" y2="928" stroke-width="10" stroke="rgb(-128,-192,0)" marker-end="url(#arrow)" />
<line x1="-128" y1="928" x2="-128" y2="944" stroke-width="10" stroke="rgb(-128,-192,0)" marker-end="url(#arrow)" />
<line x1="-128" y1="944" x2="-128" y2="960" stroke-width="10" stroke="rgb(-128,-192,0)" marker-end="url(#arrow)" />
<line x1="-208" y1="832" x2="-208" y2="768" stroke-width="10" stroke="rgb(-208,-64,-208)" marker-end="url(#arrow)" />
<line x1="-208" y1="832" x2="-224" y2="832" stroke-width="10" stroke="rgb(-208,-64,-224)" marker-end="url(#arrow)" />
<line x1="-208" y1="768" x2="-208" y2="832" stroke-width="10" stroke="rgb(-208,-64,-224)" marker-end="url(#arrow)" />
<line x1="-224" y1="768" x2="-208" y2="768" stroke-width="10" stroke="rgb(-208,-64,-224)" marker-end="url(#arrow)" />
<line x1="-224" y1="832" x2="-224" y2="768" stroke-width="10" stroke="rgb(-208,-64,-224)" marker-end="url(#arrow)" />
<line x1="-224" y1="832" x2="-240" y2="832" stroke-width="10" stroke="rgb(-224,-64,-240)" marker-end="url(#arrow)" />
<line x1="-240" y1="768" x2="-224" y2="768" stroke-width="10" stroke="rgb(-224,-64,-240)" marker-end="url(#arrow)" />
<line x1="-240" y1="832" x2="-240" y2="768" stroke-width="10" stroke="rgb(-224,-64,-240)" marker-end="url(#arrow)" />
<line x1="-224" y1="768" x2="-224" y2="832" stroke-width="10" stroke="rgb(-224,-64,-240)" marker-end="url(#arrow)" />
<line x1="-256" y1="832" x2="-256" y2="768" stroke-width="10" stroke="rgb(0,-64,0)" marker-end="url(#arrow)" />
<line x1="-240" y1="832" x2="-256" y2="832" stroke-width="10" stroke="rgb(0,-64,0)" marker-end="url(#arrow)" />
<line x1="-256" y1="768" x2="-240" y2="768" stroke-width="10" stroke="rgb(0,-64,0)" marker-end="url(#arrow)" />
<line x1="-240" y1="768" x2="-240" y2="832" stroke-width="10" stroke="rgb(0,-64,0)" marker-end="url(#arrow)" />
<line x1="-320" y1="768" x2="-256" y2="768" stroke-width="10" stroke="rgb(-64,0,0)" marker-end="url(#arrow)" />
<line x1="-256" y1="768" x2="-256" y2="832" stroke-width="10" stroke="rgb(-64,0,0)" marker-end="url(#arrow)" />
<line x1="-336" y1="832" x2="-384" y2="976" stroke-width="10" stroke="rgb(-80,-64,-128)" marker-end="url(#arrow)" />
<line x1="-336" y1="768" x2="-336" y2="832" stroke-width="10" stroke="rgb(-80,-64,-128)" marker-end="url(#arrow)" />
<line x1="-384" y1="976" x2="-384" y2="768" stroke-width="10" stroke="rgb(-80,-64,-128)" marker-end="url(#arrow)" />
<line x1="-256" y1="832" x2="-320" y2="832" stroke-width="10" stroke="rgb(0,-64,-64)" marker-end="url(#arrow)" />
<line x1="-320" y1="832" x2="-320" y2="768" stroke-width="10" stroke="rgb(0,-64,-64)" marker-end="url(#arrow)" />
<line x1="-320" y1="768" x2="-320" y2="832" stroke-width="10" stroke="rgb(-64,0,-64)" marker-end="url(#arrow)" />
<line x1="-320" y1="832" x2="-336" y2="832" stroke-width="10" stroke="rgb(-64,0,-64)" marker-end="url(#arrow)" />
<line x1="-336" y1="768" x2="-320" y2="768" stroke-width="10" stroke="rgb(-64,0,-64)" marker-end="url(#arrow)" />
<line x1="-336" y1="832" x2="-336" y2="768" stroke-width="10" stroke="rgb(-64,0,-64)" marker-end="url(#arrow)" />
<line x1="-704" y1="848" x2="-768" y2="912" stroke-width="10" stroke="rgb(-192,-80,0)" marker-end="url(#arrow)" />
<line x1="-704" y1="768" x2="-704" y2="848" stroke-width="10" stroke="rgb(-192,-80,0)" marker-end="url(#arrow)" />
<line x1="-1024" y1="864" x2="-1024" y2="768" stroke-width="10" stroke="rgb(-192,-80,0)" marker-end="url(#arrow)" />
<line x1="-704" y1="848" x2="-704" y2="768" stroke-width="10" stroke="rgb(-192,-80,-192)" marker-end="url(#arrow)" />
<line x1="-1664" y1="1024" x2="-1664" y2="768" stroke-width="10" stroke="rgb(-128,0,-128)" marker-end="url(#arrow)" />
<line x1="-1152" y1="768" x2="-1152" y2="864" stroke-width="10" stroke="rgb(-128,0,-128)" marker-end="url(#arrow)" />
<line x1="-1152" y1="864" x2="-1024" y2="864" stroke-width="10" stroke="rgb(-128,-96,0)" marker-end="url(#arrow)" />
<line x1="-384" y1="976" x2="-680" y2="976" stroke-width="10" stroke="rgb(-128,-208,-168)" marker-end="url(#arrow)" />
<line x1="-384" y1="768" x2="-384" y2="976" stroke-width="10" stroke="rgb(-128,-208,-168)" marker-end="url(#arrow)" />
<line x1="-680" y1="976" x2="-680" y2="848" stroke-width="10" stroke="rgb(-128,-208,-168)" marker-end="url(#arrow)" />
<line x1="-768" y1="912" x2="-768" y2="1024" stroke-width="10" stroke="rgb(0,-144,0)" marker-end="url(#arrow)" />
<line x1="-680" y1="848" x2="-704" y2="848" stroke-width="10" stroke="rgb(-168,-80,-192)" marker-end="url(#arrow)" />
<line x1="-1216" y1="-64" x2="-960" y2="-64" stroke-width="10" stroke="rgb(-192,64,-192)" marker-end="url(#arrow)" />
<line x1="-944" y1="-56" x2="-952" y2="-48" stroke-width="10" stroke="rgb(-192,64,-192)" marker-end="url(#arrow)" />
<line x1="-625" y1="209" x2="-944" y2="-56" stroke-width="10" stroke="rgb(-113,-209,-176)" marker-end="url(#arrow)" />
<line x1="-952" y1="-48" x2="-672" y2="288" stroke-width="10" stroke="rgb(-184,48,-160)" marker-end="url(#arrow)" />
<line x1="-672" y1="288" x2="-768" y2="448" stroke-width="10" stroke="rgb(-184,48,-160)" marker-end="url(#arrow)" />
<line x1="-1280" y1="448" x2="-1280" y2="320" stroke-width="10" stroke="rgb(-184,48,-160)" marker-end="url(#arrow)" />
<line x1="-1664" y1="576" x2="-1664" y2="-64" stroke-width="10" stroke="rgb(-128,-64,-128)" marker-end="url(#arrow)" />
<line x1="-1408" y1="320" x2="-1408" y2="448" stroke-width="10" stroke="rgb(-128,-64,-128)" marker-end="url(#arrow)" />
<line x1="-1280" y1="320" x2="-1408" y2="320" stroke-width="10" stroke="rgb(0,-64,-128)" marker-end="url(#arrow)" />
<line x1="-1408" y1="448" x2="-1280" y2="448" stroke-width="10" stroke="rgb(-128,-192,0)" marker-end="url(#arrow)" />
<line x1="-960" y1="-64" x2="-960" y2="-320" stroke-width="10" stroke="rgb(-192,64,-192)" marker-end="url(#arrow)" />
<line x1="-640" y1="-576" x2="-512" y2="-576" stroke-width="10" stroke="rgb(-192,64,-192)" marker-end="url(#arrow)" />
<line x1="-1216" y1="-320" x2="-1216" y2="-64" stroke-width="10" stroke="rgb(-192,64,-192)" marker-end="url(#arrow)" />
<line x1="-1664" y1="-64" x2="-1664" y2="-576" stroke-width="10" stroke="rgb(-192,64,-192)" marker-end="url(#arrow)" />
<line x1="-960" y1="-320" x2="-1216" y2="-320" stroke-width="10" stroke="rgb(-192,64,-192)" marker-end="url(#arrow)" />
<line x1="-88" y1="-1664" x2="128" y2="-1540" stroke-width="10" stroke="rgb(-88,128,128)" marker-end="url(#arrow)" />
<line x1="-1664" y1="-760" x2="-88" y2="-1664" stroke-width="10" stroke="rgb(-88,128,128)" marker-end="url(#arrow)" />
<line x1="-1664" y1="-704" x2="-1664" y2="-760" stroke-width="10" stroke="rgb(-88,128,128)" marker-end="url(#arrow)" />
<line x1="-512" y1="-704" x2="-640" y2="-704" stroke-width="10" stroke="rgb(-88,128,128)" marker-end="url(#arrow)" />
<line x1="-512" y1="-576" x2="-512" y2="-704" stroke-width="10" stroke="rgb(0,64,0)" marker-end="url(#arrow)" />
<line x1="-1664" y1="-576" x2="-1664" y2="-704" stroke-width="10" stroke="rgb(-128,64,-128)" marker-end="url(#arrow)" />
<line x1="-640" y1="-704" x2="-640" y2="-576" stroke-width="10" stroke="rgb(-128,64,-128)" marker-end="url(#arrow)" />
<line x1="128" y1="128" x2="16" y2="128" stroke-width="10" stroke="rgb(128,-128,16)" marker-end="url(#arrow)" />
<line x1="-208" y1="128" x2="-448" y2="128" stroke-width="10" stroke="rgb(128,-128,16)" marker-end="url(#arrow)" />
<line x1="-160" y1="-128" x2="-32" y2="-128" stroke-width="10" stroke="rgb(128,-128,16)" marker-end="url(#arrow)" />
<line x1="-32" y1="-128" x2="-32" y2="-256" stroke-width="10" stroke="rgb(-32,128,-32)" marker-end="url(#arrow)" />
<line x1="-32" y1="-256" x2="-160" y2="-256" stroke-width="10" stroke="rgb(-32,0,-160)" marker-end="url(#arrow)" />
<line x1="-160" y1="-256" x2="-160" y2="-128" stroke-width="10" stroke="rgb(-160,0,-160)" marker-end="url(#arrow)" />
<line x1="80" y1="512" x2="-64" y2="560" stroke-width="10" stroke="rgb(80,0,-64)" marker-end="url(#arrow)" />
<line x1="-128" y1="560" x2="-272" y2="512" stroke-width="10" stroke="rgb(80,0,-64)" marker-end="url(#arrow)" />
<line x1="-64" y1="560" x2="-128" y2="560" stroke-width="10" stroke="rgb(80,0,-64)" marker-end="url(#arrow)" />
<line x1="-272" y1="512" x2="80" y2="512" stroke-width="10" stroke="rgb(80,0,-64)" marker-end="url(#arrow)" />
<line x1="-64" y1="576" x2="-128" y2="576" stroke-width="10" stroke="rgb(-64,-64,-128)" marker-end="url(#arrow)" />
<line x1="-64" y1="560" x2="-64" y2="576" stroke-width="10" stroke="rgb(-64,-64,-128)" marker-end="url(#arrow)" />
<line x1="-128" y1="576" x2="-128" y2="560" stroke-width="10" stroke="rgb(-64,-64,-128)" marker-end="url(#arrow)" />
<line x1="-128" y1="560" x2="-64" y2="560" stroke-width="10" stroke="rgb(-64,-64,-128)" marker-end="url(#arrow)" />
<line x1="80" y1="216" x2="80" y2="512" stroke-width="10" stroke="rgb(80,-216,80)" marker-end="url(#arrow)" />
<line x1="-272" y1="512" x2="-272" y2="216" stroke-width="10" stroke="rgb(80,-216,80)" marker-end="url(#arrow)" />
<line x1="80" y1="512" x2="-272" y2="512" stroke-width="10" stroke="rgb(80,-216,80)" marker-end="url(#arrow)" />
<line x1="-272" y1="216" x2="-144" y2="216" stroke-width="10" stroke="rgb(80,-216,80)" marker-end="url(#arrow)" />
<line x1="-48" y1="216" x2="80" y2="216" stroke-width="10" stroke="rgb(80,-216,80)" marker-end="url(#arrow)" />
<line x1="16" y1="128" x2="-48" y2="192" stroke-width="10" stroke="rgb(16,-128,-48)" marker-end="url(#arrow)" />
<line x1="-144" y1="192" x2="-208" y2="128" stroke-width="10" stroke="rgb(16,-128,-48)" marker-end="url(#arrow)" />
<line x1="-48" y1="192" x2="-144" y2="192" stroke-width="10" stroke="rgb(16,-128,-48)" marker-end="url(#arrow)" />
<line x1="-144" y1="192" x2="-48" y2="192" stroke-width="10" stroke="rgb(-144,-192,-48)" marker-end="url(#arrow)" />
<line x1="-144" y1="216" x2="-144" y2="192" stroke-width="10" stroke="rgb(-144,-192,-48)" marker-end="url(#arrow)" />
<line x1="-48" y1="192" x2="-48" y2="216" stroke-width="10" stroke="rgb(-144,-192,-48)" marker-end="url(#arrow)" />
<line x1="-448" y1="128" x2="-608" y2="224" stroke-width="10" stroke="rgb(-192,-128,-96)" marker-end="url(#arrow)" />
<line x1="-608" y1="224" x2="-625" y2="209" stroke-width="10" stroke="rgb(-192,-128,-96)" marker-end="url(#arrow)" />
<line x1="-768" y1="448" x2="-768" y2="576" stroke-width="10" stroke="rgb(0,-192,0)" marker-end="url(#arrow)" />
<line x1="-256" y1="768" x2="-128" y2="640" stroke-width="10" stroke="rgb(0,0,-128)" marker-end="url(#arrow)" />
<line x1="-128" y1="672" x2="-128" y2="688" stroke-width="10" stroke="rgb(0,0,-128)" marker-end="url(#arrow)" />
<line x1="-128" y1="656" x2="-128" y2="672" stroke-width="10" stroke="rgb(0,0,-128)" marker-end="url(#arrow)" />
<line x1="-128" y1="640" x2="-128" y2="656" stroke-width="10" stroke="rgb(0,0,-128)" marker-end="url(#arrow)" />
<line x1="-208" y1="768" x2="-224" y2="768" stroke-width="10" stroke="rgb(0,0,-128)" marker-end="url(#arrow)" />
<line x1="-224" y1="768" x2="-240" y2="768" stroke-width="10" stroke="rgb(0,0,-128)" marker-end="url(#arrow)" />
<line x1="-240" y1="768" x2="-256" y2="768" stroke-width="10" stroke="rgb(0,0,-128)" marker-end="url(#arrow)" />
<line x1="-384" y1="624" x2="-336" y2="768" stroke-width="10" stroke="rgb(-128,-112,-80)" marker-end="url(#arrow)" />
<line x1="-384" y1="768" x2="-384" y2="624" stroke-width="10" stroke="rgb(-128,-112,-80)" marker-end="url(#arrow)" />
<line x1="-768" y1="576" x2="-768" y2="688" stroke-width="10" stroke="rgb(0,-64,0)" marker-end="url(#arrow)" />
<line x1="-1024" y1="768" x2="-1024" y2="736" stroke-width="10" stroke="rgb(0,-64,0)" marker-end="url(#arrow)" />
<line x1="-1664" y1="768" x2="-1664" y2="576" stroke-width="10" stroke="rgb(-128,0,-128)" marker-end="url(#arrow)" />
<line x1="-1152" y1="736" x2="-1152" y2="768" stroke-width="10" stroke="rgb(-128,0,-128)" marker-end="url(#arrow)" />
<line x1="-1024" y1="736" x2="-1152" y2="736" stroke-width="10" stroke="rgb(0,-224,-128)" marker-end="url(#arrow)" />
<line x1="-768" y1="688" x2="-704" y2="752" stroke-width="10" stroke="rgb(0,-176,-192)" marker-end="url(#arrow)" />
<line x1="-704" y1="752" x2="-704" y2="768" stroke-width="10" stroke="rgb(0,-176,-192)" marker-end="url(#arrow)" />
<line x1="-704" y1="768" x2="-704" y2="752" stroke-width="10" stroke="rgb(-192,0,-192)" marker-end="url(#arrow)" />
<line x1="-680" y1="624" x2="-384" y2="624" stroke-width="10" stroke="rgb(-168,-112,-128)" marker-end="url(#arrow)" />
<line x1="-384" y1="624" x2="-384" y2="768" stroke-width="10" stroke="rgb(-168,-112,-128)" marker-end="url(#arrow)" />
<line x1="-680" y1="752" x2="-680" y2="624" stroke-width="10" stroke="rgb(-168,-112,-128)" marker-end="url(#arrow)" />
<line x1="-704" y1="752" x2="-680" y2="752" stroke-width="10" stroke="rgb(-192,-240,-168)" marker-end="url(#arrow)" />
<line x1="-128" y1="688" x2="-64" y2="688" stroke-width="10" stroke="rgb(-128,-176,-64)" marker-end="url(#arrow)" />
<line x1="-64" y1="672" x2="-64" y2="688" stroke-width="10" stroke="rgb(-64,-160,-64)" marker-end="url(#arrow)" />
<line x1="-64" y1="688" x2="-128" y2="688" stroke-width="10" stroke="rgb(-64,-160,-64)" marker-end="url(#arrow)" />
<line x1="-128" y1="688" x2="-128" y2="672" stroke-width="10" stroke="rgb(-64,-160,-64)" marker-end="url(#arrow)" />
<line x1="-128" y1="672" x2="-64" y2="672" stroke-width="10" stroke="rgb(-64,-160,-64)" marker-end="url(#arrow)" />
<line x1="-64" y1="656" x2="-64" y2="672" stroke-width="10" stroke="rgb(-64,-144,-64)" marker-end="url(#arrow)" />
<line x1="-128" y1="672" x2="-128" y2="656" stroke-width="10" stroke="rgb(-64,-144,-64)" marker-end="url(#arrow)" />
<line x1="-128" y1="656" x2="-64" y2="656" stroke-width="10" stroke="rgb(-64,-144,-64)" marker-end="url(#arrow)" />
<line x1="-64" y1="672" x2="-128" y2="672" stroke-width="10" stroke="rgb(-64,-144,-64)" marker-end="url(#arrow)" />
<line x1="-128" y1="640" x2="-64" y2="640" stroke-width="10" stroke="rgb(-128,-128,-64)" marker-end="url(#arrow)" />
<line x1="-64" y1="640" x2="-64" y2="656" stroke-width="10" stroke="rgb(-128,-128,-64)" marker-end="url(#arrow)" />
<line x1="-128" y1="656" x2="-128" y2="640" stroke-width="10" stroke="rgb(-128,-128,-64)" marker-end="url(#arrow)" />
<line x1="-64" y1="656" x2="-128" y2="656" stroke-width="10" stroke="rgb(-128,-128,-64)" marker-end="url(#arrow)" />
<line x1="-128" y1="640" x2="-128" y2="576" stroke-width="10" stroke="rgb(-128,-128,-128)" marker-end="url(#arrow)" />
<line x1="-128" y1="576" x2="-64" y2="576" stroke-width="10" stroke="rgb(-128,-128,-128)" marker-end="url(#arrow)" />
<line x1="-64" y1="576" x2="-64" y2="640" stroke-width="10" stroke="rgb(-128,-128,-128)" marker-end="url(#arrow)" />
<line x1="-64" y1="640" x2="-128" y2="640" stroke-width="10" stroke="rgb(-128,-128,-128)" marker-end="url(#arrow)" />
<line x1="-64" y1="640" x2="64" y2="768" stroke-width="10" stroke="rgb(-64,-128,64)" marker-end="url(#arrow)" />
<line x1="32" y1="768" x2="16" y2="768" stroke-width="10" stroke="rgb(-64,-128,64)" marker-end="url(#arrow)" />
<line x1="48" y1="768" x2="32" y2="768" stroke-width="10" stroke="rgb(-64,-128,64)" marker-end="url(#arrow)" />
<line x1="64" y1="768" x2="48" y2="768" stroke-width="10" stroke="rgb(-64,-128,64)" marker-end="url(#arrow)" />
<line x1="-64" y1="656" x2="-64" y2="640" stroke-width="10" stroke="rgb(-64,-128,64)" marker-end="url(#arrow)" />
<line x1="-64" y1="672" x2="-64" y2="656" stroke-width="10" stroke="rgb(-64,-128,64)" marker-end="url(#arrow)" />
<line x1="-64" y1="688" x2="-64" y2="672" stroke-width="10" stroke="rgb(-64,-128,64)" marker-end="url(#arrow)" />

</svg>

