<svg width="900" height="482" preserveAspectRatio="none" viewBox="-1026 -706 3844 2180"
 xmlns="http://www.w3.org/2000/svg" xmlns:xlink="http://www.w3.org/1999/xlink">
   <defs>
    <marker id="arrow" markerWidth="10" markerHeight="10" refX="0" refY="2" orient="auto" markerUnits="strokeWidth">
      <path d="M0,0 L0,4 L5,3 z" fill="#f00" />
    </marker>
  </defs>

<line x1="1728" y1="448" x2="1600" y2="448" stroke-width="10" stroke="rgb(192,-192,64)" marker-end="url(#arrow)" />
<line x1="1728" y1="320" x2="1728" y2="448" stroke-width="10" stroke="rgb(192,-192,64)" marker-end="url(#arrow)" />
<line x1="1600" y1="320" x2="1728" y2="320" stroke-width="10" stroke="rgb(192,-192,64)" marker-end="url(#arrow)" />
<line x1="1600" y1="448" x2="1600" y2="320" stroke-width="10" stroke="rgb(192,-192,64)" marker-end="url(#arrow)" />
<line x1="1600" y1="320" x2="1600" y2="448" stroke-width="10" stroke="rgb(64,-64,64)" marker-end="url(#arrow)" />
<line x1="1536" y1="448" x2="1536" y2="320" stroke-width="10" stroke="rgb(64,-64,64)" marker-end="url(#arrow)" />
<line x1="1536" y1="320" x2="1536" y2="448" stroke-width="10" stroke="rgb(0,-64,0)" marker-end="url(#arrow)" />
<line x1="1536" y1="448" x2="1024" y2="448" stroke-width="10" stroke="rgb(0,-64,0)" marker-end="url(#arrow)" />
<line x1="1600" y1="448" x2="1728" y2="448" stroke-width="10" stroke="rgb(64,-192,192)" marker-end="url(#arrow)" />
<line x1="1728" y1="512" x2="1024" y2="512" stroke-width="10" stroke="rgb(64,-192,192)" marker-end="url(#arrow)" />
<line x1="1024" y1="512" x2="1024" y2="448" stroke-width="10" stroke="rgb(64,-192,192)" marker-end="url(#arrow)" />
<line x1="1024" y1="448" x2="1536" y2="448" stroke-width="10" stroke="rgb(64,-192,192)" marker-end="url(#arrow)" />
<line x1="1408" y1="640" x2="1024" y2="640" stroke-width="10" stroke="rgb(128,-128,0)" marker-end="url(#arrow)" />
<line x1="1024" y1="512" x2="1728" y2="512" stroke-width="10" stroke="rgb(128,-128,0)" marker-end="url(#arrow)" />
<line x1="1728" y1="512" x2="1728" y2="640" stroke-width="10" stroke="rgb(128,-128,0)" marker-end="url(#arrow)" />
<line x1="1728" y1="1152" x2="1696" y2="1152" stroke-width="10" stroke="rgb(192,-128,160)" marker-end="url(#arrow)" />
<line x1="1408" y1="1152" x2="1408" y2="640" stroke-width="10" stroke="rgb(192,-128,160)" marker-end="url(#arrow)" />
<line x1="1632" y1="1152" x2="1408" y2="1152" stroke-width="10" stroke="rgb(192,-128,160)" marker-end="url(#arrow)" />
<line x1="1696" y1="1152" x2="1632" y2="1152" stroke-width="10" stroke="rgb(192,-128,160)" marker-end="url(#arrow)" />
<line x1="1728" y1="640" x2="1728" y2="1024" stroke-width="10" stroke="rgb(192,-128,160)" marker-end="url(#arrow)" />
<line x1="1728" y1="448" x2="1728" y2="320" stroke-width="10" stroke="rgb(192,-192,192)" marker-end="url(#arrow)" />
<line x1="1728" y1="1024" x2="1728" y2="512" stroke-width="10" stroke="rgb(192,-192,192)" marker-end="url(#arrow)" />
<line x1="1792" y1="1024" x2="1728" y2="1024" stroke-width="10" stroke="rgb(192,-192,192)" marker-end="url(#arrow)" />
<line x1="1792" y1="320" x2="1792" y2="1024" stroke-width="10" stroke="rgb(192,-192,192)" marker-end="url(#arrow)" />
<line x1="1792" y1="1152" x2="1728" y2="1152" stroke-width="10" stroke="rgb(0,-128,192)" marker-end="url(#arrow)" />
<line x1="1728" y1="1024" x2="1792" y2="1024" stroke-width="10" stroke="rgb(0,-128,192)" marker-end="url(#arrow)" />
<line x1="1920" y1="640" x2="1920" y2="1152" stroke-width="10" stroke="rgb(128,-128,128)" marker-end="url(#arrow)" />
<line x1="1920" y1="1152" x2="1792" y2="1152" stroke-width="10" stroke="rgb(128,-128,128)" marker-end="url(#arrow)" />
<line x1="1792" y1="320" x2="1920" y2="320" stroke-width="10" stroke="rgb(128,-128,128)" marker-end="url(#arrow)" />
<line x1="1792" y1="1024" x2="1792" y2="320" stroke-width="10" stroke="rgb(128,-128,128)" marker-end="url(#arrow)" />
<line x1="2432" y1="640" x2="1920" y2="640" stroke-width="10" stroke="rgb(128,-128,128)" marker-end="url(#arrow)" />
<line x1="2432" y1="448" x2="2432" y2="512" stroke-width="10" stroke="rgb(128,-128,128)" marker-end="url(#arrow)" />
<line x1="2432" y1="512" x2="2432" y2="640" stroke-width="10" stroke="rgb(128,-128,128)" marker-end="url(#arrow)" />
<line x1="2432" y1="320" x2="2432" y2="448" stroke-width="10" stroke="rgb(128,-128,128)" marker-end="url(#arrow)" />
<line x1="1920" y1="320" x2="2304" y2="320" stroke-width="10" stroke="rgb(128,-128,128)" marker-end="url(#arrow)" />
<line x1="1632" y1="1216" x2="1632" y2="1152" stroke-width="10" stroke="rgb(96,-192,96)" marker-end="url(#arrow)" />
<line x1="1696" y1="1216" x2="1632" y2="1216" stroke-width="10" stroke="rgb(96,-192,96)" marker-end="url(#arrow)" />
<line x1="1696" y1="1152" x2="1696" y2="1216" stroke-width="10" stroke="rgb(96,-192,96)" marker-end="url(#arrow)" />
<line x1="1632" y1="1152" x2="1696" y2="1152" stroke-width="10" stroke="rgb(96,-192,96)" marker-end="url(#arrow)" />
<line x1="1536" y1="320" x2="1536" y2="-256" stroke-width="10" stroke="rgb(0,-64,0)" marker-end="url(#arrow)" />
<line x1="1536" y1="-256" x2="1600" y2="-256" stroke-width="10" stroke="rgb(0,-64,0)" marker-end="url(#arrow)" />
<line x1="1600" y1="-256" x2="1600" y2="256" stroke-width="10" stroke="rgb(0,-64,0)" marker-end="url(#arrow)" />
<line x1="1536" y1="-384" x2="1600" y2="-384" stroke-width="10" stroke="rgb(0,128,64)" marker-end="url(#arrow)" />
<line x1="1600" y1="-256" x2="1536" y2="-256" stroke-width="10" stroke="rgb(0,128,64)" marker-end="url(#arrow)" />
<line x1="1408" y1="128" x2="1408" y2="-384" stroke-width="10" stroke="rgb(128,-128,128)" marker-end="url(#arrow)" />
<line x1="1408" y1="-384" x2="1536" y2="-384" stroke-width="10" stroke="rgb(128,-128,128)" marker-end="url(#arrow)" />
<line x1="1536" y1="-256" x2="1536" y2="320" stroke-width="10" stroke="rgb(128,-128,128)" marker-end="url(#arrow)" />
<line x1="1728" y1="320" x2="1600" y2="320" stroke-width="10" stroke="rgb(192,-64,64)" marker-end="url(#arrow)" />
<line x1="2304" y1="320" x2="1792" y2="320" stroke-width="10" stroke="rgb(192,-64,64)" marker-end="url(#arrow)" />
<line x1="2304" y1="256" x2="2304" y2="320" stroke-width="10" stroke="rgb(192,-64,64)" marker-end="url(#arrow)" />
<line x1="1600" y1="256" x2="2304" y2="256" stroke-width="10" stroke="rgb(192,-64,64)" marker-end="url(#arrow)" />
<line x1="2432" y1="256" x2="2432" y2="320" stroke-width="10" stroke="rgb(128,0,128)" marker-end="url(#arrow)" />
<line x1="2304" y1="320" x2="2304" y2="256" stroke-width="10" stroke="rgb(128,0,128)" marker-end="url(#arrow)" />
<line x1="1920" y1="128" x2="2432" y2="128" stroke-width="10" stroke="rgb(128,-128,128)" marker-end="url(#arrow)" />
<line x1="2432" y1="128" x2="2432" y2="256" stroke-width="10" stroke="rgb(128,-128,128)" marker-end="url(#arrow)" />
<line x1="2304" y1="256" x2="1600" y2="256" stroke-width="10" stroke="rgb(128,-128,128)" marker-end="url(#arrow)" />
<line x1="1600" y1="256" x2="1600" y2="128" stroke-width="10" stroke="rgb(128,-128,128)" marker-end="url(#arrow)" />
<line x1="1696" y1="-384" x2="1920" y2="-384" stroke-width="10" stroke="rgb(160,128,128)" marker-end="url(#arrow)" />
<line x1="1920" y1="-384" x2="1920" y2="128" stroke-width="10" stroke="rgb(160,128,128)" marker-end="url(#arrow)" />
<line x1="1600" y1="-384" x2="1632" y2="-384" stroke-width="10" stroke="rgb(160,128,128)" marker-end="url(#arrow)" />
<line x1="1632" y1="-384" x2="1696" y2="-384" stroke-width="10" stroke="rgb(160,128,128)" marker-end="url(#arrow)" />
<line x1="1600" y1="128" x2="1600" y2="-256" stroke-width="10" stroke="rgb(160,128,128)" marker-end="url(#arrow)" />
<line x1="1024" y1="128" x2="1408" y2="128" stroke-width="10" stroke="rgb(0,-128,128)" marker-end="url(#arrow)" />
<line x1="1632" y1="-384" x2="1632" y2="-448" stroke-width="10" stroke="rgb(96,128,96)" marker-end="url(#arrow)" />
<line x1="1632" y1="-448" x2="1696" y2="-448" stroke-width="10" stroke="rgb(96,128,96)" marker-end="url(#arrow)" />
<line x1="1696" y1="-448" x2="1696" y2="-384" stroke-width="10" stroke="rgb(96,128,96)" marker-end="url(#arrow)" />
<line x1="1696" y1="-384" x2="1632" y2="-384" stroke-width="10" stroke="rgb(96,128,96)" marker-end="url(#arrow)" />
<line x1="2448" y1="320" x2="2496" y2="320" stroke-width="10" stroke="rgb(144,-64,192)" marker-end="url(#arrow)" />
<line x1="2448" y1="464" x2="2448" y2="448" stroke-width="10" stroke="rgb(144,-64,192)" marker-end="url(#arrow)" />
<line x1="2496" y1="464" x2="2448" y2="464" stroke-width="10" stroke="rgb(144,-64,192)" marker-end="url(#arrow)" />
<line x1="2448" y1="448" x2="2448" y2="320" stroke-width="10" stroke="rgb(144,-64,192)" marker-end="url(#arrow)" />
<line x1="2496" y1="448" x2="2496" y2="464" stroke-width="10" stroke="rgb(144,-64,192)" marker-end="url(#arrow)" />
<line x1="2432" y1="320" x2="2448" y2="320" stroke-width="10" stroke="rgb(128,-64,144)" marker-end="url(#arrow)" />
<line x1="2448" y1="448" x2="2432" y2="448" stroke-width="10" stroke="rgb(128,-64,144)" marker-end="url(#arrow)" />
<line x1="2432" y1="448" x2="2432" y2="320" stroke-width="10" stroke="rgb(128,-64,144)" marker-end="url(#arrow)" />
<line x1="2448" y1="320" x2="2448" y2="448" stroke-width="10" stroke="rgb(128,-64,144)" marker-end="url(#arrow)" />
<line x1="2448" y1="472" x2="2496" y2="472" stroke-width="10" stroke="rgb(144,-216,192)" marker-end="url(#arrow)" />
<line x1="2496" y1="472" x2="2496" y2="480" stroke-width="10" stroke="rgb(144,-216,192)" marker-end="url(#arrow)" />
<line x1="2496" y1="480" x2="2448" y2="480" stroke-width="10" stroke="rgb(144,-216,192)" marker-end="url(#arrow)" />
<line x1="2448" y1="480" x2="2448" y2="472" stroke-width="10" stroke="rgb(144,-216,192)" marker-end="url(#arrow)" />
<line x1="2448" y1="480" x2="2496" y2="480" stroke-width="10" stroke="rgb(144,-224,192)" marker-end="url(#arrow)" />
<line x1="2448" y1="512" x2="2448" y2="480" stroke-width="10" stroke="rgb(144,-224,192)" marker-end="url(#arrow)" />
<line x1="2496" y1="512" x2="2448" y2="512" stroke-width="10" stroke="rgb(144,-224,192)" marker-end="url(#arrow)" />
<line x1="2496" y1="480" x2="2496" y2="512" stroke-width="10" stroke="rgb(144,-224,192)" marker-end="url(#arrow)" />
<line x1="2448" y1="464" x2="2496" y2="464" stroke-width="10" stroke="rgb(144,-208,192)" marker-end="url(#arrow)" />
<line x1="2496" y1="464" x2="2496" y2="472" stroke-width="10" stroke="rgb(144,-208,192)" marker-end="url(#arrow)" />
<line x1="2448" y1="472" x2="2448" y2="464" stroke-width="10" stroke="rgb(144,-208,192)" marker-end="url(#arrow)" />
<line x1="2496" y1="472" x2="2448" y2="472" stroke-width="10" stroke="rgb(144,-208,192)" marker-end="url(#arrow)" />
<line x1="2648" y1="400" x2="2656" y2="400" stroke-width="10" stroke="rgb(88,-144,96)" marker-end="url(#arrow)" />
<line x1="2656" y1="400" x2="2656" y2="448" stroke-width="10" stroke="rgb(88,-144,96)" marker-end="url(#arrow)" />
<line x1="2656" y1="448" x2="2648" y2="448" stroke-width="10" stroke="rgb(88,-144,96)" marker-end="url(#arrow)" />
<line x1="2648" y1="448" x2="2648" y2="400" stroke-width="10" stroke="rgb(88,-144,96)" marker-end="url(#arrow)" />
<line x1="2656" y1="448" x2="2656" y2="400" stroke-width="10" stroke="rgb(96,-192,96)" marker-end="url(#arrow)" />
<line x1="2656" y1="400" x2="2688" y2="400" stroke-width="10" stroke="rgb(96,-192,96)" marker-end="url(#arrow)" />
<line x1="2688" y1="400" x2="2688" y2="448" stroke-width="10" stroke="rgb(96,-192,96)" marker-end="url(#arrow)" />
<line x1="2688" y1="448" x2="2656" y2="448" stroke-width="10" stroke="rgb(96,-192,96)" marker-end="url(#arrow)" />
<line x1="2624" y1="448" x2="2496" y2="448" stroke-width="10" stroke="rgb(64,-192,192)" marker-end="url(#arrow)" />
<line x1="2640" y1="448" x2="2624" y2="448" stroke-width="10" stroke="rgb(64,-192,192)" marker-end="url(#arrow)" />
<line x1="2640" y1="400" x2="2640" y2="448" stroke-width="10" stroke="rgb(64,-192,192)" marker-end="url(#arrow)" />
<line x1="2624" y1="400" x2="2640" y2="400" stroke-width="10" stroke="rgb(64,-192,192)" marker-end="url(#arrow)" />
<line x1="2496" y1="320" x2="2544" y2="320" stroke-width="10" stroke="rgb(192,-64,240)" marker-end="url(#arrow)" />
<line x1="2544" y1="320" x2="2560" y2="320" stroke-width="10" stroke="rgb(192,-64,240)" marker-end="url(#arrow)" />
<line x1="2624" y1="320" x2="2624" y2="400" stroke-width="10" stroke="rgb(192,-64,240)" marker-end="url(#arrow)" />
<line x1="2640" y1="448" x2="2640" y2="400" stroke-width="10" stroke="rgb(80,-192,80)" marker-end="url(#arrow)" />
<line x1="2640" y1="400" x2="2648" y2="400" stroke-width="10" stroke="rgb(80,-192,80)" marker-end="url(#arrow)" />
<line x1="2648" y1="448" x2="2640" y2="448" stroke-width="10" stroke="rgb(80,-192,80)" marker-end="url(#arrow)" />
<line x1="2648" y1="400" x2="2648" y2="448" stroke-width="10" stroke="rgb(80,-192,80)" marker-end="url(#arrow)" />
<line x1="2544" y1="320" x2="2496" y2="320" stroke-width="10" stroke="rgb(240,-64,192)" marker-end="url(#arrow)" />
<line x1="2496" y1="320" x2="2496" y2="312" stroke-width="10" stroke="rgb(240,-64,192)" marker-end="url(#arrow)" />
<line x1="2544" y1="312" x2="2544" y2="320" stroke-width="10" stroke="rgb(240,-64,192)" marker-end="url(#arrow)" />
<line x1="2496" y1="312" x2="2544" y2="312" stroke-width="10" stroke="rgb(240,-64,192)" marker-end="url(#arrow)" />
<line x1="2544" y1="312" x2="2496" y2="312" stroke-width="10" stroke="rgb(240,-56,192)" marker-end="url(#arrow)" />
<line x1="2496" y1="312" x2="2496" y2="256" stroke-width="10" stroke="rgb(240,-56,192)" marker-end="url(#arrow)" />
<line x1="2496" y1="256" x2="2544" y2="256" stroke-width="10" stroke="rgb(240,-56,192)" marker-end="url(#arrow)" />
<line x1="2544" y1="256" x2="2544" y2="312" stroke-width="10" stroke="rgb(240,-56,192)" marker-end="url(#arrow)" />
<line x1="2560" y1="320" x2="2560" y2="304" stroke-width="10" stroke="rgb(0,-64,0)" marker-end="url(#arrow)" />
<line x1="2624" y1="304" x2="2624" y2="320" stroke-width="10" stroke="rgb(0,-64,0)" marker-end="url(#arrow)" />
<line x1="2560" y1="304" x2="2624" y2="304" stroke-width="10" stroke="rgb(0,-64,0)" marker-end="url(#arrow)" />
<line x1="2560" y1="304" x2="2560" y2="256" stroke-width="10" stroke="rgb(0,-48,0)" marker-end="url(#arrow)" />
<line x1="2624" y1="256" x2="2624" y2="304" stroke-width="10" stroke="rgb(0,-48,0)" marker-end="url(#arrow)" />
<line x1="2624" y1="304" x2="2560" y2="304" stroke-width="10" stroke="rgb(0,-48,0)" marker-end="url(#arrow)" />
<line x1="2560" y1="256" x2="2624" y2="256" stroke-width="10" stroke="rgb(0,-48,0)" marker-end="url(#arrow)" />
<line x1="2560" y1="192" x2="2624" y2="192" stroke-width="10" stroke="rgb(0,-192,64)" marker-end="url(#arrow)" />
<line x1="2624" y1="192" x2="2624" y2="256" stroke-width="10" stroke="rgb(0,-192,64)" marker-end="url(#arrow)" />
<line x1="2560" y1="256" x2="2560" y2="192" stroke-width="10" stroke="rgb(0,-192,64)" marker-end="url(#arrow)" />
<line x1="2624" y1="256" x2="2560" y2="256" stroke-width="10" stroke="rgb(0,-192,64)" marker-end="url(#arrow)" />
<line x1="-384" y1="448" x2="-512" y2="576" stroke-width="10" stroke="rgb(-128,-192,0)" marker-end="url(#arrow)" />
<line x1="-512" y1="576" x2="-704" y2="576" stroke-width="10" stroke="rgb(-128,-192,0)" marker-end="url(#arrow)" />
<line x1="-704" y1="576" x2="-896" y2="384" stroke-width="10" stroke="rgb(-128,-192,0)" marker-end="url(#arrow)" />
<line x1="-896" y1="384" x2="-704" y2="192" stroke-width="10" stroke="rgb(-128,-192,0)" marker-end="url(#arrow)" />
<line x1="-704" y1="192" x2="-512" y2="192" stroke-width="10" stroke="rgb(-128,-192,0)" marker-end="url(#arrow)" />
<line x1="-512" y1="192" x2="-384" y2="320" stroke-width="10" stroke="rgb(-128,-192,0)" marker-end="url(#arrow)" />
<line x1="-384" y1="320" x2="-320" y2="320" stroke-width="10" stroke="rgb(-128,-64,-64)" marker-end="url(#arrow)" />
<line x1="-320" y1="320" x2="-256" y2="192" stroke-width="10" stroke="rgb(-64,-64,0)" marker-end="url(#arrow)" />
<line x1="-320" y1="128" x2="-512" y2="128" stroke-width="10" stroke="rgb(-64,-128,0)" marker-end="url(#arrow)" />
<line x1="-512" y1="128" x2="-576" y2="-64" stroke-width="10" stroke="rgb(-64,-128,0)" marker-end="url(#arrow)" />
<line x1="-576" y1="-64" x2="-384" y2="-256" stroke-width="10" stroke="rgb(-64,-128,0)" marker-end="url(#arrow)" />
<line x1="-384" y1="-256" x2="-192" y2="-192" stroke-width="10" stroke="rgb(-64,-128,0)" marker-end="url(#arrow)" />
<line x1="-192" y1="-192" x2="-192" y2="0" stroke-width="10" stroke="rgb(-64,-128,0)" marker-end="url(#arrow)" />
<line x1="-256" y1="192" x2="-320" y2="128" stroke-width="10" stroke="rgb(0,-192,-64)" marker-end="url(#arrow)" />
<line x1="-192" y1="768" x2="-192" y2="960" stroke-width="10" stroke="rgb(-192,0,-192)" marker-end="url(#arrow)" />
<line x1="-192" y1="960" x2="-384" y2="1024" stroke-width="10" stroke="rgb(-192,0,-192)" marker-end="url(#arrow)" />
<line x1="-384" y1="1024" x2="-576" y2="832" stroke-width="10" stroke="rgb(-192,0,-192)" marker-end="url(#arrow)" />
<line x1="-576" y1="832" x2="-512" y2="640" stroke-width="10" stroke="rgb(-192,0,-192)" marker-end="url(#arrow)" />
<line x1="-512" y1="640" x2="-320" y2="640" stroke-width="10" stroke="rgb(-192,0,-192)" marker-end="url(#arrow)" />
<line x1="-320" y1="640" x2="-256" y2="576" stroke-width="10" stroke="rgb(-64,-128,0)" marker-end="url(#arrow)" />
<line x1="-256" y1="576" x2="-320" y2="448" stroke-width="10" stroke="rgb(0,-64,-64)" marker-end="url(#arrow)" />
<line x1="-320" y1="448" x2="-384" y2="448" stroke-width="10" stroke="rgb(-64,-192,-128)" marker-end="url(#arrow)" />
<line x1="-128" y1="704" x2="-192" y2="768" stroke-width="10" stroke="rgb(-128,-192,-192)" marker-end="url(#arrow)" />
<line x1="-192" y1="0" x2="-128" y2="64" stroke-width="10" stroke="rgb(-128,-192,-192)" marker-end="url(#arrow)" />
<line x1="-128" y1="64" x2="0" y2="0" stroke-width="10" stroke="rgb(-128,-64,0)" marker-end="url(#arrow)" />
<line x1="128" y1="0" x2="256" y2="64" stroke-width="10" stroke="rgb(-128,-64,0)" marker-end="url(#arrow)" />
<line x1="0" y1="0" x2="0" y2="-64" stroke-width="10" stroke="rgb(0,0,0)" marker-end="url(#arrow)" />
<line x1="0" y1="-64" x2="-128" y2="-192" stroke-width="10" stroke="rgb(0,64,-128)" marker-end="url(#arrow)" />
<line x1="-128" y1="-192" x2="-128" y2="-384" stroke-width="10" stroke="rgb(0,64,-128)" marker-end="url(#arrow)" />
<line x1="-128" y1="-384" x2="64" y2="-576" stroke-width="10" stroke="rgb(0,64,-128)" marker-end="url(#arrow)" />
<line x1="64" y1="-576" x2="256" y2="-384" stroke-width="10" stroke="rgb(0,64,-128)" marker-end="url(#arrow)" />
<line x1="256" y1="-384" x2="256" y2="-192" stroke-width="10" stroke="rgb(0,64,-128)" marker-end="url(#arrow)" />
<line x1="256" y1="-192" x2="128" y2="-64" stroke-width="10" stroke="rgb(0,64,-128)" marker-end="url(#arrow)" />
<line x1="128" y1="-64" x2="128" y2="0" stroke-width="10" stroke="rgb(128,64,128)" marker-end="url(#arrow)" />
<line x1="256" y1="704" x2="128" y2="768" stroke-width="10" stroke="rgb(0,-192,128)" marker-end="url(#arrow)" />
<line x1="0" y1="832" x2="0" y2="768" stroke-width="10" stroke="rgb(0,-192,128)" marker-end="url(#arrow)" />
<line x1="0" y1="768" x2="-128" y2="704" stroke-width="10" stroke="rgb(0,0,-128)" marker-end="url(#arrow)" />
<line x1="128" y1="832" x2="256" y2="960" stroke-width="10" stroke="rgb(128,-64,0)" marker-end="url(#arrow)" />
<line x1="256" y1="960" x2="256" y2="1152" stroke-width="10" stroke="rgb(128,-64,0)" marker-end="url(#arrow)" />
<line x1="256" y1="1152" x2="64" y2="1344" stroke-width="10" stroke="rgb(128,-64,0)" marker-end="url(#arrow)" />
<line x1="64" y1="1344" x2="-128" y2="1152" stroke-width="10" stroke="rgb(128,-64,0)" marker-end="url(#arrow)" />
<line x1="-128" y1="1152" x2="-128" y2="960" stroke-width="10" stroke="rgb(128,-64,0)" marker-end="url(#arrow)" />
<line x1="-128" y1="960" x2="0" y2="832" stroke-width="10" stroke="rgb(128,-64,0)" marker-end="url(#arrow)" />
<line x1="128" y1="768" x2="128" y2="832" stroke-width="10" stroke="rgb(128,0,128)" marker-end="url(#arrow)" />
<line x1="576" y1="448" x2="512" y2="448" stroke-width="10" stroke="rgb(64,-192,0)" marker-end="url(#arrow)" />
<line x1="512" y1="320" x2="576" y2="320" stroke-width="10" stroke="rgb(64,-192,0)" marker-end="url(#arrow)" />
<line x1="832" y1="320" x2="856" y2="320" stroke-width="10" stroke="rgb(64,-192,0)" marker-end="url(#arrow)" />
<line x1="856" y1="448" x2="832" y2="448" stroke-width="10" stroke="rgb(64,-192,0)" marker-end="url(#arrow)" />
<line x1="856" y1="320" x2="856" y2="448" stroke-width="10" stroke="rgb(64,-192,0)" marker-end="url(#arrow)" />
<line x1="872" y1="320" x2="896" y2="320" stroke-width="10" stroke="rgb(104,-64,128)" marker-end="url(#arrow)" />
<line x1="896" y1="448" x2="872" y2="448" stroke-width="10" stroke="rgb(104,-64,128)" marker-end="url(#arrow)" />
<line x1="872" y1="448" x2="872" y2="320" stroke-width="10" stroke="rgb(104,-64,128)" marker-end="url(#arrow)" />
<line x1="856" y1="320" x2="872" y2="320" stroke-width="10" stroke="rgb(88,-64,104)" marker-end="url(#arrow)" />
<line x1="872" y1="448" x2="856" y2="448" stroke-width="10" stroke="rgb(88,-64,104)" marker-end="url(#arrow)" />
<line x1="856" y1="448" x2="856" y2="320" stroke-width="10" stroke="rgb(88,-64,104)" marker-end="url(#arrow)" />
<line x1="872" y1="320" x2="872" y2="448" stroke-width="10" stroke="rgb(88,-64,104)" marker-end="url(#arrow)" />
<line x1="320" y1="0" x2="320" y2="-192" stroke-width="10" stroke="rgb(64,0,64)" marker-end="url(#arrow)" />
<line x1="320" y1="-192" x2="512" y2="-256" stroke-width="10" stroke="rgb(64,0,64)" marker-end="url(#arrow)" />
<line x1="512" y1="-256" x2="704" y2="-64" stroke-width="10" stroke="rgb(64,0,64)" marker-end="url(#arrow)" />
<line x1="704" y1="-64" x2="640" y2="128" stroke-width="10" stroke="rgb(64,0,64)" marker-end="url(#arrow)" />
<line x1="640" y1="128" x2="448" y2="128" stroke-width="10" stroke="rgb(64,0,64)" marker-end="url(#arrow)" />
<line x1="256" y1="64" x2="320" y2="0" stroke-width="10" stroke="rgb(0,-64,64)" marker-end="url(#arrow)" />
<line x1="576" y1="320" x2="640" y2="192" stroke-width="10" stroke="rgb(64,-64,128)" marker-end="url(#arrow)" />
<line x1="640" y1="192" x2="768" y2="192" stroke-width="10" stroke="rgb(64,-64,128)" marker-end="url(#arrow)" />
<line x1="768" y1="192" x2="832" y2="320" stroke-width="10" stroke="rgb(64,-64,128)" marker-end="url(#arrow)" />
<line x1="896" y1="320" x2="896" y2="128" stroke-width="10" stroke="rgb(128,-64,128)" marker-end="url(#arrow)" />
<line x1="896" y1="128" x2="1024" y2="128" stroke-width="10" stroke="rgb(128,-64,128)" marker-end="url(#arrow)" />
<line x1="448" y1="128" x2="384" y2="192" stroke-width="10" stroke="rgb(192,-128,128)" marker-end="url(#arrow)" />
<line x1="384" y1="192" x2="512" y2="320" stroke-width="10" stroke="rgb(128,-192,0)" marker-end="url(#arrow)" />
<line x1="448" y1="640" x2="640" y2="640" stroke-width="10" stroke="rgb(192,-128,128)" marker-end="url(#arrow)" />
<line x1="640" y1="640" x2="704" y2="832" stroke-width="10" stroke="rgb(192,-128,128)" marker-end="url(#arrow)" />
<line x1="704" y1="832" x2="512" y2="1024" stroke-width="10" stroke="rgb(192,-128,128)" marker-end="url(#arrow)" />
<line x1="512" y1="1024" x2="320" y2="960" stroke-width="10" stroke="rgb(192,-128,128)" marker-end="url(#arrow)" />
<line x1="320" y1="960" x2="320" y2="768" stroke-width="10" stroke="rgb(192,-128,128)" marker-end="url(#arrow)" />
<line x1="320" y1="768" x2="256" y2="704" stroke-width="10" stroke="rgb(64,0,0)" marker-end="url(#arrow)" />
<line x1="832" y1="448" x2="768" y2="576" stroke-width="10" stroke="rgb(64,-192,0)" marker-end="url(#arrow)" />
<line x1="768" y1="576" x2="640" y2="576" stroke-width="10" stroke="rgb(64,-192,0)" marker-end="url(#arrow)" />
<line x1="640" y1="576" x2="576" y2="448" stroke-width="10" stroke="rgb(64,-192,0)" marker-end="url(#arrow)" />
<line x1="512" y1="448" x2="384" y2="576" stroke-width="10" stroke="rgb(0,-192,128)" marker-end="url(#arrow)" />
<line x1="384" y1="576" x2="448" y2="640" stroke-width="10" stroke="rgb(128,-64,192)" marker-end="url(#arrow)" />
<line x1="1024" y1="640" x2="896" y2="640" stroke-width="10" stroke="rgb(0,-128,128)" marker-end="url(#arrow)" />
<line x1="896" y1="640" x2="896" y2="448" stroke-width="10" stroke="rgb(0,-128,128)" marker-end="url(#arrow)" />
<line x1="1024" y1="448" x2="1024" y2="512" stroke-width="10" stroke="rgb(0,-128,128)" marker-end="url(#arrow)" />

</svg>

