<svg width="900" height="482" preserveAspectRatio="none" viewBox="-1026 -706 3844 2180"
 xmlns="http://www.w3.org/2000/svg" xmlns:xlink="http://www.w3.org/1999/xlink">
   <defs>
    <marker id="arrow" markerWidth="10" markerHeight="10" refX="0" refY="2" orient="auto" markerUnits="strokeWidth">
      <path d="M0,0 L0,4 L5,3 z" fill="#f00" />
    </marker>
  </defs>

<polygon points="1600,448 1600,448 1600,320 1600,320 1728,320 1728,320 1728,448 1728,448 " fill="rgb(22,239,22)" stroke="rgb(70,70,70)" stroke-width="10" stroke-linecap="round" />
<polygon points="1600,448 1600,448 1536,448 1536,320 1536,320 1600,320 " fill="rgb(232,15,232)" stroke="rgb(70,70,70)" stroke-width="10" stroke-linecap="round" />
<polygon points="1536,448 1024,448 1024,448 1024,320 1536,320 1536,448 " fill="rgb(3,3,220)" stroke="rgb(70,70,70)" stroke-width="10" stroke-linecap="round" />
<polygon points="1728,448 1728,512 1024,512 1024,512 1024,448 1024,448 1728,448 1728,448 " fill="rgb(251,251,34)" stroke="rgb(70,70,70)" stroke-width="10" stroke-linecap="round" />
<polygon points="1024,640 1024,512 1728,512 1728,512 1728,640 1728,640 1024,640 " fill="rgb(26,243,243)" stroke="rgb(70,70,70)" stroke-width="10" stroke-linecap="round" />
<polygon points="1408,640 1728,640 1728,1152 1728,1152 1408,1152 1408,1152 1408,1152 " fill="rgb(22,239,22)" stroke="rgb(70,70,70)" stroke-width="10" stroke-linecap="round" />
<polygon points="1728,320 1728,320 1728,320 1792,320 1792,1024 1792,1024 1728,1024 1728,1024 " fill="rgb(228,11,11)" stroke="rgb(70,70,70)" stroke-width="10" stroke-linecap="round" />
<polygon points="1728,1152 1728,1152 1728,1024 1792,1024 1792,1024 1792,1152 " fill="rgb(251,251,34)" stroke="rgb(70,70,70)" stroke-width="10" stroke-linecap="round" />
<polygon points="1792,1152 1792,320 1792,320 1920,320 1920,320 1920,1152 1920,1152 1792,1152 " fill="rgb(232,15,232)" stroke="rgb(70,70,70)" stroke-width="10" stroke-linecap="round" />
<polygon points="2432,640 1920,640 1920,320 2432,320 2432,320 2432,640 2432,640 2432,640 " fill="rgb(26,243,243)" stroke="rgb(70,70,70)" stroke-width="10" stroke-linecap="round" />
<polygon points="1696,1152 1696,1152 1696,1216 1632,1216 1632,1152 " fill="rgb(22,239,22)" stroke="rgb(70,70,70)" stroke-width="10" stroke-linecap="round" />
<polygon points="1600,-256 1600,-256 1600,320 1600,320 1536,320 1536,-256 1536,-256 " fill="rgb(228,11,11)" stroke="rgb(70,70,70)" stroke-width="10" stroke-linecap="round" />
<polygon points="1600,-384 1600,-384 1600,-256 1536,-256 1536,-256 1536,-384 " fill="rgb(232,15,232)" stroke="rgb(70,70,70)" stroke-width="10" stroke-linecap="round" />
<polygon points="1408,-384 1536,-384 1536,-384 1536,320 1536,320 1408,320 1408,-384 " fill="rgb(22,239,22)" stroke="rgb(70,70,70)" stroke-width="10" stroke-linecap="round" />
<polygon points="1600,256 2304,256 2304,256 2304,320 2304,320 1600,320 1600,320 1600,320 " fill="rgb(3,3,220)" stroke="rgb(70,70,70)" stroke-width="10" stroke-linecap="round" />
<polygon points="2304,320 2304,256 2304,256 2432,256 2432,320 2432,320 " fill="rgb(3,3,220)" stroke="rgb(70,70,70)" stroke-width="10" stroke-linecap="round" />
<polygon points="1600,256 1600,256 1600,128 1600,128 2432,128 2432,128 2432,256 2432,256 " fill="rgb(22,239,22)" stroke="rgb(70,70,70)" stroke-width="10" stroke-linecap="round" />
<polygon points="1920,-384 1920,128 1600,128 1600,-384 1600,-384 1920,-384 1920,-384 " fill="rgb(26,243,243)" stroke="rgb(70,70,70)" stroke-width="10" stroke-linecap="round" />
<polygon points="1408,128 1408,320 1024,320 1024,128 " fill="rgb(251,251,34)" stroke="rgb(70,70,70)" stroke-width="10" stroke-linecap="round" />
<polygon points="1632,-384 1632,-384 1632,-448 1696,-448 1696,-384 " fill="rgb(232,15,232)" stroke="rgb(70,70,70)" stroke-width="10" stroke-linecap="round" />
<polygon points="2496,464 2448,464 2448,464 2448,320 2448,320 2448,320 2496,320 2496,464 " fill="rgb(251,251,34)" stroke="rgb(70,70,70)" stroke-width="10" stroke-linecap="round" />
<polygon points="2432,320 2448,320 2448,448 2448,448 2432,448 2432,320 " fill="rgb(228,11,11)" stroke="rgb(70,70,70)" stroke-width="10" stroke-linecap="round" />
<polygon points="2496,472 2496,480 2496,480 2448,480 2448,472 2496,472 " fill="rgb(26,243,243)" stroke="rgb(70,70,70)" stroke-width="10" stroke-linecap="round" />
<polygon points="2448,480 2496,480 2496,480 2496,512 2496,512 2448,512 " fill="rgb(232,15,232)" stroke="rgb(70,70,70)" stroke-width="10" stroke-linecap="round" />
<polygon points="2496,464 2496,464 2496,472 2496,472 2448,472 2448,472 2448,464 " fill="rgb(26,243,243)" stroke="rgb(70,70,70)" stroke-width="10" stroke-linecap="round" />
<polygon points="2656,448 2648,448 2648,400 2648,400 2656,400 " fill="rgb(26,243,243)" stroke="rgb(70,70,70)" stroke-width="10" stroke-linecap="round" />
<polygon points="2656,448 2656,400 2688,400 2688,448 " fill="rgb(22,239,22)" stroke="rgb(70,70,70)" stroke-width="10" stroke-linecap="round" />
<polygon points="2640,400 2640,400 2640,448 2640,448 2496,448 2496,448 2496,400 " fill="rgb(251,251,34)" stroke="rgb(70,70,70)" stroke-width="10" stroke-linecap="round" />
<polygon points="2624,400 2496,400 2496,320 2624,320 " fill="rgb(26,243,243)" stroke="rgb(70,70,70)" stroke-width="10" stroke-linecap="round" />
<polygon points="2648,448 2640,448 2640,400 2648,400 2648,448 " fill="rgb(232,15,232)" stroke="rgb(70,70,70)" stroke-width="10" stroke-linecap="round" />
<polygon points="2544,312 2544,312 2544,320 2544,320 2496,320 2496,320 2496,312 2496,312 " fill="rgb(22,239,22)" stroke="rgb(70,70,70)" stroke-width="10" stroke-linecap="round" />
<polygon points="2544,312 2544,312 2496,312 2496,312 2496,256 2544,256 " fill="rgb(251,251,34)" stroke="rgb(70,70,70)" stroke-width="10" stroke-linecap="round" />
<polygon points="2624,304 2624,320 2560,320 2560,304 2624,304 " fill="rgb(228,11,11)" stroke="rgb(70,70,70)" stroke-width="10" stroke-linecap="round" />
<polygon points="2560,304 2560,304 2560,256 2624,256 2624,256 2624,304 " fill="rgb(26,243,243)" stroke="rgb(70,70,70)" stroke-width="10" stroke-linecap="round" />
<polygon points="2560,256 2560,256 2560,192 2624,192 2624,256 " fill="rgb(251,251,34)" stroke="rgb(70,70,70)" stroke-width="10" stroke-linecap="round" />
<polygon points="-704,192 -512,192 -512,192 -320,384 -320,384 -512,576 -704,576 -896,384 -896,384 " fill="rgb(251,251,34)" stroke="rgb(70,70,70)" stroke-width="10" stroke-linecap="round" />
<polygon points="-256,320 -320,384 -384,320 -256,320 " fill="rgb(232,15,232)" stroke="rgb(70,70,70)" stroke-width="10" stroke-linecap="round" />
<polygon points="-192,256 -256,320 -320,320 -256,192 -192,192 " fill="rgb(3,3,220)" stroke="rgb(70,70,70)" stroke-width="10" stroke-linecap="round" />
<polygon points="-192,128 -192,128 -512,128 -575,-64 -383,-255 -192,-192 " fill="rgb(251,251,34)" stroke="rgb(70,70,70)" stroke-width="10" stroke-linecap="round" />
<polygon points="-320,128 -192,128 -192,192 -256,192 " fill="rgb(22,239,22)" stroke="rgb(70,70,70)" stroke-width="10" stroke-linecap="round" />
<polygon points="-575,831 -512,640 -192,640 -192,640 -192,960 -384,1023 " fill="rgb(3,3,220)" stroke="rgb(70,70,70)" stroke-width="10" stroke-linecap="round" />
<polygon points="-192,512 -192,640 -320,640 -192,512 " fill="rgb(251,251,34)" stroke="rgb(70,70,70)" stroke-width="10" stroke-linecap="round" />
<polygon points="-256,576 -256,576 -341,405 -192,256 -192,512 " fill="rgb(3,3,220)" stroke="rgb(70,70,70)" stroke-width="10" stroke-linecap="round" />
<polygon points="-384,448 -341,405 -319,448 " fill="rgb(22,239,22)" stroke="rgb(70,70,70)" stroke-width="10" stroke-linecap="round" />
<polygon points="-192,768 -192,0 192,384 192,384 -192,768 " fill="rgb(26,243,243)" stroke="rgb(70,70,70)" stroke-width="10" stroke-linecap="round" />
<polygon points="-128,64 64,-32 64,-32 256,64 256,64 256,320 192,384 " fill="rgb(232,15,232)" stroke="rgb(70,70,70)" stroke-width="10" stroke-linecap="round" />
<polygon points="0,-64 64,-32 0,0 " fill="rgb(228,11,11)" stroke="rgb(70,70,70)" stroke-width="10" stroke-linecap="round" />
<polygon points="-128,-384 64,-576 64,-576 256,-384 256,-192 256,-192 85,-21 85,-21 0,-63 -128,-191 " fill="rgb(232,15,232)" stroke="rgb(70,70,70)" stroke-width="10" stroke-linecap="round" />
<polygon points="128,0 85,-21 128,-64 " fill="rgb(228,11,11)" stroke="rgb(70,70,70)" stroke-width="10" stroke-linecap="round" />
<polygon points="256,704 0,832 0,832 0,576 0,576 256,320 " fill="rgb(228,11,11)" stroke="rgb(70,70,70)" stroke-width="10" stroke-linecap="round" />
<polygon points="-128,704 0,576 0,768 " fill="rgb(26,243,243)" stroke="rgb(70,70,70)" stroke-width="10" stroke-linecap="round" />
<polygon points="-128,1152 -128,960 1,830 85,789 256,960 256,960 256,1152 64,1344 64,1344 " fill="rgb(251,251,34)" stroke="rgb(70,70,70)" stroke-width="10" stroke-linecap="round" />
<polygon points="128,767 128,832 85,789 " fill="rgb(22,239,22)" stroke="rgb(70,70,70)" stroke-width="10" stroke-linecap="round" />
<polygon points="856,320 856,320 856,448 856,448 256,448 256,448 256,448 256,320 856,320 " fill="rgb(232,15,232)" stroke="rgb(70,70,70)" stroke-width="10" stroke-linecap="round" />
<polygon points="1024,320 1024,448 872,448 872,448 872,320 872,320 1024,320 " fill="rgb(22,239,22)" stroke="rgb(70,70,70)" stroke-width="10" stroke-linecap="round" />
<polygon points="856,320 872,320 872,320 872,448 872,448 856,448 856,448 856,320 " fill="rgb(228,11,11)" stroke="rgb(70,70,70)" stroke-width="10" stroke-linecap="round" />
<polygon points="320,128 320,128 320,-192 512,-255 703,-63 640,128 " fill="rgb(3,3,220)" stroke="rgb(70,70,70)" stroke-width="10" stroke-linecap="round" />
<polygon points="320,0 320,128 256,128 256,64 " fill="rgb(26,243,243)" stroke="rgb(70,70,70)" stroke-width="10" stroke-linecap="round" />
<polygon points="640,192 768,192 832,320 832,320 576,320 " fill="rgb(22,239,22)" stroke="rgb(70,70,70)" stroke-width="10" stroke-linecap="round" />
<polygon points="1024,128 1024,128 1024,320 896,320 896,128 " fill="rgb(251,251,34)" stroke="rgb(70,70,70)" stroke-width="10" stroke-linecap="round" />
<polygon points="256,320 256,320 256,320 256,128 448,128 " fill="rgb(3,3,220)" stroke="rgb(70,70,70)" stroke-width="10" stroke-linecap="round" />
<polygon points="512,320 256,320 256,320 384,192 " fill="rgb(3,3,220)" stroke="rgb(70,70,70)" stroke-width="10" stroke-linecap="round" />
<polygon points="511,1023 320,960 320,640 320,640 640,640 703,832 " fill="rgb(3,3,220)" stroke="rgb(70,70,70)" stroke-width="10" stroke-linecap="round" />
<polygon points="256,704 256,640 320,640 320,768 " fill="rgb(3,3,220)" stroke="rgb(70,70,70)" stroke-width="10" stroke-linecap="round" />
<polygon points="768,576 640,576 576,448 576,448 832,448 " fill="rgb(228,11,11)" stroke="rgb(70,70,70)" stroke-width="10" stroke-linecap="round" />
<polygon points="320,640 256,640 256,448 512,448 320,640 " fill="rgb(232,15,232)" stroke="rgb(70,70,70)" stroke-width="10" stroke-linecap="round" />
<polygon points="384,576 448,640 320,640 " fill="rgb(251,251,34)" stroke="rgb(70,70,70)" stroke-width="10" stroke-linecap="round" />
<polygon points="1024,448 1024,640 1024,640 896,640 896,448 " fill="rgb(232,15,232)" stroke="rgb(70,70,70)" stroke-width="10" stroke-linecap="round" />

</svg>

