<svg width="900" height="482" preserveAspectRatio="none" viewBox="-1026 -706 3844 2180"
 xmlns="http://www.w3.org/2000/svg" xmlns:xlink="http://www.w3.org/1999/xlink">
   <defs>
    <marker id="arrow" markerWidth="10" markerHeight="10" refX="0" refY="2" orient="auto" markerUnits="strokeWidth">
      <path d="M0,0 L0,4 L5,3 z" fill="#f00" />
    </marker>
  </defs>

<line x1="576" y1="448" x2="512" y2="448" stroke-width="7" stroke="black" marker-end="url(#arrow)" />
    <circle cx="576" cy="448" r="10"/>    <circle cx="512" cy="448" r="10"/>
<line x1="512" y1="448" x2="384" y2="576" stroke-width="7" stroke="black" marker-end="url(#arrow)" />
    <circle cx="512" cy="448" r="10"/>    <circle cx="384" cy="576" r="10"/>
<line x1="384" y1="576" x2="448" y2="640" stroke-width="7" stroke="black" marker-end="url(#arrow)" />
    <circle cx="384" cy="576" r="10"/>    <circle cx="448" cy="640" r="10"/>
<line x1="448" y1="640" x2="640" y2="640" stroke-width="7" stroke="black" marker-end="url(#arrow)" />
    <circle cx="448" cy="640" r="10"/>    <circle cx="640" cy="640" r="10"/>
<line x1="640" y1="640" x2="704" y2="832" stroke-width="7" stroke="black" marker-end="url(#arrow)" />
    <circle cx="640" cy="640" r="10"/>    <circle cx="704" cy="832" r="10"/>
<line x1="704" y1="832" x2="512" y2="1024" stroke-width="7" stroke="black" marker-end="url(#arrow)" />
    <circle cx="704" cy="832" r="10"/>    <circle cx="512" cy="1024" r="10"/>
<line x1="512" y1="1024" x2="320" y2="960" stroke-width="7" stroke="black" marker-end="url(#arrow)" />
    <circle cx="512" cy="1024" r="10"/>    <circle cx="320" cy="960" r="10"/>
<line x1="320" y1="960" x2="320" y2="768" stroke-width="7" stroke="black" marker-end="url(#arrow)" />
    <circle cx="320" cy="960" r="10"/>    <circle cx="320" cy="768" r="10"/>
<line x1="320" y1="768" x2="256" y2="704" stroke-width="7" stroke="black" marker-end="url(#arrow)" />
    <circle cx="320" cy="768" r="10"/>    <circle cx="256" cy="704" r="10"/>
<line x1="256" y1="704" x2="128" y2="768" stroke-width="7" stroke="black" marker-end="url(#arrow)" />
    <circle cx="256" cy="704" r="10"/>    <circle cx="128" cy="768" r="10"/>
<line x1="128" y1="768" x2="128" y2="832" stroke-width="7" stroke="black" marker-end="url(#arrow)" />
    <circle cx="128" cy="768" r="10"/>    <circle cx="128" cy="832" r="10"/>
<line x1="128" y1="832" x2="256" y2="960" stroke-width="7" stroke="black" marker-end="url(#arrow)" />
    <circle cx="128" cy="832" r="10"/>    <circle cx="256" cy="960" r="10"/>
<line x1="256" y1="960" x2="256" y2="1152" stroke-width="7" stroke="black" marker-end="url(#arrow)" />
    <circle cx="256" cy="960" r="10"/>    <circle cx="256" cy="1152" r="10"/>
<line x1="256" y1="1152" x2="64" y2="1344" stroke-width="7" stroke="black" marker-end="url(#arrow)" />
    <circle cx="256" cy="1152" r="10"/>    <circle cx="64" cy="1344" r="10"/>
<line x1="64" y1="1344" x2="-128" y2="1152" stroke-width="7" stroke="black" marker-end="url(#arrow)" />
    <circle cx="64" cy="1344" r="10"/>    <circle cx="-128" cy="1152" r="10"/>
<line x1="-128" y1="1152" x2="-128" y2="960" stroke-width="7" stroke="black" marker-end="url(#arrow)" />
    <circle cx="-128" cy="1152" r="10"/>    <circle cx="-128" cy="960" r="10"/>
<line x1="-128" y1="960" x2="0" y2="832" stroke-width="7" stroke="black" marker-end="url(#arrow)" />
    <circle cx="-128" cy="960" r="10"/>    <circle cx="0" cy="832" r="10"/>
<line x1="0" y1="832" x2="0" y2="768" stroke-width="7" stroke="black" marker-end="url(#arrow)" />
    <circle cx="0" cy="832" r="10"/>    <circle cx="0" cy="768" r="10"/>
<line x1="0" y1="768" x2="-128" y2="704" stroke-width="7" stroke="black" marker-end="url(#arrow)" />
    <circle cx="0" cy="768" r="10"/>    <circle cx="-128" cy="704" r="10"/>
<line x1="-128" y1="704" x2="-192" y2="768" stroke-width="7" stroke="black" marker-end="url(#arrow)" />
    <circle cx="-128" cy="704" r="10"/>    <circle cx="-192" cy="768" r="10"/>
<line x1="-192" y1="768" x2="-192" y2="960" stroke-width="7" stroke="black" marker-end="url(#arrow)" />
    <circle cx="-192" cy="768" r="10"/>    <circle cx="-192" cy="960" r="10"/>
<line x1="-192" y1="960" x2="-384" y2="1024" stroke-width="7" stroke="black" marker-end="url(#arrow)" />
    <circle cx="-192" cy="960" r="10"/>    <circle cx="-384" cy="1024" r="10"/>
<line x1="-384" y1="1024" x2="-576" y2="832" stroke-width="7" stroke="black" marker-end="url(#arrow)" />
    <circle cx="-384" cy="1024" r="10"/>    <circle cx="-576" cy="832" r="10"/>
<line x1="-576" y1="832" x2="-512" y2="640" stroke-width="7" stroke="black" marker-end="url(#arrow)" />
    <circle cx="-576" cy="832" r="10"/>    <circle cx="-512" cy="640" r="10"/>
<line x1="-512" y1="640" x2="-320" y2="640" stroke-width="7" stroke="black" marker-end="url(#arrow)" />
    <circle cx="-512" cy="640" r="10"/>    <circle cx="-320" cy="640" r="10"/>
<line x1="-320" y1="640" x2="-256" y2="576" stroke-width="7" stroke="black" marker-end="url(#arrow)" />
    <circle cx="-320" cy="640" r="10"/>    <circle cx="-256" cy="576" r="10"/>
<line x1="-256" y1="576" x2="-320" y2="448" stroke-width="7" stroke="black" marker-end="url(#arrow)" />
    <circle cx="-256" cy="576" r="10"/>    <circle cx="-320" cy="448" r="10"/>
<line x1="-320" y1="448" x2="-384" y2="448" stroke-width="7" stroke="black" marker-end="url(#arrow)" />
    <circle cx="-320" cy="448" r="10"/>    <circle cx="-384" cy="448" r="10"/>
<line x1="-384" y1="448" x2="-512" y2="576" stroke-width="7" stroke="black" marker-end="url(#arrow)" />
    <circle cx="-384" cy="448" r="10"/>    <circle cx="-512" cy="576" r="10"/>
<line x1="-512" y1="576" x2="-704" y2="576" stroke-width="7" stroke="black" marker-end="url(#arrow)" />
    <circle cx="-512" cy="576" r="10"/>    <circle cx="-704" cy="576" r="10"/>
<line x1="-704" y1="576" x2="-896" y2="384" stroke-width="7" stroke="black" marker-end="url(#arrow)" />
    <circle cx="-704" cy="576" r="10"/>    <circle cx="-896" cy="384" r="10"/>
<line x1="-896" y1="384" x2="-704" y2="192" stroke-width="7" stroke="black" marker-end="url(#arrow)" />
    <circle cx="-896" cy="384" r="10"/>    <circle cx="-704" cy="192" r="10"/>
<line x1="-704" y1="192" x2="-512" y2="192" stroke-width="7" stroke="black" marker-end="url(#arrow)" />
    <circle cx="-704" cy="192" r="10"/>    <circle cx="-512" cy="192" r="10"/>
<line x1="-512" y1="192" x2="-384" y2="320" stroke-width="7" stroke="black" marker-end="url(#arrow)" />
    <circle cx="-512" cy="192" r="10"/>    <circle cx="-384" cy="320" r="10"/>
<line x1="-384" y1="320" x2="-320" y2="320" stroke-width="7" stroke="black" marker-end="url(#arrow)" />
    <circle cx="-384" cy="320" r="10"/>    <circle cx="-320" cy="320" r="10"/>
<line x1="-320" y1="320" x2="-256" y2="192" stroke-width="7" stroke="black" marker-end="url(#arrow)" />
    <circle cx="-320" cy="320" r="10"/>    <circle cx="-256" cy="192" r="10"/>
<line x1="-256" y1="192" x2="-320" y2="128" stroke-width="7" stroke="black" marker-end="url(#arrow)" />
    <circle cx="-256" cy="192" r="10"/>    <circle cx="-320" cy="128" r="10"/>
<line x1="-320" y1="128" x2="-512" y2="128" stroke-width="7" stroke="black" marker-end="url(#arrow)" />
    <circle cx="-320" cy="128" r="10"/>    <circle cx="-512" cy="128" r="10"/>
<line x1="-512" y1="128" x2="-576" y2="-64" stroke-width="7" stroke="black" marker-end="url(#arrow)" />
    <circle cx="-512" cy="128" r="10"/>    <circle cx="-576" cy="-64" r="10"/>
<line x1="-576" y1="-64" x2="-384" y2="-256" stroke-width="7" stroke="black" marker-end="url(#arrow)" />
    <circle cx="-576" cy="-64" r="10"/>    <circle cx="-384" cy="-256" r="10"/>
<line x1="-384" y1="-256" x2="-192" y2="-192" stroke-width="7" stroke="black" marker-end="url(#arrow)" />
    <circle cx="-384" cy="-256" r="10"/>    <circle cx="-192" cy="-192" r="10"/>
<line x1="-192" y1="-192" x2="-192" y2="0" stroke-width="7" stroke="black" marker-end="url(#arrow)" />
    <circle cx="-192" cy="-192" r="10"/>    <circle cx="-192" cy="0" r="10"/>
<line x1="-192" y1="0" x2="-128" y2="64" stroke-width="7" stroke="black" marker-end="url(#arrow)" />
    <circle cx="-192" cy="0" r="10"/>    <circle cx="-128" cy="64" r="10"/>
<line x1="-128" y1="64" x2="0" y2="0" stroke-width="7" stroke="black" marker-end="url(#arrow)" />
    <circle cx="-128" cy="64" r="10"/>    <circle cx="0" cy="0" r="10"/>
<line x1="0" y1="0" x2="0" y2="-64" stroke-width="7" stroke="black" marker-end="url(#arrow)" />
    <circle cx="0" cy="0" r="10"/>    <circle cx="0" cy="-64" r="10"/>
<line x1="0" y1="-64" x2="-128" y2="-192" stroke-width="7" stroke="black" marker-end="url(#arrow)" />
    <circle cx="0" cy="-64" r="10"/>    <circle cx="-128" cy="-192" r="10"/>
<line x1="-128" y1="-192" x2="-128" y2="-384" stroke-width="7" stroke="black" marker-end="url(#arrow)" />
    <circle cx="-128" cy="-192" r="10"/>    <circle cx="-128" cy="-384" r="10"/>
<line x1="-128" y1="-384" x2="64" y2="-576" stroke-width="7" stroke="black" marker-end="url(#arrow)" />
    <circle cx="-128" cy="-384" r="10"/>    <circle cx="64" cy="-576" r="10"/>
<line x1="64" y1="-576" x2="256" y2="-384" stroke-width="7" stroke="black" marker-end="url(#arrow)" />
    <circle cx="64" cy="-576" r="10"/>    <circle cx="256" cy="-384" r="10"/>
<line x1="256" y1="-384" x2="256" y2="-192" stroke-width="7" stroke="black" marker-end="url(#arrow)" />
    <circle cx="256" cy="-384" r="10"/>    <circle cx="256" cy="-192" r="10"/>
<line x1="256" y1="-192" x2="128" y2="-64" stroke-width="7" stroke="black" marker-end="url(#arrow)" />
    <circle cx="256" cy="-192" r="10"/>    <circle cx="128" cy="-64" r="10"/>
<line x1="128" y1="-64" x2="128" y2="0" stroke-width="7" stroke="black" marker-end="url(#arrow)" />
    <circle cx="128" cy="-64" r="10"/>    <circle cx="128" cy="0" r="10"/>
<line x1="128" y1="0" x2="256" y2="64" stroke-width="7" stroke="black" marker-end="url(#arrow)" />
    <circle cx="128" cy="0" r="10"/>    <circle cx="256" cy="64" r="10"/>
<line x1="256" y1="64" x2="320" y2="0" stroke-width="7" stroke="black" marker-end="url(#arrow)" />
    <circle cx="256" cy="64" r="10"/>    <circle cx="320" cy="0" r="10"/>
<line x1="320" y1="0" x2="320" y2="-192" stroke-width="7" stroke="black" marker-end="url(#arrow)" />
    <circle cx="320" cy="0" r="10"/>    <circle cx="320" cy="-192" r="10"/>
<line x1="320" y1="-192" x2="512" y2="-256" stroke-width="7" stroke="black" marker-end="url(#arrow)" />
    <circle cx="320" cy="-192" r="10"/>    <circle cx="512" cy="-256" r="10"/>
<line x1="512" y1="-256" x2="704" y2="-64" stroke-width="7" stroke="black" marker-end="url(#arrow)" />
    <circle cx="512" cy="-256" r="10"/>    <circle cx="704" cy="-64" r="10"/>
<line x1="704" y1="-64" x2="640" y2="128" stroke-width="7" stroke="black" marker-end="url(#arrow)" />
    <circle cx="704" cy="-64" r="10"/>    <circle cx="640" cy="128" r="10"/>
<line x1="640" y1="128" x2="448" y2="128" stroke-width="7" stroke="black" marker-end="url(#arrow)" />
    <circle cx="640" cy="128" r="10"/>    <circle cx="448" cy="128" r="10"/>
<line x1="448" y1="128" x2="384" y2="192" stroke-width="7" stroke="black" marker-end="url(#arrow)" />
    <circle cx="448" cy="128" r="10"/>    <circle cx="384" cy="192" r="10"/>
<line x1="384" y1="192" x2="512" y2="320" stroke-width="7" stroke="black" marker-end="url(#arrow)" />
    <circle cx="384" cy="192" r="10"/>    <circle cx="512" cy="320" r="10"/>
<line x1="512" y1="320" x2="576" y2="320" stroke-width="7" stroke="black" marker-end="url(#arrow)" />
    <circle cx="512" cy="320" r="10"/>    <circle cx="576" cy="320" r="10"/>
<line x1="576" y1="320" x2="640" y2="192" stroke-width="7" stroke="black" marker-end="url(#arrow)" />
    <circle cx="576" cy="320" r="10"/>    <circle cx="640" cy="192" r="10"/>
<line x1="640" y1="192" x2="768" y2="192" stroke-width="7" stroke="black" marker-end="url(#arrow)" />
    <circle cx="640" cy="192" r="10"/>    <circle cx="768" cy="192" r="10"/>
<line x1="768" y1="192" x2="832" y2="320" stroke-width="7" stroke="black" marker-end="url(#arrow)" />
    <circle cx="768" cy="192" r="10"/>    <circle cx="832" cy="320" r="10"/>
<line x1="832" y1="448" x2="768" y2="576" stroke-width="7" stroke="black" marker-end="url(#arrow)" />
    <circle cx="832" cy="448" r="10"/>    <circle cx="768" cy="576" r="10"/>
<line x1="768" y1="576" x2="640" y2="576" stroke-width="7" stroke="black" marker-end="url(#arrow)" />
    <circle cx="768" cy="576" r="10"/>    <circle cx="640" cy="576" r="10"/>
<line x1="640" y1="576" x2="576" y2="448" stroke-width="7" stroke="black" marker-end="url(#arrow)" />
    <circle cx="640" cy="576" r="10"/>    <circle cx="576" cy="448" r="10"/>
<line x1="832" y1="320" x2="856" y2="320" stroke-width="7" stroke="black" marker-end="url(#arrow)" />
    <circle cx="832" cy="320" r="10"/>    <circle cx="856" cy="320" r="10"/>
<line x1="856" y1="320" x2="872" y2="320" stroke-width="7" stroke="black" marker-end="url(#arrow)" />
    <circle cx="856" cy="320" r="10"/>    <circle cx="872" cy="320" r="10"/>
<line x1="872" y1="320" x2="896" y2="320" stroke-width="7" stroke="black" marker-end="url(#arrow)" />
    <circle cx="872" cy="320" r="10"/>    <circle cx="896" cy="320" r="10"/>
<line x1="896" y1="320" x2="896" y2="128" stroke-width="7" stroke="black" marker-end="url(#arrow)" />
    <circle cx="896" cy="320" r="10"/>    <circle cx="896" cy="128" r="10"/>
<line x1="896" y1="128" x2="1408" y2="128" stroke-width="7" stroke="black" marker-end="url(#arrow)" />
    <circle cx="896" cy="128" r="10"/>    <circle cx="1408" cy="128" r="10"/>
<line x1="1408" y1="128" x2="1408" y2="-384" stroke-width="7" stroke="black" marker-end="url(#arrow)" />
    <circle cx="1408" cy="128" r="10"/>    <circle cx="1408" cy="-384" r="10"/>
<line x1="1696" y1="-384" x2="1920" y2="-384" stroke-width="7" stroke="black" marker-end="url(#arrow)" />
    <circle cx="1696" cy="-384" r="10"/>    <circle cx="1920" cy="-384" r="10"/>
<line x1="1920" y1="-384" x2="1920" y2="128" stroke-width="7" stroke="black" marker-end="url(#arrow)" />
    <circle cx="1920" cy="-384" r="10"/>    <circle cx="1920" cy="128" r="10"/>
<line x1="1920" y1="128" x2="2432" y2="128" stroke-width="7" stroke="black" marker-end="url(#arrow)" />
    <circle cx="1920" cy="128" r="10"/>    <circle cx="2432" cy="128" r="10"/>
<line x1="2432" y1="640" x2="1920" y2="640" stroke-width="7" stroke="black" marker-end="url(#arrow)" />
    <circle cx="2432" cy="640" r="10"/>    <circle cx="1920" cy="640" r="10"/>
<line x1="1920" y1="640" x2="1920" y2="1152" stroke-width="7" stroke="black" marker-end="url(#arrow)" />
    <circle cx="1920" cy="640" r="10"/>    <circle cx="1920" cy="1152" r="10"/>
<line x1="1920" y1="1152" x2="1696" y2="1152" stroke-width="7" stroke="black" marker-end="url(#arrow)" />
    <circle cx="1920" cy="1152" r="10"/>    <circle cx="1696" cy="1152" r="10"/>
<line x1="1408" y1="1152" x2="1408" y2="640" stroke-width="7" stroke="black" marker-end="url(#arrow)" />
    <circle cx="1408" cy="1152" r="10"/>    <circle cx="1408" cy="640" r="10"/>
<line x1="1408" y1="640" x2="896" y2="640" stroke-width="7" stroke="black" marker-end="url(#arrow)" />
    <circle cx="1408" cy="640" r="10"/>    <circle cx="896" cy="640" r="10"/>
<line x1="896" y1="640" x2="896" y2="448" stroke-width="7" stroke="black" marker-end="url(#arrow)" />
    <circle cx="896" cy="640" r="10"/>    <circle cx="896" cy="448" r="10"/>
<line x1="896" y1="448" x2="872" y2="448" stroke-width="7" stroke="black" marker-end="url(#arrow)" />
    <circle cx="896" cy="448" r="10"/>    <circle cx="872" cy="448" r="10"/>
<line x1="872" y1="448" x2="856" y2="448" stroke-width="7" stroke="black" marker-end="url(#arrow)" />
    <circle cx="872" cy="448" r="10"/>    <circle cx="856" cy="448" r="10"/>
<line x1="856" y1="448" x2="832" y2="448" stroke-width="7" stroke="black" marker-end="url(#arrow)" />
    <circle cx="856" cy="448" r="10"/>    <circle cx="832" cy="448" r="10"/>
<line x1="856" y1="320" x2="856" y2="448" stroke-width="7" stroke="black" marker-end="url(#arrow)" />
    <circle cx="856" cy="320" r="10"/>    <circle cx="856" cy="448" r="10"/>
<line x1="872" y1="448" x2="872" y2="320" stroke-width="7" stroke="black" marker-end="url(#arrow)" />
    <circle cx="872" cy="448" r="10"/>    <circle cx="872" cy="320" r="10"/>
<line x1="1728" y1="448" x2="1600" y2="448" stroke-width="7" stroke="black" marker-end="url(#arrow)" />
    <circle cx="1728" cy="448" r="10"/>    <circle cx="1600" cy="448" r="10"/>
<line x1="1728" y1="320" x2="1728" y2="448" stroke-width="7" stroke="black" marker-end="url(#arrow)" />
    <circle cx="1728" cy="320" r="10"/>    <circle cx="1728" cy="448" r="10"/>
<line x1="1600" y1="320" x2="1728" y2="320" stroke-width="7" stroke="black" marker-end="url(#arrow)" />
    <circle cx="1600" cy="320" r="10"/>    <circle cx="1728" cy="320" r="10"/>
<line x1="1600" y1="448" x2="1600" y2="320" stroke-width="7" stroke="black" marker-end="url(#arrow)" />
    <circle cx="1600" cy="448" r="10"/>    <circle cx="1600" cy="320" r="10"/>
<line x1="2432" y1="128" x2="2432" y2="256" stroke-width="7" stroke="black" marker-end="url(#arrow)" />
    <circle cx="2432" cy="128" r="10"/>    <circle cx="2432" cy="256" r="10"/>
<line x1="2432" y1="256" x2="2432" y2="320" stroke-width="7" stroke="black" marker-end="url(#arrow)" />
    <circle cx="2432" cy="256" r="10"/>    <circle cx="2432" cy="320" r="10"/>
<line x1="2432" y1="448" x2="2432" y2="512" stroke-width="7" stroke="black" marker-end="url(#arrow)" />
    <circle cx="2432" cy="448" r="10"/>    <circle cx="2432" cy="512" r="10"/>
<line x1="2432" y1="512" x2="2432" y2="640" stroke-width="7" stroke="black" marker-end="url(#arrow)" />
    <circle cx="2432" cy="512" r="10"/>    <circle cx="2432" cy="640" r="10"/>
<line x1="2432" y1="320" x2="2448" y2="320" stroke-width="7" stroke="black" marker-end="url(#arrow)" />
    <circle cx="2432" cy="320" r="10"/>    <circle cx="2448" cy="320" r="10"/>
<line x1="2448" y1="320" x2="2496" y2="320" stroke-width="7" stroke="black" marker-end="url(#arrow)" />
    <circle cx="2448" cy="320" r="10"/>    <circle cx="2496" cy="320" r="10"/>
<line x1="2448" y1="448" x2="2432" y2="448" stroke-width="7" stroke="black" marker-end="url(#arrow)" />
    <circle cx="2448" cy="448" r="10"/>    <circle cx="2432" cy="448" r="10"/>
<line x1="2448" y1="464" x2="2448" y2="448" stroke-width="7" stroke="black" marker-end="url(#arrow)" />
    <circle cx="2448" cy="464" r="10"/>    <circle cx="2448" cy="448" r="10"/>
<line x1="2496" y1="464" x2="2448" y2="464" stroke-width="7" stroke="black" marker-end="url(#arrow)" />
    <circle cx="2496" cy="464" r="10"/>    <circle cx="2448" cy="464" r="10"/>
<line x1="2432" y1="320" x2="2432" y2="448" stroke-width="7" stroke="black" marker-end="url(#arrow)" />
    <circle cx="2432" cy="320" r="10"/>    <circle cx="2432" cy="448" r="10"/>
<line x1="2448" y1="448" x2="2448" y2="320" stroke-width="7" stroke="black" marker-end="url(#arrow)" />
    <circle cx="2448" cy="448" r="10"/>    <circle cx="2448" cy="320" r="10"/>
<line x1="2496" y1="320" x2="2544" y2="320" stroke-width="7" stroke="black" marker-end="url(#arrow)" />
    <circle cx="2496" cy="320" r="10"/>    <circle cx="2544" cy="320" r="10"/>
<line x1="2544" y1="320" x2="2560" y2="320" stroke-width="7" stroke="black" marker-end="url(#arrow)" />
    <circle cx="2544" cy="320" r="10"/>    <circle cx="2560" cy="320" r="10"/>
<line x1="2496" y1="448" x2="2496" y2="464" stroke-width="7" stroke="black" marker-end="url(#arrow)" />
    <circle cx="2496" cy="448" r="10"/>    <circle cx="2496" cy="464" r="10"/>
<line x1="1408" y1="-384" x2="1632" y2="-384" stroke-width="7" stroke="black" marker-end="url(#arrow)" />
    <circle cx="1408" cy="-384" r="10"/>    <circle cx="1632" cy="-384" r="10"/>
<line x1="1632" y1="-384" x2="1632" y2="-448" stroke-width="7" stroke="black" marker-end="url(#arrow)" />
    <circle cx="1632" cy="-384" r="10"/>    <circle cx="1632" cy="-448" r="10"/>
<line x1="1632" y1="-448" x2="1696" y2="-448" stroke-width="7" stroke="black" marker-end="url(#arrow)" />
    <circle cx="1632" cy="-448" r="10"/>    <circle cx="1696" cy="-448" r="10"/>
<line x1="1696" y1="-448" x2="1696" y2="-384" stroke-width="7" stroke="black" marker-end="url(#arrow)" />
    <circle cx="1696" cy="-448" r="10"/>    <circle cx="1696" cy="-384" r="10"/>
<line x1="1632" y1="-384" x2="1696" y2="-384" stroke-width="7" stroke="black" marker-end="url(#arrow)" />
    <circle cx="1632" cy="-384" r="10"/>    <circle cx="1696" cy="-384" r="10"/>
<line x1="1632" y1="1152" x2="1408" y2="1152" stroke-width="7" stroke="black" marker-end="url(#arrow)" />
    <circle cx="1632" cy="1152" r="10"/>    <circle cx="1408" cy="1152" r="10"/>
<line x1="1632" y1="1216" x2="1632" y2="1152" stroke-width="7" stroke="black" marker-end="url(#arrow)" />
    <circle cx="1632" cy="1216" r="10"/>    <circle cx="1632" cy="1152" r="10"/>
<line x1="1696" y1="1216" x2="1632" y2="1216" stroke-width="7" stroke="black" marker-end="url(#arrow)" />
    <circle cx="1696" cy="1216" r="10"/>    <circle cx="1632" cy="1216" r="10"/>
<line x1="1696" y1="1152" x2="1696" y2="1216" stroke-width="7" stroke="black" marker-end="url(#arrow)" />
    <circle cx="1696" cy="1152" r="10"/>    <circle cx="1696" cy="1216" r="10"/>
<line x1="1696" y1="1152" x2="1632" y2="1152" stroke-width="7" stroke="black" marker-end="url(#arrow)" />
    <circle cx="1696" cy="1152" r="10"/>    <circle cx="1632" cy="1152" r="10"/>
<line x1="2496" y1="320" x2="2496" y2="312" stroke-width="7" stroke="black" marker-end="url(#arrow)" />
    <circle cx="2496" cy="320" r="10"/>    <circle cx="2496" cy="312" r="10"/>
<line x1="2544" y1="312" x2="2544" y2="320" stroke-width="7" stroke="black" marker-end="url(#arrow)" />
    <circle cx="2544" cy="312" r="10"/>    <circle cx="2544" cy="320" r="10"/>
<line x1="2496" y1="464" x2="2496" y2="472" stroke-width="7" stroke="black" marker-end="url(#arrow)" />
    <circle cx="2496" cy="464" r="10"/>    <circle cx="2496" cy="472" r="10"/>
<line x1="2448" y1="472" x2="2448" y2="464" stroke-width="7" stroke="black" marker-end="url(#arrow)" />
    <circle cx="2448" cy="472" r="10"/>    <circle cx="2448" cy="464" r="10"/>
<line x1="2448" y1="472" x2="2496" y2="472" stroke-width="7" stroke="black" marker-end="url(#arrow)" />
    <circle cx="2448" cy="472" r="10"/>    <circle cx="2496" cy="472" r="10"/>
<line x1="2496" y1="312" x2="2544" y2="312" stroke-width="7" stroke="black" marker-end="url(#arrow)" />
    <circle cx="2496" cy="312" r="10"/>    <circle cx="2544" cy="312" r="10"/>
<line x1="2496" y1="472" x2="2496" y2="480" stroke-width="7" stroke="black" marker-end="url(#arrow)" />
    <circle cx="2496" cy="472" r="10"/>    <circle cx="2496" cy="480" r="10"/>
<line x1="2496" y1="480" x2="2448" y2="480" stroke-width="7" stroke="black" marker-end="url(#arrow)" />
    <circle cx="2496" cy="480" r="10"/>    <circle cx="2448" cy="480" r="10"/>
<line x1="2448" y1="480" x2="2448" y2="472" stroke-width="7" stroke="black" marker-end="url(#arrow)" />
    <circle cx="2448" cy="480" r="10"/>    <circle cx="2448" cy="472" r="10"/>
<line x1="2560" y1="320" x2="2560" y2="304" stroke-width="7" stroke="black" marker-end="url(#arrow)" />
    <circle cx="2560" cy="320" r="10"/>    <circle cx="2560" cy="304" r="10"/>
<line x1="2560" y1="304" x2="2560" y2="256" stroke-width="7" stroke="black" marker-end="url(#arrow)" />
    <circle cx="2560" cy="304" r="10"/>    <circle cx="2560" cy="256" r="10"/>
<line x1="2560" y1="192" x2="2624" y2="192" stroke-width="7" stroke="black" marker-end="url(#arrow)" />
    <circle cx="2560" cy="192" r="10"/>    <circle cx="2624" cy="192" r="10"/>
<line x1="2624" y1="256" x2="2624" y2="304" stroke-width="7" stroke="black" marker-end="url(#arrow)" />
    <circle cx="2624" cy="256" r="10"/>    <circle cx="2624" cy="304" r="10"/>
<line x1="2624" y1="304" x2="2624" y2="320" stroke-width="7" stroke="black" marker-end="url(#arrow)" />
    <circle cx="2624" cy="304" r="10"/>    <circle cx="2624" cy="320" r="10"/>
<line x1="2624" y1="448" x2="2496" y2="448" stroke-width="7" stroke="black" marker-end="url(#arrow)" />
    <circle cx="2624" cy="448" r="10"/>    <circle cx="2496" cy="448" r="10"/>
<line x1="2640" y1="448" x2="2624" y2="448" stroke-width="7" stroke="black" marker-end="url(#arrow)" />
    <circle cx="2640" cy="448" r="10"/>    <circle cx="2624" cy="448" r="10"/>
<line x1="2640" y1="400" x2="2640" y2="448" stroke-width="7" stroke="black" marker-end="url(#arrow)" />
    <circle cx="2640" cy="400" r="10"/>    <circle cx="2640" cy="448" r="10"/>
<line x1="2624" y1="400" x2="2640" y2="400" stroke-width="7" stroke="black" marker-end="url(#arrow)" />
    <circle cx="2624" cy="400" r="10"/>    <circle cx="2640" cy="400" r="10"/>
<line x1="2624" y1="320" x2="2624" y2="400" stroke-width="7" stroke="black" marker-end="url(#arrow)" />
    <circle cx="2624" cy="320" r="10"/>    <circle cx="2624" cy="400" r="10"/>
<line x1="2624" y1="192" x2="2624" y2="256" stroke-width="7" stroke="black" marker-end="url(#arrow)" />
    <circle cx="2624" cy="192" r="10"/>    <circle cx="2624" cy="256" r="10"/>
<line x1="2560" y1="256" x2="2560" y2="192" stroke-width="7" stroke="black" marker-end="url(#arrow)" />
    <circle cx="2560" cy="256" r="10"/>    <circle cx="2560" cy="192" r="10"/>
<line x1="2560" y1="304" x2="2624" y2="304" stroke-width="7" stroke="black" marker-end="url(#arrow)" />
    <circle cx="2560" cy="304" r="10"/>    <circle cx="2624" cy="304" r="10"/>
<line x1="2640" y1="400" x2="2648" y2="400" stroke-width="7" stroke="black" marker-end="url(#arrow)" />
    <circle cx="2640" cy="400" r="10"/>    <circle cx="2648" cy="400" r="10"/>
<line x1="2648" y1="400" x2="2656" y2="400" stroke-width="7" stroke="black" marker-end="url(#arrow)" />
    <circle cx="2648" cy="400" r="10"/>    <circle cx="2656" cy="400" r="10"/>
<line x1="2656" y1="400" x2="2656" y2="448" stroke-width="7" stroke="black" marker-end="url(#arrow)" />
    <circle cx="2656" cy="400" r="10"/>    <circle cx="2656" cy="448" r="10"/>
<line x1="2656" y1="448" x2="2648" y2="448" stroke-width="7" stroke="black" marker-end="url(#arrow)" />
    <circle cx="2656" cy="448" r="10"/>    <circle cx="2648" cy="448" r="10"/>
<line x1="2648" y1="448" x2="2640" y2="448" stroke-width="7" stroke="black" marker-end="url(#arrow)" />
    <circle cx="2648" cy="448" r="10"/>    <circle cx="2640" cy="448" r="10"/>
<line x1="2648" y1="448" x2="2648" y2="400" stroke-width="7" stroke="black" marker-end="url(#arrow)" />
    <circle cx="2648" cy="448" r="10"/>    <circle cx="2648" cy="400" r="10"/>
<line x1="2560" y1="256" x2="2624" y2="256" stroke-width="7" stroke="black" marker-end="url(#arrow)" />
    <circle cx="2560" cy="256" r="10"/>    <circle cx="2624" cy="256" r="10"/>
<line x1="1728" y1="512" x2="1024" y2="512" stroke-width="7" stroke="black" marker-end="url(#arrow)" />
    <circle cx="1728" cy="512" r="10"/>    <circle cx="1024" cy="512" r="10"/>
<line x1="2304" y1="320" x2="1792" y2="320" stroke-width="7" stroke="black" marker-end="url(#arrow)" />
    <circle cx="2304" cy="320" r="10"/>    <circle cx="1792" cy="320" r="10"/>
<line x1="2304" y1="256" x2="2304" y2="320" stroke-width="7" stroke="black" marker-end="url(#arrow)" />
    <circle cx="2304" cy="256" r="10"/>    <circle cx="2304" cy="320" r="10"/>
<line x1="1600" y1="256" x2="2304" y2="256" stroke-width="7" stroke="black" marker-end="url(#arrow)" />
    <circle cx="1600" cy="256" r="10"/>    <circle cx="2304" cy="256" r="10"/>
<line x1="1728" y1="1024" x2="1728" y2="512" stroke-width="7" stroke="black" marker-end="url(#arrow)" />
    <circle cx="1728" cy="1024" r="10"/>    <circle cx="1728" cy="512" r="10"/>
<line x1="1792" y1="1024" x2="1728" y2="1024" stroke-width="7" stroke="black" marker-end="url(#arrow)" />
    <circle cx="1792" cy="1024" r="10"/>    <circle cx="1728" cy="1024" r="10"/>
<line x1="1792" y1="320" x2="1792" y2="1024" stroke-width="7" stroke="black" marker-end="url(#arrow)" />
    <circle cx="1792" cy="320" r="10"/>    <circle cx="1792" cy="1024" r="10"/>
<line x1="1536" y1="448" x2="1536" y2="-256" stroke-width="7" stroke="black" marker-end="url(#arrow)" />
    <circle cx="1536" cy="448" r="10"/>    <circle cx="1536" cy="-256" r="10"/>
<line x1="1536" y1="-256" x2="1600" y2="-256" stroke-width="7" stroke="black" marker-end="url(#arrow)" />
    <circle cx="1536" cy="-256" r="10"/>    <circle cx="1600" cy="-256" r="10"/>
<line x1="1600" y1="-256" x2="1600" y2="256" stroke-width="7" stroke="black" marker-end="url(#arrow)" />
    <circle cx="1600" cy="-256" r="10"/>    <circle cx="1600" cy="256" r="10"/>
<line x1="1024" y1="512" x2="1024" y2="448" stroke-width="7" stroke="black" marker-end="url(#arrow)" />
    <circle cx="1024" cy="512" r="10"/>    <circle cx="1024" cy="448" r="10"/>
<line x1="1024" y1="448" x2="1536" y2="448" stroke-width="7" stroke="black" marker-end="url(#arrow)" />
    <circle cx="1024" cy="448" r="10"/>    <circle cx="1536" cy="448" r="10"/>
<line x1="2496" y1="312" x2="2496" y2="256" stroke-width="7" stroke="black" marker-end="url(#arrow)" />
    <circle cx="2496" cy="312" r="10"/>    <circle cx="2496" cy="256" r="10"/>
<line x1="2496" y1="256" x2="2544" y2="256" stroke-width="7" stroke="black" marker-end="url(#arrow)" />
    <circle cx="2496" cy="256" r="10"/>    <circle cx="2544" cy="256" r="10"/>
<line x1="2544" y1="256" x2="2544" y2="312" stroke-width="7" stroke="black" marker-end="url(#arrow)" />
    <circle cx="2544" cy="256" r="10"/>    <circle cx="2544" cy="312" r="10"/>
<line x1="2656" y1="400" x2="2688" y2="400" stroke-width="7" stroke="black" marker-end="url(#arrow)" />
    <circle cx="2656" cy="400" r="10"/>    <circle cx="2688" cy="400" r="10"/>
<line x1="2688" y1="400" x2="2688" y2="448" stroke-width="7" stroke="black" marker-end="url(#arrow)" />
    <circle cx="2688" cy="400" r="10"/>    <circle cx="2688" cy="448" r="10"/>
<line x1="2688" y1="448" x2="2656" y2="448" stroke-width="7" stroke="black" marker-end="url(#arrow)" />
    <circle cx="2688" cy="448" r="10"/>    <circle cx="2656" cy="448" r="10"/>
<line x1="2448" y1="512" x2="2448" y2="480" stroke-width="7" stroke="black" marker-end="url(#arrow)" />
    <circle cx="2448" cy="512" r="10"/>    <circle cx="2448" cy="480" r="10"/>
<line x1="2496" y1="512" x2="2448" y2="512" stroke-width="7" stroke="black" marker-end="url(#arrow)" />
    <circle cx="2496" cy="512" r="10"/>    <circle cx="2448" cy="512" r="10"/>
<line x1="2496" y1="480" x2="2496" y2="512" stroke-width="7" stroke="black" marker-end="url(#arrow)" />
    <circle cx="2496" cy="480" r="10"/>    <circle cx="2496" cy="512" r="10"/>

</svg>

