<svg width="900" height="1700" preserveAspectRatio="none" viewBox="-1282 -2498 2564 4612"
 xmlns="http://www.w3.org/2000/svg" xmlns:xlink="http://www.w3.org/1999/xlink">
   <defs>
    <marker id="arrow" markerWidth="10" markerHeight="10" refX="0" refY="2" orient="auto" markerUnits="strokeWidth">
      <path d="M0,0 L0,4 L5,3 z" fill="#f00" />
    </marker>
  </defs>

<polygon points="-248,-192 -248,-192 -256,-64 -256,-64 -352,-64 -352,-64 -352,-192 -352,-192 " fill="rgb(251,251,34)" stroke="rgb(70,70,70)" stroke-width="10" stroke-linecap="round" />
<polygon points="-248,-192 -128,-192 -128,-64 -128,-64 -256,-64 -248,-192 " fill="rgb(3,3,220)" stroke="rgb(70,70,70)" stroke-width="10" stroke-linecap="round" />
<polygon points="-64,-192 0,-192 0,-192 0,-64 -64,-64 -64,-192 " fill="rgb(228,11,11)" stroke="rgb(70,70,70)" stroke-width="10" stroke-linecap="round" />
<polygon points="-128,-192 -64,-192 -64,-192 -64,-64 -64,-64 -128,-64 -128,-64 -128,-192 " fill="rgb(3,3,220)" stroke="rgb(70,70,70)" stroke-width="10" stroke-linecap="round" />
<polygon points="-248,-896 -284,-960 -284,-960 0,-960 0,-960 0,-896 -248,-896 " fill="rgb(251,251,34)" stroke="rgb(70,70,70)" stroke-width="10" stroke-linecap="round" />
<polygon points="-128,-960 -284,-960 -284,-960 -352,-1080 -352,-1088 -128,-1088 " fill="rgb(251,251,34)" stroke="rgb(70,70,70)" stroke-width="10" stroke-linecap="round" />
<polygon points="-320,-1024 -352,-1024 -352,-1080 " fill="rgb(22,239,22)" stroke="rgb(70,70,70)" stroke-width="10" stroke-linecap="round" />
<polygon points="-64,-208 -64,-208 -64,-569 -64,-569 0,-512 0,-208 0,-208 " fill="rgb(232,15,232)" stroke="rgb(70,70,70)" stroke-width="10" stroke-linecap="round" />
<polygon points="-64,-192 -64,-208 -64,-208 0,-208 0,-208 0,-192 0,-192 -64,-192 " fill="rgb(251,251,34)" stroke="rgb(70,70,70)" stroke-width="10" stroke-linecap="round" />
<polygon points="-160,-384 -127,-256 -248,-192 -248,-192 -352,-192 -352,-192 -352,-526 -288,-504 " fill="rgb(228,11,11)" stroke="rgb(70,70,70)" stroke-width="10" stroke-linecap="round" />
<polygon points="-248,-192 -248,-192 -128,-255 -128,-192 " fill="rgb(251,251,34)" stroke="rgb(70,70,70)" stroke-width="10" stroke-linecap="round" />
<polygon points="-64,-480 -352,-736 -352,-800 -320,-800 -64,-569 " fill="rgb(228,11,11)" stroke="rgb(70,70,70)" stroke-width="10" stroke-linecap="round" />
<polygon points="0,-64 0,-192 0,-192 129,-126 162,-92 109,-64 " fill="rgb(228,11,11)" stroke="rgb(70,70,70)" stroke-width="10" stroke-linecap="round" />
<polygon points="704,-832 832,-576 832,-549 287,-231 23,-487 200,-832 " fill="rgb(22,239,22)" stroke="rgb(70,70,70)" stroke-width="10" stroke-linecap="round" />
<polygon points="768,-512 768,-512 832,-549 832,-512 832,-512 " fill="rgb(26,243,243)" stroke="rgb(70,70,70)" stroke-width="10" stroke-linecap="round" />
<polygon points="288,-231 768,-512 768,-512 832,-512 832,-512 832,-448 832,-448 832,-448 320,-175 " fill="rgb(26,243,243)" stroke="rgb(70,70,70)" stroke-width="10" stroke-linecap="round" />
<polygon points="0,-960 832,-960 832,-896 0,-896 " fill="rgb(228,11,11)" stroke="rgb(70,70,70)" stroke-width="10" stroke-linecap="round" />
<polygon points="344,-96 344,-96 344,-96 344,-96 344,-96 319,-175 832,-448 832,-448 832,-288 832,-288 592,-96 " fill="rgb(3,3,220)" stroke="rgb(70,70,70)" stroke-width="10" stroke-linecap="round" />
<polygon points="109,-64 162,-92 191,-64 " fill="rgb(232,15,232)" stroke="rgb(70,70,70)" stroke-width="10" stroke-linecap="round" />
<polygon points="512,-96 512,-64 384,-64 384,-96 512,-96 " fill="rgb(22,239,22)" stroke="rgb(70,70,70)" stroke-width="10" stroke-linecap="round" />
<polygon points="856,-512 856,-512 856,-448 832,-448 832,-512 832,-512 " fill="rgb(26,243,243)" stroke="rgb(70,70,70)" stroke-width="10" stroke-linecap="round" />
<polygon points="864,-448 864,-512 864,-512 960,-512 960,-448 " fill="rgb(232,15,232)" stroke="rgb(70,70,70)" stroke-width="10" stroke-linecap="round" />
<polygon points="864,-512 864,-512 864,-448 864,-448 856,-448 856,-512 856,-512 " fill="rgb(22,239,22)" stroke="rgb(70,70,70)" stroke-width="10" stroke-linecap="round" />
<polygon points="960,-896 960,-512 896,-512 896,-960 " fill="rgb(3,3,220)" stroke="rgb(70,70,70)" stroke-width="10" stroke-linecap="round" />
<polygon points="832,-960 896,-960 896,-832 832,-896 " fill="rgb(251,251,34)" stroke="rgb(70,70,70)" stroke-width="10" stroke-linecap="round" />
<polygon points="-352,-192 -446,-215 -352,-394 -352,-192 " fill="rgb(232,15,232)" stroke="rgb(70,70,70)" stroke-width="10" stroke-linecap="round" />
<polygon points="-352,-64 -352,-64 -529,-64 -503,-111 -352,-64 " fill="rgb(3,3,220)" stroke="rgb(70,70,70)" stroke-width="10" stroke-linecap="round" />
<polygon points="-502,-111 -447,-215 -352,-192 -352,-192 -352,-64 -352,-64 -352,-64 -352,-64 " fill="rgb(3,3,220)" stroke="rgb(70,70,70)" stroke-width="10" stroke-linecap="round" />
<polygon points="-566,-279 -352,-434 -352,-394 -446,-215 " fill="rgb(3,3,220)" stroke="rgb(70,70,70)" stroke-width="10" stroke-linecap="round" />
<polygon points="-529,-64 -870,-64 -679,-199 -503,-111 " fill="rgb(3,3,220)" stroke="rgb(70,70,70)" stroke-width="10" stroke-linecap="round" />
<polygon points="-503,-111 -678,-199 -567,-279 -448,-215 " fill="rgb(22,239,22)" stroke="rgb(70,70,70)" stroke-width="10" stroke-linecap="round" />
<polygon points="-832,-576 -832,-576 -832,-91 -832,-91 -870,-64 -896,-64 -996,-466 -896,-559 " fill="rgb(3,3,220)" stroke="rgb(70,70,70)" stroke-width="10" stroke-linecap="round" />
<polygon points="-1088,-383 -997,-464 -960,-64 -960,-64 -1098,-64 -1152,-128 -1152,-128 " fill="rgb(3,3,220)" stroke="rgb(70,70,70)" stroke-width="10" stroke-linecap="round" />
<polygon points="-983,-320 -998,-473 -959,-320 " fill="rgb(232,15,232)" stroke="rgb(70,70,70)" stroke-width="10" stroke-linecap="round" />
<polygon points="-679,-198 -832,-91 -832,-232 -751,-286 " fill="rgb(228,11,11)" stroke="rgb(70,70,70)" stroke-width="10" stroke-linecap="round" />
<polygon points="-567,-279 -647,-359 -647,-359 -520,-448 -352,-448 -352,-434 " fill="rgb(26,243,243)" stroke="rgb(70,70,70)" stroke-width="10" stroke-linecap="round" />
<polygon points="-647,-359 -568,-280 -568,-280 -679,-200 -751,-287 " fill="rgb(251,251,34)" stroke="rgb(70,70,70)" stroke-width="10" stroke-linecap="round" />
<polygon points="-704,-448 -704,-448 -520,-448 -647,-359 " fill="rgb(232,15,232)" stroke="rgb(70,70,70)" stroke-width="10" stroke-linecap="round" />
<polygon points="-751,-286 -832,-232 -832,-448 -832,-448 -832,-448 " fill="rgb(251,251,34)" stroke="rgb(70,70,70)" stroke-width="10" stroke-linecap="round" />
<polygon points="-704,-448 -704,-448 -647,-359 -751,-288 -832,-448 -832,-448 -832,-448 -704,-448 " fill="rgb(228,11,11)" stroke="rgb(70,70,70)" stroke-width="10" stroke-linecap="round" />
<polygon points="-352,-448 -704,-448 -704,-576 -704,-576 -496,-576 -352,-526 " fill="rgb(22,239,22)" stroke="rgb(70,70,70)" stroke-width="10" stroke-linecap="round" />
<polygon points="-832,-448 -832,-448 -832,-576 -832,-576 -704,-576 -704,-576 -704,-448 -704,-448 " fill="rgb(3,3,220)" stroke="rgb(70,70,70)" stroke-width="10" stroke-linecap="round" />
<polygon points="-352,-1024 -832,-1024 -832,-1088 -352,-1088 -352,-1088 " fill="rgb(251,251,34)" stroke="rgb(70,70,70)" stroke-width="10" stroke-linecap="round" />
<polygon points="-768,-1136 -768,-1088 -832,-1088 -832,-1136 -768,-1136 " fill="rgb(228,11,11)" stroke="rgb(70,70,70)" stroke-width="10" stroke-linecap="round" />
<polygon points="-832,-896 -704,-896 -704,-640 -832,-640 -832,-640 -896,-704 -896,-832 " fill="rgb(3,3,220)" stroke="rgb(70,70,70)" stroke-width="10" stroke-linecap="round" />
<polygon points="-704,-640 -704,-640 -704,-576 -704,-576 -832,-576 -832,-640 " fill="rgb(3,3,220)" stroke="rgb(70,70,70)" stroke-width="10" stroke-linecap="round" />
<polygon points="-704,-736 -704,-800 -352,-800 -352,-800 -352,-736 -704,-736 " fill="rgb(251,251,34)" stroke="rgb(70,70,70)" stroke-width="10" stroke-linecap="round" />
<polygon points="-704,-640 -704,-736 -608,-736 " fill="rgb(228,11,11)" stroke="rgb(70,70,70)" stroke-width="10" stroke-linecap="round" />
<polygon points="-608,-800 -704,-800 -704,-896 " fill="rgb(3,3,220)" stroke="rgb(70,70,70)" stroke-width="10" stroke-linecap="round" />
<polygon points="-768,-1744 -768,-1744 -768,-1152 -768,-1152 -832,-1152 -832,-1152 -832,-1744 -832,-1744 " fill="rgb(232,15,232)" stroke="rgb(70,70,70)" stroke-width="10" stroke-linecap="round" />
<polygon points="-832,-1136 -832,-1152 -832,-1152 -768,-1152 -768,-1152 -768,-1136 -768,-1136 -832,-1136 " fill="rgb(3,3,220)" stroke="rgb(70,70,70)" stroke-width="10" stroke-linecap="round" />
<polygon points="-768,-1152 -768,-1720 -632,-1720 -512,-1591 -512,-1376 -640,-1216 " fill="rgb(22,239,22)" stroke="rgb(70,70,70)" stroke-width="10" stroke-linecap="round" />
<polygon points="-1088,-1592 -960,-1720 -832,-1720 -832,-1152 -960,-1216 -1088,-1376 " fill="rgb(26,243,243)" stroke="rgb(70,70,70)" stroke-width="10" stroke-linecap="round" />
<polygon points="-768,-2008 -768,-1760 -768,-1760 -768,-1760 -832,-1760 -832,-1760 -832,-2008 -832,-2008 -832,-2008 -768,-2008 " fill="rgb(251,251,34)" stroke="rgb(70,70,70)" stroke-width="10" stroke-linecap="round" />
<polygon points="-704,-1920 -704,-1856 -768,-1792 -768,-1984 " fill="rgb(26,243,243)" stroke="rgb(70,70,70)" stroke-width="10" stroke-linecap="round" />
<polygon points="-832,-1744 -832,-1760 -832,-1760 -768,-1760 -768,-1760 -768,-1744 -832,-1744 " fill="rgb(3,3,220)" stroke="rgb(70,70,70)" stroke-width="10" stroke-linecap="round" />
<polygon points="-904,-1856 -904,-1856 -960,-1856 -960,-1920 -904,-1920 " fill="rgb(251,251,34)" stroke="rgb(70,70,70)" stroke-width="10" stroke-linecap="round" />
<polygon points="-832,-1984 -832,-1792 -896,-1856 -896,-1920 " fill="rgb(22,239,22)" stroke="rgb(70,70,70)" stroke-width="10" stroke-linecap="round" />
<polygon points="-904,-1920 -896,-1920 -896,-1856 -904,-1856 -904,-1920 " fill="rgb(26,243,243)" stroke="rgb(70,70,70)" stroke-width="10" stroke-linecap="round" />
<polygon points="-896,-2368 -832,-2368 -832,-2368 -832,-2016 -832,-2016 -896,-2016 -1023,-2208 " fill="rgb(22,239,22)" stroke="rgb(70,70,70)" stroke-width="10" stroke-linecap="round" />
<polygon points="-768,-2016 -768,-2368 -768,-2368 -704,-2368 -575,-2208 -704,-2016 -768,-2016 " fill="rgb(3,3,220)" stroke="rgb(70,70,70)" stroke-width="10" stroke-linecap="round" />
<polygon points="-832,-2016 -832,-2016 -832,-2176 -768,-2176 -768,-2176 -768,-2016 " fill="rgb(22,239,22)" stroke="rgb(70,70,70)" stroke-width="10" stroke-linecap="round" />
<polygon points="-768,-2368 -768,-2368 -768,-2240 -832,-2240 -832,-2240 -832,-2368 " fill="rgb(22,239,22)" stroke="rgb(70,70,70)" stroke-width="10" stroke-linecap="round" />
<polygon points="-768,-2240 -768,-2176 -768,-2176 -832,-2176 -832,-2176 -832,-2240 -832,-2240 -768,-2240 " fill="rgb(22,239,22)" stroke="rgb(70,70,70)" stroke-width="10" stroke-linecap="round" />
<polygon points="-832,-2008 -832,-2008 -832,-2016 -768,-2016 -768,-2016 -768,-2008 " fill="rgb(228,11,11)" stroke="rgb(70,70,70)" stroke-width="10" stroke-linecap="round" />
<polygon points="319,1512 383,1600 320,1696 320,1696 160,1696 160,1696 160,1696 95,1600 160,1512 160,1512 319,1512 319,1512 " fill="rgb(22,239,22)" stroke="rgb(70,70,70)" stroke-width="10" stroke-linecap="round" />
<polygon points="37,1512 160,1512 160,1512 95,1600 " fill="rgb(228,11,11)" stroke="rgb(70,70,70)" stroke-width="10" stroke-linecap="round" />
<polygon points="383,1600 453,1696 320,1696 320,1696 " fill="rgb(251,251,34)" stroke="rgb(70,70,70)" stroke-width="10" stroke-linecap="round" />
<polygon points="37,1512 160,1696 160,1696 -352,1696 -536,1512 " fill="rgb(22,239,22)" stroke="rgb(70,70,70)" stroke-width="10" stroke-linecap="round" />
<polygon points="-64,1984 -352,1696 453,1696 453,1696 571,1859 448,1984 " fill="rgb(228,11,11)" stroke="rgb(70,70,70)" stroke-width="10" stroke-linecap="round" />
<polygon points="319,1512 -536,1512 -536,1512 -536,1512 -768,1280 -768,456 -448,456 " fill="rgb(3,3,220)" stroke="rgb(70,70,70)" stroke-width="10" stroke-linecap="round" />
<polygon points="1152,456 1152,456 1152,1280 572,1858 -448,456 -448,456 1152,456 1152,456 " fill="rgb(22,239,22)" stroke="rgb(70,70,70)" stroke-width="10" stroke-linecap="round" />
<polygon points="96,456 96,448 96,448 288,448 288,448 288,448 288,448 288,456 288,456 96,456 " fill="rgb(22,239,22)" stroke="rgb(70,70,70)" stroke-width="10" stroke-linecap="round" />
<polygon points="1152,456 1152,456 352,456 352,448 352,448 1152,448 1152,448 " fill="rgb(3,3,220)" stroke="rgb(70,70,70)" stroke-width="10" stroke-linecap="round" />
<polygon points="288,456 288,448 288,448 352,448 352,448 352,456 352,456 288,456 " fill="rgb(232,15,232)" stroke="rgb(70,70,70)" stroke-width="10" stroke-linecap="round" />
<polygon points="32,448 32,448 32,456 32,456 -768,456 -768,448 " fill="rgb(3,3,220)" stroke="rgb(70,70,70)" stroke-width="10" stroke-linecap="round" />
<polygon points="96,448 96,456 96,456 32,456 32,456 32,448 32,448 96,448 " fill="rgb(251,251,34)" stroke="rgb(70,70,70)" stroke-width="10" stroke-linecap="round" />
<polygon points="256,416 256,416 256,416 128,416 128,416 128,-64 128,-64 192,-64 256,64 " fill="rgb(251,251,34)" stroke="rgb(70,70,70)" stroke-width="10" stroke-linecap="round" />
<polygon points="128,448 128,448 128,432 128,432 256,432 256,432 256,448 256,448 " fill="rgb(232,15,232)" stroke="rgb(70,70,70)" stroke-width="10" stroke-linecap="round" />
<polygon points="256,416 256,432 256,432 128,432 128,432 128,416 128,416 256,416 " fill="rgb(22,239,22)" stroke="rgb(70,70,70)" stroke-width="10" stroke-linecap="round" />
<polygon points="384,192 384,-64 384,-64 512,-64 512,32 " fill="rgb(26,243,243)" stroke="rgb(70,70,70)" stroke-width="10" stroke-linecap="round" />
<polygon points="256,192 256,64 256,64 384,64 384,64 384,192 256,192 " fill="rgb(228,11,11)" stroke="rgb(70,70,70)" stroke-width="10" stroke-linecap="round" />
<polygon points="384,0 384,64 320,64 " fill="rgb(26,243,243)" stroke="rgb(70,70,70)" stroke-width="10" stroke-linecap="round" />
<polygon points="-192,256 -192,192 0,64 0,64 0,64 0,256 " fill="rgb(232,15,232)" stroke="rgb(70,70,70)" stroke-width="10" stroke-linecap="round" />
<polygon points="-192,96 -192,-32 -128,0 -192,96 " fill="rgb(22,239,22)" stroke="rgb(70,70,70)" stroke-width="10" stroke-linecap="round" />
<polygon points="0,64 0,64 -192,192 -192,192 -192,96 -192,96 -128,0 -128,0 " fill="rgb(228,11,11)" stroke="rgb(70,70,70)" stroke-width="10" stroke-linecap="round" />
<polygon points="-885,192 -192,192 -192,192 -192,256 -832,256 " fill="rgb(26,243,243)" stroke="rgb(70,70,70)" stroke-width="10" stroke-linecap="round" />
<polygon points="-896,-64 -256,-64 -256,-64 -256,-64 -192,96 -192,96 -192,96 -390,151 -591,159 -767,96 -896,-64 " fill="rgb(3,3,220)" stroke="rgb(70,70,70)" stroke-width="10" stroke-linecap="round" />
<polygon points="-1098,-64 -960,-64 -704,192 -885,192 " fill="rgb(22,239,22)" stroke="rgb(70,70,70)" stroke-width="10" stroke-linecap="round" />
<polygon points="-256,-64 -256,-64 -192,-32 -192,96 -256,-64 " fill="rgb(22,239,22)" stroke="rgb(70,70,70)" stroke-width="10" stroke-linecap="round" />
<polygon points="32,-64 128,-64 128,128 128,128 32,-64 " fill="rgb(26,243,243)" stroke="rgb(70,70,70)" stroke-width="10" stroke-linecap="round" />
<polygon points="-32,-64 -32,-64 32,-64 96,64 " fill="rgb(232,15,232)" stroke="rgb(70,70,70)" stroke-width="10" stroke-linecap="round" />
<polygon points="-64,-64 -32,-64 0,-32 -64,-64 " fill="rgb(3,3,220)" stroke="rgb(70,70,70)" stroke-width="10" stroke-linecap="round" />
<polygon points="-128,0 -256,-64 -128,-64 " fill="rgb(26,243,243)" stroke="rgb(70,70,70)" stroke-width="10" stroke-linecap="round" />

</svg>

