<svg width="900" height="1700" preserveAspectRatio="none" viewBox="-1282 -2498 2564 4612"
 xmlns="http://www.w3.org/2000/svg" xmlns:xlink="http://www.w3.org/1999/xlink">
   <defs>
    <marker id="arrow" markerWidth="10" markerHeight="10" refX="0" refY="2" orient="auto" markerUnits="strokeWidth">
      <path d="M0,0 L0,4 L5,3 z" fill="#f00" />
    </marker>
  </defs>

<line x1="-352" y1="-64" x2="-352" y2="-192" stroke-width="10" stroke="rgb(-96,64,-96)" marker-end="url(#arrow)" />
<line x1="-352" y1="-192" x2="-248" y2="-192" stroke-width="10" stroke="rgb(-96,64,-96)" marker-end="url(#arrow)" />
<line x1="-256" y1="-64" x2="-352" y2="-64" stroke-width="10" stroke="rgb(-96,64,-96)" marker-end="url(#arrow)" />
<line x1="-248" y1="-192" x2="-256" y2="-64" stroke-width="10" stroke="rgb(-96,64,-96)" marker-end="url(#arrow)" />
<line x1="-256" y1="-64" x2="-248" y2="-192" stroke-width="10" stroke="rgb(0,64,-248)" marker-end="url(#arrow)" />
<line x1="-128" y1="-192" x2="-128" y2="-64" stroke-width="10" stroke="rgb(0,64,-248)" marker-end="url(#arrow)" />
<line x1="-64" y1="-192" x2="0" y2="-192" stroke-width="10" stroke="rgb(-64,192,0)" marker-end="url(#arrow)" />
<line x1="-64" y1="-64" x2="-64" y2="-192" stroke-width="10" stroke="rgb(-64,192,0)" marker-end="url(#arrow)" />
<line x1="-64" y1="-64" x2="-128" y2="-64" stroke-width="10" stroke="rgb(-64,64,-128)" marker-end="url(#arrow)" />
<line x1="-128" y1="-192" x2="-64" y2="-192" stroke-width="10" stroke="rgb(-64,64,-128)" marker-end="url(#arrow)" />
<line x1="-128" y1="-64" x2="-128" y2="-192" stroke-width="10" stroke="rgb(-64,64,-128)" marker-end="url(#arrow)" />
<line x1="-64" y1="-192" x2="-64" y2="-64" stroke-width="10" stroke="rgb(-64,64,-128)" marker-end="url(#arrow)" />
<line x1="0" y1="-896" x2="-248" y2="-896" stroke-width="10" stroke="rgb(0,128,-248)" marker-end="url(#arrow)" />
<line x1="-128" y1="-960" x2="0" y2="-960" stroke-width="10" stroke="rgb(0,128,-248)" marker-end="url(#arrow)" />
<line x1="-248" y1="-896" x2="-284" y2="-960" stroke-width="10" stroke="rgb(0,128,-248)" marker-end="url(#arrow)" />
<line x1="-284" y1="-960" x2="-320" y2="-1024" stroke-width="10" stroke="rgb(-28,192,-64)" marker-end="url(#arrow)" />
<line x1="-352" y1="-1088" x2="-128" y2="-1088" stroke-width="10" stroke="rgb(-28,192,-64)" marker-end="url(#arrow)" />
<line x1="-128" y1="-1088" x2="-128" y2="-960" stroke-width="10" stroke="rgb(-28,192,-64)" marker-end="url(#arrow)" />
<line x1="-320" y1="-1024" x2="-352" y2="-1024" stroke-width="10" stroke="rgb(-64,0,-96)" marker-end="url(#arrow)" />
<line x1="-64" y1="-569" x2="0" y2="-512" stroke-width="10" stroke="rgb(-64,57,0)" marker-end="url(#arrow)" />
<line x1="0" y1="-512" x2="0" y2="-208" stroke-width="10" stroke="rgb(-64,57,0)" marker-end="url(#arrow)" />
<line x1="-64" y1="-208" x2="-64" y2="-480" stroke-width="10" stroke="rgb(-64,57,0)" marker-end="url(#arrow)" />
<line x1="0" y1="-208" x2="-64" y2="-208" stroke-width="10" stroke="rgb(-64,57,0)" marker-end="url(#arrow)" />
<line x1="0" y1="-208" x2="0" y2="-192" stroke-width="10" stroke="rgb(0,208,0)" marker-end="url(#arrow)" />
<line x1="-64" y1="-192" x2="-64" y2="-208" stroke-width="10" stroke="rgb(0,208,0)" marker-end="url(#arrow)" />
<line x1="0" y1="-192" x2="-64" y2="-192" stroke-width="10" stroke="rgb(0,208,0)" marker-end="url(#arrow)" />
<line x1="-64" y1="-208" x2="0" y2="-208" stroke-width="10" stroke="rgb(0,208,0)" marker-end="url(#arrow)" />
<line x1="-352" y1="-526" x2="-288" y2="-504" stroke-width="10" stroke="rgb(-96,14,-32)" marker-end="url(#arrow)" />
<line x1="-288" y1="-504" x2="-160" y2="-384" stroke-width="10" stroke="rgb(-96,14,-32)" marker-end="url(#arrow)" />
<line x1="-160" y1="-384" x2="-128" y2="-256" stroke-width="10" stroke="rgb(-96,14,-32)" marker-end="url(#arrow)" />
<line x1="-128" y1="-256" x2="-248" y2="-192" stroke-width="10" stroke="rgb(-96,14,-32)" marker-end="url(#arrow)" />
<line x1="-248" y1="-192" x2="-352" y2="-192" stroke-width="10" stroke="rgb(-96,14,-32)" marker-end="url(#arrow)" />
<line x1="-128" y1="-256" x2="-128" y2="-192" stroke-width="10" stroke="rgb(-128,0,-128)" marker-end="url(#arrow)" />
<line x1="-248" y1="-192" x2="-128" y2="-256" stroke-width="10" stroke="rgb(-128,0,-128)" marker-end="url(#arrow)" />
<line x1="-352" y1="-800" x2="-320" y2="-800" stroke-width="10" stroke="rgb(-96,32,-64)" marker-end="url(#arrow)" />
<line x1="-320" y1="-800" x2="-64" y2="-569" stroke-width="10" stroke="rgb(-96,32,-64)" marker-end="url(#arrow)" />
<line x1="-64" y1="-480" x2="-352" y2="-736" stroke-width="10" stroke="rgb(-96,32,-64)" marker-end="url(#arrow)" />
<line x1="0" y1="-192" x2="128" y2="-128" stroke-width="10" stroke="rgb(0,192,128)" marker-end="url(#arrow)" />
<line x1="128" y1="-128" x2="163" y2="-92" stroke-width="10" stroke="rgb(0,192,128)" marker-end="url(#arrow)" />
<line x1="288" y1="-232" x2="24" y2="-488" stroke-width="10" stroke="rgb(32,232,24)" marker-end="url(#arrow)" />
<line x1="24" y1="-488" x2="200" y2="-832" stroke-width="10" stroke="rgb(32,232,24)" marker-end="url(#arrow)" />
<line x1="200" y1="-832" x2="704" y2="-832" stroke-width="10" stroke="rgb(32,232,24)" marker-end="url(#arrow)" />
<line x1="704" y1="-832" x2="832" y2="-576" stroke-width="10" stroke="rgb(32,232,24)" marker-end="url(#arrow)" />
<line x1="832" y1="-576" x2="832" y2="-549" stroke-width="10" stroke="rgb(32,232,24)" marker-end="url(#arrow)" />
<line x1="768" y1="-512" x2="288" y2="-232" stroke-width="10" stroke="rgb(32,232,24)" marker-end="url(#arrow)" />
<line x1="832" y1="-549" x2="832" y2="-512" stroke-width="10" stroke="rgb(64,37,64)" marker-end="url(#arrow)" />
<line x1="832" y1="-512" x2="768" y2="-512" stroke-width="10" stroke="rgb(64,37,64)" marker-end="url(#arrow)" />
<line x1="832" y1="-512" x2="832" y2="-448" stroke-width="10" stroke="rgb(64,0,64)" marker-end="url(#arrow)" />
<line x1="832" y1="-448" x2="320" y2="-176" stroke-width="10" stroke="rgb(64,0,64)" marker-end="url(#arrow)" />
<line x1="768" y1="-512" x2="832" y2="-512" stroke-width="10" stroke="rgb(64,0,64)" marker-end="url(#arrow)" />
<line x1="288" y1="-232" x2="768" y2="-512" stroke-width="10" stroke="rgb(64,0,64)" marker-end="url(#arrow)" />
<line x1="320" y1="-176" x2="288" y2="-232" stroke-width="10" stroke="rgb(64,0,64)" marker-end="url(#arrow)" />
<line x1="832" y1="-896" x2="0" y2="-896" stroke-width="10" stroke="rgb(64,128,0)" marker-end="url(#arrow)" />
<line x1="0" y1="-960" x2="832" y2="-960" stroke-width="10" stroke="rgb(64,128,0)" marker-end="url(#arrow)" />
<line x1="344" y1="-96" x2="320" y2="-176" stroke-width="10" stroke="rgb(88,96,64)" marker-end="url(#arrow)" />
<line x1="320" y1="-176" x2="832" y2="-448" stroke-width="10" stroke="rgb(88,96,64)" marker-end="url(#arrow)" />
<line x1="576" y1="-96" x2="512" y2="-96" stroke-width="10" stroke="rgb(88,96,64)" marker-end="url(#arrow)" />
<line x1="832" y1="-288" x2="592" y2="-96" stroke-width="10" stroke="rgb(88,96,64)" marker-end="url(#arrow)" />
<line x1="512" y1="-96" x2="384" y2="-96" stroke-width="10" stroke="rgb(88,96,64)" marker-end="url(#arrow)" />
<line x1="832" y1="-448" x2="832" y2="-288" stroke-width="10" stroke="rgb(88,96,64)" marker-end="url(#arrow)" />
<line x1="384" y1="-96" x2="344" y2="-96" stroke-width="10" stroke="rgb(88,96,64)" marker-end="url(#arrow)" />
<line x1="592" y1="-96" x2="576" y2="-96" stroke-width="10" stroke="rgb(88,96,64)" marker-end="url(#arrow)" />
<line x1="163" y1="-92" x2="192" y2="-64" stroke-width="10" stroke="rgb(163,92,192)" marker-end="url(#arrow)" />
<line x1="512" y1="-64" x2="384" y2="-64" stroke-width="10" stroke="rgb(0,64,128)" marker-end="url(#arrow)" />
<line x1="384" y1="-64" x2="384" y2="-96" stroke-width="10" stroke="rgb(0,64,128)" marker-end="url(#arrow)" />
<line x1="512" y1="-96" x2="512" y2="-64" stroke-width="10" stroke="rgb(0,64,128)" marker-end="url(#arrow)" />
<line x1="384" y1="-96" x2="512" y2="-96" stroke-width="10" stroke="rgb(0,64,128)" marker-end="url(#arrow)" />
<line x1="832" y1="-448" x2="832" y2="-512" stroke-width="10" stroke="rgb(64,192,64)" marker-end="url(#arrow)" />
<line x1="832" y1="-512" x2="856" y2="-512" stroke-width="10" stroke="rgb(64,192,64)" marker-end="url(#arrow)" />
<line x1="856" y1="-512" x2="856" y2="-448" stroke-width="10" stroke="rgb(64,192,64)" marker-end="url(#arrow)" />
<line x1="856" y1="-448" x2="832" y2="-448" stroke-width="10" stroke="rgb(64,192,64)" marker-end="url(#arrow)" />
<line x1="864" y1="-512" x2="896" y2="-512" stroke-width="10" stroke="rgb(96,0,128)" marker-end="url(#arrow)" />
<line x1="960" y1="-512" x2="960" y2="-448" stroke-width="10" stroke="rgb(96,0,128)" marker-end="url(#arrow)" />
<line x1="960" y1="-448" x2="864" y2="-448" stroke-width="10" stroke="rgb(96,0,128)" marker-end="url(#arrow)" />
<line x1="864" y1="-448" x2="864" y2="-512" stroke-width="10" stroke="rgb(96,0,128)" marker-end="url(#arrow)" />
<line x1="856" y1="-448" x2="856" y2="-512" stroke-width="10" stroke="rgb(88,192,88)" marker-end="url(#arrow)" />
<line x1="856" y1="-512" x2="864" y2="-512" stroke-width="10" stroke="rgb(88,192,88)" marker-end="url(#arrow)" />
<line x1="864" y1="-448" x2="856" y2="-448" stroke-width="10" stroke="rgb(88,192,88)" marker-end="url(#arrow)" />
<line x1="864" y1="-512" x2="864" y2="-448" stroke-width="10" stroke="rgb(88,192,88)" marker-end="url(#arrow)" />
<line x1="896" y1="-512" x2="896" y2="-832" stroke-width="10" stroke="rgb(128,0,128)" marker-end="url(#arrow)" />
<line x1="960" y1="-896" x2="960" y2="-512" stroke-width="10" stroke="rgb(128,0,128)" marker-end="url(#arrow)" />
<line x1="896" y1="-960" x2="960" y2="-896" stroke-width="10" stroke="rgb(128,0,128)" marker-end="url(#arrow)" />
<line x1="896" y1="-832" x2="832" y2="-896" stroke-width="10" stroke="rgb(128,64,64)" marker-end="url(#arrow)" />
<line x1="832" y1="-960" x2="896" y2="-960" stroke-width="10" stroke="rgb(128,64,64)" marker-end="url(#arrow)" />
<line x1="-352" y1="-192" x2="-448" y2="-216" stroke-width="10" stroke="rgb(-96,192,-192)" marker-end="url(#arrow)" />
<line x1="-504" y1="-112" x2="-352" y2="-64" stroke-width="10" stroke="rgb(-248,112,-96)" marker-end="url(#arrow)" />
<line x1="-504" y1="-112" x2="-448" y2="-216" stroke-width="10" stroke="rgb(-248,112,-192)" marker-end="url(#arrow)" />
<line x1="-352" y1="-192" x2="-352" y2="-64" stroke-width="10" stroke="rgb(-248,112,-192)" marker-end="url(#arrow)" />
<line x1="-448" y1="-216" x2="-352" y2="-192" stroke-width="10" stroke="rgb(-248,112,-192)" marker-end="url(#arrow)" />
<line x1="-352" y1="-64" x2="-504" y2="-112" stroke-width="10" stroke="rgb(-248,112,-192)" marker-end="url(#arrow)" />
<line x1="-448" y1="-216" x2="-568" y2="-280" stroke-width="10" stroke="rgb(-192,216,-56)" marker-end="url(#arrow)" />
<line x1="-680" y1="-200" x2="-504" y2="-112" stroke-width="10" stroke="rgb(-168,200,-248)" marker-end="url(#arrow)" />
<line x1="-680" y1="-200" x2="-568" y2="-280" stroke-width="10" stroke="rgb(-168,200,-56)" marker-end="url(#arrow)" />
<line x1="-448" y1="-216" x2="-504" y2="-112" stroke-width="10" stroke="rgb(-168,200,-56)" marker-end="url(#arrow)" />
<line x1="-568" y1="-280" x2="-448" y2="-216" stroke-width="10" stroke="rgb(-168,200,-56)" marker-end="url(#arrow)" />
<line x1="-504" y1="-112" x2="-680" y2="-200" stroke-width="10" stroke="rgb(-168,200,-56)" marker-end="url(#arrow)" />
<line x1="-896" y1="-64" x2="-960" y2="-320" stroke-width="10" stroke="rgb(-128,64,-192)" marker-end="url(#arrow)" />
<line x1="-896" y1="-560" x2="-832" y2="-576" stroke-width="10" stroke="rgb(-128,64,-192)" marker-end="url(#arrow)" />
<line x1="-996" y1="-467" x2="-896" y2="-560" stroke-width="10" stroke="rgb(-128,64,-192)" marker-end="url(#arrow)" />
<line x1="-832" y1="-576" x2="-832" y2="-448" stroke-width="10" stroke="rgb(-128,64,-192)" marker-end="url(#arrow)" />
<line x1="-1088" y1="-384" x2="-996" y2="-467" stroke-width="10" stroke="rgb(-64,128,-228)" marker-end="url(#arrow)" />
<line x1="-1152" y1="-128" x2="-1088" y2="-384" stroke-width="10" stroke="rgb(-64,128,-228)" marker-end="url(#arrow)" />
<line x1="-1098" y1="-64" x2="-1152" y2="-128" stroke-width="10" stroke="rgb(-64,128,-228)" marker-end="url(#arrow)" />
<line x1="-984" y1="-320" x2="-960" y2="-64" stroke-width="10" stroke="rgb(-64,128,-228)" marker-end="url(#arrow)" />
<line x1="-960" y1="-320" x2="-984" y2="-320" stroke-width="10" stroke="rgb(-192,64,-216)" marker-end="url(#arrow)" />
<line x1="-752" y1="-288" x2="-680" y2="-200" stroke-width="10" stroke="rgb(-240,32,-168)" marker-end="url(#arrow)" />
<line x1="-568" y1="-280" x2="-648" y2="-360" stroke-width="10" stroke="rgb(-56,24,-136)" marker-end="url(#arrow)" />
<line x1="-752" y1="-288" x2="-648" y2="-360" stroke-width="10" stroke="rgb(-240,32,-136)" marker-end="url(#arrow)" />
<line x1="-568" y1="-280" x2="-680" y2="-200" stroke-width="10" stroke="rgb(-240,32,-136)" marker-end="url(#arrow)" />
<line x1="-680" y1="-200" x2="-752" y2="-288" stroke-width="10" stroke="rgb(-240,32,-136)" marker-end="url(#arrow)" />
<line x1="-648" y1="-360" x2="-568" y2="-280" stroke-width="10" stroke="rgb(-240,32,-136)" marker-end="url(#arrow)" />
<line x1="-648" y1="-360" x2="-704" y2="-448" stroke-width="10" stroke="rgb(-136,104,-192)" marker-end="url(#arrow)" />
<line x1="-832" y1="-448" x2="-752" y2="-288" stroke-width="10" stroke="rgb(-64,192,-240)" marker-end="url(#arrow)" />
<line x1="-832" y1="-448" x2="-704" y2="-448" stroke-width="10" stroke="rgb(-64,192,-192)" marker-end="url(#arrow)" />
<line x1="-648" y1="-360" x2="-752" y2="-288" stroke-width="10" stroke="rgb(-64,192,-192)" marker-end="url(#arrow)" />
<line x1="-704" y1="-448" x2="-648" y2="-360" stroke-width="10" stroke="rgb(-64,192,-192)" marker-end="url(#arrow)" />
<line x1="-752" y1="-288" x2="-832" y2="-448" stroke-width="10" stroke="rgb(-64,192,-192)" marker-end="url(#arrow)" />
<line x1="-704" y1="-576" x2="-496" y2="-576" stroke-width="10" stroke="rgb(-192,64,-240)" marker-end="url(#arrow)" />
<line x1="-496" y1="-576" x2="-352" y2="-526" stroke-width="10" stroke="rgb(-192,64,-240)" marker-end="url(#arrow)" />
<line x1="-704" y1="-448" x2="-704" y2="-576" stroke-width="10" stroke="rgb(-192,64,-240)" marker-end="url(#arrow)" />
<line x1="-704" y1="-448" x2="-832" y2="-448" stroke-width="10" stroke="rgb(-192,192,-64)" marker-end="url(#arrow)" />
<line x1="-704" y1="-576" x2="-704" y2="-448" stroke-width="10" stroke="rgb(-192,192,-64)" marker-end="url(#arrow)" />
<line x1="-832" y1="-448" x2="-832" y2="-576" stroke-width="10" stroke="rgb(-192,192,-64)" marker-end="url(#arrow)" />
<line x1="-832" y1="-576" x2="-704" y2="-576" stroke-width="10" stroke="rgb(-192,192,-64)" marker-end="url(#arrow)" />
<line x1="-352" y1="-1024" x2="-832" y2="-1024" stroke-width="10" stroke="rgb(-96,0,-64)" marker-end="url(#arrow)" />
<line x1="-768" y1="-1088" x2="-352" y2="-1088" stroke-width="10" stroke="rgb(-96,0,-64)" marker-end="url(#arrow)" />
<line x1="-832" y1="-1024" x2="-832" y2="-1088" stroke-width="10" stroke="rgb(-96,0,-64)" marker-end="url(#arrow)" />
<line x1="-832" y1="-1088" x2="-832" y2="-1136" stroke-width="10" stroke="rgb(-64,64,-64)" marker-end="url(#arrow)" />
<line x1="-768" y1="-1136" x2="-768" y2="-1088" stroke-width="10" stroke="rgb(-64,64,-64)" marker-end="url(#arrow)" />
<line x1="-832" y1="-1136" x2="-768" y2="-1136" stroke-width="10" stroke="rgb(-64,64,-64)" marker-end="url(#arrow)" />
<line x1="-832" y1="-640" x2="-896" y2="-704" stroke-width="10" stroke="rgb(-64,128,-128)" marker-end="url(#arrow)" />
<line x1="-704" y1="-640" x2="-832" y2="-640" stroke-width="10" stroke="rgb(-64,128,-128)" marker-end="url(#arrow)" />
<line x1="-896" y1="-704" x2="-896" y2="-832" stroke-width="10" stroke="rgb(-64,128,-128)" marker-end="url(#arrow)" />
<line x1="-896" y1="-832" x2="-832" y2="-896" stroke-width="10" stroke="rgb(-64,128,-128)" marker-end="url(#arrow)" />
<line x1="-832" y1="-896" x2="-704" y2="-896" stroke-width="10" stroke="rgb(-64,128,-128)" marker-end="url(#arrow)" />
<line x1="-704" y1="-576" x2="-832" y2="-576" stroke-width="10" stroke="rgb(-192,64,-64)" marker-end="url(#arrow)" />
<line x1="-832" y1="-576" x2="-832" y2="-640" stroke-width="10" stroke="rgb(-192,64,-64)" marker-end="url(#arrow)" />
<line x1="-704" y1="-640" x2="-704" y2="-576" stroke-width="10" stroke="rgb(-192,64,-64)" marker-end="url(#arrow)" />
<line x1="-832" y1="-640" x2="-704" y2="-640" stroke-width="10" stroke="rgb(-192,64,-64)" marker-end="url(#arrow)" />
<line x1="-608" y1="-800" x2="-352" y2="-800" stroke-width="10" stroke="rgb(-96,32,-96)" marker-end="url(#arrow)" />
<line x1="-352" y1="-736" x2="-608" y2="-736" stroke-width="10" stroke="rgb(-96,32,-96)" marker-end="url(#arrow)" />
<line x1="-608" y1="-736" x2="-704" y2="-640" stroke-width="10" stroke="rgb(-96,224,-192)" marker-end="url(#arrow)" />
<line x1="-704" y1="-896" x2="-608" y2="-800" stroke-width="10" stroke="rgb(-192,128,-96)" marker-end="url(#arrow)" />
<line x1="-832" y1="-1720" x2="-832" y2="-1744" stroke-width="10" stroke="rgb(-64,184,-64)" marker-end="url(#arrow)" />
<line x1="-768" y1="-1744" x2="-768" y2="-1720" stroke-width="10" stroke="rgb(-64,184,-64)" marker-end="url(#arrow)" />
<line x1="-832" y1="-1744" x2="-768" y2="-1744" stroke-width="10" stroke="rgb(-64,184,-64)" marker-end="url(#arrow)" />
<line x1="-768" y1="-1152" x2="-832" y2="-1152" stroke-width="10" stroke="rgb(-64,184,-64)" marker-end="url(#arrow)" />
<line x1="-832" y1="-1136" x2="-832" y2="-1152" stroke-width="10" stroke="rgb(-64,112,-64)" marker-end="url(#arrow)" />
<line x1="-768" y1="-1152" x2="-768" y2="-1136" stroke-width="10" stroke="rgb(-64,112,-64)" marker-end="url(#arrow)" />
<line x1="-832" y1="-1152" x2="-768" y2="-1152" stroke-width="10" stroke="rgb(-64,112,-64)" marker-end="url(#arrow)" />
<line x1="-768" y1="-1136" x2="-832" y2="-1136" stroke-width="10" stroke="rgb(-64,112,-64)" marker-end="url(#arrow)" />
<line x1="-768" y1="-1720" x2="-632" y2="-1720" stroke-width="10" stroke="rgb(0,184,-120)" marker-end="url(#arrow)" />
<line x1="-632" y1="-1720" x2="-512" y2="-1592" stroke-width="10" stroke="rgb(0,184,-120)" marker-end="url(#arrow)" />
<line x1="-512" y1="-1592" x2="-512" y2="-1376" stroke-width="10" stroke="rgb(0,184,-120)" marker-end="url(#arrow)" />
<line x1="-512" y1="-1376" x2="-640" y2="-1216" stroke-width="10" stroke="rgb(0,184,-120)" marker-end="url(#arrow)" />
<line x1="-640" y1="-1216" x2="-768" y2="-1152" stroke-width="10" stroke="rgb(0,184,-120)" marker-end="url(#arrow)" />
<line x1="-832" y1="-1152" x2="-960" y2="-1216" stroke-width="10" stroke="rgb(-64,128,-192)" marker-end="url(#arrow)" />
<line x1="-960" y1="-1216" x2="-1088" y2="-1376" stroke-width="10" stroke="rgb(-64,128,-192)" marker-end="url(#arrow)" />
<line x1="-1088" y1="-1376" x2="-1088" y2="-1592" stroke-width="10" stroke="rgb(-64,128,-192)" marker-end="url(#arrow)" />
<line x1="-1088" y1="-1592" x2="-960" y2="-1720" stroke-width="10" stroke="rgb(-64,128,-192)" marker-end="url(#arrow)" />
<line x1="-960" y1="-1720" x2="-832" y2="-1720" stroke-width="10" stroke="rgb(-64,128,-192)" marker-end="url(#arrow)" />
<line x1="-832" y1="-1760" x2="-832" y2="-1792" stroke-width="10" stroke="rgb(-64,224,-64)" marker-end="url(#arrow)" />
<line x1="-768" y1="-1792" x2="-768" y2="-1760" stroke-width="10" stroke="rgb(-64,224,-64)" marker-end="url(#arrow)" />
<line x1="-768" y1="-1760" x2="-832" y2="-1760" stroke-width="10" stroke="rgb(-64,224,-64)" marker-end="url(#arrow)" />
<line x1="-832" y1="-1984" x2="-832" y2="-2008" stroke-width="10" stroke="rgb(-64,224,-64)" marker-end="url(#arrow)" />
<line x1="-768" y1="-2008" x2="-768" y2="-1984" stroke-width="10" stroke="rgb(-64,224,-64)" marker-end="url(#arrow)" />
<line x1="-832" y1="-2008" x2="-768" y2="-2008" stroke-width="10" stroke="rgb(-64,224,-64)" marker-end="url(#arrow)" />
<line x1="-704" y1="-1856" x2="-768" y2="-1792" stroke-width="10" stroke="rgb(-192,64,0)" marker-end="url(#arrow)" />
<line x1="-768" y1="-1984" x2="-704" y2="-1920" stroke-width="10" stroke="rgb(-192,64,0)" marker-end="url(#arrow)" />
<line x1="-704" y1="-1920" x2="-704" y2="-1856" stroke-width="10" stroke="rgb(-192,64,0)" marker-end="url(#arrow)" />
<line x1="-832" y1="-1744" x2="-832" y2="-1760" stroke-width="10" stroke="rgb(-64,208,-64)" marker-end="url(#arrow)" />
<line x1="-768" y1="-1760" x2="-768" y2="-1744" stroke-width="10" stroke="rgb(-64,208,-64)" marker-end="url(#arrow)" />
<line x1="-768" y1="-1744" x2="-832" y2="-1744" stroke-width="10" stroke="rgb(-64,208,-64)" marker-end="url(#arrow)" />
<line x1="-832" y1="-1760" x2="-768" y2="-1760" stroke-width="10" stroke="rgb(-64,208,-64)" marker-end="url(#arrow)" />
<line x1="-904" y1="-1856" x2="-960" y2="-1856" stroke-width="10" stroke="rgb(-136,64,-192)" marker-end="url(#arrow)" />
<line x1="-960" y1="-1856" x2="-960" y2="-1920" stroke-width="10" stroke="rgb(-136,64,-192)" marker-end="url(#arrow)" />
<line x1="-960" y1="-1920" x2="-904" y2="-1920" stroke-width="10" stroke="rgb(-136,64,-192)" marker-end="url(#arrow)" />
<line x1="-904" y1="-1920" x2="-904" y2="-1856" stroke-width="10" stroke="rgb(-136,64,-192)" marker-end="url(#arrow)" />
<line x1="-832" y1="-1792" x2="-896" y2="-1856" stroke-width="10" stroke="rgb(-64,0,-128)" marker-end="url(#arrow)" />
<line x1="-896" y1="-1856" x2="-896" y2="-1920" stroke-width="10" stroke="rgb(-64,0,-128)" marker-end="url(#arrow)" />
<line x1="-896" y1="-1920" x2="-832" y2="-1984" stroke-width="10" stroke="rgb(-64,0,-128)" marker-end="url(#arrow)" />
<line x1="-896" y1="-1920" x2="-896" y2="-1856" stroke-width="10" stroke="rgb(-128,128,-128)" marker-end="url(#arrow)" />
<line x1="-896" y1="-1856" x2="-904" y2="-1856" stroke-width="10" stroke="rgb(-128,128,-128)" marker-end="url(#arrow)" />
<line x1="-904" y1="-1920" x2="-896" y2="-1920" stroke-width="10" stroke="rgb(-128,128,-128)" marker-end="url(#arrow)" />
<line x1="-904" y1="-1856" x2="-904" y2="-1920" stroke-width="10" stroke="rgb(-128,128,-128)" marker-end="url(#arrow)" />
<line x1="-832" y1="-2016" x2="-896" y2="-2016" stroke-width="10" stroke="rgb(-64,224,-128)" marker-end="url(#arrow)" />
<line x1="-896" y1="-2016" x2="-1024" y2="-2208" stroke-width="10" stroke="rgb(-64,224,-128)" marker-end="url(#arrow)" />
<line x1="-1024" y1="-2208" x2="-896" y2="-2368" stroke-width="10" stroke="rgb(-64,224,-128)" marker-end="url(#arrow)" />
<line x1="-896" y1="-2368" x2="-832" y2="-2368" stroke-width="10" stroke="rgb(-64,224,-128)" marker-end="url(#arrow)" />
<line x1="-832" y1="-2240" x2="-832" y2="-2176" stroke-width="10" stroke="rgb(-64,224,-128)" marker-end="url(#arrow)" />
<line x1="-768" y1="-2368" x2="-704" y2="-2368" stroke-width="10" stroke="rgb(0,64,-192)" marker-end="url(#arrow)" />
<line x1="-704" y1="-2368" x2="-576" y2="-2208" stroke-width="10" stroke="rgb(0,64,-192)" marker-end="url(#arrow)" />
<line x1="-576" y1="-2208" x2="-704" y2="-2016" stroke-width="10" stroke="rgb(0,64,-192)" marker-end="url(#arrow)" />
<line x1="-704" y1="-2016" x2="-768" y2="-2016" stroke-width="10" stroke="rgb(0,64,-192)" marker-end="url(#arrow)" />
<line x1="-768" y1="-2176" x2="-768" y2="-2240" stroke-width="10" stroke="rgb(0,64,-192)" marker-end="url(#arrow)" />
<line x1="-768" y1="-2016" x2="-832" y2="-2016" stroke-width="10" stroke="rgb(0,224,-64)" marker-end="url(#arrow)" />
<line x1="-832" y1="-2176" x2="-768" y2="-2176" stroke-width="10" stroke="rgb(0,224,-64)" marker-end="url(#arrow)" />
<line x1="-832" y1="-2368" x2="-768" y2="-2368" stroke-width="10" stroke="rgb(-64,64,0)" marker-end="url(#arrow)" />
<line x1="-768" y1="-2240" x2="-832" y2="-2240" stroke-width="10" stroke="rgb(-64,64,0)" marker-end="url(#arrow)" />
<line x1="-832" y1="-2176" x2="-832" y2="-2240" stroke-width="10" stroke="rgb(-64,128,-64)" marker-end="url(#arrow)" />
<line x1="-768" y1="-2176" x2="-832" y2="-2176" stroke-width="10" stroke="rgb(-64,128,-64)" marker-end="url(#arrow)" />
<line x1="-768" y1="-2240" x2="-768" y2="-2176" stroke-width="10" stroke="rgb(-64,128,-64)" marker-end="url(#arrow)" />
<line x1="-832" y1="-2240" x2="-768" y2="-2240" stroke-width="10" stroke="rgb(-64,128,-64)" marker-end="url(#arrow)" />
<line x1="-832" y1="-2008" x2="-832" y2="-2016" stroke-width="10" stroke="rgb(-64,216,-64)" marker-end="url(#arrow)" />
<line x1="-768" y1="-2016" x2="-768" y2="-2008" stroke-width="10" stroke="rgb(-64,216,-64)" marker-end="url(#arrow)" />
<line x1="-768" y1="-2008" x2="-832" y2="-2008" stroke-width="10" stroke="rgb(-64,216,-64)" marker-end="url(#arrow)" />
<line x1="-832" y1="-2016" x2="-768" y2="-2016" stroke-width="10" stroke="rgb(-64,216,-64)" marker-end="url(#arrow)" />
<line x1="160" y1="1512" x2="256" y2="1512" stroke-width="10" stroke="rgb(160,-232,0)" marker-end="url(#arrow)" />
<line x1="256" y1="1512" x2="320" y2="1512" stroke-width="10" stroke="rgb(160,-232,0)" marker-end="url(#arrow)" />
<line x1="320" y1="1512" x2="384" y2="1600" stroke-width="10" stroke="rgb(160,-232,0)" marker-end="url(#arrow)" />
<line x1="384" y1="1600" x2="320" y2="1696" stroke-width="10" stroke="rgb(160,-232,0)" marker-end="url(#arrow)" />
<line x1="320" y1="1696" x2="160" y2="1696" stroke-width="10" stroke="rgb(160,-232,0)" marker-end="url(#arrow)" />
<line x1="160" y1="1696" x2="96" y2="1600" stroke-width="10" stroke="rgb(160,-232,0)" marker-end="url(#arrow)" />
<line x1="96" y1="1600" x2="160" y2="1512" stroke-width="10" stroke="rgb(160,-232,0)" marker-end="url(#arrow)" />
<line x1="160" y1="1512" x2="96" y2="1600" stroke-width="10" stroke="rgb(160,-232,96)" marker-end="url(#arrow)" />
<line x1="320" y1="1696" x2="384" y2="1600" stroke-width="10" stroke="rgb(64,-160,128)" marker-end="url(#arrow)" />
<line x1="-352" y1="1696" x2="-536" y2="1512" stroke-width="10" stroke="rgb(-96,-160,-24)" marker-end="url(#arrow)" />
<line x1="96" y1="1600" x2="160" y2="1696" stroke-width="10" stroke="rgb(-96,-160,-24)" marker-end="url(#arrow)" />
<line x1="448" y1="1984" x2="-64" y2="1984" stroke-width="10" stroke="rgb(192,-192,-64)" marker-end="url(#arrow)" />
<line x1="-64" y1="1984" x2="-352" y2="1696" stroke-width="10" stroke="rgb(192,-192,-64)" marker-end="url(#arrow)" />
<line x1="572" y1="1859" x2="448" y2="1984" stroke-width="10" stroke="rgb(192,-192,-64)" marker-end="url(#arrow)" />
<line x1="160" y1="1696" x2="320" y2="1696" stroke-width="10" stroke="rgb(192,-192,-64)" marker-end="url(#arrow)" />
<line x1="-536" y1="1512" x2="-768" y2="1280" stroke-width="10" stroke="rgb(-24,-232,0)" marker-end="url(#arrow)" />
<line x1="-768" y1="1280" x2="-768" y2="456" stroke-width="10" stroke="rgb(-24,-232,0)" marker-end="url(#arrow)" />
<line x1="256" y1="1512" x2="160" y2="1512" stroke-width="10" stroke="rgb(-24,-232,0)" marker-end="url(#arrow)" />
<line x1="320" y1="1512" x2="256" y2="1512" stroke-width="10" stroke="rgb(-24,-232,0)" marker-end="url(#arrow)" />
<line x1="1152" y1="456" x2="1152" y2="1280" stroke-width="10" stroke="rgb(128,-200,128)" marker-end="url(#arrow)" />
<line x1="1152" y1="1280" x2="572" y2="1859" stroke-width="10" stroke="rgb(128,-200,128)" marker-end="url(#arrow)" />
<line x1="32" y1="456" x2="96" y2="456" stroke-width="10" stroke="rgb(128,-200,128)" marker-end="url(#arrow)" />
<line x1="288" y1="456" x2="352" y2="456" stroke-width="10" stroke="rgb(128,-200,128)" marker-end="url(#arrow)" />
<line x1="96" y1="456" x2="288" y2="456" stroke-width="10" stroke="rgb(128,-200,128)" marker-end="url(#arrow)" />
<line x1="384" y1="1600" x2="320" y2="1512" stroke-width="10" stroke="rgb(128,-200,128)" marker-end="url(#arrow)" />
<line x1="128" y1="448" x2="256" y2="448" stroke-width="10" stroke="rgb(128,-192,0)" marker-end="url(#arrow)" />
<line x1="96" y1="456" x2="96" y2="448" stroke-width="10" stroke="rgb(128,-192,0)" marker-end="url(#arrow)" />
<line x1="288" y1="448" x2="288" y2="456" stroke-width="10" stroke="rgb(128,-192,0)" marker-end="url(#arrow)" />
<line x1="288" y1="456" x2="96" y2="456" stroke-width="10" stroke="rgb(128,-192,0)" marker-end="url(#arrow)" />
<line x1="96" y1="448" x2="128" y2="448" stroke-width="10" stroke="rgb(128,-192,0)" marker-end="url(#arrow)" />
<line x1="256" y1="448" x2="288" y2="448" stroke-width="10" stroke="rgb(128,-192,0)" marker-end="url(#arrow)" />
<line x1="1152" y1="448" x2="1152" y2="456" stroke-width="10" stroke="rgb(128,-192,128)" marker-end="url(#arrow)" />
<line x1="352" y1="448" x2="1152" y2="448" stroke-width="10" stroke="rgb(128,-192,128)" marker-end="url(#arrow)" />
<line x1="352" y1="456" x2="352" y2="448" stroke-width="10" stroke="rgb(128,-192,128)" marker-end="url(#arrow)" />
<line x1="288" y1="448" x2="352" y2="448" stroke-width="10" stroke="rgb(32,-192,96)" marker-end="url(#arrow)" />
<line x1="288" y1="456" x2="288" y2="448" stroke-width="10" stroke="rgb(32,-192,96)" marker-end="url(#arrow)" />
<line x1="352" y1="456" x2="288" y2="456" stroke-width="10" stroke="rgb(32,-192,96)" marker-end="url(#arrow)" />
<line x1="352" y1="448" x2="352" y2="456" stroke-width="10" stroke="rgb(32,-192,96)" marker-end="url(#arrow)" />
<line x1="-768" y1="456" x2="-768" y2="448" stroke-width="10" stroke="rgb(0,-200,0)" marker-end="url(#arrow)" />
<line x1="-768" y1="448" x2="32" y2="448" stroke-width="10" stroke="rgb(0,-200,0)" marker-end="url(#arrow)" />
<line x1="32" y1="448" x2="32" y2="456" stroke-width="10" stroke="rgb(0,-200,0)" marker-end="url(#arrow)" />
<line x1="32" y1="448" x2="96" y2="448" stroke-width="10" stroke="rgb(32,-192,96)" marker-end="url(#arrow)" />
<line x1="32" y1="456" x2="32" y2="448" stroke-width="10" stroke="rgb(32,-192,96)" marker-end="url(#arrow)" />
<line x1="96" y1="456" x2="32" y2="456" stroke-width="10" stroke="rgb(32,-192,96)" marker-end="url(#arrow)" />
<line x1="96" y1="448" x2="96" y2="456" stroke-width="10" stroke="rgb(32,-192,96)" marker-end="url(#arrow)" />
<line x1="128" y1="416" x2="128" y2="128" stroke-width="10" stroke="rgb(128,-160,128)" marker-end="url(#arrow)" />
<line x1="256" y1="192" x2="256" y2="416" stroke-width="10" stroke="rgb(128,-160,128)" marker-end="url(#arrow)" />
<line x1="256" y1="416" x2="128" y2="416" stroke-width="10" stroke="rgb(128,-160,128)" marker-end="url(#arrow)" />
<line x1="192" y1="-64" x2="256" y2="64" stroke-width="10" stroke="rgb(128,-160,128)" marker-end="url(#arrow)" />
<line x1="256" y1="64" x2="256" y2="192" stroke-width="10" stroke="rgb(128,-160,128)" marker-end="url(#arrow)" />
<line x1="256" y1="448" x2="128" y2="448" stroke-width="10" stroke="rgb(0,-192,128)" marker-end="url(#arrow)" />
<line x1="128" y1="448" x2="128" y2="432" stroke-width="10" stroke="rgb(0,-192,128)" marker-end="url(#arrow)" />
<line x1="256" y1="432" x2="256" y2="448" stroke-width="10" stroke="rgb(0,-192,128)" marker-end="url(#arrow)" />
<line x1="128" y1="432" x2="256" y2="432" stroke-width="10" stroke="rgb(0,-192,128)" marker-end="url(#arrow)" />
<line x1="128" y1="432" x2="128" y2="416" stroke-width="10" stroke="rgb(128,-176,128)" marker-end="url(#arrow)" />
<line x1="256" y1="416" x2="256" y2="432" stroke-width="10" stroke="rgb(128,-176,128)" marker-end="url(#arrow)" />
<line x1="256" y1="432" x2="128" y2="432" stroke-width="10" stroke="rgb(128,-176,128)" marker-end="url(#arrow)" />
<line x1="128" y1="416" x2="256" y2="416" stroke-width="10" stroke="rgb(128,-176,128)" marker-end="url(#arrow)" />
<line x1="384" y1="0" x2="384" y2="-64" stroke-width="10" stroke="rgb(128,0,128)" marker-end="url(#arrow)" />
<line x1="384" y1="-64" x2="512" y2="-64" stroke-width="10" stroke="rgb(128,0,128)" marker-end="url(#arrow)" />
<line x1="512" y1="-64" x2="512" y2="32" stroke-width="10" stroke="rgb(128,0,128)" marker-end="url(#arrow)" />
<line x1="512" y1="32" x2="384" y2="192" stroke-width="10" stroke="rgb(128,0,128)" marker-end="url(#arrow)" />
<line x1="256" y1="64" x2="320" y2="64" stroke-width="10" stroke="rgb(0,-64,64)" marker-end="url(#arrow)" />
<line x1="384" y1="192" x2="320" y2="192" stroke-width="10" stroke="rgb(0,-64,64)" marker-end="url(#arrow)" />
<line x1="320" y1="192" x2="256" y2="192" stroke-width="10" stroke="rgb(0,-64,64)" marker-end="url(#arrow)" />
<line x1="256" y1="192" x2="256" y2="64" stroke-width="10" stroke="rgb(0,-64,64)" marker-end="url(#arrow)" />
<line x1="320" y1="64" x2="384" y2="0" stroke-width="10" stroke="rgb(64,-64,128)" marker-end="url(#arrow)" />
<line x1="0" y1="256" x2="-192" y2="256" stroke-width="10" stroke="rgb(0,0,-192)" marker-end="url(#arrow)" />
<line x1="0" y1="64" x2="0" y2="256" stroke-width="10" stroke="rgb(0,0,-192)" marker-end="url(#arrow)" />
<line x1="-192" y1="192" x2="0" y2="64" stroke-width="10" stroke="rgb(0,0,-192)" marker-end="url(#arrow)" />
<line x1="-128" y1="0" x2="-192" y2="96" stroke-width="10" stroke="rgb(-128,0,-192)" marker-end="url(#arrow)" />
<line x1="-192" y1="96" x2="-128" y2="0" stroke-width="10" stroke="rgb(-192,-96,-128)" marker-end="url(#arrow)" />
<line x1="-128" y1="0" x2="0" y2="64" stroke-width="10" stroke="rgb(-192,-96,-128)" marker-end="url(#arrow)" />
<line x1="-192" y1="192" x2="-192" y2="96" stroke-width="10" stroke="rgb(-192,-96,-128)" marker-end="url(#arrow)" />
<line x1="0" y1="64" x2="-192" y2="192" stroke-width="10" stroke="rgb(-192,-96,-128)" marker-end="url(#arrow)" />
<line x1="-832" y1="256" x2="-885" y2="192" stroke-width="10" stroke="rgb(-64,0,-117)" marker-end="url(#arrow)" />
<line x1="-192" y1="256" x2="-832" y2="256" stroke-width="10" stroke="rgb(-64,0,-117)" marker-end="url(#arrow)" />
<line x1="-704" y1="192" x2="-192" y2="192" stroke-width="10" stroke="rgb(-64,0,-117)" marker-end="url(#arrow)" />
<line x1="-768" y1="96" x2="-896" y2="-64" stroke-width="10" stroke="rgb(0,-96,-128)" marker-end="url(#arrow)" />
<line x1="-592" y1="160" x2="-768" y2="96" stroke-width="10" stroke="rgb(0,-96,-128)" marker-end="url(#arrow)" />
<line x1="-392" y1="152" x2="-592" y2="160" stroke-width="10" stroke="rgb(0,-96,-128)" marker-end="url(#arrow)" />
<line x1="-192" y1="96" x2="-392" y2="152" stroke-width="10" stroke="rgb(0,-96,-128)" marker-end="url(#arrow)" />
<line x1="-256" y1="-64" x2="-192" y2="96" stroke-width="10" stroke="rgb(0,-96,-128)" marker-end="url(#arrow)" />
<line x1="-352" y1="-64" x2="-256" y2="-64" stroke-width="10" stroke="rgb(0,-96,-128)" marker-end="url(#arrow)" />
<line x1="-885" y1="192" x2="-1098" y2="-64" stroke-width="10" stroke="rgb(-117,-192,-74)" marker-end="url(#arrow)" />
<line x1="-960" y1="-64" x2="-704" y2="192" stroke-width="10" stroke="rgb(-117,-192,-74)" marker-end="url(#arrow)" />
<line x1="-192" y1="96" x2="-256" y2="-64" stroke-width="10" stroke="rgb(-192,-96,0)" marker-end="url(#arrow)" />
<line x1="128" y1="128" x2="96" y2="64" stroke-width="10" stroke="rgb(128,-128,96)" marker-end="url(#arrow)" />
<line x1="96" y1="64" x2="0" y2="-32" stroke-width="10" stroke="rgb(96,-64,0)" marker-end="url(#arrow)" />
<line x1="0" y1="-32" x2="-64" y2="-64" stroke-width="10" stroke="rgb(0,32,-64)" marker-end="url(#arrow)" />
<line x1="-128" y1="-64" x2="-128" y2="0" stroke-width="10" stroke="rgb(-128,64,-128)" marker-end="url(#arrow)" />

</svg>

