<svg width="900" height="1700" preserveAspectRatio="none" viewBox="-1282 -2498 2564 4612"
 xmlns="http://www.w3.org/2000/svg" xmlns:xlink="http://www.w3.org/1999/xlink">
   <defs>
    <marker id="arrow" markerWidth="10" markerHeight="10" refX="0" refY="2" orient="auto" markerUnits="strokeWidth">
      <path d="M0,0 L0,4 L5,3 z" fill="#f00" />
    </marker>
  </defs>

<line x1="-248" y1="-192" x2="-256" y2="-64" stroke-width="10" stroke="black"/>
<line x1="-64" y1="-64" x2="-64" y2="-192" stroke-width="10" stroke="black"/>
<line x1="-128" y1="-192" x2="-128" y2="-64" stroke-width="10" stroke="black"/>
<line x1="-128" y1="-960" x2="0" y2="-960" stroke-width="10" stroke="black"/>
<line x1="-248" y1="-896" x2="-320" y2="-1024" stroke-width="10" stroke="black"/>
<line x1="0" y1="-208" x2="-64" y2="-208" stroke-width="10" stroke="black"/>
<line x1="-128" y1="-256" x2="-248" y2="-192" stroke-width="10" stroke="black"/>
<line x1="-352" y1="-526" x2="-288" y2="-504" stroke-width="10" stroke="black"/>
<line x1="-64" y1="-192" x2="-64" y2="-208" stroke-width="10" stroke="black"/>
<line x1="0" y1="-896" x2="-248" y2="-896" stroke-width="10" stroke="black"/>
<line x1="-128" y1="-192" x2="-64" y2="-192" stroke-width="10" stroke="black"/>
<line x1="832" y1="-512" x2="768" y2="-512" stroke-width="10" stroke="black"/>
<line x1="768" y1="-512" x2="288" y2="-232" stroke-width="10" stroke="black"/>
<line x1="200" y1="-832" x2="704" y2="-832" stroke-width="10" stroke="black"/>
<line x1="0" y1="-192" x2="128" y2="-128" stroke-width="10" stroke="black"/>
<line x1="163" y1="-92" x2="191" y2="-64" stroke-width="10" stroke="black"/>
<line x1="576" y1="-96" x2="512" y2="-96" stroke-width="10" stroke="black"/>
<line x1="832" y1="-448" x2="320" y2="-176" stroke-width="10" stroke="black"/>
<line x1="864" y1="-448" x2="864" y2="-512" stroke-width="10" stroke="black"/>
<line x1="856" y1="-512" x2="856" y2="-448" stroke-width="10" stroke="black"/>
<line x1="896" y1="-512" x2="896" y2="-832" stroke-width="10" stroke="black"/>
<line x1="832" y1="-512" x2="856" y2="-512" stroke-width="10" stroke="black"/>
<line x1="832" y1="-512" x2="832" y2="-448" stroke-width="10" stroke="black"/>
<line x1="0" y1="-208" x2="0" y2="-192" stroke-width="10" stroke="black"/>
<line x1="-504" y1="-112" x2="-352" y2="-64" stroke-width="10" stroke="black"/>
<line x1="-352" y1="-192" x2="-448" y2="-216" stroke-width="10" stroke="black"/>
<line x1="-680" y1="-200" x2="-504" y2="-112" stroke-width="10" stroke="black"/>
<line x1="-448" y1="-216" x2="-568" y2="-280" stroke-width="10" stroke="black"/>
<line x1="-504" y1="-112" x2="-448" y2="-216" stroke-width="10" stroke="black"/>
<line x1="-984" y1="-320" x2="-960" y2="-64" stroke-width="10" stroke="black"/>
<line x1="-896" y1="-64" x2="-960" y2="-320" stroke-width="10" stroke="black"/>
<line x1="-568" y1="-280" x2="-648" y2="-360" stroke-width="10" stroke="black"/>
<line x1="-752" y1="-288" x2="-680" y2="-200" stroke-width="10" stroke="black"/>
<line x1="-832" y1="-448" x2="-752" y2="-288" stroke-width="10" stroke="black"/>
<line x1="-648" y1="-360" x2="-704" y2="-448" stroke-width="10" stroke="black"/>
<line x1="-752" y1="-288" x2="-648" y2="-360" stroke-width="10" stroke="black"/>
<line x1="-704" y1="-448" x2="-704" y2="-576" stroke-width="10" stroke="black"/>
<line x1="-832" y1="-448" x2="-704" y2="-448" stroke-width="10" stroke="black"/>
<line x1="-832" y1="-576" x2="-832" y2="-448" stroke-width="10" stroke="black"/>
<line x1="-680" y1="-200" x2="-568" y2="-280" stroke-width="10" stroke="black"/>
<line x1="-768" y1="-1088" x2="-352" y2="-1088" stroke-width="10" stroke="black"/>
<line x1="-704" y1="-640" x2="-832" y2="-640" stroke-width="10" stroke="black"/>
<line x1="-352" y1="-736" x2="-608" y2="-736" stroke-width="10" stroke="black"/>
<line x1="-608" y1="-800" x2="-352" y2="-800" stroke-width="10" stroke="black"/>
<line x1="-704" y1="-640" x2="-704" y2="-576" stroke-width="10" stroke="black"/>
<line x1="-352" y1="-1024" x2="-832" y2="-1024" stroke-width="10" stroke="black"/>
<line x1="-768" y1="-1152" x2="-832" y2="-1152" stroke-width="10" stroke="black"/>
<line x1="-768" y1="-1744" x2="-768" y2="-1720" stroke-width="10" stroke="black"/>
<line x1="-832" y1="-1720" x2="-832" y2="-1744" stroke-width="10" stroke="black"/>
<line x1="-832" y1="-1136" x2="-768" y2="-1136" stroke-width="10" stroke="black"/>
<line x1="-704" y1="-576" x2="-496" y2="-576" stroke-width="10" stroke="black"/>
<line x1="-352" y1="-64" x2="-352" y2="-192" stroke-width="10" stroke="black"/>
<line x1="-768" y1="-1792" x2="-768" y2="-1760" stroke-width="10" stroke="black"/>
<line x1="-768" y1="-1760" x2="-832" y2="-1760" stroke-width="10" stroke="black"/>
<line x1="-896" y1="-1856" x2="-896" y2="-1920" stroke-width="10" stroke="black"/>
<line x1="-904" y1="-1920" x2="-904" y2="-1856" stroke-width="10" stroke="black"/>
<line x1="-832" y1="-1744" x2="-832" y2="-1760" stroke-width="10" stroke="black"/>
<line x1="-768" y1="-2240" x2="-832" y2="-2240" stroke-width="10" stroke="black"/>
<line x1="-832" y1="-2176" x2="-768" y2="-2176" stroke-width="10" stroke="black"/>
<line x1="-768" y1="-2176" x2="-768" y2="-2240" stroke-width="10" stroke="black"/>
<line x1="-832" y1="-2240" x2="-832" y2="-2176" stroke-width="10" stroke="black"/>
<line x1="-832" y1="-2016" x2="-896" y2="-2016" stroke-width="10" stroke="black"/>
<line x1="-832" y1="-2008" x2="-768" y2="-2008" stroke-width="10" stroke="black"/>
<line x1="-832" y1="-1744" x2="-768" y2="-1744" stroke-width="10" stroke="black"/>
<line x1="96" y1="1600" x2="160" y2="1512" stroke-width="10" stroke="black"/>
<line x1="384" y1="1600" x2="320" y2="1696" stroke-width="10" stroke="black"/>
<line x1="160" y1="1696" x2="96" y2="1600" stroke-width="10" stroke="black"/>
<line x1="320" y1="1696" x2="160" y2="1696" stroke-width="10" stroke="black"/>
<line x1="160" y1="1512" x2="256" y2="1512" stroke-width="10" stroke="black"/>
<line x1="320" y1="1512" x2="384" y2="1600" stroke-width="10" stroke="black"/>
<line x1="352" y1="456" x2="352" y2="448" stroke-width="10" stroke="black"/>
<line x1="288" y1="448" x2="288" y2="456" stroke-width="10" stroke="black"/>
<line x1="32" y1="448" x2="32" y2="456" stroke-width="10" stroke="black"/>
<line x1="96" y1="456" x2="96" y2="448" stroke-width="10" stroke="black"/>
<line x1="32" y1="456" x2="96" y2="456" stroke-width="10" stroke="black"/>
<line x1="128" y1="432" x2="256" y2="432" stroke-width="10" stroke="black"/>
<line x1="256" y1="416" x2="128" y2="416" stroke-width="10" stroke="black"/>
<line x1="256" y1="64" x2="320" y2="64" stroke-width="10" stroke="black"/>
<line x1="384" y1="0" x2="384" y2="-64" stroke-width="10" stroke="black"/>
<line x1="256" y1="432" x2="256" y2="448" stroke-width="10" stroke="black"/>
<line x1="-128" y1="0" x2="-192" y2="96" stroke-width="10" stroke="black"/>
<line x1="-192" y1="192" x2="0" y2="64" stroke-width="10" stroke="black"/>
<line x1="-768" y1="96" x2="-896" y2="-64" stroke-width="10" stroke="black"/>
<line x1="-704" y1="192" x2="-192" y2="192" stroke-width="10" stroke="black"/>
<line x1="-256" y1="-64" x2="-192" y2="96" stroke-width="10" stroke="black"/>
<line x1="-192" y1="192" x2="-192" y2="96" stroke-width="10" stroke="black"/>
<line x1="0" y1="-32" x2="-64" y2="-64" stroke-width="10" stroke="black"/>
<line x1="96" y1="64" x2="0" y2="-32" stroke-width="10" stroke="black"/>
<line x1="128" y1="128" x2="96" y2="64" stroke-width="10" stroke="black"/>
<line x1="-128" y1="0" x2="0" y2="64" stroke-width="10" stroke="black"/>
<line x1="128" y1="416" x2="128" y2="128" stroke-width="10" stroke="black"/>
<line x1="-768" y1="448" x2="32" y2="448" stroke-width="10" stroke="black"/>
<line x1="-256" y1="-64" x2="-352" y2="-64" stroke-width="10" stroke="black"/>

</svg>

