<svg width="900" height="1363" preserveAspectRatio="none" viewBox="-698 -3586 3132 4612"
 xmlns="http://www.w3.org/2000/svg" xmlns:xlink="http://www.w3.org/1999/xlink">
   <defs>
    <marker id="arrow" markerWidth="10" markerHeight="10" refX="0" refY="2" orient="auto" markerUnits="strokeWidth">
      <path d="M0,0 L0,4 L5,3 z" fill="#f00" />
    </marker>
  </defs>

<polygon points="816,-2288 816,-2288 975,-2240 816,-2240 816,-2240 816,-2288 " fill="rgb(22,239,22)" stroke="rgb(70,70,70)" stroke-width="10" stroke-linecap="round" />
<polygon points="880,-2240 880,-2240 975,-2240 981,-2238 1039,-2216 1046,-2184 880,-2184 880,-2240 " fill="rgb(22,239,22)" stroke="rgb(70,70,70)" stroke-width="10" stroke-linecap="round" />
<polygon points="880,-2232 880,-2184 880,-2184 816,-2184 816,-2184 816,-2232 " fill="rgb(232,15,232)" stroke="rgb(70,70,70)" stroke-width="10" stroke-linecap="round" />
<polygon points="816,-2288 941,-2556 976,-2539 976,-2240 976,-2240 816,-2288 816,-2288 " fill="rgb(3,3,220)" stroke="rgb(70,70,70)" stroke-width="10" stroke-linecap="round" />
<polygon points="984,-2423 1015,-2447 1032,-2408 1032,-2408 1008,-2384 1008,-2384 1008,-2384 " fill="rgb(22,239,22)" stroke="rgb(70,70,70)" stroke-width="10" stroke-linecap="round" />
<polygon points="1008,-2384 976,-2352 976,-2418 984,-2423 1008,-2384 " fill="rgb(3,3,220)" stroke="rgb(70,70,70)" stroke-width="10" stroke-linecap="round" />
<polygon points="1014,-2447 976,-2418 976,-2418 976,-2539 980,-2536 " fill="rgb(3,3,220)" stroke="rgb(70,70,70)" stroke-width="10" stroke-linecap="round" />
<polygon points="1032,-2408 1032,-2408 981,-2535 1100,-2476 " fill="rgb(232,15,232)" stroke="rgb(70,70,70)" stroke-width="10" stroke-linecap="round" />
<polygon points="1100,-2476 1111,-2470 1040,-2256 976,-2256 976,-2352 1100,-2476 " fill="rgb(26,243,243)" stroke="rgb(70,70,70)" stroke-width="10" stroke-linecap="round" />
<polygon points="1183,-2679 1119,-2496 952,-2579 1055,-2799 " fill="rgb(232,15,232)" stroke="rgb(70,70,70)" stroke-width="10" stroke-linecap="round" />
<polygon points="951,-2578 1007,-2551 999,-2527 941,-2556 " fill="rgb(3,3,220)" stroke="rgb(70,70,70)" stroke-width="10" stroke-linecap="round" />
<polygon points="1119,-2494 1111,-2470 999,-2527 1007,-2550 " fill="rgb(3,3,220)" stroke="rgb(70,70,70)" stroke-width="10" stroke-linecap="round" />
<polygon points="1056,-2799 1110,-2832 1186,-2681 1184,-2679 " fill="rgb(232,15,232)" stroke="rgb(70,70,70)" stroke-width="10" stroke-linecap="round" />
<polygon points="816,-3094 816,-3400 831,-3392 896,-3261 903,-3135 " fill="rgb(228,11,11)" stroke="rgb(70,70,70)" stroke-width="10" stroke-linecap="round" />
<polygon points="880,-2048 896,-2048 896,-1856 880,-1912 880,-1912 880,-2048 880,-2048 880,-2048 880,-2048 " fill="rgb(26,243,243)" stroke="rgb(70,70,70)" stroke-width="10" stroke-linecap="round" />
<polygon points="896,-1856 896,-1856 896,-1844 896,-1844 880,-1848 880,-1912 " fill="rgb(22,239,22)" stroke="rgb(70,70,70)" stroke-width="10" stroke-linecap="round" />
<polygon points="880,-1912 880,-1912 880,-1848 816,-1866 816,-1912 816,-1912 " fill="rgb(22,239,22)" stroke="rgb(70,70,70)" stroke-width="10" stroke-linecap="round" />
<polygon points="880,-1984 880,-1984 880,-1920 880,-1920 816,-1920 816,-1984 816,-1984 " fill="rgb(232,15,232)" stroke="rgb(70,70,70)" stroke-width="10" stroke-linecap="round" />
<polygon points="880,-2048 880,-2048 880,-1992 880,-1992 816,-1992 816,-2048 816,-2048 " fill="rgb(251,251,34)" stroke="rgb(70,70,70)" stroke-width="10" stroke-linecap="round" />
<polygon points="880,-2112 880,-2112 880,-2112 896,-2112 896,-2048 880,-2048 " fill="rgb(3,3,220)" stroke="rgb(70,70,70)" stroke-width="10" stroke-linecap="round" />
<polygon points="880,-2112 880,-2112 880,-2056 880,-2056 816,-2056 816,-2112 816,-2112 " fill="rgb(232,15,232)" stroke="rgb(70,70,70)" stroke-width="10" stroke-linecap="round" />
<polygon points="880,-2184 880,-2184 896,-2184 896,-2112 880,-2112 880,-2184 880,-2184 " fill="rgb(3,3,220)" stroke="rgb(70,70,70)" stroke-width="10" stroke-linecap="round" />
<polygon points="880,-2120 880,-2120 816,-2120 816,-2176 880,-2176 " fill="rgb(232,15,232)" stroke="rgb(70,70,70)" stroke-width="10" stroke-linecap="round" />
<polygon points="896,-1968 896,-2184 1040,-2184 896,-1968 " fill="rgb(251,251,34)" stroke="rgb(70,70,70)" stroke-width="10" stroke-linecap="round" />
<polygon points="1039,-1959 1008,-1935 959,-1976 975,-2014 1032,-1998 " fill="rgb(26,243,243)" stroke="rgb(70,70,70)" stroke-width="10" stroke-linecap="round" />
<polygon points="916,-1867 959,-1976 1008,-1935 " fill="rgb(3,3,220)" stroke="rgb(70,70,70)" stroke-width="10" stroke-linecap="round" />
<polygon points="1032,-1997 1075,-1986 1040,-1959 " fill="rgb(22,239,22)" stroke="rgb(70,70,70)" stroke-width="10" stroke-linecap="round" />
<polygon points="896,-1968 935,-2027 975,-2015 916,-1867 901,-1856 896,-1856 896,-1856 " fill="rgb(22,239,22)" stroke="rgb(70,70,70)" stroke-width="10" stroke-linecap="round" />
<polygon points="1112,-1856 901,-1856 988,-1921 1075,-1986 1086,-1982 " fill="rgb(26,243,243)" stroke="rgb(70,70,70)" stroke-width="10" stroke-linecap="round" />
<polygon points="1065,-2088 1084,-1984 935,-2027 975,-2088 1065,-2088 " fill="rgb(22,239,22)" stroke="rgb(70,70,70)" stroke-width="10" stroke-linecap="round" />
<polygon points="1046,-2184 1065,-2088 1040,-2088 1040,-2088 1007,-2136 1040,-2184 " fill="rgb(232,15,232)" stroke="rgb(70,70,70)" stroke-width="10" stroke-linecap="round" />
<polygon points="976,-2088 1007,-2135 1040,-2088 1040,-2088 " fill="rgb(3,3,220)" stroke="rgb(70,70,70)" stroke-width="10" stroke-linecap="round" />
<polygon points="939,-1832 1112,-1832 1112,-1832 1136,-1778 " fill="rgb(228,11,11)" stroke="rgb(70,70,70)" stroke-width="10" stroke-linecap="round" />
<polygon points="1112,-1856 1112,-1856 1112,-1832 939,-1832 939,-1832 904,-1841 904,-1856 " fill="rgb(26,243,243)" stroke="rgb(70,70,70)" stroke-width="10" stroke-linecap="round" />
<polygon points="2144,-1536 2130,-1507 2024,-1536 2144,-1536 " fill="rgb(22,239,22)" stroke="rgb(70,70,70)" stroke-width="10" stroke-linecap="round" />
<polygon points="1760,-1888 1728,-1856 1728,-1856 1696,-1856 1696,-1856 1680,-1920 1728,-1920 1728,-1920 1760,-1888 " fill="rgb(232,15,232)" stroke="rgb(70,70,70)" stroke-width="10" stroke-linecap="round" />
<polygon points="1728,-1920 1792,-1920 1760,-1888 1728,-1920 " fill="rgb(22,239,22)" stroke="rgb(70,70,70)" stroke-width="10" stroke-linecap="round" />
<polygon points="1728,-1856 1728,-1856 1703,-1831 1696,-1856 " fill="rgb(251,251,34)" stroke="rgb(70,70,70)" stroke-width="10" stroke-linecap="round" />
<polygon points="2024,-1536 2024,-1536 1770,-1604 1703,-1831 1792,-1920 1792,-1920 1923,-1920 2144,-1536 " fill="rgb(228,11,11)" stroke="rgb(70,70,70)" stroke-width="10" stroke-linecap="round" />
<polygon points="1923,-1920 1679,-1920 1679,-1920 1661,-1992 1880,-1992 1880,-1992 " fill="rgb(26,243,243)" stroke="rgb(70,70,70)" stroke-width="10" stroke-linecap="round" />
<polygon points="1867,-2016 1655,-2016 1655,-2016 1647,-2050 1808,-2119 " fill="rgb(251,251,34)" stroke="rgb(70,70,70)" stroke-width="10" stroke-linecap="round" />
<polygon points="1881,-1992 1840,-1992 1840,-2016 1840,-2016 1867,-2016 " fill="rgb(26,243,243)" stroke="rgb(70,70,70)" stroke-width="10" stroke-linecap="round" />
<polygon points="1688,-1992 1661,-1992 1655,-2016 1688,-2016 1688,-1992 " fill="rgb(228,11,11)" stroke="rgb(70,70,70)" stroke-width="10" stroke-linecap="round" />
<polygon points="1688,-2016 1840,-2016 1840,-2016 1840,-1992 1840,-1992 1688,-1992 1688,-1992 1688,-2016 " fill="rgb(26,243,243)" stroke="rgb(70,70,70)" stroke-width="10" stroke-linecap="round" />
<polygon points="1673,-1942 1640,-2047 1647,-2050 " fill="rgb(26,243,243)" stroke="rgb(70,70,70)" stroke-width="10" stroke-linecap="round" />
<polygon points="1680,-1914 1680,-1856 1680,-1856 1664,-1920 1678,-1920 1678,-1920 " fill="rgb(26,243,243)" stroke="rgb(70,70,70)" stroke-width="10" stroke-linecap="round" />
<polygon points="1664,-1920 1663,-1920 1659,-1936 1664,-1936 " fill="rgb(3,3,220)" stroke="rgb(70,70,70)" stroke-width="10" stroke-linecap="round" />
<polygon points="1671,-1840 1647,-1936 1659,-1936 1680,-1856 1680,-1856 1680,-1840 " fill="rgb(22,239,22)" stroke="rgb(70,70,70)" stroke-width="10" stroke-linecap="round" />
<polygon points="1694,-1856 1680,-1856 1680,-1914 " fill="rgb(26,243,243)" stroke="rgb(70,70,70)" stroke-width="10" stroke-linecap="round" />
<polygon points="1327,-2871 1295,-2824 1264,-2832 1264,-2832 1264,-2872 1295,-2911 " fill="rgb(26,243,243)" stroke="rgb(70,70,70)" stroke-width="10" stroke-linecap="round" />
<polygon points="1264,-2776 1264,-2832 1264,-2832 1295,-2824 " fill="rgb(26,243,243)" stroke="rgb(70,70,70)" stroke-width="10" stroke-linecap="round" />
<polygon points="1264,-2735 1264,-2776 1264,-2776 1327,-2870 1374,-2812 " fill="rgb(228,11,11)" stroke="rgb(70,70,70)" stroke-width="10" stroke-linecap="round" />
<polygon points="1264,-2734 1185,-2681 1157,-2739 1264,-2873 1264,-2734 " fill="rgb(22,239,22)" stroke="rgb(70,70,70)" stroke-width="10" stroke-linecap="round" />
<polygon points="1295,-2912 1342,-2970 1468,-3045 1551,-2935 1375,-2812 " fill="rgb(251,251,34)" stroke="rgb(70,70,70)" stroke-width="10" stroke-linecap="round" />
<polygon points="1343,-2971 1157,-2739 1110,-2832 " fill="rgb(3,3,220)" stroke="rgb(70,70,70)" stroke-width="10" stroke-linecap="round" />
<polygon points="1496,-3063 1640,-3119 1671,-3072 1576,-2951 " fill="rgb(26,243,243)" stroke="rgb(70,70,70)" stroke-width="10" stroke-linecap="round" />
<polygon points="1472,-3048 1490,-3024 1490,-3024 1530,-2964 1468,-3045 " fill="rgb(26,243,243)" stroke="rgb(70,70,70)" stroke-width="10" stroke-linecap="round" />
<polygon points="1472,-3048 1473,-3049 1490,-3024 1472,-3048 " fill="rgb(232,15,232)" stroke="rgb(70,70,70)" stroke-width="10" stroke-linecap="round" />
<polygon points="1533,-2959 1473,-3049 1495,-3063 1574,-2951 1551,-2935 " fill="rgb(26,243,243)" stroke="rgb(70,70,70)" stroke-width="10" stroke-linecap="round" />
<polygon points="488,-2912 488,-2912 488,-2912 519,-2958 552,-2912 552,-2912 488,-2912 " fill="rgb(251,251,34)" stroke="rgb(70,70,70)" stroke-width="10" stroke-linecap="round" />
<polygon points="488,-2912 488,-2912 453,-2912 501,-2988 519,-2959 " fill="rgb(232,15,232)" stroke="rgb(70,70,70)" stroke-width="10" stroke-linecap="round" />
<polygon points="613,-2912 552,-2912 552,-2912 501,-2987 543,-3054 649,-3003 " fill="rgb(26,243,243)" stroke="rgb(70,70,70)" stroke-width="10" stroke-linecap="round" />
<polygon points="512,-2912 512,-2912 528,-2912 536,-2856 536,-2856 504,-2856 504,-2856 " fill="rgb(232,15,232)" stroke="rgb(70,70,70)" stroke-width="10" stroke-linecap="round" />
<polygon points="528,-2912 613,-2912 613,-2912 591,-2856 536,-2856 528,-2912 " fill="rgb(251,251,34)" stroke="rgb(70,70,70)" stroke-width="10" stroke-linecap="round" />
<polygon points="503,-2856 591,-2856 591,-2856 527,-2687 475,-2659 " fill="rgb(251,251,34)" stroke="rgb(70,70,70)" stroke-width="10" stroke-linecap="round" />
<polygon points="320,-2697 320,-2697 453,-2912 512,-2912 512,-2912 512,-2912 475,-2659 320,-2577 " fill="rgb(251,251,34)" stroke="rgb(70,70,70)" stroke-width="10" stroke-linecap="round" />
<polygon points="320,-2720 500,-2987 320,-2697 320,-2720 " fill="rgb(228,11,11)" stroke="rgb(70,70,70)" stroke-width="10" stroke-linecap="round" />
<polygon points="649,-3003 655,-2999 620,-2928 " fill="rgb(22,239,22)" stroke="rgb(70,70,70)" stroke-width="10" stroke-linecap="round" />
<polygon points="664,-3016 552,-3072 591,-3143 695,-3087 " fill="rgb(251,251,34)" stroke="rgb(70,70,70)" stroke-width="10" stroke-linecap="round" />
<polygon points="656,-3000 544,-3056 552,-3072 664,-3016 " fill="rgb(228,11,11)" stroke="rgb(70,70,70)" stroke-width="10" stroke-linecap="round" />
<polygon points="575,-3391 704,-3456 704,-3456 816,-3400 816,-3208 712,-3104 712,-3104 590,-3160 511,-3263 " fill="rgb(228,11,11)" stroke="rgb(70,70,70)" stroke-width="10" stroke-linecap="round" />
<polygon points="712,-3104 712,-3104 696,-3088 696,-3088 592,-3143 592,-3159 " fill="rgb(26,243,243)" stroke="rgb(70,70,70)" stroke-width="10" stroke-linecap="round" />
<polygon points="768,-3072 712,-3104 816,-3208 816,-3094 " fill="rgb(26,243,243)" stroke="rgb(70,70,70)" stroke-width="10" stroke-linecap="round" />
<polygon points="608,-2096 608,-2096 765,-1880 420,-1974 383,-2087 392,-2096 608,-2096 " fill="rgb(22,239,22)" stroke="rgb(70,70,70)" stroke-width="10" stroke-linecap="round" />
<polygon points="608,-2096 512,-2096 512,-2096 512,-2192 512,-2192 592,-2192 592,-2192 " fill="rgb(228,11,11)" stroke="rgb(70,70,70)" stroke-width="10" stroke-linecap="round" />
<polygon points="368,-2192 512,-2192 512,-2192 512,-2104 392,-2104 376,-2120 " fill="rgb(232,15,232)" stroke="rgb(70,70,70)" stroke-width="10" stroke-linecap="round" />
<polygon points="480,-2280 480,-2192 480,-2192 368,-2192 359,-2271 368,-2280 480,-2280 " fill="rgb(228,11,11)" stroke="rgb(70,70,70)" stroke-width="10" stroke-linecap="round" />
<polygon points="592,-2200 480,-2200 480,-2280 578,-2280 " fill="rgb(3,3,220)" stroke="rgb(70,70,70)" stroke-width="10" stroke-linecap="round" />
<polygon points="560,-2392 578,-2280 488,-2280 488,-2392 488,-2392 560,-2392 " fill="rgb(26,243,243)" stroke="rgb(70,70,70)" stroke-width="10" stroke-linecap="round" />
<polygon points="351,-2392 488,-2392 488,-2392 488,-2288 368,-2288 360,-2304 " fill="rgb(228,11,11)" stroke="rgb(70,70,70)" stroke-width="10" stroke-linecap="round" />
<polygon points="440,-2480 440,-2392 440,-2392 351,-2392 343,-2471 352,-2480 440,-2480 " fill="rgb(232,15,232)" stroke="rgb(70,70,70)" stroke-width="10" stroke-linecap="round" />
<polygon points="440,-2400 440,-2480 548,-2480 560,-2408 552,-2400 " fill="rgb(26,243,243)" stroke="rgb(70,70,70)" stroke-width="10" stroke-linecap="round" />
<polygon points="472,-2536 416,-2560 416,-2560 416,-2616 416,-2616 527,-2671 536,-2536 472,-2536 " fill="rgb(228,11,11)" stroke="rgb(70,70,70)" stroke-width="10" stroke-linecap="round" />
<polygon points="472,-2536 472,-2536 416,-2536 416,-2560 " fill="rgb(232,15,232)" stroke="rgb(70,70,70)" stroke-width="10" stroke-linecap="round" />
<polygon points="480,-2536 536,-2536 541,-2480 480,-2480 480,-2536 " fill="rgb(251,251,34)" stroke="rgb(70,70,70)" stroke-width="10" stroke-linecap="round" />
<polygon points="416,-2488 416,-2536 472,-2536 472,-2488 " fill="rgb(22,239,22)" stroke="rgb(70,70,70)" stroke-width="10" stroke-linecap="round" />
<polygon points="408,-2560 416,-2560 416,-2488 352,-2488 408,-2560 " fill="rgb(232,15,232)" stroke="rgb(70,70,70)" stroke-width="10" stroke-linecap="round" />
<polygon points="320,-2577 408,-2623 408,-2560 383,-2527 351,-2488 320,-2496 320,-2577 " fill="rgb(26,243,243)" stroke="rgb(70,70,70)" stroke-width="10" stroke-linecap="round" />
<polygon points="551,-2560 543,-2671 592,-2704 640,-2704 640,-2560 " fill="rgb(232,15,232)" stroke="rgb(70,70,70)" stroke-width="10" stroke-linecap="round" />
<polygon points="548,-2480 541,-2480 534,-2570 548,-2480 " fill="rgb(3,3,220)" stroke="rgb(70,70,70)" stroke-width="10" stroke-linecap="round" />
<polygon points="543,-2672 551,-2560 535,-2560 527,-2672 " fill="rgb(3,3,220)" stroke="rgb(70,70,70)" stroke-width="10" stroke-linecap="round" />
<polygon points="8,-2247 -12,-2091 -173,-2135 -191,-2295 " fill="rgb(228,11,11)" stroke="rgb(70,70,70)" stroke-width="10" stroke-linecap="round" />
<polygon points="7,-2248 -191,-2295 -108,-2560 48,-2560 48,-2560 48,-2560 " fill="rgb(22,239,22)" stroke="rgb(70,70,70)" stroke-width="10" stroke-linecap="round" />
<polygon points="48,-2560 48,-2560 0,-2560 0,-2705 0,-2705 63,-2680 " fill="rgb(26,243,243)" stroke="rgb(70,70,70)" stroke-width="10" stroke-linecap="round" />
<polygon points="-88,-2624 -88,-2624 -56,-2727 0,-2705 0,-2624 " fill="rgb(3,3,220)" stroke="rgb(70,70,70)" stroke-width="10" stroke-linecap="round" />
<polygon points="-88,-2624 -64,-2624 -64,-2560 -64,-2560 -108,-2560 " fill="rgb(251,251,34)" stroke="rgb(70,70,70)" stroke-width="10" stroke-linecap="round" />
<polygon points="-64,-2624 0,-2624 0,-2624 0,-2560 0,-2560 -64,-2560 -64,-2560 -64,-2624 " fill="rgb(22,239,22)" stroke="rgb(70,70,70)" stroke-width="10" stroke-linecap="round" />
<polygon points="24,-2174 40,-2078 40,-2076 -12,-2091 8,-2247 " fill="rgb(22,239,22)" stroke="rgb(70,70,70)" stroke-width="10" stroke-linecap="round" />
<polygon points="40,-2176 23,-2176 8,-2247 8,-2247 40,-2240 " fill="rgb(26,243,243)" stroke="rgb(70,70,70)" stroke-width="10" stroke-linecap="round" />
<polygon points="64,-2176 64,-2240 104,-2240 104,-2176 " fill="rgb(22,239,22)" stroke="rgb(70,70,70)" stroke-width="10" stroke-linecap="round" />
<polygon points="64,-2176 40,-2176 40,-2240 64,-2240 64,-2176 " fill="rgb(3,3,220)" stroke="rgb(70,70,70)" stroke-width="10" stroke-linecap="round" />
<polygon points="-424,-1864 -568,-1864 -568,-1864 -568,-1864 -527,-2048 -464,-2048 " fill="rgb(26,243,243)" stroke="rgb(70,70,70)" stroke-width="10" stroke-linecap="round" />
<polygon points="-424,-1722 -568,-1762 -568,-1856 -568,-1856 -424,-1856 -424,-1856 " fill="rgb(3,3,220)" stroke="rgb(70,70,70)" stroke-width="10" stroke-linecap="round" />
<polygon points="-568,-1864 -423,-1864 -423,-1864 -421,-1856 -568,-1856 -568,-1856 -568,-1864 " fill="rgb(232,15,232)" stroke="rgb(70,70,70)" stroke-width="10" stroke-linecap="round" />
<polygon points="-135,-1776 -173,-2135 40,-2076 63,-1935 " fill="rgb(26,243,243)" stroke="rgb(70,70,70)" stroke-width="10" stroke-linecap="round" />
<polygon points="-424,-2204 -424,-1866 -502,-2226 " fill="rgb(26,243,243)" stroke="rgb(70,70,70)" stroke-width="10" stroke-linecap="round" />
<polygon points="702,-1815 639,-1792 527,-1832 590,-1925 680,-1902 703,-1816 " fill="rgb(3,3,220)" stroke="rgb(70,70,70)" stroke-width="10" stroke-linecap="round" />
<polygon points="702,-1815 671,-1780 638,-1791 " fill="rgb(26,243,243)" stroke="rgb(70,70,70)" stroke-width="10" stroke-linecap="round" />
<polygon points="488,-1772 527,-1832 671,-1780 536,-1631 " fill="rgb(3,3,220)" stroke="rgb(70,70,70)" stroke-width="10" stroke-linecap="round" />
<polygon points="422,-1972 590,-1926 488,-1772 488,-1772 455,-1872 " fill="rgb(251,251,34)" stroke="rgb(70,70,70)" stroke-width="10" stroke-linecap="round" />
<polygon points="680,-1901 762,-1880 703,-1816 " fill="rgb(232,15,232)" stroke="rgb(70,70,70)" stroke-width="10" stroke-linecap="round" />
<polygon points="36,-1599 -119,-1759 80,-1919 535,-1632 535,-1631 414,-1499 " fill="rgb(26,243,243)" stroke="rgb(70,70,70)" stroke-width="10" stroke-linecap="round" />
<polygon points="-135,-1775 64,-1935 80,-1919 -119,-1759 " fill="rgb(26,243,243)" stroke="rgb(70,70,70)" stroke-width="10" stroke-linecap="round" />
<polygon points="1184,-1376 1312,-1376 1312,-1376 1349,-1285 1322,-1258 1151,-1302 " fill="rgb(22,239,22)" stroke="rgb(70,70,70)" stroke-width="10" stroke-linecap="round" />
<polygon points="1143,-1439 1247,-1535 1312,-1376 1184,-1376 1184,-1376 " fill="rgb(232,15,232)" stroke="rgb(70,70,70)" stroke-width="10" stroke-linecap="round" />
<polygon points="626,-1442 883,-1699 883,-1699 788,-1430 777,-1401 " fill="rgb(251,251,34)" stroke="rgb(70,70,70)" stroke-width="10" stroke-linecap="round" />
<polygon points="841,-1582 1144,-1440 1144,-1440 1144,-1440 824,-1535 " fill="rgb(3,3,220)" stroke="rgb(70,70,70)" stroke-width="10" stroke-linecap="round" />
<polygon points="879,-1376 808,-1490 824,-1535 1000,-1482 1000,-1344 " fill="rgb(228,11,11)" stroke="rgb(70,70,70)" stroke-width="10" stroke-linecap="round" />
<polygon points="791,-1440 808,-1490 839,-1440 " fill="rgb(26,243,243)" stroke="rgb(70,70,70)" stroke-width="10" stroke-linecap="round" />
<polygon points="1063,-1463 1000,-1432 1000,-1482 " fill="rgb(232,15,232)" stroke="rgb(70,70,70)" stroke-width="10" stroke-linecap="round" />
<polygon points="1247,-1536 1144,-1440 1144,-1440 1136,-1442 993,-1809 999,-1815 1136,-1777 " fill="rgb(3,3,220)" stroke="rgb(70,70,70)" stroke-width="10" stroke-linecap="round" />
<polygon points="896,-1712 993,-1809 1030,-1712 896,-1712 " fill="rgb(26,243,243)" stroke="rgb(70,70,70)" stroke-width="10" stroke-linecap="round" />
<polygon points="1086,-1566 1136,-1443 990,-1510 " fill="rgb(228,11,11)" stroke="rgb(70,70,70)" stroke-width="10" stroke-linecap="round" />
<polygon points="944,-1696 1024,-1696 1024,-1568 904,-1568 " fill="rgb(22,239,22)" stroke="rgb(70,70,70)" stroke-width="10" stroke-linecap="round" />
<polygon points="872,-1567 841,-1582 872,-1668 872,-1567 " fill="rgb(22,239,22)" stroke="rgb(70,70,70)" stroke-width="10" stroke-linecap="round" />
<polygon points="872,-1576 872,-1668 883,-1699 896,-1712 936,-1712 872,-1576 " fill="rgb(3,3,220)" stroke="rgb(70,70,70)" stroke-width="10" stroke-linecap="round" />
<polygon points="936,-1712 936,-1712 943,-1696 903,-1568 872,-1576 872,-1576 936,-1712 " fill="rgb(3,3,220)" stroke="rgb(70,70,70)" stroke-width="10" stroke-linecap="round" />
<polygon points="476,-1566 536,-1632 536,-1632 536,-1632 814,-1814 894,-1710 853,-1669 853,-1669 " fill="rgb(251,251,34)" stroke="rgb(70,70,70)" stroke-width="10" stroke-linecap="round" />
<polygon points="476,-1566 600,-1599 600,-1449 600,-1449 415,-1499 " fill="rgb(228,11,11)" stroke="rgb(70,70,70)" stroke-width="10" stroke-linecap="round" />
<polygon points="600,-1528 712,-1528 712,-1528 626,-1442 600,-1449 " fill="rgb(22,239,22)" stroke="rgb(70,70,70)" stroke-width="10" stroke-linecap="round" />
<polygon points="776,-1647 853,-1669 800,-1616 " fill="rgb(3,3,220)" stroke="rgb(70,70,70)" stroke-width="10" stroke-linecap="round" />
<polygon points="536,-1632 762,-1880 768,-1878 814,-1815 536,-1632 " fill="rgb(228,11,11)" stroke="rgb(70,70,70)" stroke-width="10" stroke-linecap="round" />
<polygon points="894,-1710 814,-1815 906,-1832 934,-1832 934,-1832 999,-1815 " fill="rgb(3,3,220)" stroke="rgb(70,70,70)" stroke-width="10" stroke-linecap="round" />
<polygon points="906,-1832 906,-1832 923,-1835 934,-1832 " fill="rgb(251,251,34)" stroke="rgb(70,70,70)" stroke-width="10" stroke-linecap="round" />
<polygon points="904,-1840 904,-1840 923,-1835 904,-1831 " fill="rgb(26,243,243)" stroke="rgb(70,70,70)" stroke-width="10" stroke-linecap="round" />
<polygon points="816,-1864 896,-1842 896,-1840 816,-1840 " fill="rgb(228,11,11)" stroke="rgb(70,70,70)" stroke-width="10" stroke-linecap="round" />
<polygon points="360,-712 448,-712 448,-712 512,-683 512,-448 497,-433 " fill="rgb(228,11,11)" stroke="rgb(70,70,70)" stroke-width="10" stroke-linecap="round" />
<polygon points="280,-992 512,-992 512,-992 512,-992 512,-848 321,-848 280,-992 " fill="rgb(26,243,243)" stroke="rgb(70,70,70)" stroke-width="10" stroke-linecap="round" />
<polygon points="360,-712 321,-848 448,-848 448,-712 448,-712 360,-712 " fill="rgb(251,251,34)" stroke="rgb(70,70,70)" stroke-width="10" stroke-linecap="round" />
<polygon points="472,-848 512,-848 512,-736 " fill="rgb(251,251,34)" stroke="rgb(70,70,70)" stroke-width="10" stroke-linecap="round" />
<polygon points="280,-1240 280,-1264 310,-1248 280,-1240 " fill="rgb(3,3,220)" stroke="rgb(70,70,70)" stroke-width="10" stroke-linecap="round" />
<polygon points="282,-992 359,-1222 474,-1166 440,-992 440,-992 " fill="rgb(3,3,220)" stroke="rgb(70,70,70)" stroke-width="10" stroke-linecap="round" />
<polygon points="280,-992 280,-1189 280,-1189 351,-1199 282,-992 280,-992 " fill="rgb(3,3,220)" stroke="rgb(70,70,70)" stroke-width="10" stroke-linecap="round" />
<polygon points="280,-1189 280,-1240 280,-1240 280,-1240 311,-1224 295,-1191 " fill="rgb(3,3,220)" stroke="rgb(70,70,70)" stroke-width="10" stroke-linecap="round" />
<polygon points="447,-1032 474,-1166 512,-1148 512,-1032 " fill="rgb(232,15,232)" stroke="rgb(70,70,70)" stroke-width="10" stroke-linecap="round" />
<polygon points="400,-1303 512,-1392 512,-1392 512,-1248 512,-1248 512,-1248 " fill="rgb(251,251,34)" stroke="rgb(70,70,70)" stroke-width="10" stroke-linecap="round" />
<polygon points="439,-1182 479,-1262 512,-1248 512,-1148 " fill="rgb(3,3,220)" stroke="rgb(70,70,70)" stroke-width="10" stroke-linecap="round" />
<polygon points="360,-1239 338,-1254 385,-1291 446,-1255 " fill="rgb(232,15,232)" stroke="rgb(70,70,70)" stroke-width="10" stroke-linecap="round" />
<polygon points="399,-1302 391,-1287 385,-1291 " fill="rgb(26,243,243)" stroke="rgb(70,70,70)" stroke-width="10" stroke-linecap="round" />
<polygon points="447,-1239 423,-1190 356,-1223 " fill="rgb(26,243,243)" stroke="rgb(70,70,70)" stroke-width="10" stroke-linecap="round" />
<polygon points="339,-1256 310,-1248 280,-1264 280,-1352 280,-1352 414,-1498 512,-1474 512,-1392 512,-1392 " fill="rgb(22,239,22)" stroke="rgb(70,70,70)" stroke-width="10" stroke-linecap="round" />
<polygon points="280,-1352 280,-1535 414,-1499 280,-1352 " fill="rgb(26,243,243)" stroke="rgb(70,70,70)" stroke-width="10" stroke-linecap="round" />
<polygon points="280,-1535 280,-1352 280,-1352 37,-1599 " fill="rgb(3,3,220)" stroke="rgb(70,70,70)" stroke-width="10" stroke-linecap="round" />
<polygon points="280,-992 192,-1016 192,-1352 192,-1352 280,-1352 280,-1352 280,-992 " fill="rgb(3,3,220)" stroke="rgb(70,70,70)" stroke-width="10" stroke-linecap="round" />
<polygon points="10,-1352 -33,-1080 -271,-1167 -135,-1352 " fill="rgb(232,15,232)" stroke="rgb(70,70,70)" stroke-width="10" stroke-linecap="round" />
<polygon points="192,-1352 192,-1280 0,-1280 0,-1280 11,-1352 " fill="rgb(26,243,243)" stroke="rgb(70,70,70)" stroke-width="10" stroke-linecap="round" />
<polygon points="128,-1264 128,-1264 128,-1264 12,-1062 -16,-1072 -16,-1072 16,-1264 " fill="rgb(26,243,243)" stroke="rgb(70,70,70)" stroke-width="10" stroke-linecap="round" />
<polygon points="176,-1264 176,-1068 176,-1068 176,-1068 96,-1207 128,-1264 176,-1264 " fill="rgb(22,239,22)" stroke="rgb(70,70,70)" stroke-width="10" stroke-linecap="round" />
<polygon points="127,-1152 127,-1152 176,-1068 176,-1016 176,-1016 13,-1062 64,-1152 " fill="rgb(228,11,11)" stroke="rgb(70,70,70)" stroke-width="10" stroke-linecap="round" />
<polygon points="127,-1152 64,-1152 64,-1152 64,-1152 96,-1207 " fill="rgb(26,243,243)" stroke="rgb(70,70,70)" stroke-width="10" stroke-linecap="round" />
<polygon points="15,-1264 18,-1280 176,-1280 176,-1280 176,-1264 15,-1264 " fill="rgb(228,11,11)" stroke="rgb(70,70,70)" stroke-width="10" stroke-linecap="round" />
<polygon points="176,-1016 176,-1280 176,-1280 192,-1280 192,-1280 192,-1016 " fill="rgb(251,251,34)" stroke="rgb(70,70,70)" stroke-width="10" stroke-linecap="round" />
<polygon points="-32,-1080 0,-1280 0,-1280 18,-1280 18,-1280 -16,-1072 " fill="rgb(228,11,11)" stroke="rgb(70,70,70)" stroke-width="10" stroke-linecap="round" />
<polygon points="-568,-1568 -568,-1568 -568,-1568 -423,-1647 -135,-1352 -271,-1168 " fill="rgb(22,239,22)" stroke="rgb(70,70,70)" stroke-width="10" stroke-linecap="round" />
<polygon points="-424,-1722 -424,-1648 -568,-1568 -568,-1568 -568,-1762 -568,-1762 " fill="rgb(22,239,22)" stroke="rgb(70,70,70)" stroke-width="10" stroke-linecap="round" />
<polygon points="871,-1016 928,-1016 928,-864 928,-864 895,-831 895,-831 815,-943 " fill="rgb(22,239,22)" stroke="rgb(70,70,70)" stroke-width="10" stroke-linecap="round" />
<polygon points="959,-904 928,-904 928,-904 928,-1016 983,-1016 " fill="rgb(251,251,34)" stroke="rgb(70,70,70)" stroke-width="10" stroke-linecap="round" />
<polygon points="928,-880 944,-880 928,-864 " fill="rgb(26,243,243)" stroke="rgb(70,70,70)" stroke-width="10" stroke-linecap="round" />
<polygon points="1088,-1024 1088,-1024 999,-935 1024,-1024 " fill="rgb(3,3,220)" stroke="rgb(70,70,70)" stroke-width="10" stroke-linecap="round" />
<polygon points="512,-683 512,-683 608,-639 654,-590 654,-590 512,-448 " fill="rgb(26,243,243)" stroke="rgb(70,70,70)" stroke-width="10" stroke-linecap="round" />
<polygon points="654,-590 609,-638 674,-610 654,-590 " fill="rgb(26,243,243)" stroke="rgb(70,70,70)" stroke-width="10" stroke-linecap="round" />
<polygon points="607,-639 714,-712 739,-675 674,-610 " fill="rgb(228,11,11)" stroke="rgb(70,70,70)" stroke-width="10" stroke-linecap="round" />
<polygon points="678,-766 608,-696 512,-736 512,-992 535,-992 " fill="rgb(26,243,243)" stroke="rgb(70,70,70)" stroke-width="10" stroke-linecap="round" />
<polygon points="873,-809 744,-680 704,-895 776,-919 " fill="rgb(228,11,11)" stroke="rgb(70,70,70)" stroke-width="10" stroke-linecap="round" />
<polygon points="735,-727 744,-680 739,-675 714,-712 " fill="rgb(232,15,232)" stroke="rgb(70,70,70)" stroke-width="10" stroke-linecap="round" />
<polygon points="580,-1024 688,-1024 640,-984 " fill="rgb(26,243,243)" stroke="rgb(70,70,70)" stroke-width="10" stroke-linecap="round" />
<polygon points="1152,-1303 1322,-1258 1152,-1088 1152,-1303 " fill="rgb(3,3,220)" stroke="rgb(70,70,70)" stroke-width="10" stroke-linecap="round" />
<polygon points="926,-1296 975,-1064 855,-1085 697,-1296 926,-1296 " fill="rgb(232,15,232)" stroke="rgb(70,70,70)" stroke-width="10" stroke-linecap="round" />
<polygon points="912,-1366 926,-1296 880,-1296 880,-1374 880,-1374 " fill="rgb(22,239,22)" stroke="rgb(70,70,70)" stroke-width="10" stroke-linecap="round" />
<polygon points="800,-1296 697,-1296 679,-1320 752,-1320 " fill="rgb(251,251,34)" stroke="rgb(70,70,70)" stroke-width="10" stroke-linecap="round" />
<polygon points="578,-1455 777,-1401 759,-1352 656,-1352 " fill="rgb(251,251,34)" stroke="rgb(70,70,70)" stroke-width="10" stroke-linecap="round" />
<polygon points="1152,-1303 1152,-1088 1152,-1088 1088,-1024 1088,-1024 1024,-1024 1024,-1024 954,-1304 954,-1304 1148,-1304 1148,-1304 " fill="rgb(251,251,34)" stroke="rgb(70,70,70)" stroke-width="10" stroke-linecap="round" />
<polygon points="943,-1216 925,-1304 954,-1304 976,-1216 " fill="rgb(3,3,220)" stroke="rgb(70,70,70)" stroke-width="10" stroke-linecap="round" />
<polygon points="1003,-1341 1072,-1304 925,-1304 912,-1366 " fill="rgb(228,11,11)" stroke="rgb(70,70,70)" stroke-width="10" stroke-linecap="round" />
<polygon points="512,-1144 512,-1248 733,-1248 733,-1248 811,-1144 512,-1144 512,-1144 " fill="rgb(232,15,232)" stroke="rgb(70,70,70)" stroke-width="10" stroke-linecap="round" />
<polygon points="616,-1024 616,-1024 580,-1024 568,-1031 552,-1144 552,-1144 616,-1144 " fill="rgb(22,239,22)" stroke="rgb(70,70,70)" stroke-width="10" stroke-linecap="round" />
<polygon points="512,-1032 512,-1144 528,-1144 528,-1032 " fill="rgb(232,15,232)" stroke="rgb(70,70,70)" stroke-width="10" stroke-linecap="round" />
<polygon points="704,-1144 704,-1144 811,-1144 851,-1091 800,-1040 " fill="rgb(22,239,22)" stroke="rgb(70,70,70)" stroke-width="10" stroke-linecap="round" />
<polygon points="848,-1088 851,-1091 854,-1086 " fill="rgb(232,15,232)" stroke="rgb(70,70,70)" stroke-width="10" stroke-linecap="round" />
<polygon points="616,-1120 688,-1120 688,-1024 616,-1024 " fill="rgb(3,3,220)" stroke="rgb(70,70,70)" stroke-width="10" stroke-linecap="round" />
<polygon points="512,-1392 512,-1474 577,-1456 606,-1415 512,-1392 " fill="rgb(26,243,243)" stroke="rgb(70,70,70)" stroke-width="10" stroke-linecap="round" />
<polygon points="679,-1317 733,-1248 656,-1248 656,-1248 " fill="rgb(3,3,220)" stroke="rgb(70,70,70)" stroke-width="10" stroke-linecap="round" />
<polygon points="567,-1264 528,-1311 528,-1368 616,-1368 640,-1343 640,-1264 " fill="rgb(26,243,243)" stroke="rgb(70,70,70)" stroke-width="10" stroke-linecap="round" />
<polygon points="560,-1248 512,-1248 512,-1304 560,-1248 " fill="rgb(251,251,34)" stroke="rgb(70,70,70)" stroke-width="10" stroke-linecap="round" />
<polygon points="527,-1311 567,-1263 560,-1248 560,-1248 512,-1304 512,-1304 512,-1304 " fill="rgb(3,3,220)" stroke="rgb(70,70,70)" stroke-width="10" stroke-linecap="round" />
<polygon points="1504,144 1901,144 1567,214 1504,144 " fill="rgb(3,3,220)" stroke="rgb(70,70,70)" stroke-width="10" stroke-linecap="round" />
<polygon points="1336,144 1504,144 1504,144 1504,144 1567,215 1336,265 " fill="rgb(228,11,11)" stroke="rgb(70,70,70)" stroke-width="10" stroke-linecap="round" />
<polygon points="1400,144 1336,144 1336,43 1400,144 " fill="rgb(228,11,11)" stroke="rgb(70,70,70)" stroke-width="10" stroke-linecap="round" />
<polygon points="1336,43 1336,-128 1376,-128 1376,-128 1344,55 " fill="rgb(26,243,243)" stroke="rgb(70,70,70)" stroke-width="10" stroke-linecap="round" />
<polygon points="1472,-128 1800,-128 1800,-128 1984,0 1536,0 " fill="rgb(232,15,232)" stroke="rgb(70,70,70)" stroke-width="10" stroke-linecap="round" />
<polygon points="1728,0 1984,0 1984,126 1901,144 1504,144 " fill="rgb(228,11,11)" stroke="rgb(70,70,70)" stroke-width="10" stroke-linecap="round" />
<polygon points="1336,-312 1336,-312 1336,-312 1424,-360 1424,-360 1600,-360 1600,-360 1600,-128 1336,-128 1336,-128 1336,-128 " fill="rgb(3,3,220)" stroke="rgb(70,70,70)" stroke-width="10" stroke-linecap="round" />
<polygon points="1600,-360 1424,-360 1424,-360 1659,-488 " fill="rgb(26,243,243)" stroke="rgb(70,70,70)" stroke-width="10" stroke-linecap="round" />
<polygon points="1984,382 1679,191 1984,126 1984,382 " fill="rgb(228,11,11)" stroke="rgb(70,70,70)" stroke-width="10" stroke-linecap="round" />
<polygon points="1336,344 1336,265 1408,249 1524,300 1336,344 " fill="rgb(228,11,11)" stroke="rgb(70,70,70)" stroke-width="10" stroke-linecap="round" />
<polygon points="1440,383 1440,320 1568,320 1568,320 1984,504 1984,512 1857,553 " fill="rgb(232,15,232)" stroke="rgb(70,70,70)" stroke-width="10" stroke-linecap="round" />
<polygon points="1558,653 1656,471 1858,553 " fill="rgb(3,3,220)" stroke="rgb(70,70,70)" stroke-width="10" stroke-linecap="round" />
<polygon points="1336,728 1336,576 1599,576 1599,576 1556,654 " fill="rgb(228,11,11)" stroke="rgb(70,70,70)" stroke-width="10" stroke-linecap="round" />
<polygon points="1408,576 1336,576 1336,504 " fill="rgb(22,239,22)" stroke="rgb(70,70,70)" stroke-width="10" stroke-linecap="round" />
<polygon points="1438,320 1524,300 1569,320 1438,320 " fill="rgb(232,15,232)" stroke="rgb(70,70,70)" stroke-width="10" stroke-linecap="round" />
<polygon points="1799,266 1984,382 1984,504 1984,504 1641,351 " fill="rgb(22,239,22)" stroke="rgb(70,70,70)" stroke-width="10" stroke-linecap="round" />
<polygon points="1744,231 1799,266 1744,295 1744,231 " fill="rgb(26,243,243)" stroke="rgb(70,70,70)" stroke-width="10" stroke-linecap="round" />
<polygon points="1568,214 1568,319 1408,249 " fill="rgb(251,251,34)" stroke="rgb(70,70,70)" stroke-width="10" stroke-linecap="round" />
<polygon points="2200,320 1984,448 1984,128 2200,256 2200,320 " fill="rgb(26,243,243)" stroke="rgb(70,70,70)" stroke-width="10" stroke-linecap="round" />
<polygon points="2200,256 2223,256 2263,320 2200,320 " fill="rgb(22,239,22)" stroke="rgb(70,70,70)" stroke-width="10" stroke-linecap="round" />
<polygon points="2304,248 2304,248 2263,319 2223,255 2247,231 2304,248 " fill="rgb(22,239,22)" stroke="rgb(70,70,70)" stroke-width="10" stroke-linecap="round" />
<polygon points="2304,208 2304,208 2304,248 2304,248 2304,248 2248,231 2248,208 " fill="rgb(232,15,232)" stroke="rgb(70,70,70)" stroke-width="10" stroke-linecap="round" />
<polygon points="2239,119 2304,208 2304,208 2248,208 2200,152 2200,152 " fill="rgb(3,3,220)" stroke="rgb(70,70,70)" stroke-width="10" stroke-linecap="round" />
<polygon points="1336,44 1191,-135 1223,-191 1336,-160 1336,-160 1336,44 " fill="rgb(3,3,220)" stroke="rgb(70,70,70)" stroke-width="10" stroke-linecap="round" />
<polygon points="1336,-312 1336,-240 1336,-240 1204,-240 " fill="rgb(3,3,220)" stroke="rgb(70,70,70)" stroke-width="10" stroke-linecap="round" />
<polygon points="1152,-64 1152,100 1152,100 1145,105 1145,105 959,-79 1018,-138 1026,-142 " fill="rgb(251,251,34)" stroke="rgb(70,70,70)" stroke-width="10" stroke-linecap="round" />
<polygon points="1278,16 1152,100 1152,16 1278,16 " fill="rgb(22,239,22)" stroke="rgb(70,70,70)" stroke-width="10" stroke-linecap="round" />
<polygon points="1278,16 1200,16 1223,-94 1301,1 " fill="rgb(26,243,243)" stroke="rgb(70,70,70)" stroke-width="10" stroke-linecap="round" />
<polygon points="1111,72 1145,105 1016,192 1016,192 768,192 768,192 721,72 1111,72 " fill="rgb(228,11,11)" stroke="rgb(70,70,70)" stroke-width="10" stroke-linecap="round" />
<polygon points="1055,16 1111,72 1032,72 1032,72 " fill="rgb(228,11,11)" stroke="rgb(70,70,70)" stroke-width="10" stroke-linecap="round" />
<polygon points="960,72 721,72 704,31 845,-45 " fill="rgb(22,239,22)" stroke="rgb(70,70,70)" stroke-width="10" stroke-linecap="round" />
<polygon points="1336,112 1135,112 1135,112 1301,1 1336,44 " fill="rgb(3,3,220)" stroke="rgb(70,70,70)" stroke-width="10" stroke-linecap="round" />
<polygon points="1336,192 1248,192 1216,112 1336,112 " fill="rgb(232,15,232)" stroke="rgb(70,70,70)" stroke-width="10" stroke-linecap="round" />
<polygon points="1336,504 1336,507 744,257 768,192 1016,192 1016,192 1136,304 1336,504 1336,504 " fill="rgb(26,243,243)" stroke="rgb(70,70,70)" stroke-width="10" stroke-linecap="round" />
<polygon points="551,807 591,696 1336,696 1336,696 1336,728 832,896 832,896 " fill="rgb(232,15,232)" stroke="rgb(70,70,70)" stroke-width="10" stroke-linecap="round" />
<polygon points="744,257 784,274 784,696 784,696 591,696 " fill="rgb(3,3,220)" stroke="rgb(70,70,70)" stroke-width="10" stroke-linecap="round" />
<polygon points="864,696 784,696 784,624 864,696 " fill="rgb(232,15,232)" stroke="rgb(70,70,70)" stroke-width="10" stroke-linecap="round" />
<polygon points="784,512 784,274 844,299 784,512 " fill="rgb(3,3,220)" stroke="rgb(70,70,70)" stroke-width="10" stroke-linecap="round" />
<polygon points="844,299 968,351 815,400 " fill="rgb(26,243,243)" stroke="rgb(70,70,70)" stroke-width="10" stroke-linecap="round" />
<polygon points="1107,692 888,536 888,536 888,456 1032,456 1135,551 " fill="rgb(26,243,243)" stroke="rgb(70,70,70)" stroke-width="10" stroke-linecap="round" />
<polygon points="1000,615 1107,692 1107,696 1000,696 " fill="rgb(232,15,232)" stroke="rgb(70,70,70)" stroke-width="10" stroke-linecap="round" />
<polygon points="1175,439 1336,507 1336,696 1224,696 1224,696 " fill="rgb(228,11,11)" stroke="rgb(70,70,70)" stroke-width="10" stroke-linecap="round" />
<polygon points="1199,570 1224,696 1170,696 " fill="rgb(232,15,232)" stroke="rgb(70,70,70)" stroke-width="10" stroke-linecap="round" />
<polygon points="1175,672 1170,696 1107,696 1111,672 " fill="rgb(3,3,220)" stroke="rgb(70,70,70)" stroke-width="10" stroke-linecap="round" />
<polygon points="1336,344 1272,440 1136,304 1136,304 1248,192 1336,192 " fill="rgb(3,3,220)" stroke="rgb(70,70,70)" stroke-width="10" stroke-linecap="round" />
<polygon points="1280,-1088 1430,-1088 1430,-1088 1537,-830 " fill="rgb(22,239,22)" stroke="rgb(70,70,70)" stroke-width="10" stroke-linecap="round" />
<polygon points="1279,-1088 1279,-1088 1216,-1152 1349,-1285 1349,-1284 1430,-1088 " fill="rgb(228,11,11)" stroke="rgb(70,70,70)" stroke-width="10" stroke-linecap="round" />
<polygon points="1152,-1088 1152,-1088 1216,-1152 1279,-1088 " fill="rgb(26,243,243)" stroke="rgb(70,70,70)" stroke-width="10" stroke-linecap="round" />
<polygon points="1327,-848 1272,-768 1272,-768 1032,-768 1032,-768 1192,-1024 1288,-975 " fill="rgb(251,251,34)" stroke="rgb(70,70,70)" stroke-width="10" stroke-linecap="round" />
<polygon points="999,-935 999,-935 1088,-1024 1152,-960 1032,-768 953,-768 " fill="rgb(228,11,11)" stroke="rgb(70,70,70)" stroke-width="10" stroke-linecap="round" />
<polygon points="1450,-916 1538,-829 1564,-768 1376,-768 1450,-916 " fill="rgb(26,243,243)" stroke="rgb(70,70,70)" stroke-width="10" stroke-linecap="round" />
<polygon points="1408,-832 1408,-958 1450,-916 " fill="rgb(26,243,243)" stroke="rgb(70,70,70)" stroke-width="10" stroke-linecap="round" />
<polygon points="895,-831 895,-831 944,-880 983,-880 953,-768 941,-768 " fill="rgb(26,243,243)" stroke="rgb(70,70,70)" stroke-width="10" stroke-linecap="round" />
<polygon points="832,-768 873,-809 873,-809 909,-768 " fill="rgb(26,243,243)" stroke="rgb(70,70,70)" stroke-width="10" stroke-linecap="round" />
<polygon points="887,-791 911,-807 939,-768 909,-768 " fill="rgb(26,243,243)" stroke="rgb(70,70,70)" stroke-width="10" stroke-linecap="round" />
<polygon points="1848,-992 1688,-896 1688,-896 1600,-896 1600,-896 1848,-1144 1848,-1144 1848,-992 " fill="rgb(228,11,11)" stroke="rgb(70,70,70)" stroke-width="10" stroke-linecap="round" />
<polygon points="1688,-896 1545,-810 1536,-832 1600,-896 1688,-896 " fill="rgb(3,3,220)" stroke="rgb(70,70,70)" stroke-width="10" stroke-linecap="round" />
<polygon points="1788,-768 1564,-768 1545,-810 1848,-992 1848,-992 1848,-896 " fill="rgb(26,243,243)" stroke="rgb(70,70,70)" stroke-width="10" stroke-linecap="round" />
<polygon points="1848,-896 1848,-1144 1848,-1144 2061,-1357 " fill="rgb(232,15,232)" stroke="rgb(70,70,70)" stroke-width="10" stroke-linecap="round" />
<polygon points="1848,-1144 1848,-1144 1728,-1024 1728,-1024 1664,-1064 1664,-1144 1664,-1144 1736,-1216 1736,-1216 " fill="rgb(228,11,11)" stroke="rgb(70,70,70)" stroke-width="10" stroke-linecap="round" />
<polygon points="1664,-1063 1664,-1063 1614,-1094 1664,-1144 " fill="rgb(228,11,11)" stroke="rgb(70,70,70)" stroke-width="10" stroke-linecap="round" />
<polygon points="1728,-1024 1536,-832 1536,-832 1482,-962 1614,-1094 1728,-1024 " fill="rgb(232,15,232)" stroke="rgb(70,70,70)" stroke-width="10" stroke-linecap="round" />
<polygon points="2130,-1507 2061,-1356 1848,-1144 1736,-1216 1736,-1216 2049,-1529 " fill="rgb(26,243,243)" stroke="rgb(70,70,70)" stroke-width="10" stroke-linecap="round" />
<polygon points="2023,-1536 2049,-1529 1852,-1332 1791,-1536 2023,-1536 " fill="rgb(232,15,232)" stroke="rgb(70,70,70)" stroke-width="10" stroke-linecap="round" />
<polygon points="1792,-1536 1779,-1576 1771,-1605 2023,-1536 1792,-1536 " fill="rgb(22,239,22)" stroke="rgb(70,70,70)" stroke-width="10" stroke-linecap="round" />
<polygon points="1852,-1332 1482,-962 1482,-962 1430,-1086 1791,-1535 " fill="rgb(26,243,243)" stroke="rgb(70,70,70)" stroke-width="10" stroke-linecap="round" />
<polygon points="720,-176 720,-176 720,23 704,31 624,-176 " fill="rgb(3,3,220)" stroke="rgb(70,70,70)" stroke-width="10" stroke-linecap="round" />
<polygon points="720,-176 720,-176 624,-176 624,-176 497,-433 640,-576 720,-503 " fill="rgb(3,3,220)" stroke="rgb(70,70,70)" stroke-width="10" stroke-linecap="round" />
<polygon points="878,-361 910,-206 840,-136 760,-199 720,-386 720,-503 " fill="rgb(22,239,22)" stroke="rgb(70,70,70)" stroke-width="10" stroke-linecap="round" />
<polygon points="720,-312 720,-386 735,-312 " fill="rgb(26,243,243)" stroke="rgb(70,70,70)" stroke-width="10" stroke-linecap="round" />
<polygon points="845,-45 720,23 720,-176 " fill="rgb(228,11,11)" stroke="rgb(70,70,70)" stroke-width="10" stroke-linecap="round" />
<polygon points="736,-672 800,-736 860,-441 " fill="rgb(22,239,22)" stroke="rgb(70,70,70)" stroke-width="10" stroke-linecap="round" />
<polygon points="640,-576 654,-590 654,-590 803,-428 " fill="rgb(232,15,232)" stroke="rgb(70,70,70)" stroke-width="10" stroke-linecap="round" />
<polygon points="654,-590 654,-590 734,-670 839,-478 799,-432 " fill="rgb(251,251,34)" stroke="rgb(70,70,70)" stroke-width="10" stroke-linecap="round" />
<polygon points="1600,-768 1640,-704 1640,-704 1600,-640 1600,-640 1600,-640 1559,-704 1600,-768 1600,-768 " fill="rgb(3,3,220)" stroke="rgb(70,70,70)" stroke-width="10" stroke-linecap="round" />
<polygon points="1600,-640 1555,-568 1489,-591 1559,-704 1600,-640 " fill="rgb(3,3,220)" stroke="rgb(70,70,70)" stroke-width="10" stroke-linecap="round" />
<polygon points="1600,-768 1600,-768 1600,-768 1680,-768 1640,-704 " fill="rgb(251,251,34)" stroke="rgb(70,70,70)" stroke-width="10" stroke-linecap="round" />
<polygon points="1677,-527 1555,-568 1680,-768 1680,-768 1788,-768 " fill="rgb(232,15,232)" stroke="rgb(70,70,70)" stroke-width="10" stroke-linecap="round" />
<polygon points="1376,-768 1376,-768 1600,-768 1600,-768 1489,-591 1316,-648 " fill="rgb(232,15,232)" stroke="rgb(70,70,70)" stroke-width="10" stroke-linecap="round" />
<polygon points="1344,-704 1344,-704 1316,-648 1149,-704 " fill="rgb(251,251,34)" stroke="rgb(70,70,70)" stroke-width="10" stroke-linecap="round" />
<polygon points="960,-768 1136,-768 1152,-704 1152,-704 960,-768 " fill="rgb(232,15,232)" stroke="rgb(70,70,70)" stroke-width="10" stroke-linecap="round" />
<polygon points="1659,-488 1423,-360 1375,-628 1678,-528 " fill="rgb(232,15,232)" stroke="rgb(70,70,70)" stroke-width="10" stroke-linecap="round" />
<polygon points="862,-438 845,-520 1051,-520 1111,-192 1000,-192 " fill="rgb(22,239,22)" stroke="rgb(70,70,70)" stroke-width="10" stroke-linecap="round" />
<polygon points="1394,-520 1394,-520 1396,-508 1176,-288 1176,-288 1143,-382 1184,-520 1184,-520 " fill="rgb(228,11,11)" stroke="rgb(70,70,70)" stroke-width="10" stroke-linecap="round" />
<polygon points="1336,-448 1396,-508 1406,-448 1336,-448 " fill="rgb(26,243,243)" stroke="rgb(70,70,70)" stroke-width="10" stroke-linecap="round" />
<polygon points="1335,-312 1203,-240 1192,-240 1176,-288 1288,-400 " fill="rgb(22,239,22)" stroke="rgb(70,70,70)" stroke-width="10" stroke-linecap="round" />
<polygon points="1071,-407 1051,-520 1123,-520 " fill="rgb(228,11,11)" stroke="rgb(70,70,70)" stroke-width="10" stroke-linecap="round" />
<polygon points="1360,-633 1375,-629 1394,-520 1360,-520 1360,-633 " fill="rgb(251,251,34)" stroke="rgb(70,70,70)" stroke-width="10" stroke-linecap="round" />
<polygon points="1152,-584 1152,-703 1152,-703 1360,-633 1360,-584 " fill="rgb(228,11,11)" stroke="rgb(70,70,70)" stroke-width="10" stroke-linecap="round" />
<polygon points="984,-520 1055,-734 1152,-703 1152,-584 1152,-584 1123,-520 984,-520 " fill="rgb(228,11,11)" stroke="rgb(70,70,70)" stroke-width="10" stroke-linecap="round" />
<polygon points="828,-598 991,-544 984,-520 845,-520 " fill="rgb(232,15,232)" stroke="rgb(70,70,70)" stroke-width="10" stroke-linecap="round" />
<polygon points="800,-736 832,-768 960,-768 1007,-751 943,-559 828,-598 " fill="rgb(228,11,11)" stroke="rgb(70,70,70)" stroke-width="10" stroke-linecap="round" />

</svg>

