<svg width="900" height="1363" preserveAspectRatio="none" viewBox="-698 -3586 3132 4612"
 xmlns="http://www.w3.org/2000/svg" xmlns:xlink="http://www.w3.org/1999/xlink">
   <defs>
    <marker id="arrow" markerWidth="10" markerHeight="10" refX="0" refY="2" orient="auto" markerUnits="strokeWidth">
      <path d="M0,0 L0,4 L5,3 z" fill="#f00" />
    </marker>
  </defs>

<line x1="880" y1="-2232" x2="880" y2="-2240" stroke-width="10" stroke="black"/>
<line x1="880" y1="-2240" x2="816" y2="-2240" stroke-width="10" stroke="black"/>
<line x1="1008" y1="-2384" x2="984" y2="-2424" stroke-width="10" stroke="black"/>
<line x1="984" y1="-2424" x2="1016" y2="-2448" stroke-width="10" stroke="black"/>
<line x1="1016" y1="-2448" x2="1032" y2="-2408" stroke-width="10" stroke="black"/>
<line x1="1032" y1="-2408" x2="1008" y2="-2384" stroke-width="10" stroke="black"/>
<line x1="976" y1="-2256" x2="976" y2="-2240" stroke-width="10" stroke="black"/>
<line x1="1008" y1="-2552" x2="1000" y2="-2528" stroke-width="10" stroke="black"/>
<line x1="1120" y1="-2496" x2="1008" y2="-2552" stroke-width="10" stroke="black"/>
<line x1="1000" y1="-2528" x2="1112" y2="-2472" stroke-width="10" stroke="black"/>
<line x1="1056" y1="-2800" x2="1111" y2="-2833" stroke-width="10" stroke="black"/>
<line x1="1056" y1="-2800" x2="1184" y2="-2680" stroke-width="10" stroke="black"/>
<line x1="816" y1="-2288" x2="976" y2="-2240" stroke-width="10" stroke="black"/>
<line x1="896" y1="-1856" x2="880" y2="-1912" stroke-width="10" stroke="black"/>
<line x1="816" y1="-1912" x2="880" y2="-1912" stroke-width="10" stroke="black"/>
<line x1="816" y1="-1984" x2="880" y2="-1984" stroke-width="10" stroke="black"/>
<line x1="880" y1="-1912" x2="880" y2="-1920" stroke-width="10" stroke="black"/>
<line x1="880" y1="-2048" x2="880" y2="-2056" stroke-width="10" stroke="black"/>
<line x1="880" y1="-2112" x2="880" y2="-2120" stroke-width="10" stroke="black"/>
<line x1="816" y1="-2112" x2="880" y2="-2112" stroke-width="10" stroke="black"/>
<line x1="816" y1="-2048" x2="880" y2="-2048" stroke-width="10" stroke="black"/>
<line x1="1008" y1="-1936" x2="960" y2="-1976" stroke-width="10" stroke="black"/>
<line x1="1032" y1="-2000" x2="1040" y2="-1960" stroke-width="10" stroke="black"/>
<line x1="960" y1="-1976" x2="976" y2="-2016" stroke-width="10" stroke="black"/>
<line x1="1040" y1="-1960" x2="1008" y2="-1936" stroke-width="10" stroke="black"/>
<line x1="1040" y1="-2088" x2="1008" y2="-2136" stroke-width="10" stroke="black"/>
<line x1="976" y1="-2088" x2="1040" y2="-2088" stroke-width="10" stroke="black"/>
<line x1="976" y1="-2016" x2="1032" y2="-2000" stroke-width="10" stroke="black"/>
<line x1="1008" y1="-2136" x2="976" y2="-2088" stroke-width="10" stroke="black"/>
<line x1="944" y1="-1832" x2="1112" y2="-1832" stroke-width="10" stroke="black"/>
<line x1="904" y1="-1856" x2="896" y2="-1856" stroke-width="10" stroke="black"/>
<line x1="896" y1="-1856" x2="896" y2="-1845" stroke-width="10" stroke="black"/>
<line x1="880" y1="-2184" x2="816" y2="-2184" stroke-width="10" stroke="black"/>
<line x1="1728" y1="-1920" x2="1760" y2="-1888" stroke-width="10" stroke="black"/>
<line x1="1728" y1="-1856" x2="1696" y2="-1856" stroke-width="10" stroke="black"/>
<line x1="1760" y1="-1888" x2="1728" y2="-1856" stroke-width="10" stroke="black"/>
<line x1="1688" y1="-2016" x2="1688" y2="-1992" stroke-width="10" stroke="black"/>
<line x1="1840" y1="-1992" x2="1840" y2="-2016" stroke-width="10" stroke="black"/>
<line x1="1840" y1="-2016" x2="1688" y2="-2016" stroke-width="10" stroke="black"/>
<line x1="1688" y1="-1992" x2="1840" y2="-1992" stroke-width="10" stroke="black"/>
<line x1="1680" y1="-1920" x2="1728" y2="-1920" stroke-width="10" stroke="black"/>
<line x1="2029" y1="-1536" x2="2143" y2="-1536" stroke-width="10" stroke="black"/>
<line x1="1664" y1="-1920" x2="1680" y2="-1920" stroke-width="10" stroke="black"/>
<line x1="1680" y1="-1856" x2="1664" y2="-1920" stroke-width="10" stroke="black"/>
<line x1="1680" y1="-1856" x2="1680" y2="-1840" stroke-width="10" stroke="black"/>
<line x1="1680" y1="-1920" x2="1640" y2="-2048" stroke-width="10" stroke="black"/>
<line x1="1696" y1="-1856" x2="1680" y2="-1920" stroke-width="10" stroke="black"/>
<line x1="1296" y1="-2824" x2="1264" y2="-2832" stroke-width="10" stroke="black"/>
<line x1="1328" y1="-2872" x2="1296" y2="-2824" stroke-width="10" stroke="black"/>
<line x1="1264" y1="-2832" x2="1264" y2="-2872" stroke-width="10" stroke="black"/>
<line x1="1296" y1="-2912" x2="1328" y2="-2872" stroke-width="10" stroke="black"/>
<line x1="1264" y1="-2872" x2="1296" y2="-2912" stroke-width="10" stroke="black"/>
<line x1="1472" y1="-3048" x2="1496" y2="-3016" stroke-width="10" stroke="black"/>
<line x1="1496" y1="-3016" x2="1528" y2="-2968" stroke-width="10" stroke="black"/>
<line x1="1576" y1="-2952" x2="1496" y2="-3064" stroke-width="10" stroke="black"/>
<line x1="1528" y1="-2968" x2="1552" y2="-2936" stroke-width="10" stroke="black"/>
<line x1="1640" y1="-2048" x2="1808" y2="-2120" stroke-width="10" stroke="black"/>
<line x1="832" y1="-3392" x2="896" y2="-3264" stroke-width="10" stroke="black"/>
<line x1="488" y1="-2912" x2="520" y2="-2960" stroke-width="10" stroke="black"/>
<line x1="520" y1="-2960" x2="552" y2="-2912" stroke-width="10" stroke="black"/>
<line x1="528" y1="-2912" x2="536" y2="-2856" stroke-width="10" stroke="black"/>
<line x1="536" y1="-2856" x2="504" y2="-2856" stroke-width="10" stroke="black"/>
<line x1="504" y1="-2856" x2="512" y2="-2912" stroke-width="10" stroke="black"/>
<line x1="512" y1="-2912" x2="488" y2="-2912" stroke-width="10" stroke="black"/>
<line x1="504" y1="-2992" x2="544" y2="-3056" stroke-width="10" stroke="black"/>
<line x1="624" y1="-2936" x2="528" y2="-2688" stroke-width="10" stroke="black"/>
<line x1="664" y1="-3016" x2="552" y2="-3072" stroke-width="10" stroke="black"/>
<line x1="712" y1="-3104" x2="592" y2="-3160" stroke-width="10" stroke="black"/>
<line x1="712" y1="-3104" x2="696" y2="-3088" stroke-width="10" stroke="black"/>
<line x1="592" y1="-3144" x2="696" y2="-3088" stroke-width="10" stroke="black"/>
<line x1="544" y1="-3056" x2="656" y2="-3000" stroke-width="10" stroke="black"/>
<line x1="512" y1="-2096" x2="512" y2="-2104" stroke-width="10" stroke="black"/>
<line x1="480" y1="-2200" x2="480" y2="-2192" stroke-width="10" stroke="black"/>
<line x1="480" y1="-2192" x2="592" y2="-2192" stroke-width="10" stroke="black"/>
<line x1="488" y1="-2280" x2="488" y2="-2288" stroke-width="10" stroke="black"/>
<line x1="440" y1="-2400" x2="440" y2="-2392" stroke-width="10" stroke="black"/>
<line x1="440" y1="-2392" x2="560" y2="-2392" stroke-width="10" stroke="black"/>
<line x1="368" y1="-2280" x2="488" y2="-2280" stroke-width="10" stroke="black"/>
<line x1="392" y1="-2096" x2="512" y2="-2096" stroke-width="10" stroke="black"/>
<line x1="472" y1="-2536" x2="416" y2="-2560" stroke-width="10" stroke="black"/>
<line x1="480" y1="-2480" x2="480" y2="-2536" stroke-width="10" stroke="black"/>
<line x1="480" y1="-2536" x2="472" y2="-2536" stroke-width="10" stroke="black"/>
<line x1="352" y1="-2488" x2="408" y2="-2560" stroke-width="10" stroke="black"/>
<line x1="416" y1="-2560" x2="416" y2="-2616" stroke-width="10" stroke="black"/>
<line x1="536" y1="-2560" x2="548" y2="-2480" stroke-width="10" stroke="black"/>
<line x1="552" y1="-2560" x2="544" y2="-2672" stroke-width="10" stroke="black"/>
<line x1="528" y1="-2672" x2="536" y2="-2560" stroke-width="10" stroke="black"/>
<line x1="352" y1="-2480" x2="480" y2="-2480" stroke-width="10" stroke="black"/>
<line x1="528" y1="-2688" x2="408" y2="-2624" stroke-width="10" stroke="black"/>
<line x1="-64" y1="-2624" x2="-64" y2="-2560" stroke-width="10" stroke="black"/>
<line x1="0" y1="-2624" x2="-64" y2="-2624" stroke-width="10" stroke="black"/>
<line x1="0" y1="-2560" x2="0" y2="-2624" stroke-width="10" stroke="black"/>
<line x1="-64" y1="-2560" x2="0" y2="-2560" stroke-width="10" stroke="black"/>
<line x1="-192" y1="-2296" x2="8" y2="-2248" stroke-width="10" stroke="black"/>
<line x1="8" y1="-2248" x2="24" y2="-2176" stroke-width="10" stroke="black"/>
<line x1="64" y1="-2176" x2="64" y2="-2240" stroke-width="10" stroke="black"/>
<line x1="40" y1="-2240" x2="40" y2="-2176" stroke-width="10" stroke="black"/>
<line x1="64" y1="-2680" x2="8" y2="-2248" stroke-width="10" stroke="black"/>
<line x1="320" y1="-2496" x2="320" y2="-2720" stroke-width="10" stroke="black"/>
<line x1="816" y1="-2120" x2="816" y2="-2176" stroke-width="10" stroke="black"/>
<line x1="-568" y1="-1856" x2="-424" y2="-1856" stroke-width="10" stroke="black"/>
<line x1="-424" y1="-1864" x2="-568" y2="-1864" stroke-width="10" stroke="black"/>
<line x1="-136" y1="-1776" x2="-174" y2="-2137" stroke-width="10" stroke="black"/>
<line x1="-464" y1="-2048" x2="-424" y2="-1864" stroke-width="10" stroke="black"/>
<line x1="704" y1="-1816" x2="640" y2="-1792" stroke-width="10" stroke="black"/>
<line x1="640" y1="-1792" x2="528" y2="-1832" stroke-width="10" stroke="black"/>
<line x1="528" y1="-1832" x2="592" y2="-1928" stroke-width="10" stroke="black"/>
<line x1="680" y1="-1904" x2="704" y2="-1816" stroke-width="10" stroke="black"/>
<line x1="-120" y1="-1760" x2="80" y2="-1920" stroke-width="10" stroke="black"/>
<line x1="536" y1="-1632" x2="422" y2="-1974" stroke-width="10" stroke="black"/>
<line x1="64" y1="-1936" x2="-136" y2="-1776" stroke-width="10" stroke="black"/>
<line x1="1184" y1="-1376" x2="1312" y2="-1376" stroke-width="10" stroke="black"/>
<line x1="880" y1="-1376" x2="840" y2="-1440" stroke-width="10" stroke="black"/>
<line x1="1000" y1="-1432" x2="1000" y2="-1344" stroke-width="10" stroke="black"/>
<line x1="1144" y1="-1440" x2="1064" y2="-1464" stroke-width="10" stroke="black"/>
<line x1="992" y1="-1512" x2="1088" y2="-1568" stroke-width="10" stroke="black"/>
<line x1="936" y1="-1712" x2="872" y2="-1576" stroke-width="10" stroke="black"/>
<line x1="872" y1="-1576" x2="872" y2="-1568" stroke-width="10" stroke="black"/>
<line x1="904" y1="-1568" x2="944" y2="-1696" stroke-width="10" stroke="black"/>
<line x1="1032" y1="-1712" x2="936" y2="-1712" stroke-width="10" stroke="black"/>
<line x1="1088" y1="-1568" x2="1032" y2="-1712" stroke-width="10" stroke="black"/>
<line x1="872" y1="-1568" x2="992" y2="-1512" stroke-width="10" stroke="black"/>
<line x1="792" y1="-1440" x2="779" y2="-1403" stroke-width="10" stroke="black"/>
<line x1="1144" y1="-1440" x2="1248" y2="-1536" stroke-width="10" stroke="black"/>
<line x1="600" y1="-1528" x2="712" y2="-1528" stroke-width="10" stroke="black"/>
<line x1="600" y1="-1600" x2="600" y2="-1528" stroke-width="10" stroke="black"/>
<line x1="776" y1="-1648" x2="600" y2="-1600" stroke-width="10" stroke="black"/>
<line x1="536" y1="-1632" x2="816" y2="-1816" stroke-width="10" stroke="black"/>
<line x1="904" y1="-1832" x2="944" y2="-1832" stroke-width="10" stroke="black"/>
<line x1="904" y1="-1832" x2="904" y2="-1843" stroke-width="10" stroke="black"/>
<line x1="816" y1="-1816" x2="904" y2="-1832" stroke-width="10" stroke="black"/>
<line x1="768" y1="-1879" x2="815" y2="-1816" stroke-width="10" stroke="black"/>
<line x1="712" y1="-1528" x2="800" y2="-1616" stroke-width="10" stroke="black"/>
<line x1="536" y1="-1632" x2="416" y2="-1500" stroke-width="10" stroke="black"/>
<line x1="448" y1="-848" x2="448" y2="-712" stroke-width="10" stroke="black"/>
<line x1="472" y1="-848" x2="448" y2="-848" stroke-width="10" stroke="black"/>
<line x1="360" y1="-712" x2="448" y2="-712" stroke-width="10" stroke="black"/>
<line x1="296" y1="-1192" x2="352" y2="-1200" stroke-width="10" stroke="black"/>
<line x1="352" y1="-1200" x2="360" y2="-1224" stroke-width="10" stroke="black"/>
<line x1="310" y1="-1248" x2="280" y2="-1240" stroke-width="10" stroke="black"/>
<line x1="448" y1="-1032" x2="440" y2="-992" stroke-width="10" stroke="black"/>
<line x1="392" y1="-1288" x2="448" y2="-1256" stroke-width="10" stroke="black"/>
<line x1="448" y1="-1256" x2="360" y2="-1240" stroke-width="10" stroke="black"/>
<line x1="440" y1="-1184" x2="480" y2="-1264" stroke-width="10" stroke="black"/>
<line x1="480" y1="-1264" x2="400" y2="-1304" stroke-width="10" stroke="black"/>
<line x1="400" y1="-1304" x2="512" y2="-1392" stroke-width="10" stroke="black"/>
<line x1="424" y1="-1192" x2="440" y2="-1184" stroke-width="10" stroke="black"/>
<line x1="280" y1="-1352" x2="415" y2="-1500" stroke-width="10" stroke="black"/>
<line x1="440" y1="-992" x2="512" y2="-992" stroke-width="10" stroke="black"/>
<line x1="64" y1="-1152" x2="128" y2="-1152" stroke-width="10" stroke="black"/>
<line x1="128" y1="-1152" x2="96" y2="-1208" stroke-width="10" stroke="black"/>
<line x1="96" y1="-1208" x2="64" y2="-1152" stroke-width="10" stroke="black"/>
<line x1="16" y1="-1264" x2="176" y2="-1264" stroke-width="10" stroke="black"/>
<line x1="176" y1="-1264" x2="176" y2="-1016" stroke-width="10" stroke="black"/>
<line x1="-16" y1="-1072" x2="16" y2="-1264" stroke-width="10" stroke="black"/>
<line x1="192" y1="-1280" x2="0" y2="-1280" stroke-width="10" stroke="black"/>
<line x1="0" y1="-1280" x2="-32" y2="-1080" stroke-width="10" stroke="black"/>
<line x1="192" y1="-1016" x2="192" y2="-1280" stroke-width="10" stroke="black"/>
<line x1="-272" y1="-1168" x2="-136" y2="-1352" stroke-width="10" stroke="black"/>
<line x1="280" y1="-1352" x2="36" y2="-1601" stroke-width="10" stroke="black"/>
<line x1="-568" y1="-1568" x2="-424" y2="-1648" stroke-width="10" stroke="black"/>
<line x1="280" y1="-992" x2="280" y2="-1240" stroke-width="10" stroke="black"/>
<line x1="960" y1="-904" x2="928" y2="-904" stroke-width="10" stroke="black"/>
<line x1="928" y1="-904" x2="928" y2="-880" stroke-width="10" stroke="black"/>
<line x1="984" y1="-1016" x2="960" y2="-904" stroke-width="10" stroke="black"/>
<line x1="608" y1="-640" x2="654" y2="-590" stroke-width="10" stroke="black"/>
<line x1="608" y1="-640" x2="715" y2="-713" stroke-width="10" stroke="black"/>
<line x1="736" y1="-728" x2="704" y2="-896" stroke-width="10" stroke="black"/>
<line x1="704" y1="-896" x2="776" y2="-920" stroke-width="10" stroke="black"/>
<line x1="536" y1="-992" x2="680" y2="-768" stroke-width="10" stroke="black"/>
<line x1="512" y1="-683" x2="608" y2="-640" stroke-width="10" stroke="black"/>
<line x1="895" y1="-831" x2="816" y2="-943" stroke-width="10" stroke="black"/>
<line x1="680" y1="-1320" x2="752" y2="-1320" stroke-width="10" stroke="black"/>
<line x1="880" y1="-1296" x2="880" y2="-1376" stroke-width="10" stroke="black"/>
<line x1="800" y1="-1296" x2="880" y2="-1296" stroke-width="10" stroke="black"/>
<line x1="1024" y1="-1024" x2="976" y2="-1216" stroke-width="10" stroke="black"/>
<line x1="1072" y1="-1304" x2="1152" y2="-1304" stroke-width="10" stroke="black"/>
<line x1="944" y1="-1216" x2="976" y2="-1064" stroke-width="10" stroke="black"/>
<line x1="1152" y1="-1088" x2="1152" y2="-1304" stroke-width="10" stroke="black"/>
<line x1="568" y1="-1032" x2="552" y2="-1144" stroke-width="10" stroke="black"/>
<line x1="848" y1="-1088" x2="800" y2="-1040" stroke-width="10" stroke="black"/>
<line x1="800" y1="-1040" x2="704" y2="-1144" stroke-width="10" stroke="black"/>
<line x1="616" y1="-1144" x2="616" y2="-1120" stroke-width="10" stroke="black"/>
<line x1="704" y1="-1144" x2="616" y2="-1144" stroke-width="10" stroke="black"/>
<line x1="656" y1="-1248" x2="680" y2="-1320" stroke-width="10" stroke="black"/>
<line x1="608" y1="-1416" x2="512" y2="-1392" stroke-width="10" stroke="black"/>
<line x1="512" y1="-1304" x2="560" y2="-1248" stroke-width="10" stroke="black"/>
<line x1="568" y1="-1264" x2="528" y2="-1312" stroke-width="10" stroke="black"/>
<line x1="560" y1="-1248" x2="656" y2="-1248" stroke-width="10" stroke="black"/>
<line x1="656" y1="-1352" x2="608" y2="-1416" stroke-width="10" stroke="black"/>
<line x1="1024" y1="-1024" x2="1088" y2="-1024" stroke-width="10" stroke="black"/>
<line x1="512" y1="-1392" x2="512" y2="-1304" stroke-width="10" stroke="black"/>
<line x1="1000" y1="-1344" x2="880" y2="-1376" stroke-width="10" stroke="black"/>
<line x1="1568" y1="216" x2="1504" y2="144" stroke-width="10" stroke="black"/>
<line x1="1728" y1="0" x2="1536" y2="0" stroke-width="10" stroke="black"/>
<line x1="1376" y1="-128" x2="1344" y2="56" stroke-width="10" stroke="black"/>
<line x1="1344" y1="56" x2="1400" y2="144" stroke-width="10" stroke="black"/>
<line x1="1400" y1="144" x2="1504" y2="144" stroke-width="10" stroke="black"/>
<line x1="1424" y1="-360" x2="1600" y2="-360" stroke-width="10" stroke="black"/>
<line x1="1600" y1="-128" x2="1800" y2="-128" stroke-width="10" stroke="black"/>
<line x1="1408" y1="576" x2="1600" y2="576" stroke-width="10" stroke="black"/>
<line x1="1600" y1="576" x2="1656" y2="472" stroke-width="10" stroke="black"/>
<line x1="1656" y1="472" x2="1440" y2="384" stroke-width="10" stroke="black"/>
<line x1="1440" y1="320" x2="1568" y2="320" stroke-width="10" stroke="black"/>
<line x1="1440" y1="320" x2="1336" y2="344" stroke-width="10" stroke="black"/>
<line x1="1744" y1="296" x2="1744" y2="232" stroke-width="10" stroke="black"/>
<line x1="1640" y1="352" x2="1744" y2="296" stroke-width="10" stroke="black"/>
<line x1="1568" y1="320" x2="1640" y2="352" stroke-width="10" stroke="black"/>
<line x1="1744" y1="232" x2="1680" y2="192" stroke-width="10" stroke="black"/>
<line x1="1984" y1="448" x2="1984" y2="512" stroke-width="10" stroke="black"/>
<line x1="2224" y1="256" x2="2264" y2="320" stroke-width="10" stroke="black"/>
<line x1="2248" y1="208" x2="2304" y2="208" stroke-width="10" stroke="black"/>
<line x1="2248" y1="232" x2="2304" y2="248" stroke-width="10" stroke="black"/>
<line x1="2200" y1="256" x2="2200" y2="320" stroke-width="10" stroke="black"/>
<line x1="1680" y1="192" x2="1568" y2="216" stroke-width="10" stroke="black"/>
<line x1="1224" y1="-192" x2="1336" y2="-160" stroke-width="10" stroke="black"/>
<line x1="1152" y1="16" x2="1200" y2="16" stroke-width="10" stroke="black"/>
<line x1="1152" y1="-64" x2="1152" y2="16" stroke-width="10" stroke="black"/>
<line x1="1032" y1="72" x2="1056" y2="16" stroke-width="10" stroke="black"/>
<line x1="960" y1="72" x2="1032" y2="72" stroke-width="10" stroke="black"/>
<line x1="1056" y1="16" x2="960" y2="-80" stroke-width="10" stroke="black"/>
<line x1="1216" y1="112" x2="1136" y2="112" stroke-width="10" stroke="black"/>
<line x1="1136" y1="112" x2="1016" y2="192" stroke-width="10" stroke="black"/>
<line x1="1224" y1="-96" x2="1192" y2="-136" stroke-width="10" stroke="black"/>
<line x1="1000" y1="616" x2="888" y2="536" stroke-width="10" stroke="black"/>
<line x1="968" y1="352" x2="816" y2="400" stroke-width="10" stroke="black"/>
<line x1="816" y1="400" x2="784" y2="512" stroke-width="10" stroke="black"/>
<line x1="784" y1="624" x2="864" y2="696" stroke-width="10" stroke="black"/>
<line x1="784" y1="512" x2="784" y2="624" stroke-width="10" stroke="black"/>
<line x1="1176" y1="672" x2="1200" y2="568" stroke-width="10" stroke="black"/>
<line x1="1200" y1="568" x2="1176" y2="440" stroke-width="10" stroke="black"/>
<line x1="1136" y1="552" x2="1112" y2="672" stroke-width="10" stroke="black"/>
<line x1="864" y1="696" x2="1000" y2="696" stroke-width="10" stroke="black"/>
<line x1="1176" y1="440" x2="968" y2="352" stroke-width="10" stroke="black"/>
<line x1="1272" y1="440" x2="1336" y2="504" stroke-width="10" stroke="black"/>
<line x1="1016" y1="192" x2="768" y2="192" stroke-width="10" stroke="black"/>
<line x1="1336" y1="-240" x2="1336" y2="-312" stroke-width="10" stroke="black"/>
<line x1="1280" y1="-1088" x2="1432" y2="-1088" stroke-width="10" stroke="black"/>
<line x1="1152" y1="-960" x2="1192" y2="-1024" stroke-width="10" stroke="black"/>
<line x1="1280" y1="-1088" x2="1152" y2="-1088" stroke-width="10" stroke="black"/>
<line x1="1376" y1="-768" x2="1408" y2="-832" stroke-width="10" stroke="black"/>
<line x1="1328" y1="-848" x2="1272" y2="-768" stroke-width="10" stroke="black"/>
<line x1="873" y1="-809" x2="888" y2="-792" stroke-width="10" stroke="black"/>
<line x1="912" y1="-808" x2="896" y2="-831" stroke-width="10" stroke="black"/>
<line x1="984" y1="-880" x2="999" y2="-935" stroke-width="10" stroke="black"/>
<line x1="1408" y1="-960" x2="1280" y2="-1088" stroke-width="10" stroke="black"/>
<line x1="1688" y1="-896" x2="1600" y2="-896" stroke-width="10" stroke="black"/>
<line x1="1848" y1="-992" x2="1688" y2="-896" stroke-width="10" stroke="black"/>
<line x1="1848" y1="-1144" x2="1848" y2="-992" stroke-width="10" stroke="black"/>
<line x1="1664" y1="-1064" x2="1664" y2="-1144" stroke-width="10" stroke="black"/>
<line x1="1728" y1="-1024" x2="1664" y2="-1064" stroke-width="10" stroke="black"/>
<line x1="1736" y1="-1216" x2="1848" y2="-1144" stroke-width="10" stroke="black"/>
<line x1="1600" y1="-896" x2="1728" y2="-1024" stroke-width="10" stroke="black"/>
<line x1="1792" y1="-1536" x2="2029" y2="-1536" stroke-width="10" stroke="black"/>
<line x1="1792" y1="-1536" x2="1771" y2="-1606" stroke-width="10" stroke="black"/>
<line x1="1664" y1="-1144" x2="1736" y2="-1216" stroke-width="10" stroke="black"/>
<line x1="1349" y1="-1285" x2="1431" y2="-1088" stroke-width="10" stroke="black"/>
<line x1="624" y1="-176" x2="720" y2="-176" stroke-width="10" stroke="black"/>
<line x1="760" y1="-200" x2="736" y2="-312" stroke-width="10" stroke="black"/>
<line x1="840" y1="-136" x2="760" y2="-200" stroke-width="10" stroke="black"/>
<line x1="720" y1="-312" x2="720" y2="-176" stroke-width="10" stroke="black"/>
<line x1="654" y1="-590" x2="800" y2="-432" stroke-width="10" stroke="black"/>
<line x1="863" y1="-437" x2="840" y2="-479" stroke-width="10" stroke="black"/>
<line x1="800" y1="-432" x2="880" y2="-360" stroke-width="10" stroke="black"/>
<line x1="1600" y1="-640" x2="1560" y2="-704" stroke-width="10" stroke="black"/>
<line x1="1600" y1="-768" x2="1640" y2="-704" stroke-width="10" stroke="black"/>
<line x1="1640" y1="-704" x2="1600" y2="-640" stroke-width="10" stroke="black"/>
<line x1="1152" y1="-704" x2="1344" y2="-704" stroke-width="10" stroke="black"/>
<line x1="1344" y1="-704" x2="1376" y2="-768" stroke-width="10" stroke="black"/>
<line x1="1560" y1="-704" x2="1600" y2="-768" stroke-width="10" stroke="black"/>
<line x1="1408" y1="-448" x2="1336" y2="-448" stroke-width="10" stroke="black"/>
<line x1="1336" y1="-448" x2="1288" y2="-400" stroke-width="10" stroke="black"/>
<line x1="1144" y1="-384" x2="1184" y2="-520" stroke-width="10" stroke="black"/>
<line x1="1072" y1="-408" x2="1112" y2="-192" stroke-width="10" stroke="black"/>
<line x1="1360" y1="-520" x2="1360" y2="-584" stroke-width="10" stroke="black"/>
<line x1="944" y1="-560" x2="992" y2="-544" stroke-width="10" stroke="black"/>
<line x1="992" y1="-544" x2="1056" y2="-736" stroke-width="10" stroke="black"/>
<line x1="1152" y1="-584" x2="1152" y2="-704" stroke-width="10" stroke="black"/>
<line x1="1184" y1="-520" x2="1360" y2="-520" stroke-width="10" stroke="black"/>
<line x1="1424" y1="-360" x2="1408" y2="-448" stroke-width="10" stroke="black"/>
<line x1="1056" y1="-736" x2="1008" y2="-752" stroke-width="10" stroke="black"/>
<line x1="880" y1="-360" x2="912" y2="-208" stroke-width="10" stroke="black"/>
<line x1="1272" y1="-768" x2="1136" y2="-768" stroke-width="10" stroke="black"/>
<line x1="1336" y1="-312" x2="1424" y2="-360" stroke-width="10" stroke="black"/>
<line x1="1152" y1="-1088" x2="1088" y2="-1024" stroke-width="10" stroke="black"/>
<line x1="680" y1="-1904" x2="592" y2="-1928" stroke-width="10" stroke="black"/>

</svg>

