<svg width="900" height="822" preserveAspectRatio="none" viewBox="-2114 -1306 4420 4060"
 xmlns="http://www.w3.org/2000/svg" xmlns:xlink="http://www.w3.org/1999/xlink">
   <defs>
    <marker id="arrow" markerWidth="10" markerHeight="10" refX="0" refY="2" orient="auto" markerUnits="strokeWidth">
      <path d="M0,0 L0,4 L5,3 z" fill="#f00" />
    </marker>
  </defs>

<line x1="-520" y1="-216" x2="-488" y2="-384" stroke-width="10" stroke="black"/>
<line x1="-464" y1="-192" x2="-520" y2="-216" stroke-width="10" stroke="black"/>
<line x1="-520" y1="-216" x2="-552" y2="-216" stroke-width="10" stroke="black"/>
<line x1="-368" y1="-376" x2="-464" y2="-192" stroke-width="10" stroke="black"/>
<line x1="-360" y1="-376" x2="-352" y2="-384" stroke-width="10" stroke="black"/>
<line x1="-368" y1="-376" x2="-360" y2="-376" stroke-width="10" stroke="black"/>
<line x1="-192" y1="-160" x2="-288" y2="-160" stroke-width="10" stroke="black"/>
<line x1="-296" y1="-256" x2="-296" y2="-160" stroke-width="10" stroke="black"/>
<line x1="-288" y1="-160" x2="-288" y2="-256" stroke-width="10" stroke="black"/>
<line x1="-288" y1="-256" x2="-192" y2="-256" stroke-width="10" stroke="black"/>
<line x1="-304" y1="-320" x2="-304" y2="-256" stroke-width="10" stroke="black"/>
<line x1="-208" y1="-336" x2="-272" y2="-384" stroke-width="10" stroke="black"/>
<line x1="-464" y1="-192" x2="-464" y2="-96" stroke-width="10" stroke="black"/>
<line x1="-496" y1="-760" x2="-448" y2="-776" stroke-width="10" stroke="black"/>
<line x1="-487" y1="-384" x2="-448" y2="-592" stroke-width="10" stroke="black"/>
<line x1="-448" y1="-592" x2="-512" y2="-672" stroke-width="10" stroke="black"/>
<line x1="-512" y1="-672" x2="-496" y2="-760" stroke-width="10" stroke="black"/>
<line x1="-496" y1="-760" x2="-512" y2="-808" stroke-width="10" stroke="black"/>
<line x1="-400" y1="-432" x2="-320" y2="-448" stroke-width="10" stroke="black"/>
<line x1="-400" y1="-424" x2="-400" y2="-432" stroke-width="10" stroke="black"/>
<line x1="-408" y1="-416" x2="-400" y2="-424" stroke-width="10" stroke="black"/>
<line x1="-416" y1="-416" x2="-408" y2="-416" stroke-width="10" stroke="black"/>
<line x1="-400" y1="-432" x2="-408" y2="-440" stroke-width="10" stroke="black"/>
<line x1="-320" y1="-448" x2="-256" y2="-424" stroke-width="10" stroke="black"/>
<line x1="-360" y1="-400" x2="-368" y2="-400" stroke-width="10" stroke="black"/>
<line x1="-352" y1="-392" x2="-360" y2="-400" stroke-width="10" stroke="black"/>
<line x1="-352" y1="-384" x2="-352" y2="-392" stroke-width="10" stroke="black"/>
<line x1="-192" y1="-576" x2="-256" y2="-424" stroke-width="10" stroke="black"/>
<line x1="-256" y1="-424" x2="-272" y2="-384" stroke-width="10" stroke="black"/>
<line x1="-368" y1="-400" x2="-376" y2="-392" stroke-width="10" stroke="black"/>
<line x1="-384" y1="-624" x2="-304" y2="-760" stroke-width="10" stroke="black"/>
<line x1="-304" y1="-760" x2="-272" y2="-744" stroke-width="10" stroke="black"/>
<line x1="-368" y1="-824" x2="-304" y2="-760" stroke-width="10" stroke="black"/>
<line x1="-448" y1="-776" x2="-392" y2="-624" stroke-width="10" stroke="black"/>
<line x1="-424" y1="-432" x2="-424" y2="-424" stroke-width="10" stroke="black"/>
<line x1="-416" y1="-440" x2="-424" y2="-432" stroke-width="10" stroke="black"/>
<line x1="-408" y1="-440" x2="-416" y2="-440" stroke-width="10" stroke="black"/>
<line x1="-400" y1="-616" x2="-400" y2="-608" stroke-width="10" stroke="black"/>
<line x1="-392" y1="-624" x2="-400" y2="-616" stroke-width="10" stroke="black"/>
<line x1="-376" y1="-616" x2="-384" y2="-624" stroke-width="10" stroke="black"/>
<line x1="-376" y1="-608" x2="-376" y2="-616" stroke-width="10" stroke="black"/>
<line x1="-392" y1="-600" x2="-384" y2="-600" stroke-width="10" stroke="black"/>
<line x1="-384" y1="-600" x2="-376" y2="-608" stroke-width="10" stroke="black"/>
<line x1="-384" y1="-624" x2="-392" y2="-624" stroke-width="10" stroke="black"/>
<line x1="-408" y1="-440" x2="-272" y2="-744" stroke-width="10" stroke="black"/>
<line x1="-448" y1="-832" x2="-448" y2="-776" stroke-width="10" stroke="black"/>
<line x1="-352" y1="-384" x2="-272" y2="-384" stroke-width="10" stroke="black"/>
<line x1="-64" y1="-640" x2="-168" y2="-576" stroke-width="10" stroke="black"/>
<line x1="-192" y1="-704" x2="-168" y2="-704" stroke-width="10" stroke="black"/>
<line x1="-16" y1="-768" x2="0" y2="-640" stroke-width="10" stroke="black"/>
<line x1="0" y1="-512" x2="0" y2="-536" stroke-width="10" stroke="black"/>
<line x1="64" y1="-448" x2="0" y2="-448" stroke-width="10" stroke="black"/>
<line x1="64" y1="-480" x2="0" y2="-480" stroke-width="10" stroke="black"/>
<line x1="64" y1="-512" x2="0" y2="-512" stroke-width="10" stroke="black"/>
<line x1="-16" y1="-896" x2="-64" y2="-896" stroke-width="10" stroke="black"/>
<line x1="-64" y1="-1152" x2="0" y2="-1152" stroke-width="10" stroke="black"/>
<line x1="-40" y1="-768" x2="-16" y2="-768" stroke-width="10" stroke="black"/>
<line x1="64" y1="-384" x2="0" y2="-384" stroke-width="10" stroke="black"/>
<line x1="0" y1="-352" x2="0" y2="-384" stroke-width="10" stroke="black"/>
<line x1="64" y1="-320" x2="0" y2="-320" stroke-width="10" stroke="black"/>
<line x1="64" y1="-352" x2="0" y2="-352" stroke-width="10" stroke="black"/>
<line x1="-156" y1="128" x2="-56" y2="64" stroke-width="10" stroke="black"/>
<line x1="64" y1="0" x2="56" y2="0" stroke-width="10" stroke="black"/>
<line x1="-56" y1="64" x2="0" y2="64" stroke-width="10" stroke="black"/>
<line x1="56" y1="64" x2="64" y2="62" stroke-width="10" stroke="black"/>
<line x1="-72" y1="-88" x2="-56" y2="64" stroke-width="10" stroke="black"/>
<line x1="64" y1="-256" x2="0" y2="-256" stroke-width="10" stroke="black"/>
<line x1="-120" y1="-88" x2="-72" y2="-88" stroke-width="10" stroke="black"/>
<line x1="64" y1="-288" x2="0" y2="-288" stroke-width="10" stroke="black"/>
<line x1="64" y1="-416" x2="0" y2="-416" stroke-width="10" stroke="black"/>
<line x1="-192" y1="-256" x2="-192" y2="-160" stroke-width="10" stroke="black"/>
<line x1="656" y1="16" x2="608" y2="-32" stroke-width="10" stroke="black"/>
<line x1="832" y1="16" x2="656" y2="16" stroke-width="10" stroke="black"/>
<line x1="391" y1="88" x2="402" y2="127" stroke-width="10" stroke="black"/>
<line x1="608" y1="-32" x2="608" y2="-64" stroke-width="10" stroke="black"/>
<line x1="856" y1="16" x2="856" y2="112" stroke-width="10" stroke="black"/>
<line x1="832" y1="-64" x2="832" y2="16" stroke-width="10" stroke="black"/>
<line x1="888" y1="128" x2="888" y2="112" stroke-width="10" stroke="black"/>
<line x1="920" y1="-24" x2="880" y2="-24" stroke-width="10" stroke="black"/>
<line x1="920" y1="-8" x2="984" y2="-8" stroke-width="10" stroke="black"/>
<line x1="984" y1="-16" x2="920" y2="-16" stroke-width="10" stroke="black"/>
<line x1="888" y1="0" x2="920" y2="0" stroke-width="10" stroke="black"/>
<line x1="864" y1="16" x2="864" y2="112" stroke-width="10" stroke="black"/>
<line x1="1024" y1="-272" x2="936" y2="-272" stroke-width="10" stroke="black"/>
<line x1="800" y1="-384" x2="800" y2="-448" stroke-width="10" stroke="black"/>
<line x1="792" y1="-448" x2="792" y2="-384" stroke-width="10" stroke="black"/>
<line x1="824" y1="-384" x2="824" y2="-448" stroke-width="10" stroke="black"/>
<line x1="688" y1="-632" x2="600" y2="-712" stroke-width="10" stroke="black"/>
<line x1="720" y1="-480" x2="688" y2="-632" stroke-width="10" stroke="black"/>
<line x1="624" y1="-528" x2="632" y2="-528" stroke-width="10" stroke="black"/>
<line x1="680" y1="-416" x2="768" y2="-384" stroke-width="10" stroke="black"/>
<line x1="632" y1="-528" x2="680" y2="-416" stroke-width="10" stroke="black"/>
<line x1="704" y1="-256" x2="704" y2="-320" stroke-width="10" stroke="black"/>
<line x1="640" y1="-256" x2="704" y2="-256" stroke-width="10" stroke="black"/>
<line x1="640" y1="-320" x2="640" y2="-256" stroke-width="10" stroke="black"/>
<line x1="704" y1="-320" x2="640" y2="-320" stroke-width="10" stroke="black"/>
<line x1="504" y1="-192" x2="624" y2="-528" stroke-width="10" stroke="black"/>
<line x1="768" y1="-448" x2="720" y2="-480" stroke-width="10" stroke="black"/>
<line x1="768" y1="-384" x2="768" y2="-448" stroke-width="10" stroke="black"/>
<line x1="608" y1="-64" x2="640" y2="-64" stroke-width="10" stroke="black"/>
<line x1="600" y1="-712" x2="568" y2="-720" stroke-width="10" stroke="black"/>
<line x1="400" y1="-800" x2="280" y2="-800" stroke-width="10" stroke="black"/>
<line x1="448" y1="-776" x2="512" y2="-776" stroke-width="10" stroke="black"/>
<line x1="256" y1="-616" x2="384" y2="-616" stroke-width="10" stroke="black"/>
<line x1="472" y1="-352" x2="384" y2="-384" stroke-width="10" stroke="black"/>
<line x1="384" y1="-384" x2="472" y2="-664" stroke-width="10" stroke="black"/>
<line x1="472" y1="-352" x2="504" y2="-344" stroke-width="10" stroke="black"/>
<line x1="384" y1="-616" x2="304" y2="-384" stroke-width="10" stroke="black"/>
<line x1="472" y1="-664" x2="256" y2="-664" stroke-width="10" stroke="black"/>
<line x1="232" y1="-704" x2="256" y2="-704" stroke-width="10" stroke="black"/>
<line x1="128" y1="-640" x2="88" y2="-640" stroke-width="10" stroke="black"/>
<line x1="64" y1="-640" x2="80" y2="-768" stroke-width="10" stroke="black"/>
<line x1="256" y1="-576" x2="232" y2="-576" stroke-width="10" stroke="black"/>
<line x1="128" y1="-896" x2="80" y2="-896" stroke-width="10" stroke="black"/>
<line x1="80" y1="-768" x2="104" y2="-768" stroke-width="10" stroke="black"/>
<line x1="256" y1="-576" x2="256" y2="-616" stroke-width="10" stroke="black"/>
<line x1="296" y1="-360" x2="312" y2="-376" stroke-width="10" stroke="black"/>
<line x1="296" y1="-360" x2="352" y2="-304" stroke-width="10" stroke="black"/>
<line x1="136" y1="-64" x2="136" y2="0" stroke-width="10" stroke="black"/>
<line x1="168" y1="0" x2="168" y2="-64" stroke-width="10" stroke="black"/>
<line x1="160" y1="-64" x2="160" y2="0" stroke-width="10" stroke="black"/>
<line x1="136" y1="-64" x2="160" y2="-64" stroke-width="10" stroke="black"/>
<line x1="192" y1="-64" x2="192" y2="-128" stroke-width="10" stroke="black"/>
<line x1="192" y1="0" x2="168" y2="0" stroke-width="10" stroke="black"/>
<line x1="248" y1="-200" x2="128" y2="-320" stroke-width="10" stroke="black"/>
<line x1="368" y1="-320" x2="312" y2="-376" stroke-width="10" stroke="black"/>
<line x1="504" y1="-344" x2="600" y2="-712" stroke-width="10" stroke="black"/>
<line x1="64" y1="-320" x2="64" y2="-288" stroke-width="10" stroke="black"/>
<line x1="2128" y1="-608" x2="2128" y2="-576" stroke-width="10" stroke="black"/>
<line x1="2128" y1="-576" x2="2080" y2="-552" stroke-width="10" stroke="black"/>
<line x1="2080" y1="-552" x2="2032" y2="-576" stroke-width="10" stroke="black"/>
<line x1="2136" y1="-576" x2="2128" y2="-576" stroke-width="10" stroke="black"/>
<line x1="2096" y1="-640" x2="2128" y2="-608" stroke-width="10" stroke="black"/>
<line x1="2032" y1="-608" x2="2064" y2="-640" stroke-width="10" stroke="black"/>
<line x1="2128" y1="-608" x2="2136" y2="-608" stroke-width="10" stroke="black"/>
<line x1="1792" y1="-528" x2="1728" y2="-528" stroke-width="10" stroke="black"/>
<line x1="1792" y1="-480" x2="1792" y2="-528" stroke-width="10" stroke="black"/>
<line x1="1984" y1="-640" x2="1984" y2="-480" stroke-width="10" stroke="black"/>
<line x1="2032" y1="-608" x2="2032" y2="-640" stroke-width="10" stroke="black"/>
<line x1="2048" y1="-896" x2="2112" y2="-896" stroke-width="10" stroke="black"/>
<line x1="2112" y1="-960" x2="2112" y2="-896" stroke-width="10" stroke="black"/>
<line x1="2048" y1="-896" x2="2048" y2="-960" stroke-width="10" stroke="black"/>
<line x1="2112" y1="-680" x2="2048" y2="-680" stroke-width="10" stroke="black"/>
<line x1="2048" y1="-664" x2="2112" y2="-664" stroke-width="10" stroke="black"/>
<line x1="2048" y1="-704" x2="1984" y2="-704" stroke-width="10" stroke="black"/>
<line x1="1664" y1="-640" x2="1984" y2="-640" stroke-width="10" stroke="black"/>
<line x1="2048" y1="-48" x2="2008" y2="-8" stroke-width="10" stroke="black"/>
<line x1="1760" y1="96" x2="1936" y2="96" stroke-width="10" stroke="black"/>
<line x1="2008" y1="-120" x2="2048" y2="-80" stroke-width="10" stroke="black"/>
<line x1="2128" y1="-192" x2="1888" y2="-192" stroke-width="10" stroke="black"/>
<line x1="1760" y1="0" x2="1760" y2="96" stroke-width="10" stroke="black"/>
<line x1="1792" y1="-416" x2="1792" y2="-480" stroke-width="10" stroke="black"/>
<line x1="1728" y1="-480" x2="1728" y2="-416" stroke-width="10" stroke="black"/>
<line x1="1792" y1="-392" x2="1792" y2="-416" stroke-width="10" stroke="black"/>
<line x1="1728" y1="-416" x2="1728" y2="-392" stroke-width="10" stroke="black"/>
<line x1="1728" y1="-392" x2="1792" y2="-392" stroke-width="10" stroke="black"/>
<line x1="1728" y1="-416" x2="1664" y2="-416" stroke-width="10" stroke="black"/>
<line x1="1920" y1="-416" x2="1920" y2="-480" stroke-width="10" stroke="black"/>
<line x1="1888" y1="-344" x2="1872" y2="-344" stroke-width="10" stroke="black"/>
<line x1="1888" y1="-264" x2="1952" y2="-264" stroke-width="10" stroke="black"/>
<line x1="1952" y1="-272" x2="1888" y2="-272" stroke-width="10" stroke="black"/>
<line x1="1952" y1="-280" x2="1888" y2="-280" stroke-width="10" stroke="black"/>
<line x1="1984" y1="-480" x2="1984" y2="-344" stroke-width="10" stroke="black"/>
<line x1="1952" y1="-344" x2="1952" y2="-280" stroke-width="10" stroke="black"/>
<line x1="1856" y1="-416" x2="1856" y2="-344" stroke-width="10" stroke="black"/>
<line x1="1664" y1="-256" x2="1760" y2="-256" stroke-width="10" stroke="black"/>
<line x1="1920" y1="-480" x2="1856" y2="-480" stroke-width="10" stroke="black"/>
<line x1="1336" y1="64" x2="1336" y2="48" stroke-width="10" stroke="black"/>
<line x1="1336" y1="-64" x2="1368" y2="-64" stroke-width="10" stroke="black"/>
<line x1="1312" y1="-48" x2="1336" y2="-48" stroke-width="10" stroke="black"/>
<line x1="1368" y1="-88" x2="1328" y2="-88" stroke-width="10" stroke="black"/>
<line x1="1432" y1="-80" x2="1368" y2="-80" stroke-width="10" stroke="black"/>
<line x1="1368" y1="-72" x2="1432" y2="-72" stroke-width="10" stroke="black"/>
<line x1="1104" y1="-48" x2="1056" y2="-96" stroke-width="10" stroke="black"/>
<line x1="1280" y1="64" x2="1152" y2="64" stroke-width="10" stroke="black"/>
<line x1="1280" y1="-48" x2="1104" y2="-48" stroke-width="10" stroke="black"/>
<line x1="1056" y1="-96" x2="1056" y2="-128" stroke-width="10" stroke="black"/>
<line x1="1304" y1="-48" x2="1304" y2="48" stroke-width="10" stroke="black"/>
<line x1="1280" y1="-128" x2="1280" y2="-48" stroke-width="10" stroke="black"/>
<line x1="1312" y1="48" x2="1312" y2="-48" stroke-width="10" stroke="black"/>
<line x1="1512" y1="-48" x2="1512" y2="-64" stroke-width="10" stroke="black"/>
<line x1="1488" y1="-48" x2="1488" y2="48" stroke-width="10" stroke="black"/>
<line x1="1496" y1="48" x2="1496" y2="-48" stroke-width="10" stroke="black"/>
<line x1="1568" y1="-152" x2="1568" y2="-144" stroke-width="10" stroke="black"/>
<line x1="1568" y1="-144" x2="1632" y2="-144" stroke-width="10" stroke="black"/>
<line x1="1632" y1="-152" x2="1568" y2="-152" stroke-width="10" stroke="black"/>
<line x1="1632" y1="-144" x2="1632" y2="-152" stroke-width="10" stroke="black"/>
<line x1="1632" y1="-232" x2="1648" y2="-232" stroke-width="10" stroke="black"/>
<line x1="1512" y1="-64" x2="1608" y2="-64" stroke-width="10" stroke="black"/>
<line x1="1472" y1="-240" x2="1472" y2="-88" stroke-width="10" stroke="black"/>
<line x1="1600" y1="-480" x2="1600" y2="-416" stroke-width="10" stroke="black"/>
<line x1="1664" y1="-528" x2="1600" y2="-528" stroke-width="10" stroke="black"/>
<line x1="1600" y1="-480" x2="1664" y2="-480" stroke-width="10" stroke="black"/>
<line x1="1600" y1="-416" x2="1600" y2="-392" stroke-width="10" stroke="black"/>
<line x1="1600" y1="-392" x2="1664" y2="-392" stroke-width="10" stroke="black"/>
<line x1="1632" y1="-248" x2="1568" y2="-248" stroke-width="10" stroke="black"/>
<line x1="1568" y1="-256" x2="1536" y2="-256" stroke-width="10" stroke="black"/>
<line x1="1664" y1="-416" x2="1600" y2="-416" stroke-width="10" stroke="black"/>
<line x1="1504" y1="-416" x2="1504" y2="-352" stroke-width="10" stroke="black"/>
<line x1="1528" y1="-416" x2="1528" y2="-352" stroke-width="10" stroke="black"/>
<line x1="1520" y1="-416" x2="1520" y2="-352" stroke-width="10" stroke="black"/>
<line x1="1512" y1="-416" x2="1512" y2="-352" stroke-width="10" stroke="black"/>
<line x1="1536" y1="-448" x2="1472" y2="-448" stroke-width="10" stroke="black"/>
<line x1="1504" y1="-416" x2="1512" y2="-416" stroke-width="10" stroke="black"/>
<line x1="1408" y1="-256" x2="1472" y2="-256" stroke-width="10" stroke="black"/>
<line x1="1256" y1="-416" x2="1112" y2="-272" stroke-width="10" stroke="black"/>
<line x1="1048" y1="-336" x2="1048" y2="-496" stroke-width="10" stroke="black"/>
<line x1="1280" y1="-640" x2="1280" y2="-704" stroke-width="10" stroke="black"/>
<line x1="1216" y1="-640" x2="1280" y2="-640" stroke-width="10" stroke="black"/>
<line x1="1272" y1="-512" x2="1216" y2="-568" stroke-width="10" stroke="black"/>
<line x1="1112" y1="-560" x2="1160" y2="-512" stroke-width="10" stroke="black"/>
<line x1="1408" y1="-352" x2="1408" y2="-640" stroke-width="10" stroke="black"/>
<line x1="1536" y1="-352" x2="1536" y2="-416" stroke-width="10" stroke="black"/>
<line x1="1568" y1="-240" x2="1632" y2="-240" stroke-width="10" stroke="black"/>
<line x1="1664" y1="-392" x2="1664" y2="-416" stroke-width="10" stroke="black"/>
<line x1="1024" y1="-560" x2="1024" y2="-496" stroke-width="10" stroke="black"/>
<line x1="120" y1="600" x2="128" y2="600" stroke-width="10" stroke="black"/>
<line x1="128" y1="392" x2="120" y2="392" stroke-width="10" stroke="black"/>
<line x1="-256" y1="192" x2="-156" y2="128" stroke-width="10" stroke="black"/>
<line x1="-64" y1="400" x2="-136" y2="352" stroke-width="10" stroke="black"/>
<line x1="8" y1="352" x2="-64" y2="400" stroke-width="10" stroke="black"/>
<line x1="8" y1="256" x2="8" y2="352" stroke-width="10" stroke="black"/>
<line x1="-64" y1="208" x2="8" y2="256" stroke-width="10" stroke="black"/>
<line x1="-136" y1="256" x2="-64" y2="208" stroke-width="10" stroke="black"/>
<line x1="-136" y1="352" x2="-136" y2="256" stroke-width="10" stroke="black"/>
<line x1="16" y1="200" x2="-144" y2="200" stroke-width="10" stroke="black"/>
<line x1="-144" y1="408" x2="16" y2="408" stroke-width="10" stroke="black"/>
<line x1="16" y1="408" x2="16" y2="200" stroke-width="10" stroke="black"/>
<line x1="-144" y1="200" x2="-144" y2="408" stroke-width="10" stroke="black"/>
<line x1="-136" y1="728" x2="-224" y2="704" stroke-width="10" stroke="black"/>
<line x1="-208" y1="544" x2="-240" y2="456" stroke-width="10" stroke="black"/>
<line x1="-240" y1="456" x2="-176" y2="440" stroke-width="10" stroke="black"/>
<line x1="-256" y1="704" x2="-224" y2="704" stroke-width="10" stroke="black"/>
<line x1="-192" y1="344" x2="-256" y2="248" stroke-width="10" stroke="black"/>
<line x1="-256" y1="248" x2="-256" y2="192" stroke-width="10" stroke="black"/>
<line x1="120" y1="600" x2="120" y2="392" stroke-width="10" stroke="black"/>
<line x1="0" y1="800" x2="-64" y2="800" stroke-width="10" stroke="black"/>
<line x1="-64" y1="896" x2="0" y2="896" stroke-width="10" stroke="black"/>
<line x1="-64" y1="888" x2="0" y2="888" stroke-width="10" stroke="black"/>
<line x1="0" y1="880" x2="-64" y2="880" stroke-width="10" stroke="black"/>
<line x1="40" y1="832" x2="0" y2="872" stroke-width="10" stroke="black"/>
<line x1="64" y1="896" x2="64" y2="832" stroke-width="10" stroke="black"/>
<line x1="40" y1="768" x2="0" y2="800" stroke-width="10" stroke="black"/>
<line x1="128" y1="753" x2="64" y2="728" stroke-width="10" stroke="black"/>
<line x1="64" y1="832" x2="128" y2="832" stroke-width="10" stroke="black"/>
<line x1="0" y1="872" x2="0" y2="880" stroke-width="10" stroke="black"/>
<line x1="-200" y1="1152" x2="-200" y2="1024" stroke-width="10" stroke="black"/>
<line x1="-208" y1="1024" x2="-208" y2="1152" stroke-width="10" stroke="black"/>
<line x1="-216" y1="896" x2="-216" y2="1024" stroke-width="10" stroke="black"/>
<line x1="-64" y1="800" x2="-104" y2="768" stroke-width="10" stroke="black"/>
<line x1="-136" y1="728" x2="-240" y2="840" stroke-width="10" stroke="black"/>
<line x1="-376" y1="896" x2="-216" y2="896" stroke-width="10" stroke="black"/>
<line x1="-384" y1="1024" x2="-376" y2="1024" stroke-width="10" stroke="black"/>
<line x1="-64" y1="896" x2="-64" y2="888" stroke-width="10" stroke="black"/>
<line x1="64" y1="728" x2="0" y2="728" stroke-width="10" stroke="black"/>
<line x1="-1472" y1="1024" x2="-1480" y2="1024" stroke-width="10" stroke="black"/>
<line x1="-1472" y1="1040" x2="-1472" y2="1024" stroke-width="10" stroke="black"/>
<line x1="-1472" y1="880" x2="-1536" y2="880" stroke-width="10" stroke="black"/>
<line x1="-1552" y1="1120" x2="-1616" y2="1120" stroke-width="10" stroke="black"/>
<line x1="-1552" y1="1152" x2="-1552" y2="1120" stroke-width="10" stroke="black"/>
<line x1="-1792" y1="1136" x2="-1792" y2="1152" stroke-width="10" stroke="black"/>
<line x1="-1728" y1="1152" x2="-1728" y2="1136" stroke-width="10" stroke="black"/>
<line x1="-1600" y1="736" x2="-1600" y2="800" stroke-width="10" stroke="black"/>
<line x1="-1536" y1="736" x2="-1600" y2="736" stroke-width="10" stroke="black"/>
<line x1="-1728" y1="784" x2="-1792" y2="784" stroke-width="10" stroke="black"/>
<line x1="-1728" y1="848" x2="-1728" y2="784" stroke-width="10" stroke="black"/>
<line x1="-1792" y1="848" x2="-1728" y2="848" stroke-width="10" stroke="black"/>
<line x1="-1536" y1="800" x2="-1536" y2="736" stroke-width="10" stroke="black"/>
<line x1="-1088" y1="1152" x2="-1056" y2="1120" stroke-width="10" stroke="black"/>
<line x1="-1056" y1="1120" x2="-1088" y2="1088" stroke-width="10" stroke="black"/>
<line x1="-1344" y1="1040" x2="-1344" y2="880" stroke-width="10" stroke="black"/>
<line x1="-1088" y1="1152" x2="-1088" y2="1088" stroke-width="10" stroke="black"/>
<line x1="-1368" y1="320" x2="-1368" y2="880" stroke-width="10" stroke="black"/>
<line x1="-576" y1="648" x2="-700" y2="555" stroke-width="10" stroke="black"/>
<line x1="-736" y1="520" x2="-768" y2="552" stroke-width="10" stroke="black"/>
<line x1="-704" y1="552" x2="-768" y2="552" stroke-width="10" stroke="black"/>
<line x1="-704" y1="552" x2="-736" y2="520" stroke-width="10" stroke="black"/>
<line x1="-704" y1="560" x2="-616" y2="440" stroke-width="10" stroke="black"/>
<line x1="-552" y1="520" x2="-552" y2="648" stroke-width="10" stroke="black"/>
<line x1="-408" y1="520" x2="-552" y2="520" stroke-width="10" stroke="black"/>
<line x1="-576" y1="520" x2="-576" y2="648" stroke-width="10" stroke="black"/>
<line x1="-576" y1="1152" x2="-576" y2="1024" stroke-width="10" stroke="black"/>
<line x1="-408" y1="968" x2="-552" y2="968" stroke-width="10" stroke="black"/>
<line x1="-640" y1="1024" x2="-600" y2="1024" stroke-width="10" stroke="black"/>
<line x1="-392" y1="1024" x2="-392" y2="1152" stroke-width="10" stroke="black"/>
<line x1="-408" y1="648" x2="-408" y2="968" stroke-width="10" stroke="black"/>
<line x1="-408" y1="648" x2="-552" y2="648" stroke-width="10" stroke="black"/>
<line x1="-768" y1="552" x2="-960" y2="1152" stroke-width="10" stroke="black"/>
<line x1="-384" y1="824" x2="-384" y2="648" stroke-width="10" stroke="black"/>
<line x1="1440" y1="256" x2="1376" y2="256" stroke-width="10" stroke="black"/>
<line x1="1376" y1="280" x2="1440" y2="280" stroke-width="10" stroke="black"/>
<line x1="1440" y1="272" x2="1376" y2="272" stroke-width="10" stroke="black"/>
<line x1="1152" y1="256" x2="1152" y2="640" stroke-width="10" stroke="black"/>
<line x1="1312" y1="240" x2="1312" y2="144" stroke-width="10" stroke="black"/>
<line x1="1304" y1="144" x2="1304" y2="240" stroke-width="10" stroke="black"/>
<line x1="1280" y1="128" x2="1280" y2="144" stroke-width="10" stroke="black"/>
<line x1="1336" y1="144" x2="1336" y2="128" stroke-width="10" stroke="black"/>
<line x1="1568" y1="576" x2="1568" y2="480" stroke-width="10" stroke="black"/>
<line x1="1568" y1="480" x2="1504" y2="480" stroke-width="10" stroke="black"/>
<line x1="1696" y1="576" x2="1696" y2="480" stroke-width="10" stroke="black"/>
<line x1="1632" y1="480" x2="1632" y2="576" stroke-width="10" stroke="black"/>
<line x1="1696" y1="584" x2="1760" y2="584" stroke-width="10" stroke="black"/>
<line x1="1760" y1="576" x2="1696" y2="576" stroke-width="10" stroke="black"/>
<line x1="1600" y1="128" x2="1600" y2="256" stroke-width="10" stroke="black"/>
<line x1="1936" y1="192" x2="1760" y2="192" stroke-width="10" stroke="black"/>
<line x1="1760" y1="192" x2="1760" y2="256" stroke-width="10" stroke="black"/>
<line x1="1472" y1="144" x2="1480" y2="144" stroke-width="10" stroke="black"/>
<line x1="1480" y1="240" x2="1472" y2="240" stroke-width="10" stroke="black"/>
<line x1="1488" y1="240" x2="1488" y2="144" stroke-width="10" stroke="black"/>
<line x1="1480" y1="144" x2="1480" y2="240" stroke-width="10" stroke="black"/>
<line x1="1496" y1="144" x2="1496" y2="128" stroke-width="10" stroke="black"/>
<line x1="1440" y1="416" x2="1664" y2="416" stroke-width="10" stroke="black"/>
<line x1="1440" y1="280" x2="1440" y2="304" stroke-width="10" stroke="black"/>
<line x1="320" y1="536" x2="264" y2="592" stroke-width="10" stroke="black"/>
<line x1="264" y1="400" x2="320" y2="456" stroke-width="10" stroke="black"/>
<line x1="128" y1="456" x2="184" y2="400" stroke-width="10" stroke="black"/>
<line x1="320" y1="456" x2="320" y2="536" stroke-width="10" stroke="black"/>
<line x1="184" y1="400" x2="264" y2="400" stroke-width="10" stroke="black"/>
<line x1="184" y1="592" x2="128" y2="536" stroke-width="10" stroke="black"/>
<line x1="264" y1="592" x2="184" y2="592" stroke-width="10" stroke="black"/>
<line x1="128" y1="600" x2="328" y2="600" stroke-width="10" stroke="black"/>
<line x1="328" y1="392" x2="128" y2="392" stroke-width="10" stroke="black"/>
<line x1="328" y1="600" x2="328" y2="392" stroke-width="10" stroke="black"/>
<line x1="992" y1="544" x2="992" y2="480" stroke-width="10" stroke="black"/>
<line x1="992" y1="480" x2="928" y2="480" stroke-width="10" stroke="black"/>
<line x1="928" y1="544" x2="992" y2="544" stroke-width="10" stroke="black"/>
<line x1="888" y1="320" x2="888" y2="304" stroke-width="10" stroke="black"/>
<line x1="888" y1="192" x2="936" y2="192" stroke-width="10" stroke="black"/>
<line x1="864" y1="384" x2="1024" y2="384" stroke-width="10" stroke="black"/>
<line x1="704" y1="128" x2="704" y2="192" stroke-width="10" stroke="black"/>
<line x1="856" y1="208" x2="856" y2="304" stroke-width="10" stroke="black"/>
<line x1="832" y1="192" x2="832" y2="208" stroke-width="10" stroke="black"/>
<line x1="832" y1="320" x2="704" y2="320" stroke-width="10" stroke="black"/>
<line x1="704" y1="320" x2="704" y2="384" stroke-width="10" stroke="black"/>
<line x1="736" y1="544" x2="800" y2="544" stroke-width="10" stroke="black"/>
<line x1="800" y1="544" x2="800" y2="480" stroke-width="10" stroke="black"/>
<line x1="800" y1="480" x2="736" y2="480" stroke-width="10" stroke="black"/>
<line x1="856" y1="304" x2="832" y2="304" stroke-width="10" stroke="black"/>
<line x1="864" y1="304" x2="864" y2="208" stroke-width="10" stroke="black"/>
<line x1="403" y1="128" x2="479" y2="384" stroke-width="10" stroke="black"/>
<line x1="328" y1="1088" x2="320" y2="1088" stroke-width="10" stroke="black"/>
<line x1="328" y1="696" x2="184" y2="776" stroke-width="10" stroke="black"/>
<line x1="320" y1="960" x2="328" y2="960" stroke-width="10" stroke="black"/>
<line x1="496" y1="1024" x2="416" y2="1024" stroke-width="10" stroke="black"/>
<line x1="640" y1="896" x2="640" y2="880" stroke-width="10" stroke="black"/>
<line x1="512" y1="896" x2="640" y2="896" stroke-width="10" stroke="black"/>
<line x1="496" y1="880" x2="496" y2="1024" stroke-width="10" stroke="black"/>
<line x1="416" y1="1040" x2="512" y2="1040" stroke-width="10" stroke="black"/>
<line x1="336" y1="1088" x2="336" y2="960" stroke-width="10" stroke="black"/>
<line x1="344" y1="1128" x2="344" y2="1088" stroke-width="10" stroke="black"/>
<line x1="355" y1="640" x2="328" y2="696" stroke-width="10" stroke="black"/>
<line x1="640" y1="1136" x2="512" y2="1136" stroke-width="10" stroke="black"/>
<line x1="512" y1="1144" x2="640" y2="1144" stroke-width="10" stroke="black"/>
<line x1="512" y1="1128" x2="344" y2="1128" stroke-width="10" stroke="black"/>
<line x1="768" y1="1152" x2="768" y2="640" stroke-width="10" stroke="black"/>
<line x1="328" y1="960" x2="328" y2="1088" stroke-width="10" stroke="black"/>
<line x1="1024" y1="640" x2="960" y2="640" stroke-width="10" stroke="black"/>
<line x1="1024" y1="384" x2="1024" y2="128" stroke-width="10" stroke="black"/>
<line x1="128" y1="456" x2="128" y2="536" stroke-width="10" stroke="black"/>
<line x1="768" y1="2048" x2="768" y2="2032" stroke-width="10" stroke="black"/>
<line x1="960" y1="1600" x2="768" y2="1600" stroke-width="10" stroke="black"/>
<line x1="960" y1="1600" x2="1016" y2="1600" stroke-width="10" stroke="black"/>
<line x1="1024" y1="1600" x2="1024" y2="1536" stroke-width="10" stroke="black"/>
<line x1="1016" y1="1472" x2="1016" y2="1536" stroke-width="10" stroke="black"/>
<line x1="960" y1="1664" x2="960" y2="2048" stroke-width="10" stroke="black"/>
<line x1="984" y1="1440" x2="952" y2="1408" stroke-width="10" stroke="black"/>
<line x1="952" y1="1408" x2="920" y2="1440" stroke-width="10" stroke="black"/>
<line x1="1120" y1="1296" x2="1088" y2="1264" stroke-width="10" stroke="black"/>
<line x1="1088" y1="1328" x2="1120" y2="1296" stroke-width="10" stroke="black"/>
<line x1="1088" y1="1264" x2="960" y2="1264" stroke-width="10" stroke="black"/>
<line x1="960" y1="1152" x2="960" y2="1264" stroke-width="10" stroke="black"/>
<line x1="808" y1="1328" x2="1088" y2="1328" stroke-width="10" stroke="black"/>
<line x1="808" y1="1448" x2="920" y2="1448" stroke-width="10" stroke="black"/>
<line x1="808" y1="1464" x2="920" y2="1464" stroke-width="10" stroke="black"/>
<line x1="920" y1="1456" x2="808" y2="1456" stroke-width="10" stroke="black"/>
<line x1="984" y1="1440" x2="920" y2="1440" stroke-width="10" stroke="black"/>
<line x1="960" y1="1472" x2="1016" y2="1472" stroke-width="10" stroke="black"/>
<line x1="520" y1="1664" x2="376" y2="1664" stroke-width="10" stroke="black"/>
<line x1="376" y1="1280" x2="520" y2="1424" stroke-width="10" stroke="black"/>
<line x1="376" y1="1536" x2="520" y2="1536" stroke-width="10" stroke="black"/>
<line x1="576" y1="1728" x2="576" y2="1344" stroke-width="10" stroke="black"/>
<line x1="352" y1="1504" x2="352" y2="1440" stroke-width="10" stroke="black"/>
<line x1="344" y1="1440" x2="344" y2="1504" stroke-width="10" stroke="black"/>
<line x1="360" y1="1264" x2="320" y2="1304" stroke-width="10" stroke="black"/>
<line x1="320" y1="1336" x2="376" y2="1280" stroke-width="10" stroke="black"/>
<line x1="320" y1="1440" x2="344" y2="1440" stroke-width="10" stroke="black"/>
<line x1="344" y1="1632" x2="320" y2="1632" stroke-width="10" stroke="black"/>
<line x1="352" y1="1632" x2="352" y2="1568" stroke-width="10" stroke="black"/>
<line x1="344" y1="1568" x2="344" y2="1632" stroke-width="10" stroke="black"/>
<line x1="344" y1="1504" x2="320" y2="1504" stroke-width="10" stroke="black"/>
<line x1="376" y1="1528" x2="376" y2="1504" stroke-width="10" stroke="black"/>
<line x1="736" y1="1936" x2="736" y2="2032" stroke-width="10" stroke="black"/>
<line x1="712" y1="2032" x2="712" y2="2048" stroke-width="10" stroke="black"/>
<line x1="640" y1="1904" x2="512" y2="1904" stroke-width="10" stroke="black"/>
<line x1="512" y1="1912" x2="640" y2="1912" stroke-width="10" stroke="black"/>
<line x1="368" y1="1920" x2="512" y2="1920" stroke-width="10" stroke="black"/>
<line x1="320" y1="1920" x2="336" y2="1920" stroke-width="10" stroke="black"/>
<line x1="336" y1="2048" x2="320" y2="2048" stroke-width="10" stroke="black"/>
<line x1="344" y1="2048" x2="344" y2="1920" stroke-width="10" stroke="black"/>
<line x1="336" y1="1920" x2="336" y2="2048" stroke-width="10" stroke="black"/>
<line x1="368" y1="2048" x2="368" y2="1920" stroke-width="10" stroke="black"/>
<line x1="512" y1="1896" x2="384" y2="1896" stroke-width="10" stroke="black"/>
<line x1="744" y1="2032" x2="744" y2="1936" stroke-width="10" stroke="black"/>
<line x1="280" y1="2104" x2="320" y2="2144" stroke-width="10" stroke="black"/>
<line x1="320" y1="2064" x2="280" y2="2104" stroke-width="10" stroke="black"/>
<line x1="320" y1="1824" x2="280" y2="1864" stroke-width="10" stroke="black"/>
<line x1="280" y1="1864" x2="320" y2="1904" stroke-width="10" stroke="black"/>
<line x1="-576" y1="2624" x2="-608" y2="2592" stroke-width="10" stroke="black"/>
<line x1="-608" y1="2592" x2="-640" y2="2624" stroke-width="10" stroke="black"/>
<line x1="-576" y1="2192" x2="-656" y2="2256" stroke-width="10" stroke="black"/>
<line x1="-656" y1="2256" x2="-576" y2="2320" stroke-width="10" stroke="black"/>
<line x1="-576" y1="2144" x2="-576" y2="2192" stroke-width="10" stroke="black"/>
<line x1="320" y1="2144" x2="-576" y2="2144" stroke-width="10" stroke="black"/>
<line x1="288" y1="1536" x2="320" y2="1568" stroke-width="10" stroke="black"/>
<line x1="320" y1="1504" x2="288" y2="1536" stroke-width="10" stroke="black"/>
<line x1="-544" y1="1744" x2="-512" y2="1776" stroke-width="10" stroke="black"/>
<line x1="-512" y1="1712" x2="-544" y2="1744" stroke-width="10" stroke="black"/>
<line x1="320" y1="1664" x2="-512" y2="1664" stroke-width="10" stroke="black"/>
<line x1="-832" y1="1728" x2="-800" y2="1760" stroke-width="10" stroke="black"/>
<line x1="-808" y1="1464" x2="-808" y2="1408" stroke-width="10" stroke="black"/>
<line x1="-832" y1="1728" x2="-768" y2="1728" stroke-width="10" stroke="black"/>
<line x1="-800" y1="1760" x2="-768" y2="1728" stroke-width="10" stroke="black"/>
<line x1="-512" y1="1824" x2="320" y2="1824" stroke-width="10" stroke="black"/>
<line x1="304" y1="1352" x2="320" y2="1336" stroke-width="10" stroke="black"/>
<line x1="320" y1="1304" x2="288" y2="1336" stroke-width="10" stroke="black"/>
<line x1="0" y1="1232" x2="128" y2="1232" stroke-width="10" stroke="black"/>
<line x1="128" y1="1240" x2="192" y2="1240" stroke-width="10" stroke="black"/>
<line x1="248" y1="1296" x2="248" y2="1224" stroke-width="10" stroke="black"/>
<line x1="0" y1="1216" x2="-192" y2="1216" stroke-width="10" stroke="black"/>
<line x1="248" y1="1224" x2="312" y2="1224" stroke-width="10" stroke="black"/>
<line x1="-688" y1="1152" x2="-512" y2="1328" stroke-width="10" stroke="black"/>
<line x1="-808" y1="1408" x2="-808" y2="1272" stroke-width="10" stroke="black"/>
<line x1="-544" y1="1376" x2="-512" y2="1408" stroke-width="10" stroke="black"/>
<line x1="-512" y1="1344" x2="-544" y2="1376" stroke-width="10" stroke="black"/>
<line x1="-264" y1="1312" x2="-192" y2="1240" stroke-width="10" stroke="black"/>
<line x1="-192" y1="1384" x2="-264" y2="1312" stroke-width="10" stroke="black"/>
<line x1="-272" y1="1240" x2="-272" y2="1384" stroke-width="10" stroke="black"/>
<line x1="-216" y1="1216" x2="-376" y2="1216" stroke-width="10" stroke="black"/>
<line x1="-408" y1="1152" x2="-408" y2="1216" stroke-width="10" stroke="black"/>
<line x1="-192" y1="1216" x2="-192" y2="1152" stroke-width="10" stroke="black"/>
<line x1="-384" y1="1408" x2="320" y2="1408" stroke-width="10" stroke="black"/>
<line x1="-1728" y1="1232" x2="-1728" y2="1216" stroke-width="10" stroke="black"/>
<line x1="-1792" y1="1232" x2="-1728" y2="1232" stroke-width="10" stroke="black"/>
<line x1="-1800" y1="1376" x2="-1792" y2="1376" stroke-width="10" stroke="black"/>
<line x1="-1792" y1="1440" x2="-1800" y2="1440" stroke-width="10" stroke="black"/>
<line x1="-1856" y1="1360" x2="-1856" y2="1456" stroke-width="10" stroke="black"/>
<line x1="-1792" y1="1440" x2="-1792" y2="1376" stroke-width="10" stroke="black"/>
<line x1="-1552" y1="1184" x2="-1552" y2="1152" stroke-width="10" stroke="black"/>
<line x1="-1616" y1="1184" x2="-1552" y2="1184" stroke-width="10" stroke="black"/>
<line x1="-1504" y1="1344" x2="-1512" y2="1344" stroke-width="10" stroke="black"/>
<line x1="-1568" y1="1264" x2="-1568" y2="1360" stroke-width="10" stroke="black"/>
<line x1="-1504" y1="1264" x2="-1568" y2="1264" stroke-width="10" stroke="black"/>
<line x1="-1504" y1="1344" x2="-1504" y2="1280" stroke-width="10" stroke="black"/>
<line x1="-1472" y1="1536" x2="-1472" y2="1472" stroke-width="10" stroke="black"/>
<line x1="-1536" y1="1536" x2="-1472" y2="1536" stroke-width="10" stroke="black"/>
<line x1="-1536" y1="1472" x2="-1536" y2="1536" stroke-width="10" stroke="black"/>
<line x1="-1608" y1="1512" x2="-1616" y2="1512" stroke-width="10" stroke="black"/>
<line x1="-1608" y1="1528" x2="-1608" y2="1512" stroke-width="10" stroke="black"/>
<line x1="-1608" y1="1432" x2="-1672" y2="1432" stroke-width="10" stroke="black"/>
<line x1="-1672" y1="1432" x2="-1672" y2="1528" stroke-width="10" stroke="black"/>
<line x1="-1088" y1="1664" x2="-1056" y2="1632" stroke-width="10" stroke="black"/>
<line x1="-1056" y1="1632" x2="-1088" y2="1600" stroke-width="10" stroke="black"/>
<line x1="-896" y1="2048" x2="-864" y2="2016" stroke-width="10" stroke="black"/>
<line x1="-864" y1="2016" x2="-896" y2="1984" stroke-width="10" stroke="black"/>
<line x1="-1408" y1="1424" x2="-1408" y2="1264" stroke-width="10" stroke="black"/>
<line x1="-1400" y1="1152" x2="-1432" y2="1264" stroke-width="10" stroke="black"/>
<line x1="-1248" y1="1472" x2="-1248" y2="1216" stroke-width="10" stroke="black"/>
<line x1="-1088" y1="1664" x2="-1088" y2="1600" stroke-width="10" stroke="black"/>
<line x1="-1432" y1="1424" x2="-1432" y2="1824" stroke-width="10" stroke="black"/>
<line x1="-832" y1="1464" x2="-832" y2="1272" stroke-width="10" stroke="black"/>
<line x1="320" y1="1504" x2="320" y2="1440" stroke-width="10" stroke="black"/>
<line x1="-200" y1="1152" x2="-208" y2="1152" stroke-width="10" stroke="black"/>
<line x1="936" y1="128" x2="888" y2="128" stroke-width="10" stroke="black"/>

</svg>

