<svg width="900" height="867" preserveAspectRatio="none" viewBox="-2818 -2818 5060 4884"
 xmlns="http://www.w3.org/2000/svg" xmlns:xlink="http://www.w3.org/1999/xlink">
   <defs>
    <marker id="arrow" markerWidth="10" markerHeight="10" refX="0" refY="2" orient="auto" markerUnits="strokeWidth">
      <path d="M0,0 L0,4 L5,3 z" fill="#f00" />
    </marker>
  </defs>

<line x1="-1408" y1="896" x2="-1472" y2="896" stroke-width="10" stroke="black"/>
<line x1="-1408" y1="832" x2="-1408" y2="896" stroke-width="10" stroke="black"/>
<line x1="-1216" y1="1024" x2="-1216" y2="832" stroke-width="10" stroke="black"/>
<line x1="-1408" y1="896" x2="-1344" y2="960" stroke-width="10" stroke="black"/>
<line x1="-1024" y1="1024" x2="-1024" y2="832" stroke-width="10" stroke="black"/>
<line x1="-1032" y1="832" x2="-1032" y2="1024" stroke-width="10" stroke="black"/>
<line x1="-960" y1="808" x2="-896" y2="808" stroke-width="10" stroke="black"/>
<line x1="-896" y1="792" x2="-960" y2="792" stroke-width="10" stroke="black"/>
<line x1="-832" y1="768" x2="-896" y2="768" stroke-width="10" stroke="black"/>
<line x1="-960" y1="768" x2="-1024" y2="768" stroke-width="10" stroke="black"/>
<line x1="-984" y1="824" x2="-984" y2="832" stroke-width="10" stroke="black"/>
<line x1="-1000" y1="824" x2="-1000" y2="832" stroke-width="10" stroke="black"/>
<line x1="-1008" y1="824" x2="-1016" y2="824" stroke-width="10" stroke="black"/>
<line x1="-1344" y1="768" x2="-1408" y2="832" stroke-width="10" stroke="black"/>
<line x1="-1216" y1="832" x2="-1280" y2="768" stroke-width="10" stroke="black"/>
<line x1="-1024" y1="768" x2="-1024" y2="512" stroke-width="10" stroke="black"/>
<line x1="-960" y1="832" x2="-960" y2="808" stroke-width="10" stroke="black"/>
<line x1="-976" y1="832" x2="-960" y2="832" stroke-width="10" stroke="black"/>
<line x1="-832" y1="1040" x2="-960" y2="1040" stroke-width="10" stroke="black"/>
<line x1="-1000" y1="1032" x2="-1000" y2="1024" stroke-width="10" stroke="black"/>
<line x1="-984" y1="1024" x2="-984" y2="1032" stroke-width="10" stroke="black"/>
<line x1="-976" y1="1032" x2="-968" y2="1032" stroke-width="10" stroke="black"/>
<line x1="-960" y1="1056" x2="-960" y2="1040" stroke-width="10" stroke="black"/>
<line x1="-976" y1="1328" x2="-832" y2="1328" stroke-width="10" stroke="black"/>
<line x1="-1088" y1="1216" x2="-976" y2="1328" stroke-width="10" stroke="black"/>
<line x1="-1088" y1="1216" x2="-1064" y2="1192" stroke-width="10" stroke="black"/>
<line x1="-960" y1="1088" x2="-832" y2="1088" stroke-width="10" stroke="black"/>
<line x1="-928" y1="1080" x2="-864" y2="1080" stroke-width="10" stroke="black"/>
<line x1="-1000" y1="1096" x2="-984" y2="1112" stroke-width="10" stroke="black"/>
<line x1="-832" y1="1056" x2="-960" y2="1056" stroke-width="10" stroke="black"/>
<line x1="-1008" y1="1024" x2="-1024" y2="1024" stroke-width="10" stroke="black"/>
<line x1="-576" y1="992" x2="-584" y2="1008" stroke-width="10" stroke="black"/>
<line x1="-512" y1="1024" x2="-544" y2="1008" stroke-width="10" stroke="black"/>
<line x1="-552" y1="1024" x2="-520" y2="1040" stroke-width="10" stroke="black"/>
<line x1="-640" y1="960" x2="-704" y2="896" stroke-width="10" stroke="black"/>
<line x1="-656" y1="992" x2="-648" y2="976" stroke-width="10" stroke="black"/>
<line x1="-384" y1="1024" x2="-512" y2="1024" stroke-width="10" stroke="black"/>
<line x1="-384" y1="1048" x2="-512" y2="1048" stroke-width="10" stroke="black"/>
<line x1="-520" y1="1040" x2="-528" y2="1056" stroke-width="10" stroke="black"/>
<line x1="-656" y1="1496" x2="-640" y2="1472" stroke-width="10" stroke="black"/>
<line x1="-704" y1="1472" x2="-688" y2="1496" stroke-width="10" stroke="black"/>
<line x1="-688" y1="1496" x2="-656" y2="1496" stroke-width="10" stroke="black"/>
<line x1="-704" y1="1464" x2="-704" y2="1472" stroke-width="10" stroke="black"/>
<line x1="-640" y1="1472" x2="-640" y2="1464" stroke-width="10" stroke="black"/>
<line x1="-704" y1="1472" x2="-640" y2="1472" stroke-width="10" stroke="black"/>
<line x1="-704" y1="1216" x2="-704" y2="1464" stroke-width="10" stroke="black"/>
<line x1="-512" y1="1088" x2="-384" y2="1088" stroke-width="10" stroke="black"/>
<line x1="-832" y1="1328" x2="-816" y2="1328" stroke-width="10" stroke="black"/>
<line x1="-728" y1="1192" x2="-704" y2="1216" stroke-width="10" stroke="black"/>
<line x1="-816" y1="1328" x2="-704" y2="1216" stroke-width="10" stroke="black"/>
<line x1="-704" y1="1464" x2="-640" y2="1464" stroke-width="10" stroke="black"/>
<line x1="-384" y1="1064" x2="-512" y2="1064" stroke-width="10" stroke="black"/>
<line x1="-768" y1="736" x2="-768" y2="640" stroke-width="10" stroke="black"/>
<line x1="-808" y1="544" x2="-808" y2="608" stroke-width="10" stroke="black"/>
<line x1="-792" y1="608" x2="-792" y2="544" stroke-width="10" stroke="black"/>
<line x1="-448" y1="896" x2="-384" y2="896" stroke-width="10" stroke="black"/>
<line x1="-448" y1="832" x2="-576" y2="704" stroke-width="10" stroke="black"/>
<line x1="-576" y1="752" x2="-496" y2="832" stroke-width="10" stroke="black"/>
<line x1="-640" y1="512" x2="-640" y2="704" stroke-width="10" stroke="black"/>
<line x1="-408" y1="864" x2="-384" y2="864" stroke-width="10" stroke="black"/>
<line x1="-552" y1="840" x2="-544" y2="848" stroke-width="10" stroke="black"/>
<line x1="-592" y1="800" x2="-584" y2="808" stroke-width="10" stroke="black"/>
<line x1="-568" y1="824" x2="-552" y2="808" stroke-width="10" stroke="black"/>
<line x1="-568" y1="792" x2="-592" y2="768" stroke-width="10" stroke="black"/>
<line x1="-640" y1="704" x2="-592" y2="800" stroke-width="10" stroke="black"/>
<line x1="-544" y1="848" x2="-448" y2="896" stroke-width="10" stroke="black"/>
<line x1="-832" y1="1040" x2="-832" y2="1056" stroke-width="10" stroke="black"/>
<line x1="512" y1="768" x2="384" y2="768" stroke-width="10" stroke="black"/>
<line x1="512" y1="808" x2="576" y2="808" stroke-width="10" stroke="black"/>
<line x1="384" y1="832" x2="512" y2="832" stroke-width="10" stroke="black"/>
<line x1="576" y1="792" x2="512" y2="792" stroke-width="10" stroke="black"/>
<line x1="360" y1="608" x2="360" y2="544" stroke-width="10" stroke="black"/>
<line x1="344" y1="544" x2="344" y2="608" stroke-width="10" stroke="black"/>
<line x1="320" y1="512" x2="320" y2="544" stroke-width="10" stroke="black"/>
<line x1="320" y1="784" x2="256" y2="896" stroke-width="10" stroke="black"/>
<line x1="112" y1="832" x2="128" y2="816" stroke-width="10" stroke="black"/>
<line x1="104" y1="752" x2="56" y2="800" stroke-width="10" stroke="black"/>
<line x1="128" y1="704" x2="0" y2="832" stroke-width="10" stroke="black"/>
<line x1="-96" y1="880" x2="-128" y2="880" stroke-width="10" stroke="black"/>
<line x1="0" y1="896" x2="112" y2="832" stroke-width="10" stroke="black"/>
<line x1="-144" y1="896" x2="-128" y2="896" stroke-width="10" stroke="black"/>
<line x1="24" y1="832" x2="0" y2="832" stroke-width="10" stroke="black"/>
<line x1="192" y1="704" x2="192" y2="512" stroke-width="10" stroke="black"/>
<line x1="384" y1="544" x2="384" y2="512" stroke-width="10" stroke="black"/>
<line x1="-248" y1="880" x2="-248" y2="864" stroke-width="10" stroke="black"/>
<line x1="-144" y1="832" x2="-160" y2="832" stroke-width="10" stroke="black"/>
<line x1="-248" y1="864" x2="-144" y2="864" stroke-width="10" stroke="black"/>
<line x1="-352" y1="896" x2="-352" y2="880" stroke-width="10" stroke="black"/>
<line x1="-312" y1="896" x2="-312" y2="880" stroke-width="10" stroke="black"/>
<line x1="-336" y1="880" x2="-336" y2="896" stroke-width="10" stroke="black"/>
<line x1="-176" y1="896" x2="-176" y2="880" stroke-width="10" stroke="black"/>
<line x1="-200" y1="880" x2="-200" y2="896" stroke-width="10" stroke="black"/>
<line x1="-192" y1="896" x2="-192" y2="880" stroke-width="10" stroke="black"/>
<line x1="-296" y1="880" x2="-296" y2="896" stroke-width="10" stroke="black"/>
<line x1="-376" y1="896" x2="-352" y2="896" stroke-width="10" stroke="black"/>
<line x1="-216" y1="880" x2="-248" y2="880" stroke-width="10" stroke="black"/>
<line x1="-144" y1="896" x2="-144" y2="880" stroke-width="10" stroke="black"/>
<line x1="-64" y1="1728" x2="-384" y2="1728" stroke-width="10" stroke="black"/>
<line x1="-256" y1="1920" x2="-384" y2="1920" stroke-width="10" stroke="black"/>
<line x1="-64" y1="1776" x2="-384" y2="1776" stroke-width="10" stroke="black"/>
<line x1="-208" y1="1504" x2="-192" y2="1480" stroke-width="10" stroke="black"/>
<line x1="-256" y1="1480" x2="-240" y2="1504" stroke-width="10" stroke="black"/>
<line x1="-256" y1="1472" x2="-256" y2="1480" stroke-width="10" stroke="black"/>
<line x1="-192" y1="1480" x2="-192" y2="1472" stroke-width="10" stroke="black"/>
<line x1="-256" y1="1216" x2="-256" y2="1472" stroke-width="10" stroke="black"/>
<line x1="-256" y1="1472" x2="-192" y2="1472" stroke-width="10" stroke="black"/>
<line x1="-256" y1="1480" x2="-192" y2="1480" stroke-width="10" stroke="black"/>
<line x1="-240" y1="1504" x2="-208" y2="1504" stroke-width="10" stroke="black"/>
<line x1="192" y1="1480" x2="208" y2="1504" stroke-width="10" stroke="black"/>
<line x1="240" y1="1504" x2="256" y2="1480" stroke-width="10" stroke="black"/>
<line x1="208" y1="1504" x2="240" y2="1504" stroke-width="10" stroke="black"/>
<line x1="192" y1="1216" x2="192" y2="1472" stroke-width="10" stroke="black"/>
<line x1="256" y1="1472" x2="256" y2="1216" stroke-width="10" stroke="black"/>
<line x1="192" y1="1480" x2="256" y2="1480" stroke-width="10" stroke="black"/>
<line x1="-64" y1="1728" x2="-64" y2="1776" stroke-width="10" stroke="black"/>
<line x1="64" y1="1048" x2="-64" y2="1048" stroke-width="10" stroke="black"/>
<line x1="-64" y1="1064" x2="64" y2="1064" stroke-width="10" stroke="black"/>
<line x1="512" y1="1048" x2="384" y2="1048" stroke-width="10" stroke="black"/>
<line x1="384" y1="1064" x2="512" y2="1064" stroke-width="10" stroke="black"/>
<line x1="64" y1="1024" x2="64" y2="1048" stroke-width="10" stroke="black"/>
<line x1="-160" y1="1040" x2="-160" y2="1024" stroke-width="10" stroke="black"/>
<line x1="-224" y1="1024" x2="-224" y2="1040" stroke-width="10" stroke="black"/>
<line x1="-240" y1="1040" x2="-240" y2="1024" stroke-width="10" stroke="black"/>
<line x1="-208" y1="1040" x2="-208" y2="1024" stroke-width="10" stroke="black"/>
<line x1="-144" y1="1040" x2="-112" y2="1040" stroke-width="10" stroke="black"/>
<line x1="-64" y1="1088" x2="-64" y2="1064" stroke-width="10" stroke="black"/>
<line x1="-64" y1="1088" x2="64" y2="1088" stroke-width="10" stroke="black"/>
<line x1="-64" y1="1024" x2="-144" y2="1024" stroke-width="10" stroke="black"/>
<line x1="-384" y1="1048" x2="-384" y2="1064" stroke-width="10" stroke="black"/>
<line x1="1536" y1="-192" x2="1536" y2="-384" stroke-width="10" stroke="black"/>
<line x1="1792" y1="-256" x2="1600" y2="-384" stroke-width="10" stroke="black"/>
<line x1="1576" y1="-192" x2="1576" y2="-384" stroke-width="10" stroke="black"/>
<line x1="1560" y1="-384" x2="1560" y2="-192" stroke-width="10" stroke="black"/>
<line x1="1472" y1="-192" x2="1344" y2="-192" stroke-width="10" stroke="black"/>
<line x1="1152" y1="-352" x2="1152" y2="-384" stroke-width="10" stroke="black"/>
<line x1="1096" y1="-352" x2="1112" y2="-352" stroke-width="10" stroke="black"/>
<line x1="1112" y1="-352" x2="1112" y2="-224" stroke-width="10" stroke="black"/>
<line x1="1128" y1="-224" x2="1112" y2="-224" stroke-width="10" stroke="black"/>
<line x1="1128" y1="-224" x2="1128" y2="-352" stroke-width="10" stroke="black"/>
<line x1="1472" y1="-192" x2="1472" y2="-384" stroke-width="10" stroke="black"/>
<line x1="864" y1="-264" x2="864" y2="-384" stroke-width="10" stroke="black"/>
<line x1="768" y1="-336" x2="768" y2="-320" stroke-width="10" stroke="black"/>
<line x1="768" y1="-352" x2="768" y2="-336" stroke-width="10" stroke="black"/>
<line x1="768" y1="-336" x2="776" y2="-336" stroke-width="10" stroke="black"/>
<line x1="768" y1="-384" x2="768" y2="-368" stroke-width="10" stroke="black"/>
<line x1="768" y1="-352" x2="776" y2="-352" stroke-width="10" stroke="black"/>
<line x1="768" y1="-288" x2="768" y2="-272" stroke-width="10" stroke="black"/>
<line x1="768" y1="-296" x2="768" y2="-288" stroke-width="10" stroke="black"/>
<line x1="768" y1="-320" x2="768" y2="-312" stroke-width="10" stroke="black"/>
<line x1="768" y1="-296" x2="776" y2="-296" stroke-width="10" stroke="black"/>
<line x1="768" y1="-288" x2="776" y2="-288" stroke-width="10" stroke="black"/>
<line x1="776" y1="-320" x2="768" y2="-320" stroke-width="10" stroke="black"/>
<line x1="776" y1="-320" x2="776" y2="-336" stroke-width="10" stroke="black"/>
<line x1="768" y1="-192" x2="704" y2="-64" stroke-width="10" stroke="black"/>
<line x1="728" y1="-64" x2="784" y2="-176" stroke-width="10" stroke="black"/>
<line x1="768" y1="-208" x2="768" y2="-192" stroke-width="10" stroke="black"/>
<line x1="864" y1="-192" x2="864" y2="-264" stroke-width="10" stroke="black"/>
<line x1="776" y1="-224" x2="776" y2="-208" stroke-width="10" stroke="black"/>
<line x1="768" y1="-192" x2="784" y2="-192" stroke-width="10" stroke="black"/>
<line x1="416" y1="272" x2="576" y2="192" stroke-width="10" stroke="black"/>
<line x1="464" y1="448" x2="416" y2="448" stroke-width="10" stroke="black"/>
<line x1="416" y1="488" x2="464" y2="488" stroke-width="10" stroke="black"/>
<line x1="464" y1="472" x2="416" y2="472" stroke-width="10" stroke="black"/>
<line x1="512" y1="128" x2="416" y2="176" stroke-width="10" stroke="black"/>
<line x1="784" y1="-264" x2="776" y2="-264" stroke-width="10" stroke="black"/>
<line x1="768" y1="0" x2="864" y2="-192" stroke-width="10" stroke="black"/>
<line x1="-128" y1="-320" x2="-112" y2="-320" stroke-width="10" stroke="black"/>
<line x1="-112" y1="-320" x2="-112" y2="-384" stroke-width="10" stroke="black"/>
<line x1="-192" y1="-176" x2="-128" y2="-176" stroke-width="10" stroke="black"/>
<line x1="-128" y1="-176" x2="-112" y2="-176" stroke-width="10" stroke="black"/>
<line x1="-128" y1="-256" x2="-128" y2="-192" stroke-width="10" stroke="black"/>
<line x1="-112" y1="-256" x2="-128" y2="-256" stroke-width="10" stroke="black"/>
<line x1="-128" y1="-64" x2="0" y2="-192" stroke-width="10" stroke="black"/>
<line x1="-320" y1="-192" x2="-320" y2="-256" stroke-width="10" stroke="black"/>
<line x1="-256" y1="-176" x2="-256" y2="-192" stroke-width="10" stroke="black"/>
<line x1="-336" y1="-176" x2="-256" y2="-176" stroke-width="10" stroke="black"/>
<line x1="-256" y1="-192" x2="-320" y2="-192" stroke-width="10" stroke="black"/>
<line x1="-448" y1="-192" x2="-320" y2="-64" stroke-width="10" stroke="black"/>
<line x1="-336" y1="-384" x2="-336" y2="-320" stroke-width="10" stroke="black"/>
<line x1="-320" y1="-320" x2="-320" y2="-384" stroke-width="10" stroke="black"/>
<line x1="-192" y1="-320" x2="-256" y2="-320" stroke-width="10" stroke="black"/>
<line x1="-256" y1="-320" x2="-256" y2="-256" stroke-width="10" stroke="black"/>
<line x1="-256" y1="-256" x2="-192" y2="-256" stroke-width="10" stroke="black"/>
<line x1="-192" y1="-256" x2="-192" y2="-320" stroke-width="10" stroke="black"/>
<line x1="-288" y1="0" x2="-288" y2="-48" stroke-width="10" stroke="black"/>
<line x1="-160" y1="-48" x2="-160" y2="0" stroke-width="10" stroke="black"/>
<line x1="-224" y1="288" x2="-128" y2="256" stroke-width="10" stroke="black"/>
<line x1="-320" y1="256" x2="-224" y2="288" stroke-width="10" stroke="black"/>
<line x1="-288" y1="-48" x2="-160" y2="-48" stroke-width="10" stroke="black"/>
<line x1="-320" y1="-64" x2="-384" y2="192" stroke-width="10" stroke="black"/>
<line x1="-320" y1="192" x2="-320" y2="64" stroke-width="10" stroke="black"/>
<line x1="-128" y1="256" x2="-64" y2="192" stroke-width="10" stroke="black"/>
<line x1="-128" y1="64" x2="-128" y2="192" stroke-width="10" stroke="black"/>
<line x1="-288" y1="-64" x2="-320" y2="-64" stroke-width="10" stroke="black"/>
<line x1="64" y1="-224" x2="16" y2="-224" stroke-width="10" stroke="black"/>
<line x1="16" y1="-352" x2="64" y2="-352" stroke-width="10" stroke="black"/>
<line x1="16" y1="-224" x2="16" y2="-352" stroke-width="10" stroke="black"/>
<line x1="0" y1="-192" x2="256" y2="-128" stroke-width="10" stroke="black"/>
<line x1="256" y1="-192" x2="128" y2="-192" stroke-width="10" stroke="black"/>
<line x1="192" y1="320" x2="192" y2="448" stroke-width="10" stroke="black"/>
<line x1="288" y1="472" x2="224" y2="472" stroke-width="10" stroke="black"/>
<line x1="224" y1="488" x2="288" y2="488" stroke-width="10" stroke="black"/>
<line x1="224" y1="512" x2="224" y2="488" stroke-width="10" stroke="black"/>
<line x1="320" y1="448" x2="288" y2="448" stroke-width="10" stroke="black"/>
<line x1="320" y1="320" x2="192" y2="320" stroke-width="10" stroke="black"/>
<line x1="384" y1="448" x2="384" y2="416" stroke-width="10" stroke="black"/>
<line x1="344" y1="352" x2="344" y2="416" stroke-width="10" stroke="black"/>
<line x1="360" y1="416" x2="360" y2="352" stroke-width="10" stroke="black"/>
<line x1="320" y1="-192" x2="352" y2="-288" stroke-width="10" stroke="black"/>
<line x1="384" y1="288" x2="416" y2="272" stroke-width="10" stroke="black"/>
<line x1="360" y1="352" x2="384" y2="352" stroke-width="10" stroke="black"/>
<line x1="320" y1="320" x2="320" y2="352" stroke-width="10" stroke="black"/>
<line x1="0" y1="-224" x2="0" y2="-192" stroke-width="10" stroke="black"/>
<line x1="416" y1="488" x2="416" y2="472" stroke-width="10" stroke="black"/>
<line x1="-1392" y1="64" x2="-1424" y2="96" stroke-width="10" stroke="black"/>
<line x1="-1344" y1="64" x2="-1392" y2="64" stroke-width="10" stroke="black"/>
<line x1="-1312" y1="96" x2="-1344" y2="64" stroke-width="10" stroke="black"/>
<line x1="-1344" y1="176" x2="-1312" y2="144" stroke-width="10" stroke="black"/>
<line x1="-1392" y1="176" x2="-1344" y2="176" stroke-width="10" stroke="black"/>
<line x1="-1424" y1="96" x2="-1424" y2="144" stroke-width="10" stroke="black"/>
<line x1="-1568" y1="160" x2="-1552" y2="160" stroke-width="10" stroke="black"/>
<line x1="-1552" y1="192" x2="-1536" y2="192" stroke-width="10" stroke="black"/>
<line x1="-1552" y1="192" x2="-1552" y2="224" stroke-width="10" stroke="black"/>
<line x1="-1536" y1="224" x2="-1536" y2="192" stroke-width="10" stroke="black"/>
<line x1="-1536" y1="448" x2="-1536" y2="352" stroke-width="10" stroke="black"/>
<line x1="-1536" y1="320" x2="-1536" y2="288" stroke-width="10" stroke="black"/>
<line x1="-1552" y1="320" x2="-1536" y2="320" stroke-width="10" stroke="black"/>
<line x1="-1536" y1="288" x2="-1536" y2="256" stroke-width="10" stroke="black"/>
<line x1="-1536" y1="256" x2="-1536" y2="224" stroke-width="10" stroke="black"/>
<line x1="-1552" y1="256" x2="-1536" y2="256" stroke-width="10" stroke="black"/>
<line x1="-1552" y1="288" x2="-1536" y2="288" stroke-width="10" stroke="black"/>
<line x1="-1552" y1="320" x2="-1552" y2="352" stroke-width="10" stroke="black"/>
<line x1="-1536" y1="224" x2="-1552" y2="224" stroke-width="10" stroke="black"/>
<line x1="-1536" y1="0" x2="-1536" y2="-32" stroke-width="10" stroke="black"/>
<line x1="-1536" y1="-32" x2="-1536" y2="-64" stroke-width="10" stroke="black"/>
<line x1="-1552" y1="-32" x2="-1536" y2="-32" stroke-width="10" stroke="black"/>
<line x1="-1536" y1="-64" x2="-1536" y2="-96" stroke-width="10" stroke="black"/>
<line x1="-1536" y1="-128" x2="-1536" y2="-160" stroke-width="10" stroke="black"/>
<line x1="-1552" y1="-96" x2="-1536" y2="-96" stroke-width="10" stroke="black"/>
<line x1="-1552" y1="-64" x2="-1536" y2="-64" stroke-width="10" stroke="black"/>
<line x1="-1552" y1="-160" x2="-1552" y2="-128" stroke-width="10" stroke="black"/>
<line x1="-1456" y1="-288" x2="-1488" y2="-256" stroke-width="10" stroke="black"/>
<line x1="-1408" y1="-288" x2="-1456" y2="-288" stroke-width="10" stroke="black"/>
<line x1="-1376" y1="-256" x2="-1408" y2="-288" stroke-width="10" stroke="black"/>
<line x1="-1408" y1="-176" x2="-1376" y2="-208" stroke-width="10" stroke="black"/>
<line x1="-1456" y1="-176" x2="-1408" y2="-176" stroke-width="10" stroke="black"/>
<line x1="-1376" y1="-208" x2="-1376" y2="-256" stroke-width="10" stroke="black"/>
<line x1="-1488" y1="-256" x2="-1488" y2="-208" stroke-width="10" stroke="black"/>
<line x1="-2128" y1="-384" x2="-2112" y2="-352" stroke-width="10" stroke="black"/>
<line x1="-1552" y1="-352" x2="-1536" y2="-352" stroke-width="10" stroke="black"/>
<line x1="-1552" y1="-320" x2="-1552" y2="-288" stroke-width="10" stroke="black"/>
<line x1="-1536" y1="-160" x2="-1536" y2="-320" stroke-width="10" stroke="black"/>
<line x1="-1568" y1="-160" x2="-1552" y2="-160" stroke-width="10" stroke="black"/>
<line x1="-1552" y1="0" x2="-1536" y2="0" stroke-width="10" stroke="black"/>
<line x1="-512" y1="-352" x2="-464" y2="-352" stroke-width="10" stroke="black"/>
<line x1="-464" y1="-224" x2="-512" y2="-224" stroke-width="10" stroke="black"/>
<line x1="-464" y1="-352" x2="-464" y2="-224" stroke-width="10" stroke="black"/>
<line x1="-768" y1="-192" x2="-704" y2="-128" stroke-width="10" stroke="black"/>
<line x1="-576" y1="-192" x2="-704" y2="-192" stroke-width="10" stroke="black"/>
<line x1="-640" y1="448" x2="-640" y2="320" stroke-width="10" stroke="black"/>
<line x1="-672" y1="472" x2="-736" y2="472" stroke-width="10" stroke="black"/>
<line x1="-736" y1="488" x2="-672" y2="488" stroke-width="10" stroke="black"/>
<line x1="-672" y1="448" x2="-672" y2="472" stroke-width="10" stroke="black"/>
<line x1="-736" y1="448" x2="-768" y2="448" stroke-width="10" stroke="black"/>
<line x1="-640" y1="320" x2="-768" y2="320" stroke-width="10" stroke="black"/>
<line x1="-1296" y1="280" x2="-1296" y2="328" stroke-width="10" stroke="black"/>
<line x1="-1264" y1="248" x2="-1296" y2="280" stroke-width="10" stroke="black"/>
<line x1="-1216" y1="248" x2="-1264" y2="248" stroke-width="10" stroke="black"/>
<line x1="-1184" y1="328" x2="-1184" y2="280" stroke-width="10" stroke="black"/>
<line x1="-1216" y1="360" x2="-1184" y2="328" stroke-width="10" stroke="black"/>
<line x1="-1264" y1="360" x2="-1216" y2="360" stroke-width="10" stroke="black"/>
<line x1="-1184" y1="280" x2="-1216" y2="248" stroke-width="10" stroke="black"/>
<line x1="-792" y1="416" x2="-792" y2="352" stroke-width="10" stroke="black"/>
<line x1="-808" y1="352" x2="-808" y2="416" stroke-width="10" stroke="black"/>
<line x1="-832" y1="288" x2="-832" y2="352" stroke-width="10" stroke="black"/>
<line x1="-792" y1="-288" x2="-768" y2="-192" stroke-width="10" stroke="black"/>
<line x1="-768" y1="224" x2="-960" y2="128" stroke-width="10" stroke="black"/>
<line x1="-1312" y1="-192" x2="-1216" y2="0" stroke-width="10" stroke="black"/>
<line x1="-1216" y1="-192" x2="-1216" y2="-256" stroke-width="10" stroke="black"/>
<line x1="-1024" y1="192" x2="-832" y2="288" stroke-width="10" stroke="black"/>
<line x1="-832" y1="448" x2="-864" y2="448" stroke-width="10" stroke="black"/>
<line x1="-928" y1="488" x2="-864" y2="488" stroke-width="10" stroke="black"/>
<line x1="-864" y1="472" x2="-928" y2="472" stroke-width="10" stroke="black"/>
<line x1="-768" y1="416" x2="-792" y2="416" stroke-width="10" stroke="black"/>
<line x1="-768" y1="320" x2="-768" y2="224" stroke-width="10" stroke="black"/>
<line x1="-1312" y1="-384" x2="-1312" y2="-192" stroke-width="10" stroke="black"/>
<line x1="-448" y1="-352" x2="-448" y2="-384" stroke-width="10" stroke="black"/>
<line x1="288" y1="512" x2="320" y2="512" stroke-width="10" stroke="black"/>
<line x1="320" y1="-384" x2="256" y2="-448" stroke-width="10" stroke="black"/>
<line x1="192" y1="-896" x2="320" y2="-896" stroke-width="10" stroke="black"/>
<line x1="576" y1="-768" x2="384" y2="-864" stroke-width="10" stroke="black"/>
<line x1="864" y1="-384" x2="768" y2="-576" stroke-width="10" stroke="black"/>
<line x1="960" y1="-640" x2="1080" y2="-384" stroke-width="10" stroke="black"/>
<line x1="512" y1="-704" x2="704" y2="-512" stroke-width="10" stroke="black"/>
<line x1="360" y1="-928" x2="360" y2="-992" stroke-width="10" stroke="black"/>
<line x1="344" y1="-992" x2="344" y2="-928" stroke-width="10" stroke="black"/>
<line x1="384" y1="-928" x2="360" y2="-928" stroke-width="10" stroke="black"/>
<line x1="384" y1="-864" x2="384" y2="-928" stroke-width="10" stroke="black"/>
<line x1="320" y1="-928" x2="320" y2="-896" stroke-width="10" stroke="black"/>
<line x1="1232" y1="-544" x2="1232" y2="-536" stroke-width="10" stroke="black"/>
<line x1="1264" y1="-544" x2="1232" y2="-544" stroke-width="10" stroke="black"/>
<line x1="1264" y1="-536" x2="1264" y2="-544" stroke-width="10" stroke="black"/>
<line x1="1232" y1="-536" x2="1264" y2="-536" stroke-width="10" stroke="black"/>
<line x1="1216" y1="-512" x2="1280" y2="-512" stroke-width="10" stroke="black"/>
<line x1="1216" y1="-600" x2="1280" y2="-600" stroke-width="10" stroke="black"/>
<line x1="1216" y1="-576" x2="1280" y2="-576" stroke-width="10" stroke="black"/>
<line x1="1216" y1="-640" x2="1280" y2="-640" stroke-width="10" stroke="black"/>
<line x1="1216" y1="-704" x2="1216" y2="-640" stroke-width="10" stroke="black"/>
<line x1="1280" y1="-640" x2="1280" y2="-704" stroke-width="10" stroke="black"/>
<line x1="1304" y1="-832" x2="1304" y2="-768" stroke-width="10" stroke="black"/>
<line x1="1296" y1="-832" x2="1296" y2="-768" stroke-width="10" stroke="black"/>
<line x1="1280" y1="-704" x2="1304" y2="-704" stroke-width="10" stroke="black"/>
<line x1="1216" y1="-608" x2="1280" y2="-608" stroke-width="10" stroke="black"/>
<line x1="1664" y1="-896" x2="1664" y2="-704" stroke-width="10" stroke="black"/>
<line x1="1472" y1="-896" x2="1664" y2="-896" stroke-width="10" stroke="black"/>
<line x1="1472" y1="-704" x2="1472" y2="-896" stroke-width="10" stroke="black"/>
<line x1="1600" y1="-384" x2="1600" y2="-448" stroke-width="10" stroke="black"/>
<line x1="1664" y1="-704" x2="1472" y2="-704" stroke-width="10" stroke="black"/>
<line x1="1336" y1="-448" x2="1344" y2="-384" stroke-width="10" stroke="black"/>
<line x1="1344" y1="-768" x2="1344" y2="-832" stroke-width="10" stroke="black"/>
<line x1="1944" y1="-832" x2="1944" y2="-800" stroke-width="10" stroke="black"/>
<line x1="1952" y1="-800" x2="1952" y2="-832" stroke-width="10" stroke="black"/>
<line x1="1792" y1="-704" x2="1792" y2="-384" stroke-width="10" stroke="black"/>
<line x1="1336" y1="-832" x2="1336" y2="-768" stroke-width="10" stroke="black"/>
<line x1="704" y1="-896" x2="960" y2="-640" stroke-width="10" stroke="black"/>
<line x1="480" y1="-1088" x2="416" y2="-1088" stroke-width="10" stroke="black"/>
<line x1="416" y1="-1056" x2="480" y2="-1056" stroke-width="10" stroke="black"/>
<line x1="480" y1="-1064" x2="416" y2="-1064" stroke-width="10" stroke="black"/>
<line x1="360" y1="-1120" x2="360" y2="-1184" stroke-width="10" stroke="black"/>
<line x1="384" y1="-1088" x2="384" y2="-1120" stroke-width="10" stroke="black"/>
<line x1="416" y1="-1024" x2="416" y2="-1056" stroke-width="10" stroke="black"/>
<line x1="320" y1="-1120" x2="320" y2="-1088" stroke-width="10" stroke="black"/>
<line x1="288" y1="-1064" x2="224" y2="-1064" stroke-width="10" stroke="black"/>
<line x1="224" y1="-1048" x2="288" y2="-1048" stroke-width="10" stroke="black"/>
<line x1="224" y1="-1088" x2="192" y2="-1088" stroke-width="10" stroke="black"/>
<line x1="352" y1="-1120" x2="352" y2="-1184" stroke-width="10" stroke="black"/>
<line x1="768" y1="-1472" x2="832" y2="-1472" stroke-width="10" stroke="black"/>
<line x1="832" y1="-1536" x2="768" y2="-1536" stroke-width="10" stroke="black"/>
<line x1="832" y1="-1472" x2="832" y2="-1536" stroke-width="10" stroke="black"/>
<line x1="768" y1="-1536" x2="768" y2="-1472" stroke-width="10" stroke="black"/>
<line x1="960" y1="-1664" x2="960" y2="-1191" stroke-width="10" stroke="black"/>
<line x1="1600" y1="-1088" x2="1536" y2="-1088" stroke-width="10" stroke="black"/>
<line x1="1600" y1="-1032" x2="1536" y2="-1032" stroke-width="10" stroke="black"/>
<line x1="1600" y1="-1096" x2="1536" y2="-1096" stroke-width="10" stroke="black"/>
<line x1="512" y1="-2240" x2="456" y2="-2240" stroke-width="10" stroke="black"/>
<line x1="456" y1="-2304" x2="512" y2="-2304" stroke-width="10" stroke="black"/>
<line x1="448" y1="-2240" x2="192" y2="-2240" stroke-width="10" stroke="black"/>
<line x1="448" y1="-2368" x2="192" y2="-2368" stroke-width="10" stroke="black"/>
<line x1="456" y1="-2240" x2="448" y2="-2240" stroke-width="10" stroke="black"/>
<line x1="448" y1="-2304" x2="456" y2="-2304" stroke-width="10" stroke="black"/>
<line x1="448" y1="-2304" x2="448" y2="-2240" stroke-width="10" stroke="black"/>
<line x1="456" y1="-2240" x2="456" y2="-2304" stroke-width="10" stroke="black"/>
<line x1="384" y1="-1664" x2="960" y2="-1664" stroke-width="10" stroke="black"/>
<line x1="192" y1="-1531" x2="272" y2="-1496" stroke-width="10" stroke="black"/>
<line x1="224" y1="-1024" x2="288" y2="-1024" stroke-width="10" stroke="black"/>
<line x1="128" y1="-2688" x2="128" y2="-2624" stroke-width="10" stroke="black"/>
<line x1="-576" y1="-2624" x2="-576" y2="-2688" stroke-width="10" stroke="black"/>
<line x1="-448" y1="-2560" x2="-448" y2="-2624" stroke-width="10" stroke="black"/>
<line x1="0" y1="-2624" x2="0" y2="-2560" stroke-width="10" stroke="black"/>
<line x1="128" y1="-2624" x2="0" y2="-2624" stroke-width="10" stroke="black"/>
<line x1="-640" y1="-2496" x2="-512" y2="-2496" stroke-width="10" stroke="black"/>
<line x1="-448" y1="-1984" x2="-448" y2="-2048" stroke-width="10" stroke="black"/>
<line x1="0" y1="-2048" x2="0" y2="-1984" stroke-width="10" stroke="black"/>
<line x1="-448" y1="-1856" x2="-448" y2="-1984" stroke-width="10" stroke="black"/>
<line x1="-456" y1="-1984" x2="-512" y2="-1984" stroke-width="10" stroke="black"/>
<line x1="-256" y1="-1824" x2="-256" y2="-1808" stroke-width="10" stroke="black"/>
<line x1="-192" y1="-1824" x2="-192" y2="-1808" stroke-width="10" stroke="black"/>
<line x1="-216" y1="-1824" x2="-216" y2="-1808" stroke-width="10" stroke="black"/>
<line x1="-232" y1="-1824" x2="-232" y2="-1808" stroke-width="10" stroke="black"/>
<line x1="-168" y1="-1824" x2="-192" y2="-1824" stroke-width="10" stroke="black"/>
<line x1="-280" y1="-1856" x2="-448" y2="-1856" stroke-width="10" stroke="black"/>
<line x1="64" y1="-2048" x2="0" y2="-2048" stroke-width="10" stroke="black"/>
<line x1="-448" y1="-1600" x2="-320" y2="-1728" stroke-width="10" stroke="black"/>
<line x1="-336" y1="-1744" x2="-464" y2="-1616" stroke-width="10" stroke="black"/>
<line x1="-320" y1="-1728" x2="-280" y2="-1808" stroke-width="10" stroke="black"/>
<line x1="0" y1="-1600" x2="0" y2="-1560" stroke-width="10" stroke="black"/>
<line x1="-256" y1="-1600" x2="-256" y2="-1536" stroke-width="10" stroke="black"/>
<line x1="-192" y1="-1536" x2="-192" y2="-1600" stroke-width="10" stroke="black"/>
<line x1="-256" y1="-1536" x2="-248" y2="-1536" stroke-width="10" stroke="black"/>
<line x1="-192" y1="-1600" x2="-200" y2="-1600" stroke-width="10" stroke="black"/>
<line x1="-640" y1="-1024" x2="-576" y2="-1024" stroke-width="10" stroke="black"/>
<line x1="-448" y1="-1408" x2="-288" y2="-1408" stroke-width="10" stroke="black"/>
<line x1="-552" y1="-1432" x2="-608" y2="-1376" stroke-width="10" stroke="black"/>
<line x1="-576" y1="-1304" x2="-472" y2="-1408" stroke-width="10" stroke="black"/>
<line x1="-576" y1="-1280" x2="-448" y2="-1408" stroke-width="10" stroke="black"/>
<line x1="128" y1="-1280" x2="128" y2="-1024" stroke-width="10" stroke="black"/>
<line x1="192" y1="-1280" x2="176" y2="-1384" stroke-width="10" stroke="black"/>
<line x1="24" y1="-1408" x2="128" y2="-1304" stroke-width="10" stroke="black"/>
<line x1="0" y1="-1408" x2="128" y2="-1280" stroke-width="10" stroke="black"/>
<line x1="-160" y1="-1416" x2="-160" y2="-1408" stroke-width="10" stroke="black"/>
<line x1="128" y1="-1432" x2="-552" y2="-1432" stroke-width="10" stroke="black"/>
<line x1="-112" y1="-384" x2="-112" y2="-400" stroke-width="10" stroke="black"/>
<line x1="-112" y1="-400" x2="-192" y2="-400" stroke-width="10" stroke="black"/>
<line x1="-256" y1="-400" x2="-336" y2="-400" stroke-width="10" stroke="black"/>
<line x1="-256" y1="-384" x2="-256" y2="-400" stroke-width="10" stroke="black"/>
<line x1="0" y1="-384" x2="-128" y2="-512" stroke-width="10" stroke="black"/>
<line x1="-320" y1="-512" x2="-448" y2="-384" stroke-width="10" stroke="black"/>
<line x1="-160" y1="-576" x2="-160" y2="-528" stroke-width="10" stroke="black"/>
<line x1="-288" y1="-528" x2="-288" y2="-576" stroke-width="10" stroke="black"/>
<line x1="-128" y1="-832" x2="-224" y2="-864" stroke-width="10" stroke="black"/>
<line x1="-160" y1="-528" x2="-288" y2="-528" stroke-width="10" stroke="black"/>
<line x1="-320" y1="-832" x2="-384" y2="-768" stroke-width="10" stroke="black"/>
<line x1="-320" y1="-640" x2="-320" y2="-768" stroke-width="10" stroke="black"/>
<line x1="-128" y1="-512" x2="-64" y2="-768" stroke-width="10" stroke="black"/>
<line x1="-128" y1="-768" x2="-128" y2="-640" stroke-width="10" stroke="black"/>
<line x1="-160" y1="-512" x2="-128" y2="-512" stroke-width="10" stroke="black"/>
<line x1="-224" y1="-864" x2="-320" y2="-832" stroke-width="10" stroke="black"/>
<line x1="-256" y1="-1808" x2="-280" y2="-1808" stroke-width="10" stroke="black"/>
<line x1="192" y1="-1088" x2="192" y2="-1280" stroke-width="10" stroke="black"/>
<line x1="-1336" y1="-632" x2="-1384" y2="-632" stroke-width="10" stroke="black"/>
<line x1="-1304" y1="-600" x2="-1336" y2="-632" stroke-width="10" stroke="black"/>
<line x1="-1304" y1="-552" x2="-1304" y2="-600" stroke-width="10" stroke="black"/>
<line x1="-1384" y1="-520" x2="-1336" y2="-520" stroke-width="10" stroke="black"/>
<line x1="-1336" y1="-520" x2="-1304" y2="-552" stroke-width="10" stroke="black"/>
<line x1="-1416" y1="-600" x2="-1416" y2="-552" stroke-width="10" stroke="black"/>
<line x1="-1384" y1="-632" x2="-1416" y2="-600" stroke-width="10" stroke="black"/>
<line x1="-1408" y1="-896" x2="-1424" y2="-896" stroke-width="10" stroke="black"/>
<line x1="-1408" y1="-768" x2="-1408" y2="-896" stroke-width="10" stroke="black"/>
<line x1="-1408" y1="-960" x2="-1408" y2="-976" stroke-width="10" stroke="black"/>
<line x1="-1536" y1="-960" x2="-1408" y2="-960" stroke-width="10" stroke="black"/>
<line x1="-1296" y1="-832" x2="-1152" y2="-832" stroke-width="10" stroke="black"/>
<line x1="-1152" y1="-848" x2="-1280" y2="-848" stroke-width="10" stroke="black"/>
<line x1="-1120" y1="-1048" x2="-1056" y2="-1048" stroke-width="10" stroke="black"/>
<line x1="-1280" y1="-1024" x2="-1120" y2="-1024" stroke-width="10" stroke="black"/>
<line x1="-1296" y1="-1056" x2="-1296" y2="-832" stroke-width="10" stroke="black"/>
<line x1="-1536" y1="-768" x2="-1408" y2="-768" stroke-width="10" stroke="black"/>
<line x1="-640" y1="-432" x2="-704" y2="-448" stroke-width="10" stroke="black"/>
<line x1="-768" y1="-896" x2="-640" y2="-896" stroke-width="10" stroke="black"/>
<line x1="-736" y1="-1048" x2="-672" y2="-1048" stroke-width="10" stroke="black"/>
<line x1="-768" y1="-1024" x2="-736" y2="-1024" stroke-width="10" stroke="black"/>
<line x1="-832" y1="-992" x2="-832" y2="-928" stroke-width="10" stroke="black"/>
<line x1="-792" y1="-928" x2="-792" y2="-992" stroke-width="10" stroke="black"/>
<line x1="-808" y1="-992" x2="-808" y2="-928" stroke-width="10" stroke="black"/>
<line x1="-832" y1="-864" x2="-1024" y2="-768" stroke-width="10" stroke="black"/>
<line x1="-1152" y1="-512" x2="-960" y2="-704" stroke-width="10" stroke="black"/>
<line x1="-768" y1="-928" x2="-792" y2="-928" stroke-width="10" stroke="black"/>
<line x1="-928" y1="-1048" x2="-864" y2="-1048" stroke-width="10" stroke="black"/>
<line x1="-992" y1="-1024" x2="-928" y2="-1024" stroke-width="10" stroke="black"/>
<line x1="-832" y1="-992" x2="-808" y2="-992" stroke-width="10" stroke="black"/>
<line x1="-768" y1="-896" x2="-768" y2="-928" stroke-width="10" stroke="black"/>
<line x1="-1216" y1="-576" x2="-1312" y2="-384" stroke-width="10" stroke="black"/>
<line x1="-2208" y1="-416" x2="-2240" y2="-448" stroke-width="10" stroke="black"/>
<line x1="-2224" y1="-384" x2="-2208" y2="-416" stroke-width="10" stroke="black"/>
<line x1="-2304" y1="-448" x2="-2336" y2="-384" stroke-width="10" stroke="black"/>
<line x1="-2048" y1="-448" x2="-2112" y2="-448" stroke-width="10" stroke="black"/>
<line x1="-2016" y1="-384" x2="-2048" y2="-448" stroke-width="10" stroke="black"/>
<line x1="-2144" y1="-416" x2="-2128" y2="-384" stroke-width="10" stroke="black"/>
<line x1="-2496" y1="-704" x2="-2432" y2="-640" stroke-width="10" stroke="black"/>
<line x1="-2432" y1="-576" x2="-2496" y2="-512" stroke-width="10" stroke="black"/>
<line x1="-2368" y1="-512" x2="-2368" y2="-544" stroke-width="10" stroke="black"/>
<line x1="-2432" y1="-480" x2="-2368" y2="-512" stroke-width="10" stroke="black"/>
<line x1="-2144" y1="-800" x2="-2112" y2="-768" stroke-width="10" stroke="black"/>
<line x1="-2112" y1="-864" x2="-2144" y2="-800" stroke-width="10" stroke="black"/>
<line x1="-2176" y1="-960" x2="-2112" y2="-864" stroke-width="10" stroke="black"/>
<line x1="-2304" y1="-768" x2="-2240" y2="-768" stroke-width="10" stroke="black"/>
<line x1="-2336" y1="-832" x2="-2304" y2="-768" stroke-width="10" stroke="black"/>
<line x1="-2208" y1="-800" x2="-2240" y2="-864" stroke-width="10" stroke="black"/>
<line x1="-1984" y1="-672" x2="-1984" y2="-544" stroke-width="10" stroke="black"/>
<line x1="-1944" y1="-544" x2="-1944" y2="-672" stroke-width="10" stroke="black"/>
<line x1="-1960" y1="-672" x2="-1960" y2="-544" stroke-width="10" stroke="black"/>
<line x1="-1920" y1="-736" x2="-1984" y2="-704" stroke-width="10" stroke="black"/>
<line x1="-1984" y1="-512" x2="-1920" y2="-480" stroke-width="10" stroke="black"/>
<line x1="-1640" y1="-664" x2="-1640" y2="-544" stroke-width="10" stroke="black"/>
<line x1="-1624" y1="-544" x2="-1624" y2="-664" stroke-width="10" stroke="black"/>
<line x1="-1664" y1="-664" x2="-1664" y2="-544" stroke-width="10" stroke="black"/>
<line x1="-1552" y1="-416" x2="-1536" y2="-416" stroke-width="10" stroke="black"/>
<line x1="-1552" y1="-448" x2="-1536" y2="-448" stroke-width="10" stroke="black"/>
<line x1="-1552" y1="-512" x2="-1552" y2="-480" stroke-width="10" stroke="black"/>
<line x1="-1536" y1="-512" x2="-1600" y2="-544" stroke-width="10" stroke="black"/>
<line x1="-1600" y1="-664" x2="-1600" y2="-544" stroke-width="10" stroke="black"/>
<line x1="-1920" y1="-672" x2="-1920" y2="-544" stroke-width="10" stroke="black"/>
<line x1="-1536" y1="-784" x2="-1536" y2="-960" stroke-width="10" stroke="black"/>
<line x1="-1488" y1="-1200" x2="-1480" y2="-1200" stroke-width="10" stroke="black"/>
<line x1="-1488" y1="-1232" x2="-1480" y2="-1232" stroke-width="10" stroke="black"/>
<line x1="-1488" y1="-1216" x2="-1480" y2="-1216" stroke-width="10" stroke="black"/>
<line x1="-1488" y1="-1248" x2="-1488" y2="-1232" stroke-width="10" stroke="black"/>
<line x1="-1664" y1="-1248" x2="-1664" y2="-1376" stroke-width="10" stroke="black"/>
<line x1="-1488" y1="-1264" x2="-1488" y2="-1248" stroke-width="10" stroke="black"/>
<line x1="-1488" y1="-1280" x2="-1488" y2="-1264" stroke-width="10" stroke="black"/>
<line x1="-1488" y1="-1264" x2="-1480" y2="-1264" stroke-width="10" stroke="black"/>
<line x1="-1488" y1="-1296" x2="-1488" y2="-1280" stroke-width="10" stroke="black"/>
<line x1="-1488" y1="-1312" x2="-1488" y2="-1296" stroke-width="10" stroke="black"/>
<line x1="-1536" y1="-1360" x2="-1488" y2="-1312" stroke-width="10" stroke="black"/>
<line x1="-1488" y1="-1312" x2="-1480" y2="-1312" stroke-width="10" stroke="black"/>
<line x1="-1488" y1="-1296" x2="-1480" y2="-1296" stroke-width="10" stroke="black"/>
<line x1="-1488" y1="-1280" x2="-1480" y2="-1280" stroke-width="10" stroke="black"/>
<line x1="-1536" y1="-1376" x2="-1536" y2="-1360" stroke-width="10" stroke="black"/>
<line x1="-1488" y1="-1248" x2="-1480" y2="-1248" stroke-width="10" stroke="black"/>
<line x1="-1344" y1="-1280" x2="-1280" y2="-1216" stroke-width="10" stroke="black"/>
<line x1="-1280" y1="-1120" x2="-1440" y2="-1280" stroke-width="10" stroke="black"/>
<line x1="-1280" y1="-1216" x2="-1280" y2="-1120" stroke-width="10" stroke="black"/>
<line x1="-1472" y1="-1088" x2="-1472" y2="-1184" stroke-width="10" stroke="black"/>
<line x1="-1440" y1="-1472" x2="-1440" y2="-1408" stroke-width="10" stroke="black"/>
<line x1="-1424" y1="-1408" x2="-1424" y2="-1472" stroke-width="10" stroke="black"/>
<line x1="-1472" y1="-1344" x2="-1216" y2="-1344" stroke-width="10" stroke="black"/>
<line x1="-1480" y1="-1312" x2="-1472" y2="-1312" stroke-width="10" stroke="black"/>
<line x1="-1216" y1="-1408" x2="-1424" y2="-1408" stroke-width="10" stroke="black"/>
<line x1="-1440" y1="-1280" x2="-1344" y2="-1280" stroke-width="10" stroke="black"/>
<line x1="-1480" y1="-1200" x2="-1480" y2="-1184" stroke-width="10" stroke="black"/>
<line x1="-736" y1="-1088" x2="-768" y2="-1088" stroke-width="10" stroke="black"/>
<line x1="-792" y1="-1120" x2="-792" y2="-1184" stroke-width="10" stroke="black"/>
<line x1="-808" y1="-1184" x2="-808" y2="-1120" stroke-width="10" stroke="black"/>
<line x1="-768" y1="-1088" x2="-768" y2="-1120" stroke-width="10" stroke="black"/>
<line x1="-776" y1="-1400" x2="-832" y2="-1344" stroke-width="10" stroke="black"/>
<line x1="-704" y1="-1440" x2="-672" y2="-1472" stroke-width="10" stroke="black"/>
<line x1="-1152" y1="-1408" x2="-1152" y2="-1472" stroke-width="10" stroke="black"/>
<line x1="-1216" y1="-1344" x2="-1088" y2="-1344" stroke-width="10" stroke="black"/>
<line x1="-1024" y1="-1344" x2="-1024" y2="-1408" stroke-width="10" stroke="black"/>
<line x1="-1088" y1="-1344" x2="-1088" y2="-1280" stroke-width="10" stroke="black"/>
<line x1="-928" y1="-1064" x2="-928" y2="-1088" stroke-width="10" stroke="black"/>
<line x1="-832" y1="-1088" x2="-864" y2="-1088" stroke-width="10" stroke="black"/>
<line x1="-1152" y1="-1280" x2="-1216" y2="-1280" stroke-width="10" stroke="black"/>
<line x1="-832" y1="-1120" x2="-832" y2="-1184" stroke-width="10" stroke="black"/>
<line x1="-1216" y1="-1280" x2="-1216" y2="-1088" stroke-width="10" stroke="black"/>
<line x1="-960" y1="-2304" x2="-904" y2="-2304" stroke-width="10" stroke="black"/>
<line x1="-960" y1="-2176" x2="-904" y2="-2176" stroke-width="10" stroke="black"/>
<line x1="-640" y1="-2240" x2="-896" y2="-2240" stroke-width="10" stroke="black"/>
<line x1="-640" y1="-2368" x2="-896" y2="-2368" stroke-width="10" stroke="black"/>
<line x1="-904" y1="-2304" x2="-896" y2="-2304" stroke-width="10" stroke="black"/>
<line x1="-904" y1="-2176" x2="-896" y2="-2176" stroke-width="10" stroke="black"/>
<line x1="-896" y1="-2112" x2="-896" y2="-2176" stroke-width="10" stroke="black"/>
<line x1="-904" y1="-2176" x2="-904" y2="-2112" stroke-width="10" stroke="black"/>
<line x1="-1424" y1="-1608" x2="-1432" y2="-1608" stroke-width="10" stroke="black"/>
<line x1="-704" y1="-1536" x2="-704" y2="-1472" stroke-width="10" stroke="black"/>
<line x1="-1424" y1="-1528" x2="-1424" y2="-1480" stroke-width="10" stroke="black"/>
<line x1="-1280" y1="-1536" x2="-1432" y2="-1536" stroke-width="10" stroke="black"/>
<line x1="-896" y1="-2112" x2="-904" y2="-2112" stroke-width="10" stroke="black"/>
<line x1="-1432" y1="-1624" x2="-1440" y2="-1624" stroke-width="10" stroke="black"/>
<line x1="-1432" y1="-1640" x2="-1440" y2="-1640" stroke-width="10" stroke="black"/>
<line x1="-1440" y1="-1520" x2="-1432" y2="-1520" stroke-width="10" stroke="black"/>
<line x1="-1432" y1="-1496" x2="-1440" y2="-1496" stroke-width="10" stroke="black"/>
<line x1="-1432" y1="-1512" x2="-1440" y2="-1512" stroke-width="10" stroke="black"/>
<line x1="-1432" y1="-1616" x2="-1440" y2="-1616" stroke-width="10" stroke="black"/>
<line x1="-1440" y1="-1536" x2="-1440" y2="-1600" stroke-width="10" stroke="black"/>
<line x1="-1712" y1="-1656" x2="-1712" y2="-1648" stroke-width="10" stroke="black"/>
<line x1="-1656" y1="-1648" x2="-1584" y2="-1736" stroke-width="10" stroke="black"/>
<line x1="-1680" y1="-1792" x2="-1688" y2="-1784" stroke-width="10" stroke="black"/>
<line x1="-1608" y1="-1752" x2="-1680" y2="-1792" stroke-width="10" stroke="black"/>
<line x1="-1600" y1="-1864" x2="-1664" y2="-1864" stroke-width="10" stroke="black"/>
<line x1="-1600" y1="-1856" x2="-1600" y2="-1864" stroke-width="10" stroke="black"/>
<line x1="-1664" y1="-1856" x2="-1600" y2="-1856" stroke-width="10" stroke="black"/>
<line x1="-1584" y1="-1736" x2="-1488" y2="-1736" stroke-width="10" stroke="black"/>
<line x1="-1768" y1="-1824" x2="-1640" y2="-1960" stroke-width="10" stroke="black"/>
<line x1="-1488" y1="-1736" x2="-1488" y2="-1752" stroke-width="10" stroke="black"/>
<line x1="-1640" y1="-1960" x2="-1648" y2="-1968" stroke-width="10" stroke="black"/>
<line x1="-1824" y1="-1872" x2="-1768" y2="-1824" stroke-width="10" stroke="black"/>
<line x1="-1768" y1="-1840" x2="-1816" y2="-1880" stroke-width="10" stroke="black"/>
<line x1="-1792" y1="-2112" x2="-1728" y2="-2112" stroke-width="10" stroke="black"/>
<line x1="-1728" y1="-2112" x2="-1728" y2="-2176" stroke-width="10" stroke="black"/>
<line x1="-1792" y1="-2176" x2="-1792" y2="-2112" stroke-width="10" stroke="black"/>
<line x1="-1808" y1="-2096" x2="-1712" y2="-2096" stroke-width="10" stroke="black"/>
<line x1="-1824" y1="-2176" x2="-1808" y2="-2096" stroke-width="10" stroke="black"/>
<line x1="-1712" y1="-2096" x2="-1696" y2="-2176" stroke-width="10" stroke="black"/>
<line x1="-1440" y1="-1648" x2="-1432" y2="-1648" stroke-width="10" stroke="black"/>
<line x1="-1432" y1="-1624" x2="-1432" y2="-1640" stroke-width="10" stroke="black"/>
<line x1="-1152" y1="-1472" x2="-1088" y2="-1472" stroke-width="10" stroke="black"/>
<line x1="-928" y1="-1064" x2="-864" y2="-1064" stroke-width="10" stroke="black"/>
<line x1="-640" y1="-2304" x2="-640" y2="-2368" stroke-width="10" stroke="black"/>
<line x1="-1552" y1="-384" x2="-1536" y2="-384" stroke-width="10" stroke="black"/>

</svg>

