<svg width="900" height="901" preserveAspectRatio="none" viewBox="-2698 -3522 7044 7052"
 xmlns="http://www.w3.org/2000/svg" xmlns:xlink="http://www.w3.org/1999/xlink">
   <defs>
    <marker id="arrow" markerWidth="10" markerHeight="10" refX="0" refY="2" orient="auto" markerUnits="strokeWidth">
      <path d="M0,0 L0,4 L5,3 z" fill="#f00" />
    </marker>
  </defs>

<line x1="640" y1="-512" x2="576" y2="-512" stroke-width="10" stroke="black"/>
<line x1="848" y1="-176" x2="920" y2="-248" stroke-width="10" stroke="black"/>
<line x1="552" y1="-418" x2="874" y2="-76" stroke-width="10" stroke="black"/>
<line x1="648" y1="-520" x2="640" y2="-512" stroke-width="10" stroke="black"/>
<line x1="-848" y1="-816" x2="-848" y2="-720" stroke-width="10" stroke="black"/>
<line x1="-1088" y1="-576" x2="-832" y2="-704" stroke-width="10" stroke="black"/>
<line x1="-1088" y1="-960" x2="-1088" y2="-576" stroke-width="10" stroke="black"/>
<line x1="-832" y1="-832" x2="-1088" y2="-960" stroke-width="10" stroke="black"/>
<line x1="-232" y1="-368" x2="-88" y2="-368" stroke-width="10" stroke="black"/>
<line x1="80" y1="-256" x2="-55" y2="-384" stroke-width="10" stroke="black"/>
<line x1="-147" y1="-126" x2="80" y2="-256" stroke-width="10" stroke="black"/>
<line x1="-352" y1="-384" x2="-291" y2="-180" stroke-width="10" stroke="black"/>
<line x1="296" y1="-872" x2="208" y2="-784" stroke-width="10" stroke="black"/>
<line x1="-336" y1="-768" x2="-144" y2="-1088" stroke-width="10" stroke="black"/>
<line x1="-160" y1="-1104" x2="-352" y2="-784" stroke-width="10" stroke="black"/>
<line x1="-64" y1="-1152" x2="-32" y2="-1120" stroke-width="10" stroke="black"/>
<line x1="-32" y1="-1184" x2="-64" y2="-1152" stroke-width="10" stroke="black"/>
<line x1="-144" y1="-1088" x2="8" y2="-1088" stroke-width="10" stroke="black"/>
<line x1="-224" y1="-1200" x2="-160" y2="-1104" stroke-width="10" stroke="black"/>
<line x1="-160" y1="-1104" x2="-144" y2="-1088" stroke-width="10" stroke="black"/>
<line x1="-224" y1="-1200" x2="-32" y2="-1184" stroke-width="10" stroke="black"/>
<line x1="-248" y1="-1216" x2="-431" y2="-864" stroke-width="10" stroke="black"/>
<line x1="-412" y1="-844" x2="-224" y2="-1199" stroke-width="10" stroke="black"/>
<line x1="-48" y1="-1216" x2="-248" y2="-1216" stroke-width="10" stroke="black"/>
<line x1="-424" y1="-824" x2="-413" y2="-844" stroke-width="10" stroke="black"/>
<line x1="-431" y1="-863" x2="-447" y2="-832" stroke-width="10" stroke="black"/>
<line x1="-456" y1="-816" x2="-432" y2="-808" stroke-width="10" stroke="black"/>
<line x1="-448" y1="-832" x2="-456" y2="-816" stroke-width="10" stroke="black"/>
<line x1="-832" y1="-816" x2="-456" y2="-816" stroke-width="10" stroke="black"/>
<line x1="-448" y1="-704" x2="-352" y2="-384" stroke-width="10" stroke="black"/>
<line x1="-440" y1="-720" x2="-832" y2="-720" stroke-width="10" stroke="black"/>
<line x1="-368" y1="-768" x2="-352" y2="-752" stroke-width="10" stroke="black"/>
<line x1="-352" y1="-784" x2="-365" y2="-771" stroke-width="10" stroke="black"/>
<line x1="-352" y1="-752" x2="-88" y2="-384" stroke-width="10" stroke="black"/>
<line x1="-72" y1="-400" x2="-336" y2="-768" stroke-width="10" stroke="black"/>
<line x1="-448" y1="-832" x2="-832" y2="-832" stroke-width="10" stroke="black"/>
<line x1="-424" y1="-824" x2="-448" y2="-832" stroke-width="10" stroke="black"/>
<line x1="-336" y1="-768" x2="-352" y2="-784" stroke-width="10" stroke="black"/>
<line x1="-72" y1="-400" x2="-88" y2="-384" stroke-width="10" stroke="black"/>
<line x1="8" y1="-1088" x2="8" y2="-1160" stroke-width="10" stroke="black"/>
<line x1="-240" y1="-384" x2="-88" y2="-384" stroke-width="10" stroke="black"/>
<line x1="-832" y1="-816" x2="-832" y2="-720" stroke-width="10" stroke="black"/>
<line x1="-1344" y1="-576" x2="-1032" y2="-1264" stroke-width="10" stroke="black"/>
<line x1="-96" y1="-1264" x2="-1032" y2="-1264" stroke-width="10" stroke="black"/>
<line x1="576" y1="-512" x2="592" y2="-576" stroke-width="10" stroke="black"/>
<line x1="-760" y1="-1600" x2="-960" y2="-1472" stroke-width="10" stroke="black"/>
<line x1="-1088" y1="-1600" x2="-960" y2="-1408" stroke-width="10" stroke="black"/>
<line x1="-960" y1="-1408" x2="-960" y2="-1472" stroke-width="10" stroke="black"/>
<line x1="-696" y1="-1600" x2="-928" y2="-1728" stroke-width="10" stroke="black"/>
<line x1="-928" y1="-1728" x2="-1088" y2="-1600" stroke-width="10" stroke="black"/>
<line x1="-760" y1="-1600" x2="-696" y2="-1600" stroke-width="10" stroke="black"/>
<line x1="-960" y1="-1408" x2="-696" y2="-1600" stroke-width="10" stroke="black"/>
<line x1="592" y1="144" x2="571" y2="144" stroke-width="10" stroke="black"/>
<line x1="-896" y1="960" x2="-960" y2="896" stroke-width="10" stroke="black"/>
<line x1="-896" y1="1088" x2="-896" y2="960" stroke-width="10" stroke="black"/>
<line x1="-960" y1="896" x2="-1088" y2="1024" stroke-width="10" stroke="black"/>
<line x1="-1088" y1="1024" x2="-960" y2="1152" stroke-width="10" stroke="black"/>
<line x1="-960" y1="1152" x2="-896" y2="1088" stroke-width="10" stroke="black"/>
<line x1="-1280" y1="1448" x2="-648" y2="1448" stroke-width="10" stroke="black"/>
<line x1="-576" y1="768" x2="-1024" y2="512" stroke-width="10" stroke="black"/>
<line x1="-1384" y1="760" x2="-1280" y2="1448" stroke-width="10" stroke="black"/>
<line x1="-408" y1="1088" x2="-472" y2="1088" stroke-width="10" stroke="black"/>
<line x1="-472" y1="1088" x2="-536" y2="1088" stroke-width="10" stroke="black"/>
<line x1="-536" y1="1088" x2="-536" y2="896" stroke-width="10" stroke="black"/>
<line x1="-472" y1="1088" x2="-472" y2="896" stroke-width="10" stroke="black"/>
<line x1="-472" y1="896" x2="-408" y2="896" stroke-width="10" stroke="black"/>
<line x1="-576" y1="1216" x2="-408" y2="1120" stroke-width="10" stroke="black"/>
<line x1="-408" y1="864" x2="-576" y2="768" stroke-width="10" stroke="black"/>
<line x1="-576" y1="1216" x2="-576" y2="1376" stroke-width="10" stroke="black"/>
<line x1="-1152" y1="192" x2="-1152" y2="0" stroke-width="10" stroke="black"/>
<line x1="-960" y1="192" x2="-960" y2="0" stroke-width="10" stroke="black"/>
<line x1="-1024" y1="0" x2="-1024" y2="192" stroke-width="10" stroke="black"/>
<line x1="-1088" y1="256" x2="-960" y2="192" stroke-width="10" stroke="black"/>
<line x1="-1088" y1="-64" x2="-1208" y2="8" stroke-width="10" stroke="black"/>
<line x1="-1208" y1="200" x2="-1088" y2="256" stroke-width="10" stroke="black"/>
<line x1="-1296" y1="-56" x2="-1264" y2="-80" stroke-width="10" stroke="black"/>
<line x1="-1320" y1="-88" x2="-1296" y2="-56" stroke-width="10" stroke="black"/>
<line x1="-1224" y1="-72" x2="-1264" y2="-80" stroke-width="10" stroke="black"/>
<line x1="-1344" y1="-128" x2="-1368" y2="-96" stroke-width="10" stroke="black"/>
<line x1="-1368" y1="-96" x2="-1320" y2="-88" stroke-width="10" stroke="black"/>
<line x1="-1192" y1="-96" x2="-1216" y2="-128" stroke-width="10" stroke="black"/>
<line x1="-1224" y1="-72" x2="-1192" y2="-96" stroke-width="10" stroke="black"/>
<line x1="-1485" y1="-128" x2="-1384" y2="760" stroke-width="10" stroke="black"/>
<line x1="-960" y1="0" x2="-1088" y2="-64" stroke-width="10" stroke="black"/>
<line x1="-1024" y1="-192" x2="-1192" y2="-192" stroke-width="10" stroke="black"/>
<line x1="-1056" y1="-256" x2="-1024" y2="-288" stroke-width="10" stroke="black"/>
<line x1="-1024" y1="-288" x2="-1024" y2="-320" stroke-width="10" stroke="black"/>
<line x1="-1216" y1="-256" x2="-1056" y2="-256" stroke-width="10" stroke="black"/>
<line x1="-1024" y1="-384" x2="-1024" y2="-320" stroke-width="10" stroke="black"/>
<line x1="-1128" y1="-384" x2="-1128" y2="-320" stroke-width="10" stroke="black"/>
<line x1="-1112" y1="-320" x2="-1112" y2="-384" stroke-width="10" stroke="black"/>
<line x1="-1024" y1="-320" x2="-960" y2="-320" stroke-width="10" stroke="black"/>
<line x1="-1344" y1="-576" x2="-1536" y2="-576" stroke-width="10" stroke="black"/>
<line x1="-1536" y1="-576" x2="-1485" y2="-128" stroke-width="10" stroke="black"/>
<line x1="-1280" y1="-192" x2="-1216" y2="-256" stroke-width="10" stroke="black"/>
<line x1="-1344" y1="-576" x2="-1344" y2="-128" stroke-width="10" stroke="black"/>
<line x1="-1216" y1="-320" x2="-1216" y2="-384" stroke-width="10" stroke="black"/>
<line x1="-1344" y1="-128" x2="-1280" y2="-128" stroke-width="10" stroke="black"/>
<line x1="-1384" y1="760" x2="-1024" y2="512" stroke-width="10" stroke="black"/>
<line x1="-344" y1="1144" x2="-344" y2="1088" stroke-width="10" stroke="black"/>
<line x1="-344" y1="896" x2="-344" y2="384" stroke-width="10" stroke="black"/>
<line x1="-408" y1="896" x2="-344" y2="896" stroke-width="10" stroke="black"/>
<line x1="-256" y1="-64" x2="-148" y2="-126" stroke-width="10" stroke="black"/>
<line x1="552" y1="208" x2="568" y2="231" stroke-width="10" stroke="black"/>
<line x1="299" y1="500" x2="232" y2="400" stroke-width="10" stroke="black"/>
<line x1="296" y1="144" x2="128" y2="400" stroke-width="10" stroke="black"/>
<line x1="512" y1="288" x2="552" y2="208" stroke-width="10" stroke="black"/>
<line x1="570" y1="144" x2="296" y2="144" stroke-width="10" stroke="black"/>
<line x1="-290" y1="-180" x2="-256" y2="-64" stroke-width="10" stroke="black"/>
<line x1="-408" y1="-128" x2="-408" y2="384" stroke-width="10" stroke="black"/>
<line x1="-408" y1="-224" x2="-1344" y2="-576" stroke-width="10" stroke="black"/>
<line x1="1792" y1="2816" x2="1408" y2="2816" stroke-width="10" stroke="black"/>
<line x1="1440" y1="2832" x2="1760" y2="2832" stroke-width="10" stroke="black"/>
<line x1="1408" y1="2816" x2="1480" y2="3072" stroke-width="10" stroke="black"/>
<line x1="1728" y1="3072" x2="1792" y2="2816" stroke-width="10" stroke="black"/>
<line x1="1480" y1="3072" x2="1728" y2="3072" stroke-width="10" stroke="black"/>
<line x1="216" y1="2536" x2="136" y2="2552" stroke-width="10" stroke="black"/>
<line x1="448" y1="2752" x2="360" y2="2536" stroke-width="10" stroke="black"/>
<line x1="40" y1="2816" x2="256" y2="2880" stroke-width="10" stroke="black"/>
<line x1="136" y1="2552" x2="40" y2="2664" stroke-width="10" stroke="black"/>
<line x1="360" y1="2536" x2="216" y2="2536" stroke-width="10" stroke="black"/>
<line x1="40" y1="2664" x2="40" y2="2816" stroke-width="10" stroke="black"/>
<line x1="256" y1="2880" x2="448" y2="2752" stroke-width="10" stroke="black"/>
<line x1="-344" y1="1600" x2="264" y2="1792" stroke-width="10" stroke="black"/>
<line x1="-408" y1="1600" x2="-344" y2="1600" stroke-width="10" stroke="black"/>
<line x1="-344" y1="1600" x2="-344" y2="1280" stroke-width="10" stroke="black"/>
<line x1="-576" y1="1448" x2="64" y2="2176" stroke-width="10" stroke="black"/>
<line x1="-648" y1="1448" x2="-576" y2="1448" stroke-width="10" stroke="black"/>
<line x1="-576" y1="1448" x2="-576" y2="1376" stroke-width="10" stroke="black"/>
<line x1="264" y1="1792" x2="448" y2="1792" stroke-width="10" stroke="black"/>
<line x1="264" y1="1792" x2="64" y2="2176" stroke-width="10" stroke="black"/>
<line x1="832" y1="1296" x2="896" y2="1320" stroke-width="10" stroke="black"/>
<line x1="728" y1="1488" x2="624" y2="1488" stroke-width="10" stroke="black"/>
<line x1="640" y1="1280" x2="448" y2="1472" stroke-width="10" stroke="black"/>
<line x1="464" y1="1488" x2="656" y2="1296" stroke-width="10" stroke="black"/>
<line x1="448" y1="1472" x2="448" y2="1792" stroke-width="10" stroke="black"/>
<line x1="768" y1="1792" x2="1800" y2="2000" stroke-width="10" stroke="black"/>
<line x1="1440" y1="1280" x2="1392" y2="1328" stroke-width="10" stroke="black"/>
<line x1="1408" y1="1344" x2="1472" y2="1280" stroke-width="10" stroke="black"/>
<line x1="1384" y1="1328" x2="1384" y2="1392" stroke-width="10" stroke="black"/>
<line x1="960" y1="1408" x2="1408" y2="1408" stroke-width="10" stroke="black"/>
<line x1="1408" y1="1408" x2="1536" y2="1280" stroke-width="10" stroke="black"/>
<line x1="960" y1="1392" x2="944" y2="1392" stroke-width="10" stroke="black"/>
<line x1="768" y1="1792" x2="960" y2="1616" stroke-width="10" stroke="black"/>
<line x1="752" y1="1616" x2="752" y2="1496" stroke-width="10" stroke="black"/>
<line x1="960" y1="1616" x2="960" y2="1408" stroke-width="10" stroke="black"/>
<line x1="448" y1="1792" x2="768" y2="1792" stroke-width="10" stroke="black"/>
<line x1="448" y1="1792" x2="136" y2="2176" stroke-width="10" stroke="black"/>
<line x1="1800" y1="2000" x2="2081" y2="1280" stroke-width="10" stroke="black"/>
<line x1="136" y1="2344" x2="136" y2="2176" stroke-width="10" stroke="black"/>
<line x1="1800" y1="2000" x2="136" y2="2176" stroke-width="10" stroke="black"/>
<line x1="64" y1="2368" x2="128" y2="2536" stroke-width="10" stroke="black"/>
<line x1="64" y1="2176" x2="64" y2="2368" stroke-width="10" stroke="black"/>
<line x1="208" y1="2520" x2="136" y2="2344" stroke-width="10" stroke="black"/>
<line x1="624" y1="1616" x2="464" y2="1776" stroke-width="10" stroke="black"/>
<line x1="128" y1="2536" x2="208" y2="2520" stroke-width="10" stroke="black"/>
<line x1="2081" y1="1280" x2="2184" y2="1017" stroke-width="10" stroke="black"/>
<line x1="1456" y1="1264" x2="1440" y2="1280" stroke-width="10" stroke="black"/>
<line x1="1520" y1="1256" x2="1456" y2="1256" stroke-width="10" stroke="black"/>
<line x1="1536" y1="1280" x2="1536" y2="832" stroke-width="10" stroke="black"/>
<line x1="1720" y1="640" x2="1816" y2="712" stroke-width="10" stroke="black"/>
<line x1="1728" y1="832" x2="1864" y2="696" stroke-width="10" stroke="black"/>
<line x1="1624" y1="640" x2="1528" y2="640" stroke-width="10" stroke="black"/>
<line x1="1440" y1="696" x2="1496" y2="720" stroke-width="10" stroke="black"/>
<line x1="1544" y1="376" x2="1440" y2="480" stroke-width="10" stroke="black"/>
<line x1="1440" y1="528" x2="1464" y2="504" stroke-width="10" stroke="black"/>
<line x1="1440" y1="808" x2="1512" y2="736" stroke-width="10" stroke="black"/>
<line x1="1720" y1="808" x2="1552" y2="808" stroke-width="10" stroke="black"/>
<line x1="1528" y1="720" x2="1496" y2="720" stroke-width="10" stroke="black"/>
<line x1="1720" y1="736" x2="1720" y2="640" stroke-width="10" stroke="black"/>
<line x1="1536" y1="832" x2="1728" y2="832" stroke-width="10" stroke="black"/>
<line x1="832" y1="1056" x2="896" y2="1056" stroke-width="10" stroke="black"/>
<line x1="832" y1="1024" x2="896" y2="1024" stroke-width="10" stroke="black"/>
<line x1="785" y1="992" x2="815" y2="1280" stroke-width="10" stroke="black"/>
<line x1="832" y1="960" x2="896" y2="960" stroke-width="10" stroke="black"/>
<line x1="832" y1="896" x2="896" y2="896" stroke-width="10" stroke="black"/>
<line x1="832" y1="928" x2="896" y2="928" stroke-width="10" stroke="black"/>
<line x1="774" y1="889" x2="785" y2="991" stroke-width="10" stroke="black"/>
<line x1="832" y1="992" x2="896" y2="992" stroke-width="10" stroke="black"/>
<line x1="1440" y1="776" x2="1312" y2="904" stroke-width="10" stroke="black"/>
<line x1="1328" y1="920" x2="1440" y2="808" stroke-width="10" stroke="black"/>
<line x1="1408" y1="512" x2="1408" y2="696" stroke-width="10" stroke="black"/>
<line x1="896" y1="1072" x2="920" y2="1072" stroke-width="10" stroke="black"/>
<line x1="920" y1="880" x2="896" y2="880" stroke-width="10" stroke="black"/>
<line x1="920" y1="904" x2="1096" y2="808" stroke-width="10" stroke="black"/>
<line x1="1096" y1="808" x2="1096" y2="704" stroke-width="10" stroke="black"/>
<line x1="1408" y1="696" x2="1017" y2="648" stroke-width="10" stroke="black"/>
<line x1="1408" y1="728" x2="1440" y2="696" stroke-width="10" stroke="black"/>
<line x1="896" y1="896" x2="896" y2="928" stroke-width="10" stroke="black"/>
<line x1="1440" y1="696" x2="1440" y2="528" stroke-width="10" stroke="black"/>
<line x1="960" y1="424" x2="856" y2="320" stroke-width="10" stroke="black"/>
<line x1="960" y1="448" x2="1152" y2="384" stroke-width="10" stroke="black"/>
<line x1="896" y1="128" x2="832" y2="320" stroke-width="10" stroke="black"/>
<line x1="1152" y1="384" x2="896" y2="128" stroke-width="10" stroke="black"/>
<line x1="1088" y1="-64" x2="1096" y2="-72" stroke-width="10" stroke="black"/>
<line x1="984" y1="40" x2="1088" y2="-64" stroke-width="10" stroke="black"/>
<line x1="1088" y1="-64" x2="1056" y2="-96" stroke-width="10" stroke="black"/>
<line x1="875" y1="-75" x2="983" y2="40" stroke-width="10" stroke="black"/>
<line x1="568" y1="231" x2="687" y2="407" stroke-width="10" stroke="black"/>
<line x1="688" y1="408" x2="744" y2="368" stroke-width="10" stroke="black"/>
<line x1="960" y1="640" x2="768" y2="832" stroke-width="10" stroke="black"/>
<line x1="1016" y1="647" x2="960" y2="640" stroke-width="10" stroke="black"/>
<line x1="360" y1="592" x2="512" y2="288" stroke-width="10" stroke="black"/>
<line x1="552" y1="592" x2="360" y2="592" stroke-width="10" stroke="black"/>
<line x1="235" y1="564" x2="295" y2="655" stroke-width="10" stroke="black"/>
<line x1="552" y1="656" x2="552" y2="592" stroke-width="10" stroke="black"/>
<line x1="-344" y1="1280" x2="-344" y2="1144" stroke-width="10" stroke="black"/>
<line x1="256" y1="984" x2="360" y2="1088" stroke-width="10" stroke="black"/>
<line x1="256" y1="960" x2="64" y2="1024" stroke-width="10" stroke="black"/>
<line x1="384" y1="1088" x2="256" y2="960" stroke-width="10" stroke="black"/>
<line x1="320" y1="1280" x2="384" y2="1088" stroke-width="10" stroke="black"/>
<line x1="64" y1="1024" x2="320" y2="1280" stroke-width="10" stroke="black"/>
<line x1="832" y1="832" x2="768" y2="832" stroke-width="10" stroke="black"/>
<line x1="960" y1="448" x2="832" y2="320" stroke-width="10" stroke="black"/>
<line x1="832" y1="832" x2="960" y2="704" stroke-width="10" stroke="black"/>
<line x1="1472" y1="1280" x2="1536" y2="1280" stroke-width="10" stroke="black"/>
<line x1="984" y1="-184" x2="912" y2="-112" stroke-width="10" stroke="black"/>
<line x1="944" y1="-512" x2="872" y2="-584" stroke-width="10" stroke="black"/>
<line x1="992" y1="-560" x2="920" y2="-632" stroke-width="10" stroke="black"/>
<line x1="1248" y1="-544" x2="1296" y2="-496" stroke-width="10" stroke="black"/>
<line x1="1008" y1="-208" x2="960" y2="-256" stroke-width="10" stroke="black"/>
<line x1="960" y1="-256" x2="1248" y2="-544" stroke-width="10" stroke="black"/>
<line x1="976" y1="-480" x2="944" y2="-512" stroke-width="10" stroke="black"/>
<line x1="1024" y1="-528" x2="992" y2="-560" stroke-width="10" stroke="black"/>
<line x1="1024" y1="-528" x2="976" y2="-480" stroke-width="10" stroke="black"/>
<line x1="1000" y1="-456" x2="1048" y2="-504" stroke-width="10" stroke="black"/>
<line x1="944" y1="-448" x2="944" y2="-336" stroke-width="10" stroke="black"/>
<line x1="1168" y1="-560" x2="1056" y2="-560" stroke-width="10" stroke="black"/>
<line x1="928" y1="-256" x2="960" y2="-256" stroke-width="10" stroke="black"/>
<line x1="1248" y1="-544" x2="1248" y2="-576" stroke-width="10" stroke="black"/>
<line x1="944" y1="-512" x2="800" y2="-368" stroke-width="10" stroke="black"/>
<line x1="1360" y1="-496" x2="1408" y2="-448" stroke-width="10" stroke="black"/>
<line x1="1008" y1="-208" x2="984" y2="-184" stroke-width="10" stroke="black"/>
<line x1="2006" y1="-982" x2="1824" y2="-1263" stroke-width="10" stroke="black"/>
<line x1="1416" y1="-584" x2="1480" y2="-520" stroke-width="10" stroke="black"/>
<line x1="840" y1="-712" x2="984" y2="-856" stroke-width="10" stroke="black"/>
<line x1="784" y1="-768" x2="928" y2="-912" stroke-width="10" stroke="black"/>
<line x1="664" y1="-888" x2="808" y2="-1032" stroke-width="10" stroke="black"/>
<line x1="728" y1="-824" x2="872" y2="-968" stroke-width="10" stroke="black"/>
<line x1="1158" y1="-870" x2="688" y2="-1263" stroke-width="10" stroke="black"/>
<line x1="1000" y1="-872" x2="944" y2="-928" stroke-width="10" stroke="black"/>
<line x1="656" y1="-1184" x2="736" y2="-1104" stroke-width="10" stroke="black"/>
<line x1="688" y1="-1264" x2="488" y2="-1064" stroke-width="10" stroke="black"/>
<line x1="8" y1="-1160" x2="8" y2="-1216" stroke-width="10" stroke="black"/>
<line x1="8" y1="-1216" x2="-48" y2="-1216" stroke-width="10" stroke="black"/>
<line x1="464" y1="-992" x2="616" y2="-840" stroke-width="10" stroke="black"/>
<line x1="616" y1="-840" x2="680" y2="-776" stroke-width="10" stroke="black"/>
<line x1="616" y1="-840" x2="472" y2="-696" stroke-width="10" stroke="black"/>
<line x1="488" y1="-1064" x2="296" y2="-872" stroke-width="10" stroke="black"/>
<line x1="680" y1="-776" x2="736" y2="-720" stroke-width="10" stroke="black"/>
<line x1="872" y1="-584" x2="792" y2="-664" stroke-width="10" stroke="black"/>
<line x1="792" y1="-664" x2="648" y2="-520" stroke-width="10" stroke="black"/>
<line x1="736" y1="-720" x2="592" y2="-576" stroke-width="10" stroke="black"/>
<line x1="680" y1="-776" x2="536" y2="-632" stroke-width="10" stroke="black"/>
<line x1="920" y1="-632" x2="840" y2="-712" stroke-width="10" stroke="black"/>
<line x1="920" y1="-632" x2="1064" y2="-776" stroke-width="10" stroke="black"/>
<line x1="1728" y1="-1472" x2="2304" y2="-1472" stroke-width="10" stroke="black"/>
<line x1="2240" y1="-1536" x2="1792" y2="-1536" stroke-width="10" stroke="black"/>
<line x1="1728" y1="-1728" x2="1728" y2="-1472" stroke-width="10" stroke="black"/>
<line x1="2304" y1="-1472" x2="2304" y2="-1728" stroke-width="10" stroke="black"/>
<line x1="2304" y1="-1728" x2="1728" y2="-1728" stroke-width="10" stroke="black"/>
<line x1="832" y1="-2560" x2="896" y2="-2560" stroke-width="10" stroke="black"/>
<line x1="696" y1="-2496" x2="832" y2="-2560" stroke-width="10" stroke="black"/>
<line x1="832" y1="-2560" x2="832" y2="-2624" stroke-width="10" stroke="black"/>
<line x1="696" y1="-2688" x2="696" y2="-2624" stroke-width="10" stroke="black"/>
<line x1="832" y1="-2624" x2="896" y2="-2624" stroke-width="10" stroke="black"/>
<line x1="1048" y1="-2624" x2="960" y2="-2720" stroke-width="10" stroke="black"/>
<line x1="664" y1="-2720" x2="576" y2="-2624" stroke-width="10" stroke="black"/>
<line x1="896" y1="-2560" x2="1048" y2="-2624" stroke-width="10" stroke="black"/>
<line x1="960" y1="-2720" x2="664" y2="-2720" stroke-width="10" stroke="black"/>
<line x1="864" y1="-3120" x2="928" y2="-3120" stroke-width="10" stroke="black"/>
<line x1="928" y1="-3120" x2="952" y2="-2952" stroke-width="10" stroke="black"/>
<line x1="952" y1="-2952" x2="840" y2="-2952" stroke-width="10" stroke="black"/>
<line x1="840" y1="-2952" x2="864" y2="-3120" stroke-width="10" stroke="black"/>
<line x1="832" y1="-3200" x2="832" y2="-2944" stroke-width="10" stroke="black"/>
<line x1="960" y1="-3200" x2="832" y2="-3200" stroke-width="10" stroke="black"/>
<line x1="960" y1="-2944" x2="960" y2="-3200" stroke-width="10" stroke="black"/>
<line x1="832" y1="-2944" x2="960" y2="-2944" stroke-width="10" stroke="black"/>
<line x1="1062" y1="-2105" x2="2095" y2="-3391" stroke-width="10" stroke="black"/>
<line x1="-640" y1="-2496" x2="-448" y2="-2432" stroke-width="10" stroke="black"/>
<line x1="-640" y1="-2624" x2="-640" y2="-2496" stroke-width="10" stroke="black"/>
<line x1="-384" y1="-2496" x2="-384" y2="-2624" stroke-width="10" stroke="black"/>
<line x1="-408" y1="-2624" x2="-408" y2="-2496" stroke-width="10" stroke="black"/>
<line x1="-448" y1="-2688" x2="-640" y2="-2624" stroke-width="10" stroke="black"/>
<line x1="-576" y1="-2624" x2="-408" y2="-2624" stroke-width="10" stroke="black"/>
<line x1="-448" y1="-2432" x2="-384" y2="-2496" stroke-width="10" stroke="black"/>
<line x1="320" y1="-2560" x2="448" y2="-2560" stroke-width="10" stroke="black"/>
<line x1="448" y1="-2688" x2="320" y2="-2688" stroke-width="10" stroke="black"/>
<line x1="448" y1="-2560" x2="448" y2="-2688" stroke-width="10" stroke="black"/>
<line x1="320" y1="-2688" x2="320" y2="-2560" stroke-width="10" stroke="black"/>
<line x1="512" y1="-2432" x2="568" y2="-2432" stroke-width="10" stroke="black"/>
<line x1="512" y1="-2488" x2="512" y2="-2432" stroke-width="10" stroke="black"/>
<line x1="568" y1="-2376" x2="456" y2="-2376" stroke-width="10" stroke="black"/>
<line x1="456" y1="-2376" x2="456" y2="-2488" stroke-width="10" stroke="black"/>
<line x1="568" y1="-2432" x2="568" y2="-2376" stroke-width="10" stroke="black"/>
<line x1="512" y1="-2488" x2="568" y2="-2488" stroke-width="10" stroke="black"/>
<line x1="576" y1="-2368" x2="576" y2="-2496" stroke-width="10" stroke="black"/>
<line x1="448" y1="-2496" x2="448" y2="-2368" stroke-width="10" stroke="black"/>
<line x1="448" y1="-2368" x2="576" y2="-2368" stroke-width="10" stroke="black"/>
<line x1="1062" y1="-2105" x2="560" y2="-1480" stroke-width="10" stroke="black"/>
<line x1="576" y1="-2496" x2="448" y2="-2496" stroke-width="10" stroke="black"/>
<line x1="-728" y1="-3392" x2="560" y2="-1480" stroke-width="10" stroke="black"/>
<line x1="696" y1="-2496" x2="576" y2="-2624" stroke-width="10" stroke="black"/>
<line x1="688" y1="-1264" x2="1824" y2="-1264" stroke-width="10" stroke="black"/>
<line x1="2816" y1="480" x2="2944" y2="768" stroke-width="10" stroke="black"/>
<line x1="2829" y1="448" x2="2816" y2="480" stroke-width="10" stroke="black"/>
<line x1="3008" y1="448" x2="3008" y2="512" stroke-width="10" stroke="black"/>
<line x1="3328" y1="512" x2="3328" y2="448" stroke-width="10" stroke="black"/>
<line x1="3320" y1="448" x2="3320" y2="512" stroke-width="10" stroke="black"/>
<line x1="2944" y1="768" x2="3392" y2="768" stroke-width="10" stroke="black"/>
<line x1="3224" y1="520" x2="3320" y2="520" stroke-width="10" stroke="black"/>
<line x1="3224" y1="568" x2="3224" y2="520" stroke-width="10" stroke="black"/>
<line x1="3216" y1="512" x2="3216" y2="568" stroke-width="10" stroke="black"/>
<line x1="3320" y1="512" x2="3320" y2="520" stroke-width="10" stroke="black"/>
<line x1="3216" y1="568" x2="3224" y2="568" stroke-width="10" stroke="black"/>
<line x1="2992" y1="656" x2="2952" y2="656" stroke-width="10" stroke="black"/>
<line x1="2992" y1="696" x2="2992" y2="656" stroke-width="10" stroke="black"/>
<line x1="2952" y1="520" x2="3016" y2="520" stroke-width="10" stroke="black"/>
<line x1="3136" y1="576" x2="3200" y2="576" stroke-width="10" stroke="black"/>
<line x1="3128" y1="568" x2="3128" y2="696" stroke-width="10" stroke="black"/>
<line x1="3208" y1="696" x2="3208" y2="568" stroke-width="10" stroke="black"/>
<line x1="2944" y1="704" x2="3136" y2="704" stroke-width="10" stroke="black"/>
<line x1="3008" y1="512" x2="2944" y2="512" stroke-width="10" stroke="black"/>
<line x1="3392" y1="704" x2="3392" y2="512" stroke-width="10" stroke="black"/>
<line x1="2944" y1="512" x2="2944" y2="704" stroke-width="10" stroke="black"/>
<line x1="3128" y1="336" x2="3056" y2="336" stroke-width="10" stroke="black"/>
<line x1="2992" y1="304" x2="2992" y2="264" stroke-width="10" stroke="black"/>
<line x1="2952" y1="304" x2="2992" y2="304" stroke-width="10" stroke="black"/>
<line x1="3016" y1="440" x2="2952" y2="440" stroke-width="10" stroke="black"/>
<line x1="2944" y1="256" x2="2944" y2="448" stroke-width="10" stroke="black"/>
<line x1="3056" y1="336" x2="3056" y2="264" stroke-width="10" stroke="black"/>
<line x1="3128" y1="256" x2="2944" y2="256" stroke-width="10" stroke="black"/>
<line x1="3320" y1="440" x2="3320" y2="448" stroke-width="10" stroke="black"/>
<line x1="3296" y1="392" x2="3296" y2="448" stroke-width="10" stroke="black"/>
<line x1="3216" y1="384" x2="3216" y2="392" stroke-width="10" stroke="black"/>
<line x1="3304" y1="384" x2="3216" y2="384" stroke-width="10" stroke="black"/>
<line x1="3216" y1="392" x2="3296" y2="392" stroke-width="10" stroke="black"/>
<line x1="3304" y1="448" x2="3304" y2="384" stroke-width="10" stroke="black"/>
<line x1="3200" y1="384" x2="3136" y2="384" stroke-width="10" stroke="black"/>
<line x1="3208" y1="392" x2="3208" y2="264" stroke-width="10" stroke="black"/>
<line x1="3392" y1="256" x2="3200" y2="256" stroke-width="10" stroke="black"/>
<line x1="3128" y1="336" x2="3128" y2="392" stroke-width="10" stroke="black"/>
<line x1="3392" y1="192" x2="2936" y2="192" stroke-width="10" stroke="black"/>
<line x1="3392" y1="448" x2="3392" y2="256" stroke-width="10" stroke="black"/>
<line x1="2936" y1="192" x2="2830" y2="448" stroke-width="10" stroke="black"/>
<line x1="3328" y1="448" x2="3392" y2="448" stroke-width="10" stroke="black"/>
<line x1="3392" y1="192" x2="3520" y2="480" stroke-width="10" stroke="black"/>
<line x1="3520" y1="480" x2="3392" y2="768" stroke-width="10" stroke="black"/>
<line x1="1856" y1="0" x2="1984" y2="0" stroke-width="10" stroke="black"/>
<line x1="1856" y1="-64" x2="1984" y2="-64" stroke-width="10" stroke="black"/>
<line x1="1856" y1="-160" x2="1984" y2="-160" stroke-width="10" stroke="black"/>
<line x1="1856" y1="-128" x2="1984" y2="-128" stroke-width="10" stroke="black"/>
<line x1="1856" y1="-96" x2="1984" y2="-96" stroke-width="10" stroke="black"/>
<line x1="2416" y1="320" x2="2416" y2="-184" stroke-width="10" stroke="black"/>
<line x1="2112" y1="-128" x2="2112" y2="-184" stroke-width="10" stroke="black"/>
<line x1="1984" y1="0" x2="2048" y2="0" stroke-width="10" stroke="black"/>
<line x1="2048" y1="0" x2="2112" y2="-128" stroke-width="10" stroke="black"/>
<line x1="1984" y1="-64" x2="1984" y2="0" stroke-width="10" stroke="black"/>
<line x1="1728" y1="-184" x2="1728" y2="-128" stroke-width="10" stroke="black"/>
<line x1="1792" y1="0" x2="1856" y2="0" stroke-width="10" stroke="black"/>
<line x1="1728" y1="-128" x2="1792" y2="0" stroke-width="10" stroke="black"/>
<line x1="1856" y1="0" x2="1856" y2="-64" stroke-width="10" stroke="black"/>
<line x1="1632" y1="352" x2="1648" y2="352" stroke-width="10" stroke="black"/>
<line x1="1920" y1="640" x2="1920" y2="608" stroke-width="10" stroke="black"/>
<line x1="1888" y1="352" x2="1888" y2="384" stroke-width="10" stroke="black"/>
<line x1="1720" y1="544" x2="1720" y2="448" stroke-width="10" stroke="black"/>
<line x1="1720" y1="448" x2="1624" y2="448" stroke-width="10" stroke="black"/>
<line x1="1600" y1="320" x2="1568" y2="352" stroke-width="10" stroke="black"/>
<line x1="1568" y1="400" x2="1592" y2="376" stroke-width="10" stroke="black"/>
<line x1="2184" y1="1016" x2="2215" y2="936" stroke-width="10" stroke="black"/>
<line x1="1808" y1="640" x2="1816" y2="640" stroke-width="10" stroke="black"/>
<line x1="1864" y1="696" x2="1920" y2="640" stroke-width="10" stroke="black"/>
<line x1="1816" y1="544" x2="1720" y2="544" stroke-width="10" stroke="black"/>
<line x1="2216" y1="936" x2="1920" y2="640" stroke-width="10" stroke="black"/>
<line x1="1856" y1="320" x2="1648" y2="320" stroke-width="10" stroke="black"/>
<line x1="1792" y1="-512" x2="1728" y2="-384" stroke-width="10" stroke="black"/>
<line x1="1848" y1="-512" x2="1792" y2="-512" stroke-width="10" stroke="black"/>
<line x1="1984" y1="-512" x2="1848" y2="-512" stroke-width="10" stroke="black"/>
<line x1="1848" y1="-512" x2="1848" y2="-328" stroke-width="10" stroke="black"/>
<line x1="1736" y1="-320" x2="1856" y2="-320" stroke-width="10" stroke="black"/>
<line x1="1856" y1="-224" x2="1984" y2="-224" stroke-width="10" stroke="black"/>
<line x1="1984" y1="-192" x2="1856" y2="-192" stroke-width="10" stroke="black"/>
<line x1="1792" y1="-192" x2="1792" y2="-256" stroke-width="10" stroke="black"/>
<line x1="1856" y1="-184" x2="1856" y2="-192" stroke-width="10" stroke="black"/>
<line x1="1792" y1="-256" x2="1736" y2="-256" stroke-width="10" stroke="black"/>
<line x1="1728" y1="-384" x2="1728" y2="-328" stroke-width="10" stroke="black"/>
<line x1="2416" y1="-184" x2="2416" y2="-352" stroke-width="10" stroke="black"/>
<line x1="2112" y1="-328" x2="2112" y2="-384" stroke-width="10" stroke="black"/>
<line x1="2048" y1="-512" x2="1992" y2="-512" stroke-width="10" stroke="black"/>
<line x1="2048" y1="-256" x2="2048" y2="-192" stroke-width="10" stroke="black"/>
<line x1="2104" y1="-256" x2="2048" y2="-256" stroke-width="10" stroke="black"/>
<line x1="2112" y1="-184" x2="2112" y2="-328" stroke-width="10" stroke="black"/>
<line x1="2112" y1="-328" x2="1992" y2="-328" stroke-width="10" stroke="black"/>
<line x1="2112" y1="-384" x2="2048" y2="-512" stroke-width="10" stroke="black"/>
<line x1="2432" y1="-704" x2="2432" y2="-832" stroke-width="10" stroke="black"/>
<line x1="2560" y1="-704" x2="2432" y2="-704" stroke-width="10" stroke="black"/>
<line x1="2368" y1="-832" x2="2368" y2="-640" stroke-width="10" stroke="black"/>
<line x1="2368" y1="-640" x2="2560" y2="-640" stroke-width="10" stroke="black"/>
<line x1="2432" y1="-896" x2="2368" y2="-832" stroke-width="10" stroke="black"/>
<line x1="2368" y1="-832" x2="2432" y2="-832" stroke-width="10" stroke="black"/>
<line x1="2560" y1="-640" x2="2624" y2="-704" stroke-width="10" stroke="black"/>
<line x1="2624" y1="-704" x2="2624" y2="-832" stroke-width="10" stroke="black"/>
<line x1="2560" y1="-832" x2="2560" y2="-704" stroke-width="10" stroke="black"/>
<line x1="2006" y1="-982" x2="2415" y2="-352" stroke-width="10" stroke="black"/>
<line x1="1984" y1="-504" x2="1984" y2="-320" stroke-width="10" stroke="black"/>
<line x1="1984" y1="-184" x2="2112" y2="-184" stroke-width="10" stroke="black"/>
<line x1="2216" y1="936" x2="2416" y2="320" stroke-width="10" stroke="black"/>
<line x1="1440" y1="-416" x2="1096" y2="-72" stroke-width="10" stroke="black"/>
<line x1="592" y1="-576" x2="648" y2="-520" stroke-width="10" stroke="black"/>

</svg>

