<svg width="900" height="931" preserveAspectRatio="none" viewBox="-1858 -2242 3972 4100"
 xmlns="http://www.w3.org/2000/svg" xmlns:xlink="http://www.w3.org/1999/xlink">
   <defs>
    <marker id="arrow" markerWidth="10" markerHeight="10" refX="0" refY="2" orient="auto" markerUnits="strokeWidth">
      <path d="M0,0 L0,4 L5,3 z" fill="#f00" />
    </marker>
  </defs>

<line x1="1024" y1="896" x2="1280" y2="1152" stroke-width="10" stroke="black"/>
<line x1="1024" y1="1280" x2="1280" y2="1152" stroke-width="10" stroke="black"/>
<line x1="1280" y1="1152" x2="1280" y2="1536" stroke-width="10" stroke="black"/>
<line x1="1024" y1="896" x2="896" y2="1152" stroke-width="10" stroke="black"/>
<line x1="1024" y1="768" x2="1600" y2="448" stroke-width="10" stroke="black"/>
<line x1="960" y1="704" x2="1024" y2="768" stroke-width="10" stroke="black"/>
<line x1="768" y1="896" x2="1024" y2="896" stroke-width="10" stroke="black"/>
<line x1="1600" y1="1536" x2="1920" y2="832" stroke-width="10" stroke="black"/>
<line x1="1920" y1="1280" x2="1792" y2="1536" stroke-width="10" stroke="black"/>
<line x1="1920" y1="576" x2="1408" y2="1536" stroke-width="10" stroke="black"/>
<line x1="1024" y1="1536" x2="1024" y2="1280" stroke-width="10" stroke="black"/>
<line x1="832" y1="1344" x2="768" y2="1344" stroke-width="10" stroke="black"/>
<line x1="896" y1="1408" x2="896" y2="1312" stroke-width="10" stroke="black"/>
<line x1="768" y1="1472" x2="832" y2="1472" stroke-width="10" stroke="black"/>
<line x1="896" y1="1152" x2="768" y2="1152" stroke-width="10" stroke="black"/>
<line x1="832" y1="1296" x2="768" y2="1296" stroke-width="10" stroke="black"/>
<line x1="896" y1="1312" x2="864" y2="1280" stroke-width="10" stroke="black"/>
<line x1="864" y1="1280" x2="832" y2="1280" stroke-width="10" stroke="black"/>
<line x1="768" y1="1312" x2="832" y2="1312" stroke-width="10" stroke="black"/>
<line x1="832" y1="1472" x2="896" y2="1408" stroke-width="10" stroke="black"/>
<line x1="1024" y1="1280" x2="896" y2="1152" stroke-width="10" stroke="black"/>
<line x1="1536" y1="-704" x2="1536" y2="-512" stroke-width="10" stroke="black"/>
<line x1="1376" y1="-512" x2="1344" y2="-512" stroke-width="10" stroke="black"/>
<line x1="1024" y1="-576" x2="1104" y2="-496" stroke-width="10" stroke="black"/>
<line x1="1344" y1="-512" x2="1344" y2="-704" stroke-width="10" stroke="black"/>
<line x1="1792" y1="-320" x2="1856" y2="-320" stroke-width="10" stroke="black"/>
<line x1="1376" y1="-480" x2="1504" y2="-480" stroke-width="10" stroke="black"/>
<line x1="1504" y1="-448" x2="1536" y2="-448" stroke-width="10" stroke="black"/>
<line x1="1216" y1="-384" x2="1280" y2="-128" stroke-width="10" stroke="black"/>
<line x1="1376" y1="-448" x2="1376" y2="-480" stroke-width="10" stroke="black"/>
<line x1="1504" y1="-496" x2="1376" y2="-496" stroke-width="10" stroke="black"/>
<line x1="1792" y1="256" x2="1760" y2="256" stroke-width="10" stroke="black"/>
<line x1="1632" y1="304" x2="1760" y2="304" stroke-width="10" stroke="black"/>
<line x1="1600" y1="320" x2="1632" y2="320" stroke-width="10" stroke="black"/>
<line x1="1760" y1="288" x2="1632" y2="288" stroke-width="10" stroke="black"/>
<line x1="1088" y1="256" x2="960" y2="448" stroke-width="10" stroke="black"/>
<line x1="960" y1="448" x2="768" y2="576" stroke-width="10" stroke="black"/>
<line x1="1216" y1="-128" x2="1088" y2="256" stroke-width="10" stroke="black"/>
<line x1="1216" y1="384" x2="1024" y2="576" stroke-width="10" stroke="black"/>
<line x1="1344" y1="128" x2="1344" y2="-128" stroke-width="10" stroke="black"/>
<line x1="1344" y1="256" x2="1344" y2="384" stroke-width="10" stroke="black"/>
<line x1="1472" y1="352" x2="1384" y2="256" stroke-width="10" stroke="black"/>
<line x1="1600" y1="256" x2="1344" y2="128" stroke-width="10" stroke="black"/>
<line x1="1344" y1="384" x2="1600" y2="384" stroke-width="10" stroke="black"/>
<line x1="1344" y1="128" x2="1280" y2="128" stroke-width="10" stroke="black"/>
<line x1="1280" y1="-128" x2="1280" y2="128" stroke-width="10" stroke="black"/>
<line x1="1600" y1="384" x2="1600" y2="320" stroke-width="10" stroke="black"/>
<line x1="1280" y1="-128" x2="1216" y2="-128" stroke-width="10" stroke="black"/>
<line x1="768" y1="780" x2="960" y2="704" stroke-width="10" stroke="black"/>
<line x1="320" y1="-128" x2="192" y2="-96" stroke-width="10" stroke="black"/>
<line x1="192" y1="-96" x2="160" y2="64" stroke-width="10" stroke="black"/>
<line x1="672" y1="64" x2="640" y2="-96" stroke-width="10" stroke="black"/>
<line x1="640" y1="-96" x2="512" y2="-128" stroke-width="10" stroke="black"/>
<line x1="448" y1="0" x2="384" y2="0" stroke-width="10" stroke="black"/>
<line x1="512" y1="-128" x2="320" y2="-128" stroke-width="10" stroke="black"/>
<line x1="448" y1="-48" x2="384" y2="-48" stroke-width="10" stroke="black"/>
<line x1="384" y1="-32" x2="384" y2="-48" stroke-width="10" stroke="black"/>
<line x1="512" y1="-32" x2="480" y2="-64" stroke-width="10" stroke="black"/>
<line x1="480" y1="-64" x2="448" y2="-64" stroke-width="10" stroke="black"/>
<line x1="384" y1="-32" x2="448" y2="-32" stroke-width="10" stroke="black"/>
<line x1="512" y1="64" x2="512" y2="-32" stroke-width="10" stroke="black"/>
<line x1="320" y1="-32" x2="320" y2="64" stroke-width="10" stroke="black"/>
<line x1="768" y1="576" x2="480" y2="640" stroke-width="10" stroke="black"/>
<line x1="480" y1="640" x2="416" y2="616" stroke-width="10" stroke="black"/>
<line x1="416" y1="616" x2="352" y2="640" stroke-width="10" stroke="black"/>
<line x1="512" y1="768" x2="480" y2="640" stroke-width="10" stroke="black"/>
<line x1="480" y1="832" x2="352" y2="832" stroke-width="10" stroke="black"/>
<line x1="512" y1="768" x2="480" y2="832" stroke-width="10" stroke="black"/>
<line x1="480" y1="832" x2="480" y2="896" stroke-width="10" stroke="black"/>
<line x1="768" y1="704" x2="512" y2="768" stroke-width="10" stroke="black"/>
<line x1="352" y1="640" x2="320" y2="768" stroke-width="10" stroke="black"/>
<line x1="352" y1="640" x2="64" y2="576" stroke-width="10" stroke="black"/>
<line x1="352" y1="832" x2="320" y2="768" stroke-width="10" stroke="black"/>
<line x1="320" y1="768" x2="64" y2="704" stroke-width="10" stroke="black"/>
<line x1="352" y1="896" x2="352" y2="832" stroke-width="10" stroke="black"/>
<line x1="448" y1="128" x2="512" y2="64" stroke-width="10" stroke="black"/>
<line x1="320" y1="64" x2="384" y2="128" stroke-width="10" stroke="black"/>
<line x1="160" y1="64" x2="224" y2="192" stroke-width="10" stroke="black"/>
<line x1="224" y1="192" x2="416" y2="224" stroke-width="10" stroke="black"/>
<line x1="608" y1="192" x2="672" y2="64" stroke-width="10" stroke="black"/>
<line x1="416" y1="224" x2="608" y2="192" stroke-width="10" stroke="black"/>
<line x1="448" y1="64" x2="384" y2="64" stroke-width="10" stroke="black"/>
<line x1="320" y1="1024" x2="256" y2="1024" stroke-width="10" stroke="black"/>
<line x1="512" y1="1088" x2="576" y2="1088" stroke-width="10" stroke="black"/>
<line x1="352" y1="1600" x2="480" y2="1600" stroke-width="10" stroke="black"/>
<line x1="480" y1="1536" x2="352" y2="1536" stroke-width="10" stroke="black"/>
<line x1="480" y1="1560" x2="352" y2="1560" stroke-width="10" stroke="black"/>
<line x1="352" y1="1576" x2="480" y2="1576" stroke-width="10" stroke="black"/>
<line x1="576" y1="1472" x2="480" y2="1472" stroke-width="10" stroke="black"/>
<line x1="704" y1="1312" x2="704" y2="1408" stroke-width="10" stroke="black"/>
<line x1="736" y1="1280" x2="704" y2="1312" stroke-width="10" stroke="black"/>
<line x1="704" y1="1408" x2="768" y2="1472" stroke-width="10" stroke="black"/>
<line x1="768" y1="1152" x2="640" y2="1152" stroke-width="10" stroke="black"/>
<line x1="640" y1="960" x2="752" y2="960" stroke-width="10" stroke="black"/>
<line x1="640" y1="928" x2="752" y2="928" stroke-width="10" stroke="black"/>
<line x1="640" y1="992" x2="752" y2="992" stroke-width="10" stroke="black"/>
<line x1="576" y1="896" x2="576" y2="1024" stroke-width="10" stroke="black"/>
<line x1="128" y1="1536" x2="128" y2="1408" stroke-width="10" stroke="black"/>
<line x1="192" y1="1536" x2="128" y2="1536" stroke-width="10" stroke="black"/>
<line x1="112" y1="1208" x2="128" y2="1192" stroke-width="10" stroke="black"/>
<line x1="88" y1="1208" x2="112" y2="1208" stroke-width="10" stroke="black"/>
<line x1="72" y1="1168" x2="72" y2="1192" stroke-width="10" stroke="black"/>
<line x1="88" y1="1152" x2="72" y2="1168" stroke-width="10" stroke="black"/>
<line x1="72" y1="1192" x2="88" y2="1208" stroke-width="10" stroke="black"/>
<line x1="112" y1="1152" x2="88" y2="1152" stroke-width="10" stroke="black"/>
<line x1="128" y1="1192" x2="128" y2="1168" stroke-width="10" stroke="black"/>
<line x1="128" y1="936" x2="128" y2="912" stroke-width="10" stroke="black"/>
<line x1="88" y1="952" x2="112" y2="952" stroke-width="10" stroke="black"/>
<line x1="72" y1="936" x2="88" y2="952" stroke-width="10" stroke="black"/>
<line x1="72" y1="912" x2="72" y2="936" stroke-width="10" stroke="black"/>
<line x1="88" y1="896" x2="72" y2="912" stroke-width="10" stroke="black"/>
<line x1="112" y1="952" x2="128" y2="936" stroke-width="10" stroke="black"/>
<line x1="128" y1="1408" x2="192" y2="1408" stroke-width="10" stroke="black"/>
<line x1="256" y1="1472" x2="256" y2="1088" stroke-width="10" stroke="black"/>
<line x1="480" y1="896" x2="352" y2="896" stroke-width="10" stroke="black"/>
<line x1="768" y1="1344" x2="768" y2="1312" stroke-width="10" stroke="black"/>
<line x1="768" y1="-1344" x2="704" y2="-1344" stroke-width="10" stroke="black"/>
<line x1="640" y1="-1376" x2="640" y2="-1280" stroke-width="10" stroke="black"/>
<line x1="640" y1="-1280" x2="704" y2="-1216" stroke-width="10" stroke="black"/>
<line x1="768" y1="-1280" x2="704" y2="-1280" stroke-width="10" stroke="black"/>
<line x1="768" y1="-1408" x2="704" y2="-1408" stroke-width="10" stroke="black"/>
<line x1="768" y1="-1392" x2="704" y2="-1392" stroke-width="10" stroke="black"/>
<line x1="704" y1="-1408" x2="672" y2="-1408" stroke-width="10" stroke="black"/>
<line x1="704" y1="-1376" x2="704" y2="-1392" stroke-width="10" stroke="black"/>
<line x1="704" y1="-1376" x2="768" y2="-1376" stroke-width="10" stroke="black"/>
<line x1="832" y1="-1376" x2="800" y2="-1408" stroke-width="10" stroke="black"/>
<line x1="768" y1="-1216" x2="832" y2="-1280" stroke-width="10" stroke="black"/>
<line x1="832" y1="-1280" x2="832" y2="-1376" stroke-width="10" stroke="black"/>
<line x1="960" y1="-1472" x2="960" y2="-1152" stroke-width="10" stroke="black"/>
<line x1="768" y1="-1408" x2="768" y2="-1392" stroke-width="10" stroke="black"/>
<line x1="512" y1="-832" x2="320" y2="-832" stroke-width="10" stroke="black"/>
<line x1="320" y1="-768" x2="512" y2="-768" stroke-width="10" stroke="black"/>
<line x1="192" y1="-832" x2="192" y2="-960" stroke-width="10" stroke="black"/>
<line x1="64" y1="-704" x2="320" y2="-768" stroke-width="10" stroke="black"/>
<line x1="320" y1="-768" x2="320" y2="-832" stroke-width="10" stroke="black"/>
<line x1="896" y1="-1088" x2="704" y2="-960" stroke-width="10" stroke="black"/>
<line x1="640" y1="-960" x2="640" y2="-832" stroke-width="10" stroke="black"/>
<line x1="704" y1="-832" x2="704" y2="-960" stroke-width="10" stroke="black"/>
<line x1="512" y1="-768" x2="768" y2="-704" stroke-width="10" stroke="black"/>
<line x1="512" y1="-832" x2="512" y2="-768" stroke-width="10" stroke="black"/>
<line x1="1088" y1="-832" x2="1024" y2="-832" stroke-width="10" stroke="black"/>
<line x1="1024" y1="-992" x2="1088" y2="-992" stroke-width="10" stroke="black"/>
<line x1="1024" y1="-1056" x2="1088" y2="-1056" stroke-width="10" stroke="black"/>
<line x1="1024" y1="-1024" x2="1088" y2="-1024" stroke-width="10" stroke="black"/>
<line x1="896" y1="-1088" x2="896" y2="-768" stroke-width="10" stroke="black"/>
<line x1="1088" y1="-1088" x2="1024" y2="-1088" stroke-width="10" stroke="black"/>
<line x1="192" y1="-1984" x2="192" y2="-2048" stroke-width="10" stroke="black"/>
<line x1="256" y1="-2112" x2="256" y2="-1984" stroke-width="10" stroke="black"/>
<line x1="128" y1="-1984" x2="192" y2="-1984" stroke-width="10" stroke="black"/>
<line x1="640" y1="-1920" x2="640" y2="-1984" stroke-width="10" stroke="black"/>
<line x1="384" y1="-1856" x2="448" y2="-1856" stroke-width="10" stroke="black"/>
<line x1="192" y1="-1920" x2="192" y2="-1856" stroke-width="10" stroke="black"/>
<line x1="192" y1="-1856" x2="320" y2="-1728" stroke-width="10" stroke="black"/>
<line x1="384" y1="-1728" x2="384" y2="-1856" stroke-width="10" stroke="black"/>
<line x1="576" y1="-1792" x2="576" y2="-1856" stroke-width="10" stroke="black"/>
<line x1="512" y1="-1792" x2="512" y2="-1664" stroke-width="10" stroke="black"/>
<line x1="320" y1="-1600" x2="704" y2="-1600" stroke-width="10" stroke="black"/>
<line x1="64" y1="-1856" x2="256" y2="-1472" stroke-width="10" stroke="black"/>
<line x1="256" y1="-1664" x2="128" y2="-1792" stroke-width="10" stroke="black"/>
<line x1="384" y1="-1920" x2="192" y2="-1920" stroke-width="10" stroke="black"/>
<line x1="832" y1="-1600" x2="896" y2="-1728" stroke-width="10" stroke="black"/>
<line x1="704" y1="-1600" x2="832" y2="-1472" stroke-width="10" stroke="black"/>
<line x1="832" y1="-1536" x2="832" y2="-1600" stroke-width="10" stroke="black"/>
<line x1="960" y1="-1600" x2="1088" y2="-1728" stroke-width="10" stroke="black"/>
<line x1="896" y1="-1600" x2="896" y2="-1536" stroke-width="10" stroke="black"/>
<line x1="768" y1="-1920" x2="832" y2="-1888" stroke-width="10" stroke="black"/>
<line x1="1088" y1="-1920" x2="1024" y2="-1920" stroke-width="10" stroke="black"/>
<line x1="832" y1="-1888" x2="832" y2="-1856" stroke-width="10" stroke="black"/>
<line x1="928" y1="-1984" x2="832" y2="-1888" stroke-width="10" stroke="black"/>
<line x1="832" y1="-2048" x2="768" y2="-2048" stroke-width="10" stroke="black"/>
<line x1="992" y1="-1984" x2="1088" y2="-1984" stroke-width="10" stroke="black"/>
<line x1="832" y1="-1856" x2="864" y2="-1856" stroke-width="10" stroke="black"/>
<line x1="704" y1="-2112" x2="704" y2="-1920" stroke-width="10" stroke="black"/>
<line x1="256" y1="-1472" x2="320" y2="-1472" stroke-width="10" stroke="black"/>
<line x1="1792" y1="-1216" x2="1856" y2="-1152" stroke-width="10" stroke="black"/>
<line x1="1984" y1="-1152" x2="1920" y2="-1152" stroke-width="10" stroke="black"/>
<line x1="1792" y1="-992" x2="1856" y2="-992" stroke-width="10" stroke="black"/>
<line x1="1792" y1="-1056" x2="1856" y2="-1056" stroke-width="10" stroke="black"/>
<line x1="1792" y1="-1024" x2="1856" y2="-1024" stroke-width="10" stroke="black"/>
<line x1="1784" y1="-992" x2="1792" y2="-992" stroke-width="10" stroke="black"/>
<line x1="1792" y1="-992" x2="1792" y2="-1024" stroke-width="10" stroke="black"/>
<line x1="1088" y1="-992" x2="1096" y2="-992" stroke-width="10" stroke="black"/>
<line x1="1408" y1="-1088" x2="1408" y2="-832" stroke-width="10" stroke="black"/>
<line x1="1472" y1="-832" x2="1472" y2="-1088" stroke-width="10" stroke="black"/>
<line x1="1472" y1="-832" x2="1856" y2="-832" stroke-width="10" stroke="black"/>
<line x1="1408" y1="-1088" x2="1096" y2="-1088" stroke-width="10" stroke="black"/>
<line x1="1280" y1="-1920" x2="1280" y2="-1984" stroke-width="10" stroke="black"/>
<line x1="1280" y1="-1984" x2="1280" y2="-2048" stroke-width="10" stroke="black"/>
<line x1="1216" y1="-1984" x2="1280" y2="-1984" stroke-width="10" stroke="black"/>
<line x1="1344" y1="-1664" x2="1152" y2="-1664" stroke-width="10" stroke="black"/>
<line x1="1216" y1="-1920" x2="1216" y2="-1792" stroke-width="10" stroke="black"/>
<line x1="1344" y1="-1792" x2="1280" y2="-1856" stroke-width="10" stroke="black"/>
<line x1="1216" y1="-1792" x2="1280" y2="-1728" stroke-width="10" stroke="black"/>
<line x1="1408" y1="-1792" x2="1344" y2="-1792" stroke-width="10" stroke="black"/>
<line x1="1344" y1="-1728" x2="1344" y2="-1664" stroke-width="10" stroke="black"/>
<line x1="1280" y1="-1920" x2="1216" y2="-1920" stroke-width="10" stroke="black"/>
<line x1="1152" y1="-1280" x2="1216" y2="-1280" stroke-width="10" stroke="black"/>
<line x1="1152" y1="-1344" x2="1152" y2="-1280" stroke-width="10" stroke="black"/>
<line x1="1216" y1="-1344" x2="1152" y2="-1344" stroke-width="10" stroke="black"/>
<line x1="1216" y1="-1408" x2="1344" y2="-1408" stroke-width="10" stroke="black"/>
<line x1="1088" y1="-1536" x2="1216" y2="-1408" stroke-width="10" stroke="black"/>
<line x1="1408" y1="-1344" x2="1472" y2="-1344" stroke-width="10" stroke="black"/>
<line x1="1472" y1="-1472" x2="1408" y2="-1472" stroke-width="10" stroke="black"/>
<line x1="1280" y1="-1472" x2="1408" y2="-1472" stroke-width="10" stroke="black"/>
<line x1="1408" y1="-1472" x2="1408" y2="-1600" stroke-width="10" stroke="black"/>
<line x1="1344" y1="-1408" x2="1408" y2="-1344" stroke-width="10" stroke="black"/>
<line x1="1472" y1="-1600" x2="1408" y2="-1600" stroke-width="10" stroke="black"/>
<line x1="1664" y1="-1344" x2="1664" y2="-1280" stroke-width="10" stroke="black"/>
<line x1="1664" y1="-1280" x2="1728" y2="-1280" stroke-width="10" stroke="black"/>
<line x1="1728" y1="-1344" x2="1664" y2="-1344" stroke-width="10" stroke="black"/>
<line x1="1536" y1="-1408" x2="1664" y2="-1408" stroke-width="10" stroke="black"/>
<line x1="1472" y1="-1472" x2="1600" y2="-1472" stroke-width="10" stroke="black"/>
<line x1="1472" y1="-1344" x2="1536" y2="-1408" stroke-width="10" stroke="black"/>
<line x1="1792" y1="-1600" x2="1728" y2="-1664" stroke-width="10" stroke="black"/>
<line x1="1472" y1="-1600" x2="1728" y2="-1600" stroke-width="10" stroke="black"/>
<line x1="1664" y1="-1408" x2="1792" y2="-1536" stroke-width="10" stroke="black"/>
<line x1="1984" y1="-1472" x2="1920" y2="-1472" stroke-width="10" stroke="black"/>
<line x1="1856" y1="-1216" x2="1856" y2="-1408" stroke-width="10" stroke="black"/>
<line x1="1920" y1="-1472" x2="1920" y2="-1728" stroke-width="10" stroke="black"/>
<line x1="1792" y1="-1536" x2="1792" y2="-1216" stroke-width="10" stroke="black"/>
<line x1="1600" y1="-2048" x2="1600" y2="-1984" stroke-width="10" stroke="black"/>
<line x1="1856" y1="-1984" x2="1792" y2="-1984" stroke-width="10" stroke="black"/>
<line x1="1856" y1="-1920" x2="1856" y2="-1984" stroke-width="10" stroke="black"/>
<line x1="1536" y1="-2112" x2="1600" y2="-2048" stroke-width="10" stroke="black"/>
<line x1="1600" y1="-1920" x2="1600" y2="-1856" stroke-width="10" stroke="black"/>
<line x1="1856" y1="-1792" x2="1792" y2="-1792" stroke-width="10" stroke="black"/>
<line x1="1920" y1="-1728" x2="1856" y2="-1792" stroke-width="10" stroke="black"/>
<line x1="1728" y1="-1920" x2="1728" y2="-1856" stroke-width="10" stroke="black"/>
<line x1="1664" y1="-1920" x2="1600" y2="-1920" stroke-width="10" stroke="black"/>
<line x1="1536" y1="-1728" x2="1664" y2="-1728" stroke-width="10" stroke="black"/>
<line x1="1472" y1="-1600" x2="1472" y2="-1472" stroke-width="10" stroke="black"/>
<line x1="1088" y1="-1216" x2="1792" y2="-1216" stroke-width="10" stroke="black"/>
<line x1="1088" y1="-1088" x2="1088" y2="-1056" stroke-width="10" stroke="black"/>
<line x1="1600" y1="-704" x2="1728" y2="-704" stroke-width="10" stroke="black"/>
<line x1="-1160" y1="576" x2="-1176" y2="576" stroke-width="10" stroke="black"/>
<line x1="-1080" y1="544" x2="-1160" y2="576" stroke-width="10" stroke="black"/>
<line x1="-1032" y1="472" x2="-1080" y2="544" stroke-width="10" stroke="black"/>
<line x1="-1192" y1="576" x2="-1208" y2="576" stroke-width="10" stroke="black"/>
<line x1="-1288" y1="544" x2="-1336" y2="472" stroke-width="10" stroke="black"/>
<line x1="-1192" y1="576" x2="-1176" y2="576" stroke-width="10" stroke="black"/>
<line x1="-1224" y1="472" x2="-1192" y2="576" stroke-width="10" stroke="black"/>
<line x1="-1176" y1="576" x2="-1144" y2="472" stroke-width="10" stroke="black"/>
<line x1="-1360" y1="856" x2="-1376" y2="832" stroke-width="10" stroke="black"/>
<line x1="-1024" y1="886" x2="-1376" y2="832" stroke-width="10" stroke="black"/>
<line x1="-1408" y1="832" x2="-1389" y2="896" stroke-width="10" stroke="black"/>
<line x1="-1336" y1="672" x2="-1440" y2="568" stroke-width="10" stroke="black"/>
<line x1="-1472" y1="472" x2="-1472" y2="576" stroke-width="10" stroke="black"/>
<line x1="-1472" y1="576" x2="-1440" y2="568" stroke-width="10" stroke="black"/>
<line x1="-1472" y1="576" x2="-1344" y2="704" stroke-width="10" stroke="black"/>
<line x1="-1024" y1="664" x2="-1032" y2="672" stroke-width="10" stroke="black"/>
<line x1="-1032" y1="672" x2="-1336" y2="672" stroke-width="10" stroke="black"/>
<line x1="-1024" y1="704" x2="-1032" y2="672" stroke-width="10" stroke="black"/>
<line x1="-1336" y1="672" x2="-1344" y2="704" stroke-width="10" stroke="black"/>
<line x1="-1728" y1="832" x2="-1408" y2="832" stroke-width="10" stroke="black"/>
<line x1="-1208" y1="576" x2="-1288" y2="544" stroke-width="10" stroke="black"/>
<line x1="-1032" y1="160" x2="-1024" y2="168" stroke-width="10" stroke="black"/>
<line x1="-1272" y1="256" x2="-1184" y2="248" stroke-width="10" stroke="black"/>
<line x1="-1024" y1="128" x2="-1187" y2="128" stroke-width="10" stroke="black"/>
<line x1="-1184" y1="248" x2="-1096" y2="256" stroke-width="10" stroke="black"/>
<line x1="-1344" y1="448" x2="-1344" y2="352" stroke-width="10" stroke="black"/>
<line x1="-1272" y1="256" x2="-1288" y2="272" stroke-width="10" stroke="black"/>
<line x1="-1288" y1="272" x2="-1256" y2="400" stroke-width="10" stroke="black"/>
<line x1="-1184" y1="352" x2="-1272" y2="256" stroke-width="10" stroke="black"/>
<line x1="-1440" y1="264" x2="-1336" y2="160" stroke-width="10" stroke="black"/>
<line x1="-1187" y1="128" x2="-1343" y2="128" stroke-width="10" stroke="black"/>
<line x1="-1472" y1="256" x2="-1472" y2="472" stroke-width="10" stroke="black"/>
<line x1="-1344" y1="128" x2="-1472" y2="256" stroke-width="10" stroke="black"/>
<line x1="-1344" y1="352" x2="-1288" y2="272" stroke-width="10" stroke="black"/>
<line x1="-1032" y1="160" x2="-1024" y2="128" stroke-width="10" stroke="black"/>
<line x1="-1344" y1="448" x2="-1336" y2="472" stroke-width="10" stroke="black"/>
<line x1="-1256" y1="400" x2="-1344" y2="448" stroke-width="10" stroke="black"/>
<line x1="-1112" y1="392" x2="-1080" y2="264" stroke-width="10" stroke="black"/>
<line x1="-1024" y1="448" x2="-1112" y2="392" stroke-width="10" stroke="black"/>
<line x1="-1080" y1="264" x2="-1096" y2="256" stroke-width="10" stroke="black"/>
<line x1="-1032" y1="472" x2="-1024" y2="448" stroke-width="10" stroke="black"/>
<line x1="-1080" y1="264" x2="-1024" y2="352" stroke-width="10" stroke="black"/>
<line x1="-1096" y1="256" x2="-1184" y2="352" stroke-width="10" stroke="black"/>
<line x1="-1024" y1="-128" x2="-1088" y2="-128" stroke-width="10" stroke="black"/>
<line x1="-1344" y1="-256" x2="-1472" y2="-384" stroke-width="10" stroke="black"/>
<line x1="-1280" y1="0" x2="-1280" y2="-128" stroke-width="10" stroke="black"/>
<line x1="-1280" y1="-576" x2="-1280" y2="-640" stroke-width="10" stroke="black"/>
<line x1="-1472" y1="-576" x2="-1280" y2="-576" stroke-width="10" stroke="black"/>
<line x1="-1408" y1="0" x2="-1280" y2="0" stroke-width="10" stroke="black"/>
<line x1="-1144" y1="472" x2="-1032" y2="472" stroke-width="10" stroke="black"/>
<line x1="-928" y1="568" x2="-1024" y2="664" stroke-width="10" stroke="black"/>
<line x1="-1024" y1="704" x2="-896" y2="576" stroke-width="10" stroke="black"/>
<line x1="-1024" y1="168" x2="-928" y2="264" stroke-width="10" stroke="black"/>
<line x1="-896" y1="256" x2="-1024" y2="128" stroke-width="10" stroke="black"/>
<line x1="-928" y1="264" x2="-928" y2="568" stroke-width="10" stroke="black"/>
<line x1="-896" y1="256" x2="-928" y2="264" stroke-width="10" stroke="black"/>
<line x1="-928" y1="568" x2="-896" y2="576" stroke-width="10" stroke="black"/>
<line x1="-960" y1="896" x2="-1024" y2="887" stroke-width="10" stroke="black"/>
<line x1="-704" y1="256" x2="-704" y2="640" stroke-width="10" stroke="black"/>
<line x1="-704" y1="128" x2="-768" y2="128" stroke-width="10" stroke="black"/>
<line x1="-960" y1="0" x2="-704" y2="256" stroke-width="10" stroke="black"/>
<line x1="-416" y1="512" x2="-368" y2="768" stroke-width="10" stroke="black"/>
<line x1="-304" y1="768" x2="-320" y2="512" stroke-width="10" stroke="black"/>
<line x1="-368" y1="768" x2="-336" y2="896" stroke-width="10" stroke="black"/>
<line x1="-680" y1="664" x2="-544" y2="664" stroke-width="10" stroke="black"/>
<line x1="-512" y1="640" x2="-544" y2="640" stroke-width="10" stroke="black"/>
<line x1="-512" y1="896" x2="-512" y2="640" stroke-width="10" stroke="black"/>
<line x1="-704" y1="640" x2="-960" y2="896" stroke-width="10" stroke="black"/>
<line x1="-128" y1="448" x2="-256" y2="256" stroke-width="10" stroke="black"/>
<line x1="64" y1="576" x2="-128" y2="448" stroke-width="10" stroke="black"/>
<line x1="-256" y1="256" x2="-384" y2="-128" stroke-width="10" stroke="black"/>
<line x1="64" y1="704" x2="-192" y2="576" stroke-width="10" stroke="black"/>
<line x1="-448" y1="128" x2="-448" y2="-128" stroke-width="10" stroke="black"/>
<line x1="-640" y1="-128" x2="-448" y2="-128" stroke-width="10" stroke="black"/>
<line x1="-768" y1="-640" x2="-832" y2="-704" stroke-width="10" stroke="black"/>
<line x1="-512" y1="-448" x2="-1024" y2="-448" stroke-width="10" stroke="black"/>
<line x1="-1024" y1="-576" x2="-704" y2="-576" stroke-width="10" stroke="black"/>
<line x1="-704" y1="-640" x2="-768" y2="-640" stroke-width="10" stroke="black"/>
<line x1="-384" y1="-384" x2="-192" y2="-576" stroke-width="10" stroke="black"/>
<line x1="-576" y1="256" x2="-448" y2="384" stroke-width="10" stroke="black"/>
<line x1="-1024" y1="-640" x2="-1024" y2="-576" stroke-width="10" stroke="black"/>
<line x1="-64" y1="1408" x2="64" y2="1408" stroke-width="10" stroke="black"/>
<line x1="-64" y1="1600" x2="64" y2="1600" stroke-width="10" stroke="black"/>
<line x1="64" y1="1536" x2="-64" y2="1536" stroke-width="10" stroke="black"/>
<line x1="-320" y1="1664" x2="-384" y2="1600" stroke-width="10" stroke="black"/>
<line x1="-384" y1="1600" x2="-512" y2="1600" stroke-width="10" stroke="black"/>
<line x1="-512" y1="1600" x2="-576" y2="1600" stroke-width="10" stroke="black"/>
<line x1="-256" y1="1344" x2="-256" y2="1216" stroke-width="10" stroke="black"/>
<line x1="-512" y1="1472" x2="-384" y2="1472" stroke-width="10" stroke="black"/>
<line x1="-384" y1="1472" x2="-256" y2="1344" stroke-width="10" stroke="black"/>
<line x1="-64" y1="1664" x2="-64" y2="1600" stroke-width="10" stroke="black"/>
<line x1="-704" y1="1664" x2="-768" y2="1664" stroke-width="10" stroke="black"/>
<line x1="-976" y1="1456" x2="-960" y2="1440" stroke-width="10" stroke="black"/>
<line x1="-1000" y1="1456" x2="-976" y2="1456" stroke-width="10" stroke="black"/>
<line x1="-1016" y1="1440" x2="-1000" y2="1456" stroke-width="10" stroke="black"/>
<line x1="-1000" y1="1400" x2="-1016" y2="1416" stroke-width="10" stroke="black"/>
<line x1="-976" y1="1400" x2="-1000" y2="1400" stroke-width="10" stroke="black"/>
<line x1="-960" y1="1416" x2="-976" y2="1400" stroke-width="10" stroke="black"/>
<line x1="-1016" y1="1416" x2="-1016" y2="1440" stroke-width="10" stroke="black"/>
<line x1="-1152" y1="1264" x2="-1024" y2="1472" stroke-width="10" stroke="black"/>
<line x1="-704" y1="1472" x2="-576" y2="1472" stroke-width="10" stroke="black"/>
<line x1="-1152" y1="1264" x2="-1152" y2="1216" stroke-width="10" stroke="black"/>
<line x1="-1280" y1="1264" x2="-1152" y2="1264" stroke-width="10" stroke="black"/>
<line x1="-576" y1="1408" x2="-640" y2="1344" stroke-width="10" stroke="black"/>
<line x1="-1024" y1="1472" x2="-704" y2="1600" stroke-width="10" stroke="black"/>
<line x1="-576" y1="1472" x2="-576" y2="1408" stroke-width="10" stroke="black"/>
<line x1="-384" y1="1088" x2="-384" y2="1152" stroke-width="10" stroke="black"/>
<line x1="-448" y1="1152" x2="-448" y2="1088" stroke-width="10" stroke="black"/>
<line x1="-384" y1="1152" x2="-448" y2="1152" stroke-width="10" stroke="black"/>
<line x1="-448" y1="1088" x2="-384" y2="1088" stroke-width="10" stroke="black"/>
<line x1="-256" y1="1024" x2="-256" y2="896" stroke-width="10" stroke="black"/>
<line x1="-704" y1="1088" x2="-640" y2="1200" stroke-width="10" stroke="black"/>
<line x1="-704" y1="1088" x2="-512" y2="896" stroke-width="10" stroke="black"/>
<line x1="-960" y1="1056" x2="-960" y2="1088" stroke-width="10" stroke="black"/>
<line x1="-936" y1="1056" x2="-936" y2="920" stroke-width="10" stroke="black"/>
<line x1="-960" y1="1088" x2="-704" y2="1088" stroke-width="10" stroke="black"/>
<line x1="-640" y1="1200" x2="-896" y2="1200" stroke-width="10" stroke="black"/>
<line x1="-496" y1="1088" x2="-432" y2="1024" stroke-width="10" stroke="black"/>
<line x1="-1600" y1="1088" x2="-1536" y2="1088" stroke-width="10" stroke="black"/>
<line x1="-1536" y1="960" x2="-1600" y2="960" stroke-width="10" stroke="black"/>
<line x1="-1536" y1="912" x2="-1600" y2="912" stroke-width="10" stroke="black"/>
<line x1="-1600" y1="928" x2="-1536" y2="928" stroke-width="10" stroke="black"/>
<line x1="-1664" y1="1024" x2="-1600" y2="1088" stroke-width="10" stroke="black"/>
<line x1="-1664" y1="928" x2="-1664" y2="1024" stroke-width="10" stroke="black"/>
<line x1="-1600" y1="1024" x2="-1600" y2="960" stroke-width="10" stroke="black"/>
<line x1="-1536" y1="1088" x2="-1472" y2="1024" stroke-width="10" stroke="black"/>
<line x1="-1472" y1="1024" x2="-1472" y2="928" stroke-width="10" stroke="black"/>
<line x1="-1536" y1="896" x2="-1536" y2="912" stroke-width="10" stroke="black"/>
<line x1="-1216" y1="1200" x2="-1280" y2="1088" stroke-width="10" stroke="black"/>
<line x1="-576" y1="1216" x2="-512" y2="1216" stroke-width="10" stroke="black"/>
<line x1="-1504" y1="896" x2="-1536" y2="896" stroke-width="10" stroke="black"/>
<line x1="-298" y1="-1728" x2="-256" y2="-1856" stroke-width="10" stroke="black"/>
<line x1="-192" y1="-2048" x2="-192" y2="-2112" stroke-width="10" stroke="black"/>
<line x1="-256" y1="-2112" x2="-256" y2="-2048" stroke-width="10" stroke="black"/>
<line x1="-384" y1="-2048" x2="-384" y2="-1984" stroke-width="10" stroke="black"/>
<line x1="-192" y1="-1984" x2="0" y2="-1984" stroke-width="10" stroke="black"/>
<line x1="-256" y1="-1920" x2="-320" y2="-1856" stroke-width="10" stroke="black"/>
<line x1="0" y1="-2048" x2="-192" y2="-2048" stroke-width="10" stroke="black"/>
<line x1="-256" y1="-1856" x2="64" y2="-1856" stroke-width="10" stroke="black"/>
<line x1="-896" y1="-1920" x2="-576" y2="-1728" stroke-width="10" stroke="black"/>
<line x1="-512" y1="-1984" x2="-512" y2="-1856" stroke-width="10" stroke="black"/>
<line x1="-576" y1="-1984" x2="-512" y2="-1984" stroke-width="10" stroke="black"/>
<line x1="-576" y1="-2048" x2="-576" y2="-1984" stroke-width="10" stroke="black"/>
<line x1="-448" y1="-1856" x2="-448" y2="-2112" stroke-width="10" stroke="black"/>
<line x1="-664" y1="-1536" x2="-832" y2="-1472" stroke-width="10" stroke="black"/>
<line x1="-576" y1="-1600" x2="-664" y2="-1536" stroke-width="10" stroke="black"/>
<line x1="-576" y1="-1408" x2="-448" y2="-1408" stroke-width="10" stroke="black"/>
<line x1="-664" y1="-1536" x2="-576" y2="-1408" stroke-width="10" stroke="black"/>
<line x1="-832" y1="-1472" x2="-896" y2="-1344" stroke-width="10" stroke="black"/>
<line x1="-896" y1="-1344" x2="-832" y2="-1280" stroke-width="10" stroke="black"/>
<line x1="-640" y1="-1280" x2="-832" y2="-1472" stroke-width="10" stroke="black"/>
<line x1="-384" y1="-1664" x2="-448" y2="-1664" stroke-width="10" stroke="black"/>
<line x1="-448" y1="-1640" x2="-384" y2="-1640" stroke-width="10" stroke="black"/>
<line x1="-384" y1="-1648" x2="-448" y2="-1648" stroke-width="10" stroke="black"/>
<line x1="-576" y1="-1728" x2="-576" y2="-1600" stroke-width="10" stroke="black"/>
<line x1="-448" y1="-1640" x2="-448" y2="-1648" stroke-width="10" stroke="black"/>
<line x1="-576" y1="-1600" x2="-448" y2="-1536" stroke-width="10" stroke="black"/>
<line x1="-128" y1="-1536" x2="-64" y2="-1536" stroke-width="10" stroke="black"/>
<line x1="-64" y1="-1664" x2="-128" y2="-1664" stroke-width="10" stroke="black"/>
<line x1="-64" y1="-1536" x2="0" y2="-1600" stroke-width="10" stroke="black"/>
<line x1="-64" y1="-1696" x2="-64" y2="-1664" stroke-width="10" stroke="black"/>
<line x1="-64" y1="-1712" x2="-128" y2="-1712" stroke-width="10" stroke="black"/>
<line x1="0" y1="-1696" x2="-32" y2="-1728" stroke-width="10" stroke="black"/>
<line x1="-128" y1="-1696" x2="-64" y2="-1696" stroke-width="10" stroke="black"/>
<line x1="-320" y1="-1280" x2="-320" y2="-1664" stroke-width="10" stroke="black"/>
<line x1="-192" y1="-1600" x2="-128" y2="-1536" stroke-width="10" stroke="black"/>
<line x1="-192" y1="-1696" x2="-192" y2="-1600" stroke-width="10" stroke="black"/>
<line x1="-128" y1="-1600" x2="-128" y2="-1664" stroke-width="10" stroke="black"/>
<line x1="-384" y1="-1648" x2="-384" y2="-1640" stroke-width="10" stroke="black"/>
<line x1="-32" y1="-1728" x2="-64" y2="-1728" stroke-width="10" stroke="black"/>
<line x1="-1344" y1="-1344" x2="-1536" y2="-1536" stroke-width="10" stroke="black"/>
<line x1="-1536" y1="-1344" x2="-1600" y2="-1344" stroke-width="10" stroke="black"/>
<line x1="-1536" y1="-1280" x2="-1536" y2="-1344" stroke-width="10" stroke="black"/>
<line x1="-896" y1="-1344" x2="-960" y2="-1280" stroke-width="10" stroke="black"/>
<line x1="-1056" y1="-1280" x2="-1072" y2="-1536" stroke-width="10" stroke="black"/>
<line x1="-1168" y1="-1536" x2="-1184" y2="-1280" stroke-width="10" stroke="black"/>
<line x1="-1056" y1="-1664" x2="-1056" y2="-1600" stroke-width="10" stroke="black"/>
<line x1="-1088" y1="-1576" x2="-1152" y2="-1576" stroke-width="10" stroke="black"/>
<line x1="-1152" y1="-1560" x2="-1088" y2="-1560" stroke-width="10" stroke="black"/>
<line x1="-1088" y1="-1600" x2="-1088" y2="-1576" stroke-width="10" stroke="black"/>
<line x1="-1056" y1="-1600" x2="-1088" y2="-1600" stroke-width="10" stroke="black"/>
<line x1="-1216" y1="-1600" x2="-1168" y2="-1536" stroke-width="10" stroke="black"/>
<line x1="-1216" y1="-1664" x2="-1216" y2="-1600" stroke-width="10" stroke="black"/>
<line x1="-1152" y1="-1536" x2="-1152" y2="-1560" stroke-width="10" stroke="black"/>
<line x1="-1088" y1="-1728" x2="-1088" y2="-1664" stroke-width="10" stroke="black"/>
<line x1="-1184" y1="-1984" x2="-1184" y2="-1728" stroke-width="10" stroke="black"/>
<line x1="-1184" y1="-1664" x2="-1152" y2="-1664" stroke-width="10" stroke="black"/>
<line x1="-1168" y1="-1536" x2="-1152" y2="-1536" stroke-width="10" stroke="black"/>
<line x1="-896" y1="-1280" x2="-896" y2="-1344" stroke-width="10" stroke="black"/>
<line x1="-1408" y1="-1016" x2="-1408" y2="-1216" stroke-width="10" stroke="black"/>
<line x1="-1296" y1="-960" x2="-1344" y2="-832" stroke-width="10" stroke="black"/>
<line x1="-1472" y1="-928" x2="-1408" y2="-1016" stroke-width="10" stroke="black"/>
<line x1="-1296" y1="-960" x2="-1408" y2="-1016" stroke-width="10" stroke="black"/>
<line x1="-1296" y1="-1216" x2="-1296" y2="-960" stroke-width="10" stroke="black"/>
<line x1="-1544" y1="-1216" x2="-1544" y2="-1152" stroke-width="10" stroke="black"/>
<line x1="-1520" y1="-1056" x2="-1520" y2="-1152" stroke-width="10" stroke="black"/>
<line x1="-1528" y1="-1152" x2="-1528" y2="-1056" stroke-width="10" stroke="black"/>
<line x1="-1600" y1="-1024" x2="-1488" y2="-1024" stroke-width="10" stroke="black"/>
<line x1="-1488" y1="-1024" x2="-1488" y2="-1056" stroke-width="10" stroke="black"/>
<line x1="-1344" y1="-832" x2="-1472" y2="-768" stroke-width="10" stroke="black"/>
<line x1="-1600" y1="-960" x2="-1472" y2="-928" stroke-width="10" stroke="black"/>
<line x1="-1472" y1="-768" x2="-1600" y2="-768" stroke-width="10" stroke="black"/>
<line x1="-1472" y1="-768" x2="-1536" y2="-704" stroke-width="10" stroke="black"/>
<line x1="-1472" y1="-768" x2="-1568" y2="-736" stroke-width="10" stroke="black"/>
<line x1="-1344" y1="-832" x2="-1472" y2="-928" stroke-width="10" stroke="black"/>
<line x1="-1024" y1="-768" x2="-1088" y2="-768" stroke-width="10" stroke="black"/>
<line x1="-1056" y1="-944" x2="-1184" y2="-944" stroke-width="10" stroke="black"/>
<line x1="-1184" y1="-928" x2="-1056" y2="-928" stroke-width="10" stroke="black"/>
<line x1="-1216" y1="-896" x2="-1184" y2="-896" stroke-width="10" stroke="black"/>
<line x1="-1216" y1="-992" x2="-1216" y2="-1184" stroke-width="10" stroke="black"/>
<line x1="-1216" y1="-992" x2="-1232" y2="-992" stroke-width="10" stroke="black"/>
<line x1="-1216" y1="-1216" x2="-1184" y2="-1216" stroke-width="10" stroke="black"/>
<line x1="-1232" y1="-1184" x2="-1216" y2="-1184" stroke-width="10" stroke="black"/>
<line x1="-1184" y1="-960" x2="-1056" y2="-960" stroke-width="10" stroke="black"/>
<line x1="-1232" y1="-1216" x2="-1232" y2="-1184" stroke-width="10" stroke="black"/>
<line x1="-512" y1="-1216" x2="-512" y2="-1152" stroke-width="10" stroke="black"/>
<line x1="-448" y1="-1216" x2="-512" y2="-1216" stroke-width="10" stroke="black"/>
<line x1="-320" y1="-1152" x2="-320" y2="-1280" stroke-width="10" stroke="black"/>
<line x1="-384" y1="-1088" x2="-320" y2="-1024" stroke-width="10" stroke="black"/>
<line x1="-512" y1="-832" x2="-448" y2="-832" stroke-width="10" stroke="black"/>
<line x1="-448" y1="-896" x2="-512" y2="-896" stroke-width="10" stroke="black"/>
<line x1="-448" y1="-960" x2="-512" y2="-960" stroke-width="10" stroke="black"/>
<line x1="-448" y1="-1008" x2="-512" y2="-1008" stroke-width="10" stroke="black"/>
<line x1="-384" y1="-992" x2="-416" y2="-1024" stroke-width="10" stroke="black"/>
<line x1="-512" y1="-992" x2="-448" y2="-992" stroke-width="10" stroke="black"/>
<line x1="-576" y1="-896" x2="-512" y2="-832" stroke-width="10" stroke="black"/>
<line x1="-576" y1="-992" x2="-576" y2="-896" stroke-width="10" stroke="black"/>
<line x1="-512" y1="-896" x2="-512" y2="-960" stroke-width="10" stroke="black"/>
<line x1="-416" y1="-1024" x2="-448" y2="-1024" stroke-width="10" stroke="black"/>
<line x1="-384" y1="-896" x2="-384" y2="-992" stroke-width="10" stroke="black"/>
<line x1="-512" y1="-1152" x2="-768" y2="-1152" stroke-width="10" stroke="black"/>
<line x1="-832" y1="-1088" x2="-864" y2="-1024" stroke-width="10" stroke="black"/>
<line x1="-960" y1="-704" x2="-960" y2="-960" stroke-width="10" stroke="black"/>
<line x1="-1008" y1="-960" x2="-1008" y2="-992" stroke-width="10" stroke="black"/>
<line x1="-832" y1="-704" x2="-832" y2="-1024" stroke-width="10" stroke="black"/>
<line x1="-1024" y1="-896" x2="-1024" y2="-768" stroke-width="10" stroke="black"/>
<line x1="-896" y1="-1280" x2="-960" y2="-1280" stroke-width="10" stroke="black"/>
<line x1="-960" y1="-704" x2="-896" y2="-704" stroke-width="10" stroke="black"/>
<line x1="64" y1="1536" x2="64" y2="1408" stroke-width="10" stroke="black"/>

</svg>

