<svg width="900" height="967" preserveAspectRatio="none" viewBox="-1858 -2562 3972 4252"
 xmlns="http://www.w3.org/2000/svg" xmlns:xlink="http://www.w3.org/1999/xlink">
   <defs>
    <marker id="arrow" markerWidth="10" markerHeight="10" refX="0" refY="2" orient="auto" markerUnits="strokeWidth">
      <path d="M0,0 L0,4 L5,3 z" fill="#f00" />
    </marker>
  </defs>

<polygon points="-1600,-2304 -1600,-2304 -512,-2112 -512,-2112 -512,-1280 -512,-1280 -1408,-1280 -1408,-1280 " fill="rgb(228,11,11)" stroke="rgb(70,70,70)" stroke-width="10" stroke-linecap="round" />
<polygon points="-512,-2112 -1600,-2304 -1600,-2304 -1621,-2416 -512,-2258 " fill="rgb(22,239,22)" stroke="rgb(70,70,70)" stroke-width="10" stroke-linecap="round" />
<polygon points="-1408,-1280 -1555,-1280 -1728,-2432 -1728,-2432 -1728,-2432 -1621,-2416 -1408,-1280 " fill="rgb(232,15,232)" stroke="rgb(70,70,70)" stroke-width="10" stroke-linecap="round" />
<polygon points="0,-1280 -512,-1280 -512,-1792 0,-1280 0,-1280 0,-1280 0,-1280 " fill="rgb(232,15,232)" stroke="rgb(70,70,70)" stroke-width="10" stroke-linecap="round" />
<polygon points="1664,-1280 1664,-1280 832,-1280 832,-1280 832,-2112 832,-2112 1856,-2304 1856,-2304 " fill="rgb(228,11,11)" stroke="rgb(70,70,70)" stroke-width="10" stroke-linecap="round" />
<polygon points="1811,-1280 1664,-1280 1856,-2304 1856,-2304 1968,-2325 " fill="rgb(22,239,22)" stroke="rgb(70,70,70)" stroke-width="10" stroke-linecap="round" />
<polygon points="1984,-2432 1984,-2432 1968,-2325 832,-2112 832,-2112 832,-2259 1984,-2432 " fill="rgb(22,239,22)" stroke="rgb(70,70,70)" stroke-width="10" stroke-linecap="round" />
<polygon points="320,-1280 384,-1344 384,-1344 832,-1344 832,-1280 " fill="rgb(232,15,232)" stroke="rgb(70,70,70)" stroke-width="10" stroke-linecap="round" />
<polygon points="-64,-1344 384,-1344 384,-1344 320,-1280 320,-1280 0,-1280 0,-1280 -64,-1344 " fill="rgb(251,251,34)" stroke="rgb(70,70,70)" stroke-width="10" stroke-linecap="round" />
<polygon points="384,-1344 448,-1408 448,-1408 832,-1408 832,-1344 " fill="rgb(251,251,34)" stroke="rgb(70,70,70)" stroke-width="10" stroke-linecap="round" />
<polygon points="448,-1408 448,-1408 384,-1344 384,-1344 -64,-1344 -64,-1344 -128,-1408 -128,-1408 " fill="rgb(228,11,11)" stroke="rgb(70,70,70)" stroke-width="10" stroke-linecap="round" />
<polygon points="512,-1472 832,-1472 832,-1408 448,-1408 512,-1472 " fill="rgb(22,239,22)" stroke="rgb(70,70,70)" stroke-width="10" stroke-linecap="round" />
<polygon points="448,-1408 -128,-1408 -128,-1408 -192,-1472 -192,-1472 512,-1472 512,-1472 448,-1408 " fill="rgb(26,243,243)" stroke="rgb(70,70,70)" stroke-width="10" stroke-linecap="round" />
<polygon points="832,-1792 832,-1472 512,-1472 832,-1792 " fill="rgb(228,11,11)" stroke="rgb(70,70,70)" stroke-width="10" stroke-linecap="round" />
<polygon points="704,-1664 704,-2240 704,-2240 832,-2259 832,-1792 832,-1792 704,-1664 " fill="rgb(3,3,220)" stroke="rgb(70,70,70)" stroke-width="10" stroke-linecap="round" />
<polygon points="-512,-1792 -512,-2258 -512,-2258 -384,-2240 -384,-1664 -384,-1664 -512,-1792 " fill="rgb(228,11,11)" stroke="rgb(70,70,70)" stroke-width="10" stroke-linecap="round" />
<polygon points="512,-1472 512,-1472 320,-1472 320,-1472 704,-1856 704,-1856 704,-1664 " fill="rgb(251,251,34)" stroke="rgb(70,70,70)" stroke-width="10" stroke-linecap="round" />
<polygon points="-192,-1472 -192,-1472 -320,-1600 -320,-1600 448,-1600 448,-1600 320,-1472 " fill="rgb(3,3,220)" stroke="rgb(70,70,70)" stroke-width="10" stroke-linecap="round" />
<polygon points="-320,-1600 -384,-1664 -384,-1664 -384,-1856 -128,-1600 " fill="rgb(251,251,34)" stroke="rgb(70,70,70)" stroke-width="10" stroke-linecap="round" />
<polygon points="-32,0 -32,0 -1024,0 -32,-992 -32,-992 " fill="rgb(228,11,11)" stroke="rgb(70,70,70)" stroke-width="10" stroke-linecap="round" />
<polygon points="-704,-1280 -704,-1280 -32,-1280 -32,-992 -704,-320 " fill="rgb(251,251,34)" stroke="rgb(70,70,70)" stroke-width="10" stroke-linecap="round" />
<polygon points="-1024,-1280 -704,-1280 -704,-960 -1024,-1280 " fill="rgb(22,239,22)" stroke="rgb(70,70,70)" stroke-width="10" stroke-linecap="round" />
<polygon points="-896,-1152 -1536,-1152 -1536,-1152 -1555,-1280 -1024,-1280 -1024,-1280 -896,-1152 " fill="rgb(3,3,220)" stroke="rgb(70,70,70)" stroke-width="10" stroke-linecap="round" />
<polygon points="-1024,0 -1555,0 -1555,0 -1536,-128 -896,-128 -896,-128 -1024,0 " fill="rgb(26,243,243)" stroke="rgb(70,70,70)" stroke-width="10" stroke-linecap="round" />
<polygon points="-704,-960 -704,-960 -704,-768 -704,-768 -1088,-1152 -1088,-1152 -896,-1152 " fill="rgb(228,11,11)" stroke="rgb(70,70,70)" stroke-width="10" stroke-linecap="round" />
<polygon points="-704,-320 -704,-320 -832,-192 -832,-192 -832,-896 -832,-896 -704,-768 " fill="rgb(22,239,22)" stroke="rgb(70,70,70)" stroke-width="10" stroke-linecap="round" />
<polygon points="-832,-192 -896,-128 -896,-128 -1088,-128 -832,-384 " fill="rgb(22,239,22)" stroke="rgb(70,70,70)" stroke-width="10" stroke-linecap="round" />
<polygon points="352,-288 352,-1280 352,-1280 1344,-1280 352,-288 " fill="rgb(3,3,220)" stroke="rgb(70,70,70)" stroke-width="10" stroke-linecap="round" />
<polygon points="1024,0 352,0 352,-288 1024,-960 1024,0 " fill="rgb(228,11,11)" stroke="rgb(70,70,70)" stroke-width="10" stroke-linecap="round" />
<polygon points="1344,0 1024,0 1024,-320 1344,0 " fill="rgb(26,243,243)" stroke="rgb(70,70,70)" stroke-width="10" stroke-linecap="round" />
<polygon points="1811,0 1344,0 1344,0 1216,-128 1216,-128 1792,-128 1792,-128 " fill="rgb(228,11,11)" stroke="rgb(70,70,70)" stroke-width="10" stroke-linecap="round" />
<polygon points="1811,-1280 1792,-1152 1216,-1152 1216,-1152 1344,-1280 1344,-1280 1811,-1280 " fill="rgb(3,3,220)" stroke="rgb(70,70,70)" stroke-width="10" stroke-linecap="round" />
<polygon points="1216,-128 1024,-320 1024,-320 1024,-512 1024,-512 1408,-128 1408,-128 " fill="rgb(232,15,232)" stroke="rgb(70,70,70)" stroke-width="10" stroke-linecap="round" />
<polygon points="1152,-384 1152,-384 1024,-512 1024,-960 1024,-960 1152,-1088 1152,-1088 " fill="rgb(3,3,220)" stroke="rgb(70,70,70)" stroke-width="10" stroke-linecap="round" />
<polygon points="1216,-1152 1408,-1152 1152,-896 1152,-1088 1216,-1152 " fill="rgb(232,15,232)" stroke="rgb(70,70,70)" stroke-width="10" stroke-linecap="round" />
<polygon points="-32,0 -32,-560 -32,-560 279,0 " fill="rgb(251,251,34)" stroke="rgb(70,70,70)" stroke-width="10" stroke-linecap="round" />
<polygon points="352,-296 352,0 279,0 7,-488 " fill="rgb(22,239,22)" stroke="rgb(70,70,70)" stroke-width="10" stroke-linecap="round" />
<polygon points="352,-448 352,-296 78,-448 352,-448 " fill="rgb(251,251,34)" stroke="rgb(70,70,70)" stroke-width="10" stroke-linecap="round" />
<polygon points="0,-576 0,-704 0,-704 224,-704 224,-480 96,-480 96,-480 32,-512 " fill="rgb(3,3,220)" stroke="rgb(70,70,70)" stroke-width="10" stroke-linecap="round" />
<polygon points="96,-464 224,-464 224,-464 224,-448 80,-448 " fill="rgb(251,251,34)" stroke="rgb(70,70,70)" stroke-width="10" stroke-linecap="round" />
<polygon points="224,-480 224,-464 224,-464 96,-464 96,-480 224,-480 " fill="rgb(22,239,22)" stroke="rgb(70,70,70)" stroke-width="10" stroke-linecap="round" />
<polygon points="224,-448 224,-464 240,-448 240,-448 224,-448 " fill="rgb(26,243,243)" stroke="rgb(70,70,70)" stroke-width="10" stroke-linecap="round" />
<polygon points="352,-448 240,-448 240,-448 240,-448 352,-510 " fill="rgb(228,11,11)" stroke="rgb(70,70,70)" stroke-width="10" stroke-linecap="round" />
<polygon points="352,-560 352,-560 352,-510 311,-487 " fill="rgb(26,243,243)" stroke="rgb(70,70,70)" stroke-width="10" stroke-linecap="round" />
<polygon points="352,-560 352,-560 336,-576 336,-704 336,-704 352,-704 352,-560 " fill="rgb(228,11,11)" stroke="rgb(70,70,70)" stroke-width="10" stroke-linecap="round" />
<polygon points="224,-704 320,-704 320,-576 288,-512 224,-480 " fill="rgb(228,11,11)" stroke="rgb(70,70,70)" stroke-width="10" stroke-linecap="round" />
<polygon points="320,-576 320,-704 320,-704 336,-704 336,-704 336,-576 " fill="rgb(26,243,243)" stroke="rgb(70,70,70)" stroke-width="10" stroke-linecap="round" />
<polygon points="-32,-704 -16,-704 -16,-576 -32,-560 -32,-560 -32,-704 " fill="rgb(26,243,243)" stroke="rgb(70,70,70)" stroke-width="10" stroke-linecap="round" />
<polygon points="0,-704 0,-576 0,-576 -16,-576 -16,-704 -16,-704 0,-704 " fill="rgb(232,15,232)" stroke="rgb(70,70,70)" stroke-width="10" stroke-linecap="round" />
<polygon points="-32,-1280 352,-1280 352,-1280 352,-769 -32,-983 " fill="rgb(26,243,243)" stroke="rgb(70,70,70)" stroke-width="10" stroke-linecap="round" />
<polygon points="-32,-720 -32,-720 -16,-704 -16,-704 -32,-704 " fill="rgb(22,239,22)" stroke="rgb(70,70,70)" stroke-width="10" stroke-linecap="round" />
<polygon points="-32,-832 -32,-983 237,-832 -32,-832 " fill="rgb(232,15,232)" stroke="rgb(70,70,70)" stroke-width="10" stroke-linecap="round" />
<polygon points="-32,-769 -32,-832 80,-832 80,-832 " fill="rgb(3,3,220)" stroke="rgb(70,70,70)" stroke-width="10" stroke-linecap="round" />
<polygon points="-32,-720 -32,-769 7,-791 -32,-720 -32,-720 " fill="rgb(251,251,34)" stroke="rgb(70,70,70)" stroke-width="10" stroke-linecap="round" />
<polygon points="320,-704 320,-704 0,-704 32,-768 96,-800 224,-800 224,-800 287,-768 " fill="rgb(22,239,22)" stroke="rgb(70,70,70)" stroke-width="10" stroke-linecap="round" />
<polygon points="238,-830 224,-816 96,-816 80,-832 80,-832 237,-832 237,-832 " fill="rgb(26,243,243)" stroke="rgb(70,70,70)" stroke-width="10" stroke-linecap="round" />
<polygon points="96,-800 96,-800 96,-816 224,-816 224,-800 " fill="rgb(26,243,243)" stroke="rgb(70,70,70)" stroke-width="10" stroke-linecap="round" />
<polygon points="313,-789 352,-769 352,-720 352,-720 " fill="rgb(26,243,243)" stroke="rgb(70,70,70)" stroke-width="10" stroke-linecap="round" />
<polygon points="352,-720 352,-704 352,-704 336,-704 352,-720 " fill="rgb(228,11,11)" stroke="rgb(70,70,70)" stroke-width="10" stroke-linecap="round" />
<polygon points="832,832 832,832 832,0 832,0 1664,0 1664,0 1856,1024 1856,1024 " fill="rgb(232,15,232)" stroke="rgb(70,70,70)" stroke-width="10" stroke-linecap="round" />
<polygon points="832,979 832,832 1856,1024 1856,1024 1877,1136 " fill="rgb(251,251,34)" stroke="rgb(70,70,70)" stroke-width="10" stroke-linecap="round" />
<polygon points="1984,1152 1877,1136 1664,0 1664,0 1811,0 1984,1152 " fill="rgb(251,251,34)" stroke="rgb(70,70,70)" stroke-width="10" stroke-linecap="round" />
<polygon points="384,0 832,0 832,448 384,0 " fill="rgb(232,15,232)" stroke="rgb(70,70,70)" stroke-width="10" stroke-linecap="round" />
<polygon points="96,192 96,0 384,0 576,192 96,192 " fill="rgb(232,15,232)" stroke="rgb(70,70,70)" stroke-width="10" stroke-linecap="round" />
<polygon points="96,512 96,512 96,192 576,192 576,192 576,192 256,512 256,512 " fill="rgb(3,3,220)" stroke="rgb(70,70,70)" stroke-width="10" stroke-linecap="round" />
<polygon points="832,512 704,512 448,320 576,192 576,192 832,448 832,448 832,512 " fill="rgb(26,243,243)" stroke="rgb(70,70,70)" stroke-width="10" stroke-linecap="round" />
<polygon points="96,512 224,512 224,1344 224,1344 96,1344 96,1344 96,512 " fill="rgb(251,251,34)" stroke="rgb(70,70,70)" stroke-width="10" stroke-linecap="round" />
<polygon points="704,512 832,512 832,979 832,979 704,960 " fill="rgb(22,239,22)" stroke="rgb(70,70,70)" stroke-width="10" stroke-linecap="round" />
<polygon points="96,192 -256,192 -256,192 -448,0 96,0 " fill="rgb(232,15,232)" stroke="rgb(70,70,70)" stroke-width="10" stroke-linecap="round" />
<polygon points="-256,192 -256,192 96,192 96,192 96,512 64,512 " fill="rgb(232,15,232)" stroke="rgb(70,70,70)" stroke-width="10" stroke-linecap="round" />
<polygon points="-1408,0 -1408,0 -512,0 -512,0 -512,832 -512,832 -512,832 -1599,1023 " fill="rgb(228,11,11)" stroke="rgb(70,70,70)" stroke-width="10" stroke-linecap="round" />
<polygon points="-1555,0 -1408,0 -1408,0 -1599,1023 -1710,1042 " fill="rgb(251,251,34)" stroke="rgb(70,70,70)" stroke-width="10" stroke-linecap="round" />
<polygon points="-1728,1152 -1711,1043 -512,832 -512,832 -512,978 -1728,1152 " fill="rgb(228,11,11)" stroke="rgb(70,70,70)" stroke-width="10" stroke-linecap="round" />
<polygon points="-256,192 -512,448 -512,448 -512,0 -448,0 " fill="rgb(22,239,22)" stroke="rgb(70,70,70)" stroke-width="10" stroke-linecap="round" />
<polygon points="-512,448 -512,448 -256,192 -256,192 -128,320 -512,608 -512,608 " fill="rgb(3,3,220)" stroke="rgb(70,70,70)" stroke-width="10" stroke-linecap="round" />
<polygon points="-512,978 -512,608 -512,608 -384,512 -384,959 " fill="rgb(3,3,220)" stroke="rgb(70,70,70)" stroke-width="10" stroke-linecap="round" />
<polygon points="96,1360 224,1360 224,1360 295,1447 160,1560 160,1560 24,1448 " fill="rgb(232,15,232)" stroke="rgb(70,70,70)" stroke-width="10" stroke-linecap="round" />
<polygon points="224,1344 224,1360 96,1360 96,1360 96,1344 224,1344 " fill="rgb(232,15,232)" stroke="rgb(70,70,70)" stroke-width="10" stroke-linecap="round" />

</svg>

