<svg width="900" height="967" preserveAspectRatio="none" viewBox="-1858 -2562 3972 4252"
 xmlns="http://www.w3.org/2000/svg" xmlns:xlink="http://www.w3.org/1999/xlink">
   <defs>
    <marker id="arrow" markerWidth="10" markerHeight="10" refX="0" refY="2" orient="auto" markerUnits="strokeWidth">
      <path d="M0,0 L0,4 L5,3 z" fill="#f00" />
    </marker>
  </defs>

<line x1="-1736" y1="1568" x2="2104" y2="1568" stroke-width="7" stroke="black"/>
<line x1="-1736" y1="1440" x2="2104" y2="1440" stroke-width="7" stroke="black"/>
<line x1="-1736" y1="1312" x2="2104" y2="1312" stroke-width="7" stroke="black"/>
<line x1="-1736" y1="1184" x2="2104" y2="1184" stroke-width="7" stroke="black"/>
<line x1="-1736" y1="1056" x2="2104" y2="1056" stroke-width="7" stroke="black"/>
<line x1="-1736" y1="928" x2="2104" y2="928" stroke-width="7" stroke="black"/>
<line x1="-1736" y1="800" x2="2104" y2="800" stroke-width="7" stroke="black"/>
<line x1="-1736" y1="672" x2="2104" y2="672" stroke-width="7" stroke="black"/>
<line x1="-1736" y1="544" x2="2104" y2="544" stroke-width="7" stroke="black"/>
<line x1="-1736" y1="416" x2="2104" y2="416" stroke-width="7" stroke="black"/>
<line x1="-1736" y1="288" x2="2104" y2="288" stroke-width="7" stroke="black"/>
<line x1="-1736" y1="160" x2="2104" y2="160" stroke-width="7" stroke="black"/>
<line x1="-1736" y1="32" x2="2104" y2="32" stroke-width="7" stroke="black"/>
<line x1="-1736" y1="-96" x2="2104" y2="-96" stroke-width="7" stroke="black"/>
<line x1="-1736" y1="-224" x2="2104" y2="-224" stroke-width="7" stroke="black"/>
<line x1="-1736" y1="-352" x2="2104" y2="-352" stroke-width="7" stroke="black"/>
<line x1="-1736" y1="-480" x2="2104" y2="-480" stroke-width="7" stroke="black"/>
<line x1="-1736" y1="-608" x2="2104" y2="-608" stroke-width="7" stroke="black"/>
<line x1="-1736" y1="-736" x2="2104" y2="-736" stroke-width="7" stroke="black"/>
<line x1="-1736" y1="-864" x2="2104" y2="-864" stroke-width="7" stroke="black"/>
<line x1="-1736" y1="-992" x2="2104" y2="-992" stroke-width="7" stroke="black"/>
<line x1="-1736" y1="-1120" x2="2104" y2="-1120" stroke-width="7" stroke="black"/>
<line x1="-1736" y1="-1248" x2="2104" y2="-1248" stroke-width="7" stroke="black"/>
<line x1="-1736" y1="-1376" x2="2104" y2="-1376" stroke-width="7" stroke="black"/>
<line x1="-1736" y1="-1504" x2="2104" y2="-1504" stroke-width="7" stroke="black"/>
<line x1="-1736" y1="-1632" x2="2104" y2="-1632" stroke-width="7" stroke="black"/>
<line x1="-1736" y1="-1760" x2="2104" y2="-1760" stroke-width="7" stroke="black"/>
<line x1="-1736" y1="-1888" x2="2104" y2="-1888" stroke-width="7" stroke="black"/>
<line x1="-1736" y1="-2016" x2="2104" y2="-2016" stroke-width="7" stroke="black"/>
<line x1="-1736" y1="-2144" x2="2104" y2="-2144" stroke-width="7" stroke="black"/>
<line x1="-1736" y1="-2272" x2="2104" y2="-2272" stroke-width="7" stroke="black"/>
<line x1="-1736" y1="-2400" x2="2104" y2="-2400" stroke-width="7" stroke="black"/>
<line x1="-1736" y1="-2528" x2="2104" y2="-2528" stroke-width="7" stroke="black"/>
<line x1="-1736" y1="1568" x2="-1736" y2="-2528" stroke-width="7" stroke="black"/>
<line x1="-1608" y1="1568" x2="-1608" y2="-2528" stroke-width="7" stroke="black"/>
<line x1="-1480" y1="1568" x2="-1480" y2="-2528" stroke-width="7" stroke="black"/>
<line x1="-1352" y1="1568" x2="-1352" y2="-2528" stroke-width="7" stroke="black"/>
<line x1="-1224" y1="1568" x2="-1224" y2="-2528" stroke-width="7" stroke="black"/>
<line x1="-1096" y1="1568" x2="-1096" y2="-2528" stroke-width="7" stroke="black"/>
<line x1="-968" y1="1568" x2="-968" y2="-2528" stroke-width="7" stroke="black"/>
<line x1="-840" y1="1568" x2="-840" y2="-2528" stroke-width="7" stroke="black"/>
<line x1="-712" y1="1568" x2="-712" y2="-2528" stroke-width="7" stroke="black"/>
<line x1="-584" y1="1568" x2="-584" y2="-2528" stroke-width="7" stroke="black"/>
<line x1="-456" y1="1568" x2="-456" y2="-2528" stroke-width="7" stroke="black"/>
<line x1="-328" y1="1568" x2="-328" y2="-2528" stroke-width="7" stroke="black"/>
<line x1="-200" y1="1568" x2="-200" y2="-2528" stroke-width="7" stroke="black"/>
<line x1="-72" y1="1568" x2="-72" y2="-2528" stroke-width="7" stroke="black"/>
<line x1="56" y1="1568" x2="56" y2="-2528" stroke-width="7" stroke="black"/>
<line x1="184" y1="1568" x2="184" y2="-2528" stroke-width="7" stroke="black"/>
<line x1="312" y1="1568" x2="312" y2="-2528" stroke-width="7" stroke="black"/>
<line x1="440" y1="1568" x2="440" y2="-2528" stroke-width="7" stroke="black"/>
<line x1="568" y1="1568" x2="568" y2="-2528" stroke-width="7" stroke="black"/>
<line x1="696" y1="1568" x2="696" y2="-2528" stroke-width="7" stroke="black"/>
<line x1="824" y1="1568" x2="824" y2="-2528" stroke-width="7" stroke="black"/>
<line x1="952" y1="1568" x2="952" y2="-2528" stroke-width="7" stroke="black"/>
<line x1="1080" y1="1568" x2="1080" y2="-2528" stroke-width="7" stroke="black"/>
<line x1="1208" y1="1568" x2="1208" y2="-2528" stroke-width="7" stroke="black"/>
<line x1="1336" y1="1568" x2="1336" y2="-2528" stroke-width="7" stroke="black"/>
<line x1="1464" y1="1568" x2="1464" y2="-2528" stroke-width="7" stroke="black"/>
<line x1="1592" y1="1568" x2="1592" y2="-2528" stroke-width="7" stroke="black"/>
<line x1="1720" y1="1568" x2="1720" y2="-2528" stroke-width="7" stroke="black"/>
<line x1="1848" y1="1568" x2="1848" y2="-2528" stroke-width="7" stroke="black"/>
<line x1="1976" y1="1568" x2="1976" y2="-2528" stroke-width="7" stroke="black"/>
<line x1="2104" y1="1568" x2="2104" y2="-2528" stroke-width="7" stroke="black"/>
<line x1="96" y1="1344" x2="96" y2="512" stroke-width="7" stroke="black" marker-end="url(#arrow)" />
    <circle cx="96" cy="1344" r="10"/>    <circle cx="96" cy="512" r="10"/>
<line x1="96" y1="1360" x2="96" y2="1344" stroke-width="7" stroke="black" marker-end="url(#arrow)" />
    <circle cx="96" cy="1360" r="10"/>    <circle cx="96" cy="1344" r="10"/>
<line x1="24" y1="1448" x2="96" y2="1360" stroke-width="7" stroke="black" marker-end="url(#arrow)" />
    <circle cx="24" cy="1448" r="10"/>    <circle cx="96" cy="1360" r="10"/>
<line x1="160" y1="1560" x2="24" y2="1448" stroke-width="7" stroke="black" marker-end="url(#arrow)" />
    <circle cx="160" cy="1560" r="10"/>    <circle cx="24" cy="1448" r="10"/>
<line x1="296" y1="1448" x2="160" y2="1560" stroke-width="7" stroke="black" marker-end="url(#arrow)" />
    <circle cx="296" cy="1448" r="10"/>    <circle cx="160" cy="1560" r="10"/>
<line x1="224" y1="1360" x2="296" y2="1448" stroke-width="7" stroke="black" marker-end="url(#arrow)" />
    <circle cx="224" cy="1360" r="10"/>    <circle cx="296" cy="1448" r="10"/>
<line x1="224" y1="1344" x2="224" y2="1360" stroke-width="7" stroke="black" marker-end="url(#arrow)" />
    <circle cx="224" cy="1344" r="10"/>    <circle cx="224" cy="1360" r="10"/>
<line x1="224" y1="512" x2="224" y2="1344" stroke-width="7" stroke="black" marker-end="url(#arrow)" />
    <circle cx="224" cy="512" r="10"/>    <circle cx="224" cy="1344" r="10"/>
<line x1="224" y1="1344" x2="96" y2="1344" stroke-width="7" stroke="black" marker-end="url(#arrow)" />
    <circle cx="224" cy="1344" r="10"/>    <circle cx="96" cy="1344" r="10"/>
<line x1="96" y1="1360" x2="224" y2="1360" stroke-width="7" stroke="black" marker-end="url(#arrow)" />
    <circle cx="96" cy="1360" r="10"/>    <circle cx="224" cy="1360" r="10"/>
<line x1="256" y1="512" x2="224" y2="512" stroke-width="7" stroke="black" marker-end="url(#arrow)" />
    <circle cx="256" cy="512" r="10"/>    <circle cx="224" cy="512" r="10"/>
<line x1="448" y1="320" x2="256" y2="512" stroke-width="7" stroke="black" marker-end="url(#arrow)" />
    <circle cx="448" cy="320" r="10"/>    <circle cx="256" cy="512" r="10"/>
<line x1="704" y1="512" x2="448" y2="320" stroke-width="7" stroke="black" marker-end="url(#arrow)" />
    <circle cx="704" cy="512" r="10"/>    <circle cx="448" cy="320" r="10"/>
<line x1="704" y1="960" x2="704" y2="512" stroke-width="7" stroke="black" marker-end="url(#arrow)" />
    <circle cx="704" cy="960" r="10"/>    <circle cx="704" cy="512" r="10"/>
<line x1="1984" y1="1152" x2="704" y2="960" stroke-width="7" stroke="black" marker-end="url(#arrow)" />
    <circle cx="1984" cy="1152" r="10"/>    <circle cx="704" cy="960" r="10"/>
<line x1="1792" y1="-128" x2="1984" y2="1152" stroke-width="7" stroke="black" marker-end="url(#arrow)" />
    <circle cx="1792" cy="-128" r="10"/>    <circle cx="1984" cy="1152" r="10"/>
<line x1="1408" y1="-128" x2="1792" y2="-128" stroke-width="7" stroke="black" marker-end="url(#arrow)" />
    <circle cx="1408" cy="-128" r="10"/>    <circle cx="1792" cy="-128" r="10"/>
<line x1="1152" y1="-384" x2="1408" y2="-128" stroke-width="7" stroke="black" marker-end="url(#arrow)" />
    <circle cx="1152" cy="-384" r="10"/>    <circle cx="1408" cy="-128" r="10"/>
<line x1="1152" y1="-896" x2="1152" y2="-384" stroke-width="7" stroke="black" marker-end="url(#arrow)" />
    <circle cx="1152" cy="-896" r="10"/>    <circle cx="1152" cy="-384" r="10"/>
<line x1="1408" y1="-1152" x2="1152" y2="-896" stroke-width="7" stroke="black" marker-end="url(#arrow)" />
    <circle cx="1408" cy="-1152" r="10"/>    <circle cx="1152" cy="-896" r="10"/>
<line x1="1792" y1="-1152" x2="1408" y2="-1152" stroke-width="7" stroke="black" marker-end="url(#arrow)" />
    <circle cx="1792" cy="-1152" r="10"/>    <circle cx="1408" cy="-1152" r="10"/>
<line x1="1984" y1="-2432" x2="1792" y2="-1152" stroke-width="7" stroke="black" marker-end="url(#arrow)" />
    <circle cx="1984" cy="-2432" r="10"/>    <circle cx="1792" cy="-1152" r="10"/>
<line x1="704" y1="-2240" x2="1984" y2="-2432" stroke-width="7" stroke="black" marker-end="url(#arrow)" />
    <circle cx="704" cy="-2240" r="10"/>    <circle cx="1984" cy="-2432" r="10"/>
<line x1="704" y1="-1856" x2="704" y2="-2240" stroke-width="7" stroke="black" marker-end="url(#arrow)" />
    <circle cx="704" cy="-1856" r="10"/>    <circle cx="704" cy="-2240" r="10"/>
<line x1="448" y1="-1600" x2="704" y2="-1856" stroke-width="7" stroke="black" marker-end="url(#arrow)" />
    <circle cx="448" cy="-1600" r="10"/>    <circle cx="704" cy="-1856" r="10"/>
<line x1="-128" y1="-1600" x2="448" y2="-1600" stroke-width="7" stroke="black" marker-end="url(#arrow)" />
    <circle cx="-128" cy="-1600" r="10"/>    <circle cx="448" cy="-1600" r="10"/>
<line x1="-384" y1="-1856" x2="-128" y2="-1600" stroke-width="7" stroke="black" marker-end="url(#arrow)" />
    <circle cx="-384" cy="-1856" r="10"/>    <circle cx="-128" cy="-1600" r="10"/>
<line x1="-384" y1="-2240" x2="-384" y2="-1856" stroke-width="7" stroke="black" marker-end="url(#arrow)" />
    <circle cx="-384" cy="-2240" r="10"/>    <circle cx="-384" cy="-1856" r="10"/>
<line x1="-1728" y1="-2432" x2="-384" y2="-2240" stroke-width="7" stroke="black" marker-end="url(#arrow)" />
    <circle cx="-1728" cy="-2432" r="10"/>    <circle cx="-384" cy="-2240" r="10"/>
<line x1="-1536" y1="-1152" x2="-1728" y2="-2432" stroke-width="7" stroke="black" marker-end="url(#arrow)" />
    <circle cx="-1536" cy="-1152" r="10"/>    <circle cx="-1728" cy="-2432" r="10"/>
<line x1="-1088" y1="-1152" x2="-1536" y2="-1152" stroke-width="7" stroke="black" marker-end="url(#arrow)" />
    <circle cx="-1088" cy="-1152" r="10"/>    <circle cx="-1536" cy="-1152" r="10"/>
<line x1="-832" y1="-896" x2="-1088" y2="-1152" stroke-width="7" stroke="black" marker-end="url(#arrow)" />
    <circle cx="-832" cy="-896" r="10"/>    <circle cx="-1088" cy="-1152" r="10"/>
<line x1="-832" y1="-384" x2="-832" y2="-896" stroke-width="7" stroke="black" marker-end="url(#arrow)" />
    <circle cx="-832" cy="-384" r="10"/>    <circle cx="-832" cy="-896" r="10"/>
<line x1="-1088" y1="-128" x2="-832" y2="-384" stroke-width="7" stroke="black" marker-end="url(#arrow)" />
    <circle cx="-1088" cy="-128" r="10"/>    <circle cx="-832" cy="-384" r="10"/>
<line x1="-1536" y1="-128" x2="-1088" y2="-128" stroke-width="7" stroke="black" marker-end="url(#arrow)" />
    <circle cx="-1536" cy="-128" r="10"/>    <circle cx="-1088" cy="-128" r="10"/>
<line x1="-1728" y1="1152" x2="-1536" y2="-128" stroke-width="7" stroke="black" marker-end="url(#arrow)" />
    <circle cx="-1728" cy="1152" r="10"/>    <circle cx="-1536" cy="-128" r="10"/>
<line x1="-384" y1="960" x2="-1728" y2="1152" stroke-width="7" stroke="black" marker-end="url(#arrow)" />
    <circle cx="-384" cy="960" r="10"/>    <circle cx="-1728" cy="1152" r="10"/>
<line x1="-384" y1="512" x2="-384" y2="960" stroke-width="7" stroke="black" marker-end="url(#arrow)" />
    <circle cx="-384" cy="512" r="10"/>    <circle cx="-384" cy="960" r="10"/>
<line x1="-128" y1="320" x2="-384" y2="512" stroke-width="7" stroke="black" marker-end="url(#arrow)" />
    <circle cx="-128" cy="320" r="10"/>    <circle cx="-384" cy="512" r="10"/>
<line x1="64" y1="512" x2="-128" y2="320" stroke-width="7" stroke="black" marker-end="url(#arrow)" />
    <circle cx="64" cy="512" r="10"/>    <circle cx="-128" cy="320" r="10"/>
<line x1="96" y1="512" x2="64" y2="512" stroke-width="7" stroke="black" marker-end="url(#arrow)" />
    <circle cx="96" cy="512" r="10"/>    <circle cx="64" cy="512" r="10"/>
<line x1="-512" y1="448" x2="-512" y2="832" stroke-width="7" stroke="black" marker-end="url(#arrow)" />
    <circle cx="-512" cy="448" r="10"/>    <circle cx="-512" cy="832" r="10"/>
<line x1="-512" y1="832" x2="-1600" y2="1024" stroke-width="7" stroke="black" marker-end="url(#arrow)" />
    <circle cx="-512" cy="832" r="10"/>    <circle cx="-1600" cy="1024" r="10"/>
<line x1="-1600" y1="1024" x2="-1408" y2="0" stroke-width="7" stroke="black" marker-end="url(#arrow)" />
    <circle cx="-1600" cy="1024" r="10"/>    <circle cx="-1408" cy="0" r="10"/>
<line x1="-1408" y1="0" x2="-1024" y2="0" stroke-width="7" stroke="black" marker-end="url(#arrow)" />
    <circle cx="-1408" cy="0" r="10"/>    <circle cx="-1024" cy="0" r="10"/>
<line x1="-1024" y1="0" x2="-704" y2="-320" stroke-width="7" stroke="black" marker-end="url(#arrow)" />
    <circle cx="-1024" cy="0" r="10"/>    <circle cx="-704" cy="-320" r="10"/>
<line x1="-704" y1="-320" x2="-704" y2="-960" stroke-width="7" stroke="black" marker-end="url(#arrow)" />
    <circle cx="-704" cy="-320" r="10"/>    <circle cx="-704" cy="-960" r="10"/>
<line x1="-704" y1="-960" x2="-1024" y2="-1280" stroke-width="7" stroke="black" marker-end="url(#arrow)" />
    <circle cx="-704" cy="-960" r="10"/>    <circle cx="-1024" cy="-1280" r="10"/>
<line x1="-1024" y1="-1280" x2="-1408" y2="-1280" stroke-width="7" stroke="black" marker-end="url(#arrow)" />
    <circle cx="-1024" cy="-1280" r="10"/>    <circle cx="-1408" cy="-1280" r="10"/>
<line x1="-1408" y1="-1280" x2="-1600" y2="-2304" stroke-width="7" stroke="black" marker-end="url(#arrow)" />
    <circle cx="-1408" cy="-1280" r="10"/>    <circle cx="-1600" cy="-2304" r="10"/>
<line x1="-1600" y1="-2304" x2="-512" y2="-2112" stroke-width="7" stroke="black" marker-end="url(#arrow)" />
    <circle cx="-1600" cy="-2304" r="10"/>    <circle cx="-512" cy="-2112" r="10"/>
<line x1="-512" y1="-2112" x2="-512" y2="-1792" stroke-width="7" stroke="black" marker-end="url(#arrow)" />
    <circle cx="-512" cy="-2112" r="10"/>    <circle cx="-512" cy="-1792" r="10"/>
<line x1="-512" y1="-1792" x2="-192" y2="-1472" stroke-width="7" stroke="black" marker-end="url(#arrow)" />
    <circle cx="-512" cy="-1792" r="10"/>    <circle cx="-192" cy="-1472" r="10"/>
<line x1="-192" y1="-1472" x2="512" y2="-1472" stroke-width="7" stroke="black" marker-end="url(#arrow)" />
    <circle cx="-192" cy="-1472" r="10"/>    <circle cx="512" cy="-1472" r="10"/>
<line x1="512" y1="-1472" x2="832" y2="-1792" stroke-width="7" stroke="black" marker-end="url(#arrow)" />
    <circle cx="512" cy="-1472" r="10"/>    <circle cx="832" cy="-1792" r="10"/>
<line x1="832" y1="-1792" x2="832" y2="-2112" stroke-width="7" stroke="black" marker-end="url(#arrow)" />
    <circle cx="832" cy="-1792" r="10"/>    <circle cx="832" cy="-2112" r="10"/>
<line x1="832" y1="-2112" x2="1856" y2="-2304" stroke-width="7" stroke="black" marker-end="url(#arrow)" />
    <circle cx="832" cy="-2112" r="10"/>    <circle cx="1856" cy="-2304" r="10"/>
<line x1="1856" y1="-2304" x2="1664" y2="-1280" stroke-width="7" stroke="black" marker-end="url(#arrow)" />
    <circle cx="1856" cy="-2304" r="10"/>    <circle cx="1664" cy="-1280" r="10"/>
<line x1="1664" y1="-1280" x2="1344" y2="-1280" stroke-width="7" stroke="black" marker-end="url(#arrow)" />
    <circle cx="1664" cy="-1280" r="10"/>    <circle cx="1344" cy="-1280" r="10"/>
<line x1="1344" y1="-1280" x2="1024" y2="-960" stroke-width="7" stroke="black" marker-end="url(#arrow)" />
    <circle cx="1344" cy="-1280" r="10"/>    <circle cx="1024" cy="-960" r="10"/>
<line x1="1024" y1="-960" x2="1024" y2="-320" stroke-width="7" stroke="black" marker-end="url(#arrow)" />
    <circle cx="1024" cy="-960" r="10"/>    <circle cx="1024" cy="-320" r="10"/>
<line x1="1024" y1="-320" x2="1344" y2="0" stroke-width="7" stroke="black" marker-end="url(#arrow)" />
    <circle cx="1024" cy="-320" r="10"/>    <circle cx="1344" cy="0" r="10"/>
<line x1="1344" y1="0" x2="1664" y2="0" stroke-width="7" stroke="black" marker-end="url(#arrow)" />
    <circle cx="1344" cy="0" r="10"/>    <circle cx="1664" cy="0" r="10"/>
<line x1="1664" y1="0" x2="1856" y2="1024" stroke-width="7" stroke="black" marker-end="url(#arrow)" />
    <circle cx="1664" cy="0" r="10"/>    <circle cx="1856" cy="1024" r="10"/>
<line x1="1856" y1="1024" x2="832" y2="832" stroke-width="7" stroke="black" marker-end="url(#arrow)" />
    <circle cx="1856" cy="1024" r="10"/>    <circle cx="832" cy="832" r="10"/>
<line x1="832" y1="832" x2="832" y2="448" stroke-width="7" stroke="black" marker-end="url(#arrow)" />
    <circle cx="832" cy="832" r="10"/>    <circle cx="832" cy="448" r="10"/>
<line x1="832" y1="448" x2="576" y2="192" stroke-width="7" stroke="black" marker-end="url(#arrow)" />
    <circle cx="832" cy="448" r="10"/>    <circle cx="576" cy="192" r="10"/>
<line x1="576" y1="192" x2="-256" y2="192" stroke-width="7" stroke="black" marker-end="url(#arrow)" />
    <circle cx="576" cy="192" r="10"/>    <circle cx="-256" cy="192" r="10"/>
<line x1="-256" y1="192" x2="-512" y2="448" stroke-width="7" stroke="black" marker-end="url(#arrow)" />
    <circle cx="-256" cy="192" r="10"/>    <circle cx="-512" cy="448" r="10"/>
<line x1="352" y1="-720" x2="312" y2="-792" stroke-width="7" stroke="black" marker-end="url(#arrow)" />
    <circle cx="352" cy="-720" r="10"/>    <circle cx="312" cy="-792" r="10"/>
<line x1="312" y1="-792" x2="240" y2="-832" stroke-width="7" stroke="black" marker-end="url(#arrow)" />
    <circle cx="312" cy="-792" r="10"/>    <circle cx="240" cy="-832" r="10"/>
<line x1="240" y1="-832" x2="80" y2="-832" stroke-width="7" stroke="black" marker-end="url(#arrow)" />
    <circle cx="240" cy="-832" r="10"/>    <circle cx="80" cy="-832" r="10"/>
<line x1="80" y1="-832" x2="8" y2="-792" stroke-width="7" stroke="black" marker-end="url(#arrow)" />
    <circle cx="80" cy="-832" r="10"/>    <circle cx="8" cy="-792" r="10"/>
<line x1="8" y1="-792" x2="-32" y2="-720" stroke-width="7" stroke="black" marker-end="url(#arrow)" />
    <circle cx="8" cy="-792" r="10"/>    <circle cx="-32" cy="-720" r="10"/>
<line x1="-32" y1="-720" x2="-32" y2="-560" stroke-width="7" stroke="black" marker-end="url(#arrow)" />
    <circle cx="-32" cy="-720" r="10"/>    <circle cx="-32" cy="-560" r="10"/>
<line x1="-32" y1="-560" x2="8" y2="-488" stroke-width="7" stroke="black" marker-end="url(#arrow)" />
    <circle cx="-32" cy="-560" r="10"/>    <circle cx="8" cy="-488" r="10"/>
<line x1="8" y1="-488" x2="80" y2="-448" stroke-width="7" stroke="black" marker-end="url(#arrow)" />
    <circle cx="8" cy="-488" r="10"/>    <circle cx="80" cy="-448" r="10"/>
<line x1="80" y1="-448" x2="240" y2="-448" stroke-width="7" stroke="black" marker-end="url(#arrow)" />
    <circle cx="80" cy="-448" r="10"/>    <circle cx="240" cy="-448" r="10"/>
<line x1="240" y1="-448" x2="312" y2="-488" stroke-width="7" stroke="black" marker-end="url(#arrow)" />
    <circle cx="240" cy="-448" r="10"/>    <circle cx="312" cy="-488" r="10"/>
<line x1="312" y1="-488" x2="352" y2="-560" stroke-width="7" stroke="black" marker-end="url(#arrow)" />
    <circle cx="312" cy="-488" r="10"/>    <circle cx="352" cy="-560" r="10"/>
<line x1="352" y1="-560" x2="352" y2="-720" stroke-width="7" stroke="black" marker-end="url(#arrow)" />
    <circle cx="352" cy="-560" r="10"/>    <circle cx="352" cy="-720" r="10"/>
<line x1="-32" y1="-720" x2="-16" y2="-704" stroke-width="7" stroke="black" marker-end="url(#arrow)" />
    <circle cx="-32" cy="-720" r="10"/>    <circle cx="-16" cy="-704" r="10"/>
<line x1="-16" y1="-704" x2="-16" y2="-576" stroke-width="7" stroke="black" marker-end="url(#arrow)" />
    <circle cx="-16" cy="-704" r="10"/>    <circle cx="-16" cy="-576" r="10"/>
<line x1="-16" y1="-576" x2="-32" y2="-560" stroke-width="7" stroke="black" marker-end="url(#arrow)" />
    <circle cx="-16" cy="-576" r="10"/>    <circle cx="-32" cy="-560" r="10"/>
<line x1="80" y1="-448" x2="96" y2="-464" stroke-width="7" stroke="black" marker-end="url(#arrow)" />
    <circle cx="80" cy="-448" r="10"/>    <circle cx="96" cy="-464" r="10"/>
<line x1="96" y1="-464" x2="224" y2="-464" stroke-width="7" stroke="black" marker-end="url(#arrow)" />
    <circle cx="96" cy="-464" r="10"/>    <circle cx="224" cy="-464" r="10"/>
<line x1="224" y1="-464" x2="240" y2="-448" stroke-width="7" stroke="black" marker-end="url(#arrow)" />
    <circle cx="224" cy="-464" r="10"/>    <circle cx="240" cy="-448" r="10"/>
<line x1="352" y1="-560" x2="336" y2="-576" stroke-width="7" stroke="black" marker-end="url(#arrow)" />
    <circle cx="352" cy="-560" r="10"/>    <circle cx="336" cy="-576" r="10"/>
<line x1="336" y1="-576" x2="336" y2="-704" stroke-width="7" stroke="black" marker-end="url(#arrow)" />
    <circle cx="336" cy="-576" r="10"/>    <circle cx="336" cy="-704" r="10"/>
<line x1="336" y1="-704" x2="352" y2="-720" stroke-width="7" stroke="black" marker-end="url(#arrow)" />
    <circle cx="336" cy="-704" r="10"/>    <circle cx="352" cy="-720" r="10"/>
<line x1="240" y1="-832" x2="224" y2="-816" stroke-width="7" stroke="black" marker-end="url(#arrow)" />
    <circle cx="240" cy="-832" r="10"/>    <circle cx="224" cy="-816" r="10"/>
<line x1="224" y1="-816" x2="96" y2="-816" stroke-width="7" stroke="black" marker-end="url(#arrow)" />
    <circle cx="224" cy="-816" r="10"/>    <circle cx="96" cy="-816" r="10"/>
<line x1="96" y1="-816" x2="80" y2="-832" stroke-width="7" stroke="black" marker-end="url(#arrow)" />
    <circle cx="96" cy="-816" r="10"/>    <circle cx="80" cy="-832" r="10"/>
<line x1="-16" y1="-704" x2="0" y2="-704" stroke-width="7" stroke="black" marker-end="url(#arrow)" />
    <circle cx="-16" cy="-704" r="10"/>    <circle cx="0" cy="-704" r="10"/>
<line x1="0" y1="-704" x2="32" y2="-768" stroke-width="7" stroke="black" marker-end="url(#arrow)" />
    <circle cx="0" cy="-704" r="10"/>    <circle cx="32" cy="-768" r="10"/>
<line x1="32" y1="-768" x2="96" y2="-800" stroke-width="7" stroke="black" marker-end="url(#arrow)" />
    <circle cx="32" cy="-768" r="10"/>    <circle cx="96" cy="-800" r="10"/>
<line x1="96" y1="-800" x2="96" y2="-816" stroke-width="7" stroke="black" marker-end="url(#arrow)" />
    <circle cx="96" cy="-800" r="10"/>    <circle cx="96" cy="-816" r="10"/>
<line x1="224" y1="-816" x2="224" y2="-800" stroke-width="7" stroke="black" marker-end="url(#arrow)" />
    <circle cx="224" cy="-816" r="10"/>    <circle cx="224" cy="-800" r="10"/>
<line x1="224" y1="-800" x2="288" y2="-768" stroke-width="7" stroke="black" marker-end="url(#arrow)" />
    <circle cx="224" cy="-800" r="10"/>    <circle cx="288" cy="-768" r="10"/>
<line x1="288" y1="-768" x2="320" y2="-704" stroke-width="7" stroke="black" marker-end="url(#arrow)" />
    <circle cx="288" cy="-768" r="10"/>    <circle cx="320" cy="-704" r="10"/>
<line x1="320" y1="-704" x2="336" y2="-704" stroke-width="7" stroke="black" marker-end="url(#arrow)" />
    <circle cx="320" cy="-704" r="10"/>    <circle cx="336" cy="-704" r="10"/>
<line x1="96" y1="-464" x2="96" y2="-480" stroke-width="7" stroke="black" marker-end="url(#arrow)" />
    <circle cx="96" cy="-464" r="10"/>    <circle cx="96" cy="-480" r="10"/>
<line x1="96" y1="-480" x2="32" y2="-512" stroke-width="7" stroke="black" marker-end="url(#arrow)" />
    <circle cx="96" cy="-480" r="10"/>    <circle cx="32" cy="-512" r="10"/>
<line x1="32" y1="-512" x2="0" y2="-576" stroke-width="7" stroke="black" marker-end="url(#arrow)" />
    <circle cx="32" cy="-512" r="10"/>    <circle cx="0" cy="-576" r="10"/>
<line x1="0" y1="-576" x2="-16" y2="-576" stroke-width="7" stroke="black" marker-end="url(#arrow)" />
    <circle cx="0" cy="-576" r="10"/>    <circle cx="-16" cy="-576" r="10"/>
<line x1="0" y1="-576" x2="0" y2="-704" stroke-width="7" stroke="black" marker-end="url(#arrow)" />
    <circle cx="0" cy="-576" r="10"/>    <circle cx="0" cy="-704" r="10"/>
<line x1="96" y1="-800" x2="224" y2="-800" stroke-width="7" stroke="black" marker-end="url(#arrow)" />
    <circle cx="96" cy="-800" r="10"/>    <circle cx="224" cy="-800" r="10"/>
<line x1="320" y1="-704" x2="320" y2="-576" stroke-width="7" stroke="black" marker-end="url(#arrow)" />
    <circle cx="320" cy="-704" r="10"/>    <circle cx="320" cy="-576" r="10"/>
<line x1="224" y1="-480" x2="96" y2="-480" stroke-width="7" stroke="black" marker-end="url(#arrow)" />
    <circle cx="224" cy="-480" r="10"/>    <circle cx="96" cy="-480" r="10"/>
<line x1="224" y1="-480" x2="224" y2="-464" stroke-width="7" stroke="black" marker-end="url(#arrow)" />
    <circle cx="224" cy="-480" r="10"/>    <circle cx="224" cy="-464" r="10"/>
<line x1="288" y1="-512" x2="224" y2="-480" stroke-width="7" stroke="black" marker-end="url(#arrow)" />
    <circle cx="288" cy="-512" r="10"/>    <circle cx="224" cy="-480" r="10"/>
<line x1="320" y1="-576" x2="288" y2="-512" stroke-width="7" stroke="black" marker-end="url(#arrow)" />
    <circle cx="320" cy="-576" r="10"/>    <circle cx="288" cy="-512" r="10"/>
<line x1="336" y1="-576" x2="320" y2="-576" stroke-width="7" stroke="black" marker-end="url(#arrow)" />
    <circle cx="336" cy="-576" r="10"/>    <circle cx="320" cy="-576" r="10"/>
<line x1="-192" y1="-1472" x2="-128" y2="-1408" stroke-width="7" stroke="black" marker-end="url(#arrow)" />
    <circle cx="-192" cy="-1472" r="10"/>    <circle cx="-128" cy="-1408" r="10"/>
<line x1="-128" y1="-1408" x2="-64" y2="-1344" stroke-width="7" stroke="black" marker-end="url(#arrow)" />
    <circle cx="-128" cy="-1408" r="10"/>    <circle cx="-64" cy="-1344" r="10"/>
<line x1="-64" y1="-1344" x2="0" y2="-1280" stroke-width="7" stroke="black" marker-end="url(#arrow)" />
    <circle cx="-64" cy="-1344" r="10"/>    <circle cx="0" cy="-1280" r="10"/>
<line x1="0" y1="-1280" x2="320" y2="-1280" stroke-width="7" stroke="black" marker-end="url(#arrow)" />
    <circle cx="0" cy="-1280" r="10"/>    <circle cx="320" cy="-1280" r="10"/>
<line x1="320" y1="-1280" x2="384" y2="-1344" stroke-width="7" stroke="black" marker-end="url(#arrow)" />
    <circle cx="320" cy="-1280" r="10"/>    <circle cx="384" cy="-1344" r="10"/>
<line x1="384" y1="-1344" x2="448" y2="-1408" stroke-width="7" stroke="black" marker-end="url(#arrow)" />
    <circle cx="384" cy="-1344" r="10"/>    <circle cx="448" cy="-1408" r="10"/>
<line x1="448" y1="-1408" x2="512" y2="-1472" stroke-width="7" stroke="black" marker-end="url(#arrow)" />
    <circle cx="448" cy="-1408" r="10"/>    <circle cx="512" cy="-1472" r="10"/>
<line x1="-128" y1="-1408" x2="448" y2="-1408" stroke-width="7" stroke="black" marker-end="url(#arrow)" />
    <circle cx="-128" cy="-1408" r="10"/>    <circle cx="448" cy="-1408" r="10"/>
<line x1="-64" y1="-1344" x2="384" y2="-1344" stroke-width="7" stroke="black" marker-end="url(#arrow)" />
    <circle cx="-64" cy="-1344" r="10"/>    <circle cx="384" cy="-1344" r="10"/>

</svg>

