<svg width="900" height="967" preserveAspectRatio="none" viewBox="-1858 -2562 3972 4252"
 xmlns="http://www.w3.org/2000/svg" xmlns:xlink="http://www.w3.org/1999/xlink">
   <defs>
    <marker id="arrow" markerWidth="10" markerHeight="10" refX="0" refY="2" orient="auto" markerUnits="strokeWidth">
      <path d="M0,0 L0,4 L5,3 z" fill="#f00" />
    </marker>
  </defs>

<line x1="-1600" y1="-2304" x2="-512" y2="-2112" stroke-width="10" stroke="black"/>
<line x1="-1408" y1="-1280" x2="-1600" y2="-2304" stroke-width="10" stroke="black"/>
<line x1="1856" y1="-2304" x2="1664" y2="-1280" stroke-width="10" stroke="black"/>
<line x1="832" y1="-2112" x2="1856" y2="-2304" stroke-width="10" stroke="black"/>
<line x1="320" y1="-1280" x2="384" y2="-1344" stroke-width="10" stroke="black"/>
<line x1="384" y1="-1344" x2="448" y2="-1408" stroke-width="10" stroke="black"/>
<line x1="-64" y1="-1344" x2="384" y2="-1344" stroke-width="10" stroke="black"/>
<line x1="448" y1="-1408" x2="512" y2="-1472" stroke-width="10" stroke="black"/>
<line x1="-128" y1="-1408" x2="448" y2="-1408" stroke-width="10" stroke="black"/>
<line x1="-128" y1="-1600" x2="448" y2="-1600" stroke-width="10" stroke="black"/>
<line x1="448" y1="-1600" x2="704" y2="-1856" stroke-width="10" stroke="black"/>
<line x1="-384" y1="-2240" x2="-384" y2="-1856" stroke-width="10" stroke="black"/>
<line x1="704" y1="-1856" x2="704" y2="-2240" stroke-width="10" stroke="black"/>
<line x1="512" y1="-1472" x2="832" y2="-1792" stroke-width="10" stroke="black"/>
<line x1="-192" y1="-1472" x2="512" y2="-1472" stroke-width="10" stroke="black"/>
<line x1="832" y1="-1792" x2="832" y2="-2112" stroke-width="10" stroke="black"/>
<line x1="-512" y1="-1792" x2="-192" y2="-1472" stroke-width="10" stroke="black"/>
<line x1="-512" y1="-2112" x2="-512" y2="-1792" stroke-width="10" stroke="black"/>
<line x1="-832" y1="-384" x2="-832" y2="-896" stroke-width="10" stroke="black"/>
<line x1="-832" y1="-896" x2="-1088" y2="-1152" stroke-width="10" stroke="black"/>
<line x1="-1536" y1="-128" x2="-1088" y2="-128" stroke-width="10" stroke="black"/>
<line x1="-1088" y1="-1152" x2="-1536" y2="-1152" stroke-width="10" stroke="black"/>
<line x1="-704" y1="-960" x2="-1024" y2="-1280" stroke-width="10" stroke="black"/>
<line x1="-704" y1="-320" x2="-704" y2="-960" stroke-width="10" stroke="black"/>
<line x1="-1024" y1="0" x2="-704" y2="-320" stroke-width="10" stroke="black"/>
<line x1="1152" y1="-896" x2="1152" y2="-384" stroke-width="10" stroke="black"/>
<line x1="1152" y1="-384" x2="1408" y2="-128" stroke-width="10" stroke="black"/>
<line x1="1792" y1="-1152" x2="1408" y2="-1152" stroke-width="10" stroke="black"/>
<line x1="1408" y1="-128" x2="1792" y2="-128" stroke-width="10" stroke="black"/>
<line x1="1024" y1="-320" x2="1344" y2="0" stroke-width="10" stroke="black"/>
<line x1="1024" y1="-960" x2="1024" y2="-320" stroke-width="10" stroke="black"/>
<line x1="1344" y1="-1280" x2="1024" y2="-960" stroke-width="10" stroke="black"/>
<line x1="96" y1="-464" x2="224" y2="-464" stroke-width="10" stroke="black"/>
<line x1="224" y1="-480" x2="96" y2="-480" stroke-width="10" stroke="black"/>
<line x1="320" y1="-704" x2="320" y2="-576" stroke-width="10" stroke="black"/>
<line x1="336" y1="-576" x2="336" y2="-704" stroke-width="10" stroke="black"/>
<line x1="312" y1="-488" x2="352" y2="-560" stroke-width="10" stroke="black"/>
<line x1="240" y1="-448" x2="312" y2="-488" stroke-width="10" stroke="black"/>
<line x1="224" y1="-464" x2="240" y2="-448" stroke-width="10" stroke="black"/>
<line x1="224" y1="-480" x2="224" y2="-464" stroke-width="10" stroke="black"/>
<line x1="80" y1="-448" x2="240" y2="-448" stroke-width="10" stroke="black"/>
<line x1="8" y1="-488" x2="80" y2="-448" stroke-width="10" stroke="black"/>
<line x1="-16" y1="-704" x2="-16" y2="-576" stroke-width="10" stroke="black"/>
<line x1="0" y1="-576" x2="0" y2="-704" stroke-width="10" stroke="black"/>
<line x1="-32" y1="-560" x2="8" y2="-488" stroke-width="10" stroke="black"/>
<line x1="8" y1="-792" x2="-32" y2="-720" stroke-width="10" stroke="black"/>
<line x1="224" y1="-816" x2="96" y2="-816" stroke-width="10" stroke="black"/>
<line x1="96" y1="-800" x2="224" y2="-800" stroke-width="10" stroke="black"/>
<line x1="80" y1="-832" x2="8" y2="-792" stroke-width="10" stroke="black"/>
<line x1="240" y1="-832" x2="80" y2="-832" stroke-width="10" stroke="black"/>
<line x1="-32" y1="-720" x2="-16" y2="-704" stroke-width="10" stroke="black"/>
<line x1="352" y1="-720" x2="312" y2="-792" stroke-width="10" stroke="black"/>
<line x1="288" y1="-768" x2="320" y2="-704" stroke-width="10" stroke="black"/>
<line x1="312" y1="-792" x2="240" y2="-832" stroke-width="10" stroke="black"/>
<line x1="-16" y1="-704" x2="0" y2="-704" stroke-width="10" stroke="black"/>
<line x1="352" y1="-560" x2="352" y2="-720" stroke-width="10" stroke="black"/>
<line x1="-32" y1="-720" x2="-32" y2="-560" stroke-width="10" stroke="black"/>
<line x1="-1024" y1="-1280" x2="-1408" y2="-1280" stroke-width="10" stroke="black"/>
<line x1="1856" y1="1024" x2="832" y2="832" stroke-width="10" stroke="black"/>
<line x1="1664" y1="0" x2="1856" y2="1024" stroke-width="10" stroke="black"/>
<line x1="448" y1="320" x2="256" y2="512" stroke-width="10" stroke="black"/>
<line x1="224" y1="512" x2="224" y2="1344" stroke-width="10" stroke="black"/>
<line x1="256" y1="512" x2="224" y2="512" stroke-width="10" stroke="black"/>
<line x1="576" y1="192" x2="96" y2="192" stroke-width="10" stroke="black"/>
<line x1="832" y1="448" x2="576" y2="192" stroke-width="10" stroke="black"/>
<line x1="832" y1="832" x2="832" y2="448" stroke-width="10" stroke="black"/>
<line x1="96" y1="192" x2="-256" y2="192" stroke-width="10" stroke="black"/>
<line x1="-1600" y1="1024" x2="-1408" y2="0" stroke-width="10" stroke="black"/>
<line x1="-512" y1="832" x2="-1600" y2="1024" stroke-width="10" stroke="black"/>
<line x1="-128" y1="320" x2="-384" y2="512" stroke-width="10" stroke="black"/>
<line x1="-256" y1="192" x2="-512" y2="448" stroke-width="10" stroke="black"/>
<line x1="-512" y1="448" x2="-512" y2="832" stroke-width="10" stroke="black"/>
<line x1="64" y1="512" x2="-128" y2="320" stroke-width="10" stroke="black"/>
<line x1="96" y1="1344" x2="96" y2="512" stroke-width="10" stroke="black"/>
<line x1="96" y1="1360" x2="224" y2="1360" stroke-width="10" stroke="black"/>
<line x1="224" y1="1344" x2="96" y2="1344" stroke-width="10" stroke="black"/>
<line x1="-1024" y1="0" x2="-1408" y2="0" stroke-width="10" stroke="black"/>

</svg>

