<svg width="900" height="929" preserveAspectRatio="none" viewBox="-1866 -3970 5900 6084"
 xmlns="http://www.w3.org/2000/svg" xmlns:xlink="http://www.w3.org/1999/xlink">
   <defs>
    <marker id="arrow" markerWidth="10" markerHeight="10" refX="0" refY="2" orient="auto" markerUnits="strokeWidth">
      <path d="M0,0 L0,4 L5,3 z" fill="#f00" />
    </marker>
  </defs>

<line x1="-704" y1="-576" x2="-704" y2="-448" stroke-width="10" stroke="black"/>
<line x1="-576" y1="-448" x2="-576" y2="-576" stroke-width="10" stroke="black"/>
<line x1="-576" y1="-640" x2="-704" y2="-640" stroke-width="10" stroke="black"/>
<line x1="-224" y1="-736" x2="-480" y2="-736" stroke-width="10" stroke="black"/>
<line x1="-480" y1="-800" x2="-224" y2="-800" stroke-width="10" stroke="black"/>
<line x1="-576" y1="-640" x2="-576" y2="-576" stroke-width="10" stroke="black"/>
<line x1="-576" y1="-576" x2="-368" y2="-576" stroke-width="10" stroke="black"/>
<line x1="-376" y1="-112" x2="-224" y2="-64" stroke-width="10" stroke="black"/>
<line x1="-224" y1="-192" x2="-320" y2="-216" stroke-width="10" stroke="black"/>
<line x1="-552" y1="-200" x2="-376" y2="-112" stroke-width="10" stroke="black"/>
<line x1="-320" y1="-216" x2="-440" y2="-280" stroke-width="10" stroke="black"/>
<line x1="-376" y1="-112" x2="-320" y2="-216" stroke-width="10" stroke="black"/>
<line x1="-970" y1="-64" x2="-1023" y2="-128" stroke-width="10" stroke="black"/>
<line x1="-768" y1="-64" x2="-832" y2="-320" stroke-width="10" stroke="black"/>
<line x1="-856" y1="-320" x2="-832" y2="-64" stroke-width="10" stroke="black"/>
<line x1="-440" y1="-280" x2="-520" y2="-360" stroke-width="10" stroke="black"/>
<line x1="-704" y1="-448" x2="-624" y2="-288" stroke-width="10" stroke="black"/>
<line x1="-520" y1="-360" x2="-576" y2="-448" stroke-width="10" stroke="black"/>
<line x1="-624" y1="-288" x2="-520" y2="-360" stroke-width="10" stroke="black"/>
<line x1="-624" y1="-288" x2="-552" y2="-200" stroke-width="10" stroke="black"/>
<line x1="-552" y1="-200" x2="-440" y2="-280" stroke-width="10" stroke="black"/>
<line x1="-576" y1="-448" x2="-704" y2="-448" stroke-width="10" stroke="black"/>
<line x1="-120" y1="-192" x2="-128" y2="-64" stroke-width="10" stroke="black"/>
<line x1="0" y1="-64" x2="0" y2="-192" stroke-width="10" stroke="black"/>
<line x1="128" y1="-208" x2="64" y2="-208" stroke-width="10" stroke="black"/>
<line x1="0" y1="-256" x2="-120" y2="-192" stroke-width="10" stroke="black"/>
<line x1="-224" y1="-526" x2="-160" y2="-504" stroke-width="10" stroke="black"/>
<line x1="64" y1="-192" x2="64" y2="-208" stroke-width="10" stroke="black"/>
<line x1="384" y1="-263" x2="152" y2="-488" stroke-width="10" stroke="black"/>
<line x1="0" y1="-192" x2="64" y2="-192" stroke-width="10" stroke="black"/>
<line x1="-224" y1="-192" x2="-224" y2="-64" stroke-width="10" stroke="black"/>
<line x1="224" y1="1600" x2="288" y2="1512" stroke-width="10" stroke="black"/>
<line x1="384" y1="1696" x2="288" y2="1696" stroke-width="10" stroke="black"/>
<line x1="288" y1="1512" x2="384" y2="1512" stroke-width="10" stroke="black"/>
<line x1="288" y1="1696" x2="224" y2="1600" stroke-width="10" stroke="black"/>
<line x1="160" y1="448" x2="160" y2="456" stroke-width="10" stroke="black"/>
<line x1="224" y1="456" x2="224" y2="448" stroke-width="10" stroke="black"/>
<line x1="160" y1="456" x2="224" y2="456" stroke-width="10" stroke="black"/>
<line x1="256" y1="432" x2="384" y2="432" stroke-width="10" stroke="black"/>
<line x1="-640" y1="448" x2="160" y2="448" stroke-width="10" stroke="black"/>
<line x1="128" y1="-32" x2="64" y2="-64" stroke-width="10" stroke="black"/>
<line x1="0" y1="0" x2="-64" y2="96" stroke-width="10" stroke="black"/>
<line x1="-64" y1="192" x2="128" y2="64" stroke-width="10" stroke="black"/>
<line x1="256" y1="128" x2="224" y2="64" stroke-width="10" stroke="black"/>
<line x1="256" y1="416" x2="256" y2="128" stroke-width="10" stroke="black"/>
<line x1="128" y1="64" x2="128" y2="256" stroke-width="10" stroke="black"/>
<line x1="-640" y1="96" x2="-768" y2="-64" stroke-width="10" stroke="black"/>
<line x1="-576" y1="192" x2="-64" y2="192" stroke-width="10" stroke="black"/>
<line x1="-128" y1="-64" x2="-64" y2="96" stroke-width="10" stroke="black"/>
<line x1="-1024" y1="-64" x2="-768" y2="256" stroke-width="10" stroke="black"/>
<line x1="-704" y1="256" x2="-970" y2="-64" stroke-width="10" stroke="black"/>
<line x1="-64" y1="192" x2="-64" y2="96" stroke-width="10" stroke="black"/>
<line x1="256" y1="416" x2="384" y2="416" stroke-width="10" stroke="black"/>
<line x1="64" y1="-64" x2="0" y2="-64" stroke-width="10" stroke="black"/>
<line x1="-768" y1="-1856" x2="-768" y2="-1920" stroke-width="10" stroke="black"/>
<line x1="-776" y1="-1920" x2="-776" y2="-1856" stroke-width="10" stroke="black"/>
<line x1="-704" y1="-1984" x2="-704" y2="-2008" stroke-width="10" stroke="black"/>
<line x1="-704" y1="-2008" x2="-640" y2="-2008" stroke-width="10" stroke="black"/>
<line x1="-704" y1="-2016" x2="-768" y2="-2016" stroke-width="10" stroke="black"/>
<line x1="-832" y1="-1920" x2="-776" y2="-1920" stroke-width="10" stroke="black"/>
<line x1="-576" y1="-1920" x2="-576" y2="-1856" stroke-width="10" stroke="black"/>
<line x1="-640" y1="-1984" x2="-576" y2="-1920" stroke-width="10" stroke="black"/>
<line x1="-576" y1="-1856" x2="-640" y2="-1792" stroke-width="10" stroke="black"/>
<line x1="-560" y1="-1792" x2="-560" y2="-1984" stroke-width="10" stroke="black"/>
<line x1="-576" y1="-2016" x2="-640" y2="-2016" stroke-width="10" stroke="black"/>
<line x1="-192" y1="-1920" x2="-384" y2="-1920" stroke-width="10" stroke="black"/>
<line x1="-64" y1="-1792" x2="128" y2="-1856" stroke-width="10" stroke="black"/>
<line x1="128" y1="-1856" x2="128" y2="-1792" stroke-width="10" stroke="black"/>
<line x1="-448" y1="-1920" x2="-448" y2="-1856" stroke-width="10" stroke="black"/>
<line x1="-640" y1="-2008" x2="-640" y2="-1984" stroke-width="10" stroke="black"/>
<line x1="-128" y1="-2880" x2="-256" y2="-2880" stroke-width="10" stroke="black"/>
<line x1="-128" y1="-2752" x2="-128" y2="-2880" stroke-width="10" stroke="black"/>
<line x1="-448" y1="-3136" x2="-576" y2="-3136" stroke-width="10" stroke="black"/>
<line x1="-576" y1="-3008" x2="-448" y2="-3008" stroke-width="10" stroke="black"/>
<line x1="-448" y1="-3008" x2="-448" y2="-3136" stroke-width="10" stroke="black"/>
<line x1="-576" y1="-2624" x2="-576" y2="-2752" stroke-width="10" stroke="black"/>
<line x1="-704" y1="-2624" x2="-576" y2="-2624" stroke-width="10" stroke="black"/>
<line x1="-576" y1="-2752" x2="-704" y2="-2752" stroke-width="10" stroke="black"/>
<line x1="-1088" y1="-2944" x2="-1216" y2="-2944" stroke-width="10" stroke="black"/>
<line x1="-1216" y1="-2816" x2="-1088" y2="-2816" stroke-width="10" stroke="black"/>
<line x1="-1088" y1="-2816" x2="-1088" y2="-2944" stroke-width="10" stroke="black"/>
<line x1="-640" y1="-2240" x2="-704" y2="-2240" stroke-width="10" stroke="black"/>
<line x1="-640" y1="-2176" x2="-640" y2="-2240" stroke-width="10" stroke="black"/>
<line x1="-704" y1="-2240" x2="-704" y2="-2176" stroke-width="10" stroke="black"/>
<line x1="-768" y1="-2368" x2="-576" y2="-2368" stroke-width="10" stroke="black"/>
<line x1="-576" y1="-2368" x2="-448" y2="-2208" stroke-width="10" stroke="black"/>
<line x1="-896" y1="-2208" x2="-768" y2="-2368" stroke-width="10" stroke="black"/>
<line x1="-432" y1="-2208" x2="-432" y2="-2384" stroke-width="10" stroke="black"/>
<line x1="-912" y1="-2384" x2="-912" y2="-2208" stroke-width="10" stroke="black"/>
<line x1="-432" y1="-2384" x2="-912" y2="-2384" stroke-width="10" stroke="black"/>
<line x1="-704" y1="-2176" x2="-640" y2="-2176" stroke-width="10" stroke="black"/>
<line x1="-832" y1="-1720" x2="-704" y2="-1720" stroke-width="10" stroke="black"/>
<line x1="-640" y1="-1760" x2="-704" y2="-1760" stroke-width="10" stroke="black"/>
<line x1="-704" y1="-1744" x2="-640" y2="-1744" stroke-width="10" stroke="black"/>
<line x1="-128" y1="-1728" x2="-64" y2="-1792" stroke-width="10" stroke="black"/>
<line x1="51" y1="-1216" x2="281" y2="-1792" stroke-width="10" stroke="black"/>
<line x1="-384" y1="-1376" x2="-512" y2="-1216" stroke-width="10" stroke="black"/>
<line x1="-384" y1="-1592" x2="-384" y2="-1376" stroke-width="10" stroke="black"/>
<line x1="-504" y1="-1720" x2="-384" y2="-1592" stroke-width="10" stroke="black"/>
<line x1="-504" y1="-1720" x2="-368" y2="-1728" stroke-width="10" stroke="black"/>
<line x1="-368" y1="-1216" x2="-368" y2="-1728" stroke-width="10" stroke="black"/>
<line x1="-640" y1="-1792" x2="-640" y2="-1760" stroke-width="10" stroke="black"/>
<line x1="0" y1="-960" x2="384" y2="-960" stroke-width="10" stroke="black"/>
<line x1="0" y1="-1088" x2="0" y2="-960" stroke-width="10" stroke="black"/>
<line x1="-228" y1="-1088" x2="0" y2="-1088" stroke-width="10" stroke="black"/>
<line x1="-640" y1="-1088" x2="-228" y2="-1088" stroke-width="10" stroke="black"/>
<line x1="-640" y1="-1152" x2="-704" y2="-1152" stroke-width="10" stroke="black"/>
<line x1="-704" y1="-1136" x2="-640" y2="-1136" stroke-width="10" stroke="black"/>
<line x1="-120" y1="-896" x2="-192" y2="-1024" stroke-width="10" stroke="black"/>
<line x1="384" y1="-896" x2="-120" y2="-896" stroke-width="10" stroke="black"/>
<line x1="-120" y1="-1216" x2="-368" y2="-1216" stroke-width="10" stroke="black"/>
<line x1="-560" y1="-1792" x2="-640" y2="-1792" stroke-width="10" stroke="black"/>
<line x1="328" y1="-832" x2="384" y2="-832" stroke-width="10" stroke="black"/>
<line x1="2304" y1="-128" x2="2304" y2="64" stroke-width="10" stroke="black"/>
<line x1="2240" y1="-128" x2="2176" y2="-128" stroke-width="10" stroke="black"/>
<line x1="2368" y1="-576" x2="2368" y2="-384" stroke-width="10" stroke="black"/>
<line x1="2240" y1="-576" x2="2240" y2="-384" stroke-width="10" stroke="black"/>
<line x1="2240" y1="-384" x2="2304" y2="-384" stroke-width="10" stroke="black"/>
<line x1="2112" y1="-128" x2="2048" y2="-384" stroke-width="10" stroke="black"/>
<line x1="2112" y1="-576" x2="2112" y2="-384" stroke-width="10" stroke="black"/>
<line x1="1664" y1="-64" x2="1984" y2="64" stroke-width="10" stroke="black"/>
<line x1="2048" y1="-24" x2="1984" y2="64" stroke-width="10" stroke="black"/>
<line x1="1664" y1="-64" x2="2048" y2="-384" stroke-width="10" stroke="black"/>
<line x1="2048" y1="-384" x2="2048" y2="-576" stroke-width="10" stroke="black"/>
<line x1="2176" y1="-384" x2="2176" y2="-576" stroke-width="10" stroke="black"/>
<line x1="1664" y1="1194" x2="1792" y2="1279" stroke-width="10" stroke="black"/>
<line x1="2176" y1="960" x2="1984" y2="960" stroke-width="10" stroke="black"/>
<line x1="1984" y1="768" x2="2176" y2="768" stroke-width="10" stroke="black"/>
<line x1="1984" y1="832" x2="1984" y2="896" stroke-width="10" stroke="black"/>
<line x1="1984" y1="896" x2="2176" y2="896" stroke-width="10" stroke="black"/>
<line x1="1984" y1="576" x2="1984" y2="640" stroke-width="10" stroke="black"/>
<line x1="1984" y1="448" x2="1984" y2="512" stroke-width="10" stroke="black"/>
<line x1="1984" y1="512" x2="2176" y2="512" stroke-width="10" stroke="black"/>
<line x1="1984" y1="256" x2="2176" y2="256" stroke-width="10" stroke="black"/>
<line x1="1984" y1="320" x2="1984" y2="384" stroke-width="10" stroke="black"/>
<line x1="1984" y1="384" x2="2176" y2="384" stroke-width="10" stroke="black"/>
<line x1="1984" y1="640" x2="2176" y2="640" stroke-width="10" stroke="black"/>
<line x1="2304" y1="64" x2="2240" y2="64" stroke-width="10" stroke="black"/>
<line x1="2880" y1="-576" x2="2880" y2="-384" stroke-width="10" stroke="black"/>
<line x1="2752" y1="-384" x2="2816" y2="-384" stroke-width="10" stroke="black"/>
<line x1="2944" y1="-128" x2="2944" y2="64" stroke-width="10" stroke="black"/>
<line x1="2816" y1="-128" x2="2816" y2="64" stroke-width="10" stroke="black"/>
<line x1="2880" y1="-128" x2="2816" y2="-128" stroke-width="10" stroke="black"/>
<line x1="2560" y1="-384" x2="2560" y2="-576" stroke-width="10" stroke="black"/>
<line x1="2688" y1="-384" x2="2688" y2="-576" stroke-width="10" stroke="black"/>
<line x1="2624" y1="-576" x2="2624" y2="-384" stroke-width="10" stroke="black"/>
<line x1="2752" y1="64" x2="2752" y2="-128" stroke-width="10" stroke="black"/>
<line x1="3584" y1="-320" x2="3584" y2="-192" stroke-width="10" stroke="black"/>
<line x1="3584" y1="-192" x2="3408" y2="-192" stroke-width="10" stroke="black"/>
<line x1="3408" y1="-320" x2="3584" y2="-320" stroke-width="10" stroke="black"/>
<line x1="3408" y1="-168" x2="3616" y2="-168" stroke-width="10" stroke="black"/>
<line x1="3616" y1="-168" x2="3616" y2="-344" stroke-width="10" stroke="black"/>
<line x1="3616" y1="-344" x2="3408" y2="-344" stroke-width="10" stroke="black"/>
<line x1="3408" y1="-192" x2="3408" y2="-320" stroke-width="10" stroke="black"/>
<line x1="3200" y1="-128" x2="3136" y2="-128" stroke-width="10" stroke="black"/>
<line x1="3136" y1="-576" x2="3136" y2="-384" stroke-width="10" stroke="black"/>
<line x1="3264" y1="-576" x2="3264" y2="-320" stroke-width="10" stroke="black"/>
<line x1="3200" y1="-128" x2="3200" y2="64" stroke-width="10" stroke="black"/>
<line x1="3392" y1="-192" x2="3392" y2="-320" stroke-width="10" stroke="black"/>
<line x1="3072" y1="-128" x2="3072" y2="64" stroke-width="10" stroke="black"/>
<line x1="2496" y1="-576" x2="2496" y2="-384" stroke-width="10" stroke="black"/>
<line x1="448" y1="1696" x2="384" y2="1696" stroke-width="10" stroke="black"/>
<line x1="448" y1="1512" x2="512" y2="1600" stroke-width="10" stroke="black"/>
<line x1="384" y1="1512" x2="448" y2="1512" stroke-width="10" stroke="black"/>
<line x1="480" y1="456" x2="480" y2="448" stroke-width="10" stroke="black"/>
<line x1="416" y1="448" x2="416" y2="456" stroke-width="10" stroke="black"/>
<line x1="416" y1="456" x2="480" y2="456" stroke-width="10" stroke="black"/>
<line x1="512" y1="1600" x2="448" y2="1696" stroke-width="10" stroke="black"/>
<line x1="1472" y1="832" x2="1664" y2="832" stroke-width="10" stroke="black"/>
<line x1="1472" y1="576" x2="1664" y2="576" stroke-width="10" stroke="black"/>
<line x1="1472" y1="704" x2="1664" y2="704" stroke-width="10" stroke="black"/>
<line x1="1600" y1="1152" x2="1664" y2="1194" stroke-width="10" stroke="black"/>
<line x1="1288" y1="1152" x2="1288" y2="1280" stroke-width="10" stroke="black"/>
<line x1="1664" y1="896" x2="1472" y2="896" stroke-width="10" stroke="black"/>
<line x1="1280" y1="1152" x2="1280" y2="1280" stroke-width="10" stroke="black"/>
<line x1="480" y1="440" x2="416" y2="440" stroke-width="10" stroke="black"/>
<line x1="512" y1="320" x2="480" y2="384" stroke-width="10" stroke="black"/>
<line x1="480" y1="384" x2="416" y2="384" stroke-width="10" stroke="black"/>
<line x1="416" y1="424" x2="480" y2="424" stroke-width="10" stroke="black"/>
<line x1="614" y1="64" x2="512" y2="192" stroke-width="10" stroke="black"/>
<line x1="448" y1="256" x2="512" y2="256" stroke-width="10" stroke="black"/>
<line x1="512" y1="192" x2="448" y2="192" stroke-width="10" stroke="black"/>
<line x1="448" y1="320" x2="512" y2="320" stroke-width="10" stroke="black"/>
<line x1="416" y1="448" x2="480" y2="448" stroke-width="10" stroke="black"/>
<line x1="448" y1="-2048" x2="448" y2="-1536" stroke-width="10" stroke="black"/>
<line x1="448" y1="-1536" x2="512" y2="-1536" stroke-width="10" stroke="black"/>
<line x1="512" y1="-1536" x2="512" y2="-2048" stroke-width="10" stroke="black"/>
<line x1="384" y1="-960" x2="1024" y2="-960" stroke-width="10" stroke="black"/>
<line x1="1040" y1="-960" x2="1040" y2="-1088" stroke-width="10" stroke="black"/>
<line x1="1024" y1="-960" x2="1088" y2="-896" stroke-width="10" stroke="black"/>
<line x1="1024" y1="-1088" x2="1024" y2="-960" stroke-width="10" stroke="black"/>
<line x1="1024" y1="-1088" x2="384" y2="-1088" stroke-width="10" stroke="black"/>
<line x1="896" y1="-512" x2="416" y2="-232" stroke-width="10" stroke="black"/>
<line x1="960" y1="-512" x2="896" y2="-512" stroke-width="10" stroke="black"/>
<line x1="512" y1="0" x2="512" y2="-64" stroke-width="10" stroke="black"/>
<line x1="512" y1="-64" x2="640" y2="-64" stroke-width="10" stroke="black"/>
<line x1="704" y1="-96" x2="640" y2="-96" stroke-width="10" stroke="black"/>
<line x1="960" y1="-448" x2="448" y2="-176" stroke-width="10" stroke="black"/>
<line x1="1024" y1="-512" x2="1024" y2="-832" stroke-width="10" stroke="black"/>
<line x1="992" y1="-512" x2="1024" y2="-512" stroke-width="10" stroke="black"/>
<line x1="984" y1="-512" x2="984" y2="-448" stroke-width="10" stroke="black"/>
<line x1="960" y1="-512" x2="984" y2="-512" stroke-width="10" stroke="black"/>
<line x1="992" y1="-448" x2="992" y2="-512" stroke-width="10" stroke="black"/>
<line x1="960" y1="-576" x2="960" y2="-512" stroke-width="10" stroke="black"/>
<line x1="736" y1="-80" x2="976" y2="-272" stroke-width="10" stroke="black"/>
<line x1="640" y1="-32" x2="640" y2="32" stroke-width="10" stroke="black"/>
<line x1="960" y1="-288" x2="976" y2="-272" stroke-width="10" stroke="black"/>
<line x1="960" y1="-288" x2="720" y2="-96" stroke-width="10" stroke="black"/>
<line x1="960" y1="-896" x2="384" y2="-896" stroke-width="10" stroke="black"/>
<line x1="1472" y1="64" x2="1664" y2="64" stroke-width="10" stroke="black"/>
<line x1="1664" y1="960" x2="1664" y2="896" stroke-width="10" stroke="black"/>
<line x1="384" y1="192" x2="384" y2="416" stroke-width="10" stroke="black"/>

</svg>

