<svg width="900" height="929" preserveAspectRatio="none" viewBox="-1866 -3970 5900 6084"
 xmlns="http://www.w3.org/2000/svg" xmlns:xlink="http://www.w3.org/1999/xlink">
   <defs>
    <marker id="arrow" markerWidth="10" markerHeight="10" refX="0" refY="2" orient="auto" markerUnits="strokeWidth">
      <path d="M0,0 L0,4 L5,3 z" fill="#f00" />
    </marker>
  </defs>

<polygon points="-224,-448 -576,-448 -576,-576 -576,-576 -368,-576 -224,-526 " fill="rgb(22,239,22)" stroke="rgb(70,70,70)" stroke-width="10" stroke-linecap="round" />
<polygon points="-704,-576 -704,-576 -704,-448 -704,-448 -890,-448 -768,-560 " fill="rgb(232,15,232)" stroke="rgb(70,70,70)" stroke-width="10" stroke-linecap="round" />
<polygon points="-704,-576 -576,-576 -576,-576 -576,-448 -576,-448 -704,-448 -704,-448 -704,-576 " fill="rgb(251,251,34)" stroke="rgb(70,70,70)" stroke-width="10" stroke-linecap="round" />
<polygon points="-704,-640 -768,-704 -768,-832 -576,-832 -576,-640 -704,-640 " fill="rgb(228,11,11)" stroke="rgb(70,70,70)" stroke-width="10" stroke-linecap="round" />
<polygon points="-576,-640 -576,-640 -576,-576 -576,-576 -704,-576 -704,-640 " fill="rgb(22,239,22)" stroke="rgb(70,70,70)" stroke-width="10" stroke-linecap="round" />
<polygon points="-576,-736 -576,-800 -224,-800 -224,-800 -224,-736 -576,-736 " fill="rgb(251,251,34)" stroke="rgb(70,70,70)" stroke-width="10" stroke-linecap="round" />
<polygon points="-576,-640 -576,-736 -480,-736 " fill="rgb(251,251,34)" stroke="rgb(70,70,70)" stroke-width="10" stroke-linecap="round" />
<polygon points="-480,-800 -576,-800 -576,-832 -512,-832 " fill="rgb(3,3,220)" stroke="rgb(70,70,70)" stroke-width="10" stroke-linecap="round" />
<polygon points="-224,-192 -318,-215 -224,-394 -224,-192 " fill="rgb(3,3,220)" stroke="rgb(70,70,70)" stroke-width="10" stroke-linecap="round" />
<polygon points="-224,-64 -224,-64 -401,-64 -375,-111 -224,-64 " fill="rgb(228,11,11)" stroke="rgb(70,70,70)" stroke-width="10" stroke-linecap="round" />
<polygon points="-374,-111 -319,-215 -224,-192 -224,-192 -224,-64 -224,-64 -224,-64 -224,-64 " fill="rgb(3,3,220)" stroke="rgb(70,70,70)" stroke-width="10" stroke-linecap="round" />
<polygon points="-438,-279 -224,-434 -224,-394 -318,-215 " fill="rgb(3,3,220)" stroke="rgb(70,70,70)" stroke-width="10" stroke-linecap="round" />
<polygon points="-401,-64 -742,-64 -551,-199 -375,-111 " fill="rgb(26,243,243)" stroke="rgb(70,70,70)" stroke-width="10" stroke-linecap="round" />
<polygon points="-375,-111 -550,-199 -439,-279 -320,-215 " fill="rgb(232,15,232)" stroke="rgb(70,70,70)" stroke-width="10" stroke-linecap="round" />
<polygon points="-868,-448 -832,-64 -832,-64 -970,-64 -970,-64 -1023,-128 -960,-383 -890,-448 " fill="rgb(22,239,22)" stroke="rgb(70,70,70)" stroke-width="10" stroke-linecap="round" />
<polygon points="-1024,-64 -1024,-128 -970,-64 -970,-64 " fill="rgb(26,243,243)" stroke="rgb(70,70,70)" stroke-width="10" stroke-linecap="round" />
<polygon points="-864,-448 -864,-448 -754,-448 -551,-198 -742,-64 -768,-64 " fill="rgb(251,251,34)" stroke="rgb(70,70,70)" stroke-width="10" stroke-linecap="round" />
<polygon points="-856,-320 -868,-448 -864,-448 -832,-320 " fill="rgb(22,239,22)" stroke="rgb(70,70,70)" stroke-width="10" stroke-linecap="round" />
<polygon points="-224,-434 -439,-279 -519,-359 -519,-359 -392,-448 -224,-448 " fill="rgb(232,15,232)" stroke="rgb(70,70,70)" stroke-width="10" stroke-linecap="round" />
<polygon points="-519,-359 -440,-280 -440,-280 -551,-200 -623,-288 " fill="rgb(251,251,34)" stroke="rgb(70,70,70)" stroke-width="10" stroke-linecap="round" />
<polygon points="-576,-448 -576,-448 -392,-448 -519,-359 " fill="rgb(251,251,34)" stroke="rgb(70,70,70)" stroke-width="10" stroke-linecap="round" />
<polygon points="-626,-292 -754,-448 -704,-448 -704,-448 " fill="rgb(3,3,220)" stroke="rgb(70,70,70)" stroke-width="10" stroke-linecap="round" />
<polygon points="-576,-448 -576,-448 -519,-359 -623,-288 -625,-291 -704,-448 -704,-448 -576,-448 " fill="rgb(22,239,22)" stroke="rgb(70,70,70)" stroke-width="10" stroke-linecap="round" />
<polygon points="0,-192 0,-192 128,-192 128,-192 128,-192 256,-128 320,-64 0,-64 0,-64 " fill="rgb(251,251,34)" stroke="rgb(70,70,70)" stroke-width="10" stroke-linecap="round" />
<polygon points="-120,-192 -120,-192 -128,-64 -128,-64 -224,-64 -224,-64 -224,-192 -224,-192 " fill="rgb(232,15,232)" stroke="rgb(70,70,70)" stroke-width="10" stroke-linecap="round" />
<polygon points="-120,-192 -120,-192 0,-192 0,-64 0,-64 -128,-64 " fill="rgb(232,15,232)" stroke="rgb(70,70,70)" stroke-width="10" stroke-linecap="round" />
<polygon points="384,-262 151,-487 328,-832 384,-832 384,-832 384,-263 " fill="rgb(232,15,232)" stroke="rgb(70,70,70)" stroke-width="10" stroke-linecap="round" />
<polygon points="64,-208 64,-569 64,-569 115,-523 128,-510 128,-208 64,-208 " fill="rgb(3,3,220)" stroke="rgb(70,70,70)" stroke-width="10" stroke-linecap="round" />
<polygon points="64,-208 64,-208 128,-208 128,-208 128,-192 64,-192 64,-192 " fill="rgb(3,3,220)" stroke="rgb(70,70,70)" stroke-width="10" stroke-linecap="round" />
<polygon points="-32,-384 0,-255 -120,-192 -120,-192 -224,-192 -224,-192 -224,-526 -160,-504 " fill="rgb(26,243,243)" stroke="rgb(70,70,70)" stroke-width="10" stroke-linecap="round" />
<polygon points="-120,-192 -120,-192 0,-255 0,-192 " fill="rgb(3,3,220)" stroke="rgb(70,70,70)" stroke-width="10" stroke-linecap="round" />
<polygon points="-224,-736 -224,-800 -192,-800 64,-569 64,-480 " fill="rgb(26,243,243)" stroke="rgb(70,70,70)" stroke-width="10" stroke-linecap="round" />
<polygon points="288,1512 288,1512 384,1512 384,1512 384,1696 288,1696 223,1600 " fill="rgb(3,3,220)" stroke="rgb(70,70,70)" stroke-width="10" stroke-linecap="round" />
<polygon points="165,1512 288,1512 288,1512 223,1600 " fill="rgb(232,15,232)" stroke="rgb(70,70,70)" stroke-width="10" stroke-linecap="round" />
<polygon points="384,1696 384,1840 287,1696 384,1696 " fill="rgb(228,11,11)" stroke="rgb(70,70,70)" stroke-width="10" stroke-linecap="round" />
<polygon points="384,456 384,456 384,1512 165,1512 165,1512 -538,456 384,456 " fill="rgb(228,11,11)" stroke="rgb(70,70,70)" stroke-width="10" stroke-linecap="round" />
<polygon points="-640,456 -538,456 384,1840 384,1840 384,1984 64,1984 -640,1280 " fill="rgb(3,3,220)" stroke="rgb(70,70,70)" stroke-width="10" stroke-linecap="round" />
<polygon points="384,448 384,448 384,456 224,456 224,456 224,448 224,448 384,448 " fill="rgb(228,11,11)" stroke="rgb(70,70,70)" stroke-width="10" stroke-linecap="round" />
<polygon points="160,448 160,448 160,456 160,456 -640,456 -640,448 " fill="rgb(228,11,11)" stroke="rgb(70,70,70)" stroke-width="10" stroke-linecap="round" />
<polygon points="224,448 224,456 224,456 160,456 160,456 160,448 160,448 224,448 " fill="rgb(232,15,232)" stroke="rgb(70,70,70)" stroke-width="10" stroke-linecap="round" />
<polygon points="384,432 384,448 384,448 256,448 256,432 384,432 " fill="rgb(3,3,220)" stroke="rgb(70,70,70)" stroke-width="10" stroke-linecap="round" />
<polygon points="384,432 256,432 256,432 256,416 384,416 384,416 384,432 " fill="rgb(26,243,243)" stroke="rgb(70,70,70)" stroke-width="10" stroke-linecap="round" />
<polygon points="-64,256 -64,192 128,64 128,64 128,256 128,256 " fill="rgb(232,15,232)" stroke="rgb(70,70,70)" stroke-width="10" stroke-linecap="round" />
<polygon points="-64,-64 0,-64 0,0 -64,96 -64,96 " fill="rgb(26,243,243)" stroke="rgb(70,70,70)" stroke-width="10" stroke-linecap="round" />
<polygon points="64,-64 128,-64 128,-32 64,-64 " fill="rgb(26,243,243)" stroke="rgb(70,70,70)" stroke-width="10" stroke-linecap="round" />
<polygon points="0,0 128,64 128,64 -64,192 -64,192 -64,96 -64,96 -64,96 " fill="rgb(22,239,22)" stroke="rgb(70,70,70)" stroke-width="10" stroke-linecap="round" />
<polygon points="384,416 256,416 256,416 256,-64 256,-64 320,-64 384,64 384,416 " fill="rgb(3,3,220)" stroke="rgb(70,70,70)" stroke-width="10" stroke-linecap="round" />
<polygon points="160,-64 160,-64 256,-64 256,128 " fill="rgb(228,11,11)" stroke="rgb(70,70,70)" stroke-width="10" stroke-linecap="round" />
<polygon points="128,-32 128,-64 160,-64 224,64 " fill="rgb(3,3,220)" stroke="rgb(70,70,70)" stroke-width="10" stroke-linecap="round" />
<polygon points="-757,192 -757,192 -64,192 -64,192 -64,256 -703,256 " fill="rgb(228,11,11)" stroke="rgb(70,70,70)" stroke-width="10" stroke-linecap="round" />
<polygon points="-768,-64 -128,-64 -128,-64 -64,96 -64,96 -64,96 -262,151 -463,159 -639,96 -768,-64 " fill="rgb(228,11,11)" stroke="rgb(70,70,70)" stroke-width="10" stroke-linecap="round" />
<polygon points="-970,-64 -970,-64 -832,-64 -576,192 -757,192 " fill="rgb(26,243,243)" stroke="rgb(70,70,70)" stroke-width="10" stroke-linecap="round" />
<polygon points="-128,-64 -64,-64 -64,96 -128,-64 " fill="rgb(228,11,11)" stroke="rgb(70,70,70)" stroke-width="10" stroke-linecap="round" />
<polygon points="-1024,-64 -1024,-64 -768,256 -1024,256 " fill="rgb(228,11,11)" stroke="rgb(70,70,70)" stroke-width="10" stroke-linecap="round" />
<polygon points="-704,256 -768,256 -1024,-64 -1024,-64 -970,-64 " fill="rgb(3,3,220)" stroke="rgb(70,70,70)" stroke-width="10" stroke-linecap="round" />
<polygon points="-776,-1920 -776,-1856 -776,-1856 -832,-1856 -832,-1920 -776,-1920 " fill="rgb(251,251,34)" stroke="rgb(70,70,70)" stroke-width="10" stroke-linecap="round" />
<polygon points="-768,-1920 -768,-1920 -640,-1920 -640,-1792 -704,-1792 -768,-1856 " fill="rgb(251,251,34)" stroke="rgb(70,70,70)" stroke-width="10" stroke-linecap="round" />
<polygon points="-776,-1920 -768,-1920 -768,-1920 -768,-1856 -776,-1856 -776,-1920 " fill="rgb(228,11,11)" stroke="rgb(70,70,70)" stroke-width="10" stroke-linecap="round" />
<polygon points="-874,-2176 -640,-2176 -640,-2176 -640,-2016 -768,-2016 " fill="rgb(22,239,22)" stroke="rgb(70,70,70)" stroke-width="10" stroke-linecap="round" />
<polygon points="-704,-2008 -640,-2008 -640,-2008 -640,-1920 -640,-1920 -704,-1920 -704,-2008 " fill="rgb(228,11,11)" stroke="rgb(70,70,70)" stroke-width="10" stroke-linecap="round" />
<polygon points="-768,-1920 -704,-1984 -704,-1920 " fill="rgb(3,3,220)" stroke="rgb(70,70,70)" stroke-width="10" stroke-linecap="round" />
<polygon points="-640,-2016 -640,-2008 -640,-2008 -704,-2008 -704,-2008 -704,-2016 -640,-2016 " fill="rgb(228,11,11)" stroke="rgb(70,70,70)" stroke-width="10" stroke-linecap="round" />
<polygon points="-640,-2016 -640,-2016 -640,-2176 -469,-2176 -576,-2016 " fill="rgb(228,11,11)" stroke="rgb(70,70,70)" stroke-width="10" stroke-linecap="round" />
<polygon points="-512,-1792 -560,-1792 -560,-1792 -560,-1984 -512,-1984 -448,-1920 -448,-1856 " fill="rgb(26,243,243)" stroke="rgb(70,70,70)" stroke-width="10" stroke-linecap="round" />
<polygon points="-576,-1856 -576,-1856 -640,-1792 -640,-1792 -640,-1792 -640,-1984 -576,-1920 -576,-1920 " fill="rgb(228,11,11)" stroke="rgb(70,70,70)" stroke-width="10" stroke-linecap="round" />
<polygon points="-560,-1904 -560,-1872 -560,-1872 -576,-1856 -576,-1920 -576,-1920 " fill="rgb(232,15,232)" stroke="rgb(70,70,70)" stroke-width="10" stroke-linecap="round" />
<polygon points="-560,-1984 -560,-1904 -560,-1904 -640,-1984 -640,-1984 -640,-1984 " fill="rgb(228,11,11)" stroke="rgb(70,70,70)" stroke-width="10" stroke-linecap="round" />
<polygon points="-560,-1872 -560,-1872 -560,-1792 -560,-1792 -640,-1792 -640,-1792 -640,-1792 " fill="rgb(22,239,22)" stroke="rgb(70,70,70)" stroke-width="10" stroke-linecap="round" />
<polygon points="128,-1792 -64,-1792 128,-1856 128,-1856 128,-1792 " fill="rgb(228,11,11)" stroke="rgb(70,70,70)" stroke-width="10" stroke-linecap="round" />
<polygon points="102,-1920 -384,-1920 -384,-1920 -384,-2176 0,-2176 0,-2176 " fill="rgb(3,3,220)" stroke="rgb(70,70,70)" stroke-width="10" stroke-linecap="round" />
<polygon points="102,-1920 128,-1856 128,-1856 -64,-1792 -64,-1792 -64,-1792 -192,-1920 " fill="rgb(228,11,11)" stroke="rgb(70,70,70)" stroke-width="10" stroke-linecap="round" />
<polygon points="384,-2048 384,-1792 281,-1792 " fill="rgb(228,11,11)" stroke="rgb(70,70,70)" stroke-width="10" stroke-linecap="round" />
<polygon points="384,-2816 342,-2752 -128,-2752 -128,-3328 -128,-3328 384,-2816 " fill="rgb(232,15,232)" stroke="rgb(70,70,70)" stroke-width="10" stroke-linecap="round" />
<polygon points="-128,-3328 -128,-2880 -448,-2880 -448,-2880 -448,-3648 -448,-3648 " fill="rgb(3,3,220)" stroke="rgb(70,70,70)" stroke-width="10" stroke-linecap="round" />
<polygon points="-448,-2880 -256,-2880 -256,-2752 -448,-2752 " fill="rgb(232,15,232)" stroke="rgb(70,70,70)" stroke-width="10" stroke-linecap="round" />
<polygon points="-1088,-3008 -448,-3008 -448,-3008 -448,-2752 -1088,-2752 -1088,-2752 -1088,-3008 " fill="rgb(22,239,22)" stroke="rgb(70,70,70)" stroke-width="10" stroke-linecap="round" />
<polygon points="-640,-3840 -448,-3648 -448,-3136 -1088,-3136 -1088,-3136 -1088,-3421 -640,-3840 " fill="rgb(22,239,22)" stroke="rgb(70,70,70)" stroke-width="10" stroke-linecap="round" />
<polygon points="-576,-3136 -576,-3008 -1088,-3008 -1088,-3136 " fill="rgb(22,239,22)" stroke="rgb(70,70,70)" stroke-width="10" stroke-linecap="round" />
<polygon points="-1088,-2384 -1088,-2384 -1088,-2624 260,-2624 260,-2624 105,-2384 " fill="rgb(22,239,22)" stroke="rgb(70,70,70)" stroke-width="10" stroke-linecap="round" />
<polygon points="342,-2752 342,-2752 260,-2624 -576,-2624 -576,-2752 -576,-2752 " fill="rgb(251,251,34)" stroke="rgb(70,70,70)" stroke-width="10" stroke-linecap="round" />
<polygon points="-704,-2624 -1088,-2624 -1088,-2752 -704,-2752 " fill="rgb(26,243,243)" stroke="rgb(70,70,70)" stroke-width="10" stroke-linecap="round" />
<polygon points="-1457,-2384 -1736,-2816 -1736,-2816 -1088,-2816 -1088,-2816 -1088,-2384 " fill="rgb(228,11,11)" stroke="rgb(70,70,70)" stroke-width="10" stroke-linecap="round" />
<polygon points="-1598,-2944 -1088,-3421 -1088,-2944 -1598,-2944 " fill="rgb(3,3,220)" stroke="rgb(70,70,70)" stroke-width="10" stroke-linecap="round" />
<polygon points="-1216,-2816 -1736,-2816 -1736,-2816 -1599,-2944 -1216,-2944 " fill="rgb(3,3,220)" stroke="rgb(70,70,70)" stroke-width="10" stroke-linecap="round" />
<polygon points="-1343,-2208 -1457,-2384 -912,-2384 -912,-2208 " fill="rgb(22,239,22)" stroke="rgb(70,70,70)" stroke-width="10" stroke-linecap="round" />
<polygon points="-8,-2208 -432,-2208 -432,-2384 -432,-2384 105,-2384 " fill="rgb(22,239,22)" stroke="rgb(70,70,70)" stroke-width="10" stroke-linecap="round" />
<polygon points="-704,-2176 -874,-2176 -895,-2207 -767,-2368 -704,-2368 -704,-2368 -704,-2176 " fill="rgb(22,239,22)" stroke="rgb(70,70,70)" stroke-width="10" stroke-linecap="round" />
<polygon points="-640,-2176 -640,-2368 -640,-2368 -576,-2368 -448,-2208 -469,-2176 " fill="rgb(228,11,11)" stroke="rgb(70,70,70)" stroke-width="10" stroke-linecap="round" />
<polygon points="-704,-2240 -704,-2368 -640,-2368 -640,-2368 -640,-2240 -704,-2240 " fill="rgb(3,3,220)" stroke="rgb(70,70,70)" stroke-width="10" stroke-linecap="round" />
<polygon points="-704,-2240 -704,-2240 -640,-2240 -640,-2240 -640,-2176 -640,-2176 -704,-2176 -704,-2176 " fill="rgb(22,239,22)" stroke="rgb(70,70,70)" stroke-width="10" stroke-linecap="round" />
<polygon points="-755,-2384 -588,-2384 -588,-2384 -575,-2368 -767,-2368 -767,-2368 " fill="rgb(251,251,34)" stroke="rgb(70,70,70)" stroke-width="10" stroke-linecap="round" />
<polygon points="-588,-2384 -432,-2384 -432,-2384 -432,-2208 -432,-2208 -447,-2208 " fill="rgb(251,251,34)" stroke="rgb(70,70,70)" stroke-width="10" stroke-linecap="round" />
<polygon points="-912,-2384 -755,-2384 -755,-2384 -895,-2208 -912,-2208 -912,-2384 " fill="rgb(228,11,11)" stroke="rgb(70,70,70)" stroke-width="10" stroke-linecap="round" />
<polygon points="-640,-1720 -640,-1720 -640,-1216 -832,-1216 -960,-1376 -960,-1592 -832,-1720 " fill="rgb(3,3,220)" stroke="rgb(70,70,70)" stroke-width="10" stroke-linecap="round" />
<polygon points="-640,-1744 -640,-1720 -640,-1720 -704,-1720 -704,-1744 -640,-1744 " fill="rgb(232,15,232)" stroke="rgb(70,70,70)" stroke-width="10" stroke-linecap="round" />
<polygon points="-640,-1760 -640,-1760 -704,-1760 -704,-1760 -704,-1792 -640,-1792 " fill="rgb(228,11,11)" stroke="rgb(70,70,70)" stroke-width="10" stroke-linecap="round" />
<polygon points="-640,-1744 -704,-1744 -704,-1744 -704,-1760 -640,-1760 -640,-1760 -640,-1744 " fill="rgb(3,3,220)" stroke="rgb(70,70,70)" stroke-width="10" stroke-linecap="round" />
<polygon points="281,-1792 384,-1792 384,-1216 51,-1216 281,-1792 " fill="rgb(232,15,232)" stroke="rgb(70,70,70)" stroke-width="10" stroke-linecap="round" />
<polygon points="-64,-1792 128,-1792 128,-1536 -120,-1216 -368,-1216 -368,-1216 -368,-1488 -368,-1488 -64,-1792 " fill="rgb(3,3,220)" stroke="rgb(70,70,70)" stroke-width="10" stroke-linecap="round" />
<polygon points="-368,-1728 -128,-1728 -368,-1488 -368,-1728 " fill="rgb(26,243,243)" stroke="rgb(70,70,70)" stroke-width="10" stroke-linecap="round" />
<polygon points="-504,-1720 -504,-1720 -384,-1591 -384,-1376 -384,-1376 -512,-1216 -512,-1216 -640,-1216 -640,-1712 " fill="rgb(228,11,11)" stroke="rgb(70,70,70)" stroke-width="10" stroke-linecap="round" />
<polygon points="-384,-1376 -384,-1216 -512,-1216 -512,-1216 -384,-1376 " fill="rgb(228,11,11)" stroke="rgb(70,70,70)" stroke-width="10" stroke-linecap="round" />
<polygon points="-384,-1591 -384,-1591 -368,-1574 -368,-1216 -368,-1216 -384,-1216 -384,-1216 " fill="rgb(26,243,243)" stroke="rgb(70,70,70)" stroke-width="10" stroke-linecap="round" />
<polygon points="-368,-1728 -368,-1728 -368,-1574 -368,-1574 -504,-1720 -504,-1720 " fill="rgb(3,3,220)" stroke="rgb(70,70,70)" stroke-width="10" stroke-linecap="round" />
<polygon points="-504,-1720 -640,-1712 -640,-1720 " fill="rgb(22,239,22)" stroke="rgb(70,70,70)" stroke-width="10" stroke-linecap="round" />
<polygon points="-228,-1088 -228,-1088 0,-1088 0,-1088 0,-896 0,-896 -120,-896 -120,-896 " fill="rgb(26,243,243)" stroke="rgb(70,70,70)" stroke-width="10" stroke-linecap="round" />
<polygon points="0,-896 0,-896 0,-960 384,-960 384,-960 384,-896 " fill="rgb(228,11,11)" stroke="rgb(70,70,70)" stroke-width="10" stroke-linecap="round" />
<polygon points="0,-960 0,-1088 0,-1088 384,-1088 384,-1088 384,-960 0,-960 " fill="rgb(22,239,22)" stroke="rgb(70,70,70)" stroke-width="10" stroke-linecap="round" />
<polygon points="51,-1216 384,-1216 384,-1088 0,-1088 " fill="rgb(251,251,34)" stroke="rgb(70,70,70)" stroke-width="10" stroke-linecap="round" />
<polygon points="-192,-1024 -704,-1024 -704,-1088 -228,-1088 -228,-1088 " fill="rgb(232,15,232)" stroke="rgb(70,70,70)" stroke-width="10" stroke-linecap="round" />
<polygon points="-640,-1136 -640,-1088 -704,-1088 -704,-1136 -640,-1136 " fill="rgb(26,243,243)" stroke="rgb(70,70,70)" stroke-width="10" stroke-linecap="round" />
<polygon points="-640,-1152 -704,-1152 -704,-1152 -832,-1216 -512,-1216 " fill="rgb(26,243,243)" stroke="rgb(70,70,70)" stroke-width="10" stroke-linecap="round" />
<polygon points="-640,-1136 -704,-1136 -704,-1136 -704,-1152 -640,-1152 -640,-1152 " fill="rgb(3,3,220)" stroke="rgb(70,70,70)" stroke-width="10" stroke-linecap="round" />
<polygon points="-704,-896 -576,-896 -512,-832 -768,-832 " fill="rgb(26,243,243)" stroke="rgb(70,70,70)" stroke-width="10" stroke-linecap="round" />
<polygon points="2176,-128 2176,-128 2176,-128 2176,-384 2496,-384 2496,-384 2496,-384 2496,-128 2176,-128 " fill="rgb(251,251,34)" stroke="rgb(70,70,70)" stroke-width="10" stroke-linecap="round" />
<polygon points="2240,-128 2304,-128 2304,64 2304,64 2240,64 2240,64 " fill="rgb(22,239,22)" stroke="rgb(70,70,70)" stroke-width="10" stroke-linecap="round" />
<polygon points="2368,-128 2432,-128 2432,64 2368,64 2368,64 " fill="rgb(3,3,220)" stroke="rgb(70,70,70)" stroke-width="10" stroke-linecap="round" />
<polygon points="2240,-384 2240,-384 2176,-384 2176,-576 2240,-576 " fill="rgb(3,3,220)" stroke="rgb(70,70,70)" stroke-width="10" stroke-linecap="round" />
<polygon points="2304,-576 2368,-576 2368,-384 2368,-384 2304,-384 " fill="rgb(3,3,220)" stroke="rgb(70,70,70)" stroke-width="10" stroke-linecap="round" />
<polygon points="2496,-384 2496,-384 2432,-384 2432,-576 2496,-576 " fill="rgb(232,15,232)" stroke="rgb(70,70,70)" stroke-width="10" stroke-linecap="round" />
<polygon points="2112,-576 2112,-128 2112,-128 2048,-384 2048,-384 2048,-576 " fill="rgb(232,15,232)" stroke="rgb(70,70,70)" stroke-width="10" stroke-linecap="round" />
<polygon points="2112,-128 2048,-24 2048,-384 2112,-128 2112,-128 " fill="rgb(3,3,220)" stroke="rgb(70,70,70)" stroke-width="10" stroke-linecap="round" />
<polygon points="2112,64 2112,-384 2112,-384 2176,-384 2176,64 2176,64 2112,64 " fill="rgb(22,239,22)" stroke="rgb(70,70,70)" stroke-width="10" stroke-linecap="round" />
<polygon points="1984,64 1984,64 1984,64 1664,64 1664,-64 1664,-64 1664,-64 " fill="rgb(22,239,22)" stroke="rgb(70,70,70)" stroke-width="10" stroke-linecap="round" />
<polygon points="2048,-24 1984,64 1984,64 1984,64 1664,-64 1664,-64 1664,-64 2048,-384 2048,-384 " fill="rgb(26,243,243)" stroke="rgb(70,70,70)" stroke-width="10" stroke-linecap="round" />
<polygon points="1984,64 1984,64 2048,-24 2048,-24 2048,64 2048,64 " fill="rgb(26,243,243)" stroke="rgb(70,70,70)" stroke-width="10" stroke-linecap="round" />
<polygon points="2048,-384 2048,-384 1664,-64 1664,-64 1664,-384 " fill="rgb(26,243,243)" stroke="rgb(70,70,70)" stroke-width="10" stroke-linecap="round" />
<polygon points="2176,896 2176,896 2176,960 1664,960 1664,960 1664,960 1664,896 1664,896 " fill="rgb(228,11,11)" stroke="rgb(70,70,70)" stroke-width="10" stroke-linecap="round" />
<polygon points="1664,1194 1664,1194 1792,1280 1664,1280 " fill="rgb(26,243,243)" stroke="rgb(70,70,70)" stroke-width="10" stroke-linecap="round" />
<polygon points="1664,1194 1664,960 1984,960 1984,960 1792,1279 1664,1194 " fill="rgb(228,11,11)" stroke="rgb(70,70,70)" stroke-width="10" stroke-linecap="round" />
<polygon points="1664,640 1664,640 1664,640 1984,640 1984,896 1984,896 1984,896 1664,896 1664,640 " fill="rgb(251,251,34)" stroke="rgb(70,70,70)" stroke-width="10" stroke-linecap="round" />
<polygon points="1984,832 1984,768 2176,768 2176,768 2176,832 " fill="rgb(26,243,243)" stroke="rgb(70,70,70)" stroke-width="10" stroke-linecap="round" />
<polygon points="2176,640 2176,640 2176,704 1984,704 1984,640 " fill="rgb(251,251,34)" stroke="rgb(70,70,70)" stroke-width="10" stroke-linecap="round" />
<polygon points="1984,640 1664,640 1664,512 1664,512 1984,512 1984,640 " fill="rgb(3,3,220)" stroke="rgb(70,70,70)" stroke-width="10" stroke-linecap="round" />
<polygon points="1984,576 1984,512 2176,512 2176,512 2176,576 " fill="rgb(251,251,34)" stroke="rgb(70,70,70)" stroke-width="10" stroke-linecap="round" />
<polygon points="1984,512 1984,512 1664,512 1664,384 1664,384 1984,384 " fill="rgb(22,239,22)" stroke="rgb(70,70,70)" stroke-width="10" stroke-linecap="round" />
<polygon points="1984,448 1984,384 2176,384 2176,384 2176,448 " fill="rgb(26,243,243)" stroke="rgb(70,70,70)" stroke-width="10" stroke-linecap="round" />
<polygon points="1984,384 1664,384 1664,64 1664,64 1664,64 1984,64 1984,384 1984,384 1984,384 " fill="rgb(22,239,22)" stroke="rgb(70,70,70)" stroke-width="10" stroke-linecap="round" />
<polygon points="1984,320 1984,256 2176,256 2176,256 2176,320 " fill="rgb(251,251,34)" stroke="rgb(70,70,70)" stroke-width="10" stroke-linecap="round" />
<polygon points="1984,192 1984,128 2176,128 2176,192 " fill="rgb(232,15,232)" stroke="rgb(70,70,70)" stroke-width="10" stroke-linecap="round" />
<polygon points="3072,-128 2752,-128 2752,-128 2752,-128 2752,-384 3072,-384 3072,-384 3072,-384 3072,-384 " fill="rgb(228,11,11)" stroke="rgb(70,70,70)" stroke-width="10" stroke-linecap="round" />
<polygon points="2880,-384 2880,-384 2816,-384 2816,-576 2880,-576 " fill="rgb(232,15,232)" stroke="rgb(70,70,70)" stroke-width="10" stroke-linecap="round" />
<polygon points="3008,-384 2944,-384 2944,-576 3008,-576 " fill="rgb(232,15,232)" stroke="rgb(70,70,70)" stroke-width="10" stroke-linecap="round" />
<polygon points="2816,64 2816,64 2752,64 2752,-128 2752,-128 2816,-128 " fill="rgb(228,11,11)" stroke="rgb(70,70,70)" stroke-width="10" stroke-linecap="round" />
<polygon points="2880,-128 2944,-128 2944,64 2944,64 2880,64 " fill="rgb(251,251,34)" stroke="rgb(70,70,70)" stroke-width="10" stroke-linecap="round" />
<polygon points="3008,64 3008,-128 3072,-128 3072,64 " fill="rgb(3,3,220)" stroke="rgb(70,70,70)" stroke-width="10" stroke-linecap="round" />
<polygon points="2560,-128 2560,-576 2624,-576 2624,-128 " fill="rgb(3,3,220)" stroke="rgb(70,70,70)" stroke-width="10" stroke-linecap="round" />
<polygon points="2560,-384 2560,64 2560,64 2496,64 2496,-384 2496,-384 " fill="rgb(228,11,11)" stroke="rgb(70,70,70)" stroke-width="10" stroke-linecap="round" />
<polygon points="2752,-128 2752,-128 2688,-128 2688,-576 2752,-576 " fill="rgb(3,3,220)" stroke="rgb(70,70,70)" stroke-width="10" stroke-linecap="round" />
<polygon points="2624,-384 2624,-384 2688,-384 2688,64 2688,64 2624,64 " fill="rgb(251,251,34)" stroke="rgb(70,70,70)" stroke-width="10" stroke-linecap="round" />
<polygon points="3408,-344 3408,-344 3456,-575 3862,-344 3408,-344 " fill="rgb(228,11,11)" stroke="rgb(70,70,70)" stroke-width="10" stroke-linecap="round" />
<polygon points="3862,-344 3904,-320 3904,-192 3616,-27 3616,-344 3616,-344 " fill="rgb(251,251,34)" stroke="rgb(70,70,70)" stroke-width="10" stroke-linecap="round" />
<polygon points="3616,-168 3616,-27 3455,63 3408,-168 3408,-168 3616,-168 " fill="rgb(232,15,232)" stroke="rgb(70,70,70)" stroke-width="10" stroke-linecap="round" />
<polygon points="3584,-320 3584,-192 3584,-192 3408,-192 3408,-192 3408,-320 3408,-320 3584,-320 " fill="rgb(228,11,11)" stroke="rgb(70,70,70)" stroke-width="10" stroke-linecap="round" />
<polygon points="3584,-320 3584,-320 3616,-320 3616,-192 3616,-192 3584,-192 " fill="rgb(232,15,232)" stroke="rgb(70,70,70)" stroke-width="10" stroke-linecap="round" />
<polygon points="3408,-168 3408,-168 3408,-192 3408,-192 3616,-192 3616,-192 3616,-168 3616,-168 " fill="rgb(232,15,232)" stroke="rgb(70,70,70)" stroke-width="10" stroke-linecap="round" />
<polygon points="3616,-344 3616,-344 3616,-320 3616,-320 3408,-320 3408,-320 3408,-344 3408,-344 " fill="rgb(22,239,22)" stroke="rgb(70,70,70)" stroke-width="10" stroke-linecap="round" />
<polygon points="3392,-320 3408,-320 3408,-192 3408,-192 3392,-192 " fill="rgb(232,15,232)" stroke="rgb(70,70,70)" stroke-width="10" stroke-linecap="round" />
<polygon points="3136,-128 3072,-128 3072,-576 3136,-576 " fill="rgb(232,15,232)" stroke="rgb(70,70,70)" stroke-width="10" stroke-linecap="round" />
<polygon points="3200,-384 3200,-128 3136,-128 3136,-128 3136,-384 " fill="rgb(22,239,22)" stroke="rgb(70,70,70)" stroke-width="10" stroke-linecap="round" />
<polygon points="3136,-128 3136,-128 3200,-128 3200,-128 3200,64 3136,64 " fill="rgb(232,15,232)" stroke="rgb(70,70,70)" stroke-width="10" stroke-linecap="round" />
<polygon points="3264,-128 3264,-128 3200,-128 3200,-576 3264,-576 " fill="rgb(251,251,34)" stroke="rgb(70,70,70)" stroke-width="10" stroke-linecap="round" />
<polygon points="3392,-192 3264,-192 3264,-320 3392,-320 " fill="rgb(232,15,232)" stroke="rgb(70,70,70)" stroke-width="10" stroke-linecap="round" />
<polygon points="448,1512 448,1512 511,1599 447,1696 384,1696 384,1696 384,1512 448,1512 " fill="rgb(232,15,232)" stroke="rgb(70,70,70)" stroke-width="10" stroke-linecap="round" />
<polygon points="447,1696 384,1792 384,1696 447,1696 " fill="rgb(251,251,34)" stroke="rgb(70,70,70)" stroke-width="10" stroke-linecap="round" />
<polygon points="448,1512 448,1512 570,1512 511,1598 " fill="rgb(26,243,243)" stroke="rgb(70,70,70)" stroke-width="10" stroke-linecap="round" />
<polygon points="570,1512 384,1512 384,1512 384,456 1274,456 1274,456 1274,456 " fill="rgb(26,243,243)" stroke="rgb(70,70,70)" stroke-width="10" stroke-linecap="round" />
<polygon points="416,456 384,456 384,456 384,448 416,448 416,448 416,456 " fill="rgb(22,239,22)" stroke="rgb(70,70,70)" stroke-width="10" stroke-linecap="round" />
<polygon points="1280,448 1280,448 1274,456 480,456 480,448 480,448 1280,448 " fill="rgb(26,243,243)" stroke="rgb(70,70,70)" stroke-width="10" stroke-linecap="round" />
<polygon points="416,456 416,448 416,448 480,448 480,448 480,456 480,456 416,456 " fill="rgb(232,15,232)" stroke="rgb(70,70,70)" stroke-width="10" stroke-linecap="round" />
<polygon points="1280,448 1280,1280 1280,1280 576,1984 384,1984 384,1984 384,1792 1280,448 1280,448 " fill="rgb(3,3,220)" stroke="rgb(70,70,70)" stroke-width="10" stroke-linecap="round" />
<polygon points="1664,832 1664,832 1664,896 1664,896 1472,896 1472,832 " fill="rgb(22,239,22)" stroke="rgb(70,70,70)" stroke-width="10" stroke-linecap="round" />
<polygon points="1472,704 1664,704 1664,704 1664,768 1472,768 " fill="rgb(3,3,220)" stroke="rgb(70,70,70)" stroke-width="10" stroke-linecap="round" />
<polygon points="1472,640 1472,576 1664,576 1664,576 1664,640 " fill="rgb(228,11,11)" stroke="rgb(70,70,70)" stroke-width="10" stroke-linecap="round" />
<polygon points="1664,448 1664,448 1664,512 1472,512 1472,448 " fill="rgb(251,251,34)" stroke="rgb(70,70,70)" stroke-width="10" stroke-linecap="round" />
<polygon points="1288,1280 1288,1280 1280,1280 1280,1152 1288,1152 " fill="rgb(3,3,220)" stroke="rgb(70,70,70)" stroke-width="10" stroke-linecap="round" />
<polygon points="1288,1152 1600,1152 1664,1194 1664,1194 1664,1280 1288,1280 1288,1152 " fill="rgb(228,11,11)" stroke="rgb(70,70,70)" stroke-width="10" stroke-linecap="round" />
<polygon points="1664,1194 1664,1194 1600,1151 1664,960 " fill="rgb(228,11,11)" stroke="rgb(70,70,70)" stroke-width="10" stroke-linecap="round" />
<polygon points="480,424 480,424 480,440 416,440 416,424 " fill="rgb(22,239,22)" stroke="rgb(70,70,70)" stroke-width="10" stroke-linecap="round" />
<polygon points="480,440 480,440 480,448 416,448 416,440 " fill="rgb(26,243,243)" stroke="rgb(70,70,70)" stroke-width="10" stroke-linecap="round" />
<polygon points="480,384 480,384 416,384 416,384 448,320 512,320 512,320 " fill="rgb(22,239,22)" stroke="rgb(70,70,70)" stroke-width="10" stroke-linecap="round" />
<polygon points="1472,384 1472,320 1664,320 1664,320 1664,384 " fill="rgb(26,243,243)" stroke="rgb(70,70,70)" stroke-width="10" stroke-linecap="round" />
<polygon points="416,424 416,424 416,384 480,384 480,384 480,424 " fill="rgb(232,15,232)" stroke="rgb(70,70,70)" stroke-width="10" stroke-linecap="round" />
<polygon points="512,192 384,192 384,192 384,192 384,64 614,64 614,64 512,192 " fill="rgb(26,243,243)" stroke="rgb(70,70,70)" stroke-width="10" stroke-linecap="round" />
<polygon points="1472,128 1472,64 1664,64 1664,64 1664,128 " fill="rgb(232,15,232)" stroke="rgb(70,70,70)" stroke-width="10" stroke-linecap="round" />
<polygon points="512,256 512,320 448,320 448,320 448,256 " fill="rgb(228,11,11)" stroke="rgb(70,70,70)" stroke-width="10" stroke-linecap="round" />
<polygon points="1472,192 1664,192 1664,192 1664,256 1472,256 " fill="rgb(232,15,232)" stroke="rgb(70,70,70)" stroke-width="10" stroke-linecap="round" />
<polygon points="512,-1088 512,-2048 576,-2048 1024,-1088 512,-1088 " fill="rgb(228,11,11)" stroke="rgb(70,70,70)" stroke-width="10" stroke-linecap="round" />
<polygon points="384,-1088 384,-1088 384,-1536 512,-1536 512,-1536 512,-1088 " fill="rgb(228,11,11)" stroke="rgb(70,70,70)" stroke-width="10" stroke-linecap="round" />
<polygon points="384,-2048 448,-2048 448,-1536 448,-1536 384,-1536 " fill="rgb(228,11,11)" stroke="rgb(70,70,70)" stroke-width="10" stroke-linecap="round" />
<polygon points="512,-2048 512,-1536 512,-1536 448,-1536 448,-1536 448,-2048 " fill="rgb(22,239,22)" stroke="rgb(70,70,70)" stroke-width="10" stroke-linecap="round" />
<polygon points="384,-896 384,-896 384,-960 1024,-960 1024,-960 1024,-896 " fill="rgb(22,239,22)" stroke="rgb(70,70,70)" stroke-width="10" stroke-linecap="round" />
<polygon points="384,-1088 1024,-1088 1024,-1088 1024,-960 1024,-960 384,-960 384,-960 " fill="rgb(251,251,34)" stroke="rgb(70,70,70)" stroke-width="10" stroke-linecap="round" />
<polygon points="1088,-896 1024,-896 1024,-960 1088,-896 " fill="rgb(26,243,243)" stroke="rgb(70,70,70)" stroke-width="10" stroke-linecap="round" />
<polygon points="1040,-1088 1168,-1088 1168,-960 1040,-960 1040,-1088 " fill="rgb(228,11,11)" stroke="rgb(70,70,70)" stroke-width="10" stroke-linecap="round" />
<polygon points="1040,-1088 1040,-1088 1040,-960 1040,-960 1024,-960 1024,-960 1024,-1088 1024,-1088 " fill="rgb(26,243,243)" stroke="rgb(70,70,70)" stroke-width="10" stroke-linecap="round" />
<polygon points="960,-512 960,-512 384,-512 384,-512 384,-832 832,-832 960,-576 " fill="rgb(232,15,232)" stroke="rgb(70,70,70)" stroke-width="10" stroke-linecap="round" />
<polygon points="384,-512 896,-512 896,-512 415,-231 384,-263 " fill="rgb(251,251,34)" stroke="rgb(70,70,70)" stroke-width="10" stroke-linecap="round" />
<polygon points="960,-448 448,-176 416,-231 896,-512 896,-512 960,-512 960,-512 960,-448 " fill="rgb(251,251,34)" stroke="rgb(70,70,70)" stroke-width="10" stroke-linecap="round" />
<polygon points="960,-288 720,-96 720,-96 472,-96 472,-96 472,-96 472,-96 472,-96 448,-176 960,-448 960,-448 960,-288 " fill="rgb(228,11,11)" stroke="rgb(70,70,70)" stroke-width="10" stroke-linecap="round" />
<polygon points="512,-64 640,-64 640,-32 520,64 512,64 512,-64 " fill="rgb(251,251,34)" stroke="rgb(70,70,70)" stroke-width="10" stroke-linecap="round" />
<polygon points="448,64 512,0 512,64 " fill="rgb(228,11,11)" stroke="rgb(70,70,70)" stroke-width="10" stroke-linecap="round" />
<polygon points="640,-96 640,-64 512,-64 512,-96 640,-96 " fill="rgb(228,11,11)" stroke="rgb(70,70,70)" stroke-width="10" stroke-linecap="round" />
<polygon points="992,-512 992,-512 1088,-512 1088,-448 992,-448 " fill="rgb(232,15,232)" stroke="rgb(70,70,70)" stroke-width="10" stroke-linecap="round" />
<polygon points="1088,-512 1024,-512 1024,-896 1024,-896 1088,-896 " fill="rgb(228,11,11)" stroke="rgb(70,70,70)" stroke-width="10" stroke-linecap="round" />
<polygon points="992,-864 992,-896 1024,-896 1024,-832 " fill="rgb(232,15,232)" stroke="rgb(70,70,70)" stroke-width="10" stroke-linecap="round" />
<polygon points="984,-512 984,-512 984,-448 960,-448 960,-512 960,-512 " fill="rgb(232,15,232)" stroke="rgb(70,70,70)" stroke-width="10" stroke-linecap="round" />
<polygon points="992,-512 992,-512 992,-448 992,-448 984,-448 984,-512 984,-512 " fill="rgb(22,239,22)" stroke="rgb(70,70,70)" stroke-width="10" stroke-linecap="round" />
<polygon points="960,-896 960,-896 992,-896 992,-864 " fill="rgb(22,239,22)" stroke="rgb(70,70,70)" stroke-width="10" stroke-linecap="round" />
<polygon points="614,64 520,64 640,-31 640,32 " fill="rgb(232,15,232)" stroke="rgb(70,70,70)" stroke-width="10" stroke-linecap="round" />
<polygon points="736,-79 975,-271 976,-270 976,-48 736,-48 " fill="rgb(251,251,34)" stroke="rgb(70,70,70)" stroke-width="10" stroke-linecap="round" />
<polygon points="974,-271 735,-79 720,-95 960,-287 " fill="rgb(22,239,22)" stroke="rgb(70,70,70)" stroke-width="10" stroke-linecap="round" />
<polygon points="1664,-64 1664,0 1472,0 1472,-64 " fill="rgb(251,251,34)" stroke="rgb(70,70,70)" stroke-width="10" stroke-linecap="round" />

</svg>

