<svg width="900" height="450" preserveAspectRatio="none" viewBox="-1282 -514 2436 1348"
 xmlns="http://www.w3.org/2000/svg" xmlns:xlink="http://www.w3.org/1999/xlink">
   <defs>
    <marker id="arrow" markerWidth="10" markerHeight="10" refX="0" refY="2" orient="auto" markerUnits="strokeWidth">
      <path d="M0,0 L0,4 L5,3 z" fill="#f00" />
    </marker>
  </defs>

<polygon points="320,424 320,433 160,576 160,576 128,576 128,424 320,424 320,424 320,424 320,424 320,424 320,424 320,424 " fill="rgb(3,3,220)" stroke="rgb(70,70,70)" stroke-width="10" stroke-linecap="round" />
<polygon points="288,576 288,576 231,510 320,433 320,576 " fill="rgb(251,251,34)" stroke="rgb(70,70,70)" stroke-width="10" stroke-linecap="round" />
<polygon points="160,576 231,512 288,576 288,576 160,576 160,576 " fill="rgb(232,15,232)" stroke="rgb(70,70,70)" stroke-width="10" stroke-linecap="round" />
<polygon points="288,608 288,576 288,576 320,576 320,608 " fill="rgb(3,3,220)" stroke="rgb(70,70,70)" stroke-width="10" stroke-linecap="round" />
<polygon points="128,576 128,576 160,576 160,608 128,608 " fill="rgb(26,243,243)" stroke="rgb(70,70,70)" stroke-width="10" stroke-linecap="round" />
<polygon points="192,424 176,424 176,424 176,384 176,384 192,384 192,384 192,424 " fill="rgb(232,15,232)" stroke="rgb(70,70,70)" stroke-width="10" stroke-linecap="round" />
<polygon points="144,384 144,384 144,424 144,424 128,424 128,424 128,384 128,384 " fill="rgb(232,15,232)" stroke="rgb(70,70,70)" stroke-width="10" stroke-linecap="round" />
<polygon points="144,384 176,384 176,384 176,424 176,424 144,424 144,424 144,384 " fill="rgb(22,239,22)" stroke="rgb(70,70,70)" stroke-width="10" stroke-linecap="round" />
<polygon points="320,424 304,424 304,424 304,384 304,384 320,384 320,384 320,424 " fill="rgb(228,11,11)" stroke="rgb(70,70,70)" stroke-width="10" stroke-linecap="round" />
<polygon points="272,384 272,424 272,424 256,424 256,424 256,384 272,384 " fill="rgb(22,239,22)" stroke="rgb(70,70,70)" stroke-width="10" stroke-linecap="round" />
<polygon points="272,384 304,384 304,384 304,424 304,424 272,424 272,424 272,384 " fill="rgb(251,251,34)" stroke="rgb(70,70,70)" stroke-width="10" stroke-linecap="round" />
<polygon points="352,531 352,531 352,408 352,408 440,408 440,408 440,408 440,408 " fill="rgb(232,15,232)" stroke="rgb(70,70,70)" stroke-width="10" stroke-linecap="round" />
<polygon points="352,531 320,576 320,576 320,424 352,424 " fill="rgb(26,243,243)" stroke="rgb(70,70,70)" stroke-width="10" stroke-linecap="round" />
<polygon points="440,576 440,576 320,576 320,576 440,408 440,408 440,408 440,576 " fill="rgb(232,15,232)" stroke="rgb(70,70,70)" stroke-width="10" stroke-linecap="round" />
<polygon points="440,512 440,448 448,448 448,512 " fill="rgb(228,11,11)" stroke="rgb(70,70,70)" stroke-width="10" stroke-linecap="round" />
<polygon points="384,408 352,408 352,408 352,384 384,384 384,384 384,408 " fill="rgb(3,3,220)" stroke="rgb(70,70,70)" stroke-width="10" stroke-linecap="round" />
<polygon points="416,408 416,384 416,384 440,384 440,408 416,408 " fill="rgb(3,3,220)" stroke="rgb(70,70,70)" stroke-width="10" stroke-linecap="round" />
<polygon points="384,408 384,384 384,384 416,384 416,384 416,408 416,408 384,408 " fill="rgb(232,15,232)" stroke="rgb(70,70,70)" stroke-width="10" stroke-linecap="round" />
<polygon points="320,-128 128,-128 128,-128 128,-320 320,-320 320,-320 " fill="rgb(228,11,11)" stroke="rgb(70,70,70)" stroke-width="10" stroke-linecap="round" />
<polygon points="128,-384 192,-384 192,-384 192,-320 192,-320 128,-320 128,-384 " fill="rgb(228,11,11)" stroke="rgb(70,70,70)" stroke-width="10" stroke-linecap="round" />
<polygon points="320,-384 320,-384 320,-320 320,-320 256,-320 256,-384 " fill="rgb(26,243,243)" stroke="rgb(70,70,70)" stroke-width="10" stroke-linecap="round" />
<polygon points="384,-128 320,-128 320,-128 320,-320 384,-320 384,-128 384,-128 " fill="rgb(26,243,243)" stroke="rgb(70,70,70)" stroke-width="10" stroke-linecap="round" />
<polygon points="384,-192 384,-256 448,-256 448,-192 " fill="rgb(228,11,11)" stroke="rgb(70,70,70)" stroke-width="10" stroke-linecap="round" />
<polygon points="384,-32 384,-32 384,-32 448,-8 448,-8 448,64 448,64 128,64 128,64 128,64 128,64 128,-32 " fill="rgb(228,11,11)" stroke="rgb(70,70,70)" stroke-width="10" stroke-linecap="round" />
<polygon points="384,-32 448,-32 448,-8 448,-8 384,-32 " fill="rgb(26,243,243)" stroke="rgb(70,70,70)" stroke-width="10" stroke-linecap="round" />
<polygon points="448,-120 448,-32 448,-32 384,-32 384,-120 " fill="rgb(26,243,243)" stroke="rgb(70,70,70)" stroke-width="10" stroke-linecap="round" />
<polygon points="128,-128 128,-128 320,-128 320,-128 224,-32 224,-32 224,-32 128,-128 " fill="rgb(232,15,232)" stroke="rgb(70,70,70)" stroke-width="10" stroke-linecap="round" />
<polygon points="128,-32 176,-80 176,-80 224,-32 224,-32 128,-32 128,-32 " fill="rgb(26,243,243)" stroke="rgb(70,70,70)" stroke-width="10" stroke-linecap="round" />
<polygon points="160,-96 176,-80 160,-64 " fill="rgb(26,243,243)" stroke="rgb(70,70,70)" stroke-width="10" stroke-linecap="round" />
<polygon points="320,-32 224,-32 224,-32 272,-80 320,-32 " fill="rgb(228,11,11)" stroke="rgb(70,70,70)" stroke-width="10" stroke-linecap="round" />
<polygon points="288,-96 288,-64 272,-80 " fill="rgb(26,243,243)" stroke="rgb(70,70,70)" stroke-width="10" stroke-linecap="round" />
<polygon points="128,288 128,64 128,64 128,64 352,64 352,64 352,288 352,288 352,288 352,288 352,288 " fill="rgb(228,11,11)" stroke="rgb(70,70,70)" stroke-width="10" stroke-linecap="round" />
<polygon points="448,288 448,288 448,288 440,288 440,64 440,64 440,64 440,64 440,64 448,64 448,64 " fill="rgb(3,3,220)" stroke="rgb(70,70,70)" stroke-width="10" stroke-linecap="round" />
<polygon points="352,288 352,160 352,160 440,160 440,160 440,288 440,288 352,288 " fill="rgb(3,3,220)" stroke="rgb(70,70,70)" stroke-width="10" stroke-linecap="round" />
<polygon points="440,128 440,128 440,160 440,160 352,160 352,160 352,128 352,128 " fill="rgb(22,239,22)" stroke="rgb(70,70,70)" stroke-width="10" stroke-linecap="round" />
<polygon points="440,96 440,128 440,128 352,128 352,128 352,96 352,96 440,96 " fill="rgb(228,11,11)" stroke="rgb(70,70,70)" stroke-width="10" stroke-linecap="round" />
<polygon points="440,64 440,96 440,96 352,96 352,96 352,64 352,64 440,64 " fill="rgb(26,243,243)" stroke="rgb(70,70,70)" stroke-width="10" stroke-linecap="round" />
<polygon points="128,384 128,384 128,288 128,288 352,288 352,384 352,384 352,384 352,384 128,384 128,384 128,384 128,384 128,384 128,384 128,384 " fill="rgb(22,239,22)" stroke="rgb(70,70,70)" stroke-width="10" stroke-linecap="round" />
<polygon points="448,384 448,384 440,384 440,384 440,288 440,288 440,288 440,288 448,288 " fill="rgb(228,11,11)" stroke="rgb(70,70,70)" stroke-width="10" stroke-linecap="round" />
<polygon points="440,288 440,320 440,320 352,320 352,320 352,288 352,288 440,288 " fill="rgb(232,15,232)" stroke="rgb(70,70,70)" stroke-width="10" stroke-linecap="round" />
<polygon points="440,320 440,352 440,352 352,352 352,352 352,320 352,320 440,320 " fill="rgb(22,239,22)" stroke="rgb(70,70,70)" stroke-width="10" stroke-linecap="round" />
<polygon points="352,384 352,352 352,352 440,352 440,352 440,384 440,384 352,384 352,384 352,384 " fill="rgb(3,3,220)" stroke="rgb(70,70,70)" stroke-width="10" stroke-linecap="round" />
<polygon points="464,288 464,288 448,288 448,160 464,160 " fill="rgb(26,243,243)" stroke="rgb(70,70,70)" stroke-width="10" stroke-linecap="round" />
<polygon points="480,160 480,160 496,160 496,288 496,288 480,288 " fill="rgb(228,11,11)" stroke="rgb(70,70,70)" stroke-width="10" stroke-linecap="round" />
<polygon points="464,160 464,160 480,160 480,288 480,288 464,288 " fill="rgb(228,11,11)" stroke="rgb(70,70,70)" stroke-width="10" stroke-linecap="round" />
<polygon points="520,320 520,320 520,296 904,296 904,296 904,320 904,320 520,320 520,320 520,320 " fill="rgb(3,3,220)" stroke="rgb(70,70,70)" stroke-width="10" stroke-linecap="round" />
<polygon points="872,32 904,32 904,296 904,296 904,296 872,296 872,32 " fill="rgb(251,251,34)" stroke="rgb(70,70,70)" stroke-width="10" stroke-linecap="round" />
<polygon points="520,32 520,32 760,32 760,32 760,296 760,296 520,296 520,296 520,32 520,32 " fill="rgb(26,243,243)" stroke="rgb(70,70,70)" stroke-width="10" stroke-linecap="round" />
<polygon points="872,296 872,296 760,296 760,296 760,256 872,256 872,256 " fill="rgb(22,239,22)" stroke="rgb(70,70,70)" stroke-width="10" stroke-linecap="round" />
<polygon points="840,184 840,184 856,184 856,256 856,256 840,256 840,256 " fill="rgb(232,15,232)" stroke="rgb(70,70,70)" stroke-width="10" stroke-linecap="round" />
<polygon points="824,184 776,232 776,232 760,232 760,184 760,184 824,184 " fill="rgb(228,11,11)" stroke="rgb(70,70,70)" stroke-width="10" stroke-linecap="round" />
<polygon points="840,184 840,232 792,232 792,232 840,184 840,184 " fill="rgb(232,15,232)" stroke="rgb(70,70,70)" stroke-width="10" stroke-linecap="round" />
<polygon points="792,232 792,232 776,232 824,184 824,184 840,184 840,184 " fill="rgb(26,243,243)" stroke="rgb(70,70,70)" stroke-width="10" stroke-linecap="round" />
<polygon points="760,256 760,256 760,240 760,240 840,240 840,240 840,256 " fill="rgb(26,243,243)" stroke="rgb(70,70,70)" stroke-width="10" stroke-linecap="round" />
<polygon points="776,232 776,240 776,240 760,240 760,232 760,232 " fill="rgb(251,251,34)" stroke="rgb(70,70,70)" stroke-width="10" stroke-linecap="round" />
<polygon points="840,240 776,240 776,240 776,232 776,232 840,232 840,232 840,240 " fill="rgb(251,251,34)" stroke="rgb(70,70,70)" stroke-width="10" stroke-linecap="round" />
<polygon points="840,152 856,152 856,184 856,184 840,184 840,152 840,152 " fill="rgb(26,243,243)" stroke="rgb(70,70,70)" stroke-width="10" stroke-linecap="round" />
<polygon points="760,152 776,152 776,184 776,184 776,184 760,184 760,152 " fill="rgb(3,3,220)" stroke="rgb(70,70,70)" stroke-width="10" stroke-linecap="round" />
<polygon points="840,176 776,176 776,176 776,160 840,160 840,160 " fill="rgb(251,251,34)" stroke="rgb(70,70,70)" stroke-width="10" stroke-linecap="round" />
<polygon points="776,184 776,184 776,176 776,176 840,176 840,176 840,184 840,184 " fill="rgb(228,11,11)" stroke="rgb(70,70,70)" stroke-width="10" stroke-linecap="round" />
<polygon points="840,152 840,160 840,160 776,160 776,160 776,152 776,152 840,152 " fill="rgb(228,11,11)" stroke="rgb(70,70,70)" stroke-width="10" stroke-linecap="round" />
<polygon points="760,56 760,32 856,32 856,32 856,56 760,56 " fill="rgb(232,15,232)" stroke="rgb(70,70,70)" stroke-width="10" stroke-linecap="round" />
<polygon points="840,56 840,56 856,56 856,56 856,152 856,152 840,152 840,56 " fill="rgb(232,15,232)" stroke="rgb(70,70,70)" stroke-width="10" stroke-linecap="round" />
<polygon points="840,80 840,80 840,128 792,80 792,80 " fill="rgb(26,243,243)" stroke="rgb(70,70,70)" stroke-width="10" stroke-linecap="round" />
<polygon points="776,152 760,152 760,80 760,80 776,80 776,152 " fill="rgb(26,243,243)" stroke="rgb(70,70,70)" stroke-width="10" stroke-linecap="round" />
<polygon points="776,128 776,80 776,80 824,128 824,128 776,128 " fill="rgb(232,15,232)" stroke="rgb(70,70,70)" stroke-width="10" stroke-linecap="round" />
<polygon points="840,128 824,128 776,80 776,80 776,80 792,80 840,128 840,128 " fill="rgb(232,15,232)" stroke="rgb(70,70,70)" stroke-width="10" stroke-linecap="round" />
<polygon points="840,152 776,152 776,152 776,136 840,136 840,136 " fill="rgb(3,3,220)" stroke="rgb(70,70,70)" stroke-width="10" stroke-linecap="round" />
<polygon points="776,136 776,128 776,128 840,128 840,128 840,128 840,136 840,136 776,136 " fill="rgb(3,3,220)" stroke="rgb(70,70,70)" stroke-width="10" stroke-linecap="round" />
<polygon points="840,56 840,56 840,72 760,72 760,72 760,56 760,56 " fill="rgb(22,239,22)" stroke="rgb(70,70,70)" stroke-width="10" stroke-linecap="round" />
<polygon points="776,80 760,80 760,72 760,72 776,72 776,80 " fill="rgb(22,239,22)" stroke="rgb(70,70,70)" stroke-width="10" stroke-linecap="round" />
<polygon points="776,80 776,80 776,72 776,72 840,72 840,72 840,80 840,80 " fill="rgb(3,3,220)" stroke="rgb(70,70,70)" stroke-width="10" stroke-linecap="round" />
<polygon points="872,32 872,256 872,256 856,256 856,32 856,32 872,32 " fill="rgb(251,251,34)" stroke="rgb(70,70,70)" stroke-width="10" stroke-linecap="round" />
<polygon points="904,0 904,0 904,32 904,32 520,32 520,32 520,0 904,0 904,0 904,0 " fill="rgb(251,251,34)" stroke="rgb(70,70,70)" stroke-width="10" stroke-linecap="round" />
<polygon points="520,320 520,320 520,320 496,320 496,320 496,0 496,0 496,0 496,0 520,0 520,0 520,320 " fill="rgb(3,3,220)" stroke="rgb(70,70,70)" stroke-width="10" stroke-linecap="round" />
<polygon points="960,192 904,192 904,128 960,128 960,192 " fill="rgb(232,15,232)" stroke="rgb(70,70,70)" stroke-width="10" stroke-linecap="round" />
<polygon points="960,192 960,128 960,128 1024,128 1024,192 " fill="rgb(22,239,22)" stroke="rgb(70,70,70)" stroke-width="10" stroke-linecap="round" />
<polygon points="448,-120 448,-120 576,-120 576,-8 448,-8 " fill="rgb(26,243,243)" stroke="rgb(70,70,70)" stroke-width="10" stroke-linecap="round" />
<polygon points="640,-16 768,-16 768,-16 768,0 768,0 640,0 " fill="rgb(232,15,232)" stroke="rgb(70,70,70)" stroke-width="10" stroke-linecap="round" />
<polygon points="768,-32 768,-16 768,-16 640,-16 640,-32 768,-32 " fill="rgb(232,15,232)" stroke="rgb(70,70,70)" stroke-width="10" stroke-linecap="round" />
<polygon points="800,0 800,0 800,-32 832,-32 832,0 " fill="rgb(251,251,34)" stroke="rgb(70,70,70)" stroke-width="10" stroke-linecap="round" />
<polygon points="768,-72 640,-72 640,-176 768,-176 " fill="rgb(3,3,220)" stroke="rgb(70,70,70)" stroke-width="10" stroke-linecap="round" />
<polygon points="640,-32 640,-72 768,-72 768,-72 768,-32 " fill="rgb(22,239,22)" stroke="rgb(70,70,70)" stroke-width="10" stroke-linecap="round" />
<polygon points="768,336 768,336 640,336 640,320 768,320 " fill="rgb(26,243,243)" stroke="rgb(70,70,70)" stroke-width="10" stroke-linecap="round" />
<polygon points="768,352 768,352 640,352 640,352 640,336 768,336 768,336 " fill="rgb(228,11,11)" stroke="rgb(70,70,70)" stroke-width="10" stroke-linecap="round" />
<polygon points="800,352 800,320 832,320 832,320 832,352 " fill="rgb(3,3,220)" stroke="rgb(70,70,70)" stroke-width="10" stroke-linecap="round" />
<polygon points="600,520 800,520 800,520 800,664 600,664 " fill="rgb(228,11,11)" stroke="rgb(70,70,70)" stroke-width="10" stroke-linecap="round" />
<polygon points="800,400 800,520 600,520 600,520 600,400 " fill="rgb(228,11,11)" stroke="rgb(70,70,70)" stroke-width="10" stroke-linecap="round" />
<polygon points="768,352 800,400 600,400 600,400 640,352 " fill="rgb(26,243,243)" stroke="rgb(70,70,70)" stroke-width="10" stroke-linecap="round" />
<polygon points="-624,320 -624,320 -624,448 -624,448 -704,448 -704,448 -704,320 " fill="rgb(22,239,22)" stroke="rgb(70,70,70)" stroke-width="10" stroke-linecap="round" />
<polygon points="-488,320 -488,384 -488,384 -600,384 -600,384 -600,320 -488,320 " fill="rgb(251,251,34)" stroke="rgb(70,70,70)" stroke-width="10" stroke-linecap="round" />
<polygon points="-488,384 -488,448 -488,448 -600,448 -600,448 -600,384 -488,384 " fill="rgb(251,251,34)" stroke="rgb(70,70,70)" stroke-width="10" stroke-linecap="round" />
<polygon points="-600,320 -600,320 -600,296 -600,296 -488,296 -488,296 -488,320 -488,320 " fill="rgb(251,251,34)" stroke="rgb(70,70,70)" stroke-width="10" stroke-linecap="round" />
<polygon points="-488,64 -488,64 -488,296 -600,296 -600,296 -600,64 -488,64 -488,64 " fill="rgb(251,251,34)" stroke="rgb(70,70,70)" stroke-width="10" stroke-linecap="round" />
<polygon points="-640,320 -704,320 -704,256 -640,320 " fill="rgb(228,11,11)" stroke="rgb(70,70,70)" stroke-width="10" stroke-linecap="round" />
<polygon points="-688,64 -600,64 -600,296 -632,296 -688,240 " fill="rgb(228,11,11)" stroke="rgb(70,70,70)" stroke-width="10" stroke-linecap="round" />
<polygon points="-384,448 -384,64 -384,64 -384,64 -320,64 -320,384 -320,384 -384,448 -384,448 " fill="rgb(251,251,34)" stroke="rgb(70,70,70)" stroke-width="10" stroke-linecap="round" />
<polygon points="-320,384 -320,448 -384,448 -384,448 -320,384 " fill="rgb(22,239,22)" stroke="rgb(70,70,70)" stroke-width="10" stroke-linecap="round" />
<polygon points="-256,448 -256,448 -320,448 -320,64 -320,64 -256,64 -256,448 " fill="rgb(26,243,243)" stroke="rgb(70,70,70)" stroke-width="10" stroke-linecap="round" />
<polygon points="-448,192 -488,192 -488,64 -448,64 -448,192 " fill="rgb(26,243,243)" stroke="rgb(70,70,70)" stroke-width="10" stroke-linecap="round" />
<polygon points="-400,192 -400,192 -448,192 -448,192 -448,64 -448,64 -400,64 -400,64 " fill="rgb(26,243,243)" stroke="rgb(70,70,70)" stroke-width="10" stroke-linecap="round" />
<polygon points="-384,192 -384,192 -400,192 -400,192 -400,64 -400,64 -384,64 -384,64 " fill="rgb(26,243,243)" stroke="rgb(70,70,70)" stroke-width="10" stroke-linecap="round" />
<polygon points="-400,192 -400,192 -400,248 -448,296 -488,296 -488,192 " fill="rgb(251,251,34)" stroke="rgb(70,70,70)" stroke-width="10" stroke-linecap="round" />
<polygon points="-464,448 -464,448 -464,320 -384,320 -384,320 -384,448 " fill="rgb(232,15,232)" stroke="rgb(70,70,70)" stroke-width="10" stroke-linecap="round" />
<polygon points="-448,320 -384,256 -384,320 " fill="rgb(22,239,22)" stroke="rgb(70,70,70)" stroke-width="10" stroke-linecap="round" />
<polygon points="-384,-192 -320,-128 -320,-128 -320,64 -320,64 -384,64 -384,-192 " fill="rgb(228,11,11)" stroke="rgb(70,70,70)" stroke-width="10" stroke-linecap="round" />
<polygon points="-320,64 -320,-128 -320,-128 -256,-64 -256,64 -256,64 " fill="rgb(26,243,243)" stroke="rgb(70,70,70)" stroke-width="10" stroke-linecap="round" />
<polygon points="-384,-192 -384,-192 -384,-256 -256,-256 -256,-64 -256,-64 " fill="rgb(3,3,220)" stroke="rgb(70,70,70)" stroke-width="10" stroke-linecap="round" />
<polygon points="-704,-64 -704,-64 -704,-64 -704,-192 -384,-192 -384,-192 -384,-64 -704,-64 " fill="rgb(251,251,34)" stroke="rgb(70,70,70)" stroke-width="10" stroke-linecap="round" />
<polygon points="-704,-192 -704,-256 -384,-256 -384,-192 -704,-192 " fill="rgb(232,15,232)" stroke="rgb(70,70,70)" stroke-width="10" stroke-linecap="round" />
<polygon points="-512,-32 -576,-32 -576,-32 -576,-64 -576,-64 -576,-64 -512,-64 -512,-64 -512,-32 -512,-32 " fill="rgb(232,15,232)" stroke="rgb(70,70,70)" stroke-width="10" stroke-linecap="round" />
<polygon points="-576,0 -576,0 -576,-32 -576,-32 -512,-32 -512,-32 -512,0 -512,0 " fill="rgb(251,251,34)" stroke="rgb(70,70,70)" stroke-width="10" stroke-linecap="round" />
<polygon points="-576,32 -576,0 -576,0 -512,0 -512,0 -512,32 -512,32 -576,32 " fill="rgb(251,251,34)" stroke="rgb(70,70,70)" stroke-width="10" stroke-linecap="round" />
<polygon points="-576,64 -576,32 -576,32 -512,32 -512,32 -512,64 -512,64 -576,64 " fill="rgb(251,251,34)" stroke="rgb(70,70,70)" stroke-width="10" stroke-linecap="round" />
<polygon points="-704,0 -704,-64 -640,-64 -704,0 " fill="rgb(232,15,232)" stroke="rgb(70,70,70)" stroke-width="10" stroke-linecap="round" />
<polygon points="-592,64 -688,64 -688,8 -632,-48 -592,-48 " fill="rgb(3,3,220)" stroke="rgb(70,70,70)" stroke-width="10" stroke-linecap="round" />
<polygon points="-448,-64 -384,-64 -384,0 -448,-64 " fill="rgb(232,15,232)" stroke="rgb(70,70,70)" stroke-width="10" stroke-linecap="round" />
<polygon points="-496,64 -496,64 -496,-48 -456,-48 -400,8 -400,64 " fill="rgb(22,239,22)" stroke="rgb(70,70,70)" stroke-width="10" stroke-linecap="round" />
<polygon points="-256,704 -512,704 -512,704 -448,528 -448,528 -256,528 -256,528 -256,528 -256,704 -256,704 -256,704 " fill="rgb(228,11,11)" stroke="rgb(70,70,70)" stroke-width="10" stroke-linecap="round" />
<polygon points="-704,704 -704,528 -448,528 -448,528 -448,528 -448,528 -448,528 -512,704 -512,704 -704,704 " fill="rgb(251,251,34)" stroke="rgb(70,70,70)" stroke-width="10" stroke-linecap="round" />
<polygon points="-464,512 -464,448 -464,448 -256,448 -256,448 -256,512 -256,512 -464,512 -464,512 -464,512 " fill="rgb(22,239,22)" stroke="rgb(70,70,70)" stroke-width="10" stroke-linecap="round" />
<polygon points="-272,512 -272,520 -448,520 -448,520 -448,512 -272,512 " fill="rgb(22,239,22)" stroke="rgb(70,70,70)" stroke-width="10" stroke-linecap="round" />
<polygon points="-448,528 -448,520 -272,520 -272,520 -272,528 -448,528 " fill="rgb(26,243,243)" stroke="rgb(70,70,70)" stroke-width="10" stroke-linecap="round" />
<polygon points="-624,448 -624,512 -624,512 -704,512 -704,512 -704,512 -704,448 -624,448 " fill="rgb(26,243,243)" stroke="rgb(70,70,70)" stroke-width="10" stroke-linecap="round" />
<polygon points="-704,512 -704,512 -640,512 -640,512 -640,528 -704,528 -704,528 " fill="rgb(3,3,220)" stroke="rgb(70,70,70)" stroke-width="10" stroke-linecap="round" />
<polygon points="-600,448 -488,448 -488,528 -488,528 -600,528 -600,448 " fill="rgb(3,3,220)" stroke="rgb(70,70,70)" stroke-width="10" stroke-linecap="round" />
<polygon points="-776,704 -776,528 -776,528 -776,528 -776,528 -704,528 -704,528 -704,704 -776,704 " fill="rgb(26,243,243)" stroke="rgb(70,70,70)" stroke-width="10" stroke-linecap="round" />
<polygon points="-832,528 -832,528 -832,704 -832,704 -1024,704 -1024,528 " fill="rgb(228,11,11)" stroke="rgb(70,70,70)" stroke-width="10" stroke-linecap="round" />
<polygon points="-776,528 -776,528 -776,552 -832,552 -832,552 -832,528 -832,528 " fill="rgb(228,11,11)" stroke="rgb(70,70,70)" stroke-width="10" stroke-linecap="round" />
<polygon points="-792,704 -832,704 -832,704 -832,552 -832,552 -792,552 -792,704 -792,704 -792,704 -792,704 " fill="rgb(228,11,11)" stroke="rgb(70,70,70)" stroke-width="10" stroke-linecap="round" />
<polygon points="-784,552 -784,552 -784,552 -776,552 -776,616 -776,616 -784,616 " fill="rgb(22,239,22)" stroke="rgb(70,70,70)" stroke-width="10" stroke-linecap="round" />
<polygon points="-784,592 -784,592 -784,616 -792,616 -792,616 -792,592 " fill="rgb(26,243,243)" stroke="rgb(70,70,70)" stroke-width="10" stroke-linecap="round" />
<polygon points="-784,560 -784,584 -792,584 -792,560 " fill="rgb(232,15,232)" stroke="rgb(70,70,70)" stroke-width="10" stroke-linecap="round" />
<polygon points="-784,616 -784,616 -784,616 -776,616 -776,704 -776,704 -784,704 -784,704 " fill="rgb(3,3,220)" stroke="rgb(70,70,70)" stroke-width="10" stroke-linecap="round" />
<polygon points="-792,656 -784,656 -784,656 -784,704 -792,704 -792,704 " fill="rgb(3,3,220)" stroke="rgb(70,70,70)" stroke-width="10" stroke-linecap="round" />
<polygon points="-784,624 -784,648 -792,648 -792,624 " fill="rgb(232,15,232)" stroke="rgb(70,70,70)" stroke-width="10" stroke-linecap="round" />
<polygon points="-768,384 -704,384 -704,448 -768,384 " fill="rgb(232,15,232)" stroke="rgb(70,70,70)" stroke-width="10" stroke-linecap="round" />
<polygon points="-704,512 -896,512 -896,384 -768,384 -768,384 -704,448 -704,448 " fill="rgb(26,243,243)" stroke="rgb(70,70,70)" stroke-width="10" stroke-linecap="round" />
<polygon points="-1088,-32 -1088,-32 -1056,-32 -1056,288 -1088,288 -1088,-32 -1088,-32 " fill="rgb(228,11,11)" stroke="rgb(70,70,70)" stroke-width="10" stroke-linecap="round" />
<polygon points="-1088,128 -1088,192 -1088,192 -1152,192 -1152,192 -1152,128 -1152,128 -1088,128 " fill="rgb(3,3,220)" stroke="rgb(70,70,70)" stroke-width="10" stroke-linecap="round" />
<polygon points="-1152,208 -1152,208 -1088,208 -1088,208 -1088,256 -1152,256 " fill="rgb(3,3,220)" stroke="rgb(70,70,70)" stroke-width="10" stroke-linecap="round" />
<polygon points="-1088,208 -1152,208 -1152,192 -1152,192 -1088,192 " fill="rgb(232,15,232)" stroke="rgb(70,70,70)" stroke-width="10" stroke-linecap="round" />
<polygon points="-1088,112 -1152,112 -1152,112 -1152,0 -1088,0 " fill="rgb(3,3,220)" stroke="rgb(70,70,70)" stroke-width="10" stroke-linecap="round" />
<polygon points="-1152,112 -1088,112 -1088,128 -1152,128 -1152,112 " fill="rgb(232,15,232)" stroke="rgb(70,70,70)" stroke-width="10" stroke-linecap="round" />
<polygon points="-1056,160 -944,160 -944,160 -944,256 -1056,256 " fill="rgb(228,11,11)" stroke="rgb(70,70,70)" stroke-width="10" stroke-linecap="round" />
<polygon points="-1056,128 -1056,0 -944,0 -944,128 -944,128 -1056,128 " fill="rgb(26,243,243)" stroke="rgb(70,70,70)" stroke-width="10" stroke-linecap="round" />
<polygon points="-1024,160 -1056,160 -1056,128 -1024,128 -1024,160 " fill="rgb(22,239,22)" stroke="rgb(70,70,70)" stroke-width="10" stroke-linecap="round" />
<polygon points="-1016,128 -1016,128 -944,128 -944,160 -1016,160 " fill="rgb(251,251,34)" stroke="rgb(70,70,70)" stroke-width="10" stroke-linecap="round" />
<polygon points="-1024,128 -1016,128 -1016,128 -1016,160 -1016,160 -1024,160 -1024,160 -1024,128 " fill="rgb(232,15,232)" stroke="rgb(70,70,70)" stroke-width="10" stroke-linecap="round" />
<polygon points="-768,-128 -768,-128 -704,-192 -704,-192 -704,384 -704,384 -768,384 " fill="rgb(3,3,220)" stroke="rgb(70,70,70)" stroke-width="10" stroke-linecap="round" />
<polygon points="-768,-128 -768,-128 -768,-256 -704,-256 -704,-192 " fill="rgb(22,239,22)" stroke="rgb(70,70,70)" stroke-width="10" stroke-linecap="round" />
<polygon points="-896,-256 -896,-256 -896,-256 -768,-256 -768,384 -768,384 -896,384 -896,384 -896,-256 " fill="rgb(251,251,34)" stroke="rgb(70,70,70)" stroke-width="10" stroke-linecap="round" />
<polygon points="-896,64 -896,192 -896,192 -912,192 -912,64 -912,64 " fill="rgb(22,239,22)" stroke="rgb(70,70,70)" stroke-width="10" stroke-linecap="round" />
<polygon points="-944,64 -928,64 -928,192 -944,192 " fill="rgb(22,239,22)" stroke="rgb(70,70,70)" stroke-width="10" stroke-linecap="round" />
<polygon points="-928,192 -928,64 -928,64 -912,64 -912,192 " fill="rgb(26,243,243)" stroke="rgb(70,70,70)" stroke-width="10" stroke-linecap="round" />
<polygon points="128,424 128,576 0,424 0,424 0,424 128,424 " fill="rgb(228,11,11)" stroke="rgb(70,70,70)" stroke-width="10" stroke-linecap="round" />
<polygon points="0,320 0,320 128,320 128,384 0,384 " fill="rgb(251,251,34)" stroke="rgb(70,70,70)" stroke-width="10" stroke-linecap="round" />
<polygon points="0,424 128,576 128,576 128,576 0,576 0,424 0,424 " fill="rgb(22,239,22)" stroke="rgb(70,70,70)" stroke-width="10" stroke-linecap="round" />
<polygon points="-208,552 -208,552 -8,552 -8,688 -208,688 " fill="rgb(251,251,34)" stroke="rgb(70,70,70)" stroke-width="10" stroke-linecap="round" />
<polygon points="-256,616 -248,616 -248,688 -248,688 -248,688 -256,688 -256,616 " fill="rgb(26,243,243)" stroke="rgb(70,70,70)" stroke-width="10" stroke-linecap="round" />
<polygon points="-208,688 -248,688 -248,672 -208,672 -208,672 -208,688 " fill="rgb(228,11,11)" stroke="rgb(70,70,70)" stroke-width="10" stroke-linecap="round" />
<polygon points="-208,672 -208,672 -240,672 -240,648 -240,648 -208,648 " fill="rgb(232,15,232)" stroke="rgb(70,70,70)" stroke-width="10" stroke-linecap="round" />
<polygon points="-240,648 -240,664 -248,664 -248,648 -240,648 " fill="rgb(228,11,11)" stroke="rgb(70,70,70)" stroke-width="10" stroke-linecap="round" />
<polygon points="-208,648 -208,648 -240,648 -240,616 -240,616 -208,616 " fill="rgb(26,243,243)" stroke="rgb(70,70,70)" stroke-width="10" stroke-linecap="round" />
<polygon points="-240,616 -240,640 -248,640 -248,616 -240,616 " fill="rgb(251,251,34)" stroke="rgb(70,70,70)" stroke-width="10" stroke-linecap="round" />
<polygon points="-248,552 -248,552 -248,616 -248,616 -248,616 -256,616 -256,552 -256,552 " fill="rgb(26,243,243)" stroke="rgb(70,70,70)" stroke-width="10" stroke-linecap="round" />
<polygon points="-208,616 -208,616 -240,616 -240,584 -240,584 -208,584 " fill="rgb(228,11,11)" stroke="rgb(70,70,70)" stroke-width="10" stroke-linecap="round" />
<polygon points="-240,584 -240,608 -248,608 -248,584 -240,584 " fill="rgb(251,251,34)" stroke="rgb(70,70,70)" stroke-width="10" stroke-linecap="round" />
<polygon points="-208,584 -208,584 -240,584 -240,552 -240,552 -208,552 -208,552 " fill="rgb(232,15,232)" stroke="rgb(70,70,70)" stroke-width="10" stroke-linecap="round" />
<polygon points="-240,552 -240,576 -248,576 -248,552 -240,552 " fill="rgb(26,243,243)" stroke="rgb(70,70,70)" stroke-width="10" stroke-linecap="round" />
<polygon points="-16,512 -16,448 0,448 0,512 " fill="rgb(251,251,34)" stroke="rgb(70,70,70)" stroke-width="10" stroke-linecap="round" />
<polygon points="-64,320 -64,320 -24,320 -24,520 -64,520 " fill="rgb(3,3,220)" stroke="rgb(70,70,70)" stroke-width="10" stroke-linecap="round" />
<polygon points="-64,320 -64,448 -232,448 -232,448 -232,448 -232,320 -64,320 -64,320 -64,320 -64,320 " fill="rgb(3,3,220)" stroke="rgb(70,70,70)" stroke-width="10" stroke-linecap="round" />
<polygon points="-232,512 -64,512 -64,512 -64,520 -232,520 " fill="rgb(232,15,232)" stroke="rgb(70,70,70)" stroke-width="10" stroke-linecap="round" />
<polygon points="-232,448 -192,448 -192,512 -192,512 -232,512 " fill="rgb(232,15,232)" stroke="rgb(70,70,70)" stroke-width="10" stroke-linecap="round" />
<polygon points="-64,448 -64,448 -64,512 -64,512 -192,512 -192,512 -192,448 -192,448 -64,448 " fill="rgb(3,3,220)" stroke="rgb(70,70,70)" stroke-width="10" stroke-linecap="round" />
<polygon points="-144,288 -144,288 -144,216 -64,216 -64,288 -64,288 -144,288 " fill="rgb(3,3,220)" stroke="rgb(70,70,70)" stroke-width="10" stroke-linecap="round" />
<polygon points="-128,320 -128,320 -128,304 -128,304 -64,304 -64,304 -64,320 -64,320 " fill="rgb(22,239,22)" stroke="rgb(70,70,70)" stroke-width="10" stroke-linecap="round" />
<polygon points="-128,304 -128,304 -128,288 -128,288 -64,288 -64,288 -64,304 -64,304 " fill="rgb(251,251,34)" stroke="rgb(70,70,70)" stroke-width="10" stroke-linecap="round" />
<polygon points="-192,320 -192,320 -192,288 -160,288 -160,320 " fill="rgb(26,243,243)" stroke="rgb(70,70,70)" stroke-width="10" stroke-linecap="round" />
<polygon points="0,192 0,192 0,192 0,192 8,192 8,192 8,320 8,320 0,320 " fill="rgb(228,11,11)" stroke="rgb(70,70,70)" stroke-width="10" stroke-linecap="round" />
<polygon points="128,312 128,320 8,320 8,312 128,312 " fill="rgb(251,251,34)" stroke="rgb(70,70,70)" stroke-width="10" stroke-linecap="round" />
<polygon points="8,192 8,192 128,192 128,192 128,312 128,312 8,312 8,312 " fill="rgb(22,239,22)" stroke="rgb(70,70,70)" stroke-width="10" stroke-linecap="round" />
<polygon points="0,288 -64,288 -64,288 -64,216 0,216 0,216 " fill="rgb(228,11,11)" stroke="rgb(70,70,70)" stroke-width="10" stroke-linecap="round" />
<polygon points="0,192 0,192 0,192 0,64 0,64 128,64 128,192 128,192 " fill="rgb(22,239,22)" stroke="rgb(70,70,70)" stroke-width="10" stroke-linecap="round" />
<polygon points="-32,64 -32,64 -32,64 -32,192 -32,192 -256,192 -256,192 -256,192 -256,64 -256,64 -32,64 " fill="rgb(251,251,34)" stroke="rgb(70,70,70)" stroke-width="10" stroke-linecap="round" />
<polygon points="-32,192 -32,192 -32,184 0,184 0,184 0,192 0,192 " fill="rgb(232,15,232)" stroke="rgb(70,70,70)" stroke-width="10" stroke-linecap="round" />
<polygon points="-8,64 -8,64 0,64 0,64 0,184 0,184 -8,184 " fill="rgb(251,251,34)" stroke="rgb(70,70,70)" stroke-width="10" stroke-linecap="round" />
<polygon points="-32,64 -8,64 -8,64 -8,72 -32,72 -32,72 " fill="rgb(232,15,232)" stroke="rgb(70,70,70)" stroke-width="10" stroke-linecap="round" />
<polygon points="-8,72 -8,184 -8,184 -32,184 -32,184 -32,72 -32,72 -8,72 " fill="rgb(22,239,22)" stroke="rgb(70,70,70)" stroke-width="10" stroke-linecap="round" />
<polygon points="64,-128 64,-320 128,-320 128,-128 64,-128 " fill="rgb(232,15,232)" stroke="rgb(70,70,70)" stroke-width="10" stroke-linecap="round" />
<polygon points="0,-192 0,-256 64,-256 64,-192 " fill="rgb(26,243,243)" stroke="rgb(70,70,70)" stroke-width="10" stroke-linecap="round" />
<polygon points="0,0 0,0 64,-32 64,-32 128,-32 128,64 0,64 " fill="rgb(251,251,34)" stroke="rgb(70,70,70)" stroke-width="10" stroke-linecap="round" />
<polygon points="0,0 0,-120 0,-120 64,-120 64,-32 0,0 " fill="rgb(26,243,243)" stroke="rgb(70,70,70)" stroke-width="10" stroke-linecap="round" />
<polygon points="0,0 0,0 -128,0 -128,-120 0,-120 " fill="rgb(3,3,220)" stroke="rgb(70,70,70)" stroke-width="10" stroke-linecap="round" />
<polygon points="-216,8 -64,8 -64,64 -216,64 " fill="rgb(228,11,11)" stroke="rgb(70,70,70)" stroke-width="10" stroke-linecap="round" />

</svg>

