<svg width="900" height="450" preserveAspectRatio="none" viewBox="-1282 -514 2436 1348"
 xmlns="http://www.w3.org/2000/svg" xmlns:xlink="http://www.w3.org/1999/xlink">
   <defs>
    <marker id="arrow" markerWidth="10" markerHeight="10" refX="0" refY="2" orient="auto" markerUnits="strokeWidth">
      <path d="M0,0 L0,4 L5,3 z" fill="#f00" />
    </marker>
  </defs>

<line x1="288" y1="576" x2="232" y2="512" stroke-width="10" stroke="black"/>
<line x1="232" y1="512" x2="160" y2="576" stroke-width="10" stroke="black"/>
<line x1="288" y1="608" x2="288" y2="576" stroke-width="10" stroke="black"/>
<line x1="288" y1="576" x2="160" y2="576" stroke-width="10" stroke="black"/>
<line x1="144" y1="384" x2="144" y2="424" stroke-width="10" stroke="black"/>
<line x1="176" y1="424" x2="176" y2="384" stroke-width="10" stroke="black"/>
<line x1="272" y1="384" x2="272" y2="424" stroke-width="10" stroke="black"/>
<line x1="304" y1="424" x2="304" y2="384" stroke-width="10" stroke="black"/>
<line x1="192" y1="384" x2="192" y2="424" stroke-width="10" stroke="black"/>
<line x1="192" y1="424" x2="256" y2="424" stroke-width="10" stroke="black"/>
<line x1="352" y1="424" x2="352" y2="408" stroke-width="10" stroke="black"/>
<line x1="440" y1="408" x2="440" y2="448" stroke-width="10" stroke="black"/>
<line x1="440" y1="408" x2="320" y2="576" stroke-width="10" stroke="black"/>
<line x1="416" y1="408" x2="416" y2="384" stroke-width="10" stroke="black"/>
<line x1="384" y1="384" x2="384" y2="408" stroke-width="10" stroke="black"/>
<line x1="352" y1="408" x2="384" y2="408" stroke-width="10" stroke="black"/>
<line x1="320" y1="384" x2="320" y2="424" stroke-width="10" stroke="black"/>
<line x1="192" y1="-384" x2="192" y2="-320" stroke-width="10" stroke="black"/>
<line x1="192" y1="-320" x2="256" y2="-320" stroke-width="10" stroke="black"/>
<line x1="384" y1="-320" x2="384" y2="-256" stroke-width="10" stroke="black"/>
<line x1="320" y1="-384" x2="320" y2="-320" stroke-width="10" stroke="black"/>
<line x1="384" y1="-32" x2="448" y2="-8" stroke-width="10" stroke="black"/>
<line x1="128" y1="-32" x2="160" y2="-64" stroke-width="10" stroke="black"/>
<line x1="160" y1="-96" x2="128" y2="-128" stroke-width="10" stroke="black"/>
<line x1="288" y1="-64" x2="320" y2="-32" stroke-width="10" stroke="black"/>
<line x1="320" y1="-128" x2="288" y2="-96" stroke-width="10" stroke="black"/>
<line x1="384" y1="-32" x2="384" y2="-120" stroke-width="10" stroke="black"/>
<line x1="128" y1="-32" x2="320" y2="-32" stroke-width="10" stroke="black"/>
<line x1="384" y1="-128" x2="320" y2="-128" stroke-width="10" stroke="black"/>
<line x1="352" y1="160" x2="440" y2="160" stroke-width="10" stroke="black"/>
<line x1="352" y1="96" x2="440" y2="96" stroke-width="10" stroke="black"/>
<line x1="352" y1="128" x2="440" y2="128" stroke-width="10" stroke="black"/>
<line x1="440" y1="288" x2="440" y2="160" stroke-width="10" stroke="black"/>
<line x1="352" y1="64" x2="352" y2="96" stroke-width="10" stroke="black"/>
<line x1="440" y1="320" x2="352" y2="320" stroke-width="10" stroke="black"/>
<line x1="440" y1="352" x2="352" y2="352" stroke-width="10" stroke="black"/>
<line x1="440" y1="384" x2="440" y2="352" stroke-width="10" stroke="black"/>
<line x1="352" y1="288" x2="352" y2="320" stroke-width="10" stroke="black"/>
<line x1="440" y1="288" x2="352" y2="288" stroke-width="10" stroke="black"/>
<line x1="440" y1="64" x2="352" y2="64" stroke-width="10" stroke="black"/>
<line x1="416" y1="384" x2="440" y2="384" stroke-width="10" stroke="black"/>
<line x1="480" y1="288" x2="480" y2="160" stroke-width="10" stroke="black"/>
<line x1="464" y1="160" x2="464" y2="288" stroke-width="10" stroke="black"/>
<line x1="792" y1="232" x2="840" y2="184" stroke-width="10" stroke="black"/>
<line x1="824" y1="184" x2="776" y2="232" stroke-width="10" stroke="black"/>
<line x1="776" y1="232" x2="776" y2="240" stroke-width="10" stroke="black"/>
<line x1="776" y1="240" x2="840" y2="240" stroke-width="10" stroke="black"/>
<line x1="840" y1="232" x2="792" y2="232" stroke-width="10" stroke="black"/>
<line x1="840" y1="240" x2="840" y2="232" stroke-width="10" stroke="black"/>
<line x1="840" y1="176" x2="776" y2="176" stroke-width="10" stroke="black"/>
<line x1="776" y1="160" x2="840" y2="160" stroke-width="10" stroke="black"/>
<line x1="776" y1="152" x2="776" y2="160" stroke-width="10" stroke="black"/>
<line x1="840" y1="160" x2="840" y2="152" stroke-width="10" stroke="black"/>
<line x1="776" y1="184" x2="824" y2="184" stroke-width="10" stroke="black"/>
<line x1="776" y1="80" x2="824" y2="128" stroke-width="10" stroke="black"/>
<line x1="776" y1="136" x2="840" y2="136" stroke-width="10" stroke="black"/>
<line x1="824" y1="128" x2="776" y2="128" stroke-width="10" stroke="black"/>
<line x1="776" y1="128" x2="776" y2="136" stroke-width="10" stroke="black"/>
<line x1="840" y1="128" x2="792" y2="80" stroke-width="10" stroke="black"/>
<line x1="776" y1="72" x2="776" y2="80" stroke-width="10" stroke="black"/>
<line x1="840" y1="72" x2="776" y2="72" stroke-width="10" stroke="black"/>
<line x1="792" y1="80" x2="840" y2="80" stroke-width="10" stroke="black"/>
<line x1="840" y1="136" x2="840" y2="128" stroke-width="10" stroke="black"/>
<line x1="856" y1="56" x2="760" y2="56" stroke-width="10" stroke="black"/>
<line x1="776" y1="152" x2="840" y2="152" stroke-width="10" stroke="black"/>
<line x1="856" y1="56" x2="856" y2="256" stroke-width="10" stroke="black"/>
<line x1="760" y1="256" x2="856" y2="256" stroke-width="10" stroke="black"/>
<line x1="760" y1="56" x2="760" y2="256" stroke-width="10" stroke="black"/>
<line x1="872" y1="296" x2="872" y2="32" stroke-width="10" stroke="black"/>
<line x1="520" y1="296" x2="872" y2="296" stroke-width="10" stroke="black"/>
<line x1="520" y1="32" x2="872" y2="32" stroke-width="10" stroke="black"/>
<line x1="520" y1="296" x2="520" y2="128" stroke-width="10" stroke="black"/>
<line x1="960" y1="128" x2="960" y2="192" stroke-width="10" stroke="black"/>
<line x1="904" y1="0" x2="904" y2="128" stroke-width="10" stroke="black"/>
<line x1="496" y1="160" x2="496" y2="288" stroke-width="10" stroke="black"/>
<line x1="640" y1="-16" x2="768" y2="-16" stroke-width="10" stroke="black"/>
<line x1="768" y1="-16" x2="768" y2="0" stroke-width="10" stroke="black"/>
<line x1="768" y1="-72" x2="640" y2="-72" stroke-width="10" stroke="black"/>
<line x1="800" y1="-32" x2="832" y2="-32" stroke-width="10" stroke="black"/>
<line x1="576" y1="-120" x2="576" y2="-8" stroke-width="10" stroke="black"/>
<line x1="800" y1="0" x2="832" y2="0" stroke-width="10" stroke="black"/>
<line x1="768" y1="336" x2="640" y2="336" stroke-width="10" stroke="black"/>
<line x1="768" y1="320" x2="768" y2="336" stroke-width="10" stroke="black"/>
<line x1="600" y1="520" x2="800" y2="520" stroke-width="10" stroke="black"/>
<line x1="600" y1="400" x2="800" y2="400" stroke-width="10" stroke="black"/>
<line x1="832" y1="352" x2="800" y2="352" stroke-width="10" stroke="black"/>
<line x1="640" y1="320" x2="496" y2="320" stroke-width="10" stroke="black"/>
<line x1="448" y1="64" x2="448" y2="160" stroke-width="10" stroke="black"/>
<line x1="-488" y1="384" x2="-600" y2="384" stroke-width="10" stroke="black"/>
<line x1="-624" y1="320" x2="-624" y2="448" stroke-width="10" stroke="black"/>
<line x1="-600" y1="296" x2="-488" y2="296" stroke-width="10" stroke="black"/>
<line x1="-704" y1="256" x2="-640" y2="320" stroke-width="10" stroke="black"/>
<line x1="-600" y1="320" x2="-600" y2="296" stroke-width="10" stroke="black"/>
<line x1="-640" y1="320" x2="-624" y2="320" stroke-width="10" stroke="black"/>
<line x1="-320" y1="384" x2="-384" y2="448" stroke-width="10" stroke="black"/>
<line x1="-320" y1="64" x2="-320" y2="384" stroke-width="10" stroke="black"/>
<line x1="-448" y1="64" x2="-448" y2="192" stroke-width="10" stroke="black"/>
<line x1="-400" y1="64" x2="-400" y2="192" stroke-width="10" stroke="black"/>
<line x1="-464" y1="320" x2="-448" y2="320" stroke-width="10" stroke="black"/>
<line x1="-400" y1="248" x2="-448" y2="296" stroke-width="10" stroke="black"/>
<line x1="-384" y1="192" x2="-400" y2="192" stroke-width="10" stroke="black"/>
<line x1="-384" y1="256" x2="-384" y2="192" stroke-width="10" stroke="black"/>
<line x1="-488" y1="320" x2="-488" y2="384" stroke-width="10" stroke="black"/>
<line x1="-320" y1="-128" x2="-320" y2="64" stroke-width="10" stroke="black"/>
<line x1="-384" y1="-192" x2="-320" y2="-128" stroke-width="10" stroke="black"/>
<line x1="-704" y1="-192" x2="-384" y2="-192" stroke-width="10" stroke="black"/>
<line x1="-512" y1="-32" x2="-576" y2="-32" stroke-width="10" stroke="black"/>
<line x1="-512" y1="32" x2="-576" y2="32" stroke-width="10" stroke="black"/>
<line x1="-512" y1="0" x2="-576" y2="0" stroke-width="10" stroke="black"/>
<line x1="-640" y1="-64" x2="-704" y2="0" stroke-width="10" stroke="black"/>
<line x1="-576" y1="64" x2="-576" y2="32" stroke-width="10" stroke="black"/>
<line x1="-384" y1="0" x2="-448" y2="-64" stroke-width="10" stroke="black"/>
<line x1="-512" y1="-32" x2="-512" y2="0" stroke-width="10" stroke="black"/>
<line x1="-448" y1="-64" x2="-512" y2="-64" stroke-width="10" stroke="black"/>
<line x1="-384" y1="64" x2="-384" y2="0" stroke-width="10" stroke="black"/>
<line x1="-592" y1="64" x2="-576" y2="64" stroke-width="10" stroke="black"/>
<line x1="-512" y1="704" x2="-448" y2="528" stroke-width="10" stroke="black"/>
<line x1="-272" y1="520" x2="-448" y2="520" stroke-width="10" stroke="black"/>
<line x1="-256" y1="512" x2="-272" y2="512" stroke-width="10" stroke="black"/>
<line x1="-624" y1="512" x2="-640" y2="512" stroke-width="10" stroke="black"/>
<line x1="-624" y1="448" x2="-624" y2="512" stroke-width="10" stroke="black"/>
<line x1="-464" y1="512" x2="-464" y2="448" stroke-width="10" stroke="black"/>
<line x1="-272" y1="528" x2="-256" y2="528" stroke-width="10" stroke="black"/>
<line x1="-624" y1="448" x2="-704" y2="448" stroke-width="10" stroke="black"/>
<line x1="-792" y1="592" x2="-784" y2="592" stroke-width="10" stroke="black"/>
<line x1="-784" y1="560" x2="-784" y2="552" stroke-width="10" stroke="black"/>
<line x1="-792" y1="656" x2="-784" y2="656" stroke-width="10" stroke="black"/>
<line x1="-784" y1="624" x2="-784" y2="616" stroke-width="10" stroke="black"/>
<line x1="-784" y1="616" x2="-792" y2="616" stroke-width="10" stroke="black"/>
<line x1="-792" y1="552" x2="-792" y2="560" stroke-width="10" stroke="black"/>
<line x1="-784" y1="552" x2="-792" y2="552" stroke-width="10" stroke="black"/>
<line x1="-832" y1="528" x2="-832" y2="704" stroke-width="10" stroke="black"/>
<line x1="-776" y1="552" x2="-776" y2="528" stroke-width="10" stroke="black"/>
<line x1="-704" y1="448" x2="-768" y2="384" stroke-width="10" stroke="black"/>
<line x1="-776" y1="528" x2="-704" y2="528" stroke-width="10" stroke="black"/>
<line x1="-1152" y1="208" x2="-1088" y2="208" stroke-width="10" stroke="black"/>
<line x1="-1088" y1="192" x2="-1152" y2="192" stroke-width="10" stroke="black"/>
<line x1="-1088" y1="112" x2="-1152" y2="112" stroke-width="10" stroke="black"/>
<line x1="-1152" y1="128" x2="-1088" y2="128" stroke-width="10" stroke="black"/>
<line x1="-1088" y1="192" x2="-1088" y2="128" stroke-width="10" stroke="black"/>
<line x1="-1016" y1="160" x2="-1016" y2="128" stroke-width="10" stroke="black"/>
<line x1="-1024" y1="128" x2="-1024" y2="160" stroke-width="10" stroke="black"/>
<line x1="-1016" y1="128" x2="-1024" y2="128" stroke-width="10" stroke="black"/>
<line x1="-1024" y1="160" x2="-1016" y2="160" stroke-width="10" stroke="black"/>
<line x1="-1056" y1="-32" x2="-1056" y2="0" stroke-width="10" stroke="black"/>
<line x1="-768" y1="-128" x2="-704" y2="-192" stroke-width="10" stroke="black"/>
<line x1="-768" y1="384" x2="-768" y2="-128" stroke-width="10" stroke="black"/>
<line x1="-928" y1="64" x2="-928" y2="192" stroke-width="10" stroke="black"/>
<line x1="-912" y1="192" x2="-912" y2="64" stroke-width="10" stroke="black"/>
<line x1="-896" y1="384" x2="-896" y2="192" stroke-width="10" stroke="black"/>
<line x1="-944" y1="192" x2="-944" y2="256" stroke-width="10" stroke="black"/>
<line x1="-896" y1="384" x2="-768" y2="384" stroke-width="10" stroke="black"/>
<line x1="-704" y1="528" x2="-704" y2="512" stroke-width="10" stroke="black"/>
<line x1="0" y1="424" x2="128" y2="424" stroke-width="10" stroke="black"/>
<line x1="128" y1="576" x2="0" y2="424" stroke-width="10" stroke="black"/>
<line x1="-240" y1="672" x2="-240" y2="664" stroke-width="10" stroke="black"/>
<line x1="-248" y1="672" x2="-240" y2="672" stroke-width="10" stroke="black"/>
<line x1="-240" y1="648" x2="-240" y2="640" stroke-width="10" stroke="black"/>
<line x1="-248" y1="648" x2="-240" y2="648" stroke-width="10" stroke="black"/>
<line x1="-248" y1="640" x2="-248" y2="648" stroke-width="10" stroke="black"/>
<line x1="-240" y1="616" x2="-240" y2="608" stroke-width="10" stroke="black"/>
<line x1="-240" y1="584" x2="-240" y2="576" stroke-width="10" stroke="black"/>
<line x1="-248" y1="584" x2="-240" y2="584" stroke-width="10" stroke="black"/>
<line x1="-248" y1="576" x2="-248" y2="584" stroke-width="10" stroke="black"/>
<line x1="-248" y1="616" x2="-240" y2="616" stroke-width="10" stroke="black"/>
<line x1="-208" y1="688" x2="-208" y2="552" stroke-width="10" stroke="black"/>
<line x1="-192" y1="448" x2="-192" y2="512" stroke-width="10" stroke="black"/>
<line x1="-192" y1="512" x2="-64" y2="512" stroke-width="10" stroke="black"/>
<line x1="-64" y1="448" x2="-128" y2="448" stroke-width="10" stroke="black"/>
<line x1="-64" y1="512" x2="-64" y2="448" stroke-width="10" stroke="black"/>
<line x1="-16" y1="512" x2="-16" y2="448" stroke-width="10" stroke="black"/>
<line x1="-256" y1="552" x2="-208" y2="552" stroke-width="10" stroke="black"/>
<line x1="0" y1="576" x2="0" y2="512" stroke-width="10" stroke="black"/>
<line x1="-128" y1="304" x2="-64" y2="304" stroke-width="10" stroke="black"/>
<line x1="-128" y1="304" x2="-128" y2="288" stroke-width="10" stroke="black"/>
<line x1="-128" y1="288" x2="-144" y2="288" stroke-width="10" stroke="black"/>
<line x1="8" y1="312" x2="128" y2="312" stroke-width="10" stroke="black"/>
<line x1="8" y1="192" x2="8" y2="312" stroke-width="10" stroke="black"/>
<line x1="0" y1="320" x2="0" y2="288" stroke-width="10" stroke="black"/>
<line x1="-64" y1="288" x2="-64" y2="304" stroke-width="10" stroke="black"/>
<line x1="-8" y1="72" x2="-32" y2="72" stroke-width="10" stroke="black"/>
<line x1="-8" y1="184" x2="-8" y2="72" stroke-width="10" stroke="black"/>
<line x1="-32" y1="184" x2="-8" y2="184" stroke-width="10" stroke="black"/>
<line x1="-32" y1="72" x2="-32" y2="184" stroke-width="10" stroke="black"/>
<line x1="0" y1="192" x2="0" y2="64" stroke-width="10" stroke="black"/>
<line x1="64" y1="-128" x2="64" y2="-192" stroke-width="10" stroke="black"/>
<line x1="0" y1="0" x2="64" y2="-32" stroke-width="10" stroke="black"/>
<line x1="0" y1="0" x2="-128" y2="0" stroke-width="10" stroke="black"/>
<line x1="0" y1="64" x2="0" y2="0" stroke-width="10" stroke="black"/>
<line x1="128" y1="-128" x2="64" y2="-128" stroke-width="10" stroke="black"/>
<line x1="-256" y1="64" x2="-232" y2="64" stroke-width="10" stroke="black"/>
<line x1="0" y1="192" x2="8" y2="192" stroke-width="10" stroke="black"/>
<line x1="-128" y1="320" x2="-64" y2="320" stroke-width="10" stroke="black"/>
<line x1="-256" y1="-256" x2="-256" y2="64" stroke-width="10" stroke="black"/>
<line x1="128" y1="-320" x2="128" y2="-384" stroke-width="10" stroke="black"/>

</svg>

