<svg width="900" height="1083" preserveAspectRatio="none" viewBox="-962 -2650 2460 2908"
 xmlns="http://www.w3.org/2000/svg" xmlns:xlink="http://www.w3.org/1999/xlink">
   <defs>
    <marker id="arrow" markerWidth="10" markerHeight="10" refX="0" refY="2" orient="auto" markerUnits="strokeWidth">
      <path d="M0,0 L0,4 L5,3 z" fill="#f00" />
    </marker>
  </defs>

<line x1="-512" y1="-704" x2="-336" y2="-704" stroke-width="10" stroke="black"/>
<line x1="-448" y1="-768" x2="-336" y2="-704" stroke-width="10" stroke="black"/>
<line x1="-512" y1="-832" x2="-512" y2="-768" stroke-width="10" stroke="black"/>
<line x1="-704" y1="-664" x2="-664" y2="-704" stroke-width="10" stroke="black"/>
<line x1="-704" y1="-640" x2="-704" y2="-664" stroke-width="10" stroke="black"/>
<line x1="-664" y1="-704" x2="-576" y2="-704" stroke-width="10" stroke="black"/>
<line x1="-576" y1="-768" x2="-576" y2="-832" stroke-width="10" stroke="black"/>
<line x1="0" y1="-832" x2="-64" y2="-704" stroke-width="10" stroke="black"/>
<line x1="-64" y1="-704" x2="-64" y2="-640" stroke-width="10" stroke="black"/>
<line x1="0" y1="-704" x2="-64" y2="-704" stroke-width="10" stroke="black"/>
<line x1="-336" y1="-704" x2="-336" y2="-640" stroke-width="10" stroke="black"/>
<line x1="-224" y1="-704" x2="-192" y2="-704" stroke-width="10" stroke="black"/>
<line x1="-192" y1="-704" x2="-128" y2="-704" stroke-width="10" stroke="black"/>
<line x1="-192" y1="-704" x2="-192" y2="-640" stroke-width="10" stroke="black"/>
<line x1="-128" y1="-704" x2="-128" y2="-816" stroke-width="10" stroke="black"/>
<line x1="-224" y1="-784" x2="-336" y2="-704" stroke-width="10" stroke="black"/>
<line x1="-384" y1="-896" x2="-288" y2="-896" stroke-width="10" stroke="black"/>
<line x1="-288" y1="-920" x2="-384" y2="-920" stroke-width="10" stroke="black"/>
<line x1="-144" y1="-832" x2="-160" y2="-848" stroke-width="10" stroke="black"/>
<line x1="-288" y1="-896" x2="-224" y2="-832" stroke-width="10" stroke="black"/>
<line x1="-128" y1="-960" x2="0" y2="-832" stroke-width="10" stroke="black"/>
<line x1="-288" y1="-960" x2="-288" y2="-920" stroke-width="10" stroke="black"/>
<line x1="-512" y1="-864" x2="-576" y2="-864" stroke-width="10" stroke="black"/>
<line x1="-448" y1="-832" x2="-384" y2="-896" stroke-width="10" stroke="black"/>
<line x1="-576" y1="-928" x2="-512" y2="-928" stroke-width="10" stroke="black"/>
<line x1="-424" y1="-928" x2="-424" y2="-896" stroke-width="10" stroke="black"/>
<line x1="-512" y1="-960" x2="-512" y2="-928" stroke-width="10" stroke="black"/>
<line x1="-576" y1="-896" x2="-512" y2="-896" stroke-width="10" stroke="black"/>
<line x1="-384" y1="-896" x2="-384" y2="-920" stroke-width="10" stroke="black"/>
<line x1="-576" y1="-832" x2="-512" y2="-832" stroke-width="10" stroke="black"/>
<line x1="-32" y1="-376" x2="-32" y2="-352" stroke-width="10" stroke="black"/>
<line x1="-32" y1="-352" x2="0" y2="-368" stroke-width="10" stroke="black"/>
<line x1="-32" y1="-400" x2="-32" y2="-376" stroke-width="10" stroke="black"/>
<line x1="-32" y1="-376" x2="0" y2="-392" stroke-width="10" stroke="black"/>
<line x1="-32" y1="-424" x2="0" y2="-440" stroke-width="10" stroke="black"/>
<line x1="-32" y1="-472" x2="-32" y2="-424" stroke-width="10" stroke="black"/>
<line x1="0" y1="-496" x2="-32" y2="-472" stroke-width="10" stroke="black"/>
<line x1="-96" y1="-424" x2="-128" y2="-404" stroke-width="10" stroke="black"/>
<line x1="-32" y1="-424" x2="-32" y2="-400" stroke-width="10" stroke="black"/>
<line x1="-32" y1="-424" x2="-96" y2="-424" stroke-width="10" stroke="black"/>
<line x1="-32" y1="-400" x2="0" y2="-416" stroke-width="10" stroke="black"/>
<line x1="-616" y1="-320" x2="-704" y2="-408" stroke-width="10" stroke="black"/>
<line x1="-272" y1="-368" x2="-320" y2="-320" stroke-width="10" stroke="black"/>
<line x1="-704" y1="-408" x2="-704" y2="-640" stroke-width="10" stroke="black"/>
<line x1="-320" y1="-320" x2="-616" y2="-320" stroke-width="10" stroke="black"/>
<line x1="-272" y1="-520" x2="-208" y2="-520" stroke-width="10" stroke="black"/>
<line x1="-128" y1="-404" x2="-160" y2="-384" stroke-width="10" stroke="black"/>
<line x1="-192" y1="-384" x2="-192" y2="-512" stroke-width="10" stroke="black"/>
<line x1="-144" y1="-584" x2="-208" y2="-520" stroke-width="10" stroke="black"/>
<line x1="-192" y1="-640" x2="-272" y2="-560" stroke-width="10" stroke="black"/>
<line x1="-272" y1="-560" x2="-272" y2="-520" stroke-width="10" stroke="black"/>
<line x1="-128" y1="-576" x2="-128" y2="-640" stroke-width="10" stroke="black"/>
<line x1="-576" y1="-232" x2="-320" y2="-232" stroke-width="10" stroke="black"/>
<line x1="-304" y1="-160" x2="-304" y2="-232" stroke-width="10" stroke="black"/>
<line x1="-32" y1="-160" x2="-32" y2="-192" stroke-width="10" stroke="black"/>
<line x1="-320" y1="-256" x2="-320" y2="-232" stroke-width="10" stroke="black"/>
<line x1="-272" y1="-256" x2="-320" y2="-256" stroke-width="10" stroke="black"/>
<line x1="0" y1="-640" x2="-64" y2="-640" stroke-width="10" stroke="black"/>
<line x1="256" y1="-928" x2="320" y2="-928" stroke-width="10" stroke="black"/>
<line x1="256" y1="-960" x2="256" y2="-928" stroke-width="10" stroke="black"/>
<line x1="208" y1="-704" x2="208" y2="-720" stroke-width="10" stroke="black"/>
<line x1="256" y1="-832" x2="256" y2="-704" stroke-width="10" stroke="black"/>
<line x1="320" y1="-832" x2="256" y2="-832" stroke-width="10" stroke="black"/>
<line x1="208" y1="-640" x2="320" y2="-640" stroke-width="10" stroke="black"/>
<line x1="192" y1="-624" x2="208" y2="-624" stroke-width="10" stroke="black"/>
<line x1="208" y1="-624" x2="208" y2="-640" stroke-width="10" stroke="black"/>
<line x1="256" y1="-704" x2="208" y2="-704" stroke-width="10" stroke="black"/>
<line x1="0" y1="-928" x2="64" y2="-928" stroke-width="10" stroke="black"/>
<line x1="64" y1="-928" x2="64" y2="-960" stroke-width="10" stroke="black"/>
<line x1="64" y1="-704" x2="64" y2="-832" stroke-width="10" stroke="black"/>
<line x1="128" y1="-640" x2="192" y2="-640" stroke-width="10" stroke="black"/>
<line x1="192" y1="-704" x2="128" y2="-704" stroke-width="10" stroke="black"/>
<line x1="64" y1="-832" x2="0" y2="-832" stroke-width="10" stroke="black"/>
<line x1="192" y1="-640" x2="192" y2="-704" stroke-width="10" stroke="black"/>
<line x1="64" y1="-288" x2="0" y2="-256" stroke-width="10" stroke="black"/>
<line x1="64" y1="-32" x2="256" y2="-32" stroke-width="10" stroke="black"/>
<line x1="256" y1="-64" x2="64" y2="-64" stroke-width="10" stroke="black"/>
<line x1="312" y1="64" x2="312" y2="0" stroke-width="10" stroke="black"/>
<line x1="288" y1="0" x2="288" y2="64" stroke-width="10" stroke="black"/>
<line x1="320" y1="-256" x2="256" y2="-288" stroke-width="10" stroke="black"/>
<line x1="256" y1="-32" x2="288" y2="0" stroke-width="10" stroke="black"/>
<line x1="320" y1="-128" x2="256" y2="-64" stroke-width="10" stroke="black"/>
<line x1="288" y1="0" x2="312" y2="0" stroke-width="10" stroke="black"/>
<line x1="256" y1="-64" x2="256" y2="-32" stroke-width="10" stroke="black"/>
<line x1="256" y1="-440" x2="320" y2="-440" stroke-width="10" stroke="black"/>
<line x1="256" y1="-496" x2="224" y2="-472" stroke-width="10" stroke="black"/>
<line x1="224" y1="-472" x2="224" y2="-424" stroke-width="10" stroke="black"/>
<line x1="224" y1="-424" x2="256" y2="-440" stroke-width="10" stroke="black"/>
<line x1="0" y1="-440" x2="64" y2="-440" stroke-width="10" stroke="black"/>
<line x1="96" y1="-472" x2="64" y2="-496" stroke-width="10" stroke="black"/>
<line x1="64" y1="-440" x2="96" y2="-424" stroke-width="10" stroke="black"/>
<line x1="96" y1="-424" x2="96" y2="-472" stroke-width="10" stroke="black"/>
<line x1="64" y1="-368" x2="96" y2="-352" stroke-width="10" stroke="black"/>
<line x1="0" y1="-368" x2="64" y2="-368" stroke-width="10" stroke="black"/>
<line x1="96" y1="-352" x2="96" y2="-376" stroke-width="10" stroke="black"/>
<line x1="0" y1="-392" x2="64" y2="-392" stroke-width="10" stroke="black"/>
<line x1="96" y1="-376" x2="96" y2="-400" stroke-width="10" stroke="black"/>
<line x1="64" y1="-392" x2="96" y2="-376" stroke-width="10" stroke="black"/>
<line x1="0" y1="-416" x2="64" y2="-416" stroke-width="10" stroke="black"/>
<line x1="224" y1="-352" x2="256" y2="-368" stroke-width="10" stroke="black"/>
<line x1="256" y1="-392" x2="320" y2="-392" stroke-width="10" stroke="black"/>
<line x1="224" y1="-376" x2="256" y2="-392" stroke-width="10" stroke="black"/>
<line x1="256" y1="-368" x2="320" y2="-368" stroke-width="10" stroke="black"/>
<line x1="256" y1="-416" x2="320" y2="-416" stroke-width="10" stroke="black"/>
<line x1="224" y1="-400" x2="224" y2="-376" stroke-width="10" stroke="black"/>
<line x1="224" y1="-424" x2="224" y2="-400" stroke-width="10" stroke="black"/>
<line x1="96" y1="-400" x2="96" y2="-424" stroke-width="10" stroke="black"/>
<line x1="224" y1="-400" x2="256" y2="-416" stroke-width="10" stroke="black"/>
<line x1="64" y1="-416" x2="96" y2="-400" stroke-width="10" stroke="black"/>
<line x1="224" y1="-424" x2="96" y2="-424" stroke-width="10" stroke="black"/>
<line x1="64" y1="-288" x2="256" y2="-288" stroke-width="10" stroke="black"/>
<line x1="64" y1="-496" x2="0" y2="-496" stroke-width="10" stroke="black"/>
<line x1="0" y1="-192" x2="0" y2="-160" stroke-width="10" stroke="black"/>
<line x1="448" y1="-288" x2="384" y2="-256" stroke-width="10" stroke="black"/>
<line x1="576" y1="-224" x2="512" y2="-232" stroke-width="10" stroke="black"/>
<line x1="552" y1="-88" x2="488" y2="-120" stroke-width="10" stroke="black"/>
<line x1="464" y1="24" x2="432" y2="-32" stroke-width="10" stroke="black"/>
<line x1="520" y1="-32" x2="464" y2="-72" stroke-width="10" stroke="black"/>
<line x1="352" y1="-160" x2="320" y2="-160" stroke-width="10" stroke="black"/>
<line x1="392" y1="56" x2="384" y2="-8" stroke-width="10" stroke="black"/>
<line x1="568" y1="-152" x2="504" y2="-168" stroke-width="10" stroke="black"/>
<line x1="480" y1="-384" x2="416" y2="-424" stroke-width="10" stroke="black"/>
<line x1="320" y1="-368" x2="352" y2="-352" stroke-width="10" stroke="black"/>
<line x1="320" y1="-416" x2="352" y2="-400" stroke-width="10" stroke="black"/>
<line x1="320" y1="-392" x2="352" y2="-376" stroke-width="10" stroke="black"/>
<line x1="352" y1="-352" x2="352" y2="-376" stroke-width="10" stroke="black"/>
<line x1="512" y1="-384" x2="480" y2="-384" stroke-width="10" stroke="black"/>
<line x1="480" y1="-384" x2="448" y2="-288" stroke-width="10" stroke="black"/>
<line x1="320" y1="-832" x2="448" y2="-960" stroke-width="10" stroke="black"/>
<line x1="528" y1="-800" x2="544" y2="-816" stroke-width="10" stroke="black"/>
<line x1="496" y1="-800" x2="528" y2="-800" stroke-width="10" stroke="black"/>
<line x1="480" y1="-816" x2="496" y2="-800" stroke-width="10" stroke="black"/>
<line x1="496" y1="-864" x2="480" y2="-848" stroke-width="10" stroke="black"/>
<line x1="528" y1="-864" x2="496" y2="-864" stroke-width="10" stroke="black"/>
<line x1="544" y1="-848" x2="528" y2="-864" stroke-width="10" stroke="black"/>
<line x1="480" y1="-848" x2="480" y2="-816" stroke-width="10" stroke="black"/>
<line x1="320" y1="-440" x2="352" y2="-424" stroke-width="10" stroke="black"/>
<line x1="352" y1="-424" x2="352" y2="-472" stroke-width="10" stroke="black"/>
<line x1="352" y1="-472" x2="320" y2="-496" stroke-width="10" stroke="black"/>
<line x1="384" y1="-640" x2="384" y2="-704" stroke-width="10" stroke="black"/>
<line x1="384" y1="-704" x2="320" y2="-704" stroke-width="10" stroke="black"/>
<line x1="320" y1="-640" x2="384" y2="-640" stroke-width="10" stroke="black"/>
<line x1="384" y1="-704" x2="320" y2="-832" stroke-width="10" stroke="black"/>
<line x1="352" y1="-424" x2="416" y2="-424" stroke-width="10" stroke="black"/>
<line x1="512" y1="-288" x2="576" y2="-288" stroke-width="10" stroke="black"/>
<line x1="1232" y1="-792" x2="1184" y2="-808" stroke-width="10" stroke="black"/>
<line x1="1312" y1="-800" x2="1232" y2="-792" stroke-width="10" stroke="black"/>
<line x1="1160" y1="-848" x2="1232" y2="-824" stroke-width="10" stroke="black"/>
<line x1="1272" y1="-864" x2="1296" y2="-832" stroke-width="10" stroke="black"/>
<line x1="1232" y1="-824" x2="1296" y2="-832" stroke-width="10" stroke="black"/>
<line x1="1024" y1="-688" x2="1064" y2="-696" stroke-width="10" stroke="black"/>
<line x1="920" y1="-712" x2="1024" y2="-688" stroke-width="10" stroke="black"/>
<line x1="1080" y1="-664" x2="1016" y2="-656" stroke-width="10" stroke="black"/>
<line x1="1080" y1="-664" x2="1192" y2="-656" stroke-width="10" stroke="black"/>
<line x1="1232" y1="-688" x2="1136" y2="-704" stroke-width="10" stroke="black"/>
<line x1="1064" y1="-696" x2="1080" y2="-664" stroke-width="10" stroke="black"/>
<line x1="1152" y1="-496" x2="1024" y2="-496" stroke-width="10" stroke="black"/>
<line x1="774" y1="-659" x2="775" y2="-656" stroke-width="10" stroke="black"/>
<line x1="928" y1="-680" x2="848" y2="-656" stroke-width="10" stroke="black"/>
<line x1="776" y1="-656" x2="768" y2="-512" stroke-width="10" stroke="black"/>
<line x1="1024" y1="-448" x2="1024" y2="-496" stroke-width="10" stroke="black"/>
<line x1="1016" y1="-656" x2="928" y2="-680" stroke-width="10" stroke="black"/>
<line x1="936" y1="-944" x2="942" y2="-960" stroke-width="10" stroke="black"/>
<line x1="1104" y1="-920" x2="1048" y2="-832" stroke-width="10" stroke="black"/>
<line x1="1120" y1="-920" x2="1104" y2="-920" stroke-width="10" stroke="black"/>
<line x1="962" y1="-960" x2="952" y2="-928" stroke-width="10" stroke="black"/>
<line x1="1048" y1="-832" x2="904" y2="-808" stroke-width="10" stroke="black"/>
<line x1="888" y1="-784" x2="960" y2="-760" stroke-width="10" stroke="black"/>
<line x1="904" y1="-808" x2="888" y2="-784" stroke-width="10" stroke="black"/>
<line x1="808" y1="-888" x2="952" y2="-928" stroke-width="10" stroke="black"/>
<line x1="816" y1="-960" x2="736" y2="-872" stroke-width="10" stroke="black"/>
<line x1="760" y1="-760" x2="808" y2="-888" stroke-width="10" stroke="black"/>
<line x1="712" y1="-768" x2="774" y2="-659" stroke-width="10" stroke="black"/>
<line x1="952" y1="-928" x2="936" y2="-944" stroke-width="10" stroke="black"/>
<line x1="832" y1="-680" x2="920" y2="-712" stroke-width="10" stroke="black"/>
<line x1="1160" y1="-848" x2="1120" y2="-920" stroke-width="10" stroke="black"/>
<line x1="1152" y1="-472" x2="1024" y2="-448" stroke-width="10" stroke="black"/>
<line x1="1360" y1="-576" x2="1152" y2="-496" stroke-width="10" stroke="black"/>
<line x1="1192" y1="-400" x2="1096" y2="-376" stroke-width="10" stroke="black"/>
<line x1="1160" y1="-424" x2="1064" y2="-400" stroke-width="10" stroke="black"/>
<line x1="1192" y1="-264" x2="1024" y2="-280" stroke-width="10" stroke="black"/>
<line x1="1208" y1="-312" x2="1048" y2="-312" stroke-width="10" stroke="black"/>
<line x1="1208" y1="-360" x2="1088" y2="-352" stroke-width="10" stroke="black"/>
<line x1="936" y1="-48" x2="880" y2="-40" stroke-width="10" stroke="black"/>
<line x1="880" y1="0" x2="912" y2="24" stroke-width="10" stroke="black"/>
<line x1="800" y1="-64" x2="752" y2="-72" stroke-width="10" stroke="black"/>
<line x1="776" y1="0" x2="808" y2="-32" stroke-width="10" stroke="black"/>
<line x1="1144" y1="-208" x2="1064" y2="-168" stroke-width="10" stroke="black"/>
<line x1="832" y1="-264" x2="896" y2="-224" stroke-width="10" stroke="black"/>
<line x1="832" y1="-192" x2="768" y2="-192" stroke-width="10" stroke="black"/>
<line x1="768" y1="-192" x2="768" y2="-128" stroke-width="10" stroke="black"/>
<line x1="832" y1="-128" x2="832" y2="-192" stroke-width="10" stroke="black"/>
<line x1="768" y1="-128" x2="832" y2="-128" stroke-width="10" stroke="black"/>
<line x1="1144" y1="-208" x2="976" y2="-240" stroke-width="10" stroke="black"/>
<line x1="1152" y1="-448" x2="1048" y2="-424" stroke-width="10" stroke="black"/>
<line x1="576" y1="-224" x2="568" y2="-152" stroke-width="10" stroke="black"/>
<line x1="320" y1="-256" x2="320" y2="-192" stroke-width="10" stroke="black"/>
<line x1="-512" y1="-1600" x2="-576" y2="-1600" stroke-width="10" stroke="black"/>
<line x1="-576" y1="-1536" x2="-512" y2="-1536" stroke-width="10" stroke="black"/>
<line x1="-576" y1="-1600" x2="-592" y2="-1600" stroke-width="10" stroke="black"/>
<line x1="-592" y1="-1600" x2="-592" y2="-1504" stroke-width="10" stroke="black"/>
<line x1="-576" y1="-1504" x2="-576" y2="-1536" stroke-width="10" stroke="black"/>
<line x1="-344" y1="-1480" x2="-336" y2="-1488" stroke-width="10" stroke="black"/>
<line x1="-328" y1="-1672" x2="-296" y2="-1648" stroke-width="10" stroke="black"/>
<line x1="-344" y1="-1696" x2="-328" y2="-1672" stroke-width="10" stroke="black"/>
<line x1="-296" y1="-1648" x2="-272" y2="-1640" stroke-width="10" stroke="black"/>
<line x1="-128" y1="-1656" x2="-128" y2="-1792" stroke-width="10" stroke="black"/>
<line x1="-152" y1="-1792" x2="-152" y2="-1656" stroke-width="10" stroke="black"/>
<line x1="-128" y1="-1632" x2="-96" y2="-1624" stroke-width="10" stroke="black"/>
<line x1="-240" y1="-1584" x2="-192" y2="-1584" stroke-width="10" stroke="black"/>
<line x1="-128" y1="-1632" x2="-128" y2="-1656" stroke-width="10" stroke="black"/>
<line x1="-152" y1="-1656" x2="-256" y2="-1656" stroke-width="10" stroke="black"/>
<line x1="-272" y1="-1728" x2="-272" y2="-1640" stroke-width="10" stroke="black"/>
<line x1="-272" y1="-1608" x2="-240" y2="-1584" stroke-width="10" stroke="black"/>
<line x1="-416" y1="-1664" x2="-416" y2="-1728" stroke-width="10" stroke="black"/>
<line x1="-480" y1="-1664" x2="-416" y2="-1664" stroke-width="10" stroke="black"/>
<line x1="-424" y1="-1544" x2="-448" y2="-1560" stroke-width="10" stroke="black"/>
<line x1="-408" y1="-1520" x2="-424" y2="-1544" stroke-width="10" stroke="black"/>
<line x1="-400" y1="-1496" x2="-408" y2="-1520" stroke-width="10" stroke="black"/>
<line x1="-400" y1="-1472" x2="-400" y2="-1496" stroke-width="10" stroke="black"/>
<line x1="-416" y1="-1408" x2="-344" y2="-1480" stroke-width="10" stroke="black"/>
<line x1="-360" y1="-1512" x2="-400" y2="-1472" stroke-width="10" stroke="black"/>
<line x1="-448" y1="-1560" x2="-480" y2="-1568" stroke-width="10" stroke="black"/>
<line x1="-344" y1="-1696" x2="-344" y2="-1728" stroke-width="10" stroke="black"/>
<line x1="-512" y1="-1664" x2="-512" y2="-1600" stroke-width="10" stroke="black"/>
<line x1="-128" y1="-1184" x2="-128" y2="-960" stroke-width="10" stroke="black"/>
<line x1="-160" y1="-1216" x2="-160" y2="-1184" stroke-width="10" stroke="black"/>
<line x1="-160" y1="-1184" x2="-128" y2="-1184" stroke-width="10" stroke="black"/>
<line x1="-96" y1="-1248" x2="-128" y2="-1248" stroke-width="10" stroke="black"/>
<line x1="-192" y1="-1280" x2="-192" y2="-1216" stroke-width="10" stroke="black"/>
<line x1="-128" y1="-1248" x2="-128" y2="-1280" stroke-width="10" stroke="black"/>
<line x1="-192" y1="-1216" x2="-160" y2="-1216" stroke-width="10" stroke="black"/>
<line x1="-128" y1="-1280" x2="-128" y2="-1312" stroke-width="10" stroke="black"/>
<line x1="-160" y1="-1344" x2="-192" y2="-1344" stroke-width="10" stroke="black"/>
<line x1="-160" y1="-1344" x2="-160" y2="-1312" stroke-width="10" stroke="black"/>
<line x1="-160" y1="-1312" x2="-128" y2="-1312" stroke-width="10" stroke="black"/>
<line x1="-96" y1="-1376" x2="-160" y2="-1376" stroke-width="10" stroke="black"/>
<line x1="-192" y1="-1344" x2="-192" y2="-1280" stroke-width="10" stroke="black"/>
<line x1="-192" y1="-1280" x2="-128" y2="-1280" stroke-width="10" stroke="black"/>
<line x1="-640" y1="-1152" x2="-640" y2="-1344" stroke-width="10" stroke="black"/>
<line x1="-672" y1="-1344" x2="-672" y2="-1152" stroke-width="10" stroke="black"/>
<line x1="-640" y1="-1344" x2="-640" y2="-1408" stroke-width="10" stroke="black"/>
<line x1="-672" y1="-1344" x2="-640" y2="-1344" stroke-width="10" stroke="black"/>
<line x1="-576" y1="-992" x2="-512" y2="-992" stroke-width="10" stroke="black"/>
<line x1="-640" y1="-1088" x2="-640" y2="-1152" stroke-width="10" stroke="black"/>
<line x1="-576" y1="-1024" x2="-512" y2="-1024" stroke-width="10" stroke="black"/>
<line x1="-640" y1="-1152" x2="-672" y2="-1152" stroke-width="10" stroke="black"/>
<line x1="-416" y1="-1024" x2="-416" y2="-1088" stroke-width="10" stroke="black"/>
<line x1="-352" y1="-1024" x2="-416" y2="-1024" stroke-width="10" stroke="black"/>
<line x1="-352" y1="-1024" x2="-352" y2="-1000" stroke-width="10" stroke="black"/>
<line x1="-384" y1="-960" x2="-384" y2="-992" stroke-width="10" stroke="black"/>
<line x1="-352" y1="-1000" x2="-424" y2="-1000" stroke-width="10" stroke="black"/>
<line x1="-448" y1="-1088" x2="-512" y2="-1024" stroke-width="10" stroke="black"/>
<line x1="-440" y1="-1072" x2="-440" y2="-1088" stroke-width="10" stroke="black"/>
<line x1="-416" y1="-1344" x2="-416" y2="-1408" stroke-width="10" stroke="black"/>
<line x1="-448" y1="-1152" x2="-448" y2="-1088" stroke-width="10" stroke="black"/>
<line x1="-440" y1="-1088" x2="-416" y2="-1088" stroke-width="10" stroke="black"/>
<line x1="-512" y1="-992" x2="-512" y2="-960" stroke-width="10" stroke="black"/>
<line x1="-264" y1="-960" x2="-264" y2="-1024" stroke-width="10" stroke="black"/>
<line x1="-512" y1="-1408" x2="-576" y2="-1408" stroke-width="10" stroke="black"/>
<line x1="0" y1="-1856" x2="64" y2="-1792" stroke-width="10" stroke="black"/>
<line x1="-96" y1="-1792" x2="-64" y2="-1792" stroke-width="10" stroke="black"/>
<line x1="-64" y1="-1792" x2="0" y2="-1856" stroke-width="10" stroke="black"/>
<line x1="192" y1="-1984" x2="64" y2="-1984" stroke-width="10" stroke="black"/>
<line x1="64" y1="-1944" x2="0" y2="-1944" stroke-width="10" stroke="black"/>
<line x1="0" y1="-1920" x2="64" y2="-1920" stroke-width="10" stroke="black"/>
<line x1="-32" y1="-1576" x2="-32" y2="-1536" stroke-width="10" stroke="black"/>
<line x1="-32" y1="-1536" x2="0" y2="-1496" stroke-width="10" stroke="black"/>
<line x1="0" y1="-1496" x2="64" y2="-1472" stroke-width="10" stroke="black"/>
<line x1="64" y1="-1472" x2="192" y2="-1472" stroke-width="10" stroke="black"/>
<line x1="-96" y1="-1624" x2="-64" y2="-1616" stroke-width="10" stroke="black"/>
<line x1="128" y1="-1856" x2="192" y2="-1792" stroke-width="10" stroke="black"/>
<line x1="-64" y1="-1616" x2="-32" y2="-1576" stroke-width="10" stroke="black"/>
<line x1="-32" y1="-1576" x2="192" y2="-1576" stroke-width="10" stroke="black"/>
<line x1="128" y1="-1856" x2="64" y2="-1792" stroke-width="10" stroke="black"/>
<line x1="64" y1="-2432" x2="64" y2="-2448" stroke-width="10" stroke="black"/>
<line x1="96" y1="-2496" x2="160" y2="-2496" stroke-width="10" stroke="black"/>
<line x1="192" y1="-2432" x2="176" y2="-2400" stroke-width="10" stroke="black"/>
<line x1="160" y1="-2520" x2="160" y2="-2496" stroke-width="10" stroke="black"/>
<line x1="176" y1="-2400" x2="192" y2="-2381" stroke-width="10" stroke="black"/>
<line x1="40" y1="-2352" x2="80" y2="-2400" stroke-width="10" stroke="black"/>
<line x1="0" y1="-2368" x2="40" y2="-2352" stroke-width="10" stroke="black"/>
<line x1="0" y1="-2112" x2="40" y2="-2192" stroke-width="10" stroke="black"/>
<line x1="-64" y1="-2112" x2="0" y2="-2112" stroke-width="10" stroke="black"/>
<line x1="40" y1="-2192" x2="0" y2="-2240" stroke-width="10" stroke="black"/>
<line x1="80" y1="-2400" x2="64" y2="-2432" stroke-width="10" stroke="black"/>
<line x1="0" y1="-1944" x2="64" y2="-1984" stroke-width="10" stroke="black"/>
<line x1="-64" y1="-1184" x2="-64" y2="-1216" stroke-width="10" stroke="black"/>
<line x1="32" y1="-1184" x2="-64" y2="-1184" stroke-width="10" stroke="black"/>
<line x1="32" y1="-1216" x2="32" y2="-1184" stroke-width="10" stroke="black"/>
<line x1="64" y1="-1216" x2="32" y2="-1216" stroke-width="10" stroke="black"/>
<line x1="96" y1="-1024" x2="64" y2="-1024" stroke-width="10" stroke="black"/>
<line x1="128" y1="-1024" x2="96" y2="-1024" stroke-width="10" stroke="black"/>
<line x1="192" y1="-1024" x2="128" y2="-1024" stroke-width="10" stroke="black"/>
<line x1="128" y1="-1024" x2="128" y2="-960" stroke-width="10" stroke="black"/>
<line x1="96" y1="-1024" x2="96" y2="-960" stroke-width="10" stroke="black"/>
<line x1="64" y1="-1024" x2="64" y2="-960" stroke-width="10" stroke="black"/>
<line x1="-32" y1="-1376" x2="-96" y2="-1376" stroke-width="10" stroke="black"/>
<line x1="32" y1="-1376" x2="-32" y2="-1376" stroke-width="10" stroke="black"/>
<line x1="-32" y1="-1376" x2="-32" y2="-1312" stroke-width="10" stroke="black"/>
<line x1="32" y1="-1344" x2="96" y2="-1344" stroke-width="10" stroke="black"/>
<line x1="96" y1="-1344" x2="160" y2="-1344" stroke-width="10" stroke="black"/>
<line x1="160" y1="-1344" x2="192" y2="-1344" stroke-width="10" stroke="black"/>
<line x1="160" y1="-1408" x2="160" y2="-1344" stroke-width="10" stroke="black"/>
<line x1="96" y1="-1408" x2="96" y2="-1344" stroke-width="10" stroke="black"/>
<line x1="32" y1="-1408" x2="32" y2="-1376" stroke-width="10" stroke="black"/>
<line x1="-96" y1="-1312" x2="-32" y2="-1312" stroke-width="10" stroke="black"/>
<line x1="96" y1="-1408" x2="32" y2="-1408" stroke-width="10" stroke="black"/>
<line x1="1152" y1="-1384" x2="1120" y2="-1328" stroke-width="10" stroke="black"/>
<line x1="1080" y1="-1352" x2="1128" y2="-1416" stroke-width="10" stroke="black"/>
<line x1="1120" y1="-1328" x2="1056" y2="-1280" stroke-width="10" stroke="black"/>
<line x1="1208" y1="-1344" x2="1216" y2="-1296" stroke-width="10" stroke="black"/>
<line x1="1168" y1="-1368" x2="1208" y2="-1344" stroke-width="10" stroke="black"/>
<line x1="1168" y1="-1368" x2="1224" y2="-1416" stroke-width="10" stroke="black"/>
<line x1="1304" y1="-1328" x2="1216" y2="-1296" stroke-width="10" stroke="black"/>
<line x1="1122" y1="-1423" x2="1127" y2="-1416" stroke-width="10" stroke="black"/>
<line x1="1192" y1="-1080" x2="1136" y2="-1080" stroke-width="10" stroke="black"/>
<line x1="1184" y1="-1112" x2="1264" y2="-1144" stroke-width="10" stroke="black"/>
<line x1="1152" y1="-1112" x2="1184" y2="-1112" stroke-width="10" stroke="black"/>
<line x1="1320" y1="-1104" x2="1264" y2="-1112" stroke-width="10" stroke="black"/>
<line x1="1264" y1="-1112" x2="1192" y2="-1080" stroke-width="10" stroke="black"/>
<line x1="1136" y1="-1080" x2="1152" y2="-1112" stroke-width="10" stroke="black"/>
<line x1="1264" y1="-1144" x2="1320" y2="-1144" stroke-width="10" stroke="black"/>
<line x1="1320" y1="-1104" x2="1232" y2="-1040" stroke-width="10" stroke="black"/>
<line x1="942" y1="-960" x2="959" y2="-1000" stroke-width="10" stroke="black"/>
<line x1="960" y1="-1000" x2="1000" y2="-1032" stroke-width="10" stroke="black"/>
<line x1="968" y1="-976" x2="963" y2="-960" stroke-width="10" stroke="black"/>
<line x1="1008" y1="-1016" x2="968" y2="-976" stroke-width="10" stroke="black"/>
<line x1="1048" y1="-1264" x2="1022" y2="-1254" stroke-width="10" stroke="black"/>
<line x1="1144" y1="-1168" x2="1096" y2="-1056" stroke-width="10" stroke="black"/>
<line x1="1184" y1="-1176" x2="1120" y2="-1256" stroke-width="10" stroke="black"/>
<line x1="1096" y1="-1056" x2="1000" y2="-1032" stroke-width="10" stroke="black"/>
<line x1="1056" y1="-1280" x2="1048" y2="-1264" stroke-width="10" stroke="black"/>
<line x1="1000" y1="-1032" x2="1008" y2="-1016" stroke-width="10" stroke="black"/>
<line x1="1104" y1="-1024" x2="1136" y2="-1080" stroke-width="10" stroke="black"/>
<line x1="1120" y1="-1256" x2="1056" y2="-1280" stroke-width="10" stroke="black"/>
<line x1="448" y1="-1168" x2="528" y2="-1224" stroke-width="10" stroke="black"/>
<line x1="1021" y1="-1254" x2="984" y2="-1240" stroke-width="10" stroke="black"/>
<line x1="984" y1="-1240" x2="944" y2="-1192" stroke-width="10" stroke="black"/>
<line x1="864" y1="-1144" x2="944" y2="-1192" stroke-width="10" stroke="black"/>
<line x1="944" y1="-1248" x2="1080" y2="-1352" stroke-width="10" stroke="black"/>
<line x1="872" y1="-1232" x2="944" y2="-1248" stroke-width="10" stroke="black"/>
<line x1="800" y1="-1264" x2="832" y2="-1088" stroke-width="10" stroke="black"/>
<line x1="904" y1="-1320" x2="920" y2="-1376" stroke-width="10" stroke="black"/>
<line x1="992" y1="-1384" x2="992" y2="-1464" stroke-width="10" stroke="black"/>
<line x1="672" y1="-1488" x2="650" y2="-1413" stroke-width="10" stroke="black"/>
<line x1="920" y1="-1376" x2="992" y2="-1384" stroke-width="10" stroke="black"/>
<line x1="664" y1="-1376" x2="608" y2="-1336" stroke-width="10" stroke="black"/>
<line x1="649" y1="-1412" x2="648" y2="-1408" stroke-width="10" stroke="black"/>
<line x1="648" y1="-1408" x2="664" y2="-1376" stroke-width="10" stroke="black"/>
<line x1="504" y1="-1272" x2="448" y2="-1237" stroke-width="10" stroke="black"/>
<line x1="528" y1="-1224" x2="504" y2="-1272" stroke-width="10" stroke="black"/>
<line x1="696" y1="-1320" x2="720" y2="-1288" stroke-width="10" stroke="black"/>
<line x1="632" y1="-1288" x2="696" y2="-1320" stroke-width="10" stroke="black"/>
<line x1="608" y1="-1336" x2="632" y2="-1288" stroke-width="10" stroke="black"/>
<line x1="784" y1="-1336" x2="720" y2="-1336" stroke-width="10" stroke="black"/>
<line x1="840" y1="-1304" x2="784" y2="-1336" stroke-width="10" stroke="black"/>
<line x1="840" y1="-1304" x2="904" y2="-1320" stroke-width="10" stroke="black"/>
<line x1="864" y1="-992" x2="912" y2="-1072" stroke-width="10" stroke="black"/>
<line x1="256" y1="-1440" x2="256" y2="-1472" stroke-width="10" stroke="black"/>
<line x1="352" y1="-1536" x2="352" y2="-1576" stroke-width="10" stroke="black"/>
<line x1="320" y1="-1496" x2="352" y2="-1536" stroke-width="10" stroke="black"/>
<line x1="256" y1="-1472" x2="320" y2="-1496" stroke-width="10" stroke="black"/>
<line x1="192" y1="-1472" x2="256" y2="-1472" stroke-width="10" stroke="black"/>
<line x1="192" y1="-1792" x2="256" y2="-1856" stroke-width="10" stroke="black"/>
<line x1="256" y1="-1856" x2="320" y2="-1792" stroke-width="10" stroke="black"/>
<line x1="352" y1="-1576" x2="384" y2="-1616" stroke-width="10" stroke="black"/>
<line x1="384" y1="-1616" x2="448" y2="-1632" stroke-width="10" stroke="black"/>
<line x1="320" y1="-1856" x2="320" y2="-1816" stroke-width="10" stroke="black"/>
<line x1="192" y1="-1576" x2="352" y2="-1576" stroke-width="10" stroke="black"/>
<line x1="192" y1="-2380" x2="216" y2="-2352" stroke-width="10" stroke="black"/>
<line x1="216" y1="-2352" x2="256" y2="-2368" stroke-width="10" stroke="black"/>
<line x1="192" y1="-2432" x2="256" y2="-2368" stroke-width="10" stroke="black"/>
<line x1="256" y1="-1944" x2="192" y2="-1984" stroke-width="10" stroke="black"/>
<line x1="256" y1="-2112" x2="320" y2="-2112" stroke-width="10" stroke="black"/>
<line x1="216" y1="-2192" x2="256" y2="-2112" stroke-width="10" stroke="black"/>
<line x1="256" y1="-2240" x2="216" y2="-2192" stroke-width="10" stroke="black"/>
<line x1="192" y1="-1920" x2="256" y2="-1920" stroke-width="10" stroke="black"/>
<line x1="256" y1="-1024" x2="224" y2="-1024" stroke-width="10" stroke="black"/>
<line x1="224" y1="-1024" x2="192" y2="-1024" stroke-width="10" stroke="black"/>
<line x1="224" y1="-960" x2="224" y2="-1024" stroke-width="10" stroke="black"/>
<line x1="224" y1="-1344" x2="224" y2="-1376" stroke-width="10" stroke="black"/>
<line x1="192" y1="-1376" x2="224" y2="-1376" stroke-width="10" stroke="black"/>
<line x1="192" y1="-1344" x2="224" y2="-1344" stroke-width="10" stroke="black"/>
<line x1="416" y1="-992" x2="288" y2="-992" stroke-width="10" stroke="black"/>
<line x1="416" y1="-1184" x2="416" y2="-992" stroke-width="10" stroke="black"/>
<line x1="416" y1="-1216" x2="288" y2="-1216" stroke-width="10" stroke="black"/>
<line x1="416" y1="-1200" x2="288" y2="-1200" stroke-width="10" stroke="black"/>
<line x1="448" y1="-1236" x2="416" y2="-1216" stroke-width="10" stroke="black"/>
<line x1="416" y1="-1216" x2="416" y2="-1200" stroke-width="10" stroke="black"/>
<line x1="288" y1="-1184" x2="416" y2="-1184" stroke-width="10" stroke="black"/>
<line x1="288" y1="-1216" x2="256" y2="-1216" stroke-width="10" stroke="black"/>
<line x1="288" y1="-992" x2="288" y2="-1184" stroke-width="10" stroke="black"/>
<line x1="256" y1="-1024" x2="256" y2="-960" stroke-width="10" stroke="black"/>
<line x1="256" y1="-1440" x2="192" y2="-1440" stroke-width="10" stroke="black"/>
<line x1="448" y1="-960" x2="448" y2="-1168" stroke-width="10" stroke="black"/>
<line x1="192" y1="-1472" x2="192" y2="-1440" stroke-width="10" stroke="black"/>
<line x1="-96" y1="-1376" x2="-96" y2="-1312" stroke-width="10" stroke="black"/>
<line x1="64" y1="-960" x2="96" y2="-960" stroke-width="10" stroke="black"/>

</svg>

