<svg width="900" height="828" preserveAspectRatio="none" viewBox="-2370 -1922 5060 4676"
 xmlns="http://www.w3.org/2000/svg" xmlns:xlink="http://www.w3.org/1999/xlink">
   <defs>
    <marker id="arrow" markerWidth="10" markerHeight="10" refX="0" refY="2" orient="auto" markerUnits="strokeWidth">
      <path d="M0,0 L0,4 L5,3 z" fill="#f00" />
    </marker>
  </defs>

<line x1="376" y1="-1776" x2="432" y2="-1776" stroke-width="10" stroke="black"/>
<line x1="512" y1="-1728" x2="832" y2="-1728" stroke-width="10" stroke="black"/>
<line x1="432" y1="-1776" x2="496" y2="-1712" stroke-width="10" stroke="black"/>
<line x1="816" y1="-1440" x2="800" y2="-1328" stroke-width="10" stroke="black"/>
<line x1="752" y1="-1072" x2="784" y2="-1200" stroke-width="10" stroke="black"/>
<line x1="816" y1="-1456" x2="807" y2="-1471" stroke-width="10" stroke="black"/>
<line x1="784" y1="-1200" x2="800" y2="-1328" stroke-width="10" stroke="black"/>
<line x1="800" y1="-1328" x2="784" y2="-1200" stroke-width="10" stroke="black"/>
<line x1="640" y1="-1008" x2="752" y2="-1072" stroke-width="10" stroke="black"/>
<line x1="512" y1="-976" x2="640" y2="-1008" stroke-width="10" stroke="black"/>
<line x1="392" y1="-960" x2="512" y2="-976" stroke-width="10" stroke="black"/>
<line x1="664" y1="-1144" x2="664" y2="-1160" stroke-width="10" stroke="black"/>
<line x1="648" y1="-1128" x2="664" y2="-1144" stroke-width="10" stroke="black"/>
<line x1="616" y1="-1144" x2="632" y2="-1128" stroke-width="10" stroke="black"/>
<line x1="616" y1="-1160" x2="616" y2="-1144" stroke-width="10" stroke="black"/>
<line x1="632" y1="-1176" x2="616" y2="-1160" stroke-width="10" stroke="black"/>
<line x1="632" y1="-1128" x2="648" y2="-1128" stroke-width="10" stroke="black"/>
<line x1="664" y1="-1160" x2="648" y2="-1176" stroke-width="10" stroke="black"/>
<line x1="768" y1="-1536" x2="704" y2="-1536" stroke-width="10" stroke="black"/>
<line x1="807" y1="-1471" x2="768" y2="-1536" stroke-width="10" stroke="black"/>
<line x1="704" y1="-1536" x2="640" y2="-1472" stroke-width="10" stroke="black"/>
<line x1="512" y1="-1472" x2="512" y2="-1344" stroke-width="10" stroke="black"/>
<line x1="512" y1="-1280" x2="376" y2="-1280" stroke-width="10" stroke="black"/>
<line x1="640" y1="-1344" x2="512" y2="-1280" stroke-width="10" stroke="black"/>
<line x1="512" y1="-1344" x2="512" y2="-1280" stroke-width="10" stroke="black"/>
<line x1="640" y1="-1344" x2="512" y2="-1344" stroke-width="10" stroke="black"/>
<line x1="736" y1="-1448" x2="720" y2="-1448" stroke-width="10" stroke="black"/>
<line x1="752" y1="-1416" x2="752" y2="-1432" stroke-width="10" stroke="black"/>
<line x1="720" y1="-1400" x2="736" y2="-1400" stroke-width="10" stroke="black"/>
<line x1="704" y1="-1416" x2="720" y2="-1400" stroke-width="10" stroke="black"/>
<line x1="720" y1="-1448" x2="704" y2="-1432" stroke-width="10" stroke="black"/>
<line x1="704" y1="-1432" x2="704" y2="-1416" stroke-width="10" stroke="black"/>
<line x1="640" y1="-1472" x2="640" y2="-1344" stroke-width="10" stroke="black"/>
<line x1="640" y1="-1472" x2="512" y2="-1472" stroke-width="10" stroke="black"/>
<line x1="736" y1="-1400" x2="752" y2="-1416" stroke-width="10" stroke="black"/>
<line x1="824" y1="-1440" x2="824" y2="-1456" stroke-width="10" stroke="black"/>
<line x1="816" y1="-1440" x2="824" y2="-1440" stroke-width="10" stroke="black"/>
<line x1="816" y1="-1712" x2="1200" y2="-1104" stroke-width="10" stroke="black"/>
<line x1="1200" y1="-1104" x2="1200" y2="-928" stroke-width="10" stroke="black"/>
<line x1="816" y1="-1456" x2="816" y2="-1440" stroke-width="10" stroke="black"/>
<line x1="816" y1="-1712" x2="496" y2="-1712" stroke-width="10" stroke="black"/>
<line x1="832" y1="-1728" x2="1216" y2="-1120" stroke-width="10" stroke="black"/>
<line x1="640" y1="-256" x2="392" y2="-448" stroke-width="10" stroke="black"/>
<line x1="872" y1="-352" x2="1000" y2="-352" stroke-width="10" stroke="black"/>
<line x1="872" y1="-384" x2="872" y2="-352" stroke-width="10" stroke="black"/>
<line x1="872" y1="-416" x2="872" y2="-384" stroke-width="10" stroke="black"/>
<line x1="872" y1="-384" x2="1000" y2="-384" stroke-width="10" stroke="black"/>
<line x1="872" y1="-448" x2="1000" y2="-448" stroke-width="10" stroke="black"/>
<line x1="872" y1="-448" x2="872" y2="-416" stroke-width="10" stroke="black"/>
<line x1="872" y1="-416" x2="1000" y2="-416" stroke-width="10" stroke="black"/>
<line x1="1000" y1="-352" x2="1000" y2="-384" stroke-width="10" stroke="black"/>
<line x1="704" y1="-480" x2="704" y2="-256" stroke-width="10" stroke="black"/>
<line x1="1072" y1="-496" x2="1008" y2="-496" stroke-width="10" stroke="black"/>
<line x1="1008" y1="-488" x2="1072" y2="-488" stroke-width="10" stroke="black"/>
<line x1="1008" y1="-496" x2="1008" y2="-488" stroke-width="10" stroke="black"/>
<line x1="1072" y1="-488" x2="1072" y2="-496" stroke-width="10" stroke="black"/>
<line x1="1464" y1="-520" x2="1232" y2="-488" stroke-width="10" stroke="black"/>
<line x1="1232" y1="-488" x2="1000" y2="-480" stroke-width="10" stroke="black"/>
<line x1="1600" y1="-576" x2="1464" y2="-520" stroke-width="10" stroke="black"/>
<line x1="1576" y1="-912" x2="1600" y2="-925" stroke-width="10" stroke="black"/>
<line x1="1200" y1="-928" x2="1200" y2="-912" stroke-width="10" stroke="black"/>
<line x1="1200" y1="-912" x2="1576" y2="-912" stroke-width="10" stroke="black"/>
<line x1="864" y1="-496" x2="800" y2="-496" stroke-width="10" stroke="black"/>
<line x1="864" y1="-488" x2="864" y2="-496" stroke-width="10" stroke="black"/>
<line x1="800" y1="-488" x2="864" y2="-488" stroke-width="10" stroke="black"/>
<line x1="800" y1="-496" x2="800" y2="-488" stroke-width="10" stroke="black"/>
<line x1="888" y1="-608" x2="872" y2="-544" stroke-width="10" stroke="black"/>
<line x1="1000" y1="-544" x2="984" y2="-608" stroke-width="10" stroke="black"/>
<line x1="984" y1="-608" x2="888" y2="-608" stroke-width="10" stroke="black"/>
<line x1="1000" y1="-544" x2="872" y2="-544" stroke-width="10" stroke="black"/>
<line x1="872" y1="-544" x2="872" y2="-480" stroke-width="10" stroke="black"/>
<line x1="384" y1="-480" x2="384" y2="-928" stroke-width="10" stroke="black"/>
<line x1="1000" y1="-480" x2="1000" y2="-544" stroke-width="10" stroke="black"/>
<line x1="872" y1="-480" x2="1000" y2="-480" stroke-width="10" stroke="black"/>
<line x1="1216" y1="-928" x2="1200" y2="-928" stroke-width="10" stroke="black"/>
<line x1="2256" y1="-336" x2="2280" y2="-360" stroke-width="10" stroke="black"/>
<line x1="2280" y1="-360" x2="2288" y2="-392" stroke-width="10" stroke="black"/>
<line x1="2208" y1="-416" x2="2288" y2="-416" stroke-width="10" stroke="black"/>
<line x1="2288" y1="-392" x2="2288" y2="-416" stroke-width="10" stroke="black"/>
<line x1="2208" y1="-400" x2="2280" y2="-360" stroke-width="10" stroke="black"/>
<line x1="2288" y1="-448" x2="2304" y2="-480" stroke-width="10" stroke="black"/>
<line x1="2216" y1="-496" x2="2232" y2="-520" stroke-width="10" stroke="black"/>
<line x1="2216" y1="-496" x2="2304" y2="-480" stroke-width="10" stroke="black"/>
<line x1="2208" y1="-448" x2="2288" y2="-448" stroke-width="10" stroke="black"/>
<line x1="2368" y1="-448" x2="2304" y2="-448" stroke-width="10" stroke="black"/>
<line x1="2368" y1="-384" x2="2368" y2="-448" stroke-width="10" stroke="black"/>
<line x1="2304" y1="-384" x2="2368" y2="-384" stroke-width="10" stroke="black"/>
<line x1="2376" y1="-480" x2="2376" y2="-256" stroke-width="10" stroke="black"/>
<line x1="2304" y1="-480" x2="2376" y2="-480" stroke-width="10" stroke="black"/>
<line x1="2304" y1="-448" x2="2304" y2="-384" stroke-width="10" stroke="black"/>
<line x1="2224" y1="-320" x2="2256" y2="-336" stroke-width="10" stroke="black"/>
<line x1="2192" y1="-384" x2="2224" y2="-320" stroke-width="10" stroke="black"/>
<line x1="2184" y1="-312" x2="2224" y2="-320" stroke-width="10" stroke="black"/>
<line x1="2256" y1="-336" x2="2200" y2="-392" stroke-width="10" stroke="black"/>
<line x1="2080" y1="-448" x2="2080" y2="-432" stroke-width="10" stroke="black"/>
<line x1="2080" y1="-392" x2="2088" y2="-360" stroke-width="10" stroke="black"/>
<line x1="2080" y1="-416" x2="2080" y2="-392" stroke-width="10" stroke="black"/>
<line x1="2160" y1="-416" x2="2080" y2="-416" stroke-width="10" stroke="black"/>
<line x1="2088" y1="-360" x2="2112" y2="-336" stroke-width="10" stroke="black"/>
<line x1="2144" y1="-320" x2="2184" y2="-312" stroke-width="10" stroke="black"/>
<line x1="2176" y1="-384" x2="2144" y2="-320" stroke-width="10" stroke="black"/>
<line x1="2168" y1="-392" x2="2112" y2="-336" stroke-width="10" stroke="black"/>
<line x1="2160" y1="-400" x2="2088" y2="-360" stroke-width="10" stroke="black"/>
<line x1="1600" y1="-376" x2="1792" y2="-320" stroke-width="10" stroke="black"/>
<line x1="1808" y1="-256" x2="1808" y2="-320" stroke-width="10" stroke="black"/>
<line x1="1792" y1="-320" x2="1808" y2="-320" stroke-width="10" stroke="black"/>
<line x1="2000" y1="-256" x2="2000" y2="-328" stroke-width="10" stroke="black"/>
<line x1="1792" y1="-320" x2="1792" y2="-256" stroke-width="10" stroke="black"/>
<line x1="2144" y1="-320" x2="2112" y2="-336" stroke-width="10" stroke="black"/>
<line x1="1664" y1="-960" x2="1696" y2="-960" stroke-width="10" stroke="black"/>
<line x1="1600" y1="-925" x2="1664" y2="-960" stroke-width="10" stroke="black"/>
<line x1="1792" y1="-648" x2="1608" y2="-576" stroke-width="10" stroke="black"/>
<line x1="1696" y1="-960" x2="1688" y2="-984" stroke-width="10" stroke="black"/>
<line x1="1808" y1="-832" x2="1864" y2="-680" stroke-width="10" stroke="black"/>
<line x1="1696" y1="-960" x2="1792" y2="-648" stroke-width="10" stroke="black"/>
<line x1="1608" y1="-544" x2="1808" y2="-544" stroke-width="10" stroke="black"/>
<line x1="1608" y1="-552" x2="1808" y2="-552" stroke-width="10" stroke="black"/>
<line x1="2080" y1="-472" x2="2080" y2="-448" stroke-width="10" stroke="black"/>
<line x1="2152" y1="-496" x2="2080" y2="-472" stroke-width="10" stroke="black"/>
<line x1="1808" y1="-560" x2="1808" y2="-552" stroke-width="10" stroke="black"/>
<line x1="1808" y1="-560" x2="1608" y2="-560" stroke-width="10" stroke="black"/>
<line x1="2080" y1="-448" x2="2160" y2="-448" stroke-width="10" stroke="black"/>
<line x1="2184" y1="-312" x2="2184" y2="-384" stroke-width="10" stroke="black"/>
<line x1="1600" y1="-576" x2="1600" y2="-376" stroke-width="10" stroke="black"/>
<line x1="-126" y1="-1128" x2="-112" y2="-1072" stroke-width="10" stroke="black"/>
<line x1="-112" y1="-1072" x2="0" y2="-1008" stroke-width="10" stroke="black"/>
<line x1="128" y1="-976" x2="248" y2="-960" stroke-width="10" stroke="black"/>
<line x1="0" y1="-1008" x2="128" y2="-976" stroke-width="10" stroke="black"/>
<line x1="248" y1="-960" x2="248" y2="-928" stroke-width="10" stroke="black"/>
<line x1="376" y1="-960" x2="264" y2="-960" stroke-width="10" stroke="black"/>
<line x1="-624" y1="-1104" x2="-607" y2="-1128" stroke-width="10" stroke="black"/>
<line x1="-624" y1="-928" x2="-624" y2="-1104" stroke-width="10" stroke="black"/>
<line x1="-1190" y1="-928" x2="-1176" y2="-936" stroke-width="10" stroke="black"/>
<line x1="-1176" y1="-936" x2="-984" y2="-952" stroke-width="10" stroke="black"/>
<line x1="-984" y1="-952" x2="-812" y2="-928" stroke-width="10" stroke="black"/>
<line x1="-640" y1="-928" x2="-640" y2="-1120" stroke-width="10" stroke="black"/>
<line x1="-320" y1="-1056" x2="-448" y2="-1056" stroke-width="10" stroke="black"/>
<line x1="-320" y1="-1024" x2="-448" y2="-1024" stroke-width="10" stroke="black"/>
<line x1="-320" y1="-960" x2="-448" y2="-960" stroke-width="10" stroke="black"/>
<line x1="-320" y1="-992" x2="-448" y2="-992" stroke-width="10" stroke="black"/>
<line x1="-448" y1="-1056" x2="-448" y2="-1024" stroke-width="10" stroke="black"/>
<line x1="-320" y1="-928" x2="-320" y2="-960" stroke-width="10" stroke="black"/>
<line x1="208" y1="-1776" x2="376" y2="-1776" stroke-width="10" stroke="black"/>
<line x1="144" y1="-1712" x2="208" y2="-1776" stroke-width="10" stroke="black"/>
<line x1="128" y1="-1712" x2="144" y2="-1712" stroke-width="10" stroke="black"/>
<line x1="328" y1="-1176" x2="312" y2="-1176" stroke-width="10" stroke="black"/>
<line x1="344" y1="-1144" x2="344" y2="-1160" stroke-width="10" stroke="black"/>
<line x1="328" y1="-1128" x2="344" y2="-1144" stroke-width="10" stroke="black"/>
<line x1="296" y1="-1144" x2="312" y2="-1128" stroke-width="10" stroke="black"/>
<line x1="296" y1="-1160" x2="296" y2="-1144" stroke-width="10" stroke="black"/>
<line x1="312" y1="-1176" x2="296" y2="-1160" stroke-width="10" stroke="black"/>
<line x1="376" y1="-1280" x2="128" y2="-1280" stroke-width="10" stroke="black"/>
<line x1="128" y1="-1472" x2="0" y2="-1472" stroke-width="10" stroke="black"/>
<line x1="0" y1="-1344" x2="0" y2="-1472" stroke-width="10" stroke="black"/>
<line x1="128" y1="-1344" x2="0" y2="-1344" stroke-width="10" stroke="black"/>
<line x1="-158" y1="-1313" x2="-144" y2="-1200" stroke-width="10" stroke="black"/>
<line x1="-144" y1="-1200" x2="-126" y2="-1128" stroke-width="10" stroke="black"/>
<line x1="24" y1="-1144" x2="24" y2="-1160" stroke-width="10" stroke="black"/>
<line x1="8" y1="-1128" x2="24" y2="-1144" stroke-width="10" stroke="black"/>
<line x1="-24" y1="-1144" x2="-8" y2="-1128" stroke-width="10" stroke="black"/>
<line x1="-8" y1="-1176" x2="-24" y2="-1160" stroke-width="10" stroke="black"/>
<line x1="8" y1="-1176" x2="-8" y2="-1176" stroke-width="10" stroke="black"/>
<line x1="-24" y1="-1160" x2="-24" y2="-1144" stroke-width="10" stroke="black"/>
<line x1="128" y1="-1280" x2="0" y2="-1344" stroke-width="10" stroke="black"/>
<line x1="-176" y1="-1712" x2="128" y2="-1712" stroke-width="10" stroke="black"/>
<line x1="0" y1="-1472" x2="-64" y2="-1536" stroke-width="10" stroke="black"/>
<line x1="-128" y1="-1536" x2="-176" y2="-1456" stroke-width="10" stroke="black"/>
<line x1="-64" y1="-1536" x2="-128" y2="-1536" stroke-width="10" stroke="black"/>
<line x1="-160" y1="-1328" x2="-159" y2="-1314" stroke-width="10" stroke="black"/>
<line x1="-64" y1="-1408" x2="-64" y2="-1424" stroke-width="10" stroke="black"/>
<line x1="-96" y1="-1392" x2="-80" y2="-1392" stroke-width="10" stroke="black"/>
<line x1="-112" y1="-1408" x2="-96" y2="-1392" stroke-width="10" stroke="black"/>
<line x1="-96" y1="-1440" x2="-112" y2="-1424" stroke-width="10" stroke="black"/>
<line x1="-112" y1="-1424" x2="-112" y2="-1408" stroke-width="10" stroke="black"/>
<line x1="-80" y1="-1440" x2="-96" y2="-1440" stroke-width="10" stroke="black"/>
<line x1="-184" y1="-1456" x2="-184" y2="-1440" stroke-width="10" stroke="black"/>
<line x1="-184" y1="-1440" x2="-176" y2="-1440" stroke-width="10" stroke="black"/>
<line x1="-606" y1="-1128" x2="-176" y2="-1712" stroke-width="10" stroke="black"/>
<line x1="-176" y1="-1440" x2="-176" y2="-1456" stroke-width="10" stroke="black"/>
<line x1="-80" y1="-1392" x2="-64" y2="-1408" stroke-width="10" stroke="black"/>
<line x1="128" y1="-1344" x2="128" y2="-1472" stroke-width="10" stroke="black"/>
<line x1="-8" y1="-1128" x2="8" y2="-1128" stroke-width="10" stroke="black"/>
<line x1="-336" y1="-800" x2="-320" y2="-864" stroke-width="10" stroke="black"/>
<line x1="-448" y1="-864" x2="-432" y2="-800" stroke-width="10" stroke="black"/>
<line x1="-432" y1="-800" x2="-336" y2="-800" stroke-width="10" stroke="black"/>
<line x1="-520" y1="-912" x2="-456" y2="-912" stroke-width="10" stroke="black"/>
<line x1="-520" y1="-920" x2="-520" y2="-912" stroke-width="10" stroke="black"/>
<line x1="-456" y1="-920" x2="-520" y2="-920" stroke-width="10" stroke="black"/>
<line x1="-456" y1="-912" x2="-456" y2="-920" stroke-width="10" stroke="black"/>
<line x1="-448" y1="-928" x2="-448" y2="-864" stroke-width="10" stroke="black"/>
<line x1="-448" y1="-864" x2="-320" y2="-864" stroke-width="10" stroke="black"/>
<line x1="-1384" y1="-664" x2="-1320" y2="-856" stroke-width="10" stroke="black"/>
<line x1="-1320" y1="-856" x2="-1191" y2="-928" stroke-width="10" stroke="black"/>
<line x1="-1216" y1="-480" x2="-1216" y2="-512" stroke-width="10" stroke="black"/>
<line x1="-1280" y1="-480" x2="-1280" y2="-512" stroke-width="10" stroke="black"/>
<line x1="-1216" y1="-512" x2="-1280" y2="-512" stroke-width="10" stroke="black"/>
<line x1="-1408" y1="-480" x2="-1384" y2="-664" stroke-width="10" stroke="black"/>
<line x1="-812" y1="-928" x2="-640" y2="-904" stroke-width="10" stroke="black"/>
<line x1="-640" y1="-904" x2="-624" y2="-928" stroke-width="10" stroke="black"/>
<line x1="-832" y1="-320" x2="-1024" y2="-464" stroke-width="10" stroke="black"/>
<line x1="-832" y1="-256" x2="-832" y2="-320" stroke-width="10" stroke="black"/>
<line x1="-1024" y1="-464" x2="-1408" y2="-464" stroke-width="10" stroke="black"/>
<line x1="-1856" y1="-384" x2="-1792" y2="-384" stroke-width="10" stroke="black"/>
<line x1="-1856" y1="-320" x2="-1792" y2="-320" stroke-width="10" stroke="black"/>
<line x1="-1920" y1="-448" x2="-1888" y2="-256" stroke-width="10" stroke="black"/>
<line x1="-1760" y1="-256" x2="-1728" y2="-448" stroke-width="10" stroke="black"/>
<line x1="-1408" y1="-256" x2="-1408" y2="-464" stroke-width="10" stroke="black"/>
<line x1="-320" y1="-480" x2="-1216" y2="-480" stroke-width="10" stroke="black"/>
<line x1="344" y1="-712" x2="328" y2="-712" stroke-width="10" stroke="black"/>
<line x1="344" y1="-696" x2="344" y2="-712" stroke-width="10" stroke="black"/>
<line x1="328" y1="-712" x2="328" y2="-696" stroke-width="10" stroke="black"/>
<line x1="328" y1="-696" x2="344" y2="-696" stroke-width="10" stroke="black"/>
<line x1="312" y1="-712" x2="296" y2="-712" stroke-width="10" stroke="black"/>
<line x1="296" y1="-712" x2="296" y2="-696" stroke-width="10" stroke="black"/>
<line x1="296" y1="-696" x2="312" y2="-696" stroke-width="10" stroke="black"/>
<line x1="312" y1="-696" x2="312" y2="-712" stroke-width="10" stroke="black"/>
<line x1="280" y1="-688" x2="360" y2="-688" stroke-width="10" stroke="black"/>
<line x1="360" y1="-720" x2="280" y2="-720" stroke-width="10" stroke="black"/>
<line x1="376" y1="-720" x2="360" y2="-720" stroke-width="10" stroke="black"/>
<line x1="360" y1="-688" x2="376" y2="-688" stroke-width="10" stroke="black"/>
<line x1="360" y1="-720" x2="360" y2="-688" stroke-width="10" stroke="black"/>
<line x1="-312" y1="-912" x2="-248" y2="-912" stroke-width="10" stroke="black"/>
<line x1="-312" y1="-920" x2="-312" y2="-912" stroke-width="10" stroke="black"/>
<line x1="-248" y1="-920" x2="-312" y2="-920" stroke-width="10" stroke="black"/>
<line x1="-248" y1="-912" x2="-248" y2="-920" stroke-width="10" stroke="black"/>
<line x1="280" y1="-720" x2="264" y2="-720" stroke-width="10" stroke="black"/>
<line x1="264" y1="-688" x2="280" y2="-688" stroke-width="10" stroke="black"/>
<line x1="264" y1="-720" x2="264" y2="-688" stroke-width="10" stroke="black"/>
<line x1="256" y1="-928" x2="256" y2="-480" stroke-width="10" stroke="black"/>
<line x1="280" y1="-688" x2="280" y2="-720" stroke-width="10" stroke="black"/>
<line x1="264" y1="-448" x2="264" y2="-480" stroke-width="10" stroke="black"/>
<line x1="288" y1="-384" x2="288" y2="-320" stroke-width="10" stroke="black"/>
<line x1="288" y1="-320" x2="352" y2="-320" stroke-width="10" stroke="black"/>
<line x1="352" y1="-320" x2="352" y2="-384" stroke-width="10" stroke="black"/>
<line x1="352" y1="-384" x2="288" y2="-384" stroke-width="10" stroke="black"/>
<line x1="-64" y1="-448" x2="-64" y2="-256" stroke-width="10" stroke="black"/>
<line x1="248" y1="-448" x2="-64" y2="-448" stroke-width="10" stroke="black"/>
<line x1="248" y1="-480" x2="-320" y2="-480" stroke-width="10" stroke="black"/>
<line x1="-320" y1="-928" x2="-320" y2="-864" stroke-width="10" stroke="black"/>
<line x1="248" y1="-928" x2="-320" y2="-928" stroke-width="10" stroke="black"/>
<line x1="376" y1="-688" x2="376" y2="-720" stroke-width="10" stroke="black"/>
<line x1="-832" y1="-64" x2="-832" y2="-256" stroke-width="10" stroke="black"/>
<line x1="-800" y1="-256" x2="-800" y2="-64" stroke-width="10" stroke="black"/>
<line x1="-736" y1="-256" x2="-736" y2="-64" stroke-width="10" stroke="black"/>
<line x1="-768" y1="-256" x2="-768" y2="-64" stroke-width="10" stroke="black"/>
<line x1="-672" y1="-256" x2="-672" y2="-64" stroke-width="10" stroke="black"/>
<line x1="-576" y1="-256" x2="-576" y2="-64" stroke-width="10" stroke="black"/>
<line x1="-608" y1="-256" x2="-608" y2="-64" stroke-width="10" stroke="black"/>
<line x1="-640" y1="-256" x2="-640" y2="-64" stroke-width="10" stroke="black"/>
<line x1="-704" y1="-256" x2="-704" y2="-64" stroke-width="10" stroke="black"/>
<line x1="-1024" y1="320" x2="-1024" y2="128" stroke-width="10" stroke="black"/>
<line x1="-832" y1="0" x2="-832" y2="-64" stroke-width="10" stroke="black"/>
<line x1="-1024" y1="128" x2="-832" y2="0" stroke-width="10" stroke="black"/>
<line x1="-576" y1="-64" x2="-608" y2="-64" stroke-width="10" stroke="black"/>
<line x1="-640" y1="560" x2="-768" y2="560" stroke-width="10" stroke="black"/>
<line x1="-768" y1="576" x2="-640" y2="576" stroke-width="10" stroke="black"/>
<line x1="-624" y1="704" x2="-624" y2="560" stroke-width="10" stroke="black"/>
<line x1="-640" y1="560" x2="-640" y2="576" stroke-width="10" stroke="black"/>
<line x1="-1208" y1="592" x2="-1192" y2="592" stroke-width="10" stroke="black"/>
<line x1="-1216" y1="544" x2="-1024" y2="544" stroke-width="10" stroke="black"/>
<line x1="-1192" y1="576" x2="-1024" y2="576" stroke-width="10" stroke="black"/>
<line x1="-768" y1="560" x2="-768" y2="512" stroke-width="10" stroke="black"/>
<line x1="-1216" y1="480" x2="-1024" y2="480" stroke-width="10" stroke="black"/>
<line x1="-1216" y1="416" x2="-1024" y2="416" stroke-width="10" stroke="black"/>
<line x1="-1216" y1="448" x2="-1024" y2="448" stroke-width="10" stroke="black"/>
<line x1="-1024" y1="384" x2="-1024" y2="416" stroke-width="10" stroke="black"/>
<line x1="-1216" y1="352" x2="-1024" y2="352" stroke-width="10" stroke="black"/>
<line x1="-1216" y1="384" x2="-1024" y2="384" stroke-width="10" stroke="black"/>
<line x1="-1216" y1="512" x2="-1024" y2="512" stroke-width="10" stroke="black"/>
<line x1="-1024" y1="320" x2="-1216" y2="320" stroke-width="10" stroke="black"/>
<line x1="-2040" y1="120" x2="-2136" y2="8" stroke-width="10" stroke="black"/>
<line x1="-2032" y1="168" x2="-1920" y2="0" stroke-width="10" stroke="black"/>
<line x1="-2032" y1="-112" x2="-2176" y2="0" stroke-width="10" stroke="black"/>
<line x1="-1888" y1="-256" x2="-2032" y2="-112" stroke-width="10" stroke="black"/>
<line x1="-1616" y1="-112" x2="-1760" y2="-256" stroke-width="10" stroke="black"/>
<line x1="-1920" y1="0" x2="-1728" y2="0" stroke-width="10" stroke="black"/>
<line x1="-2008" y1="-88" x2="-1944" y2="-24" stroke-width="10" stroke="black"/>
<line x1="-1512" y1="8" x2="-1608" y2="120" stroke-width="10" stroke="black"/>
<line x1="-1728" y1="0" x2="-1616" y2="168" stroke-width="10" stroke="black"/>
<line x1="-1472" y1="0" x2="-1616" y2="-112" stroke-width="10" stroke="black"/>
<line x1="-1856" y1="736" x2="-1816" y2="736" stroke-width="10" stroke="black"/>
<line x1="-1816" y1="736" x2="-1816" y2="576" stroke-width="10" stroke="black"/>
<line x1="-1904" y1="712" x2="-1856" y2="736" stroke-width="10" stroke="black"/>
<line x1="-1920" y1="640" x2="-1904" y2="712" stroke-width="10" stroke="black"/>
<line x1="-1994" y1="768" x2="-2008" y2="712" stroke-width="10" stroke="black"/>
<line x1="-2040" y1="712" x2="-2057" y2="768" stroke-width="10" stroke="black"/>
<line x1="-1920" y1="448" x2="-1920" y2="192" stroke-width="10" stroke="black"/>
<line x1="-1728" y1="192" x2="-1920" y2="192" stroke-width="10" stroke="black"/>
<line x1="-1640" y1="-88" x2="-1704" y2="-24" stroke-width="10" stroke="black"/>
<line x1="-1408" y1="592" x2="-1392" y2="592" stroke-width="10" stroke="black"/>
<line x1="-1392" y1="576" x2="-1240" y2="576" stroke-width="10" stroke="black"/>
<line x1="-1408" y1="512" x2="-1216" y2="512" stroke-width="10" stroke="black"/>
<line x1="-1408" y1="480" x2="-1216" y2="480" stroke-width="10" stroke="black"/>
<line x1="-1408" y1="544" x2="-1216" y2="544" stroke-width="10" stroke="black"/>
<line x1="-1408" y1="416" x2="-1216" y2="416" stroke-width="10" stroke="black"/>
<line x1="-1408" y1="384" x2="-1216" y2="384" stroke-width="10" stroke="black"/>
<line x1="-1408" y1="0" x2="-1408" y2="-256" stroke-width="10" stroke="black"/>
<line x1="-1408" y1="320" x2="-1216" y2="320" stroke-width="10" stroke="black"/>
<line x1="-1408" y1="0" x2="-1424" y2="0" stroke-width="10" stroke="black"/>
<line x1="-1408" y1="352" x2="-1216" y2="352" stroke-width="10" stroke="black"/>
<line x1="-1408" y1="448" x2="-1216" y2="448" stroke-width="10" stroke="black"/>
<line x1="-1424" y1="-256" x2="-1424" y2="0" stroke-width="10" stroke="black"/>
<line x1="-1216" y1="384" x2="-1216" y2="352" stroke-width="10" stroke="black"/>
<line x1="1536" y1="-192" x2="1600" y2="-192" stroke-width="10" stroke="black"/>
<line x1="1536" y1="-256" x2="1536" y2="-192" stroke-width="10" stroke="black"/>
<line x1="1152" y1="-256" x2="1152" y2="-64" stroke-width="10" stroke="black"/>
<line x1="576" y1="-64" x2="320" y2="-256" stroke-width="10" stroke="black"/>
<line x1="-32" y1="-232" x2="32" y2="-232" stroke-width="10" stroke="black"/>
<line x1="-32" y1="-256" x2="-32" y2="-232" stroke-width="10" stroke="black"/>
<line x1="-64" y1="-192" x2="64" y2="-192" stroke-width="10" stroke="black"/>
<line x1="-64" y1="-256" x2="-64" y2="-192" stroke-width="10" stroke="black"/>
<line x1="64" y1="-192" x2="64" y2="-256" stroke-width="10" stroke="black"/>
<line x1="832" y1="-64" x2="832" y2="-256" stroke-width="10" stroke="black"/>
<line x1="2376" y1="-64" x2="2376" y2="-256" stroke-width="10" stroke="black"/>
<line x1="2248" y1="-64" x2="2248" y2="-256" stroke-width="10" stroke="black"/>
<line x1="2312" y1="-64" x2="2312" y2="-256" stroke-width="10" stroke="black"/>
<line x1="1792" y1="-256" x2="1792" y2="-64" stroke-width="10" stroke="black"/>
<line x1="1808" y1="-64" x2="1808" y2="-256" stroke-width="10" stroke="black"/>
<line x1="2000" y1="-80" x2="2000" y2="-240" stroke-width="10" stroke="black"/>
<line x1="1984" y1="-240" x2="1984" y2="-80" stroke-width="10" stroke="black"/>
<line x1="2184" y1="-64" x2="2184" y2="-256" stroke-width="10" stroke="black"/>
<line x1="1600" y1="-192" x2="1600" y2="-64" stroke-width="10" stroke="black"/>
<line x1="1328" y1="600" x2="1296" y2="600" stroke-width="10" stroke="black"/>
<line x1="1328" y1="608" x2="1328" y2="600" stroke-width="10" stroke="black"/>
<line x1="1296" y1="600" x2="1296" y2="608" stroke-width="10" stroke="black"/>
<line x1="1296" y1="608" x2="1328" y2="608" stroke-width="10" stroke="black"/>
<line x1="1368" y1="560" x2="1376" y2="560" stroke-width="10" stroke="black"/>
<line x1="1368" y1="528" x2="1368" y2="560" stroke-width="10" stroke="black"/>
<line x1="1376" y1="528" x2="1368" y2="528" stroke-width="10" stroke="black"/>
<line x1="1376" y1="560" x2="1376" y2="528" stroke-width="10" stroke="black"/>
<line x1="1344" y1="512" x2="1280" y2="512" stroke-width="10" stroke="black"/>
<line x1="1280" y1="512" x2="1280" y2="576" stroke-width="10" stroke="black"/>
<line x1="1328" y1="488" x2="1328" y2="480" stroke-width="10" stroke="black"/>
<line x1="1296" y1="480" x2="1296" y2="488" stroke-width="10" stroke="black"/>
<line x1="1328" y1="480" x2="1296" y2="480" stroke-width="10" stroke="black"/>
<line x1="1296" y1="488" x2="1328" y2="488" stroke-width="10" stroke="black"/>
<line x1="1344" y1="576" x2="1344" y2="512" stroke-width="10" stroke="black"/>
<line x1="1280" y1="576" x2="1344" y2="576" stroke-width="10" stroke="black"/>
<line x1="1600" y1="192" x2="1600" y2="-64" stroke-width="10" stroke="black"/>
<line x1="1408" y1="-64" x2="1408" y2="192" stroke-width="10" stroke="black"/>
<line x1="1408" y1="192" x2="1600" y2="192" stroke-width="10" stroke="black"/>
<line x1="1776" y1="320" x2="1232" y2="320" stroke-width="10" stroke="black"/>
<line x1="1792" y1="336" x2="1808" y2="320" stroke-width="10" stroke="black"/>
<line x1="1808" y1="320" x2="1808" y2="-64" stroke-width="10" stroke="black"/>
<line x1="1792" y1="-64" x2="1792" y2="304" stroke-width="10" stroke="black"/>
<line x1="1232" y1="336" x2="1792" y2="336" stroke-width="10" stroke="black"/>
<line x1="576" y1="-64" x2="576" y2="0" stroke-width="10" stroke="black"/>
<line x1="576" y1="0" x2="768" y2="0" stroke-width="10" stroke="black"/>
<line x1="768" y1="0" x2="768" y2="-64" stroke-width="10" stroke="black"/>
<line x1="1232" y1="320" x2="1216" y2="320" stroke-width="10" stroke="black"/>
<line x1="1216" y1="336" x2="1216" y2="768" stroke-width="10" stroke="black"/>
<line x1="-384" y1="128" x2="-384" y2="320" stroke-width="10" stroke="black"/>
<line x1="576" y1="704" x2="576" y2="128" stroke-width="10" stroke="black"/>
<line x1="896" y1="768" x2="896" y2="128" stroke-width="10" stroke="black"/>
<line x1="768" y1="128" x2="576" y2="128" stroke-width="10" stroke="black"/>
<line x1="1232" y1="336" x2="1232" y2="320" stroke-width="10" stroke="black"/>
<line x1="832" y1="-64" x2="768" y2="-64" stroke-width="10" stroke="black"/>
<line x1="-448" y1="384" x2="-448" y2="704" stroke-width="10" stroke="black"/>
<line x1="-384" y1="2240" x2="-384" y2="2496" stroke-width="10" stroke="black"/>
<line x1="-640" y1="2176" x2="-576" y2="2304" stroke-width="10" stroke="black"/>
<line x1="-512" y1="2304" x2="-512" y2="2112" stroke-width="10" stroke="black"/>
<line x1="-640" y1="2112" x2="-640" y2="2176" stroke-width="10" stroke="black"/>
<line x1="-1216" y1="2496" x2="-1216" y2="2240" stroke-width="10" stroke="black"/>
<line x1="-1088" y1="2304" x2="-1024" y2="2304" stroke-width="10" stroke="black"/>
<line x1="-1088" y1="2112" x2="-1088" y2="2304" stroke-width="10" stroke="black"/>
<line x1="-960" y1="2176" x2="-960" y2="2112" stroke-width="10" stroke="black"/>
<line x1="-768" y1="2560" x2="-768" y2="2496" stroke-width="10" stroke="black"/>
<line x1="-832" y1="2496" x2="-832" y2="2560" stroke-width="10" stroke="black"/>
<line x1="-832" y1="2560" x2="-768" y2="2560" stroke-width="10" stroke="black"/>
<line x1="-768" y1="2496" x2="-832" y2="2496" stroke-width="10" stroke="black"/>
<line x1="-832" y1="1824" x2="-832" y2="1832" stroke-width="10" stroke="black"/>
<line x1="-768" y1="1824" x2="-832" y2="1824" stroke-width="10" stroke="black"/>
<line x1="-768" y1="1832" x2="-768" y2="1824" stroke-width="10" stroke="black"/>
<line x1="-832" y1="1832" x2="-768" y2="1832" stroke-width="10" stroke="black"/>
<line x1="-960" y1="1984" x2="-1088" y2="2112" stroke-width="10" stroke="black"/>
<line x1="-512" y1="2112" x2="-640" y2="1984" stroke-width="10" stroke="black"/>
<line x1="-808" y1="1984" x2="-832" y2="2112" stroke-width="10" stroke="black"/>
<line x1="-640" y1="1984" x2="-664" y2="1984" stroke-width="10" stroke="black"/>
<line x1="-664" y1="2112" x2="-640" y2="2112" stroke-width="10" stroke="black"/>
<line x1="-256" y1="1536" x2="-320" y2="1664" stroke-width="10" stroke="black"/>
<line x1="-704" y1="1632" x2="-704" y2="1440" stroke-width="10" stroke="black"/>
<line x1="-704" y1="1440" x2="-896" y2="1440" stroke-width="10" stroke="black"/>
<line x1="-896" y1="1440" x2="-896" y2="1632" stroke-width="10" stroke="black"/>
<line x1="-896" y1="1632" x2="-704" y2="1632" stroke-width="10" stroke="black"/>
<line x1="-1056" y1="1312" x2="-544" y2="1312" stroke-width="10" stroke="black"/>
<line x1="-984" y1="1792" x2="-1056" y2="1312" stroke-width="10" stroke="black"/>
<line x1="-544" y1="1312" x2="-616" y2="1792" stroke-width="10" stroke="black"/>
<line x1="-640" y1="1792" x2="-960" y2="1792" stroke-width="10" stroke="black"/>
<line x1="-1088" y1="1280" x2="-1016" y2="1792" stroke-width="10" stroke="black"/>
<line x1="-584" y1="1792" x2="-512" y2="1280" stroke-width="10" stroke="black"/>
<line x1="-960" y1="1808" x2="-640" y2="1808" stroke-width="10" stroke="black"/>
<line x1="-1552" y1="1984" x2="-1552" y2="2112" stroke-width="10" stroke="black"/>
<line x1="-1792" y1="2112" x2="-1792" y2="2304" stroke-width="10" stroke="black"/>
<line x1="-1600" y1="2304" x2="-1600" y2="2432" stroke-width="10" stroke="black"/>
<line x1="-1536" y1="2112" x2="-1552" y2="2112" stroke-width="10" stroke="black"/>
<line x1="-1536" y1="2432" x2="-1600" y2="2432" stroke-width="10" stroke="black"/>
<line x1="-1280" y1="2112" x2="-1344" y2="2112" stroke-width="10" stroke="black"/>
<line x1="-1344" y1="1984" x2="-1280" y2="1984" stroke-width="10" stroke="black"/>
<line x1="-1344" y1="1984" x2="-1344" y2="1920" stroke-width="10" stroke="black"/>
<line x1="-1536" y1="1984" x2="-1536" y2="2112" stroke-width="10" stroke="black"/>
<line x1="-1472" y1="1400" x2="-1344" y2="1400" stroke-width="10" stroke="black"/>
<line x1="-1472" y1="1432" x2="-1344" y2="1432" stroke-width="10" stroke="black"/>
<line x1="-1472" y1="1304" x2="-1344" y2="1304" stroke-width="10" stroke="black"/>
<line x1="-1472" y1="1336" x2="-1344" y2="1336" stroke-width="10" stroke="black"/>
<line x1="-1472" y1="1368" x2="-1344" y2="1368" stroke-width="10" stroke="black"/>
<line x1="-1472" y1="1592" x2="-1344" y2="1592" stroke-width="10" stroke="black"/>
<line x1="-1344" y1="1904" x2="-1472" y2="1904" stroke-width="10" stroke="black"/>
<line x1="-1472" y1="1496" x2="-1344" y2="1496" stroke-width="10" stroke="black"/>
<line x1="-1472" y1="1528" x2="-1344" y2="1528" stroke-width="10" stroke="black"/>
<line x1="-1472" y1="1560" x2="-1344" y2="1560" stroke-width="10" stroke="black"/>
<line x1="-1344" y1="1464" x2="-1472" y2="1464" stroke-width="10" stroke="black"/>
<line x1="-1472" y1="1920" x2="-1344" y2="1920" stroke-width="10" stroke="black"/>
<line x1="-1280" y1="1664" x2="-1280" y2="1280" stroke-width="10" stroke="black"/>
<line x1="-256" y1="1088" x2="-256" y2="1280" stroke-width="10" stroke="black"/>
<line x1="-288" y1="1088" x2="-288" y2="1280" stroke-width="10" stroke="black"/>
<line x1="-160" y1="1088" x2="-160" y2="1280" stroke-width="10" stroke="black"/>
<line x1="-192" y1="1088" x2="-192" y2="1280" stroke-width="10" stroke="black"/>
<line x1="-224" y1="1088" x2="-224" y2="1280" stroke-width="10" stroke="black"/>
<line x1="-96" y1="1088" x2="-96" y2="1280" stroke-width="10" stroke="black"/>
<line x1="-64" y1="1088" x2="-64" y2="896" stroke-width="10" stroke="black"/>
<line x1="1216" y1="768" x2="1216" y2="784" stroke-width="10" stroke="black"/>
<line x1="1232" y1="784" x2="1968" y2="784" stroke-width="10" stroke="black"/>
<line x1="224" y1="896" x2="128" y2="1024" stroke-width="10" stroke="black"/>
<line x1="896" y1="1024" x2="896" y2="768" stroke-width="10" stroke="black"/>
<line x1="128" y1="1024" x2="128" y2="1280" stroke-width="10" stroke="black"/>
<line x1="-128" y1="1088" x2="-128" y2="1280" stroke-width="10" stroke="black"/>
<line x1="-336" y1="1088" x2="-336" y2="1104" stroke-width="10" stroke="black"/>
<line x1="-1472" y1="1272" x2="-1344" y2="1272" stroke-width="10" stroke="black"/>
<line x1="-1472" y1="1240" x2="-1344" y2="1240" stroke-width="10" stroke="black"/>
<line x1="-1472" y1="1176" x2="-1344" y2="1176" stroke-width="10" stroke="black"/>
<line x1="-1472" y1="1112" x2="-1344" y2="1112" stroke-width="10" stroke="black"/>
<line x1="-1472" y1="1144" x2="-1344" y2="1144" stroke-width="10" stroke="black"/>
<line x1="-1472" y1="1208" x2="-1344" y2="1208" stroke-width="10" stroke="black"/>
<line x1="-1280" y1="1280" x2="-1280" y2="1216" stroke-width="10" stroke="black"/>
<line x1="-640" y1="1048" x2="-832" y2="1048" stroke-width="10" stroke="black"/>
<line x1="-672" y1="1072" x2="-800" y2="1072" stroke-width="10" stroke="black"/>
<line x1="-832" y1="1072" x2="-832" y2="1048" stroke-width="10" stroke="black"/>
<line x1="-2072" y1="816" x2="-2072" y2="880" stroke-width="10" stroke="black"/>
<line x1="-2072" y1="912" x2="-1976" y2="976" stroke-width="10" stroke="black"/>
<line x1="-2072" y1="880" x2="-2072" y2="912" stroke-width="10" stroke="black"/>
<line x1="-1816" y1="976" x2="-1720" y2="912" stroke-width="10" stroke="black"/>
<line x1="-1976" y1="976" x2="-1816" y2="976" stroke-width="10" stroke="black"/>
<line x1="-1720" y1="880" x2="-1880" y2="880" stroke-width="10" stroke="black"/>
<line x1="-2057" y1="768" x2="-2071" y2="816" stroke-width="10" stroke="black"/>
<line x1="-1232" y1="960" x2="-1536" y2="960" stroke-width="10" stroke="black"/>
<line x1="-1472" y1="1072" x2="-1344" y2="1072" stroke-width="10" stroke="black"/>
<line x1="-1536" y1="960" x2="-1728" y2="1088" stroke-width="10" stroke="black"/>
<line x1="-1216" y1="992" x2="-1216" y2="784" stroke-width="10" stroke="black"/>
<line x1="-640" y1="1088" x2="-336" y2="1088" stroke-width="10" stroke="black"/>
<line x1="-320" y1="1104" x2="-320" y2="1088" stroke-width="10" stroke="black"/>
<line x1="-224" y1="1280" x2="-192" y2="1280" stroke-width="10" stroke="black"/>
<line x1="1984" y1="768" x2="1968" y2="768" stroke-width="10" stroke="black"/>
<line x1="2184" y1="-256" x2="2000" y2="-256" stroke-width="10" stroke="black"/>

</svg>

