<svg width="900" height="793" preserveAspectRatio="none" viewBox="-1426 -322 3092 2756"
 xmlns="http://www.w3.org/2000/svg" xmlns:xlink="http://www.w3.org/1999/xlink">
   <defs>
    <marker id="arrow" markerWidth="10" markerHeight="10" refX="0" refY="2" orient="auto" markerUnits="strokeWidth">
      <path d="M0,0 L0,4 L5,3 z" fill="#f00" />
    </marker>
  </defs>

<line x1="128" y1="1376" x2="192" y2="1408" stroke-width="10" stroke="black"/>
<line x1="-64" y1="1376" x2="128" y2="1376" stroke-width="10" stroke="black"/>
<line x1="0" y1="1472" x2="64" y2="1472" stroke-width="10" stroke="black"/>
<line x1="-128" y1="1408" x2="0" y2="1472" stroke-width="10" stroke="black"/>
<line x1="64" y1="1472" x2="192" y2="1408" stroke-width="10" stroke="black"/>
<line x1="-128" y1="1408" x2="-64" y2="1376" stroke-width="10" stroke="black"/>
<line x1="-256" y1="1344" x2="-320" y2="1344" stroke-width="10" stroke="black"/>
<line x1="-192" y1="1360" x2="-256" y2="1344" stroke-width="10" stroke="black"/>
<line x1="-320" y1="1344" x2="-384" y2="1360" stroke-width="10" stroke="black"/>
<line x1="-192" y1="1408" x2="-128" y2="1408" stroke-width="10" stroke="black"/>
<line x1="-128" y1="1408" x2="-128" y2="1280" stroke-width="10" stroke="black"/>
<line x1="256" y1="1472" x2="256" y2="1408" stroke-width="10" stroke="black"/>
<line x1="192" y1="1280" x2="192" y2="1408" stroke-width="10" stroke="black"/>
<line x1="192" y1="1408" x2="256" y2="1408" stroke-width="10" stroke="black"/>
<line x1="512" y1="1280" x2="512" y2="1344" stroke-width="10" stroke="black"/>
<line x1="384" y1="1408" x2="384" y2="1512" stroke-width="10" stroke="black"/>
<line x1="256" y1="1472" x2="296" y2="1512" stroke-width="10" stroke="black"/>
<line x1="256" y1="1152" x2="320" y2="1088" stroke-width="10" stroke="black"/>
<line x1="256" y1="1232" x2="256" y2="1152" stroke-width="10" stroke="black"/>
<line x1="384" y1="1232" x2="256" y2="1232" stroke-width="10" stroke="black"/>
<line x1="384" y1="1024" x2="384" y2="1088" stroke-width="10" stroke="black"/>
<line x1="320" y1="1088" x2="384" y2="1088" stroke-width="10" stroke="black"/>
<line x1="64" y1="1152" x2="0" y2="1152" stroke-width="10" stroke="black"/>
<line x1="64" y1="1232" x2="0" y2="1232" stroke-width="10" stroke="black"/>
<line x1="128" y1="1176" x2="64" y2="1152" stroke-width="10" stroke="black"/>
<line x1="64" y1="1232" x2="64" y2="1248" stroke-width="10" stroke="black"/>
<line x1="0" y1="1264" x2="64" y2="1264" stroke-width="10" stroke="black"/>
<line x1="64" y1="1248" x2="0" y2="1248" stroke-width="10" stroke="black"/>
<line x1="128" y1="1232" x2="128" y2="1176" stroke-width="10" stroke="black"/>
<line x1="-192" y1="1216" x2="-384" y2="1216" stroke-width="10" stroke="black"/>
<line x1="-384" y1="1264" x2="-192" y2="1264" stroke-width="10" stroke="black"/>
<line x1="-256" y1="1088" x2="-256" y2="1024" stroke-width="10" stroke="black"/>
<line x1="-320" y1="1024" x2="-320" y2="1088" stroke-width="10" stroke="black"/>
<line x1="-256" y1="1024" x2="-320" y2="1024" stroke-width="10" stroke="black"/>
<line x1="-320" y1="1088" x2="-256" y2="1088" stroke-width="10" stroke="black"/>
<line x1="-160" y1="1216" x2="-192" y2="1216" stroke-width="10" stroke="black"/>
<line x1="0" y1="1152" x2="-64" y2="1176" stroke-width="10" stroke="black"/>
<line x1="-128" y1="960" x2="-128" y2="1216" stroke-width="10" stroke="black"/>
<line x1="-192" y1="1216" x2="-192" y2="1264" stroke-width="10" stroke="black"/>
<line x1="0" y1="1280" x2="0" y2="1264" stroke-width="10" stroke="black"/>
<line x1="64" y1="1280" x2="192" y2="1280" stroke-width="10" stroke="black"/>
<line x1="-960" y1="1024" x2="-896" y2="1024" stroke-width="10" stroke="black"/>
<line x1="-1008" y1="1200" x2="-1024" y2="1200" stroke-width="10" stroke="black"/>
<line x1="-896" y1="1472" x2="-896" y2="1344" stroke-width="10" stroke="black"/>
<line x1="-960" y1="1472" x2="-1024" y2="1472" stroke-width="10" stroke="black"/>
<line x1="-912" y1="1328" x2="-1008" y2="1328" stroke-width="10" stroke="black"/>
<line x1="-1008" y1="1344" x2="-1008" y2="1328" stroke-width="10" stroke="black"/>
<line x1="-864" y1="1344" x2="-864" y2="1312" stroke-width="10" stroke="black"/>
<line x1="-912" y1="1328" x2="-912" y2="1344" stroke-width="10" stroke="black"/>
<line x1="-864" y1="1344" x2="-832" y2="1344" stroke-width="10" stroke="black"/>
<line x1="-912" y1="1216" x2="-1008" y2="1216" stroke-width="10" stroke="black"/>
<line x1="-1184" y1="1152" x2="-1152" y2="1152" stroke-width="10" stroke="black"/>
<line x1="-1040" y1="1312" x2="-1040" y2="1344" stroke-width="10" stroke="black"/>
<line x1="-1056" y1="1376" x2="-1024" y2="1376" stroke-width="10" stroke="black"/>
<line x1="-1024" y1="1472" x2="-1024" y2="1408" stroke-width="10" stroke="black"/>
<line x1="-728" y1="1512" x2="-728" y2="1472" stroke-width="10" stroke="black"/>
<line x1="-768" y1="1472" x2="-768" y2="1512" stroke-width="10" stroke="black"/>
<line x1="-832" y1="1344" x2="-768" y2="1344" stroke-width="10" stroke="black"/>
<line x1="-536" y1="1504" x2="-536" y2="1408" stroke-width="10" stroke="black"/>
<line x1="-396" y1="1512" x2="-448" y2="1408" stroke-width="10" stroke="black"/>
<line x1="-536" y1="1408" x2="-448" y2="1408" stroke-width="10" stroke="black"/>
<line x1="-584" y1="1344" x2="-584" y2="1504" stroke-width="10" stroke="black"/>
<line x1="-384" y1="1216" x2="-416" y2="1216" stroke-width="10" stroke="black"/>
<line x1="-480" y1="1184" x2="-480" y2="1232" stroke-width="10" stroke="black"/>
<line x1="-448" y1="1216" x2="-448" y2="1184" stroke-width="10" stroke="black"/>
<line x1="-512" y1="1280" x2="-384" y2="1280" stroke-width="10" stroke="black"/>
<line x1="-832" y1="1312" x2="-832" y2="1344" stroke-width="10" stroke="black"/>
<line x1="-384" y1="1280" x2="-384" y2="1264" stroke-width="10" stroke="black"/>
<line x1="88" y1="448" x2="232" y2="448" stroke-width="10" stroke="black"/>
<line x1="88" y1="352" x2="232" y2="352" stroke-width="10" stroke="black"/>
<line x1="232" y1="448" x2="256" y2="448" stroke-width="10" stroke="black"/>
<line x1="256" y1="448" x2="384" y2="384" stroke-width="10" stroke="black"/>
<line x1="232" y1="352" x2="232" y2="448" stroke-width="10" stroke="black"/>
<line x1="408" y1="552" x2="408" y2="424" stroke-width="10" stroke="black"/>
<line x1="448" y1="320" x2="384" y2="320" stroke-width="10" stroke="black"/>
<line x1="384" y1="192" x2="384" y2="256" stroke-width="10" stroke="black"/>
<line x1="-88" y1="416" x2="-88" y2="544" stroke-width="10" stroke="black"/>
<line x1="-64" y1="552" x2="-64" y2="544" stroke-width="10" stroke="black"/>
<line x1="-64" y1="256" x2="-64" y2="192" stroke-width="10" stroke="black"/>
<line x1="64" y1="448" x2="88" y2="448" stroke-width="10" stroke="black"/>
<line x1="-64" y1="320" x2="-128" y2="320" stroke-width="10" stroke="black"/>
<line x1="-64" y1="384" x2="64" y2="448" stroke-width="10" stroke="black"/>
<line x1="88" y1="448" x2="88" y2="352" stroke-width="10" stroke="black"/>
<line x1="-64" y1="896" x2="-40" y2="880" stroke-width="10" stroke="black"/>
<line x1="-40" y1="848" x2="-64" y2="832" stroke-width="10" stroke="black"/>
<line x1="-40" y1="720" x2="-64" y2="704" stroke-width="10" stroke="black"/>
<line x1="-40" y1="592" x2="-64" y2="576" stroke-width="10" stroke="black"/>
<line x1="-64" y1="640" x2="-40" y2="624" stroke-width="10" stroke="black"/>
<line x1="-64" y1="768" x2="-40" y2="752" stroke-width="10" stroke="black"/>
<line x1="-96" y1="768" x2="-96" y2="832" stroke-width="10" stroke="black"/>
<line x1="-64" y1="768" x2="-96" y2="768" stroke-width="10" stroke="black"/>
<line x1="-64" y1="640" x2="-96" y2="640" stroke-width="10" stroke="black"/>
<line x1="-96" y1="704" x2="-64" y2="704" stroke-width="10" stroke="black"/>
<line x1="-256" y1="576" x2="-192" y2="576" stroke-width="10" stroke="black"/>
<line x1="-224" y1="936" x2="-224" y2="960" stroke-width="10" stroke="black"/>
<line x1="-352" y1="960" x2="-352" y2="936" stroke-width="10" stroke="black"/>
<line x1="-64" y1="896" x2="-256" y2="896" stroke-width="10" stroke="black"/>
<line x1="-64" y1="576" x2="-64" y2="552" stroke-width="10" stroke="black"/>
<line x1="360" y1="592" x2="360" y2="624" stroke-width="10" stroke="black"/>
<line x1="384" y1="576" x2="360" y2="592" stroke-width="10" stroke="black"/>
<line x1="360" y1="624" x2="384" y2="640" stroke-width="10" stroke="black"/>
<line x1="360" y1="720" x2="360" y2="752" stroke-width="10" stroke="black"/>
<line x1="360" y1="752" x2="384" y2="768" stroke-width="10" stroke="black"/>
<line x1="360" y1="848" x2="360" y2="880" stroke-width="10" stroke="black"/>
<line x1="360" y1="880" x2="384" y2="896" stroke-width="10" stroke="black"/>
<line x1="384" y1="832" x2="360" y2="848" stroke-width="10" stroke="black"/>
<line x1="384" y1="704" x2="360" y2="720" stroke-width="10" stroke="black"/>
<line x1="416" y1="832" x2="416" y2="768" stroke-width="10" stroke="black"/>
<line x1="384" y1="832" x2="416" y2="832" stroke-width="10" stroke="black"/>
<line x1="416" y1="704" x2="416" y2="640" stroke-width="10" stroke="black"/>
<line x1="384" y1="704" x2="416" y2="704" stroke-width="10" stroke="black"/>
<line x1="384" y1="576" x2="448" y2="576" stroke-width="10" stroke="black"/>
<line x1="384" y1="896" x2="384" y2="960" stroke-width="10" stroke="black"/>
<line x1="-40" y1="592" x2="-40" y2="624" stroke-width="10" stroke="black"/>
<line x1="408" y1="552" x2="384" y2="552" stroke-width="10" stroke="black"/>
<line x1="32" y1="-88" x2="48" y2="-88" stroke-width="10" stroke="black"/>
<line x1="32" y1="-104" x2="32" y2="-88" stroke-width="10" stroke="black"/>
<line x1="48" y1="-104" x2="32" y2="-104" stroke-width="10" stroke="black"/>
<line x1="48" y1="-88" x2="48" y2="-104" stroke-width="10" stroke="black"/>
<line x1="88" y1="-32" x2="88" y2="-16" stroke-width="10" stroke="black"/>
<line x1="104" y1="-16" x2="104" y2="-32" stroke-width="10" stroke="black"/>
<line x1="88" y1="-16" x2="104" y2="-16" stroke-width="10" stroke="black"/>
<line x1="104" y1="-32" x2="88" y2="-32" stroke-width="10" stroke="black"/>
<line x1="56" y1="-48" x2="72" y2="-48" stroke-width="10" stroke="black"/>
<line x1="56" y1="-64" x2="56" y2="-48" stroke-width="10" stroke="black"/>
<line x1="72" y1="-48" x2="72" y2="-64" stroke-width="10" stroke="black"/>
<line x1="72" y1="-64" x2="56" y2="-64" stroke-width="10" stroke="black"/>
<line x1="224" y1="-64" x2="96" y2="-64" stroke-width="10" stroke="black"/>
<line x1="128" y1="-16" x2="128" y2="0" stroke-width="10" stroke="black"/>
<line x1="144" y1="0" x2="144" y2="-16" stroke-width="10" stroke="black"/>
<line x1="192" y1="0" x2="192" y2="-16" stroke-width="10" stroke="black"/>
<line x1="176" y1="-16" x2="176" y2="0" stroke-width="10" stroke="black"/>
<line x1="192" y1="-16" x2="176" y2="-16" stroke-width="10" stroke="black"/>
<line x1="272" y1="-88" x2="288" y2="-88" stroke-width="10" stroke="black"/>
<line x1="288" y1="-104" x2="272" y2="-104" stroke-width="10" stroke="black"/>
<line x1="288" y1="-88" x2="288" y2="-104" stroke-width="10" stroke="black"/>
<line x1="272" y1="-104" x2="272" y2="-88" stroke-width="10" stroke="black"/>
<line x1="248" y1="-64" x2="248" y2="-48" stroke-width="10" stroke="black"/>
<line x1="248" y1="-48" x2="264" y2="-48" stroke-width="10" stroke="black"/>
<line x1="264" y1="-48" x2="264" y2="-64" stroke-width="10" stroke="black"/>
<line x1="216" y1="-32" x2="216" y2="-16" stroke-width="10" stroke="black"/>
<line x1="232" y1="-32" x2="216" y2="-32" stroke-width="10" stroke="black"/>
<line x1="216" y1="-16" x2="232" y2="-16" stroke-width="10" stroke="black"/>
<line x1="232" y1="-16" x2="232" y2="-32" stroke-width="10" stroke="black"/>
<line x1="264" y1="-64" x2="248" y2="-64" stroke-width="10" stroke="black"/>
<line x1="256" y1="-128" x2="224" y2="-64" stroke-width="10" stroke="black"/>
<line x1="64" y1="-128" x2="96" y2="-64" stroke-width="10" stroke="black"/>
<line x1="216" y1="168" x2="240" y2="168" stroke-width="10" stroke="black"/>
<line x1="240" y1="128" x2="216" y2="128" stroke-width="10" stroke="black"/>
<line x1="240" y1="168" x2="240" y2="128" stroke-width="10" stroke="black"/>
<line x1="216" y1="128" x2="216" y2="168" stroke-width="10" stroke="black"/>
<line x1="192" y1="88" x2="256" y2="88" stroke-width="10" stroke="black"/>
<line x1="320" y1="0" x2="256" y2="88" stroke-width="10" stroke="black"/>
<line x1="368" y1="176" x2="288" y2="176" stroke-width="10" stroke="black"/>
<line x1="256" y1="88" x2="256" y2="192" stroke-width="10" stroke="black"/>
<line x1="176" y1="192" x2="176" y2="184" stroke-width="10" stroke="black"/>
<line x1="144" y1="184" x2="144" y2="192" stroke-width="10" stroke="black"/>
<line x1="176" y1="184" x2="144" y2="184" stroke-width="10" stroke="black"/>
<line x1="104" y1="168" x2="104" y2="128" stroke-width="10" stroke="black"/>
<line x1="104" y1="128" x2="80" y2="128" stroke-width="10" stroke="black"/>
<line x1="80" y1="128" x2="80" y2="168" stroke-width="10" stroke="black"/>
<line x1="168" y1="128" x2="168" y2="168" stroke-width="10" stroke="black"/>
<line x1="152" y1="168" x2="152" y2="128" stroke-width="10" stroke="black"/>
<line x1="152" y1="128" x2="128" y2="128" stroke-width="10" stroke="black"/>
<line x1="128" y1="128" x2="128" y2="168" stroke-width="10" stroke="black"/>
<line x1="80" y1="168" x2="104" y2="168" stroke-width="10" stroke="black"/>
<line x1="64" y1="88" x2="192" y2="88" stroke-width="10" stroke="black"/>
<line x1="192" y1="168" x2="192" y2="128" stroke-width="10" stroke="black"/>
<line x1="64" y1="88" x2="0" y2="0" stroke-width="10" stroke="black"/>
<line x1="32" y1="176" x2="-48" y2="176" stroke-width="10" stroke="black"/>
<line x1="64" y1="192" x2="64" y2="88" stroke-width="10" stroke="black"/>
<line x1="192" y1="0" x2="176" y2="0" stroke-width="10" stroke="black"/>
<line x1="256" y1="192" x2="288" y2="192" stroke-width="10" stroke="black"/>
<line x1="-960" y1="960" x2="-896" y2="960" stroke-width="10" stroke="black"/>
<line x1="-448" y1="2240" x2="-448" y2="2208" stroke-width="10" stroke="black"/>
<line x1="-480" y1="2208" x2="-448" y2="2208" stroke-width="10" stroke="black"/>
<line x1="-128" y1="2256" x2="-192" y2="2272" stroke-width="10" stroke="black"/>
<line x1="-192" y1="2272" x2="-256" y2="2272" stroke-width="10" stroke="black"/>
<line x1="-448" y1="2240" x2="-480" y2="2240" stroke-width="10" stroke="black"/>
<line x1="-208" y1="2112" x2="-432" y2="2112" stroke-width="10" stroke="black"/>
<line x1="-128" y1="2112" x2="64" y2="2112" stroke-width="10" stroke="black"/>
<line x1="-160" y1="2056" x2="64" y2="2056" stroke-width="10" stroke="black"/>
<line x1="-192" y1="2048" x2="-192" y2="2112" stroke-width="10" stroke="black"/>
<line x1="-432" y1="2128" x2="-208" y2="2128" stroke-width="10" stroke="black"/>
<line x1="-128" y1="1728" x2="-128" y2="1664" stroke-width="10" stroke="black"/>
<line x1="-64" y1="1792" x2="-128" y2="1728" stroke-width="10" stroke="black"/>
<line x1="0" y1="1792" x2="-64" y2="1792" stroke-width="10" stroke="black"/>
<line x1="0" y1="1600" x2="64" y2="1664" stroke-width="10" stroke="black"/>
<line x1="-64" y1="1600" x2="0" y2="1600" stroke-width="10" stroke="black"/>
<line x1="-128" y1="1664" x2="-64" y2="1600" stroke-width="10" stroke="black"/>
<line x1="64" y1="1728" x2="0" y2="1792" stroke-width="10" stroke="black"/>
<line x1="-448" y1="2048" x2="-384" y2="1920" stroke-width="10" stroke="black"/>
<line x1="-384" y1="1536" x2="-396" y2="1512" stroke-width="10" stroke="black"/>
<line x1="-256" y1="1920" x2="-192" y2="1984" stroke-width="10" stroke="black"/>
<line x1="-384" y1="1920" x2="-256" y2="1920" stroke-width="10" stroke="black"/>
<line x1="-360" y1="1792" x2="-360" y2="1664" stroke-width="10" stroke="black"/>
<line x1="-360" y1="1664" x2="-384" y2="1656" stroke-width="10" stroke="black"/>
<line x1="-384" y1="1800" x2="-360" y2="1792" stroke-width="10" stroke="black"/>
<line x1="-336" y1="1816" x2="-336" y2="1640" stroke-width="10" stroke="black"/>
<line x1="-336" y1="1640" x2="-384" y2="1616" stroke-width="10" stroke="black"/>
<line x1="-384" y1="1840" x2="-336" y2="1816" stroke-width="10" stroke="black"/>
<line x1="-304" y1="1856" x2="-304" y2="1600" stroke-width="10" stroke="black"/>
<line x1="-304" y1="1600" x2="-384" y2="1568" stroke-width="10" stroke="black"/>
<line x1="-384" y1="1888" x2="-304" y2="1856" stroke-width="10" stroke="black"/>
<line x1="-384" y1="1656" x2="-384" y2="1800" stroke-width="10" stroke="black"/>
<line x1="-192" y1="2048" x2="-192" y2="1984" stroke-width="10" stroke="black"/>
<line x1="-160" y1="2048" x2="64" y2="2048" stroke-width="10" stroke="black"/>
<line x1="-552" y1="1792" x2="-552" y2="1664" stroke-width="10" stroke="black"/>
<line x1="-568" y1="1664" x2="-568" y2="1792" stroke-width="10" stroke="black"/>
<line x1="-560" y1="1576" x2="-560" y2="1584" stroke-width="10" stroke="black"/>
<line x1="-560" y1="1584" x2="-552" y2="1584" stroke-width="10" stroke="black"/>
<line x1="-552" y1="1576" x2="-560" y2="1576" stroke-width="10" stroke="black"/>
<line x1="-560" y1="1544" x2="-560" y2="1560" stroke-width="10" stroke="black"/>
<line x1="-552" y1="1544" x2="-560" y2="1544" stroke-width="10" stroke="black"/>
<line x1="-560" y1="1520" x2="-560" y2="1528" stroke-width="10" stroke="black"/>
<line x1="-552" y1="1520" x2="-560" y2="1520" stroke-width="10" stroke="black"/>
<line x1="-560" y1="1528" x2="-552" y2="1528" stroke-width="10" stroke="black"/>
<line x1="-560" y1="1560" x2="-552" y2="1560" stroke-width="10" stroke="black"/>
<line x1="-584" y1="1664" x2="-568" y2="1664" stroke-width="10" stroke="black"/>
<line x1="-728" y1="1664" x2="-584" y2="1664" stroke-width="10" stroke="black"/>
<line x1="-728" y1="1888" x2="-584" y2="1888" stroke-width="10" stroke="black"/>
<line x1="-584" y1="1792" x2="-728" y2="1792" stroke-width="10" stroke="black"/>
<line x1="-752" y1="1664" x2="-752" y2="1792" stroke-width="10" stroke="black"/>
<line x1="-768" y1="1664" x2="-752" y2="1664" stroke-width="10" stroke="black"/>
<line x1="-752" y1="1792" x2="-768" y2="1792" stroke-width="10" stroke="black"/>
<line x1="-728" y1="1664" x2="-728" y2="1600" stroke-width="10" stroke="black"/>
<line x1="-584" y1="1792" x2="-584" y2="1664" stroke-width="10" stroke="black"/>
<line x1="-1280" y1="1856" x2="-1280" y2="1728" stroke-width="10" stroke="black"/>
<line x1="-1064" y1="1664" x2="-1064" y2="1792" stroke-width="10" stroke="black"/>
<line x1="-1088" y1="1664" x2="-1064" y2="1664" stroke-width="10" stroke="black"/>
<line x1="-1088" y1="1792" x2="-1088" y2="1856" stroke-width="10" stroke="black"/>
<line x1="-1024" y1="1792" x2="-1024" y2="1664" stroke-width="10" stroke="black"/>
<line x1="-1024" y1="1600" x2="-960" y2="1600" stroke-width="10" stroke="black"/>
<line x1="-1048" y1="1664" x2="-1024" y2="1664" stroke-width="10" stroke="black"/>
<line x1="-832" y1="2016" x2="-832" y2="2048" stroke-width="10" stroke="black"/>
<line x1="-1024" y1="1792" x2="-1048" y2="1792" stroke-width="10" stroke="black"/>
<line x1="-1048" y1="1664" x2="-1048" y2="1792" stroke-width="10" stroke="black"/>
<line x1="-768" y1="1792" x2="-768" y2="1664" stroke-width="10" stroke="black"/>
<line x1="-536" y1="1664" x2="-536" y2="1600" stroke-width="10" stroke="black"/>
<line x1="832" y1="2048" x2="832" y2="1984" stroke-width="10" stroke="black"/>
<line x1="960" y1="2048" x2="960" y2="1984" stroke-width="10" stroke="black"/>
<line x1="896" y1="1984" x2="896" y2="2048" stroke-width="10" stroke="black"/>
<line x1="1024" y1="2112" x2="960" y2="2112" stroke-width="10" stroke="black"/>
<line x1="896" y1="2048" x2="832" y2="2048" stroke-width="10" stroke="black"/>
<line x1="832" y1="1920" x2="832" y2="1856" stroke-width="10" stroke="black"/>
<line x1="896" y1="1920" x2="832" y2="1920" stroke-width="10" stroke="black"/>
<line x1="1024" y1="1920" x2="960" y2="1920" stroke-width="10" stroke="black"/>
<line x1="960" y1="1920" x2="960" y2="1856" stroke-width="10" stroke="black"/>
<line x1="896" y1="1856" x2="896" y2="1920" stroke-width="10" stroke="black"/>
<line x1="832" y1="1984" x2="896" y2="1984" stroke-width="10" stroke="black"/>
<line x1="832" y1="1792" x2="832" y2="1728" stroke-width="10" stroke="black"/>
<line x1="896" y1="1792" x2="832" y2="1792" stroke-width="10" stroke="black"/>
<line x1="1024" y1="1792" x2="960" y2="1792" stroke-width="10" stroke="black"/>
<line x1="960" y1="1792" x2="960" y2="1728" stroke-width="10" stroke="black"/>
<line x1="896" y1="1728" x2="896" y2="1792" stroke-width="10" stroke="black"/>
<line x1="896" y1="1600" x2="960" y2="1600" stroke-width="10" stroke="black"/>
<line x1="960" y1="1664" x2="1024" y2="1664" stroke-width="10" stroke="black"/>
<line x1="960" y1="1648" x2="896" y2="1648" stroke-width="10" stroke="black"/>
<line x1="832" y1="1728" x2="896" y2="1728" stroke-width="10" stroke="black"/>
<line x1="832" y1="1856" x2="896" y2="1856" stroke-width="10" stroke="black"/>
<line x1="1280" y1="1920" x2="1216" y2="1920" stroke-width="10" stroke="black"/>
<line x1="1216" y1="1856" x2="1280" y2="1856" stroke-width="10" stroke="black"/>
<line x1="1280" y1="1856" x2="1280" y2="1920" stroke-width="10" stroke="black"/>
<line x1="1472" y1="1792" x2="1472" y2="1856" stroke-width="10" stroke="black"/>
<line x1="1408" y1="1792" x2="1408" y2="1984" stroke-width="10" stroke="black"/>
<line x1="1152" y1="1920" x2="1088" y2="1920" stroke-width="10" stroke="black"/>
<line x1="1152" y1="1856" x2="1152" y2="1920" stroke-width="10" stroke="black"/>
<line x1="1088" y1="1856" x2="1152" y2="1856" stroke-width="10" stroke="black"/>
<line x1="1088" y1="1920" x2="1088" y2="1856" stroke-width="10" stroke="black"/>
<line x1="1216" y1="1920" x2="1216" y2="1856" stroke-width="10" stroke="black"/>
<line x1="1152" y1="1728" x2="1152" y2="1792" stroke-width="10" stroke="black"/>
<line x1="1088" y1="1792" x2="1088" y2="1728" stroke-width="10" stroke="black"/>
<line x1="1088" y1="1728" x2="1152" y2="1728" stroke-width="10" stroke="black"/>
<line x1="1280" y1="1728" x2="1216" y2="1728" stroke-width="10" stroke="black"/>
<line x1="1280" y1="1792" x2="1280" y2="1728" stroke-width="10" stroke="black"/>
<line x1="1216" y1="1728" x2="1216" y2="1792" stroke-width="10" stroke="black"/>
<line x1="1088" y1="1792" x2="1152" y2="1792" stroke-width="10" stroke="black"/>
<line x1="1280" y1="2048" x2="1216" y2="2048" stroke-width="10" stroke="black"/>
<line x1="1280" y1="1984" x2="1280" y2="2048" stroke-width="10" stroke="black"/>
<line x1="1152" y1="1984" x2="1152" y2="2048" stroke-width="10" stroke="black"/>
<line x1="1088" y1="2048" x2="1088" y2="1984" stroke-width="10" stroke="black"/>
<line x1="1152" y1="2048" x2="1088" y2="2048" stroke-width="10" stroke="black"/>
<line x1="1216" y1="2048" x2="1216" y2="1984" stroke-width="10" stroke="black"/>
<line x1="1152" y1="1984" x2="1088" y2="1984" stroke-width="10" stroke="black"/>
<line x1="1024" y1="1728" x2="1024" y2="1792" stroke-width="10" stroke="black"/>
<line x1="544" y1="1760" x2="400" y2="1760" stroke-width="10" stroke="black"/>
<line x1="544" y1="1808" x2="400" y2="1808" stroke-width="10" stroke="black"/>
<line x1="544" y1="1784" x2="400" y2="1784" stroke-width="10" stroke="black"/>
<line x1="576" y1="1984" x2="576" y2="1856" stroke-width="10" stroke="black"/>
<line x1="576" y1="1984" x2="544" y2="1984" stroke-width="10" stroke="black"/>
<line x1="544" y1="1856" x2="576" y2="1856" stroke-width="10" stroke="black"/>
<line x1="688" y1="1856" x2="688" y2="1664" stroke-width="10" stroke="black"/>
<line x1="648" y1="1856" x2="648" y2="1984" stroke-width="10" stroke="black"/>
<line x1="664" y1="1984" x2="664" y2="1856" stroke-width="10" stroke="black"/>
<line x1="624" y1="1856" x2="624" y2="1984" stroke-width="10" stroke="black"/>
<line x1="544" y1="1760" x2="544" y2="1784" stroke-width="10" stroke="black"/>
<line x1="128" y1="1920" x2="256" y2="1792" stroke-width="10" stroke="black"/>
<line x1="128" y1="2048" x2="128" y2="1920" stroke-width="10" stroke="black"/>
<line x1="384" y1="1808" x2="384" y2="2048" stroke-width="10" stroke="black"/>
<line x1="400" y1="2216" x2="128" y2="2216" stroke-width="10" stroke="black"/>
<line x1="384" y1="2064" x2="400" y2="2064" stroke-width="10" stroke="black"/>
<line x1="400" y1="2048" x2="384" y2="2048" stroke-width="10" stroke="black"/>
<line x1="256" y1="1728" x2="256" y2="1600" stroke-width="10" stroke="black"/>
<line x1="384" y1="1728" x2="256" y2="1728" stroke-width="10" stroke="black"/>
<line x1="384" y1="1728" x2="384" y2="1792" stroke-width="10" stroke="black"/>
<line x1="320" y1="1536" x2="296" y2="1512" stroke-width="10" stroke="black"/>
<line x1="384" y1="1536" x2="320" y2="1536" stroke-width="10" stroke="black"/>
<line x1="384" y1="1600" x2="400" y2="1600" stroke-width="10" stroke="black"/>
<line x1="256" y1="1792" x2="384" y2="1792" stroke-width="10" stroke="black"/>
<line x1="400" y1="2064" x2="400" y2="2048" stroke-width="10" stroke="black"/>
<line x1="768" y1="2240" x2="768" y2="2112" stroke-width="10" stroke="black"/>
<line x1="64" y1="2048" x2="64" y2="2056" stroke-width="10" stroke="black"/>
<line x1="-768" y1="1512" x2="-960" y2="1512" stroke-width="10" stroke="black"/>

</svg>

