<?xml version="1.0" encoding="UTF-8" standalone="no"?>
<!-- Created with Inkscape (http://www.inkscape.org/) -->

<svg
   xmlns:dc="http://purl.org/dc/elements/1.1/"
   xmlns:cc="http://creativecommons.org/ns#"
   xmlns:rdf="http://www.w3.org/1999/02/22-rdf-syntax-ns#"
   xmlns:svg="http://www.w3.org/2000/svg"
   xmlns="http://www.w3.org/2000/svg"
   xmlns:sodipodi="http://sodipodi.sourceforge.net/DTD/sodipodi-0.dtd"
   xmlns:inkscape="http://www.inkscape.org/namespaces/inkscape"
   width="209.83528mm"
   height="46.551807mm"
   viewBox="0 0 743.51084 164.94735"
   id="svg4404"
   version="1.1"
   inkscape:version="0.91 r13725"
   sodipodi:docname="486dx2.svg">
  <defs
     id="defs4406" />
  <sodipodi:namedview
     id="base"
     pagecolor="#ffffff"
     bordercolor="#666666"
     borderopacity="1.0"
     inkscape:pageopacity="0.0"
     inkscape:pageshadow="2"
     inkscape:zoom="0.74555571"
     inkscape:cx="360.39253"
     inkscape:cy="84.455143"
     inkscape:document-units="px"
     inkscape:current-layer="layer1"
     showgrid="false"
     inkscape:window-width="1440"
     inkscape:window-height="855"
     inkscape:window-x="0"
     inkscape:window-y="1"
     inkscape:window-maximized="1"
     fit-margin-top="0"
     fit-margin-left="0"
     fit-margin-right="0"
     fit-margin-bottom="0" />
  <metadata
     id="metadata4409">
    <rdf:RDF>
      <cc:Work
         rdf:about="">
        <dc:format>image/svg+xml</dc:format>
        <dc:type
           rdf:resource="http://purl.org/dc/dcmitype/StillImage" />
        <dc:title></dc:title>
      </cc:Work>
    </rdf:RDF>
  </metadata>
  <g
     inkscape:label="Layer 1"
     inkscape:groupmode="layer"
     id="layer1"
     transform="translate(-238.82898,-627.90169)">
    <path
       style="fill:#000000"
       d="m 293.70157,792.76726 c -0.0913,-0.085 -11.88148,-0.2592 -26.20045,-0.3879 -14.31896,-0.1288 -26.10219,-0.3018 -26.18495,-0.3846 -0.0827,-0.083 -0.2138,-12.1047 -0.2912,-26.7155 -0.26796,-50.5753 -0.77921,-103.84691 -1.14107,-118.8977 -0.12011,-4.99545 -0.11028,-9.42324 0.0218,-9.83951 l 0.24022,-0.75688 155.31983,0.0256 c 85.4259,0.0141 170.61095,0.009 189.30011,-0.012 18.68916,-0.0207 34.21957,0.0542 34.51203,0.16645 0.43842,0.16824 0.51015,1.40344 0.40883,7.03904 -0.17212,9.57505 -0.11411,46.63308 0.0829,52.95999 0.0899,2.8875 0.26426,12.42187 0.38737,21.18751 0.12312,8.7656 0.29468,18.3 0.38123,21.1875 0.0865,2.8875 0.24862,9.4687 0.36019,14.625 0.11156,5.1562 0.28263,11.4 0.38013,13.875 0.3624,9.1997 0.73545,22.1662 0.67332,23.4043 -0.0352,0.7036 -0.33225,1.5473 -0.65989,1.875 -0.5421,0.5421 -15.29172,0.605 -164.0101,0.6991 -89.87794,0.057 -163.48911,0.034 -163.58039,-0.05 z m 261.58404,-4.915 c 21.65625,-0.098 44.47969,-0.1837 50.71875,-0.1897 l 11.34375,-0.011 0,-1.7386 0,-1.7386 -80.71875,0.2597 c -44.39531,0.1428 -95.48437,0.2634 -113.53125,0.268 -25.96598,0.01 -32.92987,0.1076 -33.375,0.4844 -0.83897,0.7101 -1.60005,0.8933 -2.4375,0.5868 -0.47278,-0.1731 -1.28042,-0.01 -2.18504,0.4492 -1.93786,0.9773 -2.98031,0.7783 -3.40193,-0.6496 -0.32478,-1.0998 -0.40624,-1.1372 -2.25,-1.0315 -1.05217,0.06 -12.77749,0.1135 -26.05627,0.1182 l -24.14325,0.01 -1.14307,0.9618 c -0.91834,0.7728 -1.36941,0.9097 -2.29426,0.6963 -0.63315,-0.146 -18.19493,-0.3852 -39.02618,-0.5315 -20.83125,-0.1463 -38.17031,-0.3971 -38.53125,-0.5572 -0.36094,-0.1602 -0.66983,-0.3998 -0.68642,-0.5324 -0.0884,-0.7066 -0.30377,-33.608 -0.55443,-84.70985 l -0.28189,-57.46875 39.59861,0 c 21.77924,0 39.67267,0.12656 39.76317,0.28125 0.0905,0.15469 0.28558,7.45312 0.4335,16.21875 0.14792,8.76562 0.34751,16.01836 0.44353,16.1172 0.096,0.0988 10.61308,0.1832 23.37126,0.1875 l 23.19669,0.008 1.51351,-1.63843 c 0.83243,-0.90114 1.56305,-1.77805 1.62361,-1.9487 0.0606,-0.17066 1.03824,-1.35852 2.17261,-2.6397 1.13437,-1.28118 2.06506,-2.42927 2.06818,-2.5513 0.003,-0.12203 0.425,-0.65197 0.9375,-1.17765 1.66383,-1.7066 3.74432,-4.16158 3.74451,-4.41854 1e-4,-0.13788 0.92301,-1.17881 2.05091,-2.31318 1.1279,-1.13438 2.05595,-2.2085 2.06232,-2.38693 0.006,-0.17843 0.57589,-0.85343 1.2656,-1.5 0.68971,-0.64657 1.54999,-1.69039 1.91172,-2.31961 0.6234,-1.08438 3.54793,-2.79346 4.78007,-2.79346 0.28984,0 1.13249,0.63281 1.87255,1.40625 l 1.34557,1.40625 0.22472,5.0625 c 0.1236,2.78437 0.22734,7.96404 0.23054,11.51038 l 0.006,6.44788 3.09375,0.0208 c 5.54241,0.0373 20.30654,-0.0297 21.81115,-0.099 1.27496,-0.0587 1.51484,-0.21512 1.8291,-1.19258 0.19894,-0.61874 0.80423,-1.69002 1.3451,-2.3806 0.54087,-0.69058 1.23653,-1.73265 1.5459,-2.31572 1.10022,-2.07351 9.00455,-9.74116 10.04186,-9.74116 0.18804,0 0.64733,-0.3375 1.02064,-0.75 0.37331,-0.4125 0.9479,-0.75203 1.27687,-0.75452 0.32897,-0.003 1.30144,-0.40669 2.16104,-0.89824 0.8596,-0.49154 2.2096,-1.10572 3,-1.36484 0.7904,-0.25912 1.77459,-0.68617 2.18709,-0.94902 0.4125,-0.26284 1.425,-0.59697 2.25,-0.7425 0.825,-0.14553 1.77729,-0.40743 2.1162,-0.582 0.33891,-0.17457 1.90341,-0.38778 3.47667,-0.4738 1.57326,-0.086 3.06785,-0.30817 3.3213,-0.49367 0.62604,-0.45819 11.62632,-0.30628 13.96083,0.19279 4.71189,1.0073 7.29895,1.83168 8.73848,2.78455 0.85687,0.56719 1.75048,1.03125 1.9858,1.03125 0.38037,0 4.21371,3.4857 7.21338,6.55921 1.52383,1.56135 3.66984,4.79235 5.27488,7.9418 0.74649,1.46476 1.60687,2.87037 1.91197,3.12358 0.3051,0.25322 0.48123,0.57932 0.39139,0.72468 -0.0898,0.14536 7.17038,0.2528 16.13382,0.23876 l 16.29716,-0.0255 2.24531,-2.41141 c 1.23492,-1.32627 2.24531,-2.5694 2.24531,-2.76249 0,-0.19309 0.3207,-0.26722 0.71265,-0.16471 0.48375,0.1265 0.96916,-0.16059 1.51123,-0.89377 0.43922,-0.59407 1.09337,-1.08012 1.45369,-1.08012 0.36031,0 1.5787,-0.67 2.70752,-1.48888 1.12883,-0.81888 2.78569,-2.01761 3.68192,-2.66384 2.22381,-1.60349 5.60287,-3.34728 6.48625,-3.34728 0.39991,0 1.18434,-0.33634 1.74317,-0.74742 0.55884,-0.41109 2.53482,-1.18288 4.39107,-1.7151 1.85625,-0.53222 3.88125,-1.20573 4.5,-1.49669 1.01504,-0.47731 3.92555,-1.37114 4.875,-1.49712 0.65107,-0.0864 2.60208,-0.59703 3.1875,-0.83426 0.30937,-0.12537 1.06875,-0.25871 1.6875,-0.29632 0.61875,-0.0376 2.30625,-0.27287 3.75,-0.5228 1.44375,-0.24994 3.78974,-0.48219 5.21331,-0.51611 l 2.5883,-0.0617 0.73024,1.40727 c 0.70413,1.35695 0.70704,1.47178 0.0815,3.21138 -0.49068,1.36455 -0.93376,1.92587 -1.81854,2.30387 -0.64339,0.27487 -2.21745,0.98132 -3.49791,1.56988 -1.28046,0.58855 -2.6823,1.0701 -3.1152,1.0701 -1.06797,0 -4.21017,0.78338 -4.71606,1.17576 -0.22516,0.17463 -1.45998,0.65314 -2.74404,1.06335 -1.28407,0.41021 -2.8134,1.08672 -3.39852,1.50336 -0.58511,0.41664 -1.16301,0.75753 -1.28422,0.75753 -0.3258,0 -8.77853,6.32879 -9.05913,6.78282 -0.13205,0.21365 -0.65571,0.54647 -1.16371,0.73961 -2.65661,1.01004 -1.86908,1.02085 54.43399,0.74737 l 4.125,-0.02 0.009,-17.35104 0.009,-17.35104 -1.50889,-0.0102 c -0.8301,-0.006 -4.79973,-0.06 -8.82161,-0.12082 -4.02187,-0.0609 -7.56563,-0.0248 -7.875,0.0802 -1.14048,0.387 -4.87145,0.5622 -5.07171,0.23816 -0.11913,-0.19275 -7.31704,-0.25428 -16.97381,-0.1451 -9.22184,0.10427 -26.04823,0.17705 -37.39198,0.16174 -11.34375,-0.0153 -20.87813,-0.0174 -21.1875,-0.005 -0.46353,0.019 -34.32483,0.14303 -102.375,0.37488 -16.71164,0.0569 -86.03159,-0.40008 -86.5408,-0.57055 -0.26306,-0.0881 -7.09744,-0.24945 -15.1875,-0.35863 -8.09006,-0.10917 -20.02483,-0.27348 -26.5217,-0.36512 -6.49687,-0.0916 -18.30937,-0.24001 -26.25,-0.32972 l -14.4375,-0.1631 0.0567,3.05136 c 0.0715,3.84367 0.49637,60.87408 0.65557,87.98887 0.10966,18.6767 0.59967,56.7343 0.73222,56.8688 0.12636,0.1281 28.04633,0.5156 52.55548,0.7294 14.4375,0.126 26.30859,0.2843 26.38021,0.3519 0.16328,0.154 176.74737,-0.1338 229.74479,-0.3745 z m -182.6875,-1.1216 c 0,-0.3003 0.14338,-0.4574 0.31862,-0.349 0.17523,0.1083 0.22153,0.354 0.10286,0.546 -0.30323,0.4906 -0.42148,0.4354 -0.42148,-0.197 z M 478.68405,652.5814 c 0.23178,-0.69533 1.03906,-0.81066 1.03906,-0.14844 0,0.32656 -0.26719,0.59375 -0.59375,0.59375 -0.32656,0 -0.52695,-0.20039 -0.44531,-0.44531 z m -96.74216,124.85156 c -0.0172,-0.7734 -0.0453,-1.6594 -0.0625,-1.9688 -0.0275,-0.4944 -3.25347,-0.5625 -26.65625,-0.5625 l -26.625,0 0,2.065 0,2.065 26.68752,-0.096 26.68753,-0.096 -0.0313,-1.4062 z m 175.14041,1.1359 60.29667,-0.1047 -0.10916,-1.9811 -0.1092,-1.981 -24.16396,0.018 -24.16397,0.018 -3.02353,1.0924 c -5.13335,1.8549 -8.54329,2.1284 -16.89854,1.3553 -0.825,-0.076 -2.76563,-0.6073 -4.3125,-1.1799 l -2.8125,-1.0411 -30.75,0.079 c -31.06695,0.08 -34.02182,0.2031 -34.79988,1.4522 -0.16494,0.2648 -0.75557,0.4838 -1.3125,0.4868 -0.55694,0 -1.70898,0.2482 -2.56009,0.5448 -2.42077,0.8435 -15.48848,0.165 -16.77498,-0.8711 -0.23515,-0.1894 -1.18693,-0.4668 -2.11505,-0.6166 -0.92813,-0.1498 -1.87272,-0.4213 -2.0991,-0.6034 -0.22639,-0.1821 -11.24601,-0.374 -24.48805,-0.4263 -23.91671,-0.095 -24.0751,-0.09 -23.87477,0.6547 0.11092,0.4125 0.20398,1.3406 0.20679,2.0625 l 0.005,1.3125 46.78126,-0.083 c 25.72969,-0.046 73.91477,-0.1299 107.07794,-0.1875 z m -175.23419,-11.3547 0,-2.4375 -26.8125,0 -26.8125,0 0,2.4375 0,2.4375 26.8125,0 26.8125,0 0,-2.4375 z m 53.78535,1.3659 c -0.41763,-0.3387 -0.87238,-0.9112 -1.01056,-1.2721 -0.13819,-0.3609 -0.44144,-0.6563 -0.67388,-0.6563 -0.23245,0 -0.88827,-0.3315 -1.45737,-0.7368 -0.97757,-0.696 -1.81479,-0.7427 -15.15183,-0.8437 l -14.11709,-0.107 1.9e-4,2.1682 1.9e-4,2.1681 16.58484,-0.052 c 15.44412,-0.049 16.53261,-0.095 15.82551,-0.6681 z m 35.38448,-0.1952 c 2.12153,-0.09 4.06216,-0.3186 4.3125,-0.5077 0.25035,-0.1891 1.55205,-0.6621 2.89267,-1.051 2.67155,-0.7752 5.25846,-2.1091 4.54881,-2.3457 -0.24696,-0.082 -0.65429,0.016 -0.90517,0.2194 -0.28353,0.2294 -5.70952,0.3493 -14.33919,0.3167 l -13.88306,-0.052 1.13305,0.7597 c 1.93673,1.2986 8.67163,3.1217 10.87954,2.9451 0.82693,-0.066 3.23932,-0.194 5.36085,-0.2841 z m 56.1561,-1.528 -2.23657,-2.0056 -13.64881,0.1709 -13.64881,0.1709 -0.97364,1.1571 c -0.5355,0.6365 -1.48708,1.4703 -2.11462,1.8531 -1.12132,0.6839 -0.83073,0.6956 16.85902,0.6775 l 18,-0.018 -2.23657,-2.0055 z m 35.86836,1.3383 c 1.86343,-0.3682 7.03214,-3.192 6.61185,-3.6123 -0.0712,-0.071 -1.89887,0.023 -4.06153,0.21 -3.71985,0.3211 -9.94894,0.2485 -16.04528,-0.1868 -1.72884,-0.1235 -2.65503,-0.061 -2.51262,0.1694 0.30832,0.4988 5.30669,3.3948 6.51973,3.7774 1.25352,0.3953 6.71933,0.1893 9.48785,-0.3577 z m 53.98977,-1.3554 -0.12847,-2.0631 -4.18403,0.01 c -2.30122,0 -9.44313,-0.033 -15.87088,-0.082 l -11.68682,-0.09 -1.06318,1.0399 c -0.58475,0.572 -1.6538,1.532 -2.37568,2.1335 l -1.3125,1.0936 18.375,0.011 18.375,0.012 -0.12844,-2.063 z m -3.62156,0.9369 c 0.12746,-0.2062 0.4005,-0.375 0.60675,-0.375 0.20625,0 0.27071,0.1688 0.14325,0.375 -0.12746,0.2063 -0.4005,0.375 -0.60675,0.375 -0.20625,0 -0.27071,-0.1687 -0.14325,-0.375 z m -315.00108,-6.3015 c -0.0695,-3.031 -0.22938,-12.5985 -0.35537,-21.261 -0.12598,-8.6625 -0.30622,-20.6437 -0.40052,-26.625 -0.0943,-5.9812 -0.17369,-13.91245 -0.17641,-17.62495 l -0.005,-6.75 -10.35055,0 -10.35054,0 0.1995,34.58675 c 0.10972,19.0227 0.28861,34.7309 0.39753,34.9071 0.10892,0.1763 0.22443,2.1238 0.25671,4.3279 l 0.0587,4.0075 10.42611,-0.029 10.42611,-0.029 -0.12629,-5.5109 z m 83.06358,-6.4485 0,-5.25 -26.5625,0 c -14.60938,0 -26.63281,0.07 -26.71875,0.155 -0.0859,0.085 -0.10493,2.4478 -0.0422,5.25 l 0.11405,5.095 26.6047,0 26.60471,0 0,-5.25 z m 45.26546,4.2665 c 0.0771,-0.2315 -0.20419,-0.511 -0.62513,-0.6211 -0.48788,-0.1276 -0.76533,-0.5098 -0.76533,-1.0544 0,-0.4698 -0.31409,-1.5403 -0.69796,-2.3788 -0.38388,-0.8386 -0.8953,-2.2365 -1.13649,-3.1065 l -0.43852,-1.5818 -9.92857,-0.1057 c -5.46071,-0.058 -10.0549,-0.063 -10.20932,-0.011 -0.27938,0.094 -0.19464,8.1243 0.0947,8.9788 0.20994,0.6199 23.49943,0.5028 23.70657,-0.1192 z m 62.53024,-0.4193 c 0.87833,-1.4788 2.0793,-5.5972 2.0793,-7.1304 l 0,-1.6372 -2.53125,0.2254 c -3.72701,0.3318 -42.35784,0.5235 -45.24627,0.2245 -1.6419,-0.1699 -2.47238,-0.1234 -2.47218,0.1386 7.5e-4,1.0779 2.9475,6.4316 4.40595,8.0049 0.25781,0.2781 0.46875,0.6845 0.46875,0.903 0,0.278 6.44738,0.3273 21.45195,0.1641 19.92948,-0.2167 21.47975,-0.2801 21.84375,-0.8929 z m 31.05676,0.4254 c 0.1251,-0.1251 0.0714,-0.4204 -0.11935,-0.6563 -1.81492,-2.2439 -2.23311,-2.8439 -2.23311,-3.2035 0,-0.229 -0.42188,-1.2909 -0.9375,-2.3598 -0.51563,-1.0688 -0.9375,-2.1549 -0.9375,-2.4136 0,-0.3444 -1.20138,-0.5013 -4.48772,-0.5861 -4.18341,-0.1079 -4.51095,-0.065 -4.83011,0.6342 -0.85513,1.8732 -1.57381,3.8902 -1.96175,5.5058 -0.23189,0.9657 -0.6576,1.8463 -0.94602,1.957 -0.28842,0.1107 -0.5244,0.4596 -0.5244,0.7755 0,0.4985 1.10427,0.5742 8.375,0.5742 4.60625,0 8.47736,-0.1023 8.60246,-0.2274 z m 53.61629,-0.226 c 0.36094,-0.1776 0.65625,-0.6182 0.65625,-0.979 0,-0.3608 0.31653,-1.5783 0.7034,-2.7056 0.38687,-1.1272 0.78704,-2.7245 0.88927,-3.5495 l 0.18587,-1.5 -19.63923,0 c -18.8541,0 -19.63923,0.028 -19.63927,0.6934 -6e-5,1.0288 1.02939,3.1143 2.95974,5.9959 l 1.71775,2.5643 15.75499,-0.098 c 8.66524,-0.054 16.05029,-0.2436 16.41123,-0.4212 z m 42.65625,-4.1851 0,-4.687 -7.01337,0.095 c -3.85736,0.052 -8.73175,-10e-4 -10.83199,-0.1185 l -3.81861,-0.2135 -0.74461,1.5 c -0.40954,0.825 -1.27718,2.5968 -1.92808,3.9375 -0.65091,1.3406 -1.42438,2.775 -1.71884,3.1875 -0.53204,0.7453 -0.45308,0.7507 12.76007,0.868 l 13.29543,0.1179 0,-4.687 z m -240.75,-9.9206 5.4375,-0.066 -0.0334,-2.2726 -0.0334,-2.2726 -22.76805,0.019 c -22.76573,0.019 -22.76817,0.019 -23.8651,-0.7923 -1.31127,-0.9694 -2.43049,-4.2018 -2.27571,-6.5725 0.0913,-1.3989 -7.5e-4,-1.6044 -0.80892,-1.8073 -0.50158,-0.1259 -1.57089,-0.175 -2.37623,-0.1091 l -1.46424,0.1199 0.10627,6.1875 c 0.0584,3.4031 0.17801,6.525 0.26571,6.9375 0.15725,0.7396 0.4512,0.7496 21.26873,0.722 11.61011,-0.015 23.55616,-0.058 26.54679,-0.094 z m 45.30338,0.017 c 0.95949,-0.049 1.52213,-0.2349 1.3851,-0.4567 -0.12693,-0.2053 -0.28013,-1.8506 -0.34046,-3.6562 -0.11033,-3.3026 0.568,-7.2931 1.2805,-7.5328 0.4351,-0.1465 0.4986,-1.0681 0.0902,-1.3097 -0.15469,-0.091 -0.99418,-0.2843 -1.86555,-0.4285 l -1.58431,-0.2621 -0.24974,1.5619 c -0.2547,1.5927 -2.43867,4.9189 -4.43118,6.7485 -0.9233,0.8478 -1.28717,0.9271 -3.89693,0.8484 -1.5832,-0.048 -3.99109,-0.1877 -5.35086,-0.311 -3.07,-0.2786 -3.65268,0.1576 -3.65268,2.7344 0,0.978 0.0553,1.866 0.12299,1.9732 0.11837,0.1875 15.17909,0.2613 18.49289,0.091 z m 65.04241,0.01 5.1583,-0.1285 -0.24126,-1.0109 c -0.13268,-0.556 -0.38964,-1.2005 -0.57101,-1.4322 -0.18137,-0.2316 -0.23097,-0.6786 -0.11022,-0.9933 0.12074,-0.3146 0.0393,-0.6835 -0.18104,-0.8196 -0.22031,-0.1362 -0.40056,-0.6334 -0.40056,-1.1049 0,-0.4715 -0.3375,-1.1627 -0.75,-1.536 -0.4125,-0.3733 -0.75,-0.819 -0.75,-0.9906 0,-0.6816 -2.11452,-3.2244 -3.50391,-4.2136 l -1.47235,-1.0482 -22.23202,-0.061 -22.23201,-0.061 -0.19898,1.875 c -0.32549,3.067 -0.34682,7.3536 -0.048,9.6538 l 0.27978,2.1538 21.04751,-0.077 c 11.57614,-0.042 23.36875,-0.1347 26.20581,-0.2054 z m 28.02929,-0.6724 c -4e-5,-0.2184 -0.24784,-0.7247 -0.55066,-1.125 -0.30281,-0.4004 -0.55593,-1.1076 -0.5625,-1.5717 -0.007,-0.4641 -0.19318,-0.8437 -0.41472,-0.8437 -0.24102,0 -0.3728,-0.7155 -0.3281,-1.7813 0.0411,-0.9797 -0.007,-2.0344 -0.10675,-2.3437 -0.0998,-0.3094 -0.37402,-1.1651 -0.6094,-1.9017 -0.23537,-0.7365 -0.42795,-1.7705 -0.42795,-2.2977 0,-0.9204 -0.0709,-0.9509 -1.78125,-0.7672 -0.97969,0.1052 -1.84553,0.2472 -1.92409,0.3155 -0.0786,0.068 0.14414,0.729 0.4949,1.4682 0.62507,1.3172 0.67304,4.6754 0.13385,9.3703 -0.0947,0.825 -0.13209,1.5844 -0.083,1.6875 0.18479,0.3881 6.15973,0.1848 6.15964,-0.2095 z m 58.88713,0.3439 3.5747,-0.2367 -0.14371,-4.9176 c -0.079,-2.7047 -0.29547,-5.0779 -0.48095,-5.2738 -0.18549,-0.196 -0.33725,-0.7344 -0.33725,-1.1966 0,-0.4622 -0.20982,-0.9701 -0.46627,-1.1286 -0.25645,-0.1585 -9.15801,-0.3115 -19.78125,-0.3401 -10.62324,-0.029 -19.98998,-0.1197 -20.81498,-0.2027 l -1.5,-0.1508 -0.0141,3.9375 c -0.008,2.1657 0.096,4.1063 0.23043,4.3125 0.13447,0.2063 0.33909,1.341 0.45471,2.5216 0.11562,1.1807 0.3172,2.3197 0.44795,2.5313 0.26503,0.4288 32.7134,0.5492 38.83066,0.144 z m 43.29448,-0.9781 c 0.11861,-0.6703 0.16845,-3.807 0.11074,-6.9704 l -0.10493,-5.7517 -1.73959,0.2278 c -2.2932,0.3003 -16.49406,0.3157 -17.268,0.019 -0.54124,-0.2077 -0.58304,0.2842 -0.40853,4.8063 0.13577,3.5179 0.0672,5.1163 -0.22736,5.2983 -0.23197,0.1434 -0.32311,0.6538 -0.20251,1.1343 0.12059,0.4805 0.0368,0.9864 -0.18612,1.1242 -0.22297,0.1378 -0.40539,0.4937 -0.40539,0.7909 0,0.4571 1.55711,0.5403 10.10801,0.5403 l 10.10802,0 0.21566,-1.2187 z m -144.55669,-17.3616 c 0,-0.2517 -0.37969,-0.5446 -0.84375,-0.6508 -1.92378,-0.4406 -5.09445,-1.7211 -5.91179,-2.3876 -0.31242,-0.2548 -1.24055,-0.6322 -2.0625,-0.8387 -3.15301,-0.792 -4.16195,-1.1029 -5.43196,-1.6737 -0.98166,-0.4412 -1.12345,-0.6041 -0.5625,-0.646 0.4125,-0.031 -0.1622,-0.2783 -1.27712,-0.5499 -1.11492,-0.2715 -2.52282,-0.8601 -3.12867,-1.308 -0.67388,-0.4983 -1.41556,-0.7379 -1.91038,-0.6174 -2.94839,0.7183 -4.326,1.2344 -5.34423,2.0021 -0.63822,0.4812 -1.3554,0.8749 -1.59375,0.8749 -0.23834,0 -0.43335,0.1299 -0.43335,0.2887 0,0.1587 -0.7576,1.2978 -1.68356,2.5312 -0.92596,1.2335 -1.68533,2.5146 -1.6875,2.8469 -0.004,0.5465 1.52151,0.6035 15.93356,0.5951 12.28792,-0.01 15.9375,-0.114 15.9375,-0.4668 z m -24.82031,-0.4262 c 0.2707,-0.1083 0.59414,-0.095 0.71875,0.03 0.12461,0.1246 -0.0969,0.2132 -0.49219,0.1969 -0.43685,-0.018 -0.52571,-0.1068 -0.22656,-0.2265 z m 4.125,0 c 0.2707,-0.1083 0.59414,-0.095 0.71875,0.03 0.12461,0.1246 -0.0969,0.2132 -0.49219,0.1969 -0.43685,-0.018 -0.52571,-0.1068 -0.22656,-0.2265 z m -24.67969,-0.5278 c 0,-0.4068 0.25313,-0.8367 0.5625,-0.9554 0.30937,-0.1188 0.5625,-0.4179 0.5625,-0.6647 0,-0.2469 0.59062,-1.0213 1.3125,-1.721 0.72188,-0.6996 1.31554,-1.4499 1.31926,-1.6673 0.009,-0.5275 2.45404,-2.5316 4.31207,-3.5344 0.82152,-0.4433 1.7468,-0.9624 2.05617,-1.1534 1.06906,-0.6601 3.11701,-1.5199 3.62011,-1.5199 0.83465,0 0.58915,-0.466 -1.35943,-2.58067 -1.69916,-1.84401 -1.96391,-1.99738 -3.06695,-1.77678 -1.56234,0.31247 -31.88479,0.32433 -33.12539,0.0129 -0.9214,-0.23124 -0.94334,-0.18919 -0.94334,1.80807 0,1.12468 0.11057,3.85198 0.24571,6.06068 l 0.24572,4.0159 6.22303,-0.067 c 3.42268,-0.037 6.30741,-0.1722 6.41054,-0.3013 0.764,-0.956 3.61578,-2.7583 4.62302,-2.9218 1.14119,-0.1852 1.27815,-0.092 1.90469,1.2975 0.67238,1.4911 0.71028,4.3549 0.0762,5.7569 -0.24058,0.5319 0.016,0.6207 1.85742,0.6426 1.17511,0.014 2.22245,0.1115 2.32743,0.2164 0.35075,0.3508 0.83626,-0.1994 0.83626,-0.9476 z m 140.53125,0.8062 6.46875,-0.022 0,-0.9154 c 0,-0.5034 -0.16875,-1.0196 -0.375,-1.1471 -0.20625,-0.1275 -0.375,-0.6119 -0.375,-1.0764 0,-0.4646 -0.29531,-1.1718 -0.65625,-1.5716 -0.36094,-0.3999 -1.12733,-1.4512 -1.7031,-2.3363 -1.17609,-1.8079 -3.57858,-4.2032 -4.21591,-4.2032 -0.23045,0 -0.81533,-0.4219 -1.29974,-0.9375 -0.48441,-0.5156 -1.10071,-0.9375 -1.36956,-0.9375 -0.26885,0 -1.3785,-0.40125 -2.46588,-0.89168 -3.4168,-1.54104 -4.09199,-1.649 -8.20873,-1.31253 -2.14133,0.17501 -4.31521,0.43824 -4.83083,0.58495 -0.51563,0.14672 -1.10625,0.29207 -1.3125,0.32301 -1.93508,0.29027 -7.37614,4.13205 -9.44714,6.67035 -0.62738,0.7689 -1.99036,3.3563 -1.99036,3.7783 0,0.1931 -0.23175,0.6175 -0.515,0.9431 -0.28325,0.3256 -0.62041,1.1826 -0.74923,1.9045 l -0.23422,1.3125 13.40547,-0.072 c 7.37302,-0.039 16.31642,-0.082 19.87423,-0.094 z m -228.04824,-4.9899 c 2.03747,-2.7322 3.77319,-5.1321 3.85717,-5.3331 0.084,-0.2009 0.95856,-1.3908 1.94354,-2.6442 0.98497,-1.2533 1.84439,-2.51981 1.90981,-2.81441 0.10039,-0.452 -1.2866,-0.54026 -8.88103,-0.56516 -4.95,-0.0162 -9.37969,-0.15811 -9.84375,-0.31527 -0.83315,-0.28216 -0.84431,-0.24187 -0.88816,3.20824 -0.0244,1.9217 -0.0135,3.6535 0.0243,3.8483 0.0378,0.1949 0.083,2.3043 0.10032,4.6875 0.0174,2.3833 0.10074,4.4598 0.18528,4.6145 0.0845,0.1547 1.89393,0.2812 4.02085,0.2812 l 3.86712,0 3.7045,-4.9676 z m 172.20979,4.045 c 0.0176,-0.4207 0.0969,-2.6211 0.17631,-4.8899 0.12082,-3.4527 0.53471,-6.0336 1.59364,-9.93745 0.13281,-0.48958 -1.24108,-0.56938 -10.59833,-0.61559 -10.57041,-0.0522 -10.73559,-0.0413 -9.83891,0.64791 0.50159,0.38555 1.06946,0.70475 1.26192,0.70934 0.19246,0.005 1.34068,1.02084 2.5516,2.25829 1.21092,1.2375 2.35915,2.25 2.55162,2.25 0.30928,0 1.65775,1.8103 2.82764,3.7961 0.22319,0.3788 0.856,1.106 1.40625,1.6159 0.55025,0.51 1.00046,1.1178 1.00046,1.3508 0,0.2329 0.60409,1.1607 1.34242,2.0618 1.32071,1.6117 1.37763,1.6373 3.51792,1.5779 1.90826,-0.053 2.17942,-0.1542 2.20746,-0.8251 z m 104.76185,0.405 c 0.0438,-0.2309 0.086,-3.8971 0.0937,-8.147 l 0.0143,-7.72706 -13.21875,0.0396 c -7.27031,0.0218 -13.21875,0.0907 -13.21875,0.15324 0,0.0625 0.42188,0.73449 0.9375,1.49331 0.51563,0.7588 0.9375,1.52101 0.9375,1.69381 0,0.1727 0.50625,1.0499 1.125,1.9492 0.61875,0.8994 1.125,1.8261 1.125,2.0596 0,0.2334 0.40384,1.2999 0.89743,2.3699 0.49359,1.07 1.10647,2.8737 1.36196,4.008 0.25548,1.1344 0.53951,2.1938 0.63118,2.3543 0.27661,0.4842 19.22134,0.2421 19.31408,-0.2469 z m -241.83877,-3.6072 c 3.9325,-1e-4 6.9637,-0.1453 6.85068,-0.3281 -0.11148,-0.1804 -0.21795,-2.9226 -0.2366,-6.0938 l -0.0339,-5.76575 -10.88356,0.0668 c -5.98596,0.0367 -10.92584,0.12111 -10.9775,0.1875 -0.75747,0.97338 -4.72366,6.36035 -5.19661,7.05825 -0.34946,0.5156 -1.2295,1.7812 -1.95563,2.8125 l -1.32024,1.875 4.03749,0.1875 c 2.22062,0.1031 5.97811,0.1454 8.34999,0.094 2.37187,-0.051 7.48652,-0.094 11.36588,-0.094 z m -26.43201,-18.02211 c 4.03499,-0.0708 4.26245,-0.1168 4.56951,-0.92444 0.17773,-0.46747 0.46096,-0.90983 0.62938,-0.98302 0.50826,-0.22088 3.86724,-4.3111 3.86724,-4.70914 0,-0.20361 0.3375,-0.67563 0.75,-1.04894 0.4125,-0.37331 0.75,-0.89346 0.75,-1.1559 0,-0.26244 0.45391,-0.83421 1.00868,-1.2706 0.55478,-0.43638 1.27197,-1.19067 1.59375,-1.67619 0.32179,-0.48552 1.93507,-2.52471 3.58507,-4.53153 1.65,-2.00683 3.19139,-3.97899 3.42532,-4.3826 0.23393,-0.4036 0.61361,-0.92211 0.84375,-1.15225 0.23014,-0.23014 0.41843,-0.513 0.41843,-0.62858 0,-0.11558 -8.1377,-0.23376 -18.08378,-0.26263 -9.94609,-0.0289 -19.49907,-0.17036 -21.22887,-0.31445 l -3.14507,-0.26199 0.19731,11.56836 c 0.10853,6.3626 0.21151,11.60626 0.22887,11.65259 0.0458,0.12226 11.44228,0.30282 14.09404,0.22329 1.2375,-0.0371 4.16087,-0.101 6.49637,-0.14198 z m 59.50363,0.0338 c 0.20625,0.0121 5.90156,0.061 12.65625,0.10864 10.24694,0.0723 12.28125,7.5e-4 12.28125,-0.43205 0,-0.31467 -0.22888,-0.43082 -0.58198,-0.29532 -0.32008,0.12282 -0.50596,0.0987 -0.41305,-0.0536 0.0929,-0.15233 -0.14277,-0.86759 -0.52373,-1.58946 -0.38096,-0.72188 -0.91022,-1.73438 -1.17612,-2.25 -0.26591,-0.51563 -0.69068,-1.10625 -0.94394,-1.3125 -0.54724,-0.44567 -1.24304,-4.11567 -1.27974,-6.75 -0.0144,-1.03125 -0.25099,-2.12813 -0.52584,-2.4375 -0.28584,-0.32174 -0.44021,-1.12427 -0.36066,-1.875 0.0765,-0.72188 0.25173,-2.325 0.38944,-3.5625 l 0.25038,-2.25 -12.84007,-0.0128 -12.84007,-0.0128 0.20935,11.4503 c 0.11515,6.29767 0.22098,11.45355 0.23519,11.45752 0.0142,0.004 1.1649,-0.0405 2.55709,-0.0989 1.39219,-0.0583 2.7,-0.0961 2.90625,-0.084 z m 102.1875,0.008 c 2.78437,-0.0529 5.36068,-0.17563 5.72512,-0.27269 0.72487,-0.19305 1.41158,-1.61047 2.0798,-4.2929 0.23751,-0.95343 1.02541,-2.78365 1.75089,-4.06716 0.72549,-1.28351 1.23196,-2.47458 1.12551,-2.64683 -0.10646,-0.17225 -0.031,-0.41362 0.16761,-0.53639 0.52728,-0.32588 2.5366,-3.37717 2.82753,-4.29381 0.13713,-0.43208 0.5754,-0.96011 0.97393,-1.17339 0.39854,-0.21329 0.72461,-0.62023 0.72461,-0.90431 0,-0.28408 0.82294,-1.50159 1.82875,-2.70556 l 1.82876,-2.18904 -4.17251,0.0394 c -2.29487,0.0217 -4.25687,0.072 -4.36,0.11193 -0.29394,0.11369 -16.22317,0.0699 -17.0625,-0.047 -0.65983,-0.0918 -0.76397,0.14223 -0.86621,1.94675 -0.0639,1.12812 -0.27776,2.2458 -0.47521,2.48372 -0.19746,0.23792 -0.25753,0.69706 -0.13349,1.02031 0.12636,0.32929 -0.61285,2.32586 -1.68111,4.54059 -1.45205,3.0104 -2.49915,4.58095 -4.39174,6.58719 -2.36724,2.50941 -2.97477,2.97765 -5.57724,4.29854 -0.61875,0.31404 -1.58108,0.95293 -2.13852,1.41976 l -1.01352,0.84876 8.88852,-0.0358 c 4.88869,-0.0197 11.16664,-0.0792 13.95102,-0.13207 z M 488.6528,703.4004 c 0.2707,-0.10832 0.59414,-0.095 0.71875,0.0296 0.12461,0.12461 -0.0969,0.21324 -0.49219,0.19696 -0.43685,-0.018 -0.52571,-0.10685 -0.22656,-0.22656 z m -108.55156,0.25332 c 0.24734,-0.2477 0.28384,-3.24863 0.16035,-13.1839 -0.11179,-8.99385 -0.01,-8.76738 -2.44171,-5.41983 -0.7668,1.0555 -2.83195,3.77241 -4.58923,6.03759 -1.75727,2.26517 -3.36379,4.39442 -3.57004,4.73165 -0.91744,1.50005 -1.94412,2.90838 -3.38975,4.64984 -0.85606,1.03125 -1.76644,2.2717 -2.02305,2.75656 l -0.46655,0.88155 8.06495,-0.13155 c 4.43572,-0.0724 8.15048,-0.21722 8.25503,-0.32191 z m 162.99687,-0.93549 c 9.92978,-4.0796 12.12297,-4.65524 19.125,-5.01967 4.09687,-0.21322 5.74025,-0.1646 6.66544,0.19721 0.67536,0.26412 1.43474,0.40258 1.6875,0.30771 0.25276,-0.0949 1.64081,0.26328 3.08456,0.79591 1.44375,0.53263 3.62846,1.33432 4.8549,1.78155 1.22645,0.44722 2.59709,1.17893 3.04586,1.62603 0.44877,0.44709 1.41213,0.97751 2.1408,1.17871 0.76094,0.2101 7.86771,0.36656 16.6966,0.36757 l 15.37175,0.002 -0.12457,-3.05547 c -0.0685,-1.68051 -0.16605,-6.81711 -0.21679,-11.41466 l -0.0922,-8.35918 -1.71315,0.0554 c -0.94227,0.0304 -5.61404,-0.0529 -10.38174,-0.18524 -4.76771,-0.13233 -9.32396,-0.0934 -10.125,0.0864 -0.82287,0.18475 -2.76151,0.18653 -4.45645,0.004 -1.80978,-0.1948 -3.66706,-0.18116 -4.68134,0.0344 -0.99548,0.21154 -1.84678,0.21999 -2.08691,0.0207 -0.23101,-0.19172 -1.24135,-0.20446 -2.34747,-0.0296 -1.08402,0.17136 -2.89557,0.15395 -4.1006,-0.0394 -1.18727,-0.19051 -3.50868,-0.24554 -5.15868,-0.12229 -2.83768,0.21197 -3.63618,0.2362 -6.09375,0.18493 -0.56719,-0.0119 -3.94413,0.0375 -7.5043,0.10974 l -6.47306,0.13127 -2.27564,2.234 c -1.2516,1.2287 -2.70617,3.07775 -3.23237,4.109 -0.52621,1.03125 -1.07981,1.95937 -1.23023,2.0625 -0.46722,0.32031 -1.52268,2.58918 -2.23826,4.81149 -0.37651,1.1693 -0.95169,2.80101 -1.27817,3.62601 -0.32647,0.825 -0.73936,2.46068 -0.91753,3.63485 l -0.32394,2.13485 1.15863,-0.21158 c 0.63724,-0.11638 2.08675,-0.59291 3.22112,-1.05896 z m -65.60917,-4.06964 c 1.46724,-0.52474 5.60917,-3.51131 5.60917,-4.04453 0,-0.18557 0.39549,-0.96685 0.87887,-1.73619 1.23872,-1.97155 2.52686,-5.53632 2.87682,-7.9613 0.16371,-1.13438 0.40684,-2.4 0.54028,-2.8125 0.24081,-0.74441 0.0735,-0.75 -22.46391,-0.75 -12.48859,0 -22.70665,0.0531 -22.7068,0.11798 -10e-4,0.49506 1.82219,4.18981 2.42899,4.92213 2.48365,2.99744 3.98583,4.32972 6.98031,6.19084 1.84205,1.14485 3.52722,2.08155 3.74483,2.08155 0.21761,0 0.93283,0.40339 1.58938,0.89643 0.65655,0.49305 1.78435,1.01878 2.50623,1.16831 0.72188,0.14952 1.48125,0.39073 1.6875,0.53602 0.36759,0.25893 2.07671,0.80104 4.6875,1.48684 1.99489,0.52401 10.09434,0.4575 11.64083,-0.0956 z M 297.24312,676.37046 c -0.15202,-0.81089 -0.0816,-1.21875 0.21039,-1.21875 0.24237,0 0.31609,-0.19865 0.16466,-0.44367 -0.47251,-0.76454 -0.7078,-7.97626 -0.42695,-13.08637 l 0.0944,-1.71754 -8.0625,-0.0979 c -4.43437,-0.0539 -9.20156,-0.13106 -10.59375,-0.17158 -2.31264,-0.0673 -2.53375,-0.008 -2.56024,0.69045 -0.0159,0.42026 -0.0294,3.84295 -0.0299,7.60597 -7.5e-4,5.80068 -0.0897,6.89155 -0.58445,7.16842 -0.52381,0.29313 -0.51815,0.43725 0.0553,1.40814 l 0.63881,1.08159 10.66137,0 10.66137,0 -0.22847,-1.21875 z m 188.02242,-1.12596 c 0.59924,-0.22676 0.24825,-1.44632 -0.71331,-2.47842 -0.38726,-0.41569 -0.70412,-0.97122 -0.70412,-1.23453 0,-0.26331 -0.50625,-1.05533 -1.125,-1.76005 -0.61875,-0.70471 -1.125,-1.38366 -1.125,-1.50876 0,-0.38678 -1.27201,-1.73603 -1.63666,-1.73603 -0.18974,0 -1.20692,-0.7353 -2.26041,-1.634 -1.05348,-0.89871 -2.3373,-1.75306 -2.85293,-1.89857 -0.51562,-0.14551 -1.275,-0.39933 -1.6875,-0.56404 -4.97654,-1.98709 -12.88018,-2.3796 -17.625,-0.87529 -1.03125,0.32695 -1.91142,0.57873 -1.95594,0.55951 -0.0445,-0.0192 -0.63514,0.24853 -1.3125,0.59498 -2.08371,1.06576 -4.25391,2.80857 -5.454,4.37991 -1.34072,1.75546 -4.21506,7.11654 -4.21506,7.8617 0,0.42891 3.47756,0.51041 21.09375,0.49439 11.60156,-0.0105 21.30972,-0.10091 21.57368,-0.2008 z m 262.02007,114.13586 c -2.33659,-1.1079 -4.41071,-3.2476 -5.40161,-5.5724 -0.4176,-0.9797 -0.66146,-1.7813 -0.54195,-1.7813 0.11955,0 -0.0567,-0.4181 -0.3915,-0.9291 -0.51079,-0.7796 -0.55527,-1.3985 -0.27623,-3.8438 0.39469,-3.4586 1.64224,-6.3756 3.75162,-8.772 1.13715,-1.2918 1.45957,-1.9345 1.31208,-2.6151 -0.17917,-0.8268 -0.15093,-0.848 0.33724,-0.2532 0.48859,0.5954 0.65036,0.4786 1.9485,-1.4062 0.77861,-1.1306 1.54778,-2.0556 1.70921,-2.0556 0.16144,0 0.80063,-0.8859 1.42035,-1.9687 0.61977,-1.0828 1.98585,-2.8587 3.03581,-3.9463 1.04993,-1.0877 1.90898,-2.1283 1.90898,-2.3125 0,-0.1842 0.13283,-0.3912 0.29513,-0.46 0.16233,-0.069 0.87952,-0.8802 1.59375,-1.8032 0.71426,-0.923 1.46737,-1.8671 1.67362,-2.0979 0.20625,-0.2309 0.96562,-1.141 1.6875,-2.0226 0.72187,-0.8816 1.75316,-2.1313 2.29174,-2.7771 0.53861,-0.6458 1.25006,-1.6804 1.58107,-2.2992 0.33098,-0.6187 1.19813,-1.7764 1.92702,-2.5726 1.2726,-1.3902 1.77416,-2.4366 0.91274,-1.9042 -0.28575,0.1766 -0.27997,0.01 0.0188,-0.5509 0.23719,-0.4432 0.5661,-0.7224 0.73092,-0.6206 0.34987,0.2163 1.2261,-0.7459 3.04387,-3.3428 0.71846,-1.0264 1.43576,-2.0389 1.59398,-2.25 2.97544,-3.9707 4.02484,-5.4771 4.02484,-5.7775 0,-0.2004 0.42187,-0.6963 0.9375,-1.1019 0.51562,-0.4055 0.9375,-0.8979 0.9375,-1.0941 0,-0.1961 0.3375,-0.662 0.75,-1.0354 0.41249,-0.3733 0.75,-0.9057 0.75,-1.1831 0,-0.2774 0.35501,-0.8594 0.78888,-1.2932 0.43388,-0.4339 0.82118,-1.0089 0.86066,-1.2778 0.0394,-0.2689 0.78957,-1.2217 1.66692,-2.1174 l 1.59517,-1.6285 -0.24877,-2.24995 c -0.13684,-1.2375 -0.39821,-2.53422 -0.58084,-2.8816 -0.18262,-0.34738 -0.33202,-1.28394 -0.33202,-2.08125 0,-0.79731 -0.17269,-1.62235 -0.38378,-1.83343 -0.41595,-0.41593 -0.71734,-1.45997 -1.01505,-3.51622 -0.10455,-0.72188 -0.35333,-1.51605 -0.5529,-1.76483 -0.19957,-0.24877 -0.25612,-0.62497 -0.1257,-0.83599 0.13039,-0.21102 0.0248,-0.76686 -0.2349,-1.23518 -0.25961,-0.46832 -0.42638,-1.00743 -0.37061,-1.198 0.12401,-0.42362 -0.62509,-3.87019 -1.06575,-4.9035 -0.42717,-1.00171 -0.73583,-2.45846 -1.46993,-6.9375 -0.18592,-1.13438 -0.53726,-2.82188 -0.78079,-3.75 -0.4923,-1.87619 -1.17258,-6.10235 -1.19223,-7.40625 -0.007,-0.46406 -0.16362,-0.84375 -0.34804,-0.84375 -0.18443,0 -0.33532,-0.91817 -0.33532,-2.04037 0,-1.1222 -0.16876,-2.14466 -0.375,-2.27213 -0.21447,-0.13256 -0.37238,-2.02813 -0.36882,-4.42838 0.008,-5.06623 0.52815,-6.26021 3.85781,-8.84575 2.1456,-1.66608 2.21985,-1.69091 5.50493,-1.84027 2.6298,-0.11956 3.51064,-0.0249 4.18897,0.45025 0.47243,0.33091 1.14458,0.60165 1.49367,0.60165 0.71718,0 3.60742,3.10989 4.11292,4.42553 0.1824,0.47466 0.41171,1.31841 0.50959,1.875 0.75356,4.28431 1.06054,6.57025 1.14304,8.51197 0.0526,1.2375 0.19473,2.50312 0.31586,2.8125 0.12112,0.30937 0.31222,1.40625 0.42469,2.4375 0.2895,2.65452 0.84288,5.74806 1.34167,7.5 0.23486,0.825 0.4158,1.92187 0.40208,2.4375 -0.0139,0.51562 0.12052,1.275 0.29835,1.6875 0.17778,0.4125 0.52136,1.7625 0.76346,3 0.74842,3.82584 0.67256,3.74698 2.007,2.0863 0.65576,-0.81607 1.7829,-2.29434 2.50477,-3.28504 0.72188,-0.99069 1.77578,-2.30751 2.34203,-2.92626 0.56621,-0.61875 1.03027,-1.25533 1.03125,-1.41463 0,-0.15929 0.64601,-1.00304 1.43351,-1.875 1.57613,-1.74521 2.97454,-3.66896 3.00604,-4.13537 0.0113,-0.16499 0.91564,-1.31865 2.00996,-2.56368 2.74058,-3.11793 2.61139,-2.96216 3.84488,-4.63632 0.60787,-0.825 1.21792,-1.58438 1.35573,-1.6875 0.13778,-0.10313 0.369,-0.56719 0.51383,-1.03125 0.14482,-0.46406 0.4629,-0.84408 0.7068,-0.84447 0.2439,-3.8e-4 1.01831,-0.84416 1.72091,-1.875 0.7026,-1.03086 1.42973,-1.87428 1.61588,-1.87428 0.18615,0 0.23471,-0.16785 0.10792,-0.37299 -0.12679,-0.20514 0.29096,-0.92233 0.92831,-1.59375 0.63739,-0.67142 1.70145,-1.96141 2.36464,-2.86665 0.66319,-0.90524 1.6569,-2.12868 2.20823,-2.71875 0.55132,-0.59007 0.92906,-1.07286 0.83943,-1.07286 -0.50711,0 3.98273,-5.21699 6.31065,-7.33274 1.19835,-1.08911 3.312,-3.52758 4.38225,-5.05576 0.5004,-0.71445 1.13322,-1.43395 1.40625,-1.59888 0.27308,-0.16494 0.4965,-0.54463 0.4965,-0.84375 0,-0.29913 0.21585,-0.54387 0.4797,-0.54387 0.66255,0 3.31245,-2.62843 3.06064,-3.03586 -0.11235,-0.1818 0.0562,-0.2306 0.37451,-0.10844 0.33199,0.1274 0.67084,-0.0177 0.79459,-0.34017 0.11869,-0.30926 1.25918,-1.07379 2.53444,-1.69894 1.9581,-0.95992 2.94544,-1.17803 6.34987,-1.4028 2.68343,-0.17716 4.03125,-0.13725 4.03125,0.11938 0,0.21204 0.44209,0.49648 0.98239,0.63209 1.56911,0.39382 3.63443,2.28966 4.60796,4.22979 0.49467,0.98585 1.13858,2.26046 1.43093,2.83246 0.67511,1.32107 0.76102,6.28027 0.14764,8.52249 -0.25388,0.92812 -0.8739,2.39255 -1.37775,3.25428 -0.50389,0.86172 -0.91617,1.77209 -0.91617,2.02302 0,0.52679 -5.6955,6.05077 -8.38076,8.12839 -1.52659,1.18114 -3.72712,3.27543 -5.9556,5.66804 -0.26186,0.28118 -1.57301,1.54955 -2.91364,2.8186 -2.54681,2.41086 -5.79135,6.06386 -6.74482,7.59397 -0.30653,0.49191 -0.85658,0.98936 -1.22231,1.10544 -0.3657,0.11608 -1.18534,0.8586 -1.82138,1.65006 -0.63604,0.79145 -1.47817,1.52315 -1.87144,1.626 -0.3933,0.10284 -0.71505,0.51336 -0.71505,0.91227 0,0.4043 -1.50491,2.28691 -3.40038,4.25386 -1.87024,1.94071 -3.84304,4.11919 -4.38402,4.84107 -0.54097,0.72187 -1.7589,2.07187 -2.70648,3 -2.73428,2.67814 -5.63412,6.19303 -5.63412,6.82911 0,0.32088 -0.33547,0.67114 -0.7455,0.77836 -0.40998,0.10723 -0.89745,0.59097 -1.08318,1.07499 -0.18574,0.48402 -0.82058,1.31475 -1.41075,1.84607 -1.22262,1.10067 -4.75433,5.1461 -4.9584,5.67962 -0.0744,0.19461 -0.98453,1.2258 -2.02242,2.2916 l -1.88707,1.9377 0.6621,2.625 c 0.36416,1.4438 0.78697,2.7938 0.9396,3 0.15259,0.2063 0.57416,1.3875 0.93682,2.625 1.03099,3.5181 2.11692,6.6626 2.65485,7.6875 0.27064,0.5157 0.82069,1.95 1.22232,3.1875 0.40162,1.2375 1.18755,3.4313 1.74652,4.875 0.55898,1.4438 1.17146,3.1535 1.36106,3.7994 0.18964,0.6458 0.72458,1.7427 1.18879,2.4375 0.46421,0.6947 1.15279,2.2756 1.53015,3.5131 0.37736,1.2375 0.93608,2.6434 1.24159,3.1241 0.30555,0.4807 0.46474,1.1106 0.35381,1.3996 -0.11092,0.2891 0.0221,1.1614 0.29588,1.9385 0.27363,0.7771 0.519,2.3602 0.54525,3.518 0.0645,2.8475 -0.88039,4.1828 -4.25892,6.019 -3.31965,1.8042 -6.05295,1.9589 -9,0.5091 -1.03125,-0.5072 -2.01971,-0.9276 -2.19656,-0.934 -0.17685,-0.01 -1.22014,-0.9545 -2.31844,-2.1067 -1.8615,-1.9529 -4.95577,-7.5193 -6.54828,-11.7801 -0.26982,-0.7218 -0.77329,-1.8187 -1.11885,-2.4375 -0.34553,-0.6187 -0.93375,-2.1375 -1.30718,-3.375 -0.37339,-1.2375 -0.864,-2.7562 -1.0902,-3.375 -0.22624,-0.6187 -0.36465,-1.2711 -0.30761,-1.4498 0.057,-0.1787 -0.14033,-0.6973 -0.43856,-1.1525 -0.29828,-0.4552 -0.60012,-1.2239 -0.6708,-1.7083 -0.16238,-1.1126 -1.06602,-1.4698 -1.06602,-0.4213 0,0.4224 -0.33693,0.9484 -0.74876,1.1688 -0.41182,0.2204 -1.10989,1.1123 -1.55126,1.9819 -0.44134,0.8697 -1.15909,2.0289 -1.59499,2.5761 -0.43586,0.5472 -1.29874,1.8728 -1.91749,2.9458 -0.61875,1.073 -1.68855,2.7138 -2.37731,3.6461 -0.68876,0.9324 -1.55179,2.3911 -1.91779,3.2417 -0.366,0.8506 -1.36338,2.4275 -2.21643,3.5043 -0.85302,1.0767 -1.55097,2.1239 -1.55097,2.3271 0,0.2031 -0.42498,1.0096 -0.94436,1.7922 -0.51941,0.7826 -1.15222,1.7382 -1.40625,2.1235 -0.25406,0.3853 -0.89599,1.3134 -1.42657,2.0625 -0.53059,0.7491 -1.94727,3.0494 -3.14813,5.1119 -1.2009,2.0625 -2.48445,4.0875 -2.85232,4.5 -0.83659,0.9381 -4.2234,6.1184 -5.06832,7.7522 -0.34698,0.671 -1.02982,1.5338 -1.51747,1.9174 -0.48761,0.3836 -0.88658,0.9339 -0.88658,1.223 0,0.2891 -0.54843,0.8082 -1.21875,1.1534 -0.67031,0.3452 -1.725,1.0013 -2.34375,1.4578 -2.64307,1.9504 -7.30927,2.3003 -10.5,0.7874 z m -68.0625,-15.9217 c -0.30938,-0.1825 -1.52846,-0.4397 -2.70911,-0.5715 -2.74133,-0.3062 -6.09923,-2.3886 -8.3961,-5.207 -2.27618,-2.793 -2.33753,-10.3765 -0.11805,-14.5927 0.80122,-1.522 2.292,-3.1161 3.11111,-3.3267 0.43519,-0.1118 1.15781,-0.7474 1.6059,-1.4123 0.44809,-0.6649 0.87431,-1.0301 0.94714,-0.8116 0.0897,0.269 0.85751,0.2182 2.37701,-0.1573 3.97864,-0.983 4.49051,-1.1977 4.63174,-1.9423 0.0754,-0.3977 0.25706,-0.8074 0.40368,-0.9106 0.14663,-0.1031 0.73902,-1.7062 1.31644,-3.5625 0.57743,-1.8562 1.34546,-3.8812 1.70678,-4.5 0.36127,-0.6187 0.86463,-2.0175 1.11858,-3.1083 0.25392,-1.0909 0.86517,-2.8197 1.35829,-3.8419 0.49313,-1.0222 0.89659,-2.0584 0.89659,-2.3027 0,-0.5698 1.45549,-5.1678 1.90657,-6.0232 0.18889,-0.3582 0.34343,-0.9703 0.34343,-1.3604 0,-0.39 0.23205,-0.9017 0.5157,-1.1371 0.28365,-0.2354 0.62966,-1.142 0.76898,-2.0147 0.13927,-0.8727 0.47235,-1.9242 0.74021,-2.3367 0.26782,-0.4125 0.60761,-1.425 0.75502,-2.24995 0.14745,-0.825 0.61887,-2.175 1.0476,-3 0.42874,-0.825 0.84837,-2.08972 0.93248,-2.81049 0.0841,-0.72078 0.57926,-2.49265 1.10032,-3.9375 0.95828,-2.65693 1.16813,-3.31983 2.15809,-6.81673 0.30202,-1.06685 0.71662,-2.25264 0.9213,-2.63508 0.20467,-0.38244 0.7089,-2.04082 1.1205,-3.68528 0.4116,-1.64445 1.11664,-4.42429 1.56675,-6.17742 0.89224,-3.47523 1.37693,-5.82016 1.8603,-9 1.08502,-7.13781 1.79846,-9.65026 3.22057,-11.34173 0.47595,-0.56607 0.97276,-1.36764 1.10404,-1.78125 0.27844,-0.87725 0.93814,-1.01053 0.93814,-0.18952 0,0.69041 0.29224,0.69041 1.5,0 1.23656,-0.70689 5.55116,-0.71676 7.17296,-0.0164 2.11451,0.91313 4.70006,3.60922 5.25146,5.47604 0.74655,2.52735 0.52013,14.02165 -0.31717,16.10289 -0.1245,0.30938 -0.1962,0.69901 -0.15941,0.86585 0.0367,0.16684 -0.20089,1.09208 -0.52819,2.05608 -0.32726,0.964 -1.02248,3.94826 -1.54493,6.63168 -0.52241,2.68343 -1.15983,5.30194 -1.41641,5.81892 -0.25661,0.51698 -0.6756,1.78372 -0.93109,2.81497 -0.25548,1.03125 -0.77208,2.55 -1.14798,3.375 -0.3759,0.825 -0.89558,2.5125 -1.15478,3.75 -0.2592,1.2375 -0.71779,2.53936 -1.01902,2.89303 -0.30128,0.35367 -0.7665,1.53492 -1.0338,2.62499 -0.5901,2.4061 -1.12002,3.9606 -2.27352,6.6695 -0.48303,1.1343 -1.05603,2.7725 -1.27338,3.6404 -0.21732,0.8678 -0.54015,1.6675 -0.71742,1.7771 -0.17726,0.1096 -0.43533,0.8017 -0.57348,1.5381 -0.13815,0.7363 -0.89093,2.8898 -1.67284,4.7853 -1.37955,3.3445 -1.79126,4.4236 -2.88866,7.5716 -0.28763,0.825 -0.84465,2.175 -1.23784,3 -1.24388,2.6099 -2.03299,4.689 -1.84943,4.8726 0.1797,0.1796 2.99622,-0.1799 7.43993,-0.9498 4.27417,-0.7406 10.80817,-3.2263 13.3125,-5.0645 0.61875,-0.4542 2.18929,-1.2964 3.49005,-1.8716 1.30076,-0.5752 2.56639,-1.3211 2.8125,-1.6576 0.24611,-0.3365 0.9858,-0.942 1.64377,-1.3455 2.49582,-1.5305 7.62668,-5.6359 7.82978,-6.2649 0.11659,-0.3609 0.53809,-0.6562 0.93667,-0.6562 0.39859,0 0.72473,-0.2427 0.72473,-0.5392 0,-0.2966 0.77602,-1.0965 1.72447,-1.7776 0.94845,-0.6812 1.97145,-1.7161 2.27333,-2.2998 0.30187,-0.5838 1.26139,-2.0198 2.13221,-3.1912 0.87086,-1.1713 2.0682,-3.0578 2.66078,-4.1922 0.59253,-1.1344 1.36612,-2.4844 1.71907,-3 0.35295,-0.5156 0.77254,-1.3579 0.93244,-1.87174 0.15986,-0.51382 0.78112,-1.99387 1.3806,-3.289 2.3496,-5.0763 3.64256,-12.49157 3.66435,-21.01525 0.0124,-4.88286 -0.72056,-9.91269 -1.51635,-10.40453 -0.19024,-0.11757 -0.3459,-0.5413 -0.3459,-0.94163 0,-0.40033 -0.16875,-0.72787 -0.375,-0.72787 -0.20625,0 -0.375,-0.31684 -0.375,-0.70409 0,-0.38724 -0.25313,-0.91415 -0.5625,-1.17091 -0.30938,-0.25676 -0.5625,-0.62476 -0.5625,-0.81779 0,-0.67157 -3.19148,-4.39049 -3.78563,-4.41128 -0.65865,-0.0231 -1.73482,-1.08191 -2.36857,-2.33045 -0.22455,-0.4424 -0.74302,-0.98968 -1.15211,-1.21617 -0.40909,-0.2265 -1.42159,-0.85495 -2.25,-1.39657 -0.82842,-0.54162 -1.63362,-1.00399 -1.78935,-1.02749 -0.1557,-0.0235 -1.43832,-0.62448 -2.85023,-1.3355 -1.41191,-0.71103 -3.05944,-1.27877 -3.66116,-1.26167 -0.60173,0.0171 -1.62971,-0.24589 -2.28442,-0.58445 -2.06404,-1.06737 -6.0054,-1.47455 -15.85853,-1.63832 -11.13214,-0.18504 -11.94056,-0.26475 -14.44515,-1.42426 -1.81541,-0.84044 -3.92985,-3.25164 -3.92985,-4.48141 0,-0.26567 -0.21754,-1.05209 -0.48338,-1.74759 -0.26587,-0.6955 -0.43848,-1.68642 -0.38362,-2.20205 0.22305,-2.09577 0.8406,-4.87656 1.26443,-5.69381 0.72146,-1.39112 4.11026,-4.50848 4.66826,-4.29435 0.27937,0.1072 1.23671,-0.15735 2.12737,-0.5879 1.30369,-0.63018 2.38714,-0.79047 5.55694,-0.82212 3.98355,-0.0398 8.9655,0.32927 11.93595,0.88417 0.89287,0.1668 1.92784,0.22366 2.29991,0.12636 0.37211,-0.0973 1.18658,0.0869 1.80998,0.40922 0.6234,0.32237 1.69781,0.62279 2.38755,0.66759 0.68977,0.0448 1.61235,0.30718 2.0502,0.58306 0.43785,0.27587 1.77544,0.66098 2.97236,0.85578 1.19696,0.19481 2.29384,0.54438 2.43746,0.77682 0.19354,0.3131 0.46793,0.31199 1.05889,-0.004 0.43875,-0.2348 0.7977,-0.27744 0.7977,-0.0948 0,0.41329 3.37511,2.53614 4.56161,2.86912 0.48173,0.13519 1.7922,0.69289 2.9121,1.23932 1.48054,0.72238 2.07923,0.86446 2.19383,0.52066 0.0969,-0.29057 0.61297,0.0488 1.33879,0.88035 1.18852,1.36164 2.75246,2.43156 5.86867,4.01489 0.92812,0.47158 1.91599,1.16413 2.19529,1.53902 0.27926,0.37488 1.8381,2.06238 3.46402,3.75 1.62596,1.68761 2.95842,3.18118 2.961,3.31902 0.004,0.13785 0.7767,1.15035 1.72024,2.25 0.94357,1.09966 1.94745,2.54781 2.23087,3.21812 0.28343,0.67031 0.69267,1.21875 0.90945,1.21875 0.21675,0 0.39413,0.32545 0.39413,0.72322 0,0.39777 0.25312,0.97633 0.5625,1.28571 0.30937,0.30937 0.5625,0.9021 0.5625,1.31715 0,0.41506 0.16875,0.85895 0.375,0.98642 0.20625,0.12747 0.375,0.53864 0.375,0.91372 0,0.37507 0.26081,0.8984 0.57956,1.16295 0.31875,0.26454 0.50025,0.68771 0.40328,0.94036 -0.0969,0.25265 0.0792,0.82407 0.39138,1.26981 0.31223,0.44575 0.47097,1.06242 0.3528,1.37038 -0.11816,0.30796 -0.0696,0.84857 0.10804,1.20136 0.83726,1.66329 1.1742,3.67864 1.36399,8.15874 0.29696,7.00969 0.27817,8.1892 -0.21116,13.26293 -0.2424,2.51307 -0.35625,4.8922 -0.25302,5.28695 0.10324,0.39475 -0.048,0.91334 -0.33607,1.15243 -0.28811,0.23909 -0.5238,0.81531 -0.5238,1.28049 0,0.46519 -0.26134,1.47123 -0.58073,2.23565 -0.31938,0.76443 -0.53377,1.67098 -0.47643,2.01455 0.1239,0.74203 -0.77235,3.04383 -1.45827,3.74523 -0.26651,0.2725 -0.48457,0.7983 -0.48457,1.1683 0,0.3701 -0.57758,1.8346 -1.28348,3.2545 -0.7059,1.4199 -1.71457,3.5098 -2.24152,4.6441 -1.17848,2.5372 -2.22424,4.3514 -3.00634,5.2156 -0.32651,0.3608 -0.59366,0.8242 -0.59366,1.0297 0,0.3087 -2.2566,3.4802 -3.7554,5.2779 -0.21124,0.2534 -0.88069,1.1815 -1.4877,2.0625 -1.97588,2.8678 -10.36208,11.0939 -13.07554,12.8259 -0.75289,0.4805 -1.7862,1.3245 -2.29624,1.8755 -0.51007,0.551 -1.60695,1.3051 -2.4375,1.6757 -0.83058,0.3706 -2.35387,1.4205 -3.38512,2.3331 -1.03125,0.9126 -2.8875,2.0596 -4.125,2.5488 -2.59136,1.0244 -9.40226,4.7558 -10.47698,5.7397 -0.39982,0.3661 -1.18387,0.6656 -1.74232,0.6656 -0.55845,0 -2.2563,0.5704 -3.77303,1.2675 -4.84395,2.2263 -5.48208,2.4825 -6.18933,2.4849 -0.38134,10e-4 -1.18575,0.2591 -1.78759,0.5729 -0.60184,0.3139 -2.15456,0.7208 -3.45053,0.9043 -2.50511,0.3548 -5.05687,1.1254 -5.43243,1.6406 -0.12495,0.1715 -0.9687,0.3972 -1.875,0.5017 -0.90627,0.1044 -1.90092,0.2806 -2.21029,0.3915 -0.30938,0.1109 -0.98438,0.2524 -1.5,0.3145 -0.51563,0.062 -2.11875,0.3049 -3.5625,0.5398 -3.60218,0.586 -9.62861,0.8427 -10.3125,0.4393 z m 156.17659,-1.9496 c -0.12146,-0.1966 -0.4887,-0.3574 -0.81608,-0.3574 -0.58399,0 -4.281,-3.1793 -4.57023,-3.9302 -0.081,-0.2102 -0.4275,-0.8041 -0.7701,-1.3198 -0.96304,-1.4494 -2.01582,-6.1337 -1.74582,-7.7679 0.129,-0.7807 0.23351,-1.7571 0.23228,-2.1696 -0.008,-2.4306 2.64026,-5.7795 5.68455,-7.1899 1.07224,-0.4968 1.98645,-1.2272 2.24422,-1.7929 0.23925,-0.5251 0.57664,-0.9547 0.74978,-0.9547 0.17313,0 0.31481,-0.225 0.31481,-0.5 0,-0.424 1.08622,-1.1962 6.41775,-4.5625 2.05365,-1.2966 3.25627,-2.2934 3.55376,-2.9453 0.18754,-0.4111 0.66855,-0.7923 1.06894,-0.8471 1.62844,-0.2231 2.51336,-0.5817 4.13396,-1.6755 0.93533,-0.6312 1.70059,-1.3131 1.70059,-1.5153 0,-0.2021 0.57907,-0.6095 1.28685,-0.9052 0.70777,-0.2957 1.39275,-0.709 1.52212,-0.9184 0.12942,-0.2093 0.52973,-0.3807 0.88962,-0.3807 0.35985,0 1.22673,-0.5906 1.92641,-1.3125 0.69967,-0.7218 1.54301,-1.3125 1.87414,-1.3125 0.33108,0 1.60582,-0.7587 2.83267,-1.6861 2.32579,-1.7581 3.04463,-2.2537 8.60569,-5.9327 1.85625,-1.2281 3.84761,-2.7162 4.42526,-3.307 0.57765,-0.5908 1.23038,-1.0742 1.4505,-1.0742 0.56696,0 2.92864,-2.1331 2.65958,-2.4021 -0.12255,-0.1226 0.13282,-0.2229 0.56752,-0.2229 0.4347,0 0.89891,-0.1755 1.03151,-0.3902 0.13264,-0.2146 0.8598,-0.7893 1.61592,-1.2772 0.75607,-0.4878 2.45317,-1.91534 3.77133,-3.17225 1.31813,-1.25692 2.52518,-2.2853 2.6823,-2.2853 0.3459,0 5.23358,-4.89501 5.23358,-5.24144 0,-0.13456 0.57386,-0.51831 1.27522,-0.85277 0.7014,-0.33446 1.74934,-1.25165 2.32883,-2.0382 0.57949,-0.78655 1.82891,-2.27384 2.77657,-3.30509 2.13533,-2.32373 4.86938,-6.31931 4.86938,-7.1162 0,-0.32716 0.25312,-0.69197 0.5625,-0.81069 0.30937,-0.11872 0.5625,-0.6703 0.5625,-1.22573 0,-0.55543 0.18559,-1.19547 0.41242,-1.4223 0.22684,-0.22684 0.5634,-1.76185 0.7479,-3.41115 0.27027,-2.41552 0.22695,-3.20685 -0.2226,-4.06883 -0.30693,-0.58856 -0.55916,-1.26809 -0.5604,-1.51008 0,-0.24199 -0.38625,-0.91699 -0.85548,-1.5 -0.46924,-0.58301 -1.10029,-1.54632 -1.40232,-2.1407 -0.30202,-0.59436 -1.09935,-1.50033 -1.77183,-2.01325 -0.67249,-0.51293 -1.22269,-1.14239 -1.22269,-1.39881 0,-1.19269 -10.53874,-1.43101 -11.70506,-0.26469 -0.24473,0.24471 -0.73752,0.44493 -1.09512,0.44493 -0.68426,0 -4.5873,2.89828 -6.53227,4.85068 -0.6297,0.63213 -1.33853,1.14932 -1.57511,1.14932 -0.23659,0 -0.56513,0.23723 -0.73005,0.52718 -0.16493,0.28995 -1.67704,1.96589 -3.36023,3.72432 -1.68319,1.75843 -3.17111,3.5462 -3.30652,3.97282 -0.13538,0.42663 -0.45222,0.77568 -0.70399,0.77568 -0.49069,0 -3.24165,3.10854 -3.24165,3.663 0,0.41993 -3.939,4.18223 -5.4375,5.19357 -3.84101,2.59232 -10.75609,2.60137 -12.88965,0.0169 -0.28309,-0.3429 -0.87371,-0.6271 -1.3125,-0.63156 -0.79718,-0.008 -1.01876,-0.31689 -2.72348,-3.79559 -1.39496,-2.84656 -1.63635,-4.08607 -1.28111,-6.579 0.18184,-1.27611 0.49684,-2.61723 0.70001,-2.98027 0.23284,-0.41609 0.24072,-0.99843 0.0214,-1.57555 -0.39773,-1.04609 -0.41764,-1.00784 0.70417,-1.35266 0.64763,-0.19907 0.84375,-0.11 0.84375,0.38318 0,0.50457 0.20573,0.42052 0.95828,-0.39147 0.52702,-0.56869 0.86756,-1.12467 0.75675,-1.23552 -0.11085,-0.11084 0.38606,-0.85192 1.10422,-1.64684 0.71817,-0.79493 1.30575,-1.61037 1.30575,-1.8121 0,-0.20173 0.42188,-0.47266 0.9375,-0.60207 0.51563,-0.12942 0.9375,-0.48233 0.9375,-0.78425 0,-0.56424 5.65092,-6.32107 7.84767,-7.99474 0.67676,-0.51563 1.95611,-1.52813 2.84295,-2.25 2.82431,-2.29893 3.34117,-2.66703 4.82096,-3.43344 0.79699,-0.41277 1.53382,-1.07473 1.63747,-1.47103 0.1215,-0.46469 0.51638,-0.72053 1.11207,-0.72053 0.95763,0 8.74983,-3.58536 9.15761,-4.21361 0.12716,-0.19593 1.2168,-0.44392 2.42145,-0.55109 1.20465,-0.10717 2.53496,-0.40888 2.95627,-0.67047 1.01329,-0.62911 2.77054,-1.07617 4.0473,-1.02965 0.56719,0.0207 1.03125,-0.0822 1.03125,-0.22855 0,-0.14637 1.72969,-0.26118 3.84375,-0.25513 2.64795,0.008 3.96042,-0.13558 4.21875,-0.46015 0.2784,-0.34979 0.70669,-0.37559 1.66268,-0.10017 0.70819,0.20405 1.35896,0.29966 1.44615,0.21248 0.0872,-0.0872 0.5109,0.16979 0.94155,0.57103 0.47186,0.43959 1.0593,0.64185 1.4781,0.50893 0.7662,-0.24318 1.89562,0.48245 1.57027,1.00887 -0.11302,0.18288 0.18413,0.34542 0.66038,0.3612 1.42624,0.0473 2.18276,0.25806 2.81584,0.78461 0.33007,0.27456 1.41592,0.92107 2.41301,1.4367 1.92664,0.99631 8.94952,7.58937 8.94952,8.40175 0,0.2651 0.3375,0.78744 0.75,1.16075 0.4125,0.3733 0.75,0.89276 0.75,1.15434 0,0.26159 0.42188,0.97698 0.9375,1.58977 0.51563,0.61278 0.9375,1.43573 0.9375,1.82877 0,0.39304 0.16005,0.87493 0.35565,1.07087 0.19564,0.19593 0.65918,1.36875 1.03013,2.60625 1.34299,4.48036 0.45195,13.81108 -1.79914,18.83966 -0.39139,0.87431 -0.71164,1.8383 -0.71164,2.14218 0,0.99475 -1.59641,4.86733 -2.49551,6.05355 -0.48371,0.63822 -0.87949,1.29307 -0.87949,1.45522 0,0.16215 -0.59062,1.11692 -1.3125,2.12172 -0.72187,1.00479 -1.3125,2.0574 -1.3125,2.33912 0,0.58376 -4.42908,6.73126 -6.61053,9.1753 -2.75029,3.08137 -9.14719,9.43577 -9.4989,9.43577 -0.19384,0 -0.80288,0.5906 -1.35349,1.3125 -0.55061,0.7218 -1.28813,1.3125 -1.63898,1.3125 -0.35081,0 -0.97736,0.3797 -1.3923,0.8437 -1.30425,1.4586 -5.88285,5.0052 -7.6308,5.9109 -0.72187,0.374 -1.66541,1.0139 -2.09677,1.4219 -0.43133,0.408 -1.5282,1.1441 -2.4375,1.6358 -0.90926,0.4917 -2.24385,1.4471 -2.96573,2.1232 -0.72187,0.676 -1.82032,1.4733 -2.44098,1.7717 -0.62067,0.2984 -1.3503,0.8978 -1.62143,1.3319 -0.31507,0.5045 -0.33686,0.6929 -0.0603,0.522 0.24529,-0.1516 0.68329,0.09 1.01141,0.5588 0.64212,0.9168 1.77184,0.8976 4.32304,-0.073 1.68034,-0.6395 2.35294,-1.2421 1.03515,-0.9274 -0.51735,0.1236 -1.19235,0.065 -1.5,-0.129 -0.30765,-0.1945 -0.47501,-0.3643 -0.37189,-0.3773 2.07375,-0.262 4.13427,-0.3062 3.99788,-0.086 -0.23273,0.3761 2.14886,0.2636 6.31462,-0.2984 1.85625,-0.2504 4.3875,-0.4923 5.625,-0.5376 2.98474,-0.1091 4.6875,-0.5409 4.6875,-1.1886 0,-0.4282 0.15653,-0.4451 0.8229,-0.088 0.5784,0.3095 1.94322,0.3586 4.59375,0.1652 2.07398,-0.1514 4.84819,-0.2473 6.16493,-0.2132 2.06884,0.054 2.36235,-0.021 2.16052,-0.5464 -0.12843,-0.3347 -0.0872,-0.5182 0.0917,-0.4076 0.17884,0.1105 0.8598,-0.066 1.51328,-0.3918 1.4328,-0.7147 3.0279,-0.4141 3.2988,0.6218 0.10916,0.4176 0.51281,0.733 0.93803,0.733 0.50939,0 0.67785,-0.1786 0.53055,-0.5625 -0.44772,-1.1667 1.44168,-0.4123 3.75686,1.5 0.24971,0.2062 1.09905,0.8405 1.88745,1.4094 2.17616,1.5704 4.11472,5.9779 3.80313,8.6468 -0.0853,0.7307 -0.0217,1.2462 0.14153,1.1453 0.65891,-0.4072 0.23693,2.081 -0.64759,3.8186 -1.27173,2.4982 -1.91538,3.1935 -4.11828,4.4492 -2.23883,1.2761 -4.96324,1.6667 -13.3125,1.9088 -16.56882,0.4803 -20.59602,0.7564 -24.5625,1.6838 -4.28228,1.0013 -9.03683,1.8756 -10.19974,1.8756 -0.54836,0 -1.51527,0.1558 -2.14864,0.3463 -0.63341,0.1904 -2.2485,0.5948 -3.58912,0.8985 -1.34063,0.3038 -3.41607,0.823 -4.61205,1.1538 -1.19599,0.3307 -2.54599,0.6035 -3,0.6061 -0.45402,0 -1.81954,0.5089 -3.03454,1.125 -1.215,0.6162 -2.58915,1.1203 -3.05363,1.1203 -0.46451,0 -0.94166,0.2531 -1.06038,0.5625 -0.23865,0.6218 -1.73941,0.7836 -1.73941,0.1875 0,-0.5737 -1.00031,-0.4462 -1.65783,0.2114 -0.32254,0.3225 -0.74449,0.4887 -0.93765,0.3693 -0.45064,-0.2785 -3.65666,0.4745 -4.99827,1.174 -0.56718,0.2957 -1.03125,0.4244 -1.03125,0.2858 0,-0.1385 -0.45539,0.047 -1.01201,0.4113 -1.03743,0.6798 -2.60096,0.844 -10.69552,1.1239 -2.30547,0.08 -4.11424,-0.013 -4.24088,-0.2184 z m -92.42659,-2.9381 c 0,-0.2062 0.16875,-0.4793 0.375,-0.6068 0.20625,-0.1274 0.375,-0.063 0.375,0.1433 0,0.2062 -0.16875,0.4793 -0.375,0.6067 -0.20625,0.1275 -0.375,0.063 -0.375,-0.1432 z m -65.625,-22.9193 c -0.33799,-0.2184 -0.38423,-0.3658 -0.11588,-0.3692 0.24563,0 0.55092,0.163 0.67838,0.3692 0.28774,0.4656 0.15791,0.4656 -0.5625,0 z m -438.48237,-3.2453 c -0.11062,-0.179 0.037,-0.6511 0.32812,-1.0492 0.37385,-0.5113 0.52756,-0.5651 0.52351,-0.1834 -0.008,0.7559 -0.60884,1.6254 -0.85163,1.2326 z m 604.70307,-3.1742 c 0.56824,-0.424 0.93795,-0.9249 0.82159,-1.1131 -0.11637,-0.1883 0.17171,-0.3424 0.64016,-0.3424 0.78503,0 0.75004,0.087 -0.44662,1.1098 -0.71408,0.6104 -1.46708,1.1113 -1.67333,1.1131 -0.20625,0 0.0899,-0.3435 0.6582,-0.7674 z m 55.68555,-2.4538 c 0.25781,-0.104 0.67969,-0.104 0.9375,0 0.25781,0.104 0.0469,0.1891 -0.46875,0.1891 -0.51563,0 -0.72656,-0.085 -0.46875,-0.1891 z m -48.12938,-1.9485 c 0.76429,-0.8593 0.97313,-0.9705 0.97313,-0.5184 0,0.1567 -0.37969,0.5181 -0.84375,0.8032 -0.84075,0.5164 -0.8412,0.5154 -0.12938,-0.2848 z m 11.09813,-7.7628 c 0,-0.3215 0.16875,-0.4803 0.375,-0.3529 0.20625,0.1275 0.375,0.3906 0.375,0.5847 0,0.1941 -0.16875,0.3528 -0.375,0.3528 -0.20625,0 -0.375,-0.263 -0.375,-0.5846 z m 10.3125,-6.9154 c 0.12746,-0.2062 0.30619,-0.375 0.39712,-0.375 0.091,0 0.16538,0.1688 0.16538,0.375 0,0.2063 -0.17873,0.375 -0.39713,0.375 -0.21843,0 -0.29283,-0.1687 -0.16537,-0.375 z m -100.6875,-4.5221 c 0,-0.2184 0.16875,-0.2928 0.375,-0.1654 0.20625,0.1275 0.375,0.3062 0.375,0.3972 0,0.091 -0.16875,0.1653 -0.375,0.1653 -0.20625,0 -0.375,-0.1787 -0.375,-0.3971 z m 120.375,-11.22785 c 0,-0.20625 0.17872,-0.375 0.39712,-0.375 0.21844,0 0.29284,0.16875 0.16538,0.375 -0.12746,0.20625 -0.30619,0.375 -0.39713,0.375 -0.091,0 -0.16537,-0.16875 -0.16537,-0.375 z m -255.7089,-39.13797 c -0.30364,-0.36587 -0.3897,-3.85667 -0.30004,-12.17226 l 0.1257,-11.65927 -3.21465,0.0577 c -4.72316,0.0848 -4.78522,0.045 -4.98971,-3.19399 -0.12701,-2.01237 -0.0206,-2.97123 0.41422,-3.73794 l 0.58508,-1.03125 10.1379,-0.0432 c 11.76386,-0.0501 11.43386,-0.0693 12.31399,0.71661 0.58151,0.51928 0.6501,1.04465 0.49035,3.75606 -0.10219,1.73378 -0.29569,3.26048 -0.43009,3.39267 -0.13436,0.13219 -1.91595,0.19647 -3.95906,0.14285 l -3.71479,-0.0975 -0.0494,2.72249 c -0.0274,1.49737 -0.0952,6.43499 -0.15106,10.97249 -0.0559,4.5375 -0.27303,8.68893 -0.48255,9.2254 -0.3237,0.82878 -0.68145,1.01149 -2.3802,1.21549 -2.98233,0.35814 -3.92478,0.30103 -4.39567,-0.26636 z m 17.66786,0.0442 c -0.24829,-0.304 -0.36288,-5.67487 -0.32606,-15.28125 0.0543,-14.16024 0.0897,-14.8582 0.80569,-15.8504 0.59748,-0.82804 0.93847,-0.98821 1.68641,-0.79216 0.51562,0.13516 2.11875,0.26471 3.5625,0.2879 3.00015,0.0482 3.5625,0.29163 3.5625,1.54216 0,0.49128 0.16875,0.99753 0.375,1.125 0.20625,0.12747 0.375,0.62562 0.375,1.10701 0,0.48139 0.22924,0.96322 0.50944,1.07074 0.2802,0.10751 0.615,0.85568 0.74403,1.66259 0.12904,0.80691 0.72331,2.55105 1.32057,3.87588 0.5973,1.32483 1.20401,2.95722 1.34827,3.62753 0.31058,1.44322 0.95269,1.62516 0.95269,0.26995 0,-0.52184 0.42187,-1.95113 0.9375,-3.1762 0.51562,-1.22507 0.9375,-2.47759 0.9375,-2.78338 0,-0.3058 0.675,-1.83765 1.5,-3.40412 0.825,-1.56647 1.5,-3.07258 1.5,-3.3469 0,-1.06124 1.23229,-1.52118 4.24421,-1.5841 1.65679,-0.0346 3.40459,0.0862 3.88406,0.2685 l 0.87173,0.33144 -0.006,15.10303 c -0.004,8.30666 -0.15727,15.34243 -0.34248,15.63503 -0.23153,0.36579 -1.23045,0.5657 -3.19729,0.63984 -2.68965,0.1014 -2.88019,0.0562 -3.18945,-0.75731 -0.1809,-0.47583 -0.30049,-4.08048 -0.26573,-8.01034 0.0349,-3.92985 -0.0608,-6.95034 -0.21232,-6.71219 -0.15154,0.23815 -0.2781,0.84378 -0.28125,1.34585 -0.005,0.80377 -0.85369,3.02021 -1.91355,4.99786 -0.19477,0.36339 -0.61305,1.46027 -0.92955,2.4375 -0.31646,0.97723 -0.7281,2.11429 -0.9147,2.52679 -0.18664,0.4125 -0.5889,1.3768 -0.89392,2.1429 -0.54421,1.36681 -0.69743,1.45824 -3.28366,1.95935 -0.70721,0.13703 -1.18818,-0.69199 -1.9449,-3.35225 -0.29332,-1.03125 -1.04835,-2.97187 -1.67782,-4.3125 -0.62944,-1.34062 -1.2579,-3.06148 -1.39658,-3.82411 -0.13871,-0.76264 -0.4491,-1.65596 -0.68981,-1.98516 -0.33836,-0.46274 -0.41134,0.83032 -0.32152,5.69912 0.0649,3.51875 -0.0391,6.52815 -0.2358,6.82001 -0.65397,0.97057 -6.40958,1.5355 -7.09497,0.69639 z m 283.03294,-4.51515 c -0.48131,-0.3826 -0.56467,-1.71563 -0.53246,-8.5161 0.021,-4.43438 0.0712,-8.31562 0.11156,-8.625 0.15806,-1.21123 -0.44295,-6.03111 -0.77786,-6.23809 -0.19512,-0.12058 -1.8831,-0.28044 -3.75109,-0.35523 -1.86799,-0.0748 -3.45263,-0.19227 -3.52144,-0.26107 -0.19069,-0.1907 -0.29201,-6.75451 -0.11415,-7.39561 0.23355,-0.84189 1.02116,-1.06957 3.80052,-1.09864 2.17158,-0.0227 2.48737,0.0573 2.28701,0.57941 -0.1815,0.47304 -0.0665,0.55312 0.52477,0.36545 0.41648,-0.13219 1.37723,-0.26364 2.13503,-0.29213 0.7578,-0.0285 1.46501,-0.19294 1.57162,-0.36544 0.27551,-0.44578 2.77459,-0.39052 2.77459,0.0613 0,0.20625 0.29531,0.37242 0.65625,0.36926 0.47678,-0.004 0.52601,-0.0884 0.18007,-0.30797 -0.26325,-0.16708 1.13078,-0.32886 3.11753,-0.3618 1.97651,-0.0328 3.73455,-0.14667 3.90679,-0.25311 0.1722,-0.10643 0.8118,0.27234 1.42132,0.84172 1.0119,0.94523 1.11416,1.26996 1.17638,3.73533 0.0965,3.82442 -0.35933,4.22657 -4.79059,4.22657 l -3.33225,0 0.1608,11.48399 c 0.1896,13.5404 0.41753,12.75533 -3.72173,12.819 -1.61853,0.0249 -2.94213,-0.14118 -3.28267,-0.41189 z m 17.53241,-0.15093 c -0.48566,-0.12657 -0.65992,-0.54156 -0.65092,-1.55025 0.007,-0.75758 -0.0539,-3.57117 -0.13478,-6.25242 -0.1626,-5.39182 -0.36304,-20.90015 -0.28695,-22.20357 0.0266,-0.45572 0.51068,-1.25728 1.07576,-1.78125 0.85377,-0.79165 1.3767,-0.94768 3.09375,-0.92307 1.13648,0.0163 1.85539,0.11472 1.59758,0.21875 -0.65295,0.26346 -0.58736,0.87664 0.0937,0.87664 0.30937,0 0.5625,-0.16875 0.5625,-0.375 0,-0.20625 0.3081,-0.375 0.68464,-0.375 0.80478,0 2.31536,1.49311 2.31536,2.28863 0,0.30403 0.35291,1.22128 0.78427,2.03833 0.43137,0.81705 0.82021,1.73866 0.86408,2.04804 0.17351,1.22385 1.86878,6.23065 2.34544,6.92719 0.2784,0.40683 0.51363,1.08183 0.52267,1.5 0.0101,0.46781 0.20907,0.22062 0.51713,-0.64253 0.2754,-0.77157 0.79924,-1.85856 1.16424,-2.41554 0.3649,-0.55699 0.7943,-1.52883 0.954,-2.15966 0.1598,-0.63083 0.8975,-2.71851 1.6394,-4.63929 0.7419,-1.92078 1.2341,-3.69266 1.0937,-3.9375 -0.1403,-0.24484 -0.1211,-0.32414 0.043,-0.1762 0.1638,0.14793 0.7025,-0.0494 1.1972,-0.43849 1.1285,-0.88767 4.9804,-0.9914 6.5561,-0.17656 0.829,0.4287 1.0745,0.82436 1.0931,1.76196 0.013,0.66502 0.087,5.76537 0.1646,11.33412 0.077,5.56875 0.199,11.69299 0.2705,13.60942 0.1588,4.25825 -0.1668,4.76888 -3.289,5.15897 -3.1272,0.39072 -3.7621,-0.0324 -4.0596,-2.7054 -0.134,-1.20339 -0.2298,-3.87549 -0.2129,-5.93799 0.017,-2.0625 -0.1394,-4.17188 -0.3472,-4.6875 -0.3315,-0.82248 -0.3862,-0.84548 -0.4461,-0.1875 -0.037,0.4125 -0.045,0.88582 -0.017,1.05182 0.028,0.166 -0.2004,0.66108 -0.508,1.10019 -0.3075,0.4391 -0.4661,1.16929 -0.3523,1.62265 0.1145,0.45636 -0.1411,1.58811 -0.5726,2.53549 -0.4288,0.94116 -0.7796,2.0373 -0.7796,2.43586 0,0.39856 -0.2531,0.93473 -0.5625,1.19149 -0.3094,0.25676 -0.5625,0.71543 -0.5625,1.01928 0,0.30384 -0.349,1.04256 -0.7755,1.64158 -1.21338,1.70402 -3.67608,1.35384 -4.20817,-0.59836 -0.11242,-0.4125 -0.66146,-1.93125 -1.22006,-3.375 -0.5586,-1.44375 -1.29529,-3.59485 -1.63706,-4.78023 -0.34182,-1.18538 -0.8964,-2.43017 -1.2324,-2.7662 -0.56464,-0.56462 -0.6015,-0.509 -0.48604,0.73318 0.0687,0.73928 0.24383,3.4317 0.38921,5.98316 l 0.26426,4.63902 -1.03518,0.81429 c -0.80498,0.63317 -1.50353,0.8046 -3.14089,0.77078 -1.15811,-0.0239 -2.40409,-0.12128 -2.76885,-0.21633 z m -245.89931,-0.63755 c 0,-0.0811 0.2619,-0.24787 0.58196,-0.37071 0.33375,-0.12805 0.48428,-0.0652 0.35288,0.14738 -0.2202,0.35633 -0.93484,0.52705 -0.93484,0.22333 z m 178.125,-11.10262 c 0,-0.20625 0.17872,-0.375 0.39712,-0.375 0.21844,0 0.29284,0.16875 0.16538,0.375 -0.12746,0.20625 -0.30619,0.375 -0.39713,0.375 -0.091,0 -0.16537,-0.16875 -0.16537,-0.375 z m -42.9375,-10.5 c 0.12746,-0.20625 0.30619,-0.375 0.39712,-0.375 0.091,0 0.16538,0.16875 0.16538,0.375 0,0.20625 -0.17873,0.375 -0.39713,0.375 -0.21843,0 -0.29283,-0.16875 -0.16537,-0.375 z m 129.37503,-10.125 c 0.1274,-0.20625 0.3062,-0.375 0.3971,-0.375 0.091,0 0.1654,0.16875 0.1654,0.375 0,0.20625 -0.1788,0.375 -0.3972,0.375 -0.2184,0 -0.2928,-0.16875 -0.1653,-0.375 z"
       id="path5051"
       inkscape:connector-curvature="0" />
  </g>
</svg>
