<?xml version="1.0" encoding="UTF-8" standalone="no"?>
<svg
   xmlns:dc="http://purl.org/dc/elements/1.1/"
   xmlns:cc="http://creativecommons.org/ns#"
   xmlns:rdf="http://www.w3.org/1999/02/22-rdf-syntax-ns#"
   xmlns:svg="http://www.w3.org/2000/svg"
   xmlns="http://www.w3.org/2000/svg"
   xmlns:sodipodi="http://sodipodi.sourceforge.net/DTD/sodipodi-0.dtd"
   xmlns:inkscape="http://www.inkscape.org/namespaces/inkscape"
   width="146.65013"
   height="239.46555"
   preserveAspectRatio="none"
   viewBox="-898 1918 788.00004 1332"
   id="svg2"
   version="1.1"
   inkscape:version="0.91 r13725"
   sodipodi:docname="E1M1_slimetrail_split2.svg">
  <metadata
     id="metadata4445">
    <rdf:RDF>
      <cc:Work
         rdf:about="">
        <dc:format>image/svg+xml</dc:format>
        <dc:type
           rdf:resource="http://purl.org/dc/dcmitype/StillImage" />
        <dc:title />
      </cc:Work>
    </rdf:RDF>
  </metadata>
  <sodipodi:namedview
     pagecolor="#ffffff"
     bordercolor="#666666"
     borderopacity="1"
     objecttolerance="10"
     gridtolerance="10"
     guidetolerance="10"
     inkscape:pageopacity="0"
     inkscape:pageshadow="2"
     inkscape:window-width="1208"
     inkscape:window-height="974"
     id="namedview4443"
     showgrid="false"
     inkscape:zoom="31.999998"
     inkscape:cx="133.28632"
     inkscape:cy="80.295089"
     inkscape:window-x="13"
     inkscape:window-y="12"
     inkscape:window-maximized="0"
     inkscape:current-layer="svg2"
     fit-margin-top="0"
     fit-margin-left="0"
     fit-margin-right="0"
     fit-margin-bottom="0" />
  <defs
     id="defs4">
    <marker
       id="arrow"
       markerWidth="10"
       markerHeight="10"
       refX="0"
       refY="2"
       orient="auto"
       markerUnits="strokeWidth">
      <path
         d="M 0,0 0,4 5,3 Z"
         id="path7"
         inkscape:connector-curvature="0"
         style="fill:#ff0000" />
    </marker>
    <linearGradient
       id="black-linearh">
      <stop
         offset="0%"
         stop-color="rgb(0,0,0)"
         stop-opacity="90"
         id="stop10" />
      <stop
         offset="90%"
         stop-color="rgb(0,0,0)"
         stop-opacity="50"
         id="stop12" />
      <stop
         offset="100%"
         stop-color="rgb(0,0,0)"
         stop-opacity="0"
         id="stop14" />
    </linearGradient>
    <linearGradient
       id="black-linearv"
       x1="0"
       x2="0"
       y1="0"
       y2="1">
      <stop
         offset="0%"
         stop-color="rgb(0,0,0)"
         stop-opacity="90"
         id="stop17" />
      <stop
         offset="50%"
         stop-color="rgb(0,0,0)"
         stop-opacity="90"
         id="stop19" />
      <stop
         offset="100%"
         stop-color="rgb(0,0,0)"
         stop-opacity="0"
         id="stop21" />
    </linearGradient>
    <linearGradient
       id="red-linearh">
      <stop
         offset="0%"
         stop-color="rgb(206, 17, 74)"
         stop-opacity="100"
         id="stop24" />
      <stop
         offset="90%"
         stop-color="rgb(206, 17, 74)"
         stop-opacity="90"
         id="stop26" />
      <stop
         offset="100%"
         stop-color="rgb(206,17,74)"
         stop-opacity="0"
         id="stop28" />
    </linearGradient>
    <linearGradient
       id="red-linearv"
       x1="0"
       x2="0"
       y1="0"
       y2="1">
      <stop
         offset="0%"
         stop-color="rgb(206, 17, 74)"
         stop-opacity="100"
         id="stop31" />
      <stop
         offset="90%"
         stop-color="rgb(206, 17, 74)"
         stop-opacity="90"
         id="stop33" />
      <stop
         offset="100%"
         stop-color="rgb(206,17,74)"
         stop-opacity="0"
         id="stop35" />
    </linearGradient>
  </defs>
  <path
     style="fill:#9e7854;fill-opacity:1;fill-rule:evenodd;stroke:none;stroke-width:5.46704292px;stroke-linecap:butt;stroke-linejoin:miter;stroke-opacity:1"
     d="m -700.68077,2802.8807 127.47961,114.937 2.0561,351.1967 -127.47961,2.1284 0,-351.1966 -193.27551,-65.9824 z"
     id="path8764"
     inkscape:connector-curvature="0" />
  <path
     style="fill:#b2db7e;fill-opacity:1;fill-rule:evenodd;stroke:none;stroke-width:5.46704292px;stroke-linecap:butt;stroke-linejoin:miter;stroke-opacity:1"
     d="m -530.02256,2632.6035 -302.25002,-129.8364 170.65811,-159.6347 -230.28571,-23.4132 0,536.3731 197.38781,-51.0832 z"
     id="path8770"
     inkscape:connector-curvature="0" />
  <path
     style="fill:#b2db7e;fill-opacity:1;fill-rule:evenodd;stroke:none;stroke-width:5.46704292px;stroke-linecap:butt;stroke-linejoin:miter;stroke-opacity:1"
     d="m -505.34905,2343.1324 160.37751,-34.0555 98.6939,114.9371 76.07651,276.7004 -65.79593,0 -94.58158,65.9823 39.06629,65.9825 -92.5255,55.34 -158.32151,-68.1108 178.88271,-229.8742 -300.19391,-123.4509 z"
     id="path8768"
     inkscape:connector-curvature="0" />
  <path
     style="fill:#92aac9;fill-opacity:1;fill-rule:evenodd;stroke:none;stroke-width:5.46704292px;stroke-linecap:butt;stroke-linejoin:miter;stroke-opacity:1"
     d="m -124.96641,3177.4904 -189.16333,63.8539 -127.47961,0 -2.0561,-229.8741 127.47961,2.1284 32.89802,-89.3955 -10.28075,-63.8539 0,-23.4131 -37.01007,-70.2394 94.58158,-68.1108 65.79593,2.1285 -22.61743,100.0378 24.67354,-10.6423 43.17861,65.9824 2.0561,255.4157 c -1.55724,39.2485 0,0 -2.0561,65.9824 z"
     id="path8766"
     inkscape:connector-curvature="0"
     sodipodi:nodetypes="cccccccccccccccc" />
  <path
     style="fill:#c5996f;fill-opacity:1;fill-rule:evenodd;stroke:none;stroke-width:5.46704292px;stroke-linecap:butt;stroke-linejoin:miter;stroke-opacity:1"
     d="m -593.76236,2151.5705 0,65.9824 254.95919,93.6525 -162.43368,31.927 -156.26531,127.7078 294.02551,121.3225 -172.71431,229.8741 154.20921,63.854 -187.10721,36.1839 -129.53571,-114.9371 166.54601,-176.6626 -294.02552,-125.5793 160.37752,-163.8918 -224.11742,-25.5416 z"
     id="path8762"
     inkscape:connector-curvature="0" />
  <path
     style="fill:#9e7854;fill-opacity:1;fill-rule:evenodd;stroke:none;stroke-width:5.46704292px;stroke-linecap:butt;stroke-linejoin:miter;stroke-opacity:1"
     d="m -893.95628,2317.5908 304.30612,-168.1487 -94.58161,-227.7457 -14.3929,0 -187.10711,131.9648 0,19.1562 123.36731,76.6247 0,34.0554 -125.42341,-2.1285 z"
     id="path8760"
     inkscape:connector-curvature="0" />
  <circle
     cx="-888"
     cy="2632"
     r="10"
     id="circle2433" />
  <circle
     cx="-888"
     cy="2384"
     r="10"
     id="circle2441" />
  <line
     x1="-888"
     y1="2384"
     x2="-888"
     y2="2632"
     id="line2443"
     style="stroke:#000000;stroke-width:7" />
  <circle
     cx="-888"
     cy="2384"
     r="10"
     id="circle2445" />
  <circle
     cx="-888"
     cy="2632"
     r="10"
     id="circle2447" />
  <circle
     cx="-888"
     cy="2056"
     r="10"
     id="circle2763" />
  <line
     x1="-888"
     y1="2856"
     x2="-888"
     y2="2632"
     id="line2845"
     style="stroke:#000000;stroke-width:7" />
  <circle
     cx="-888"
     cy="2856"
     r="10"
     id="circle2847" />
  <circle
     cx="-888"
     cy="2632"
     r="10"
     id="circle2849" />
  <line
     x1="-888"
     y1="2632"
     x2="-696"
     y2="2808"
     id="line2851"
     style="stroke:#000000;stroke-width:7" />
  <circle
     cx="-888"
     cy="2632"
     r="10"
     id="circle2853" />
  <circle
     cx="-696"
     cy="2808"
     r="10"
     id="circle2855" />
  <line
     x1="-696"
     y1="2808"
     x2="-888"
     y2="2856"
     id="line2857"
     style="stroke:#000000;stroke-width:7" />
  <circle
     cx="-696"
     cy="2808"
     r="10"
     id="circle2859" />
  <circle
     cx="-888"
     cy="2856"
     r="10"
     id="circle2861" />
  <line
     x1="-696"
     y1="2920"
     x2="-888"
     y2="2856"
     id="line2863"
     style="stroke:#000000;stroke-width:7" />
  <circle
     cx="-696"
     cy="2920"
     r="10"
     id="circle2865" />
  <circle
     cx="-888"
     cy="2856"
     r="10"
     id="circle2867" />
  <line
     x1="-888"
     y1="2856"
     x2="-696"
     y2="2808"
     id="line2869"
     style="stroke:#000000;stroke-width:7" />
  <circle
     cx="-888"
     cy="2856"
     r="10"
     id="circle2871" />
  <circle
     cx="-696"
     cy="2808"
     r="10"
     id="circle2873" />
  <line
     x1="-696"
     y1="2941"
     x2="-696"
     y2="2920"
     id="line2875"
     style="stroke:#000000;stroke-width:7" />
  <circle
     cx="-696"
     cy="2941"
     r="10"
     id="circle2877" />
  <circle
     cx="-696"
     cy="2920"
     r="10"
     id="circle2879" />
  <line
     x1="-696"
     y1="2808"
     x2="-568"
     y2="2920"
     id="line2881"
     style="stroke:#000000;stroke-width:7" />
  <circle
     cx="-696"
     cy="2808"
     r="10"
     id="circle2883" />
  <circle
     cx="-568"
     cy="2920"
     r="10"
     id="circle2885" />
  <line
     x1="-536"
     y1="2824"
     x2="-398"
     y2="2642"
     id="line2887"
     style="stroke:#000000;stroke-width:7" />
  <circle
     cx="-536"
     cy="2824"
     r="10"
     id="circle2889" />
  <circle
     cx="-398"
     cy="2642"
     r="10"
     id="circle2891" />
  <line
     x1="-376"
     y1="2888"
     x2="-536"
     y2="2824"
     id="line2893"
     style="stroke:#000000;stroke-width:7" />
  <circle
     cx="-376"
     cy="2888"
     r="10"
     id="circle2895" />
  <circle
     cx="-536"
     cy="2824"
     r="10"
     id="circle2897" />
  <line
     x1="-288"
     y1="2840"
     x2="-376"
     y2="2888"
     id="line2899"
     style="stroke:#000000;stroke-width:7" />
  <circle
     cx="-288"
     cy="2840"
     r="10"
     id="circle2901" />
  <circle
     cx="-376"
     cy="2888"
     r="10"
     id="circle2903" />
  <line
     x1="-328"
     y1="2768"
     x2="-288"
     y2="2840"
     id="line2905"
     style="stroke:#000000;stroke-width:7" />
  <circle
     cx="-328"
     cy="2768"
     r="10"
     id="circle2907" />
  <circle
     cx="-288"
     cy="2840"
     r="10"
     id="circle2909" />
  <line
     x1="-288"
     y1="2864"
     x2="-288"
     y2="2840"
     id="line2911"
     style="stroke:#000000;stroke-width:7" />
  <circle
     cx="-288"
     cy="2864"
     r="10"
     id="circle2913" />
  <circle
     cx="-288"
     cy="2840"
     r="10"
     id="circle2915" />
  <line
     x1="-287"
     y1="2873"
     x2="-288"
     y2="2864"
     id="line2917"
     style="stroke:#000000;stroke-width:7" />
  <circle
     cx="-287"
     cy="2873"
     r="10"
     id="circle2919" />
  <circle
     cx="-288"
     cy="2864"
     r="10"
     id="circle2921" />
  <line
     x1="-398"
     y1="2642"
     x2="-360"
     y2="2592"
     id="line2923"
     style="stroke:#000000;stroke-width:7" />
  <circle
     cx="-398"
     cy="2642"
     r="10"
     id="circle2925" />
  <circle
     cx="-360"
     cy="2592"
     r="10"
     id="circle2927" />
  <line
     x1="-232"
     y1="2704"
     x2="-328"
     y2="2768"
     id="line2929"
     style="stroke:#000000;stroke-width:7" />
  <circle
     cx="-232"
     cy="2704"
     r="10"
     id="circle2931" />
  <circle
     cx="-328"
     cy="2768"
     r="10"
     id="circle2933" />
  <line
     x1="-328"
     y1="2768"
     x2="-232"
     y2="2704"
     id="line2935"
     style="stroke:#000000;stroke-width:7" />
  <circle
     cx="-328"
     cy="2768"
     r="10"
     id="circle2937" />
  <circle
     cx="-232"
     cy="2704"
     r="10"
     id="circle2939" />
  <line
     x1="-288"
     y1="2840"
     x2="-328"
     y2="2768"
     id="line2941"
     style="stroke:#000000;stroke-width:7" />
  <circle
     cx="-288"
     cy="2840"
     r="10"
     id="circle2943" />
  <circle
     cx="-328"
     cy="2768"
     r="10"
     id="circle2945" />
  <line
     x1="-186"
     y1="2768"
     x2="-192"
     y2="2792"
     id="line2947"
     style="stroke:#000000;stroke-width:7" />
  <circle
     cx="-186"
     cy="2768"
     r="10"
     id="circle2949" />
  <circle
     cx="-192"
     cy="2792"
     r="10"
     id="circle2951" />
  <line
     x1="-192"
     y1="2792"
     x2="-288"
     y2="2840"
     id="line2953"
     style="stroke:#000000;stroke-width:7" />
  <circle
     cx="-192"
     cy="2792"
     r="10"
     id="circle2955" />
  <circle
     cx="-288"
     cy="2840"
     r="10"
     id="circle2957" />
  <line
     x1="-288"
     y1="2840"
     x2="-192"
     y2="2792"
     id="line2959"
     style="stroke:#000000;stroke-width:7" />
  <circle
     cx="-288"
     cy="2840"
     r="10"
     id="circle2961" />
  <circle
     cx="-192"
     cy="2792"
     r="10"
     id="circle2963" />
  <line
     x1="-192"
     y1="2792"
     x2="-168"
     y2="2792"
     id="line2965"
     style="stroke:#000000;stroke-width:7" />
  <circle
     cx="-192"
     cy="2792"
     r="10"
     id="circle2967" />
  <circle
     cx="-168"
     cy="2792"
     r="10"
     id="circle2969" />
  <circle
     cx="-168"
     cy="2792"
     r="10"
     id="circle2973" />
  <circle
     cx="-128"
     cy="2846"
     r="10"
     id="circle2975" />
  <line
     x1="-376"
     y1="2888"
     x2="-568"
     y2="2920"
     id="line2977"
     style="stroke:#000000;stroke-width:7" />
  <circle
     cx="-376"
     cy="2888"
     r="10"
     id="circle2979" />
  <circle
     cx="-568"
     cy="2920"
     r="10"
     id="circle2981" />
  <line
     x1="-568"
     y1="2920"
     x2="-593"
     y2="2898"
     id="line2983"
     style="stroke:#000000;stroke-width:7" />
  <circle
     cx="-568"
     cy="2920"
     r="10"
     id="circle2985" />
  <circle
     cx="-593"
     cy="2898"
     r="10"
     id="circle2987" />
  <line
     x1="-536"
     y1="2824"
     x2="-376"
     y2="2888"
     id="line2989"
     style="stroke:#000000;stroke-width:7" />
  <circle
     cx="-536"
     cy="2824"
     r="10"
     id="circle2991" />
  <circle
     cx="-376"
     cy="2888"
     r="10"
     id="circle2993" />
  <line
     x1="-664"
     y1="2344"
     x2="-824"
     y2="2504"
     id="line2995"
     style="stroke:#000000;stroke-width:7" />
  <circle
     cx="-664"
     cy="2344"
     r="10"
     id="circle2997" />
  <circle
     cx="-824"
     cy="2504"
     r="10"
     id="circle2999" />
  <line
     x1="-888"
     y1="2320"
     x2="-664"
     y2="2344"
     id="line3001"
     style="stroke:#000000;stroke-width:7" />
  <circle
     cx="-888"
     cy="2320"
     r="10"
     id="circle3003" />
  <circle
     cx="-664"
     cy="2344"
     r="10"
     id="circle3005" />
  <line
     x1="-888"
     y1="2568"
     x2="-888"
     y2="2384"
     id="line3007"
     style="stroke:#000000;stroke-width:7" />
  <circle
     cx="-888"
     cy="2568"
     r="10"
     id="circle3009" />
  <circle
     cx="-888"
     cy="2384"
     r="10"
     id="circle3011" />
  <line
     x1="-888"
     y1="2384"
     x2="-888"
     y2="2320"
     id="line3013"
     style="stroke:#000000;stroke-width:7" />
  <circle
     cx="-888"
     cy="2384"
     r="10"
     id="circle3015" />
  <circle
     cx="-888"
     cy="2320"
     r="10"
     id="circle3017" />
  <line
     x1="-888"
     y1="2320"
     x2="-632"
     y2="2174"
     id="line3019"
     style="stroke:#000000;stroke-width:7" />
  <circle
     cx="-888"
     cy="2320"
     r="10"
     id="circle3021" />
  <circle
     cx="-632"
     cy="2174"
     r="10"
     id="circle3023" />
  <line
     x1="-664"
     y1="2344"
     x2="-888"
     y2="2320"
     id="line3025"
     style="stroke:#000000;stroke-width:7" />
  <circle
     cx="-664"
     cy="2344"
     r="10"
     id="circle3027" />
  <circle
     cx="-888"
     cy="2320"
     r="10"
     id="circle3029" />
  <line
     x1="-528"
     y1="2632"
     x2="-696"
     y2="2808"
     id="line3031"
     style="stroke:#000000;stroke-width:7" />
  <circle
     cx="-528"
     cy="2632"
     r="10"
     id="circle3033" />
  <circle
     cx="-696"
     cy="2808"
     r="10"
     id="circle3035" />
  <line
     x1="-824"
     y1="2504"
     x2="-528"
     y2="2632"
     id="line3037"
     style="stroke:#000000;stroke-width:7" />
  <circle
     cx="-824"
     cy="2504"
     r="10"
     id="circle3039" />
  <circle
     cx="-528"
     cy="2632"
     r="10"
     id="circle3041" />
  <line
     x1="-696"
     y1="2808"
     x2="-888"
     y2="2632"
     id="line3043"
     style="stroke:#000000;stroke-width:7" />
  <circle
     cx="-696"
     cy="2808"
     r="10"
     id="circle3045" />
  <circle
     cx="-888"
     cy="2632"
     r="10"
     id="circle3047" />
  <line
     x1="-888"
     y1="2632"
     x2="-888"
     y2="2568"
     id="line3049"
     style="stroke:#000000;stroke-width:7" />
  <circle
     cx="-888"
     cy="2632"
     r="10"
     id="circle3051" />
  <circle
     cx="-888"
     cy="2568"
     r="10"
     id="circle3053" />
  <line
     x1="-696"
     y1="2808"
     x2="-528"
     y2="2632"
     id="line3055"
     style="stroke:#000000;stroke-width:7" />
  <circle
     cx="-696"
     cy="2808"
     r="10"
     id="circle3057" />
  <circle
     cx="-528"
     cy="2632"
     r="10"
     id="circle3059" />
  <line
     x1="-593"
     y1="2898"
     x2="-696"
     y2="2808"
     id="line3061"
     style="stroke:#000000;stroke-width:7" />
  <circle
     cx="-593"
     cy="2898"
     r="10"
     id="circle3063" />
  <circle
     cx="-696"
     cy="2808"
     r="10"
     id="circle3065" />
  <line
     x1="-425"
     y1="2676"
     x2="-536"
     y2="2824"
     id="line3067"
     style="stroke:#000000;stroke-width:7" />
  <circle
     cx="-425"
     cy="2676"
     r="10"
     id="circle3069" />
  <circle
     cx="-536"
     cy="2824"
     r="10"
     id="circle3071" />
  <line
     x1="-360"
     y1="2592"
     x2="-656"
     y2="2472"
     id="line3073"
     style="stroke:#000000;stroke-width:7" />
  <circle
     cx="-360"
     cy="2592"
     r="10"
     id="circle3075" />
  <circle
     cx="-656"
     cy="2472"
     r="10"
     id="circle3077" />
  <line
     x1="-656"
     y1="2472"
     x2="-504"
     y2="2344"
     id="line3079"
     style="stroke:#000000;stroke-width:6.56045151;stroke-miterlimit:4;stroke-dasharray:none" />
  <circle
     cx="-656"
     cy="2472"
     r="10"
     id="circle3081" />
  <line
     x1="-753"
     y1="2432"
     x2="-664"
     y2="2344"
     id="line3085"
     style="stroke:#000000;stroke-width:7" />
  <circle
     cx="-753"
     cy="2432"
     r="10"
     id="circle3087" />
  <circle
     cx="-664"
     cy="2344"
     r="10"
     id="circle3089" />
  <circle
     cx="-656"
     cy="2472"
     r="10"
     id="circle3095" />
  <line
     x1="-528"
     y1="2632"
     x2="-824"
     y2="2504"
     id="line3097"
     style="stroke:#000000;stroke-width:7" />
  <circle
     cx="-528"
     cy="2632"
     r="10"
     id="circle3099" />
  <circle
     cx="-824"
     cy="2504"
     r="10"
     id="circle3101" />
  <line
     x1="-656"
     y1="2472"
     x2="-360"
     y2="2592"
     id="line3103"
     style="stroke:#000000;stroke-width:7" />
  <circle
     cx="-656"
     cy="2472"
     r="10"
     id="circle3105" />
  <circle
     cx="-360"
     cy="2592"
     r="10"
     id="circle3107" />
  <line
     x1="-824"
     y1="2504"
     x2="-753"
     y2="2432"
     id="line3109"
     style="stroke:#000000;stroke-width:7" />
  <circle
     cx="-824"
     cy="2504"
     r="10"
     id="circle3111" />
  <circle
     cx="-753"
     cy="2432"
     r="10"
     id="circle3113" />
  <line
     x1="-360"
     y1="2592"
     x2="-425"
     y2="2676"
     id="line3115"
     style="stroke:#000000;stroke-width:7" />
  <circle
     cx="-360"
     cy="2592"
     r="10"
     id="circle3117" />
  <circle
     cx="-425"
     cy="2676"
     r="10"
     id="circle3119" />
  <line
     x1="-504"
     y1="2344"
     x2="-336"
     y2="2312"
     id="line3121"
     style="stroke:#000000;stroke-width:6.56045151;stroke-miterlimit:4;stroke-dasharray:none" />
  <circle
     cx="-336"
     cy="2312"
     r="10"
     id="circle3125" />
  <line
     x1="-168"
     y1="2704"
     x2="-232"
     y2="2704"
     id="line3127"
     style="stroke:#000000;stroke-width:7" />
  <circle
     cx="-168"
     cy="2704"
     r="10"
     id="circle3129" />
  <circle
     cx="-232"
     cy="2704"
     r="10"
     id="circle3131" />
  <line
     x1="-240"
     y1="2424"
     x2="-168"
     y2="2704"
     id="line3133"
     style="stroke:#000000;stroke-width:7" />
  <circle
     cx="-240"
     cy="2424"
     r="10"
     id="circle3135" />
  <circle
     cx="-168"
     cy="2704"
     r="10"
     id="circle3137" />
  <line
     x1="-336"
     y1="2312"
     x2="-240"
     y2="2424"
     id="line3139"
     style="stroke:#000000;stroke-width:7" />
  <circle
     cx="-336"
     cy="2312"
     r="10"
     id="circle3141" />
  <circle
     cx="-240"
     cy="2424"
     r="10"
     id="circle3143" />
  <line
     x1="-240"
     y1="2424"
     x2="-336"
     y2="2312"
     id="line3145"
     style="stroke:#000000;stroke-width:7" />
  <circle
     cx="-240"
     cy="2424"
     r="10"
     id="circle3147" />
  <circle
     cx="-336"
     cy="2312"
     r="10"
     id="circle3149" />
  <line
     x1="-232"
     y1="2704"
     x2="-168"
     y2="2704"
     id="line3151"
     style="stroke:#000000;stroke-width:7" />
  <circle
     cx="-232"
     cy="2704"
     r="10"
     id="circle3153" />
  <circle
     cx="-168"
     cy="2704"
     r="10"
     id="circle3155" />
  <line
     x1="-168"
     y1="2704"
     x2="-186"
     y2="2768"
     id="line3157"
     style="stroke:#000000;stroke-width:7" />
  <circle
     cx="-168"
     cy="2704"
     r="10"
     id="circle3159" />
  <circle
     cx="-186"
     cy="2768"
     r="10"
     id="circle3161"
     style="fill:#ff0000;fill-opacity:1" />
  <line
     x1="-592"
     y1="2216"
     x2="-336"
     y2="2312"
     id="line3163"
     style="stroke:#000000;stroke-width:7" />
  <circle
     cx="-592"
     cy="2216"
     r="10"
     id="circle3165" />
  <circle
     cx="-336"
     cy="2312"
     r="10"
     id="circle3167" />
  <circle
     cx="-336"
     cy="2312"
     r="10"
     id="circle3171" />
  <line
     x1="-592"
     y1="2152"
     x2="-592"
     y2="2216"
     id="line3175"
     style="stroke:#000000;stroke-width:7" />
  <circle
     cx="-592"
     cy="2152"
     r="10"
     id="circle3177" />
  <circle
     cx="-592"
     cy="2216"
     r="10"
     id="circle3179" />
  <line
     x1="-632"
     y1="2174"
     x2="-592"
     y2="2152"
     id="line3181"
     style="stroke:#000000;stroke-width:7" />
  <circle
     cx="-592"
     cy="2152"
     r="10"
     id="circle3185" />
  <circle
     cx="-336"
     cy="2312"
     r="10"
     id="circle3189" />
  <line
     x1="-568"
     y1="2920"
     x2="-568"
     y2="3240"
     id="line3379"
     style="stroke:#000000;stroke-width:7" />
  <circle
     cx="-568"
     cy="2920"
     r="10"
     id="circle3381" />
  <line
     x1="-696"
     y1="3048"
     x2="-696"
     y2="2941"
     id="line3385"
     style="stroke:#000000;stroke-width:7" />
  <circle
     cx="-696"
     cy="3048"
     r="10"
     id="circle3387" />
  <circle
     cx="-696"
     cy="2941"
     r="10"
     id="circle3389" />
  <line
     x1="-696"
     y1="3176"
     x2="-696"
     y2="3048"
     id="line3391"
     style="stroke:#000000;stroke-width:7" />
  <circle
     cx="-696"
     cy="3176"
     r="10"
     id="circle3393" />
  <circle
     cx="-696"
     cy="3048"
     r="10"
     id="circle3395" />
  <line
     x1="-696"
     y1="3240"
     x2="-696"
     y2="3176"
     id="line3397"
     style="stroke:#000000;stroke-width:7" />
  <circle
     cx="-696"
     cy="3176"
     r="10"
     id="circle3401" />
  <circle
     cx="-696"
     cy="3176"
     r="10"
     id="circle3429" />
  <circle
     cx="-696"
     cy="3048"
     r="10"
     id="circle3437" />
  <line
     x1="-696"
     y1="3048"
     x2="-696"
     y2="3176"
     id="line3439"
     style="stroke:#000000;stroke-width:7" />
  <circle
     cx="-696"
     cy="3048"
     r="10"
     id="circle3441" />
  <line
     x1="-120"
     y1="3176"
     x2="-312"
     y2="3240"
     id="line3451"
     style="stroke:#000000;stroke-width:7" />
  <circle
     cx="-120"
     cy="3176"
     r="10"
     id="circle3453" />
  <circle
     cx="-312"
     cy="3240"
     r="10"
     id="circle3455" />
  <line
     x1="-312"
     y1="3016"
     x2="-280"
     y2="2920"
     id="line3457"
     style="stroke:#000000;stroke-width:7" />
  <circle
     cx="-312"
     cy="3016"
     r="10"
     id="circle3459" />
  <circle
     cx="-280"
     cy="2920"
     r="10"
     id="circle3461" />
  <line
     x1="-312"
     y1="3240"
     x2="-312"
     y2="3016"
     id="line3463"
     style="stroke:#000000;stroke-width:7" />
  <circle
     cx="-312"
     cy="3240"
     r="10"
     id="circle3465" />
  <circle
     cx="-312"
     cy="3016"
     r="10"
     id="circle3467" />
  <line
     x1="-128"
     y1="2846"
     x2="-120"
     y2="2856"
     id="line3469"
     style="stroke:#000000;stroke-width:7" />
  <circle
     cx="-128"
     cy="2846"
     r="10"
     id="circle3471" />
  <circle
     cx="-120"
     cy="2856"
     r="10"
     id="circle3473" />
  <line
     x1="-120"
     y1="2856"
     x2="-120"
     y2="3112"
     id="line3475"
     style="stroke:#000000;stroke-width:7" />
  <circle
     cx="-120"
     cy="2856"
     r="10"
     id="circle3477" />
  <circle
     cx="-120"
     cy="3112"
     r="10"
     id="circle3479" />
  <line
     x1="-120"
     y1="3112"
     x2="-120"
     y2="3176"
     id="line3481"
     style="stroke:#000000;stroke-width:7" />
  <circle
     cx="-120"
     cy="3112"
     r="10"
     id="circle3483" />
  <circle
     cx="-120"
     cy="3176"
     r="10"
     id="circle3485" />
  <line
     x1="-280"
     y1="2920"
     x2="-287"
     y2="2873"
     id="line3487"
     style="stroke:#000000;stroke-width:7" />
  <circle
     cx="-280"
     cy="2920"
     r="10"
     id="circle3489" />
  <circle
     cx="-287"
     cy="2873"
     r="10"
     id="circle3491" />
  <line
     x1="-440"
     y1="3240"
     x2="-440"
     y2="3016"
     id="line3493"
     style="stroke:#000000;stroke-width:7" />
  <circle
     cx="-440"
     cy="3240"
     r="10"
     id="circle3495" />
  <circle
     cx="-440"
     cy="3016"
     r="10"
     id="circle3497" />
  <line
     x1="-312"
     y1="3016"
     x2="-312"
     y2="3240"
     id="line3499"
     style="stroke:#000000;stroke-width:7" />
  <circle
     cx="-312"
     cy="3016"
     r="10"
     id="circle3501" />
  <circle
     cx="-312"
     cy="3240"
     r="10"
     id="circle3503" />
  <line
     x1="-312"
     y1="3240"
     x2="-336"
     y2="3240"
     id="line3505"
     style="stroke:#000000;stroke-width:7" />
  <circle
     cx="-312"
     cy="3240"
     r="10"
     id="circle3507" />
  <circle
     cx="-336"
     cy="3240"
     r="10"
     id="circle3509" />
  <line
     x1="-336"
     y1="3240"
     x2="-440"
     y2="3240"
     id="line3511"
     style="stroke:#000000;stroke-width:7" />
  <circle
     cx="-336"
     cy="3240"
     r="10"
     id="circle3513" />
  <circle
     cx="-440"
     cy="3240"
     r="10"
     id="circle3515" />
  <line
     x1="-440"
     y1="3016"
     x2="-336"
     y2="3016"
     id="line3517"
     style="stroke:#000000;stroke-width:7" />
  <circle
     cx="-440"
     cy="3016"
     r="10"
     id="circle3519" />
  <circle
     cx="-336"
     cy="3016"
     r="10"
     id="circle3521" />
  <line
     x1="-336"
     y1="3016"
     x2="-312"
     y2="3016"
     id="line3523"
     style="stroke:#000000;stroke-width:7" />
  <circle
     cx="-336"
     cy="3016"
     r="10"
     id="circle3525" />
  <circle
     cx="-312"
     cy="3016"
     r="10"
     id="circle3527" />
  <line
     x1="-120"
     y1="3176"
     x2="-120"
     y2="3112"
     id="line3529"
     style="stroke:#000000;stroke-width:7" />
  <circle
     cx="-120"
     cy="3176"
     r="10"
     id="circle3531" />
  <circle
     cx="-120"
     cy="3112"
     r="10"
     id="circle3533" />
  <circle
     cx="-120"
     cy="3176"
     r="10"
     id="circle3563" />
  <line
     x1="-888"
     y1="2056"
     x2="-696"
     y2="1928"
     id="line3607"
     style="stroke:#000000;stroke-width:7" />
  <circle
     cx="-888"
     cy="2056"
     r="10"
     id="circle3609" />
  <circle
     cx="-696"
     cy="1928"
     r="10"
     id="circle3611" />
  <line
     x1="-592"
     y1="2152"
     x2="-680"
     y2="2202"
     id="line3613"
     style="stroke:#000000;stroke-width:7" />
  <circle
     cx="-592"
     cy="2152"
     r="10"
     id="circle3615" />
  <circle
     cx="-680"
     cy="2202"
     r="10"
     id="circle3617" />
  <line
     x1="-760"
     y1="2152"
     x2="-888"
     y2="2072"
     id="line3619"
     style="stroke:#000000;stroke-width:7" />
  <circle
     cx="-760"
     cy="2152"
     r="10"
     id="circle3621" />
  <circle
     cx="-888"
     cy="2072"
     r="10"
     id="circle3623" />
  <line
     x1="-888"
     y1="2072"
     x2="-888"
     y2="2056"
     id="line3625"
     style="stroke:#000000;stroke-width:7" />
  <circle
     cx="-888"
     cy="2072"
     r="10"
     id="circle3627" />
  <circle
     cx="-888"
     cy="2056"
     r="10"
     id="circle3629" />
  <line
     x1="-696"
     y1="1928"
     x2="-680"
     y2="1928"
     id="line3631"
     style="stroke:#000000;stroke-width:7" />
  <circle
     cx="-696"
     cy="1928"
     r="10"
     id="circle3633" />
  <circle
     cx="-680"
     cy="1928"
     r="10"
     id="circle3635" />
  <line
     x1="-680"
     y1="1928"
     x2="-592"
     y2="2152"
     id="line3637"
     style="stroke:#000000;stroke-width:7" />
  <circle
     cx="-680"
     cy="1928"
     r="10"
     id="circle3639" />
  <circle
     cx="-592"
     cy="2152"
     r="10"
     id="circle3641" />
  <line
     x1="-888"
     y1="2320"
     x2="-888"
     y2="2184"
     id="line3643"
     style="stroke:#000000;stroke-width:7" />
  <circle
     cx="-888"
     cy="2320"
     r="10"
     id="circle3645" />
  <circle
     cx="-888"
     cy="2184"
     r="10"
     id="circle3647" />
  <line
     x1="-680"
     y1="2202"
     x2="-888"
     y2="2320"
     id="line3649"
     style="stroke:#000000;stroke-width:7" />
  <circle
     cx="-680"
     cy="2202"
     r="10"
     id="circle3651" />
  <circle
     cx="-888"
     cy="2320"
     r="10"
     id="circle3653" />
  <line
     x1="-888"
     y1="2184"
     x2="-760"
     y2="2184"
     id="line3655"
     style="stroke:#000000;stroke-width:7" />
  <circle
     cx="-888"
     cy="2184"
     r="10"
     id="circle3657" />
  <circle
     cx="-760"
     cy="2184"
     r="10"
     id="circle3659" />
  <line
     x1="-760"
     y1="2184"
     x2="-760"
     y2="2152"
     id="line3661"
     style="stroke:#000000;stroke-width:7" />
  <circle
     cx="-760"
     cy="2184"
     r="10"
     id="circle3663" />
  <circle
     cx="-760"
     cy="2152"
     r="10"
     id="circle3665" />
  <circle
     cx="-696"
     cy="1928"
     r="10"
     id="circle3671" />
  <line
     x1="-696"
     y1="1928"
     x2="-888"
     y2="2056"
     id="line3673"
     style="stroke:#000000;stroke-width:7" />
  <circle
     cx="-696"
     cy="1928"
     r="10"
     id="circle3675" />
  <circle
     cx="-888"
     cy="2056"
     r="10"
     id="circle3677" />
  <text
     xml:space="preserve"
     style="font-style:normal;font-weight:normal;font-size:68.33803558px;line-height:125%;font-family:sans-serif;letter-spacing:0px;word-spacing:0px;fill:#ff000c;fill-opacity:1;stroke:#ff001e;stroke-width:1px;stroke-linecap:butt;stroke-linejoin:miter;stroke-opacity:1"
     x="-188.83705"
     y="2809.7153"
     id="text8602"
     sodipodi:linespacing="125%"
     transform="scale(0.98285914,1.0174398)"
     inkscape:transform-center-x="-9.7341772"
     inkscape:transform-center-y="1.3905967"><tspan
       sodipodi:role="line"
       id="tspan8604"
       x="-188.83705"
       y="2809.7153"
       style="font-weight:bold;font-size:41.00282288px;fill:#ff000c;fill-opacity:1;stroke:#ff001e;stroke-opacity:1">A</tspan></text>
  <circle
     cx="-632"
     cy="2174"
     r="10"
     id="circle3183"
     style="fill:#ff0000;fill-opacity:1" />
  <text
     xml:space="preserve"
     style="font-style:normal;font-weight:normal;font-size:68.33803558px;line-height:125%;font-family:sans-serif;letter-spacing:0px;word-spacing:0px;fill:#000000;fill-opacity:1;stroke:none;stroke-width:1px;stroke-linecap:butt;stroke-linejoin:miter;stroke-opacity:1"
     x="-235.30673"
     y="2734.5435"
     id="text8606"
     sodipodi:linespacing="125%"
     transform="scale(0.98285914,1.0174398)"><tspan
       sodipodi:role="line"
       id="tspan8608"
       x="-235.30673"
       y="2734.5435"
       style="font-weight:bold;font-size:41.00282288px;fill:#ff0000;fill-opacity:1">1</tspan></text>
  <text
     xml:space="preserve"
     style="font-style:normal;font-weight:normal;font-size:68.33803558px;line-height:125%;font-family:sans-serif;letter-spacing:0px;word-spacing:0px;fill:#000000;fill-opacity:1;stroke:none;stroke-width:1px;stroke-linecap:butt;stroke-linejoin:miter;stroke-opacity:1"
     x="-265.11194"
     y="2637.4148"
     id="text8606-3"
     sodipodi:linespacing="125%"
     transform="scale(0.98285914,1.0174398)"><tspan
       sodipodi:role="line"
       id="tspan8608-9"
       x="-265.11194"
       y="2637.4148"
       style="font-weight:bold;font-size:41.00282288px;fill:#000000;fill-opacity:1">2</tspan></text>
  <text
     xml:space="preserve"
     style="font-style:normal;font-weight:normal;font-size:68.33803558px;line-height:125%;font-family:sans-serif;letter-spacing:0px;word-spacing:0px;fill:#000000;fill-opacity:1;stroke:none;stroke-width:1px;stroke-linecap:butt;stroke-linejoin:miter;stroke-opacity:1"
     x="-527.52991"
     y="2357.2288"
     id="text8606-2"
     sodipodi:linespacing="125%"
     transform="scale(0.98285914,1.0174398)"><tspan
       sodipodi:role="line"
       id="tspan8608-8"
       x="-527.52991"
       y="2357.2288"
       style="font-weight:bold;font-size:41.00282288px;fill:#000000;fill-opacity:1">3</tspan></text>
  <text
     xml:space="preserve"
     style="font-style:normal;font-weight:normal;font-size:68.33803558px;line-height:125%;font-family:sans-serif;letter-spacing:0px;word-spacing:0px;fill:#000000;fill-opacity:1;stroke:none;stroke-width:1px;stroke-linecap:butt;stroke-linejoin:miter;stroke-opacity:1"
     x="-662.83923"
     y="2194.5842"
     id="text8606-9"
     sodipodi:linespacing="125%"
     transform="scale(0.98285914,1.0174398)"><tspan
       sodipodi:role="line"
       id="tspan8608-0"
       x="-662.83923"
       y="2194.5842"
       style="font-weight:bold;font-size:41.00282288px;fill:#ff0000;fill-opacity:1">4</tspan></text>
  <text
     xml:space="preserve"
     style="font-style:normal;font-weight:normal;font-size:68.33803558px;line-height:125%;font-family:sans-serif;letter-spacing:0px;word-spacing:0px;fill:#000000;fill-opacity:1;stroke:none;stroke-width:1px;stroke-linecap:butt;stroke-linejoin:miter;stroke-opacity:1"
     x="-619.36658"
     y="2354.584"
     id="text9461"
     sodipodi:linespacing="125%"
     transform="scale(0.98285914,1.0174398)"><tspan
       sodipodi:role="line"
       id="tspan9463"
       x="-619.36658"
       y="2354.584"
       style="font-weight:bold;font-size:41.00282288px">E</tspan></text>
  <text
     xml:space="preserve"
     style="font-style:normal;font-weight:normal;font-size:68.33803558px;line-height:125%;font-family:sans-serif;letter-spacing:0px;word-spacing:0px;fill:#000000;fill-opacity:1;stroke:none;stroke-width:1px;stroke-linecap:butt;stroke-linejoin:miter;stroke-opacity:1"
     x="-482.35608"
     y="2282.0566"
     id="text9461-4"
     sodipodi:linespacing="125%"
     transform="scale(0.98285914,1.0174398)"><tspan
       sodipodi:role="line"
       id="tspan9463-8"
       x="-482.35608"
       y="2282.0566"
       style="font-weight:bold;font-size:41.00282288px">F</tspan></text>
  <text
     xml:space="preserve"
     style="font-style:normal;font-weight:normal;font-size:68.33803558px;line-height:125%;font-family:sans-serif;letter-spacing:0px;word-spacing:0px;fill:#000000;fill-opacity:1;stroke:none;stroke-width:1px;stroke-linecap:butt;stroke-linejoin:miter;stroke-opacity:1"
     x="-170.73476"
     y="2713.9531"
     id="text9461-0"
     sodipodi:linespacing="125%"
     transform="scale(0.98285914,1.0174398)"><tspan
       sodipodi:role="line"
       id="tspan9463-5"
       x="-170.73476"
       y="2713.9531"
       style="font-weight:bold;font-size:41.00282288px">B</tspan></text>
  <text
     xml:space="preserve"
     style="font-style:normal;font-weight:normal;font-size:68.33803558px;line-height:125%;font-family:sans-serif;letter-spacing:0px;word-spacing:0px;fill:#000000;fill-opacity:1;stroke:none;stroke-width:1px;stroke-linecap:butt;stroke-linejoin:miter;stroke-opacity:1"
     x="-735.60181"
     y="2143.3306"
     id="text9461-4-4"
     sodipodi:linespacing="125%"
     transform="scale(0.98285914,1.0174398)"><tspan
       sodipodi:role="line"
       id="tspan9463-8-2"
       x="-735.60181"
       y="2143.3306"
       style="font-weight:bold;font-size:41.00282288px">G1</tspan></text>
  <text
     xml:space="preserve"
     style="font-style:normal;font-weight:normal;font-size:68.33803558px;line-height:125%;font-family:sans-serif;letter-spacing:0px;word-spacing:0px;fill:#000000;fill-opacity:1;stroke:none;stroke-width:1px;stroke-linecap:butt;stroke-linejoin:miter;stroke-opacity:1"
     x="-316.97815"
     y="2681.1509"
     id="text9461-0-2"
     sodipodi:linespacing="125%"
     transform="scale(0.98285914,1.0174398)"><tspan
       sodipodi:role="line"
       id="tspan9463-5-6"
       x="-316.97815"
       y="2681.1509"
       style="font-weight:bold;font-size:41.00282288px">C</tspan></text>
  <text
     xml:space="preserve"
     style="font-style:normal;font-weight:normal;font-size:68.33803558px;line-height:125%;font-family:sans-serif;letter-spacing:0px;word-spacing:0px;fill:#000000;fill-opacity:1;stroke:none;stroke-width:1px;stroke-linecap:butt;stroke-linejoin:miter;stroke-opacity:1"
     x="-224.09389"
     y="2640.1282"
     id="text9461-0-2-7"
     sodipodi:linespacing="125%"
     transform="scale(0.98285914,1.0174398)"><tspan
       sodipodi:role="line"
       id="tspan9463-5-6-4"
       x="-224.09389"
       y="2640.1282"
       style="font-weight:bold;font-size:41.00282288px">D</tspan></text>
  <text
     xml:space="preserve"
     style="font-style:normal;font-weight:normal;font-size:68.33803558px;line-height:125%;font-family:sans-serif;letter-spacing:0px;word-spacing:0px;fill:#000000;fill-opacity:1;stroke:none;stroke-width:1px;stroke-linecap:butt;stroke-linejoin:miter;stroke-opacity:1"
     x="-675.78442"
     y="2108.9756"
     id="text9461-4-4-2"
     sodipodi:linespacing="125%"
     transform="scale(0.98285922,1.0174397)"><tspan
       sodipodi:role="line"
       id="tspan9463-8-2-5"
       x="-675.78442"
       y="2108.9756"
       style="font-weight:bold;font-size:41.00282288px">G2</tspan></text>
  <ellipse
     ry="10"
     rx="9.999999"
     cx="-508.00021"
     cy="2346.9766"
     id="circle3189-4" />
  <path
     style="fill:#000000;fill-opacity:1;fill-rule:evenodd;stroke:#ff0000;stroke-width:5.46704292;stroke-linecap:butt;stroke-linejoin:miter;stroke-miterlimit:4;stroke-dasharray:none;stroke-opacity:1"
     d="m -126.7336,2847.9744 -506.31982,-673.239"
     id="path8585"
     inkscape:connector-curvature="0"
     sodipodi:nodetypes="cc" />
  <g
     transform="matrix(1.3928207,0.8819214,-0.82299091,1.3928205,-2306.5914,-4778.2722)"
     id="g9570"
     inkscape:transform-center-x="1.9977802"
     inkscape:transform-center-y="-0.90496917">
    <circle
       r="16"
       id="circle3031"
       cy="3151.4592"
       cx="3188.4199"
       style="fill:#4dc13c;stroke:#000000;stroke-width:1.64011288;stroke-miterlimit:4;stroke-dasharray:none" />
    <path
       sodipodi:nodetypes="cc"
       inkscape:connector-curvature="0"
       id="path8650"
       d="m 3179.0532,3138.7158 10.7557,13.5625"
       style="fill:none;fill-rule:evenodd;stroke:#000000;stroke-width:1.64011288;stroke-linecap:butt;stroke-linejoin:miter;stroke-miterlimit:4;stroke-dasharray:none;stroke-opacity:1" />
  </g>
</svg>
