<?xml version="1.0" encoding="UTF-8" standalone="no"?>
<!-- Created with Inkscape (http://www.inkscape.org/) -->

<svg
   xmlns:dc="http://purl.org/dc/elements/1.1/"
   xmlns:cc="http://creativecommons.org/ns#"
   xmlns:rdf="http://www.w3.org/1999/02/22-rdf-syntax-ns#"
   xmlns:svg="http://www.w3.org/2000/svg"
   xmlns="http://www.w3.org/2000/svg"
   xmlns:sodipodi="http://sodipodi.sourceforge.net/DTD/sodipodi-0.dtd"
   xmlns:inkscape="http://www.inkscape.org/namespaces/inkscape"
   id="svg2"
   version="1.1"
   inkscape:version="0.92.2 5c3e80d, 2017-08-06"
   xml:space="preserve"
   width="1806.3627"
   height="1171.6284"
   viewBox="0 0 1693.465 1098.4016"
   sodipodi:docname="id-software-office-mesquite.svg"><metadata
     id="metadata8"><rdf:RDF><cc:Work
         rdf:about=""><dc:format>image/svg+xml</dc:format><dc:type
           rdf:resource="http://purl.org/dc/dcmitype/StillImage" /><dc:title /></cc:Work></rdf:RDF></metadata><defs
     id="defs6"><clipPath
       clipPathUnits="userSpaceOnUse"
       id="clipPath22"><path
         d="M 0,0 H 1920 V 1080 H 0 Z"
         id="path24"
         inkscape:connector-curvature="0" /></clipPath><clipPath
       clipPathUnits="userSpaceOnUse"
       id="clipPath212"><path
         d="m 1303.128,486.0355 125.246,72.3999 18.954,-32.7899 -125.246,-72.4 z"
         id="path214"
         inkscape:connector-curvature="0" /></clipPath><clipPath
       clipPathUnits="userSpaceOnUse"
       id="clipPath218"><path
         d="M 0,0 H 1920 V 1080 H 0 Z"
         id="path220"
         inkscape:connector-curvature="0" /></clipPath><clipPath
       clipPathUnits="userSpaceOnUse"
       id="clipPath232"><path
         d="M 0,0 H 1920 V 1080 H 0 Z"
         id="path234"
         inkscape:connector-curvature="0" /></clipPath></defs><sodipodi:namedview
     pagecolor="#ffffff"
     bordercolor="#666666"
     borderopacity="1"
     objecttolerance="10"
     gridtolerance="10"
     guidetolerance="10"
     inkscape:pageopacity="0"
     inkscape:pageshadow="2"
     inkscape:window-width="1344"
     inkscape:window-height="769"
     id="namedview4"
     showgrid="false"
     inkscape:zoom="1.2074166"
     inkscape:cx="1589.5237"
     inkscape:cy="888.08263"
     inkscape:window-x="0"
     inkscape:window-y="0"
     inkscape:window-maximized="0"
     inkscape:current-layer="g10"
     fit-margin-top="0"
     fit-margin-left="0"
     fit-margin-right="0"
     fit-margin-bottom="0" /><g
     id="g10"
     inkscape:groupmode="layer"
     inkscape:label="id-software-office-mesquite"
     transform="matrix(1.25,0,0,-1.25,-626.1915,1313.4)"><path
       inkscape:connector-curvature="0"
       id="path30"
       style="fill:none;stroke:#000000;stroke-width:5;stroke-linecap:butt;stroke-linejoin:miter;stroke-miterlimit:4;stroke-dasharray:none;stroke-opacity:1"
       d="m 1217.518,1048.22 h 286.1175 V 898.785 H 1217.518 Z" /><path
       inkscape:connector-curvature="0"
       id="path34"
       style="fill:none;stroke:#000000;stroke-width:5;stroke-linecap:butt;stroke-linejoin:miter;stroke-miterlimit:4;stroke-dasharray:none;stroke-opacity:1"
       d="m 1217.518,897.7175 h 286.1175 V 745.2825 H 1217.518 Z" /><path
       inkscape:connector-curvature="0"
       id="path38"
       style="fill:none;stroke:#000000;stroke-width:5;stroke-linecap:butt;stroke-linejoin:miter;stroke-miterlimit:4;stroke-dasharray:none;stroke-opacity:1"
       d="m 1396.646,401.7187 h 456.5514 V 174.9671 H 1396.646 Z" /><path
       inkscape:connector-curvature="0"
       id="path42"
       style="fill:none;stroke:#000000;stroke-width:5;stroke-linecap:butt;stroke-linejoin:miter;stroke-miterlimit:4;stroke-dasharray:none;stroke-opacity:1"
       d="m 1053.321,370.6775 h 275.0516 v -131.82 H 1053.321 Z" /><path
       inkscape:connector-curvature="0"
       id="path46"
       style="fill:none;stroke:#000000;stroke-width:5;stroke-linecap:butt;stroke-linejoin:miter;stroke-miterlimit:4;stroke-dasharray:none;stroke-opacity:1"
       d="m 964.55,588.5675 h 252.885 V 371.105 H 964.55 Z" /><path
       inkscape:connector-curvature="0"
       id="path50"
       style="fill:none;stroke:#000000;stroke-width:5;stroke-linecap:butt;stroke-linejoin:miter;stroke-miterlimit:4;stroke-dasharray:none;stroke-opacity:1"
       d="m 1217.11,747.7344 h 341.3775 V 543.7494 H 1217.11 Z" /><path
       d="m 1497.934,1048.22 h 355.291 V 402.5219 h -355.291 z"
       style="fill:#ffffff;fill-opacity:1;fill-rule:nonzero;stroke:none"
       id="path52"
       inkscape:connector-curvature="0" /><path
       inkscape:connector-curvature="0"
       id="path56"
       style="fill:none;stroke:#000000;stroke-width:5;stroke-linecap:butt;stroke-linejoin:miter;stroke-miterlimit:4;stroke-dasharray:none;stroke-opacity:1"
       d="m 1497.934,1048.22 h 355.2912 V 402.5219 H 1497.934 Z" /><path
       d="M 936.5388,647.7175 H 1254.098 V 587.35 H 936.5388 Z"
       style="fill:#ffffff;fill-opacity:1;fill-rule:nonzero;stroke:none"
       id="path58"
       inkscape:connector-curvature="0" /><path
       inkscape:connector-curvature="0"
       id="path62"
       style="fill:none;stroke:#000000;stroke-width:5;stroke-linecap:butt;stroke-linejoin:miter;stroke-miterlimit:4;stroke-dasharray:none;stroke-opacity:1"
       d="m 936.5388,647.7175 h 317.5587 V 587.35001 H 936.5388 Z" /><path
       d="m 1219.742,744.9637 h 310.901 v -339.68 h -310.901 z"
       style="fill:#ffffff;fill-opacity:1;fill-rule:nonzero;stroke:none"
       id="path64"
       inkscape:connector-curvature="0" /><text
       id="text68"
       style="font-variant:normal;font-weight:normal;line-height:0%;font-family:Georgia;-inkscape-font-specification:Georgia;writing-mode:lr-tb;fill:#000000;fill-opacity:1;fill-rule:nonzero;stroke:none"
       transform="scale(1,-1)"
       x="1031"
       y="-467"><tspan
         id="tspan70"
         sodipodi:role="line"
         y="-467"
         x="1031 1055.3005 1065.5555 1077.6375 1093.531 1113.901 1130.8199"
         style="font-size:35px;line-height:1.25">Kitchen</tspan></text>
<text
       id="text74"
       style="font-variant:normal;font-weight:normal;line-height:0%;font-family:Georgia;-inkscape-font-specification:Georgia;writing-mode:lr-tb;fill:#000000;fill-opacity:1;fill-rule:nonzero;stroke:none"
       transform="scale(1,-1)"
       x="1111"
       y="-318"><tspan
         id="tspan76"
         sodipodi:role="line"
         y="-318"
         x="1111 1132.028 1146.6469 1172.1987 1186.2086 1193.2004 1213.5614 1229.1953 1244.8292"
         style="font-size:29px;line-height:1.25">Game Room</tspan></text>
<text
       id="text80"
       style="font-variant:normal;font-weight:normal;line-height:0%;font-family:Georgia;-inkscape-font-specification:Georgia;writing-mode:lr-tb;fill:#000000;fill-opacity:1;fill-rule:nonzero;stroke:none"
       transform="scale(1,-1)"
       x="1302"
       y="-813"><tspan
         id="tspan82"
         sodipodi:role="line"
         y="-813"
         x="1302 1326.5594 1345.4141 1376.2385 1393.168 1407.5074"
         style="font-size:35px;line-height:1.25">Romero</tspan></text>
<text
       id="text86"
       style="font-variant:normal;font-weight:normal;line-height:0%;font-family:Georgia;-inkscape-font-specification:Georgia;writing-mode:lr-tb;fill:#000000;fill-opacity:1;fill-rule:nonzero;stroke:none"
       transform="scale(1,-1)"
       x="1289"
       y="-963"><tspan
         id="tspan88"
         sodipodi:role="line"
         y="-963"
         x="1289 1311.4735 1329.1169 1343.4705 1374.309 1391.9525 1407.8459"
         style="font-size:35px;line-height:1.25">Carmack</tspan></text>
<text
       id="text92"
       style="font-variant:normal;font-weight:normal;line-height:0%;font-family:Georgia;-inkscape-font-specification:Georgia;writing-mode:lr-tb;fill:#000000;fill-opacity:1;fill-rule:nonzero;stroke:none"
       transform="scale(1,-1)"
       x="1508"
       y="-224"><tspan
         id="tspan94"
         sodipodi:role="line"
         y="-224"
         x="1508 1532.3005 1549.2195 1566.6005 1576.8555"
         style="font-size:35px;line-height:1.25">Kevin</tspan></text>
<text
       id="text98"
       style="font-variant:normal;font-weight:normal;line-height:0%;font-family:Georgia;-inkscape-font-specification:Georgia;writing-mode:lr-tb;fill:#000000;fill-opacity:1;fill-rule:nonzero;stroke:none"
       transform="scale(1,-1)"
       x="1676"
       y="-224"><tspan
         id="tspan100"
         sodipodi:role="line"
         y="-224"
         x="1676 1699.4814 1719.5785 1733.918 1744.173 1761.8094"
         style="font-size:35px;line-height:1.25">Adrian</tspan></text>
<text
       id="text104"
       style="font-variant:normal;font-weight:normal;line-height:0%;font-family:Georgia;-inkscape-font-specification:Georgia;writing-mode:lr-tb;fill:#000000;fill-opacity:1;fill-rule:nonzero;stroke:none"
       transform="scale(1,-1)"
       x="1615.6003"
       y="-467"><tspan
         id="tspan106"
         sodipodi:role="line"
         y="-467"
         x="1615.6003 1637.2549 1656.1233 1686.9548 1703.3594 1722.9944 1740.6309 1761.3088 1781.4059"
         style="font-size:35px;line-height:1.25">Tom/Sandy</tspan></text>
<text
       id="text110"
       style="font-variant:normal;font-weight:normal;line-height:0%;font-family:Georgia;-inkscape-font-specification:Georgia;writing-mode:lr-tb;fill:#000000;fill-opacity:1;fill-rule:nonzero;stroke:none"
       transform="scale(1,-1)"
       x="1716"
       y="-647"><tspan
         id="tspan112"
         sodipodi:role="line"
         y="-647"
         x="1716 1742.215 1759.8516 1777.2325"
         style="font-size:35px;line-height:1.25">Dave</tspan></text>
<path
       inkscape:connector-curvature="0"
       id="path116"
       style="fill:none;stroke:#000000;stroke-width:2;stroke-linecap:butt;stroke-linejoin:miter;stroke-miterlimit:4;stroke-dasharray:none;stroke-opacity:1"
       d="m 1478.61,216.0284 h 145.4175 V 176.2959 H 1478.61 Z" /><path
       inkscape:connector-curvature="0"
       id="path120"
       style="fill:none;stroke:#000000;stroke-width:2;stroke-linecap:butt;stroke-linejoin:miter;stroke-miterlimit:4;stroke-dasharray:none;stroke-opacity:1"
       d="m 1662.61,216.6285 h 145.4175 V 176.896 H 1662.61 Z" /><path
       inkscape:connector-curvature="0"
       id="path124"
       style="fill:none;stroke:#000000;stroke-width:2;stroke-linecap:butt;stroke-linejoin:miter;stroke-miterlimit:4;stroke-dasharray:none;stroke-opacity:1"
       d="M 967.0525,371.3735 V 516.791 h 39.7325 V 371.3735 Z" /><path
       inkscape:connector-curvature="0"
       id="path128"
       style="fill:none;stroke:#000000;stroke-width:2;stroke-linecap:butt;stroke-linejoin:miter;stroke-miterlimit:4;stroke-dasharray:none;stroke-opacity:1"
       d="M 1810.892,406.1275 V 551.545 h 39.7325 V 406.1275 Z" /><path
       inkscape:connector-curvature="0"
       id="path132"
       style="fill:none;stroke:#000000;stroke-width:2;stroke-linecap:butt;stroke-linejoin:miter;stroke-miterlimit:4;stroke-dasharray:none;stroke-opacity:1"
       d="m 1662.85,447.5812 h 145.4175 V 407.8487 H 1662.85 Z" /><path
       inkscape:connector-curvature="0"
       id="path136"
       style="fill:none;stroke:#000000;stroke-width:2;stroke-linecap:butt;stroke-linejoin:miter;stroke-miterlimit:4;stroke-dasharray:none;stroke-opacity:1"
       d="m 1707.57,550.8237 h 100.6974 V 511.0912 H 1707.57 Z" /><path
       inkscape:connector-curvature="0"
       id="path140"
       style="fill:none;stroke:#000000;stroke-width:2;stroke-linecap:butt;stroke-linejoin:miter;stroke-miterlimit:4;stroke-dasharray:none;stroke-opacity:1"
       d="M 1814.492,578.3335 V 723.751 h 39.7325 V 578.3335 Z" /><path
       inkscape:connector-curvature="0"
       id="path144"
       style="fill:none;stroke:#000000;stroke-width:2;stroke-linecap:butt;stroke-linejoin:miter;stroke-miterlimit:4;stroke-dasharray:none;stroke-opacity:1"
       d="m 967.0525,520.1635 v 65.3475 h 53.735 v -65.3475 z" /><path
       inkscape:connector-curvature="0"
       id="path148"
       style="fill:none;stroke:#000000;stroke-width:2;stroke-linecap:butt;stroke-linejoin:miter;stroke-miterlimit:4;stroke-dasharray:none;stroke-opacity:1"
       d="m 1118.138,286.1681 h 145.4175 V 246.4356 H 1118.138 Z" /><path
       inkscape:connector-curvature="0"
       id="path152"
       style="fill:none;stroke:#000000;stroke-width:2;stroke-linecap:butt;stroke-linejoin:miter;stroke-miterlimit:4;stroke-dasharray:none;stroke-opacity:1"
       d="M 1611.052,814.1375 V 984.965 h 88.4018 V 814.1375 Z" /><text
       id="text156"
       style="font-variant:normal;font-weight:normal;line-height:0%;font-family:Georgia;-inkscape-font-specification:Georgia;writing-mode:lr-tb;fill:#000000;fill-opacity:1;fill-rule:nonzero;stroke:none"
       transform="scale(1,-1)"
       x="1630"
       y="-905"><tspan
         id="tspan158"
         sodipodi:role="line"
         y="-905"
         x="1630 1645.8574 1659.8688 1673.8802 1681.3136"
         style="font-size:26px;line-height:1.25">Pool </tspan></text>
<text
       id="text162"
       style="font-variant:normal;font-weight:normal;line-height:0%;font-family:Georgia;-inkscape-font-specification:Georgia;writing-mode:lr-tb;fill:#000000;fill-opacity:1;fill-rule:nonzero;stroke:none"
       transform="scale(1,-1)"
       x="1623"
       y="-875"><tspan
         id="tspan164"
         sodipodi:role="line"
         y="-875"
         x="1623 1639.0862 1652.1824 1666.7346 1674.1628"
         style="font-size:26px;line-height:1.25">Table</tspan></text>
<path
       inkscape:connector-curvature="0"
       id="path168"
       style="fill:none;stroke:#000000;stroke-width:5;stroke-linecap:butt;stroke-linejoin:miter;stroke-miterlimit:4;stroke-dasharray:none;stroke-opacity:1"
       d="m 697.4984,370.6775 h 355.2912 v -131.82 H 697.4984 Z" /><text
       id="text172"
       style="font-variant:normal;font-weight:normal;line-height:0%;font-family:Georgia;-inkscape-font-specification:Georgia;writing-mode:lr-tb;fill:#000000;fill-opacity:1;fill-rule:nonzero;stroke:none"
       transform="scale(1,-1)"
       x="816"
       y="-292"><tspan
         id="tspan174"
         sodipodi:role="line"
         y="-292"
         x="816 835.63501 847.71698 866.58551 880.92499 898.56152 916.38702"
         style="font-size:35px;line-height:1.25">Storage</tspan></text>
<path
       inkscape:connector-curvature="0"
       id="path178"
       style="fill:none;stroke:#000000;stroke-width:5;stroke-linecap:butt;stroke-linejoin:miter;stroke-miterlimit:4;stroke-dasharray:none;stroke-opacity:1"
       d="m 964.9501,1047.61 h 252.0848 V 647.6375 H 964.9501 Z" /><text
       id="text182"
       style="font-variant:normal;font-weight:normal;line-height:0%;font-family:Georgia;-inkscape-font-specification:Georgia;writing-mode:lr-tb;fill:#000000;fill-opacity:1;fill-rule:nonzero;stroke:none"
       transform="scale(1,-1)"
       x="1015"
       y="-875"><tspan
         id="tspan184"
         sodipodi:role="line"
         y="-875"
         x="1015 1038.4814 1069.313 1086.2321 1100.5715 1110.8265 1126.72 1144.3564 1165.0345"
         style="font-size:35px;line-height:1.25">American </tspan></text>
<text
       id="text188"
       style="font-variant:normal;font-weight:normal;line-height:0%;font-family:Georgia;-inkscape-font-specification:Georgia;writing-mode:lr-tb;fill:#000000;fill-opacity:1;fill-rule:nonzero;stroke:none"
       transform="scale(1,-1)"
       x="1077"
       y="-835"><tspan
         id="tspan190"
         sodipodi:role="line"
         y="-835"
         x="1077 1101.864"
         style="font-size:35px;line-height:1.25">&amp; </tspan></text>
<text
       id="text194"
       style="font-variant:normal;font-weight:normal;line-height:0%;font-family:Georgia;-inkscape-font-specification:Georgia;writing-mode:lr-tb;fill:#000000;fill-opacity:1;fill-rule:nonzero;stroke:none"
       transform="scale(1,-1)"
       x="1038"
       y="-795"><tspan
         id="tspan196"
         sodipodi:role="line"
         y="-795"
         x="1038 1057.635 1078.005 1095.6415 1121.447"
         style="font-size:35px;line-height:1.25">Shawn</tspan></text>
<path
       d="M 894.3638,650.6088 H 962.505 V 583.2613 H 894.3638 Z"
       style="fill:#ffffff;fill-opacity:1;fill-rule:nonzero;stroke:none"
       id="path198"
       inkscape:connector-curvature="0" /><path
       inkscape:connector-curvature="0"
       id="path202"
       style="fill:none;stroke:#000000;stroke-width:5;stroke-linecap:butt;stroke-linejoin:miter;stroke-miterlimit:4;stroke-dasharray:none;stroke-opacity:1"
       d="m 694.6913,174.4987 h 750.5845" /><path
       inkscape:connector-curvature="0"
       id="path238"
       style="fill:none;stroke:#000000;stroke-width:5;stroke-linecap:butt;stroke-linejoin:miter;stroke-miterlimit:4;stroke-dasharray:none;stroke-opacity:1"
       d="M 505.8481,770.11 H 964.005 V 370.1375 H 505.8481 Z" /><path
       d="m 943.3638,646 h 68.1412 v -55 h -68.1412 z"
       style="fill:#ffffff;fill-opacity:1;fill-rule:nonzero;stroke:none"
       id="path240"
       inkscape:connector-curvature="0" /><path
       inkscape:connector-curvature="0"
       id="path244"
       style="fill:none;stroke:#000000;stroke-width:5;stroke-linecap:butt;stroke-linejoin:miter;stroke-miterlimit:4;stroke-dasharray:none;stroke-opacity:1"
       d="M 696.4852,1047.61 H 896.5066 V 770.9344 H 696.4852 Z" /><text
       id="text248"
       style="font-variant:normal;font-weight:normal;line-height:0%;font-family:Georgia;-inkscape-font-specification:Georgia;writing-mode:lr-tb;fill:#000000;fill-opacity:1;fill-rule:nonzero;stroke:none"
       transform="scale(1,-1)"
       x="709"
       y="-907"><tspan
         id="tspan250"
         sodipodi:role="line"
         y="-907"
         x="709 731.47351 750.34198 771.03052 782.409 799.3175 813.67102 830.57947 851.26801 867.1615 884.07001"
         style="font-size:35px;line-height:1.25">Conference </tspan></text>
<text
       id="text254"
       style="font-variant:normal;font-weight:normal;line-height:0%;font-family:Georgia;-inkscape-font-specification:Georgia;writing-mode:lr-tb;fill:#000000;fill-opacity:1;fill-rule:nonzero;stroke:none"
       transform="scale(1,-1)"
       x="750"
       y="-867"><tspan
         id="tspan256"
         sodipodi:role="line"
         y="-867"
         x="750 774.55951 793.414 812.26849"
         style="font-size:35px;line-height:1.25">Room</tspan></text>
<text
       id="text260"
       style="font-variant:normal;font-weight:normal;line-height:0%;font-family:Georgia;-inkscape-font-specification:Georgia;writing-mode:lr-tb;fill:#000000;fill-opacity:1;fill-rule:nonzero;stroke:none"
       transform="scale(1,-1)"
       x="627"
       y="-730"><tspan
         id="tspan262"
         sodipodi:role="line"
         y="-730"
         x="627 653.21503 672.0835 692.76147 713.43951"
         style="font-size:35px;line-height:1.25">Donna</tspan></text>
<path
       inkscape:connector-curvature="0"
       id="path266"
       style="fill:none;stroke:#000000;stroke-width:5;stroke-linecap:butt;stroke-linejoin:miter;stroke-miterlimit:4;stroke-dasharray:none;stroke-opacity:1"
       d="M 505.7794,1047.61 H 696.5401 V 770.9344 H 505.7794 Z" /><text
       id="text270"
       style="font-variant:normal;font-weight:normal;line-height:0%;font-family:Georgia;-inkscape-font-specification:Georgia;writing-mode:lr-tb;fill:#000000;fill-opacity:1;fill-rule:nonzero;stroke:none"
       transform="scale(1,-1)"
       x="571"
       y="-897"><tspan
         id="tspan272"
         sodipodi:role="line"
         y="-897"
         x="571 589.11603 606.742"
         style="font-size:35px;line-height:1.25">Jay</tspan></text>
<path
       d="m 500.9532,373.3637 h 193.9485 v -18.804 H 500.9532 Z"
       style="fill:#ffffff;fill-opacity:1;fill-rule:nonzero;stroke:none"
       id="path276"
       inkscape:connector-curvature="0" /><path
       inkscape:connector-curvature="0"
       id="path280"
       style="fill:none;stroke:#000000;stroke-width:5;stroke-linecap:butt;stroke-linejoin:miter;stroke-miterlimit:4;stroke-dasharray:none;stroke-opacity:1"
       d="M 506.2279,588.9449 697.72662,369.75125" /><path
       d="m 847.3007,783.6088 h 47.0631 v -54.3475 h -47.0631 z"
       style="fill:#ffffff;fill-opacity:1;fill-rule:nonzero;stroke:none"
       id="path282"
       inkscape:connector-curvature="0" /><path
       d="m 898.9316,785.0019 h 64 V 642.5531 h -64 z"
       style="fill:#ffffff;fill-opacity:1;fill-rule:nonzero;stroke:none"
       id="path284"
       inkscape:connector-curvature="0" /><path
       d="m 938.9316,1002.247 h 62.7574 v -54.3476 h -62.7574 z"
       style="fill:#ffffff;fill-opacity:1;fill-rule:nonzero;stroke:none"
       id="path286"
       inkscape:connector-curvature="0" /><path
       d="m 517.9316,798.2469 h 52.7576 v -54.3475 h -52.7576 z"
       style="fill:#ffffff;fill-opacity:1;fill-rule:nonzero;stroke:none"
       id="path288"
       inkscape:connector-curvature="0" /><path
       d="m 566.5487,506.01 h 62.7575 v -54.3475 h -62.7575 z"
       style="fill:#ffffff;fill-opacity:1;fill-rule:nonzero;stroke:none"
       id="path290"
       inkscape:connector-curvature="0" /><path
       d="m 962.8418,256.6003 h 55.4562 v -54.3475 h -55.4562 z"
       style="fill:#ffffff;fill-opacity:1;fill-rule:nonzero;stroke:none"
       id="path292"
       inkscape:connector-curvature="0" /><path
       d="m 1293.54,355.4212 h 62.758 v -54.3475 h -62.758 z"
       style="fill:#ffffff;fill-opacity:1;fill-rule:nonzero;stroke:none"
       id="path294"
       inkscape:connector-curvature="0" /><path
       d="m 1169.587,441.3825 h 62.757 V 387.035 h -62.757 z"
       style="fill:#ffffff;fill-opacity:1;fill-rule:nonzero;stroke:none"
       id="path296"
       inkscape:connector-curvature="0" /><path
       d="m 1449.773,421.9525 h 52.757 V 367.605 h -52.757 z"
       style="fill:#ffffff;fill-opacity:1;fill-rule:nonzero;stroke:none"
       id="path298"
       inkscape:connector-curvature="0" /><path
       d="m 1480.482,817.9525 h 62.758 V 763.605 h -62.758 z"
       style="fill:#ffffff;fill-opacity:1;fill-rule:nonzero;stroke:none"
       id="path300"
       inkscape:connector-curvature="0" /><path
       d="m 1470.482,1032.953 h 62.758 v -54.348 h -62.758 z"
       style="fill:#ffffff;fill-opacity:1;fill-rule:nonzero;stroke:none"
       id="path302"
       inkscape:connector-curvature="0" /><path
       inkscape:connector-curvature="0"
       id="path306"
       style="fill:none;stroke:#000000;stroke-width:2;stroke-linecap:butt;stroke-linejoin:miter;stroke-miterlimit:4;stroke-dasharray:none;stroke-opacity:1"
       d="m 695.3858,179.9502 v 53.45573 h 5.70913 V 179.9502 Z" /><path
       inkscape:connector-curvature="0"
       id="path310"
       style="fill:none;stroke:#000000;stroke-width:2;stroke-linecap:butt;stroke-linejoin:miter;stroke-miterlimit:4;stroke-dasharray:none;stroke-opacity:1"
       d="m 1326.052,300.9655 v 53.45573 h 5.7091 V 300.9655 Z" /><path
       inkscape:connector-curvature="0"
       id="path314"
       style="fill:none;stroke:#000000;stroke-width:2;stroke-linecap:butt;stroke-linejoin:miter;stroke-miterlimit:4;stroke-dasharray:none;stroke-opacity:1"
       d="m 1017.298,236.3178 h -53.45573 v 5.70913 h 53.45573 z" /><path
       inkscape:connector-curvature="0"
       id="path318"
       style="fill:none;stroke:#000000;stroke-width:2;stroke-linecap:butt;stroke-linejoin:miter;stroke-miterlimit:4;stroke-dasharray:none;stroke-opacity:1"
       d="m 1214.052,387.2355 v 53.45573 h 5.7091 V 387.2355 Z" /><path
       inkscape:connector-curvature="0"
       id="path322"
       style="fill:none;stroke:#000000;stroke-width:2;stroke-linecap:butt;stroke-linejoin:miter;stroke-miterlimit:4;stroke-dasharray:none;stroke-opacity:1"
       d="m 1502.879,398.5096 h -53.4557 v 5.70913 h 53.4557 z" /><path
       inkscape:connector-curvature="0"
       id="path330"
       style="fill:none;stroke:#000000;stroke-width:2;stroke-linecap:butt;stroke-linejoin:miter;stroke-miterlimit:4;stroke-dasharray:none;stroke-opacity:1"
       d="m 1495.152,979.0509 v 53.4557 h 5.7091 v -53.4557 z" /><path
       inkscape:connector-curvature="0"
       id="path334"
       style="fill:none;stroke:#000000;stroke-width:2;stroke-linecap:butt;stroke-linejoin:miter;stroke-miterlimit:4;stroke-dasharray:none;stroke-opacity:1"
       d="m 962.4501,947.8994 v 53.4557 h 5.70913 v -53.4557 z" /><path
       inkscape:connector-curvature="0"
       id="path338"
       style="fill:none;stroke:#000000;stroke-width:5;stroke-linecap:butt;stroke-linejoin:miter;stroke-miterlimit:4;stroke-dasharray:none;stroke-opacity:1"
       d="M 877.0857,1047.667 H 979.7831" /><path
       d="m 895.5601,768.2186 h -53.4557 v 5.7091 h 53.4557 z"
       style="fill:#ffffff;fill-opacity:1;fill-rule:nonzero;stroke:none"
       id="path340"
       inkscape:connector-curvature="0" /><path
       inkscape:connector-curvature="0"
       id="path344"
       style="fill:none;stroke:#000000;stroke-width:2;stroke-linecap:butt;stroke-linejoin:miter;stroke-miterlimit:4;stroke-dasharray:none;stroke-opacity:1"
       d="m 895.5601,768.2186 h -53.45573 v 5.70913 h 53.45573 z" /><path
       d="m 571.6892,768.0421 h -53.4557 v 5.7092 h 53.4557 z"
       style="fill:#ffffff;fill-opacity:1;fill-rule:nonzero;stroke:none"
       id="path346"
       inkscape:connector-curvature="0" /><path
       inkscape:connector-curvature="0"
       id="path350"
       style="fill:none;stroke:#000000;stroke-width:2;stroke-linecap:butt;stroke-linejoin:miter;stroke-miterlimit:4;stroke-dasharray:none;stroke-opacity:1"
       d="m 571.6892,768.0421 h -53.45573 v 5.70913 h 53.45573 z" /><path
       d="m 620.0833,442.5207 -52.0557,60.4441 12.7329,10.9659 52.0557,-60.4442 z"
       style="fill:#ffffff;fill-opacity:1;fill-rule:nonzero;stroke:none"
       id="path352"
       inkscape:connector-curvature="0" /><path
       inkscape:connector-curvature="0"
       id="path356"
       style="fill:none;stroke:#000000;stroke-width:2;stroke-linecap:butt;stroke-linejoin:miter;stroke-miterlimit:4;stroke-dasharray:none;stroke-opacity:1"
       d="m 620.0833,442.5207 -52.05572,60.4442 12.73291,10.96583 52.05572,-60.4442 z" /><path
       inkscape:connector-curvature="0"
       id="path360"
       style="fill:none;stroke:#000000;stroke-width:2;stroke-linecap:butt;stroke-linejoin:miter;stroke-miterlimit:4;stroke-dasharray:none;stroke-opacity:1"
       d="m 581.2935,684.2045 v 80.3328 h 39.7325 v -80.3328 z" /><path
       inkscape:connector-curvature="0"
       id="path364"
       style="fill:none;stroke:#000000;stroke-width:2;stroke-linecap:butt;stroke-linejoin:miter;stroke-miterlimit:4;stroke-dasharray:none;stroke-opacity:1"
       d="m 621.6268,684.6126 v 29.76305 h 88.40185 V 684.6126 Z" /><rect
       style="opacity:0.98000004;fill:#c0c0c0;fill-opacity:1;stroke:#000000;stroke-width:1.72329581;stroke-miterlimit:4;stroke-dasharray:none;stroke-dashoffset:0;stroke-opacity:1"
       id="rect3832"
       width="80.669701"
       height="166.71738"
       x="1768.5393"
       y="-982.58667"
       transform="scale(1,-1)"
       ry="12.999988" /><path
       style="fill:#000000;stroke-width:0.11033979"
       d="m 1756.3745,800.02627 c 0.3391,-0.24078 1.5805,-1.13529 2.7589,-1.98759 1.1783,-0.85249 2.2035,-1.57277 2.2783,-1.60084 0.075,-0.0278 2.2313,0.20243 4.7922,0.51113 7.2264,0.87149 13.1656,1.52294 14.9219,1.63678 2.5331,0.16483 3.1189,0.10637 3.6774,-0.36348 0.3717,-0.31299 1.8728,-1.95762 1.888,-2.06863 0.018,-0.0828 2.5604,-3.29858 4.1337,-5.21327 0.543,-0.66095 1.0589,-1.29068 1.1461,-1.39929 0.2972,-0.37019 3.5078,-3.97557 4.4656,-5.01479 1.0647,-1.15518 0.952,-1.10945 2.6786,-1.08825 1.2056,0.016 2.4308,0.029 3.5578,0.0417 0.4892,0.005 1.2899,0.0141 1.7791,0.0198 0.4894,0.005 1.2899,0.0141 1.779,0.0197 0.4893,0.005 1.2899,0.0142 1.7792,0.0198 0.4891,0.005 1.3023,0.0152 1.8068,0.0192 0.5048,0.005 1.2118,0.0196 1.5715,0.0328 l 0.654,0.0244 -0.2691,1.39785 c -1.6351,8.50609 -1.5743,8.11794 -1.3632,8.71604 0.3179,0.89981 3.177,4.15478 4.2389,4.8257 0.422,0.26654 1.2221,0.44113 7.2458,1.58067 1.1643,0.21966 3.0694,0.58077 4.2338,0.80094 3.0719,0.58119 6.4803,1.19817 8.9351,1.61739 3.052,0.52129 3.6341,0.45478 5.0094,-0.57228 0.8049,-0.60098 2.5243,-2.0624 3.0883,-2.62491 0.2432,-0.24241 0.4786,-0.46088 0.523,-0.48541 0.2014,-0.11096 1.4135,-1.69322 1.6055,-2.09583 0.3216,-0.67451 0.1502,-1.52666 -0.4345,-2.17022 -0.3941,-0.43318 -1.8163,-1.55258 -2.4524,-1.93023 -0.14,-0.0821 -0.5784,-0.3595 -0.9742,-0.61389 -1.4273,-0.9177 -2.0196,-1.10948 -2.6966,-0.87329 -0.2888,0.10124 -1.9391,0.98593 -2.4531,1.31594 -0.1127,0.0727 -0.5395,0.26532 -0.9495,0.42954 l -0.7454,0.29872 -3.4405,-0.49334 c -3.5104,-0.5033 -6.2021,-1.0189 -7.0543,-1.35127 -0.9826,-0.38357 -1.2981,-0.82353 -1.3987,-1.95018 -0.062,-0.69898 0.7109,-5.93253 1.2175,-8.23975 0.1568,-0.71369 0.3705,-1.68681 0.4749,-2.16259 0.1045,-0.47556 0.2179,-0.92478 0.252,-0.99785 0.039,-0.084 0.3074,0.12805 0.7208,0.56789 0.7939,0.84437 2.2387,1.85609 3.2301,2.2621 0.232,0.0939 0.6171,0.2535 0.8558,0.35203 0.5241,0.2167 2.9708,0.56508 3.3413,0.4757 0.1454,-0.0338 0.4945,-0.0974 0.7758,-0.13868 1.2676,-0.18596 2.9509,-1.02721 3.8348,-1.91704 0.2412,-0.24267 0.4692,-0.46228 0.5066,-0.48771 0.3638,-0.24802 1.2368,-1.6221 1.5952,-2.51078 0.2506,-0.62143 0.6743,-3.28504 0.6025,-3.78781 -0.033,-0.23412 -0.092,-0.64305 -0.1292,-0.90838 -0.2881,-2.03125 -1.7266,-4.15251 -3.6202,-5.33861 -0.6457,-0.40446 -0.7728,-0.47165 -1.3764,-0.72702 -0.856,-0.36199 -1.5359,-0.57265 -2.5644,-0.79483 -0.8163,-0.17748 -1.1795,-0.1794 -2.827,-0.0157 -0.1493,0.0154 -0.7496,0.19048 -1.3338,0.39058 -1.162,0.39795 -1.3128,0.42049 -1.2204,0.18345 0.034,-0.0875 0.2176,-0.98934 0.408,-2.00468 0.1905,-1.01523 0.456,-2.39642 0.5902,-3.06908 0.4248,-2.13311 0.1912,-3.14279 -1.3351,-5.774 -1.2148,-2.09405 -1.6312,-2.59356 -2.786,-3.34241 -0.5263,-0.34113 -1.0231,-0.62928 -1.1042,-0.64017 -0.081,-0.0189 -0.1886,-0.0662 -0.2389,-0.12466 -0.05,-0.0584 -0.3039,-0.20142 -0.5634,-0.31969 -0.2594,-0.11937 -0.5166,-0.2532 -0.5715,-0.30002 -0.055,-0.0458 -0.3127,-0.17778 -0.5728,-0.29158 -0.2601,-0.11341 -0.5523,-0.26275 -0.6494,-0.33131 -0.097,-0.0675 -0.2725,-0.13764 -0.3899,-0.15393 -0.1169,-0.023 -0.2374,-0.0834 -0.2664,-0.14716 -0.029,-0.0657 -0.1699,-0.13515 -0.3131,-0.15413 -0.1427,-0.0252 -0.2841,-0.0894 -0.3132,-0.15384 -0.029,-0.0657 -0.1733,-0.13555 -0.321,-0.15541 -0.147,-0.0255 -0.3476,-0.0927 -0.445,-0.1585 -0.173,-0.12036 -1.0715,-0.54508 -2.0123,-0.9519 -0.2604,-0.11242 -0.5666,-0.25594 -0.6805,-0.3188 -0.114,-0.0629 -0.4202,-0.20477 -0.6807,-0.3156 -0.2607,-0.11044 -0.567,-0.25266 -0.681,-0.31542 -0.1138,-0.0639 -0.4203,-0.20498 -0.6806,-0.3158 -0.2607,-0.11044 -0.5916,-0.25605 -0.7356,-0.32287 -0.1441,-0.0664 -0.4751,-0.21194 -0.7356,-0.32286 -0.2605,-0.11043 -0.5914,-0.25624 -0.7355,-0.32307 -0.1438,-0.0674 -0.475,-0.21173 -0.7355,-0.32266 -0.2605,-0.11043 -0.5669,-0.25295 -0.6808,-0.31571 -0.1139,-0.0629 -0.4203,-0.20488 -0.6808,-0.31581 -0.2606,-0.11044 -0.5914,-0.25604 -0.7355,-0.32276 -0.1439,-0.0674 -0.475,-0.21204 -0.7355,-0.32296 -0.2605,-0.11043 -0.5915,-0.25624 -0.7354,-0.32296 -0.1441,-0.0674 -0.4751,-0.21204 -0.7356,-0.32297 -0.2605,-0.11043 -0.5915,-0.25624 -0.7355,-0.32296 -0.144,-0.0674 -0.4749,-0.21203 -0.7354,-0.32295 -0.2606,-0.11044 -0.5915,-0.25645 -0.7356,-0.32298 -0.1439,-0.0674 -0.475,-0.21223 -0.7355,-0.32316 -0.2604,-0.11042 -0.5915,-0.25624 -0.7354,-0.32275 -0.144,-0.0674 -0.4751,-0.21154 -0.7357,-0.32188 -0.2607,-0.11044 -0.5809,-0.25995 -0.7116,-0.33257 -0.1307,-0.0723 -0.5268,-0.17147 -0.8801,-0.21972 -0.612,-0.0831 -0.6624,-0.0693 -1.0677,0.29104 -0.4324,0.38501 -1.7019,2.17866 -2.0235,2.859 -0.097,0.20549 -0.2115,0.62937 -0.2541,0.94199 -0.088,0.64447 0.077,1.09475 0.7424,2.02514 3.2047,4.4831 3.7745,5.17848 4.3021,5.25057 0.2966,0.0402 1.3727,-0.21839 2.6821,-0.64508 1.0816,-0.35228 1.7428,-0.26665 2.6948,0.34957 2.7277,1.76311 5.9783,3.88434 7.5035,4.89655 0.6178,0.41002 1.2579,0.81883 1.4225,0.90827 0.3276,0.17834 0.3271,0.18252 -0.1576,1.70919 -0.094,0.29344 -0.2276,0.72625 -0.2984,0.96161 -0.07,0.23538 -0.2071,0.66778 -0.3024,0.96097 -0.096,0.29313 -0.2835,0.89403 -0.4178,1.33504 -0.1348,0.44109 -0.2824,0.83581 -0.3293,0.87709 -0.047,0.0402 -0.4822,0.0736 -0.9673,0.0724 -1.6571,-0.005 -2.8568,0.003 -4.5057,0.0333 -0.399,0.007 -1.1021,0.0172 -1.5621,0.0216 -0.46,0.005 -1.1624,0.012 -1.5614,0.0178 -0.3989,0.005 -1.0766,0.0143 -1.5058,0.0184 -0.4295,0.007 -1.0571,0.0134 -1.3949,0.0199 -0.5996,0.0113 -1.4047,0.0211 -3.0397,0.0386 -0.4448,0.005 -1.1098,0.0128 -1.4779,0.0175 -0.3683,0.005 -1.0202,0.009 -1.4493,0.0112 -0.4289,0.002 -0.8881,0.02 -1.0202,0.0406 -0.2015,0.0321 -2.1453,-0.83563 -3.0324,-1.35392 -0.1132,-0.0678 -1.2406,-0.62025 -2.5047,-1.23115 -1.2643,-0.61071 -2.3914,-1.16532 -2.5047,-1.23255 -0.1132,-0.0688 -0.7006,-0.35482 -1.3049,-0.63955 -0.6043,-0.28442 -1.1399,-0.56383 -1.1904,-0.621 -0.05,-0.0575 -0.2018,-0.119 -0.3367,-0.13677 -0.1342,-0.0244 -0.2687,-0.086 -0.2976,-0.15191 -0.029,-0.0657 -0.1629,-0.13336 -0.2977,-0.15193 -0.1342,-0.0244 -0.2862,-0.0805 -0.3366,-0.13806 -0.05,-0.0574 -0.4449,-0.27009 -0.8764,-0.47352 -0.4317,-0.20363 -0.8261,-0.41676 -0.8764,-0.47372 -0.05,-0.0575 -0.1809,-0.11602 -0.2899,-0.13159 -0.1081,-0.0222 -0.2893,-0.0898 -0.4005,-0.16596 -0.1113,-0.0757 -0.2934,-0.20124 -0.4046,-0.27782 -0.111,-0.0777 -0.2915,-0.15099 -0.4006,-0.16597 -0.1081,-0.0222 -0.2394,-0.0745 -0.2898,-0.13158 -0.05,-0.0584 -0.3037,-0.20132 -0.5634,-0.3195 -0.2594,-0.11936 -0.5167,-0.25191 -0.5719,-0.29683 -0.056,-0.0449 -0.2885,-0.17131 -0.5185,-0.28076 -0.2301,-0.10985 -0.5342,-0.26824 -0.6758,-0.35282 -0.5078,-0.30393 -0.6779,-0.39565 -1.1928,-0.64399 -0.2873,-0.1389 -0.661,-0.33901 -0.8303,-0.44541 -0.1691,-0.10569 -0.5426,-0.3076 -0.8299,-0.4472 -0.2871,-0.14008 -0.661,-0.33831 -0.8306,-0.44172 -0.1697,-0.10273 -0.4725,-0.27134 -0.673,-0.37346 -0.4004,-0.2034 -0.797,-0.42674 -1.0342,-0.58236 -0.085,-0.0554 -0.3793,-0.2013 -0.6555,-0.3247 -0.5335,-0.23767 -0.6645,-0.42874 -0.7949,-1.15939 -0.08,-0.44694 -0.1193,-0.62181 -0.2724,-1.20636 -0.042,-0.15888 -0.1114,-0.4691 -0.1549,-0.68927 -0.043,-0.22034 -0.1134,-0.53049 -0.1549,-0.68937 -0.1089,-0.41509 -0.1728,-0.6948 -0.2627,-1.14944 -0.043,-0.22024 -0.1133,-0.53048 -0.1548,-0.68926 -0.1089,-0.41509 -0.1728,-0.6947 -0.2627,-1.14923 -0.091,-0.458 -0.1548,-0.73854 -0.2631,-1.14957 -0.082,-0.31158 -0.325,-1.41435 -0.3895,-1.76818 -0.036,-0.20392 -0.1176,-0.22244 -1.3332,-0.30475 -0.7115,-0.0473 -2.0103,-0.15557 -2.8867,-0.23197 l -1.5927,-0.15024 -0.1374,0.42661 c -0.1264,0.39462 -0.3015,1.13446 -1.0189,4.31558 -0.1473,0.65359 -0.3921,1.72262 -0.5438,2.37583 -0.3127,1.34607 -0.663,2.88426 -1.07,4.69824 -0.1529,0.68351 -0.3316,1.43599 -0.3963,1.67217 -0.064,0.23629 -0.2053,0.86845 -0.3124,1.40511 l -0.1944,0.97556 0.3363,0.20196 c 0.185,0.11104 0.682,0.42259 1.1045,0.6924 1.6963,1.08345 2.0143,1.28466 2.4093,1.52392 0.4388,0.26617 0.8457,0.5242 2.4438,1.54964 0.5544,0.35566 1.0252,0.64913 1.046,0.6519 0.021,0.002 0.5128,0.31229 1.0933,0.68733 0.5802,0.37511 1.2397,0.7966 1.4656,0.93661 0.226,0.14001 0.6874,0.43158 1.0254,0.64764 0.5821,0.37237 1.0787,0.68469 2.2565,1.41963 0.6219,0.38829 1.4824,0.93643 2.5103,1.59904 0.4223,0.27229 0.9873,0.63046 1.2556,0.79605 0.2684,0.16548 0.7076,0.4364 0.9759,0.60199 0.2683,0.16519 0.7645,0.47767 1.1025,0.69403 0.338,0.21616 0.7996,0.50544 1.0259,0.64267 0.2264,0.13744 0.7339,0.45831 1.1278,0.71364 0.3939,0.25533 0.9359,0.5989 1.2044,0.76329 0.9393,0.57571 1.4691,0.90459 2.1047,1.30739 l 0.6407,0.40585 -0.069,0.50665 c -0.059,0.4335 -0.993,2.53079 -1.4459,3.24735 -0.072,0.11216 -0.6211,1.21543 -1.2218,2.45034 -0.6008,1.23501 -1.1522,2.32429 -1.2253,2.42065 -0.074,0.0969 -0.1461,0.27141 -0.1621,0.38898 -0.021,0.11642 -0.082,0.23741 -0.1477,0.26646 -0.065,0.0286 -0.1338,0.16437 -0.1525,0.30109 -0.023,0.13645 -0.07,0.27673 -0.1145,0.31052 -0.073,0.056 -0.5648,0.98497 -1.191,2.25184 -0.568,1.14918 -1.2215,2.05667 -1.5671,2.17606 -0.3397,0.1174 -1.5515,0.0432 -5.3563,-0.32798 -1.511,-0.14732 -4.0086,-0.39043 -5.5499,-0.54132 -1.5414,-0.14991 -4.1124,-0.40526 -5.7134,-0.56725 -3.9439,-0.39798 -4.5155,-0.41639 -4.7925,-0.15659 -0.1213,0.11305 -0.2335,0.2935 -0.2493,0.39915 -0.015,0.1069 -0.088,0.27144 -0.1608,0.36791 -0.072,0.097 -0.4165,0.76302 -0.764,1.4812 -0.3476,0.71827 -0.685,1.39877 -0.7499,1.5126 -0.2103,0.36883 -0.6404,1.23576 -0.8799,1.77323 -0.1287,0.28875 -0.2911,0.61729 -0.3609,0.73019 -0.07,0.11362 -0.2131,0.39419 -0.3183,0.62492 -0.105,0.23065 -0.2454,0.51208 -0.3114,0.62561 -0.066,0.11395 -0.6232,1.23311 -1.2382,2.48819 -1.0304,2.10278 -1.1049,2.29437 -0.95,2.44381 0.159,0.1532 1.6351,0.89168 3.2541,1.62835 0.4038,0.18361 0.8135,0.3897 0.9106,0.45785 0.4196,0.29475 0.8742,0.22796 1.5072,-0.22182 z m -2.4479,-2.10477 c -0.5029,-0.3527 -0.9298,-0.67606 -0.9488,-0.71902 -0.032,-0.072 1.3363,-2.9359 1.6264,-3.40485 0.07,-0.11232 0.2131,-0.39409 0.3183,-0.62481 0.105,-0.23065 0.2437,-0.51243 0.3076,-0.62623 0.064,-0.11409 0.4714,-0.93519 0.9054,-1.82547 0.434,-0.89008 0.8385,-1.68693 0.8987,-1.77063 0.06,-0.0842 0.2108,-0.37914 0.3346,-0.65686 0.3783,-0.84795 0.3844,-0.84933 2.8966,-0.59435 10.0662,1.02161 16.7586,1.61435 17.6945,1.56713 0.56,-0.0277 1.0608,-0.22248 1.4114,-0.54759 0.2978,-0.27591 1.1547,-1.5524 1.649,-2.45614 0.1424,-0.26039 0.3582,-0.641 0.5715,-1.00798 0.3124,-0.5375 0.4302,-0.7507 0.7587,-1.37204 0.1812,-0.3428 0.3823,-0.71634 0.4469,-0.82998 0.065,-0.11404 0.2,-0.37082 0.301,-0.5714 0.1007,-0.20069 0.2379,-0.45761 0.3045,-0.57109 0.067,-0.11265 0.2693,-0.51175 0.4508,-0.88494 0.1814,-0.37359 0.386,-0.77162 0.4546,-0.88482 0.069,-0.11365 0.2108,-0.39448 0.3161,-0.62511 0.1044,-0.2305 0.257,-0.53548 0.3373,-0.67769 0.2835,-0.50182 0.3738,-0.68424 0.8778,-1.77342 0.2798,-0.605 0.5646,-1.17938 0.6327,-1.27656 0.068,-0.0974 0.1336,-0.25161 0.1467,-0.34333 0.01,-0.0927 0.079,-0.24627 0.1466,-0.34343 0.068,-0.0974 0.2866,-0.53016 0.4854,-0.9624 0.1987,-0.43254 0.408,-0.82725 0.4651,-0.8776 0.057,-0.0504 0.1257,-0.25168 0.1526,-0.4473 0.042,-0.30565 0,-0.38909 -0.3367,-0.5936 -0.7186,-0.44437 -2.3796,-1.50616 -3.9823,-2.54563 -0.4011,-0.26015 -1.0463,-0.6736 -1.4339,-0.91876 -0.3875,-0.24526 -1.1186,-0.71718 -1.6246,-1.04896 -0.5059,-0.33178 -1.2885,-0.84049 -1.739,-1.13052 -2.0234,-1.3026 -2.3943,-1.54072 -3.0207,-1.93963 -0.3664,-0.23312 -1.126,-0.72644 -1.688,-1.09619 -0.5621,-0.36977 -1.3791,-0.90157 -1.8155,-1.18209 -1.777,-1.14128 -2.4231,-1.55871 -3.3006,-2.13239 -0.5062,-0.33079 -1.2774,-0.83131 -1.7139,-1.11183 -0.4363,-0.28061 -1.1504,-0.73995 -1.5868,-1.02056 -0.4365,-0.28072 -1.0934,-0.70018 -1.4599,-0.93231 -1.4168,-0.89724 -1.5854,-1.04273 -1.5251,-1.3153 0.031,-0.14027 0.201,-0.91167 0.3775,-1.71461 0.4208,-1.91207 0.8082,-3.65425 1.1537,-5.18812 0.1538,-0.68324 0.4158,-1.85037 0.5817,-2.59319 0.6958,-3.11482 0.642,-2.95078 0.9834,-2.99366 0.1689,-0.0208 0.8371,0.0159 1.4847,0.0849 l 1.1777,0.12305 0.1133,0.51603 c 0.063,0.28385 0.1374,0.61944 0.1665,0.74606 0.028,0.12694 0.082,0.38414 0.1184,0.57276 0.036,0.18859 0.091,0.44672 0.1228,0.57354 0.032,0.12723 0.093,0.41086 0.1368,0.63114 0.096,0.48463 0.2024,0.90756 0.2976,1.18059 0.039,0.11146 0.06,0.27808 0.047,0.36985 -0.01,0.0927 0.011,0.25868 0.052,0.37054 0.041,0.11287 0.1385,0.50051 0.2164,0.8632 0.078,0.3628 0.2054,0.9565 0.2835,1.3193 0.078,0.3627 0.1752,0.75121 0.2163,0.86319 0.041,0.11296 0.067,0.26151 0.057,0.33218 -0.01,0.0697 0.039,0.32565 0.1084,0.56639 0.1177,0.40953 0.1869,0.46739 1.0745,0.8986 1.0658,0.51759 1.8892,0.93142 2.1976,1.10402 0.1136,0.0648 0.5124,0.26428 0.8857,0.4458 0.3734,0.18143 0.7713,0.38652 0.8844,0.45604 0.113,0.0698 0.6522,0.34168 1.1982,0.6051 0.5459,0.26382 1.0715,0.53846 1.168,0.61088 0.097,0.0725 0.2505,0.14199 0.3424,0.15361 0.091,0.0208 0.258,0.0851 0.3693,0.1617 0.1113,0.0757 0.2933,0.20133 0.4046,0.27782 0.1112,0.0757 0.2773,0.14939 0.3692,0.1618 0.091,0.0208 0.2459,0.0811 0.3424,0.15362 0.097,0.0725 0.6223,0.34617 1.1683,0.60849 0.546,0.26262 1.0718,0.53647 1.1684,0.60869 0.097,0.0725 0.2647,0.1433 0.3737,0.15857 0.1081,0.0222 0.2394,0.0745 0.2899,0.13149 0.05,0.0584 0.3038,0.20142 0.5632,0.31969 0.2594,0.11936 0.5169,0.25202 0.5721,0.29694 0.056,0.0449 0.2885,0.17131 0.5185,0.28066 0.2301,0.10985 0.5114,0.25155 0.6251,0.3157 0.1137,0.0649 0.3955,0.20278 0.6262,0.30807 0.2306,0.10488 0.5119,0.24748 0.6251,0.3161 0.1131,0.0688 0.5112,0.27321 0.8846,0.45464 0.3733,0.18132 0.7715,0.38603 0.8845,0.45463 0.1131,0.0688 0.5114,0.27233 0.885,0.45257 0.3734,0.18034 0.758,0.3863 0.8547,0.45793 0.097,0.0725 0.2507,0.14081 0.3426,0.15243 0.091,0.0208 0.246,0.0811 0.3427,0.15232 0.097,0.0715 0.4813,0.2776 0.8547,0.45803 0.3736,0.18025 0.7719,0.38365 0.8851,0.45198 0.4045,0.24408 1.7706,0.9358 2.0312,1.02867 0.1459,0.0525 0.3101,0.13451 0.3647,0.1843 0.4651,0.42185 1.3948,0.58888 2.9891,0.53713 1.0143,-0.0334 1.919,-0.0674 2.6306,-0.1 0.3698,-0.0168 0.9745,-0.0418 1.3437,-0.0547 0.3693,-0.0128 0.9236,-0.0349 1.2318,-0.0497 0.3084,-0.015 0.862,-0.0325 1.2305,-0.0405 0.3686,-0.008 0.9475,-0.0278 1.2865,-0.0422 0.339,-0.0154 0.9436,-0.0394 1.3437,-0.0543 0.4,-0.0142 0.9544,-0.0372 1.2316,-0.0497 1.2091,-0.0564 1.9987,-0.0884 2.5196,-0.10198 0.3073,-0.008 0.8866,-0.0292 1.2871,-0.0473 0.4006,-0.0192 0.9927,-0.0421 1.3157,-0.0536 0.3232,-0.0117 0.8526,-0.0345 1.176,-0.0491 0.3238,-0.0167 0.7896,-0.0323 1.0354,-0.0387 0.6157,-0.014 0.8164,-0.18131 1.0008,-0.83194 0.087,-0.30766 0.2344,-0.79954 0.3272,-1.09315 0.092,-0.29353 0.2574,-0.82227 0.3658,-1.17516 0.1089,-0.35256 0.2971,-0.95329 0.4189,-1.33476 0.6298,-1.97029 0.9988,-3.31049 0.958,-3.47985 -0.017,-0.0677 -0.1326,-0.1924 -0.2578,-0.27579 -0.1256,-0.0819 -0.6842,-0.48109 -1.2418,-0.88399 -2.7772,-2.00677 -7.132,-5.02078 -8.0898,-5.59906 -1.5265,-0.9212 -1.7499,-1.02486 -2.4077,-1.11563 -0.639,-0.0873 -0.9795,0.0212 -2.9386,0.94495 -0.4398,0.20736 -0.863,0.36844 -0.9405,0.35784 -0.1731,-0.0277 -2.0506,-2.67139 -2.9718,-4.19135 -0.2224,-0.36723 -0.4613,-0.74639 -0.5309,-0.84252 -0.2214,-0.30652 0.1906,-1.5979 0.8208,-2.57009 0.2596,-0.40048 0.3488,-0.45854 0.6848,-0.44467 0.3463,0.0143 0.5643,0.089 1.4896,0.51833 0.144,0.0674 0.475,0.21184 0.7355,0.32296 0.2605,0.11043 0.5914,0.25625 0.7355,0.32297 0.144,0.0674 0.475,0.21203 0.7355,0.32296 0.2606,0.11044 0.5914,0.25624 0.7355,0.32296 0.1439,0.0674 0.475,0.21194 0.7355,0.32287 0.2605,0.11042 0.5671,0.25166 0.6811,0.31292 0.2025,0.10852 0.4461,0.21911 1.4161,0.64117 0.2601,0.1134 0.7556,0.33881 1.1008,0.50159 0.3454,0.1627 0.7698,0.35739 0.9433,0.43273 1.056,0.45815 1.318,0.57523 1.837,0.8198 0.3166,0.14891 0.7886,0.363 1.0489,0.47512 0.2603,0.11241 0.5912,0.25812 0.7351,0.32494 0.1441,0.0664 0.4751,0.21183 0.7357,0.32277 0.2605,0.11043 0.5669,0.25165 0.6811,0.31293 0.2024,0.1085 0.4459,0.2191 1.416,0.64115 0.2603,0.11342 0.7321,0.3276 1.0486,0.47659 0.3166,0.14891 0.9294,0.43216 1.362,0.62935 0.4324,0.19728 0.8796,0.40986 0.9934,0.47231 0.114,0.0629 0.4205,0.20429 0.6809,0.31512 0.2607,0.11044 0.5669,0.25255 0.6808,0.31551 0.1141,0.0629 0.42,0.20766 0.68,0.32196 0.2599,0.1154 0.514,0.25478 0.5643,0.31245 0.051,0.0585 0.176,0.11559 0.2789,0.13055 0.5025,0.0687 1.4457,0.92057 2.2602,2.04157 0.9419,1.29661 1.4524,2.25261 1.8028,3.37668 l 0.237,0.76016 -0.2803,1.481 c -0.154,0.8144 -0.4476,2.35991 -0.6516,3.4346 -0.2034,1.07474 -0.5278,2.87205 -0.7194,3.99437 -0.3014,1.76684 -0.3261,2.04354 -0.1864,2.06282 0.2098,0.0309 0.8299,-0.28102 1.7917,-0.89477 1.9933,-1.27197 3.447,-1.62058 5.5578,-1.33292 2.2093,0.30083 3.3145,0.94199 4.6442,2.69253 0.8115,1.06856 1.0838,1.6297 1.36,2.80296 0.059,0.24828 0.033,0.84329 -0.065,1.55024 -0.1913,1.34996 -0.5446,2.137 -1.3997,3.0911 -0.7072,0.78911 -1.2098,1.15743 -2.0648,1.51359 -1.31,0.54576 -2.0985,0.65055 -3.4792,0.4622 -1.622,-0.22198 -2.5918,-0.62544 -3.8412,-1.60211 -0.6194,-0.48402 -1.8388,-1.98613 -2.4719,-3.04467 -0.5531,-0.92509 -0.6597,-1.01322 -0.8456,-0.70003 -0.127,0.21363 -0.4378,1.50949 -0.8997,3.74724 -0.1835,0.89368 -0.4872,2.35563 -0.673,3.24912 -0.1858,0.89339 -0.5718,3.14582 -0.8578,5.00559 -0.5067,3.29635 -0.5739,4.21065 -0.351,4.8228 0.04,0.11156 0.063,0.28006 0.051,0.37403 -0.04,0.2901 0.8492,1.35327 1.2505,1.49602 0.6091,0.21679 2.4911,0.60937 5.3533,1.11686 1.4951,0.2652 3.3873,0.60805 4.2048,0.76195 2.5397,0.47821 3.4364,0.381 5.4606,-0.5934 0.5898,-0.28373 1.2725,-0.63515 1.5171,-0.78109 0.2943,-0.17574 0.5694,-0.24823 0.8152,-0.21461 0.3098,0.0423 1.6838,0.82546 2.3933,1.36439 0.1044,0.0791 0.3394,0.25713 0.5215,0.39492 1.1153,0.84305 1.3448,1.25835 1.0157,1.83809 -0.2368,0.41697 -1.4145,1.74 -1.8309,2.05643 -0.034,0.0262 -0.4487,0.38091 -0.9211,0.78891 -0.9251,0.79872 -2.1569,1.54241 -2.9936,1.80729 -0.4596,0.14536 -0.6331,0.14037 -1.4747,-0.0439 -0.5248,-0.11378 -2.6305,-0.4826 -4.6794,-0.81999 -6.9366,-1.14146 -15.0332,-2.67804 -16.0062,-3.03771 -0.2476,-0.0913 -0.6349,-0.32828 -0.8606,-0.52628 -0.5604,-0.49155 -1.9062,-2.20592 -2.3789,-3.03015 l -0.3878,-0.67601 0.3873,-2.62796 c 0.2131,-1.44516 0.5047,-3.13797 0.6483,-3.76155 0.1446,-0.62341 0.3934,-1.91088 0.5549,-2.86082 l 0.2935,-1.72706 -1.0184,-0.0744 c -0.5609,-0.0346 -1.4807,-0.0855 -2.0454,-0.0993 -0.5647,-0.0138 -1.4763,-0.035 -2.0256,-0.0487 -0.5496,-0.0125 -1.4483,-0.0366 -1.9979,-0.0487 -0.5494,-0.0135 -1.4608,-0.0357 -2.0254,-0.0499 -0.5646,-0.0148 -1.4512,-0.0369 -1.97,-0.049 -1.9424,-0.0491 -2.8551,-0.0612 -5.2795,-0.074 -1.1603,-0.005 -1.3499,0.11214 -2.708,1.68652 -0.6729,0.78028 -1.2698,1.46235 -1.3262,1.51587 -0.1259,0.11978 -1.0925,1.25169 -1.8736,2.1945 -0.3192,0.38528 -0.8989,1.07001 -1.2882,1.5216 -0.3892,0.4517 -0.7119,0.85104 -0.7168,0.88735 0,0.0359 -0.12,0.18412 -0.2545,0.32836 -0.1349,0.14421 -0.3692,0.4263 -0.5204,0.62704 -0.5824,0.77251 -0.642,0.84814 -0.7052,0.89346 -0.065,0.0477 -1.5288,1.94346 -2.216,2.87167 -1.3217,1.78551 -2.2726,2.67256 -2.9086,2.71352 -0.7197,0.0471 -5.3078,-0.43747 -13.3795,-1.43742 -4.4948,-0.55163 -8.4305,-1.00391 -8.7458,-1.00498 -0.5557,-0.003 -0.6191,0.0327 -2.0418,1.14733 -1.5882,1.24333 -3.2446,2.57421 -3.5348,2.84012 -0.2864,0.26251 -0.616,0.15194 -1.5954,-0.53485 z"
       id="path3815"
       inkscape:connector-curvature="0" /><path
       style="opacity:0.98000004;fill:#a5a5a5;fill-opacity:1;stroke:#000000;stroke-width:1.72329581;stroke-miterlimit:4;stroke-dasharray:none;stroke-dashoffset:0;stroke-opacity:1"
       d="m 1837.598,983.06038 c -1.1411,0 -2.2392,-0.1697 -3.2795,-0.47375 h -52.5603 c -6.5549,0 -11.8327,-5.27772 -11.8327,-11.83267 0,-6.55496 5.2778,-11.83085 11.8327,-11.83085 h 44.2293 V 839.53318 h -44.2293 c -6.5549,0 -11.8327,-5.27772 -11.8327,-11.83268 0,-6.55495 5.2778,-11.83083 11.8327,-11.83083 h 55.6195 c 0.037,0 0.073,0.005 0.1102,0.006 0.037,-3.5e-4 0.073,-0.006 0.1101,-0.006 6.4323,0 11.6104,5.17824 11.6104,11.61049 v 0.22034 143.05346 0.69592 c 0,6.43225 -5.1781,11.6105 -11.6104,11.6105 z"
       id="rect3834"
       inkscape:connector-curvature="0" /></g></svg>