<?xml version="1.0" encoding="UTF-8" standalone="no"?>
<!-- Created with Inkscape (http://www.inkscape.org/) -->

<svg
   xmlns:dc="http://purl.org/dc/elements/1.1/"
   xmlns:cc="http://creativecommons.org/ns#"
   xmlns:rdf="http://www.w3.org/1999/02/22-rdf-syntax-ns#"
   xmlns:svg="http://www.w3.org/2000/svg"
   xmlns="http://www.w3.org/2000/svg"
   xmlns:sodipodi="http://sodipodi.sourceforge.net/DTD/sodipodi-0.dtd"
   xmlns:inkscape="http://www.inkscape.org/namespaces/inkscape"
   id="svg2"
   version="1.1"
   inkscape:version="0.92.2 5c3e80d, 2017-08-06"
   xml:space="preserve"
   width="1806.3627"
   height="1171.6284"
   viewBox="0 0 1693.465 1098.4016"
   sodipodi:docname="id-software-office-mesquite.svg"><metadata
     id="metadata8"><rdf:RDF><cc:Work
         rdf:about=""><dc:format>image/svg+xml</dc:format><dc:type
           rdf:resource="http://purl.org/dc/dcmitype/StillImage" /><dc:title></dc:title></cc:Work></rdf:RDF></metadata><defs
     id="defs6"><clipPath
       clipPathUnits="userSpaceOnUse"
       id="clipPath22"><path
         d="M 0,0 H 1920 V 1080 H 0 Z"
         id="path24"
         inkscape:connector-curvature="0" /></clipPath><clipPath
       clipPathUnits="userSpaceOnUse"
       id="clipPath212"><path
         d="m 1303.128,486.0355 125.246,72.3999 18.954,-32.7899 -125.246,-72.4 z"
         id="path214"
         inkscape:connector-curvature="0" /></clipPath><clipPath
       clipPathUnits="userSpaceOnUse"
       id="clipPath218"><path
         d="M 0,0 H 1920 V 1080 H 0 Z"
         id="path220"
         inkscape:connector-curvature="0" /></clipPath><clipPath
       clipPathUnits="userSpaceOnUse"
       id="clipPath232"><path
         d="M 0,0 H 1920 V 1080 H 0 Z"
         id="path234"
         inkscape:connector-curvature="0" /></clipPath></defs><sodipodi:namedview
     pagecolor="#ffffff"
     bordercolor="#666666"
     borderopacity="1"
     objecttolerance="10"
     gridtolerance="10"
     guidetolerance="10"
     inkscape:pageopacity="0"
     inkscape:pageshadow="2"
     inkscape:window-width="1344"
     inkscape:window-height="769"
     id="namedview4"
     showgrid="false"
     inkscape:zoom="1.2074166"
     inkscape:cx="1751.8538"
     inkscape:cy="888.08263"
     inkscape:window-x="0"
     inkscape:window-y="0"
     inkscape:window-maximized="0"
     inkscape:current-layer="g10"
     fit-margin-top="0"
     fit-margin-left="0"
     fit-margin-right="0"
     fit-margin-bottom="0" /><g
     id="g10"
     inkscape:groupmode="layer"
     inkscape:label="id-software-office-mesquite"
     transform="matrix(1.25,0,0,-1.25,-626.1915,1313.4)"><path
       inkscape:connector-curvature="0"
       id="path30"
       style="fill:none;stroke:#000000;stroke-width:5;stroke-linecap:butt;stroke-linejoin:miter;stroke-miterlimit:4;stroke-dasharray:none;stroke-opacity:1"
       d="m 1217.518,1048.22 h 286.1175 V 898.785 H 1217.518 Z" /><path
       inkscape:connector-curvature="0"
       id="path34"
       style="fill:none;stroke:#000000;stroke-width:5;stroke-linecap:butt;stroke-linejoin:miter;stroke-miterlimit:4;stroke-dasharray:none;stroke-opacity:1"
       d="m 1217.518,897.7175 h 286.1175 V 745.2825 H 1217.518 Z" /><path
       inkscape:connector-curvature="0"
       id="path38"
       style="fill:none;stroke:#000000;stroke-width:5;stroke-linecap:butt;stroke-linejoin:miter;stroke-miterlimit:4;stroke-dasharray:none;stroke-opacity:1"
       d="m 1396.646,401.7187 h 456.5514 V 174.9671 H 1396.646 Z" /><path
       inkscape:connector-curvature="0"
       id="path42"
       style="fill:none;stroke:#000000;stroke-width:5;stroke-linecap:butt;stroke-linejoin:miter;stroke-miterlimit:4;stroke-dasharray:none;stroke-opacity:1"
       d="m 1053.321,370.6775 h 275.0516 v -131.82 H 1053.321 Z" /><path
       inkscape:connector-curvature="0"
       id="path46"
       style="fill:none;stroke:#000000;stroke-width:5;stroke-linecap:butt;stroke-linejoin:miter;stroke-miterlimit:4;stroke-dasharray:none;stroke-opacity:1"
       d="m 964.55,588.5675 h 252.885 V 371.105 H 964.55 Z" /><path
       inkscape:connector-curvature="0"
       id="path50"
       style="fill:none;stroke:#000000;stroke-width:5;stroke-linecap:butt;stroke-linejoin:miter;stroke-miterlimit:4;stroke-dasharray:none;stroke-opacity:1"
       d="m 1217.11,747.7344 h 341.3775 V 543.7494 H 1217.11 Z" /><path
       d="m 1497.934,1048.22 h 355.291 V 402.5219 h -355.291 z"
       style="fill:#ffffff;fill-opacity:1;fill-rule:nonzero;stroke:none"
       id="path52"
       inkscape:connector-curvature="0" /><path
       inkscape:connector-curvature="0"
       id="path56"
       style="fill:none;stroke:#000000;stroke-width:5;stroke-linecap:butt;stroke-linejoin:miter;stroke-miterlimit:4;stroke-dasharray:none;stroke-opacity:1"
       d="m 1497.934,1048.22 h 355.2912 V 402.5219 H 1497.934 Z" /><path
       d="M 936.5388,647.7175 H 1254.098 V 587.35 H 936.5388 Z"
       style="fill:#ffffff;fill-opacity:1;fill-rule:nonzero;stroke:none"
       id="path58"
       inkscape:connector-curvature="0" /><path
       inkscape:connector-curvature="0"
       id="path62"
       style="fill:none;stroke:#000000;stroke-width:5;stroke-linecap:butt;stroke-linejoin:miter;stroke-miterlimit:4;stroke-dasharray:none;stroke-opacity:1"
       d="m 936.5388,647.7175 h 317.5587 V 587.35001 H 936.5388 Z" /><path
       d="m 1219.742,744.9637 h 310.901 v -339.68 h -310.901 z"
       style="fill:#ffffff;fill-opacity:1;fill-rule:nonzero;stroke:none"
       id="path64"
       inkscape:connector-curvature="0" /><text
       id="text68"
       style="font-variant:normal;font-weight:normal;line-height:0%;font-family:Georgia;-inkscape-font-specification:Georgia;writing-mode:lr-tb;fill:#000000;fill-opacity:1;fill-rule:nonzero;stroke:none"
       transform="scale(1,-1)"
       x="1031"
       y="-467"><tspan
         id="tspan70"
         sodipodi:role="line"
         y="-467"
         x="1031 1055.3005 1065.5555 1077.6375 1093.531 1113.901 1130.8199"
         style="font-size:35px;line-height:1.25">Kitchen</tspan></text>
<text
       id="text74"
       style="font-variant:normal;font-weight:normal;line-height:0%;font-family:Georgia;-inkscape-font-specification:Georgia;writing-mode:lr-tb;fill:#000000;fill-opacity:1;fill-rule:nonzero;stroke:none"
       transform="scale(1,-1)"
       x="1111"
       y="-318"><tspan
         id="tspan76"
         sodipodi:role="line"
         y="-318"
         x="1111 1132.028 1146.6469 1172.1987 1186.2086 1193.2004 1213.5614 1229.1953 1244.8292"
         style="font-size:29px;line-height:1.25">Game Room</tspan></text>
<text
       id="text80"
       style="font-variant:normal;font-weight:normal;line-height:0%;font-family:Georgia;-inkscape-font-specification:Georgia;writing-mode:lr-tb;fill:#000000;fill-opacity:1;fill-rule:nonzero;stroke:none"
       transform="scale(1,-1)"
       x="1302"
       y="-813"><tspan
         id="tspan82"
         sodipodi:role="line"
         y="-813"
         x="1302 1326.5594 1345.4141 1376.2385 1393.168 1407.5074"
         style="font-size:35px;line-height:1.25">Romero</tspan></text>
<text
       id="text86"
       style="font-variant:normal;font-weight:normal;line-height:0%;font-family:Georgia;-inkscape-font-specification:Georgia;writing-mode:lr-tb;fill:#000000;fill-opacity:1;fill-rule:nonzero;stroke:none"
       transform="scale(1,-1)"
       x="1289"
       y="-963"><tspan
         id="tspan88"
         sodipodi:role="line"
         y="-963"
         x="1289 1311.4735 1329.1169 1343.4705 1374.309 1391.9525 1407.8459"
         style="font-size:35px;line-height:1.25">Carmack</tspan></text>
<text
       id="text92"
       style="font-variant:normal;font-weight:normal;line-height:0%;font-family:Georgia;-inkscape-font-specification:Georgia;writing-mode:lr-tb;fill:#000000;fill-opacity:1;fill-rule:nonzero;stroke:none"
       transform="scale(1,-1)"
       x="1508"
       y="-224"><tspan
         id="tspan94"
         sodipodi:role="line"
         y="-224"
         x="1508 1532.3005 1549.2195 1566.6005 1576.8555"
         style="font-size:35px;line-height:1.25">Kevin</tspan></text>
<text
       id="text98"
       style="font-variant:normal;font-weight:normal;line-height:0%;font-family:Georgia;-inkscape-font-specification:Georgia;writing-mode:lr-tb;fill:#000000;fill-opacity:1;fill-rule:nonzero;stroke:none"
       transform="scale(1,-1)"
       x="1676"
       y="-224"><tspan
         id="tspan100"
         sodipodi:role="line"
         y="-224"
         x="1676 1699.4814 1719.5785 1733.918 1744.173 1761.8094"
         style="font-size:35px;line-height:1.25">Adrian</tspan></text>
<text
       id="text104"
       style="font-variant:normal;font-weight:normal;line-height:0%;font-family:Georgia;-inkscape-font-specification:Georgia;writing-mode:lr-tb;fill:#000000;fill-opacity:1;fill-rule:nonzero;stroke:none"
       transform="scale(1,-1)"
       x="1615.6003"
       y="-467"><tspan
         id="tspan106"
         sodipodi:role="line"
         y="-467"
         x="1615.6003 1637.2549 1656.1233 1686.9548 1703.3594 1722.9944 1740.6309 1761.3088 1781.4059"
         style="font-size:35px;line-height:1.25">Tom/Sandy</tspan></text>
<text
       id="text110"
       style="font-variant:normal;font-weight:normal;line-height:0%;font-family:Georgia;-inkscape-font-specification:Georgia;writing-mode:lr-tb;fill:#000000;fill-opacity:1;fill-rule:nonzero;stroke:none"
       transform="scale(1,-1)"
       x="1716"
       y="-647"><tspan
         id="tspan112"
         sodipodi:role="line"
         y="-647"
         x="1716 1742.215 1759.8516 1777.2325"
         style="font-size:35px;line-height:1.25">Dave</tspan></text>
<path
       inkscape:connector-curvature="0"
       id="path116"
       style="fill:none;stroke:#000000;stroke-width:2;stroke-linecap:butt;stroke-linejoin:miter;stroke-miterlimit:4;stroke-dasharray:none;stroke-opacity:1"
       d="m 1478.61,216.0284 h 145.4175 V 176.2959 H 1478.61 Z" /><path
       inkscape:connector-curvature="0"
       id="path120"
       style="fill:none;stroke:#000000;stroke-width:2;stroke-linecap:butt;stroke-linejoin:miter;stroke-miterlimit:4;stroke-dasharray:none;stroke-opacity:1"
       d="m 1662.61,216.6285 h 145.4175 V 176.896 H 1662.61 Z" /><path
       inkscape:connector-curvature="0"
       id="path124"
       style="fill:none;stroke:#000000;stroke-width:2;stroke-linecap:butt;stroke-linejoin:miter;stroke-miterlimit:4;stroke-dasharray:none;stroke-opacity:1"
       d="M 967.0525,371.3735 V 516.791 h 39.7325 V 371.3735 Z" /><path
       inkscape:connector-curvature="0"
       id="path128"
       style="fill:none;stroke:#000000;stroke-width:2;stroke-linecap:butt;stroke-linejoin:miter;stroke-miterlimit:4;stroke-dasharray:none;stroke-opacity:1"
       d="M 1810.892,406.1275 V 551.545 h 39.7325 V 406.1275 Z" /><path
       inkscape:connector-curvature="0"
       id="path132"
       style="fill:none;stroke:#000000;stroke-width:2;stroke-linecap:butt;stroke-linejoin:miter;stroke-miterlimit:4;stroke-dasharray:none;stroke-opacity:1"
       d="m 1662.85,447.5812 h 145.4175 V 407.8487 H 1662.85 Z" /><path
       inkscape:connector-curvature="0"
       id="path136"
       style="fill:none;stroke:#000000;stroke-width:2;stroke-linecap:butt;stroke-linejoin:miter;stroke-miterlimit:4;stroke-dasharray:none;stroke-opacity:1"
       d="m 1707.57,550.8237 h 100.6974 V 511.0912 H 1707.57 Z" /><path
       inkscape:connector-curvature="0"
       id="path140"
       style="fill:none;stroke:#000000;stroke-width:2;stroke-linecap:butt;stroke-linejoin:miter;stroke-miterlimit:4;stroke-dasharray:none;stroke-opacity:1"
       d="M 1814.492,578.3335 V 723.751 h 39.7325 V 578.3335 Z" /><path
       inkscape:connector-curvature="0"
       id="path144"
       style="fill:none;stroke:#000000;stroke-width:2;stroke-linecap:butt;stroke-linejoin:miter;stroke-miterlimit:4;stroke-dasharray:none;stroke-opacity:1"
       d="m 967.0525,520.1635 v 65.3475 h 53.735 v -65.3475 z" /><path
       inkscape:connector-curvature="0"
       id="path148"
       style="fill:none;stroke:#000000;stroke-width:2;stroke-linecap:butt;stroke-linejoin:miter;stroke-miterlimit:4;stroke-dasharray:none;stroke-opacity:1"
       d="m 1118.138,286.1681 h 145.4175 V 246.4356 H 1118.138 Z" /><path
       inkscape:connector-curvature="0"
       id="path152"
       style="fill:none;stroke:#000000;stroke-width:2;stroke-linecap:butt;stroke-linejoin:miter;stroke-miterlimit:4;stroke-dasharray:none;stroke-opacity:1"
       d="M 1611.052,814.1375 V 984.965 h 88.4018 V 814.1375 Z" /><text
       id="text156"
       style="font-variant:normal;font-weight:normal;line-height:0%;font-family:Georgia;-inkscape-font-specification:Georgia;writing-mode:lr-tb;fill:#000000;fill-opacity:1;fill-rule:nonzero;stroke:none"
       transform="scale(1,-1)"
       x="1630"
       y="-905"><tspan
         id="tspan158"
         sodipodi:role="line"
         y="-905"
         x="1630 1645.8574 1659.8688 1673.8802 1681.3136"
         style="font-size:26px;line-height:1.25">Pool </tspan></text>
<text
       id="text162"
       style="font-variant:normal;font-weight:normal;line-height:0%;font-family:Georgia;-inkscape-font-specification:Georgia;writing-mode:lr-tb;fill:#000000;fill-opacity:1;fill-rule:nonzero;stroke:none"
       transform="scale(1,-1)"
       x="1623"
       y="-875"><tspan
         id="tspan164"
         sodipodi:role="line"
         y="-875"
         x="1623 1639.0862 1652.1824 1666.7346 1674.1628"
         style="font-size:26px;line-height:1.25">Table</tspan></text>
<path
       inkscape:connector-curvature="0"
       id="path168"
       style="fill:none;stroke:#000000;stroke-width:5;stroke-linecap:butt;stroke-linejoin:miter;stroke-miterlimit:4;stroke-dasharray:none;stroke-opacity:1"
       d="m 697.4984,370.6775 h 355.2912 v -131.82 H 697.4984 Z" /><text
       id="text172"
       style="font-variant:normal;font-weight:normal;line-height:0%;font-family:Georgia;-inkscape-font-specification:Georgia;writing-mode:lr-tb;fill:#000000;fill-opacity:1;fill-rule:nonzero;stroke:none"
       transform="scale(1,-1)"
       x="816"
       y="-292"><tspan
         id="tspan174"
         sodipodi:role="line"
         y="-292"
         x="816 835.63501 847.71698 866.58551 880.92499 898.56152 916.38702"
         style="font-size:35px;line-height:1.25">Storage</tspan></text>
<path
       inkscape:connector-curvature="0"
       id="path178"
       style="fill:none;stroke:#000000;stroke-width:5;stroke-linecap:butt;stroke-linejoin:miter;stroke-miterlimit:4;stroke-dasharray:none;stroke-opacity:1"
       d="m 964.9501,1047.61 h 252.0848 V 647.6375 H 964.9501 Z" /><text
       id="text182"
       style="font-variant:normal;font-weight:normal;line-height:0%;font-family:Georgia;-inkscape-font-specification:Georgia;writing-mode:lr-tb;fill:#000000;fill-opacity:1;fill-rule:nonzero;stroke:none"
       transform="scale(1,-1)"
       x="1015"
       y="-875"><tspan
         id="tspan184"
         sodipodi:role="line"
         y="-875"
         x="1015 1038.4814 1069.313 1086.2321 1100.5715 1110.8265 1126.72 1144.3564 1165.0345"
         style="font-size:35px;line-height:1.25">American </tspan></text>
<text
       id="text188"
       style="font-variant:normal;font-weight:normal;line-height:0%;font-family:Georgia;-inkscape-font-specification:Georgia;writing-mode:lr-tb;fill:#000000;fill-opacity:1;fill-rule:nonzero;stroke:none"
       transform="scale(1,-1)"
       x="1077"
       y="-835"><tspan
         id="tspan190"
         sodipodi:role="line"
         y="-835"
         x="1077 1101.864"
         style="font-size:35px;line-height:1.25">&amp; </tspan></text>
<text
       id="text194"
       style="font-variant:normal;font-weight:normal;line-height:0%;font-family:Georgia;-inkscape-font-specification:Georgia;writing-mode:lr-tb;fill:#000000;fill-opacity:1;fill-rule:nonzero;stroke:none"
       transform="scale(1,-1)"
       x="1038"
       y="-795"><tspan
         id="tspan196"
         sodipodi:role="line"
         y="-795"
         x="1038 1057.635 1078.005 1095.6415 1121.447"
         style="font-size:35px;line-height:1.25">Shawn</tspan></text>
<path
       d="M 894.3638,650.6088 H 962.505 V 583.2613 H 894.3638 Z"
       style="fill:#ffffff;fill-opacity:1;fill-rule:nonzero;stroke:none"
       id="path198"
       inkscape:connector-curvature="0" /><path
       inkscape:connector-curvature="0"
       id="path202"
       style="fill:none;stroke:#000000;stroke-width:5;stroke-linecap:butt;stroke-linejoin:miter;stroke-miterlimit:4;stroke-dasharray:none;stroke-opacity:1"
       d="m 694.6913,174.4987 h 750.5845" /><path
       inkscape:connector-curvature="0"
       id="path238"
       style="fill:none;stroke:#000000;stroke-width:5;stroke-linecap:butt;stroke-linejoin:miter;stroke-miterlimit:4;stroke-dasharray:none;stroke-opacity:1"
       d="M 505.8481,770.11 H 964.005 V 370.1375 H 505.8481 Z" /><path
       d="m 943.3638,646 h 68.1412 v -55 h -68.1412 z"
       style="fill:#ffffff;fill-opacity:1;fill-rule:nonzero;stroke:none"
       id="path240"
       inkscape:connector-curvature="0" /><path
       inkscape:connector-curvature="0"
       id="path244"
       style="fill:none;stroke:#000000;stroke-width:5;stroke-linecap:butt;stroke-linejoin:miter;stroke-miterlimit:4;stroke-dasharray:none;stroke-opacity:1"
       d="M 696.4852,1047.61 H 896.5066 V 770.9344 H 696.4852 Z" /><text
       id="text248"
       style="font-variant:normal;font-weight:normal;line-height:0%;font-family:Georgia;-inkscape-font-specification:Georgia;writing-mode:lr-tb;fill:#000000;fill-opacity:1;fill-rule:nonzero;stroke:none"
       transform="scale(1,-1)"
       x="709"
       y="-907"><tspan
         id="tspan250"
         sodipodi:role="line"
         y="-907"
         x="709 731.47351 750.34198 771.03052 782.409 799.3175 813.67102 830.57947 851.26801 867.1615 884.07001"
         style="font-size:35px;line-height:1.25">Conference </tspan></text>
<text
       id="text254"
       style="font-variant:normal;font-weight:normal;line-height:0%;font-family:Georgia;-inkscape-font-specification:Georgia;writing-mode:lr-tb;fill:#000000;fill-opacity:1;fill-rule:nonzero;stroke:none"
       transform="scale(1,-1)"
       x="750"
       y="-867"><tspan
         id="tspan256"
         sodipodi:role="line"
         y="-867"
         x="750 774.55951 793.414 812.26849"
         style="font-size:35px;line-height:1.25">Room</tspan></text>
<text
       id="text260"
       style="font-variant:normal;font-weight:normal;line-height:0%;font-family:Georgia;-inkscape-font-specification:Georgia;writing-mode:lr-tb;fill:#000000;fill-opacity:1;fill-rule:nonzero;stroke:none"
       transform="scale(1,-1)"
       x="627"
       y="-730"><tspan
         id="tspan262"
         sodipodi:role="line"
         y="-730"
         x="627 653.21503 672.0835 692.76147 713.43951"
         style="font-size:35px;line-height:1.25">Donna</tspan></text>
<path
       inkscape:connector-curvature="0"
       id="path266"
       style="fill:none;stroke:#000000;stroke-width:5;stroke-linecap:butt;stroke-linejoin:miter;stroke-miterlimit:4;stroke-dasharray:none;stroke-opacity:1"
       d="M 505.7794,1047.61 H 696.5401 V 770.9344 H 505.7794 Z" /><text
       id="text270"
       style="font-variant:normal;font-weight:normal;line-height:0%;font-family:Georgia;-inkscape-font-specification:Georgia;writing-mode:lr-tb;fill:#000000;fill-opacity:1;fill-rule:nonzero;stroke:none"
       transform="scale(1,-1)"
       x="571"
       y="-897"><tspan
         id="tspan272"
         sodipodi:role="line"
         y="-897"
         x="571 589.11603 606.742"
         style="font-size:35px;line-height:1.25">Jay</tspan></text>
<path
       d="m 500.9532,373.3637 h 193.9485 v -18.804 H 500.9532 Z"
       style="fill:#ffffff;fill-opacity:1;fill-rule:nonzero;stroke:none"
       id="path276"
       inkscape:connector-curvature="0" /><path
       inkscape:connector-curvature="0"
       id="path280"
       style="fill:none;stroke:#000000;stroke-width:5;stroke-linecap:butt;stroke-linejoin:miter;stroke-miterlimit:4;stroke-dasharray:none;stroke-opacity:1"
       d="M 506.2279,588.9449 697.72662,369.75125" /><path
       d="m 847.3007,783.6088 h 47.0631 v -54.3475 h -47.0631 z"
       style="fill:#ffffff;fill-opacity:1;fill-rule:nonzero;stroke:none"
       id="path282"
       inkscape:connector-curvature="0" /><path
       d="m 898.9316,785.0019 h 64 V 642.5531 h -64 z"
       style="fill:#ffffff;fill-opacity:1;fill-rule:nonzero;stroke:none"
       id="path284"
       inkscape:connector-curvature="0" /><path
       d="m 938.9316,1002.247 h 62.7574 v -54.3476 h -62.7574 z"
       style="fill:#ffffff;fill-opacity:1;fill-rule:nonzero;stroke:none"
       id="path286"
       inkscape:connector-curvature="0" /><path
       d="m 517.9316,798.2469 h 52.7576 v -54.3475 h -52.7576 z"
       style="fill:#ffffff;fill-opacity:1;fill-rule:nonzero;stroke:none"
       id="path288"
       inkscape:connector-curvature="0" /><path
       d="m 566.5487,506.01 h 62.7575 v -54.3475 h -62.7575 z"
       style="fill:#ffffff;fill-opacity:1;fill-rule:nonzero;stroke:none"
       id="path290"
       inkscape:connector-curvature="0" /><path
       d="m 962.8418,256.6003 h 55.4562 v -54.3475 h -55.4562 z"
       style="fill:#ffffff;fill-opacity:1;fill-rule:nonzero;stroke:none"
       id="path292"
       inkscape:connector-curvature="0" /><path
       d="m 1293.54,355.4212 h 62.758 v -54.3475 h -62.758 z"
       style="fill:#ffffff;fill-opacity:1;fill-rule:nonzero;stroke:none"
       id="path294"
       inkscape:connector-curvature="0" /><path
       d="m 1169.587,441.3825 h 62.757 V 387.035 h -62.757 z"
       style="fill:#ffffff;fill-opacity:1;fill-rule:nonzero;stroke:none"
       id="path296"
       inkscape:connector-curvature="0" /><path
       d="m 1449.773,421.9525 h 52.757 V 367.605 h -52.757 z"
       style="fill:#ffffff;fill-opacity:1;fill-rule:nonzero;stroke:none"
       id="path298"
       inkscape:connector-curvature="0" /><path
       d="m 1480.482,817.9525 h 62.758 V 763.605 h -62.758 z"
       style="fill:#ffffff;fill-opacity:1;fill-rule:nonzero;stroke:none"
       id="path300"
       inkscape:connector-curvature="0" /><path
       d="m 1470.482,1032.953 h 62.758 v -54.348 h -62.758 z"
       style="fill:#ffffff;fill-opacity:1;fill-rule:nonzero;stroke:none"
       id="path302"
       inkscape:connector-curvature="0" /><path
       inkscape:connector-curvature="0"
       id="path306"
       style="fill:none;stroke:#000000;stroke-width:2;stroke-linecap:butt;stroke-linejoin:miter;stroke-miterlimit:4;stroke-dasharray:none;stroke-opacity:1"
       d="m 695.3858,179.9502 v 53.45573 h 5.70913 V 179.9502 Z" /><path
       inkscape:connector-curvature="0"
       id="path310"
       style="fill:none;stroke:#000000;stroke-width:2;stroke-linecap:butt;stroke-linejoin:miter;stroke-miterlimit:4;stroke-dasharray:none;stroke-opacity:1"
       d="m 1326.052,300.9655 v 53.45573 h 5.7091 V 300.9655 Z" /><path
       inkscape:connector-curvature="0"
       id="path314"
       style="fill:none;stroke:#000000;stroke-width:2;stroke-linecap:butt;stroke-linejoin:miter;stroke-miterlimit:4;stroke-dasharray:none;stroke-opacity:1"
       d="m 1017.298,236.3178 h -53.45573 v 5.70913 h 53.45573 z" /><path
       inkscape:connector-curvature="0"
       id="path318"
       style="fill:none;stroke:#000000;stroke-width:2;stroke-linecap:butt;stroke-linejoin:miter;stroke-miterlimit:4;stroke-dasharray:none;stroke-opacity:1"
       d="m 1214.052,387.2355 v 53.45573 h 5.7091 V 387.2355 Z" /><path
       inkscape:connector-curvature="0"
       id="path322"
       style="fill:none;stroke:#000000;stroke-width:2;stroke-linecap:butt;stroke-linejoin:miter;stroke-miterlimit:4;stroke-dasharray:none;stroke-opacity:1"
       d="m 1502.879,398.5096 h -53.4557 v 5.70913 h 53.4557 z" /><path
       inkscape:connector-curvature="0"
       id="path330"
       style="fill:none;stroke:#000000;stroke-width:2;stroke-linecap:butt;stroke-linejoin:miter;stroke-miterlimit:4;stroke-dasharray:none;stroke-opacity:1"
       d="m 1495.152,979.0509 v 53.4557 h 5.7091 v -53.4557 z" /><path
       inkscape:connector-curvature="0"
       id="path334"
       style="fill:none;stroke:#000000;stroke-width:2;stroke-linecap:butt;stroke-linejoin:miter;stroke-miterlimit:4;stroke-dasharray:none;stroke-opacity:1"
       d="m 962.4501,947.8994 v 53.4557 h 5.70913 v -53.4557 z" /><path
       inkscape:connector-curvature="0"
       id="path338"
       style="fill:none;stroke:#000000;stroke-width:5;stroke-linecap:butt;stroke-linejoin:miter;stroke-miterlimit:4;stroke-dasharray:none;stroke-opacity:1"
       d="M 877.0857,1047.667 H 979.7831" /><path
       d="m 895.5601,768.2186 h -53.4557 v 5.7091 h 53.4557 z"
       style="fill:#ffffff;fill-opacity:1;fill-rule:nonzero;stroke:none"
       id="path340"
       inkscape:connector-curvature="0" /><path
       inkscape:connector-curvature="0"
       id="path344"
       style="fill:none;stroke:#000000;stroke-width:2;stroke-linecap:butt;stroke-linejoin:miter;stroke-miterlimit:4;stroke-dasharray:none;stroke-opacity:1"
       d="m 895.5601,768.2186 h -53.45573 v 5.70913 h 53.45573 z" /><path
       d="m 571.6892,768.0421 h -53.4557 v 5.7092 h 53.4557 z"
       style="fill:#ffffff;fill-opacity:1;fill-rule:nonzero;stroke:none"
       id="path346"
       inkscape:connector-curvature="0" /><path
       inkscape:connector-curvature="0"
       id="path350"
       style="fill:none;stroke:#000000;stroke-width:2;stroke-linecap:butt;stroke-linejoin:miter;stroke-miterlimit:4;stroke-dasharray:none;stroke-opacity:1"
       d="m 571.6892,768.0421 h -53.45573 v 5.70913 h 53.45573 z" /><path
       d="m 620.0833,442.5207 -52.0557,60.4441 12.7329,10.9659 52.0557,-60.4442 z"
       style="fill:#ffffff;fill-opacity:1;fill-rule:nonzero;stroke:none"
       id="path352"
       inkscape:connector-curvature="0" /><path
       inkscape:connector-curvature="0"
       id="path356"
       style="fill:none;stroke:#000000;stroke-width:2;stroke-linecap:butt;stroke-linejoin:miter;stroke-miterlimit:4;stroke-dasharray:none;stroke-opacity:1"
       d="m 620.0833,442.5207 -52.05572,60.4442 12.73291,10.96583 52.05572,-60.4442 z" /><path
       inkscape:connector-curvature="0"
       id="path360"
       style="fill:none;stroke:#000000;stroke-width:2;stroke-linecap:butt;stroke-linejoin:miter;stroke-miterlimit:4;stroke-dasharray:none;stroke-opacity:1"
       d="m 581.2935,684.2045 v 80.3328 h 39.7325 v -80.3328 z" /><path
       inkscape:connector-curvature="0"
       id="path364"
       style="fill:none;stroke:#000000;stroke-width:2;stroke-linecap:butt;stroke-linejoin:miter;stroke-miterlimit:4;stroke-dasharray:none;stroke-opacity:1"
       d="m 621.6268,684.6126 v 29.76305 h 88.40185 V 684.6126 Z" /><rect
       style="opacity:0.98000004;fill:#c0c0c0;fill-opacity:1;stroke:#000000;stroke-width:1.72329581;stroke-miterlimit:4;stroke-dasharray:none;stroke-dashoffset:0;stroke-opacity:1"
       id="rect3832"
       width="80.669701"
       height="166.71738"
       x="1768.5393"
       y="-982.58667"
       transform="scale(1,-1)"
       ry="12.999988" /><path
       style="fill:#000000;stroke-width:0.11033979"
       d="m 1763.9512,859.09805 c 0.2686,0.31753 1.2649,1.4789 2.2138,2.58091 0.9491,1.10202 1.7535,2.06259 1.7878,2.13484 0.034,0.072 -0.013,2.24037 -0.104,4.81826 -0.2572,7.27414 -0.404,13.24718 -0.3689,15.00679 0.05,2.53795 0.1578,3.11677 0.6732,3.63349 0.3433,0.3439 2.109,1.70059 2.2209,1.70629 0.084,0.0113 3.5033,2.27224 5.5442,3.678 0.7045,0.4851 1.3756,0.94589 1.4912,1.02362 0.394,0.26481 4.258,3.159 5.3745,4.02544 1.2411,0.96325 1.186,0.85481 1.3109,2.57699 0.086,1.2027 0.1767,2.4246 0.2594,3.54855 0.036,0.48795 0.095,1.28649 0.1307,1.77444 0.036,0.48808 0.095,1.28649 0.1308,1.77434 0.036,0.48795 0.095,1.28649 0.1307,1.77444 0.036,0.48785 0.095,1.29894 0.1337,1.80197 0.038,0.50336 0.083,1.2091 0.1002,1.56865 l 0.031,0.65369 -1.4156,-0.14987 c -8.6139,-0.90983 -8.222,-0.88209 -8.8001,-0.62117 -0.8697,0.39289 -3.8712,3.51706 -4.4499,4.63189 -0.2299,0.44297 -0.3362,1.25499 -0.9622,7.35347 -0.1204,1.17873 -0.3191,3.10751 -0.44,4.28636 -0.3193,3.11003 -0.6458,6.55847 -0.8559,9.03992 -0.2613,3.08514 -0.1458,3.65949 0.9939,4.94302 0.6669,0.75117 2.2685,2.34083 2.8767,2.85527 0.2621,0.22177 0.4997,0.43784 0.5279,0.48007 0.1276,0.19131 1.8067,1.26526 2.2241,1.42244 0.6993,0.26343 1.5339,0.0206 2.1257,-0.61649 0.3983,-0.42928 1.3934,-1.94108 1.7159,-2.60687 0.07,-0.14645 0.3093,-0.60668 0.5293,-1.02261 0.7937,-1.49982 0.9347,-2.10614 0.6421,-2.76075 -0.1253,-0.27918 -1.1464,-1.84875 -1.5187,-2.33305 -0.082,-0.10617 -0.31,-0.51513 -0.5083,-0.90971 l -0.3607,-0.7175 0.2006,-3.46991 c 0.2046,-3.54044 0.4907,-6.26604 0.7498,-7.14334 0.2991,-1.01151 0.7108,-1.36308 1.8249,-1.55861 0.6912,-0.12134 5.9714,0.20661 8.3132,0.51627 0.7244,0.0959 1.7121,0.22647 2.195,0.29027 0.4827,0.0639 0.9399,0.13891 1.0156,0.16676 0.087,0.032 -0.1016,0.31708 -0.5049,0.76623 -0.7742,0.86246 -1.6601,2.38762 -1.9808,3.40987 -0.074,0.23913 -0.2004,0.63634 -0.2784,0.88244 -0.1716,0.54057 -0.3118,3.00798 -0.1914,3.36957 0.046,0.142 0.1389,0.48454 0.2038,0.76133 0.2925,1.24735 1.2731,2.85344 2.2345,3.65893 0.2622,0.21983 0.5003,0.42837 0.5288,0.46353 0.2779,0.34152 1.7209,1.09519 2.6367,1.37712 0.6404,0.19712 3.3303,0.39401 3.8252,0.27999 0.2305,-0.0525 0.633,-0.14564 0.8942,-0.20556 1.9996,-0.45886 3.9916,-2.07157 5.0133,-4.05878 0.3484,-0.67754 0.4046,-0.80984 0.608,-1.43293 0.2883,-0.88358 0.4407,-1.57882 0.5751,-2.62241 0.1078,-0.82845 0.079,-1.1905 -0.2234,-2.81817 -0.028,-0.14746 -0.2532,-0.73085 -0.502,-1.29608 -0.4948,-1.12418 -0.53,-1.27245 -0.286,-1.20042 0.09,0.0262 1.0042,0.13309 2.032,0.23696 1.0277,0.10392 2.4264,0.25168 3.108,0.3285 2.1614,0.24288 3.1477,-0.0753 5.6404,-1.81863 1.9838,-1.38762 2.4463,-1.84475 3.0948,-3.05877 0.2954,-0.55324 0.5405,-1.07259 0.5445,-1.15432 0.012,-0.0822 0.05,-0.19358 0.104,-0.2486 0.054,-0.0548 0.175,-0.31981 0.2709,-0.5884 0.097,-0.26857 0.2086,-0.53623 0.2506,-0.5949 0.041,-0.0582 0.1507,-0.32656 0.2421,-0.59536 0.091,-0.26881 0.2151,-0.57254 0.2752,-0.67505 0.059,-0.10279 0.1141,-0.28318 0.1204,-0.40154 0.013,-0.11846 0.063,-0.24359 0.1241,-0.27793 0.063,-0.0342 0.1203,-0.18069 0.1271,-0.32497 0.013,-0.14439 0.065,-0.29072 0.1268,-0.32508 0.063,-0.0342 0.1204,-0.18422 0.1277,-0.33306 0.013,-0.14861 0.063,-0.35419 0.1203,-0.45679 0.1053,-0.18252 0.4525,-1.1138 0.7783,-2.08561 0.09,-0.26892 0.2071,-0.58622 0.2601,-0.70505 0.053,-0.11883 0.1685,-0.43602 0.2569,-0.70493 0.088,-0.26904 0.2038,-0.58636 0.2567,-0.70518 0.054,-0.11883 0.1687,-0.43613 0.2571,-0.70494 0.088,-0.26903 0.2051,-0.61111 0.2595,-0.76029 0.054,-0.14918 0.171,-0.49127 0.2595,-0.76019 0.088,-0.26892 0.2053,-0.611 0.2597,-0.76018 0.055,-0.14907 0.1708,-0.49128 0.2593,-0.76018 0.088,-0.26892 0.2041,-0.58624 0.257,-0.70507 0.053,-0.11883 0.1686,-0.43613 0.2571,-0.70505 0.088,-0.26903 0.2051,-0.61099 0.2594,-0.76018 0.055,-0.14907 0.1711,-0.49127 0.2596,-0.76019 0.088,-0.26891 0.2053,-0.611 0.2596,-0.76007 0.055,-0.14929 0.1711,-0.49137 0.2596,-0.76029 0.088,-0.26892 0.2053,-0.611 0.2596,-0.76018 0.055,-0.14919 0.1711,-0.49116 0.2596,-0.76008 0.088,-0.26904 0.2055,-0.61111 0.2596,-0.7603 0.055,-0.14907 0.1713,-0.49127 0.2598,-0.76018 0.088,-0.26881 0.2053,-0.61101 0.2594,-0.76008 0.055,-0.14918 0.1706,-0.49126 0.2585,-0.76029 0.088,-0.26903 0.2099,-0.60073 0.2712,-0.73713 0.061,-0.1364 0.1263,-0.53943 0.1445,-0.89555 0.031,-0.61683 0.013,-0.66591 -0.3803,-1.03927 -0.4202,-0.39823 -2.3148,-1.51157 -3.0199,-1.77445 -0.213,-0.0798 -0.645,-0.15751 -0.9601,-0.17349 -0.6496,-0.0331 -1.0843,0.1695 -1.9551,0.91097 -4.196,3.57241 -4.8407,4.19893 -4.8679,4.73082 -0.015,0.29895 0.3337,1.34928 0.8696,2.61785 0.4425,1.04794 0.4131,1.71407 -0.1204,2.71475 -1.5261,2.86702 -3.3648,6.28545 -4.2444,7.89074 -0.3563,0.65027 -0.7095,1.32267 -0.7847,1.49423 -0.15,0.34152 -0.1542,0.3414 -1.7164,-0.0125 -0.3003,-0.0684 -0.7429,-0.16539 -0.9834,-0.21596 -0.2405,-0.0503 -0.6829,-0.14986 -0.9831,-0.22006 -0.3002,-0.0708 -0.9148,-0.20683 -1.3656,-0.30339 -0.4509,-0.097 -0.8567,-0.21071 -0.9018,-0.25397 -0.044,-0.0434 -0.1141,-0.47426 -0.1539,-0.95765 -0.1348,-1.65163 -0.2451,-2.84635 -0.4143,-4.4868 -0.041,-0.39698 -0.1103,-1.09668 -0.1536,-1.55461 -0.044,-0.45794 -0.1103,-1.15728 -0.1498,-1.55438 -0.039,-0.39699 -0.1053,-1.07146 -0.1457,-1.4988 -0.043,-0.42745 -0.1027,-1.05215 -0.1378,-1.38819 -0.062,-0.5965 -0.1398,-1.3979 -0.2956,-3.02555 -0.043,-0.44276 -0.1066,-1.10479 -0.1424,-1.47119 -0.036,-0.36651 -0.095,-1.01574 -0.1337,-1.44309 -0.038,-0.42723 -0.095,-0.88323 -0.1267,-1.01312 -0.049,-0.19815 0.6512,-2.2083 1.0926,-3.13604 0.058,-0.11859 0.5131,-1.28867 1.0149,-2.59993 0.5016,-1.31137 0.9589,-2.48132 1.0163,-2.59992 0.059,-0.11858 0.2943,-0.72811 0.5269,-1.35429 0.2323,-0.62618 0.4654,-1.18354 0.5181,-1.23867 0.053,-0.0548 0.1015,-0.21116 0.1078,-0.3471 0.013,-0.13572 0.063,-0.27496 0.1262,-0.30932 0.063,-0.0342 0.1191,-0.17362 0.1262,-0.30956 0.013,-0.13571 0.056,-0.29198 0.1091,-0.34699 0.053,-0.0548 0.2315,-0.46616 0.3977,-0.91337 0.1664,-0.44732 0.3454,-0.85834 0.3979,-0.91336 0.053,-0.0548 0.1003,-0.19005 0.1066,-0.29996 0.013,-0.10956 0.065,-0.29586 0.1315,-0.41308 0.066,-0.11733 0.1757,-0.30933 0.2426,-0.42666 0.068,-0.11721 0.1258,-0.30317 0.1315,-0.41319 0.013,-0.10956 0.054,-0.24484 0.1066,-0.29986 0.054,-0.0548 0.1749,-0.31971 0.2707,-0.58839 0.097,-0.26859 0.2073,-0.53624 0.2474,-0.59503 0.04,-0.0594 0.1463,-0.3019 0.2359,-0.54035 0.09,-0.23855 0.2221,-0.55495 0.2944,-0.70322 0.2599,-0.53167 0.3369,-0.70894 0.5408,-1.24301 0.1141,-0.29802 0.2819,-0.68725 0.3736,-0.86496 0.091,-0.1775 0.2606,-0.56672 0.3754,-0.86474 0.1153,-0.29791 0.2812,-0.68725 0.3699,-0.86497 0.088,-0.17783 0.2304,-0.49378 0.3152,-0.70219 0.1688,-0.41617 0.3578,-0.83027 0.4928,-1.07979 0.048,-0.089 0.1685,-0.39494 0.2681,-0.68063 0.1917,-0.55164 0.371,-0.69832 1.088,-0.89008 0.4386,-0.11721 0.6095,-0.17144 1.179,-0.37347 0.1548,-0.0548 0.458,-0.15066 0.6737,-0.21265 0.2159,-0.0617 0.519,-0.15785 0.6738,-0.21263 0.4044,-0.1436 0.6777,-0.23092 1.1231,-0.35899 0.2158,-0.0617 0.519,-0.15775 0.6737,-0.21253 0.4044,-0.14359 0.6776,-0.23091 1.1229,-0.35897 0.4487,-0.12899 0.7228,-0.21665 1.1232,-0.35933 0.3035,-0.10843 1.3818,-0.44343 1.7289,-0.53771 0.2001,-0.0536 0.2117,-0.13595 0.1909,-1.35418 -0.013,-0.71294 -0.015,-2.0162 -0.013,-2.896 l 0.015,-1.59969 -0.4367,-0.10078 c -0.4039,-0.0926 -1.1559,-0.20453 -4.3863,-0.65029 -0.6637,-0.0915 -1.7496,-0.24499 -2.4133,-0.34091 -1.3677,-0.19772 -2.93,-0.41667 -4.7719,-0.66876 -0.694,-0.0946 -1.4589,-0.20904 -1.6997,-0.25353 -0.2409,-0.0442 -0.8827,-0.13103 -1.4265,-0.19238 l -0.9885,-0.11118 -0.1728,0.35213 c -0.095,0.19371 -0.3634,0.71528 -0.5965,1.15914 -0.9361,1.78187 -1.1097,2.11574 -1.3147,2.52952 -0.2281,0.45976 -0.4508,0.88699 -1.3374,2.56613 -0.3075,0.58247 -0.5601,1.07636 -0.5611,1.09736 0,0.0206 -0.2678,0.53738 -0.5924,1.14747 -0.3247,0.60986 -0.6889,1.3027 -0.8093,1.53966 -0.1204,0.23695 -0.3719,0.72137 -0.5586,1.07647 -0.3218,0.61146 -0.591,1.13274 -1.2237,2.36844 -0.3343,0.65255 -0.8077,1.55632 -1.381,2.63656 -0.2356,0.44378 -0.5447,1.03709 -0.687,1.31845 -0.1422,0.28137 -0.375,0.74193 -0.5173,1.02328 -0.1419,0.28136 -0.4113,0.80219 -0.5983,1.15729 -0.1868,0.35509 -0.436,0.83951 -0.5536,1.07659 -0.1178,0.23718 -0.3946,0.76999 -0.6157,1.1841 -0.2211,0.4141 -0.5176,0.98322 -0.6587,1.26458 -0.4942,0.9847 -0.7771,1.54034 -1.1247,2.20773 l -0.3502,0.67275 -0.5107,-0.0262 c -0.4369,-0.0217 -2.6057,-0.77537 -3.358,-1.16607 -0.1178,-0.0617 -1.2636,-0.51605 -2.5449,-1.01016 -1.2814,-0.49424 -2.4134,-0.95149 -2.5156,-1.01621 -0.1028,-0.0651 -0.2828,-0.12259 -0.4013,-0.12863 -0.1178,-0.0113 -0.2435,-0.0617 -0.278,-0.12461 -0.034,-0.0628 -0.1751,-0.11946 -0.3129,-0.12646 -0.1379,-0.0113 -0.2817,-0.0468 -0.3191,-0.0879 -0.062,-0.0684 -1.0292,-0.4794 -2.3445,-0.99623 -1.1931,-0.46879 -2.1526,-1.04314 -2.3008,-1.37747 -0.1457,-0.32849 -0.1743,-1.54228 -0.1262,-5.36478 0.019,-1.51808 0.05,-4.02726 0.07,-5.57582 0.019,-1.54856 0.056,-4.13193 0.082,-5.74093 0.063,-3.96341 0.033,-4.53456 -0.2493,-4.7886 -0.1229,-0.11132 -0.3122,-0.20784 -0.4188,-0.21463 -0.1078,-0.006 -0.2779,-0.0646 -0.3802,-0.12914 -0.1028,-0.0638 -0.7955,-0.35041 -1.5405,-0.63594 -0.7451,-0.2856 -1.4517,-0.56428 -1.5706,-0.61925 -0.3853,-0.17835 -1.2855,-0.53368 -1.8413,-0.72687 -0.2986,-0.1038 -0.6397,-0.23781 -0.7581,-0.29783 -0.1191,-0.0598 -0.4108,-0.17898 -0.6496,-0.26428 -0.2387,-0.0851 -0.531,-0.20118 -0.6497,-0.25734 -0.1191,-0.0558 -1.2814,-0.51672 -2.584,-1.02336 -2.1824,-0.84891 -2.3796,-0.9069 -2.5154,-0.73989 -0.1392,0.17141 -0.7502,1.70461 -1.3473,3.38018 -0.1488,0.41784 -0.3195,0.84347 -0.3792,0.94599 -0.2582,0.44309 -0.1532,0.89035 0.3485,1.4831 z m 1.8902,-2.61714 c 0.3089,-0.53091 0.595,-0.98361 0.6362,-1.00617 0.069,-0.0382 3.0384,1.0832 3.5302,1.33258 0.1178,0.0598 0.4107,0.17901 0.6495,0.26438 0.2387,0.0851 0.5312,0.1994 0.65,0.25349 0.1191,0.0543 0.9717,0.39059 1.8955,0.74776 0.9236,0.35718 1.7518,0.69281 1.8403,0.74577 0.089,0.0526 0.3956,0.17791 0.6828,0.27786 0.8769,0.30516 0.8788,0.31119 0.8372,2.83595 -0.1666,10.11649 -0.1912,16.8351 -0.065,17.76365 0.075,0.55564 0.3114,1.03811 0.665,1.35999 0.3001,0.27337 1.6445,1.01929 2.5868,1.43534 0.2715,0.11984 0.669,0.3027 1.0527,0.48419 0.562,0.26583 0.7844,0.36525 1.4313,0.63999 0.3569,0.15158 0.7461,0.32028 0.8648,0.37507 0.1191,0.0548 0.3864,0.1679 0.5948,0.25157 0.2085,0.0834 0.4761,0.19837 0.5948,0.25511 0.1179,0.057 0.5327,0.22508 0.9199,0.37438 0.3876,0.14918 0.8015,0.31936 0.9201,0.37815 0.1191,0.0594 0.4109,0.17669 0.6496,0.26207 0.2385,0.0845 0.5553,0.21082 0.7038,0.27884 0.524,0.24004 0.7134,0.31458 1.8413,0.72458 0.6265,0.22771 1.2229,0.46285 1.3255,0.52254 0.1028,0.0594 0.262,0.11182 0.3545,0.11708 0.093,0 0.2521,0.0582 0.3546,0.11708 0.1028,0.0593 0.5525,0.24072 1,0.40223 0.4478,0.1614 0.8588,0.3366 0.9138,0.38923 0.055,0.0525 0.2614,0.10391 0.4586,0.11419 0.3081,0.0159 0.3873,-0.0376 0.563,-0.38568 0.382,-0.75357 1.2995,-2.49846 2.1997,-4.18331 0.2253,-0.42164 0.5827,-1.09952 0.7942,-1.50643 0.2116,-0.40693 0.62,-1.17533 0.9078,-1.70757 0.2878,-0.53212 0.7285,-1.35498 0.9794,-1.82833 1.1268,-2.12634 1.3327,-2.51602 1.6772,-3.17393 0.2013,-0.38478 0.6286,-1.18343 0.9495,-1.77468 0.3209,-0.59137 0.7817,-1.4504 1.0243,-1.90902 0.9869,-1.86713 1.3482,-2.54617 1.8456,-3.46912 0.2868,-0.53235 0.7203,-1.3431 0.9629,-1.80172 0.2427,-0.45851 0.64,-1.20888 0.8827,-1.6675 0.2428,-0.45862 0.6052,-1.14861 0.8055,-1.53347 0.7742,-1.4876 0.9049,-1.66793 1.1816,-1.63092 0.1424,0.0192 0.9254,0.12322 1.7404,0.2312 1.9408,0.25752 3.7095,0.49618 5.2671,0.71079 0.6938,0.0954 1.8789,0.25775 2.6331,0.36026 3.1625,0.42989 2.9945,0.39017 3.0661,0.72665 0.035,0.16654 0.055,0.83552 0.041,1.48659 l -0.023,1.18388 -0.5046,0.1566 c -0.2775,0.0868 -0.6056,0.18925 -0.7293,0.22897 -0.1241,0.0389 -0.3758,0.11458 -0.5607,0.16642 -0.1849,0.0514 -0.4374,0.12875 -0.5611,0.17087 -0.1241,0.0422 -0.4015,0.12761 -0.6173,0.1897 -0.4748,0.1364 -0.8872,0.2784 -1.1512,0.3963 -0.1078,0.0479 -0.272,0.0834 -0.3645,0.0787 -0.093,0 -0.2568,0.0331 -0.3648,0.0834 -0.109,0.0503 -0.487,0.18034 -0.8418,0.28866 -0.3549,0.10843 -0.9357,0.28558 -1.2906,0.39401 -0.3548,0.10843 -0.7337,0.23811 -0.8418,0.28855 -0.1091,0.0503 -0.2549,0.089 -0.3262,0.0845 -0.07,0 -0.3212,0.0662 -0.5552,0.15592 -0.3981,0.15191 -0.4499,0.22577 -0.8045,1.14667 -0.4256,1.10569 -0.7683,1.96117 -0.9142,2.28306 -0.055,0.11871 -0.22,0.53292 -0.3693,0.9202 -0.1492,0.38741 -0.3199,0.80129 -0.3796,0.91987 -0.06,0.11846 -0.2853,0.67869 -0.5016,1.24506 -0.2167,0.56626 -0.4459,1.11323 -0.5099,1.2155 -0.064,0.10279 -0.1203,0.26162 -0.1241,0.35418 -0.013,0.0925 -0.063,0.26424 -0.1299,0.38157 -0.066,0.11733 -0.1758,0.30934 -0.2426,0.42667 -0.066,0.1172 -0.1254,0.289 -0.13,0.38157 -0.013,0.0925 -0.06,0.25191 -0.1241,0.35419 -0.064,0.10279 -0.2923,0.64936 -0.5075,1.2156 -0.2155,0.56626 -0.4439,1.11334 -0.5077,1.21562 -0.064,0.10279 -0.1204,0.27588 -0.1264,0.3858 -0.013,0.10956 -0.054,0.24484 -0.1065,0.29997 -0.054,0.0548 -0.175,0.31981 -0.2709,0.58828 -0.097,0.26857 -0.2074,0.53635 -0.2475,0.59513 -0.04,0.0593 -0.1463,0.30191 -0.2358,0.54035 -0.09,0.23856 -0.2074,0.53087 -0.2617,0.64958 -0.055,0.11883 -0.1686,0.41126 -0.254,0.65004 -0.085,0.23867 -0.2033,0.53099 -0.2621,0.64959 -0.059,0.11846 -0.229,0.53246 -0.3782,0.91986 -0.1491,0.38728 -0.3194,0.80139 -0.3782,0.91976 -0.059,0.11858 -0.2281,0.53258 -0.3761,0.92009 -0.1481,0.3874 -0.3208,0.78804 -0.384,0.89043 -0.064,0.10279 -0.1191,0.26172 -0.1229,0.35428 -0.013,0.0925 -0.06,0.25191 -0.1228,0.3543 -0.063,0.10279 -0.2359,0.50303 -0.3841,0.89042 -0.148,0.38752 -0.317,0.80151 -0.3755,0.9201 -0.209,0.42369 -0.7827,1.8434 -0.8532,2.11094 -0.04,0.14987 -0.1078,0.3204 -0.1528,0.37895 -0.381,0.49915 -0.4688,1.43967 -0.2824,3.02384 0.1191,1.00788 0.2295,1.9064 0.3221,2.61272 0.048,0.36707 0.1241,0.96746 0.1681,1.33431 0.044,0.36685 0.1129,0.91736 0.1537,1.22315 0.041,0.30601 0.1053,0.85617 0.1444,1.22268 0.039,0.36662 0.1078,0.94178 0.1509,1.27827 0.044,0.3365 0.1191,0.93688 0.1678,1.33432 0.048,0.39734 0.1178,0.94784 0.1537,1.22303 0.1585,1.19998 0.2571,1.98401 0.3147,2.50187 0.034,0.30557 0.1041,0.88095 0.156,1.27851 0.053,0.39756 0.1259,0.98561 0.1647,1.30647 0.039,0.32108 0.1065,0.84659 0.1484,1.16767 0.044,0.32119 0.099,0.78403 0.1261,1.02841 0.066,0.61226 0.2497,0.79809 0.9136,0.92684 0.3139,0.0605 0.8165,0.16595 1.1169,0.23353 0.3003,0.0673 0.8411,0.18696 1.2019,0.26515 0.3605,0.0787 0.975,0.21539 1.3654,0.30453 2.0165,0.4609 3.3831,0.71522 3.5484,0.6602 0.066,-0.0228 0.1805,-0.14839 0.253,-0.28022 0.071,-0.13207 0.4215,-0.72241 0.7758,-1.31206 1.7647,-2.93699 4.3996,-7.53108 4.8948,-8.53438 0.7888,-1.5989 0.8732,-1.83026 0.908,-2.49343 0.033,-0.64411 -0.104,-0.9742 -1.1901,-2.84818 -0.2438,-0.42061 -0.4401,-0.82868 -0.4361,-0.90686 0.013,-0.17475 2.4884,-2.26913 3.925,-3.31558 0.3471,-0.25272 0.7047,-0.52278 0.7946,-0.60028 0.2867,-0.24655 1.6083,0.0548 2.6303,0.6005 0.421,0.22475 0.4864,0.30875 0.501,0.64478 0.015,0.3462 -0.041,0.5698 -0.3905,1.52802 -0.055,0.14919 -0.1709,0.49126 -0.2596,0.76018 -0.088,0.26892 -0.2053,0.61101 -0.2596,0.7602 -0.055,0.14918 -0.1711,0.49126 -0.2596,0.76018 -0.088,0.26903 -0.2053,0.61099 -0.2596,0.76018 -0.055,0.14907 -0.171,0.49127 -0.2595,0.76018 -0.088,0.26892 -0.2028,0.58635 -0.2542,0.70517 -0.091,0.21094 -0.1806,0.46296 -0.5191,1.46523 -0.091,0.2687 -0.2737,0.78153 -0.4067,1.13925 -0.1329,0.35796 -0.291,0.79729 -0.3514,0.97649 -0.3672,1.09097 -0.4617,1.36194 -0.6615,1.89977 -0.1216,0.32805 -0.295,0.81647 -0.3847,1.08539 -0.09,0.26879 -0.2072,0.61088 -0.2616,0.75995 -0.054,0.14919 -0.1709,0.49126 -0.2594,0.7603 -0.088,0.26892 -0.2028,0.58622 -0.2542,0.70517 -0.091,0.21082 -0.1806,0.46284 -0.5191,1.46512 -0.091,0.26892 -0.2645,0.75722 -0.3862,1.08515 -0.1216,0.32803 -0.352,0.96267 -0.5119,1.41034 -0.16,0.44754 -0.334,0.91108 -0.3866,1.02977 -0.053,0.11896 -0.168,0.43626 -0.2564,0.70518 -0.088,0.26903 -0.2037,0.58623 -0.2568,0.70505 -0.053,0.11896 -0.1714,0.43603 -0.2633,0.70471 -0.093,0.26881 -0.2104,0.53373 -0.2636,0.58875 -0.054,0.0559 -0.1003,0.18513 -0.1065,0.28889 -0.026,0.50656 -0.795,1.51843 -1.8431,2.42482 -1.2123,1.04817 -2.1217,1.63772 -3.2121,2.08196 l -0.7374,0.30042 -1.4994,-0.1541 c -0.8245,-0.0845 -2.3893,-0.24632 -3.4774,-0.35874 -1.0881,-0.11182 -2.9064,-0.28297 -4.0409,-0.37895 -1.786,-0.1509 -2.0638,-0.15215 -2.0712,-0.0113 -0.013,0.21162 0.3502,0.8031 1.0431,1.70962 1.436,1.87855 1.9063,3.29755 1.7982,5.42516 -0.1129,2.22679 -0.6583,3.38225 -2.2901,4.85525 -0.9961,0.89897 -1.5322,1.21777 -2.6779,1.59216 -0.2424,0.0798 -0.8375,0.10392 -1.5502,0.0662 -1.3613,-0.0765 -2.1754,-0.36195 -3.1984,-1.13331 -0.8461,-0.63795 -1.2556,-1.10752 -1.6828,-1.92934 -0.6546,-1.25921 -0.8257,-2.03595 -0.7548,-3.42769 0.084,-1.63496 0.404,-2.63541 1.2715,-3.96288 0.4299,-0.65814 1.8235,-2.00023 2.8247,-2.72057 0.875,-0.62938 0.9538,-0.74306 0.626,-0.90183 -0.2236,-0.10843 -1.5411,-0.30853 -3.8099,-0.5795 -0.906,-0.1073 -2.3884,-0.28627 -3.2944,-0.39585 -0.9059,-0.10956 -3.1829,-0.30362 -5.0602,-0.43134 -3.3274,-0.22612 -4.2441,-0.21572 -4.8352,0.0582 -0.1078,0.0491 -0.2737,0.0868 -0.3684,0.0822 -0.2924,-0.0148 -1.2766,0.96062 -1.3849,1.37256 -0.1645,0.62526 -0.3965,2.53372 -0.6601,5.42858 -0.1378,1.51215 -0.3194,3.42654 -0.4036,4.25418 -0.2617,2.57105 -0.089,3.45633 1.0531,5.39081 0.3326,0.56374 0.7405,1.21424 0.9066,1.4456 0.2,0.2784 0.2955,0.54641 0.2828,0.7942 -0.016,0.31218 -0.6801,1.74752 -1.1571,2.50005 -0.07,0.11069 -0.2275,0.36 -0.3494,0.55301 -0.7457,1.18264 -1.1401,1.44642 -1.7456,1.16757 -0.4355,-0.20067 -1.8534,-1.2623 -2.2039,-1.65038 -0.029,-0.032 -0.4175,-0.41491 -0.864,-0.85116 -0.8741,-0.85424 -1.7193,-2.01871 -2.054,-2.83003 -0.1837,-0.44561 -0.1934,-0.61888 -0.081,-1.47312 0.069,-0.53247 0.2584,-2.6619 0.4213,-4.73197 0.5507,-7.00831 1.397,-15.20586 1.6731,-16.20574 0.07,-0.25442 0.2734,-0.66043 0.4516,-0.90206 0.4424,-0.59993 2.0368,-2.08594 2.8181,-2.62663 l 0.6408,-0.44356 2.6513,0.16368 c 1.458,0.0901 3.1694,0.23741 3.8029,0.32782 0.6334,0.0913 1.9373,0.23033 2.8975,0.31092 l 1.7457,0.14644 -0.012,-1.02112 c -0.013,-0.56179 -0.04,-1.48258 -0.074,-2.04644 -0.034,-0.56386 -0.09,-1.47392 -0.1228,-2.02248 -0.034,-0.54868 -0.086,-1.44617 -0.1204,-1.99486 -0.033,-0.54856 -0.088,-1.45861 -0.1216,-2.02236 -0.033,-0.56385 -0.086,-1.44914 -0.1178,-1.96712 -0.1153,-1.9395 -0.1805,-2.85 -0.3728,-5.26684 -0.093,-1.15649 -0.2259,-1.33558 -1.9095,-2.55564 -0.8344,-0.60449 -1.5645,-1.14153 -1.6226,-1.19324 -0.13,-0.11533 -1.3396,-0.98265 -2.3451,-1.6813 -0.4109,-0.28547 -1.1422,-0.80516 -1.6251,-1.1549 -0.483,-0.34961 -0.9082,-0.63736 -0.9448,-0.63919 -0.036,0 -0.1936,-0.10392 -0.3487,-0.22577 -0.1551,-0.12222 -0.456,-0.33181 -0.6688,-0.46548 -0.819,-0.515 -0.8994,-0.56796 -0.9499,-0.62709 -0.053,-0.0605 -2.0658,-1.35897 -3.0488,-1.96518 -1.8909,-1.16596 -2.8552,-2.03846 -2.9498,-2.66875 -0.1078,-0.71316 -0.013,-5.32574 0.3007,-13.45309 0.1695,-4.52538 0.2873,-8.48518 0.2617,-8.79953 -0.044,-0.55387 -0.085,-0.61411 -1.3159,-1.93737 -1.3732,-1.47736 -2.8394,-3.01527 -3.1289,-3.28194 -0.2858,-0.26321 -0.2035,-0.60092 0.398,-1.63493 z"
       id="path3815"
       inkscape:connector-curvature="0" /><path
       style="opacity:0.98000004;fill:#a5a5a5;fill-opacity:1;stroke:#000000;stroke-width:1.72329581;stroke-miterlimit:4;stroke-dasharray:none;stroke-dashoffset:0;stroke-opacity:1"
       d="m 1837.598,983.06038 c -1.1411,0 -2.2392,-0.1697 -3.2795,-0.47375 h -52.5603 c -6.5549,0 -11.8327,-5.27772 -11.8327,-11.83267 0,-6.55496 5.2778,-11.83085 11.8327,-11.83085 h 44.2293 V 839.53318 h -44.2293 c -6.5549,0 -11.8327,-5.27772 -11.8327,-11.83268 0,-6.55495 5.2778,-11.83083 11.8327,-11.83083 h 55.6195 c 0.037,0 0.073,0.005 0.1102,0.006 0.037,-3.5e-4 0.073,-0.006 0.1101,-0.006 6.4323,0 11.6104,5.17824 11.6104,11.61049 v 0.22034 143.05346 0.69592 c 0,6.43225 -5.1781,11.6105 -11.6104,11.6105 z"
       id="rect3834"
       inkscape:connector-curvature="0" /></g></svg>