<?xml version="1.0" encoding="UTF-8" standalone="no"?>
<!-- Created with Inkscape (http://www.inkscape.org/) -->

<svg
   xmlns:dc="http://purl.org/dc/elements/1.1/"
   xmlns:cc="http://creativecommons.org/ns#"
   xmlns:rdf="http://www.w3.org/1999/02/22-rdf-syntax-ns#"
   xmlns:svg="http://www.w3.org/2000/svg"
   xmlns="http://www.w3.org/2000/svg"
   xmlns:sodipodi="http://sodipodi.sourceforge.net/DTD/sodipodi-0.dtd"
   xmlns:inkscape="http://www.inkscape.org/namespaces/inkscape"
   id="svg2"
   version="1.1"
   inkscape:version="0.91 r13725"
   xml:space="preserve"
   width="1806.3627"
   height="1171.6284"
   viewBox="0 0 1693.465 1098.4016"
   sodipodi:docname="id-software-office-mesquite.svg"><metadata
     id="metadata8"><rdf:RDF><cc:Work
         rdf:about=""><dc:format>image/svg+xml</dc:format><dc:type
           rdf:resource="http://purl.org/dc/dcmitype/StillImage" /><dc:title /></cc:Work></rdf:RDF></metadata><defs
     id="defs6"><clipPath
       clipPathUnits="userSpaceOnUse"
       id="clipPath22"><path
         d="M 0,0 H 1920 V 1080 H 0 Z"
         id="path24"
         inkscape:connector-curvature="0" /></clipPath><clipPath
       clipPathUnits="userSpaceOnUse"
       id="clipPath212"><path
         d="m 1303.128,486.0355 125.246,72.3999 18.954,-32.7899 -125.246,-72.4 z"
         id="path214"
         inkscape:connector-curvature="0" /></clipPath><clipPath
       clipPathUnits="userSpaceOnUse"
       id="clipPath218"><path
         d="M 0,0 H 1920 V 1080 H 0 Z"
         id="path220"
         inkscape:connector-curvature="0" /></clipPath><clipPath
       clipPathUnits="userSpaceOnUse"
       id="clipPath232"><path
         d="M 0,0 H 1920 V 1080 H 0 Z"
         id="path234"
         inkscape:connector-curvature="0" /></clipPath></defs><sodipodi:namedview
     pagecolor="#ffffff"
     bordercolor="#666666"
     borderopacity="1"
     objecttolerance="10"
     gridtolerance="10"
     guidetolerance="10"
     inkscape:pageopacity="0"
     inkscape:pageshadow="2"
     inkscape:window-width="1344"
     inkscape:window-height="769"
     id="namedview4"
     showgrid="false"
     inkscape:zoom="0.42688623"
     inkscape:cx="1066.9558"
     inkscape:cy="513.27551"
     inkscape:window-x="0"
     inkscape:window-y="0"
     inkscape:window-maximized="0"
     inkscape:current-layer="g10"
     fit-margin-top="0"
     fit-margin-left="0"
     fit-margin-right="0"
     fit-margin-bottom="0" /><g
     id="g10"
     inkscape:groupmode="layer"
     inkscape:label="id-software-office-mesquite"
     transform="matrix(1.25,0,0,-1.25,-626.1915,1313.4)"><path
       inkscape:connector-curvature="0"
       id="path30"
       style="fill:none;stroke:#000000;stroke-width:5;stroke-linecap:butt;stroke-linejoin:miter;stroke-miterlimit:4;stroke-dasharray:none;stroke-opacity:1"
       d="m 1217.518,1048.22 h 286.1175 V 898.785 H 1217.518 Z" /><path
       inkscape:connector-curvature="0"
       id="path34"
       style="fill:none;stroke:#000000;stroke-width:5;stroke-linecap:butt;stroke-linejoin:miter;stroke-miterlimit:4;stroke-dasharray:none;stroke-opacity:1"
       d="m 1217.518,897.7175 h 286.1175 V 745.2825 H 1217.518 Z" /><path
       inkscape:connector-curvature="0"
       id="path38"
       style="fill:none;stroke:#000000;stroke-width:5;stroke-linecap:butt;stroke-linejoin:miter;stroke-miterlimit:4;stroke-dasharray:none;stroke-opacity:1"
       d="m 1396.646,401.7187 h 456.5514 V 174.9671 H 1396.646 Z" /><path
       inkscape:connector-curvature="0"
       id="path42"
       style="fill:none;stroke:#000000;stroke-width:5;stroke-linecap:butt;stroke-linejoin:miter;stroke-miterlimit:4;stroke-dasharray:none;stroke-opacity:1"
       d="m 1053.321,370.6775 h 275.0516 v -131.82 H 1053.321 Z" /><path
       inkscape:connector-curvature="0"
       id="path46"
       style="fill:none;stroke:#000000;stroke-width:5;stroke-linecap:butt;stroke-linejoin:miter;stroke-miterlimit:4;stroke-dasharray:none;stroke-opacity:1"
       d="m 964.55,588.5675 h 252.885 V 371.105 H 964.55 Z" /><path
       inkscape:connector-curvature="0"
       id="path50"
       style="fill:none;stroke:#000000;stroke-width:5;stroke-linecap:butt;stroke-linejoin:miter;stroke-miterlimit:4;stroke-dasharray:none;stroke-opacity:1"
       d="m 1217.11,747.7344 h 341.3775 V 543.7494 H 1217.11 Z" /><path
       d="m 1497.934,1048.22 h 355.291 V 402.5219 h -355.291 z"
       style="fill:#ffffff;fill-opacity:1;fill-rule:nonzero;stroke:none"
       id="path52"
       inkscape:connector-curvature="0" /><path
       inkscape:connector-curvature="0"
       id="path56"
       style="fill:none;stroke:#000000;stroke-width:5;stroke-linecap:butt;stroke-linejoin:miter;stroke-miterlimit:4;stroke-dasharray:none;stroke-opacity:1"
       d="m 1497.934,1048.22 h 355.2912 V 402.5219 H 1497.934 Z" /><path
       d="M 936.5388,647.7175 H 1254.098 V 587.35 H 936.5388 Z"
       style="fill:#ffffff;fill-opacity:1;fill-rule:nonzero;stroke:none"
       id="path58"
       inkscape:connector-curvature="0" /><path
       inkscape:connector-curvature="0"
       id="path62"
       style="fill:none;stroke:#000000;stroke-width:5;stroke-linecap:butt;stroke-linejoin:miter;stroke-miterlimit:4;stroke-dasharray:none;stroke-opacity:1"
       d="m 936.5388,647.7175 h 317.5587 V 587.35001 H 936.5388 Z" /><path
       d="m 1219.742,744.9637 h 310.901 v -339.68 h -310.901 z"
       style="fill:#ffffff;fill-opacity:1;fill-rule:nonzero;stroke:none"
       id="path64"
       inkscape:connector-curvature="0" /><text
       id="text68"
       style="font-variant:normal;font-weight:normal;line-height:0%;font-family:Georgia;-inkscape-font-specification:Georgia;writing-mode:lr-tb;fill:#000000;fill-opacity:1;fill-rule:nonzero;stroke:none"
       transform="scale(1,-1)"
       x="1031"
       y="-467"><tspan
         id="tspan70"
         sodipodi:role="line"
         y="-467"
         x="1031 1055.3005 1065.5555 1077.6375 1093.531 1113.901 1130.8199"
         style="font-size:35px;line-height:1.25">Kitchen</tspan></text>
<text
       id="text74"
       style="font-variant:normal;font-weight:normal;line-height:0%;font-family:Georgia;-inkscape-font-specification:Georgia;writing-mode:lr-tb;fill:#000000;fill-opacity:1;fill-rule:nonzero;stroke:none"
       transform="scale(1,-1)"
       x="1111"
       y="-318"><tspan
         id="tspan76"
         sodipodi:role="line"
         y="-318"
         x="1111 1132.028 1146.6469 1172.1987 1186.2086 1193.2004 1213.5614 1229.1953 1244.8292"
         style="font-size:29px;line-height:1.25">Game Room</tspan></text>
<text
       id="text80"
       style="font-variant:normal;font-weight:normal;line-height:0%;font-family:Georgia;-inkscape-font-specification:Georgia;writing-mode:lr-tb;fill:#000000;fill-opacity:1;fill-rule:nonzero;stroke:none"
       transform="scale(1,-1)"
       x="1302"
       y="-813"><tspan
         id="tspan82"
         sodipodi:role="line"
         y="-813"
         x="1302 1326.5594 1345.4141 1376.2385 1393.168 1407.5074"
         style="font-size:35px;line-height:1.25">Romero</tspan></text>
<text
       id="text86"
       style="font-variant:normal;font-weight:normal;line-height:0%;font-family:Georgia;-inkscape-font-specification:Georgia;writing-mode:lr-tb;fill:#000000;fill-opacity:1;fill-rule:nonzero;stroke:none"
       transform="scale(1,-1)"
       x="1289"
       y="-963"><tspan
         id="tspan88"
         sodipodi:role="line"
         y="-963"
         x="1289 1311.4735 1329.1169 1343.4705 1374.309 1391.9525 1407.8459"
         style="font-size:35px;line-height:1.25">Carmack</tspan></text>
<text
       id="text92"
       style="font-variant:normal;font-weight:normal;line-height:0%;font-family:Georgia;-inkscape-font-specification:Georgia;writing-mode:lr-tb;fill:#000000;fill-opacity:1;fill-rule:nonzero;stroke:none"
       transform="scale(1,-1)"
       x="1469"
       y="-224"
       sodipodi:linespacing="0%"><tspan
         id="tspan94"
         sodipodi:role="line"
         y="-224"
         x="1469 1493.3005 1510.2195 1527.6005 1537.8555"
         style="font-size:35px;line-height:1.25">Kevin</tspan></text>
<text
       id="text98"
       style="font-variant:normal;font-weight:normal;line-height:0%;font-family:Georgia;-inkscape-font-specification:Georgia;writing-mode:lr-tb;fill:#000000;fill-opacity:1;fill-rule:nonzero;stroke:none"
       transform="scale(1,-1)"
       x="1701.5"
       y="-224"
       sodipodi:linespacing="0%"><tspan
         id="tspan100"
         sodipodi:role="line"
         y="-224"
         x="1701.5 1724.9814 1745.0785 1759.418 1769.673 1787.3094"
         style="font-size:35px;line-height:1.25">Adrian</tspan></text>
<text
       id="text104"
       style="font-variant:normal;font-weight:normal;line-height:0%;font-family:Georgia;-inkscape-font-specification:Georgia;writing-mode:lr-tb;fill:#000000;fill-opacity:1;fill-rule:nonzero;stroke:none"
       transform="scale(1,-1)"
       x="1615.6003"
       y="-467"><tspan
         id="tspan106"
         sodipodi:role="line"
         y="-467"
         x="1615.6003 1637.2549 1656.1233 1686.9548 1703.3594 1722.9944 1740.6309 1761.3088 1781.4059"
         style="font-size:35px;line-height:1.25">Tom/Sandy</tspan></text>
<text
       id="text110"
       style="font-variant:normal;font-weight:normal;line-height:0%;font-family:Georgia;-inkscape-font-specification:Georgia;writing-mode:lr-tb;fill:#000000;fill-opacity:1;fill-rule:nonzero;stroke:none"
       transform="scale(1,-1)"
       x="1716"
       y="-647"><tspan
         id="tspan112"
         sodipodi:role="line"
         y="-647"
         x="1716 1742.215 1759.8516 1777.2325"
         style="font-size:35px;line-height:1.25">Dave</tspan></text>
<path
       inkscape:connector-curvature="0"
       id="path116"
       style="fill:none;stroke:#000000;stroke-width:2;stroke-linecap:butt;stroke-linejoin:miter;stroke-miterlimit:4;stroke-dasharray:none;stroke-opacity:1"
       d="m 1439.61,216.0284 145.4175,0 0,-39.7325 -145.4175,0 z" /><path
       inkscape:connector-curvature="0"
       id="path120"
       style="fill:none;stroke:#000000;stroke-width:2;stroke-linecap:butt;stroke-linejoin:miter;stroke-miterlimit:4;stroke-dasharray:none;stroke-opacity:1"
       d="m 1688.11,216.6285 145.4175,0 0,-39.7325 -145.4175,0 z" /><path
       inkscape:connector-curvature="0"
       id="path124"
       style="fill:none;stroke:#000000;stroke-width:2;stroke-linecap:butt;stroke-linejoin:miter;stroke-miterlimit:4;stroke-dasharray:none;stroke-opacity:1"
       d="M 967.0525,371.3735 V 516.791 h 39.7325 V 371.3735 Z" /><path
       inkscape:connector-curvature="0"
       id="path128"
       style="fill:none;stroke:#000000;stroke-width:2;stroke-linecap:butt;stroke-linejoin:miter;stroke-miterlimit:4;stroke-dasharray:none;stroke-opacity:1"
       d="M 1810.892,406.1275 V 551.545 h 39.7325 V 406.1275 Z" /><path
       inkscape:connector-curvature="0"
       id="path132"
       style="fill:none;stroke:#000000;stroke-width:2;stroke-linecap:butt;stroke-linejoin:miter;stroke-miterlimit:4;stroke-dasharray:none;stroke-opacity:1"
       d="m 1662.85,447.5812 h 145.4175 V 407.8487 H 1662.85 Z" /><path
       inkscape:connector-curvature="0"
       id="path136"
       style="fill:none;stroke:#000000;stroke-width:2;stroke-linecap:butt;stroke-linejoin:miter;stroke-miterlimit:4;stroke-dasharray:none;stroke-opacity:1"
       d="m 1707.57,550.8237 h 100.6974 V 511.0912 H 1707.57 Z" /><path
       inkscape:connector-curvature="0"
       id="path140"
       style="fill:none;stroke:#000000;stroke-width:2;stroke-linecap:butt;stroke-linejoin:miter;stroke-miterlimit:4;stroke-dasharray:none;stroke-opacity:1"
       d="M 1814.492,578.3335 V 723.751 h 39.7325 V 578.3335 Z" /><path
       inkscape:connector-curvature="0"
       id="path144"
       style="fill:none;stroke:#000000;stroke-width:2;stroke-linecap:butt;stroke-linejoin:miter;stroke-miterlimit:4;stroke-dasharray:none;stroke-opacity:1"
       d="m 967.0525,520.1635 v 65.3475 h 53.735 v -65.3475 z" /><path
       inkscape:connector-curvature="0"
       id="path148"
       style="fill:none;stroke:#000000;stroke-width:2;stroke-linecap:butt;stroke-linejoin:miter;stroke-miterlimit:4;stroke-dasharray:none;stroke-opacity:1"
       d="m 1118.138,286.1681 h 145.4175 V 246.4356 H 1118.138 Z" /><path
       inkscape:connector-curvature="0"
       id="path152"
       style="fill:none;stroke:#000000;stroke-width:2;stroke-linecap:butt;stroke-linejoin:miter;stroke-miterlimit:4;stroke-dasharray:none;stroke-opacity:1"
       d="M 1611.052,814.1375 V 984.965 h 88.4018 V 814.1375 Z" /><text
       id="text156"
       style="font-variant:normal;font-weight:normal;line-height:0%;font-family:Georgia;-inkscape-font-specification:Georgia;writing-mode:lr-tb;fill:#000000;fill-opacity:1;fill-rule:nonzero;stroke:none"
       transform="scale(1,-1)"
       x="1630"
       y="-905"><tspan
         id="tspan158"
         sodipodi:role="line"
         y="-905"
         x="1630 1645.8574 1659.8688 1673.8802 1681.3136"
         style="font-size:26px;line-height:1.25">Pool </tspan></text>
<text
       id="text162"
       style="font-variant:normal;font-weight:normal;line-height:0%;font-family:Georgia;-inkscape-font-specification:Georgia;writing-mode:lr-tb;fill:#000000;fill-opacity:1;fill-rule:nonzero;stroke:none"
       transform="scale(1,-1)"
       x="1623"
       y="-875"><tspan
         id="tspan164"
         sodipodi:role="line"
         y="-875"
         x="1623 1639.0862 1652.1824 1666.7346 1674.1628"
         style="font-size:26px;line-height:1.25">Table</tspan></text>
<path
       inkscape:connector-curvature="0"
       id="path168"
       style="fill:none;stroke:#000000;stroke-width:5;stroke-linecap:butt;stroke-linejoin:miter;stroke-miterlimit:4;stroke-dasharray:none;stroke-opacity:1"
       d="m 697.4984,370.6775 h 355.2912 v -131.82 H 697.4984 Z" /><text
       id="text172"
       style="font-variant:normal;font-weight:normal;line-height:0%;font-family:Georgia;-inkscape-font-specification:Georgia;writing-mode:lr-tb;fill:#000000;fill-opacity:1;fill-rule:nonzero;stroke:none"
       transform="scale(1,-1)"
       x="816"
       y="-292"><tspan
         id="tspan174"
         sodipodi:role="line"
         y="-292"
         x="816 835.63501 847.71698 866.58551 880.92499 898.56152 916.38702"
         style="font-size:35px;line-height:1.25">Storage</tspan></text>
<path
       inkscape:connector-curvature="0"
       id="path178"
       style="fill:none;stroke:#000000;stroke-width:5;stroke-linecap:butt;stroke-linejoin:miter;stroke-miterlimit:4;stroke-dasharray:none;stroke-opacity:1"
       d="m 964.9501,1047.61 h 252.0848 V 647.6375 H 964.9501 Z" /><text
       id="text182"
       style="font-variant:normal;font-weight:normal;line-height:0%;font-family:Georgia;-inkscape-font-specification:Georgia;writing-mode:lr-tb;fill:#000000;fill-opacity:1;fill-rule:nonzero;stroke:none"
       transform="scale(1,-1)"
       x="1015"
       y="-875"><tspan
         id="tspan184"
         sodipodi:role="line"
         y="-875"
         x="1015 1038.4814 1069.313 1086.2321 1100.5715 1110.8265 1126.72 1144.3564 1165.0345"
         style="font-size:35px;line-height:1.25">American </tspan></text>
<text
       id="text188"
       style="font-variant:normal;font-weight:normal;line-height:0%;font-family:Georgia;-inkscape-font-specification:Georgia;writing-mode:lr-tb;fill:#000000;fill-opacity:1;fill-rule:nonzero;stroke:none"
       transform="scale(1,-1)"
       x="1077"
       y="-835"><tspan
         id="tspan190"
         sodipodi:role="line"
         y="-835"
         x="1077 1101.864"
         style="font-size:35px;line-height:1.25">&amp; </tspan></text>
<text
       id="text194"
       style="font-variant:normal;font-weight:normal;line-height:0%;font-family:Georgia;-inkscape-font-specification:Georgia;writing-mode:lr-tb;fill:#000000;fill-opacity:1;fill-rule:nonzero;stroke:none"
       transform="scale(1,-1)"
       x="1038"
       y="-795"><tspan
         id="tspan196"
         sodipodi:role="line"
         y="-795"
         x="1038 1057.635 1078.005 1095.6415 1121.447"
         style="font-size:35px;line-height:1.25">Shawn</tspan></text>
<path
       d="M 894.3638,650.6088 H 962.505 V 583.2613 H 894.3638 Z"
       style="fill:#ffffff;fill-opacity:1;fill-rule:nonzero;stroke:none"
       id="path198"
       inkscape:connector-curvature="0" /><path
       inkscape:connector-curvature="0"
       id="path202"
       style="fill:none;stroke:#000000;stroke-width:5;stroke-linecap:butt;stroke-linejoin:miter;stroke-miterlimit:4;stroke-dasharray:none;stroke-opacity:1"
       d="m 694.6913,174.4987 h 750.5845" /><path
       inkscape:connector-curvature="0"
       id="path238"
       style="fill:none;stroke:#000000;stroke-width:5;stroke-linecap:butt;stroke-linejoin:miter;stroke-miterlimit:4;stroke-dasharray:none;stroke-opacity:1"
       d="M 505.8481,770.11 H 964.005 V 370.1375 H 505.8481 Z" /><path
       d="m 943.3638,646 h 68.1412 v -55 h -68.1412 z"
       style="fill:#ffffff;fill-opacity:1;fill-rule:nonzero;stroke:none"
       id="path240"
       inkscape:connector-curvature="0" /><path
       inkscape:connector-curvature="0"
       id="path244"
       style="fill:none;stroke:#000000;stroke-width:5;stroke-linecap:butt;stroke-linejoin:miter;stroke-miterlimit:4;stroke-dasharray:none;stroke-opacity:1"
       d="M 696.4852,1047.61 H 896.5066 V 770.9344 H 696.4852 Z" /><text
       id="text248"
       style="font-variant:normal;font-weight:normal;line-height:0%;font-family:Georgia;-inkscape-font-specification:Georgia;writing-mode:lr-tb;fill:#000000;fill-opacity:1;fill-rule:nonzero;stroke:none"
       transform="scale(1,-1)"
       x="709"
       y="-907"><tspan
         id="tspan250"
         sodipodi:role="line"
         y="-907"
         x="709 731.47351 750.34198 771.03052 782.409 799.3175 813.67102 830.57947 851.26801 867.1615 884.07001"
         style="font-size:35px;line-height:1.25">Conference </tspan></text>
<text
       id="text254"
       style="font-variant:normal;font-weight:normal;line-height:0%;font-family:Georgia;-inkscape-font-specification:Georgia;writing-mode:lr-tb;fill:#000000;fill-opacity:1;fill-rule:nonzero;stroke:none"
       transform="scale(1,-1)"
       x="750"
       y="-867"><tspan
         id="tspan256"
         sodipodi:role="line"
         y="-867"
         x="750 774.55951 793.414 812.26849"
         style="font-size:35px;line-height:1.25">Room</tspan></text>
<text
       id="text260"
       style="font-variant:normal;font-weight:normal;line-height:0%;font-family:Georgia;-inkscape-font-specification:Georgia;writing-mode:lr-tb;fill:#000000;fill-opacity:1;fill-rule:nonzero;stroke:none"
       transform="scale(1,-1)"
       x="627"
       y="-730"><tspan
         id="tspan262"
         sodipodi:role="line"
         y="-730"
         x="627 653.21503 672.0835 692.76147 713.43951"
         style="font-size:35px;line-height:1.25">Donna</tspan></text>
<path
       inkscape:connector-curvature="0"
       id="path266"
       style="fill:none;stroke:#000000;stroke-width:5;stroke-linecap:butt;stroke-linejoin:miter;stroke-miterlimit:4;stroke-dasharray:none;stroke-opacity:1"
       d="M 505.7794,1047.61 H 696.5401 V 770.9344 H 505.7794 Z" /><text
       id="text270"
       style="font-variant:normal;font-weight:normal;line-height:0%;font-family:Georgia;-inkscape-font-specification:Georgia;writing-mode:lr-tb;fill:#000000;fill-opacity:1;fill-rule:nonzero;stroke:none"
       transform="scale(1,-1)"
       x="571"
       y="-897"><tspan
         id="tspan272"
         sodipodi:role="line"
         y="-897"
         x="571 589.11603 606.742"
         style="font-size:35px;line-height:1.25">Jay</tspan></text>
<path
       d="m 500.9532,373.3637 h 193.9485 v -18.804 H 500.9532 Z"
       style="fill:#ffffff;fill-opacity:1;fill-rule:nonzero;stroke:none"
       id="path276"
       inkscape:connector-curvature="0" /><path
       inkscape:connector-curvature="0"
       id="path280"
       style="fill:none;stroke:#000000;stroke-width:5;stroke-linecap:butt;stroke-linejoin:miter;stroke-miterlimit:4;stroke-dasharray:none;stroke-opacity:1"
       d="M 506.2279,588.9449 697.72662,369.75125" /><path
       d="m 847.3007,783.6088 h 47.0631 v -54.3475 h -47.0631 z"
       style="fill:#ffffff;fill-opacity:1;fill-rule:nonzero;stroke:none"
       id="path282"
       inkscape:connector-curvature="0" /><path
       d="m 898.9316,785.0019 h 64 V 642.5531 h -64 z"
       style="fill:#ffffff;fill-opacity:1;fill-rule:nonzero;stroke:none"
       id="path284"
       inkscape:connector-curvature="0" /><path
       d="m 938.9316,1002.247 h 62.7574 v -54.3476 h -62.7574 z"
       style="fill:#ffffff;fill-opacity:1;fill-rule:nonzero;stroke:none"
       id="path286"
       inkscape:connector-curvature="0" /><path
       d="m 517.9316,798.2469 h 52.7576 v -54.3475 h -52.7576 z"
       style="fill:#ffffff;fill-opacity:1;fill-rule:nonzero;stroke:none"
       id="path288"
       inkscape:connector-curvature="0" /><path
       d="m 566.5487,506.01 h 62.7575 v -54.3475 h -62.7575 z"
       style="fill:#ffffff;fill-opacity:1;fill-rule:nonzero;stroke:none"
       id="path290"
       inkscape:connector-curvature="0" /><path
       d="m 962.8418,256.6003 h 55.4562 v -54.3475 h -55.4562 z"
       style="fill:#ffffff;fill-opacity:1;fill-rule:nonzero;stroke:none"
       id="path292"
       inkscape:connector-curvature="0" /><path
       d="m 1293.54,355.4212 h 62.758 v -54.3475 h -62.758 z"
       style="fill:#ffffff;fill-opacity:1;fill-rule:nonzero;stroke:none"
       id="path294"
       inkscape:connector-curvature="0" /><path
       d="m 1169.587,441.3825 h 62.757 V 387.035 h -62.757 z"
       style="fill:#ffffff;fill-opacity:1;fill-rule:nonzero;stroke:none"
       id="path296"
       inkscape:connector-curvature="0" /><path
       d="m 1449.773,421.9525 h 52.757 V 367.605 h -52.757 z"
       style="fill:#ffffff;fill-opacity:1;fill-rule:nonzero;stroke:none"
       id="path298"
       inkscape:connector-curvature="0" /><path
       d="m 1480.482,817.9525 h 62.758 V 763.605 h -62.758 z"
       style="fill:#ffffff;fill-opacity:1;fill-rule:nonzero;stroke:none"
       id="path300"
       inkscape:connector-curvature="0" /><path
       d="m 1470.482,1032.953 h 62.758 v -54.348 h -62.758 z"
       style="fill:#ffffff;fill-opacity:1;fill-rule:nonzero;stroke:none"
       id="path302"
       inkscape:connector-curvature="0" /><path
       inkscape:connector-curvature="0"
       id="path306"
       style="fill:none;stroke:#000000;stroke-width:2;stroke-linecap:butt;stroke-linejoin:miter;stroke-miterlimit:4;stroke-dasharray:none;stroke-opacity:1"
       d="m 695.3858,179.9502 v 53.45573 h 5.70913 V 179.9502 Z" /><path
       inkscape:connector-curvature="0"
       id="path310"
       style="fill:none;stroke:#000000;stroke-width:2;stroke-linecap:butt;stroke-linejoin:miter;stroke-miterlimit:4;stroke-dasharray:none;stroke-opacity:1"
       d="m 1326.052,300.9655 v 53.45573 h 5.7091 V 300.9655 Z" /><path
       inkscape:connector-curvature="0"
       id="path314"
       style="fill:none;stroke:#000000;stroke-width:2;stroke-linecap:butt;stroke-linejoin:miter;stroke-miterlimit:4;stroke-dasharray:none;stroke-opacity:1"
       d="m 1017.298,236.3178 h -53.45573 v 5.70913 h 53.45573 z" /><path
       inkscape:connector-curvature="0"
       id="path318"
       style="fill:none;stroke:#000000;stroke-width:2;stroke-linecap:butt;stroke-linejoin:miter;stroke-miterlimit:4;stroke-dasharray:none;stroke-opacity:1"
       d="m 1214.052,387.2355 v 53.45573 h 5.7091 V 387.2355 Z" /><path
       inkscape:connector-curvature="0"
       id="path322"
       style="fill:none;stroke:#000000;stroke-width:2;stroke-linecap:butt;stroke-linejoin:miter;stroke-miterlimit:4;stroke-dasharray:none;stroke-opacity:1"
       d="m 1502.879,398.5096 h -53.4557 v 5.70913 h 53.4557 z" /><path
       inkscape:connector-curvature="0"
       id="path330"
       style="fill:none;stroke:#000000;stroke-width:2;stroke-linecap:butt;stroke-linejoin:miter;stroke-miterlimit:4;stroke-dasharray:none;stroke-opacity:1"
       d="m 1495.152,979.0509 v 53.4557 h 5.7091 v -53.4557 z" /><path
       inkscape:connector-curvature="0"
       id="path334"
       style="fill:none;stroke:#000000;stroke-width:2;stroke-linecap:butt;stroke-linejoin:miter;stroke-miterlimit:4;stroke-dasharray:none;stroke-opacity:1"
       d="m 962.4501,947.8994 v 53.4557 h 5.70913 v -53.4557 z" /><path
       d="m 895.5601,768.2186 h -53.4557 v 5.7091 h 53.4557 z"
       style="fill:#ffffff;fill-opacity:1;fill-rule:nonzero;stroke:none"
       id="path340"
       inkscape:connector-curvature="0" /><path
       inkscape:connector-curvature="0"
       id="path344"
       style="fill:none;stroke:#000000;stroke-width:2;stroke-linecap:butt;stroke-linejoin:miter;stroke-miterlimit:4;stroke-dasharray:none;stroke-opacity:1"
       d="m 895.5601,768.2186 h -53.45573 v 5.70913 h 53.45573 z" /><path
       d="m 571.6892,768.0421 h -53.4557 v 5.7092 h 53.4557 z"
       style="fill:#ffffff;fill-opacity:1;fill-rule:nonzero;stroke:none"
       id="path346"
       inkscape:connector-curvature="0" /><path
       inkscape:connector-curvature="0"
       id="path350"
       style="fill:none;stroke:#000000;stroke-width:2;stroke-linecap:butt;stroke-linejoin:miter;stroke-miterlimit:4;stroke-dasharray:none;stroke-opacity:1"
       d="m 571.6892,768.0421 h -53.45573 v 5.70913 h 53.45573 z" /><path
       d="m 620.0833,442.5207 -52.0557,60.4441 12.7329,10.9659 52.0557,-60.4442 z"
       style="fill:#ffffff;fill-opacity:1;fill-rule:nonzero;stroke:none"
       id="path352"
       inkscape:connector-curvature="0" /><path
       inkscape:connector-curvature="0"
       id="path356"
       style="fill:none;stroke:#000000;stroke-width:2;stroke-linecap:butt;stroke-linejoin:miter;stroke-miterlimit:4;stroke-dasharray:none;stroke-opacity:1"
       d="m 620.0833,442.5207 -52.05572,60.4442 12.73291,10.96583 52.05572,-60.4442 z" /><path
       inkscape:connector-curvature="0"
       id="path360"
       style="fill:none;stroke:#000000;stroke-width:2;stroke-linecap:butt;stroke-linejoin:miter;stroke-miterlimit:4;stroke-dasharray:none;stroke-opacity:1"
       d="m 581.2935,684.2045 v 80.3328 h 39.7325 v -80.3328 z" /><path
       inkscape:connector-curvature="0"
       id="path364"
       style="fill:none;stroke:#000000;stroke-width:2;stroke-linecap:butt;stroke-linejoin:miter;stroke-miterlimit:4;stroke-dasharray:none;stroke-opacity:1"
       d="m 621.6268,684.6126 v 29.76305 h 88.40185 V 684.6126 Z" /><rect
       style="opacity:0.98000004;fill:#c0c0c0;fill-opacity:1;stroke:#000000;stroke-width:1.72329581;stroke-miterlimit:4;stroke-dasharray:none;stroke-dashoffset:0;stroke-opacity:1"
       id="rect3832"
       width="80.669701"
       height="166.71738"
       x="1768.5393"
       y="-982.58667"
       transform="scale(1,-1)"
       ry="12.999988" /><path
       style="fill:#000000;stroke-width:0.11033979"
       d="m 1628.6864,266.90646 c -0,-0.41588 -0.024,-1.94584 -0.047,-3.39998 -0.023,-1.45416 -0.025,-2.70709 -0.01,-2.78447 0.02,-0.0774 1.4452,-1.71211 3.1663,-3.63333 4.8572,-5.42112 8.796,-9.91377 9.8962,-11.28748 1.5874,-1.98093 1.8753,-2.49441 1.8106,-3.22138 -0.043,-0.48399 -0.5302,-2.65679 -0.6124,-2.73289 -0.058,-0.0622 -1.2347,-3.98897 -1.9014,-6.37576 -0.2303,-0.82384 -0.4504,-1.60757 -0.4894,-1.74129 -0.1329,-0.45574 -1.2462,-5.15333 -1.5485,-6.5339 -0.3361,-1.53463 -0.3632,-1.41608 0.6441,-2.81857 0.7043,-0.9786 1.4174,-1.97499 2.0739,-2.89109 0.2846,-0.39794 0.7511,-1.04876 1.0363,-1.44631 0.2846,-0.39811 0.7511,-1.04876 1.0361,-1.44628 0.2846,-0.39803 0.7511,-1.04871 1.0362,-1.44639 0.2846,-0.39787 0.7591,-1.0583 1.0517,-1.46935 0.2935,-0.41073 0.7108,-0.98163 0.9278,-1.26877 l 0.395,-0.52185 0.991,1.02191 c 6.0318,6.21646 5.7486,5.94411 6.3597,6.11406 0.9195,0.25542 5.2256,-0.22094 6.3841,-0.70633 0.4603,-0.19294 1.0621,-0.74838 5.4493,-5.03042 0.8475,-0.828 2.2356,-2.18187 3.0836,-3.00966 2.2374,-2.18367 4.697,-4.62253 6.4479,-6.39346 2.1769,-2.20171 2.4562,-2.71677 2.4032,-4.43243 -0.031,-1.00404 -0.2426,-3.25066 -0.3801,-4.03526 -0.059,-0.33824 -0.1032,-0.65637 -0.098,-0.70681 0.024,-0.22863 -0.5769,-2.12889 -0.7967,-2.51702 -0.3683,-0.65021 -1.1647,-0.99834 -2.0273,-0.88826 -0.5808,0.0746 -2.3134,0.59801 -2.9875,0.90266 -0.1475,0.0676 -0.6261,0.26779 -1.0615,0.44623 -1.5702,0.64328 -2.0669,1.01861 -2.2615,1.70871 -0.083,0.29466 -0.304,2.15401 -0.3283,2.76435 -0.01,0.13402 -0.092,0.59414 -0.1924,1.02422 l -0.1826,0.78199 -2.3768,2.53604 c -2.425,2.58761 -4.3906,4.49738 -5.1515,5.00505 -0.8777,0.58515 -1.419,0.59141 -2.3998,0.0279 -0.6082,-0.34994 -4.4531,-3.98374 -6.053,-5.72161 -0.4948,-0.53765 -1.1696,-1.27066 -1.4996,-1.62897 -0.3297,-0.35827 -0.6328,-0.70874 -0.6731,-0.77857 -0.046,-0.0801 0.2812,-0.17844 0.8786,-0.26498 1.147,-0.16636 2.8042,-0.77008 3.7053,-1.34958 0.2099,-0.13625 0.5615,-0.36026 0.7791,-0.49935 0.478,-0.30517 2.1662,-2.11007 2.3054,-2.46488 0.056,-0.13851 0.2037,-0.461 0.3311,-0.71514 0.5744,-1.14519 0.8503,-3.00668 0.628,-4.24104 -0.061,-0.33675 -0.1098,-0.64947 -0.1092,-0.69469 0.01,-0.44027 -0.6199,-1.94334 -1.1426,-2.74649 -0.3654,-0.56161 -2.3049,-2.43588 -2.758,-2.6653 -0.2107,-0.10719 -0.5796,-0.29331 -0.8183,-0.41495 -1.8294,-0.92852 -4.3922,-0.9661 -6.4496,-0.0947 -0.7016,0.29715 -0.8295,0.36276 -1.3848,0.71089 -0.7874,0.49381 -1.3498,0.93009 -2.1215,1.64538 -0.6134,0.56706 -0.8232,0.86354 -1.6337,2.30723 -0.073,0.13116 -0.2737,0.72338 -0.4447,1.31675 -0.3401,1.18021 -0.4081,1.31669 -0.5493,1.10508 -0.052,-0.078 -0.6859,-0.7455 -1.4086,-1.48362 -0.7226,-0.73814 -1.702,-1.74755 -2.1762,-2.24316 -1.5042,-1.57102 -2.4653,-1.95851 -5.4962,-2.21652 -2.4122,-0.20526 -3.0602,-0.15048 -4.3359,0.36634 -0.5812,0.23563 -1.1021,0.47747 -1.1575,0.53767 -0.062,0.0555 -0.1624,0.11658 -0.2391,0.12427 -0.077,0.007 -0.3393,0.13351 -0.585,0.27832 -0.2465,0.1441 -0.5036,0.2781 -0.5735,0.29624 -0.069,0.0188 -0.3249,0.15427 -0.5673,0.30213 -0.242,0.14809 -0.5319,0.30188 -0.6437,0.34212 -0.1109,0.0408 -0.269,0.14436 -0.3497,0.23121 -0.086,0.0826 -0.2044,0.14669 -0.2733,0.13389 -0.07,-0.0139 -0.2081,0.0617 -0.3058,0.16817 -0.1024,0.10247 -0.2361,0.18151 -0.3056,0.16841 -0.07,-0.0139 -0.2104,0.0643 -0.3114,0.1739 -0.1051,0.10582 -0.2752,0.23165 -0.385,0.27373 -0.1978,0.0727 -1.0609,0.5654 -1.9336,1.10298 -0.2414,0.1489 -0.5345,0.31749 -0.6513,0.37477 -0.1169,0.0573 -0.4087,0.22688 -0.6489,0.37677 -0.2399,0.15028 -0.5321,0.3197 -0.6488,0.37712 -0.1176,0.0566 -0.409,0.22685 -0.649,0.37658 -0.2399,0.15028 -0.549,0.33791 -0.6863,0.41758 -0.137,0.08 -0.446,0.26775 -0.6862,0.4176 -0.2399,0.15012 -0.5491,0.33763 -0.6864,0.41738 -0.1377,0.0792 -0.4458,0.26779 -0.6861,0.41763 -0.2398,0.15012 -0.5322,0.31945 -0.649,0.37679 -0.1168,0.0573 -0.4088,0.2269 -0.649,0.37673 -0.2399,0.1502 -0.5489,0.33776 -0.6862,0.41757 -0.1377,0.0793 -0.446,0.26761 -0.6863,0.41745 -0.2398,0.15012 -0.549,0.33772 -0.6862,0.41737 -0.1378,0.0794 -0.4461,0.26769 -0.6863,0.41753 -0.2399,0.15012 -0.5491,0.33772 -0.6863,0.41745 -0.1378,0.0793 -0.446,0.26753 -0.6863,0.41738 -0.2399,0.15019 -0.5492,0.3376 -0.6863,0.41752 -0.1378,0.0793 -0.4463,0.2675 -0.6865,0.41733 -0.2398,0.15005 -0.5491,0.33773 -0.6861,0.41749 -0.1377,0.0793 -0.4457,0.26798 -0.6855,0.41824 -0.2399,0.15028 -0.546,0.32691 -0.6804,0.39236 -0.1342,0.0656 -0.4426,0.33331 -0.6846,0.59512 -0.419,0.45378 -0.4366,0.50299 -0.3737,1.04165 0.067,0.57501 0.8092,2.6435 1.1823,3.29705 0.1127,0.19729 0.3944,0.53413 0.6261,0.74826 0.4776,0.4416 0.9411,0.56457 2.0849,0.55281 5.5105,-0.0554 6.4069,-0.12358 6.7684,-0.51452 0.203,-0.21996 0.6081,-1.2499 1.0092,-2.56736 0.3315,-1.08815 0.7807,-1.58079 1.8314,-2.0075 3.0085,-1.22403 6.6101,-2.67117 8.3139,-3.34047 0.6901,-0.2711 1.3921,-0.56117 1.5597,-0.64475 0.334,-0.16617 0.3371,-0.16336 1.31,1.10905 0.1866,0.24525 0.4646,0.60286 0.6168,0.7958 0.1527,0.19231 0.4284,0.55254 0.614,0.79872 0.1851,0.24671 0.57,0.74485 0.8543,1.10773 0.2841,0.36333 0.5229,0.71057 0.5298,0.77267 0.01,0.0616 -0.2161,0.43727 -0.4952,0.83404 -0.9542,1.35484 -1.6355,2.34237 -2.556,3.71072 -0.223,0.33093 -0.6178,0.91284 -0.8779,1.29226 -0.2596,0.37975 -0.6566,0.95926 -0.8806,1.2895 -0.2246,0.32969 -0.6055,0.89028 -0.8483,1.24429 -0.2405,0.35591 -0.595,0.87379 -0.7834,1.15428 -0.3345,0.49775 -0.7881,1.16301 -1.7111,2.51264 -0.2509,0.3673 -0.6258,0.91662 -0.833,1.22091 -0.2071,0.30462 -0.5775,0.84104 -0.8217,1.19387 -0.2443,0.35256 -0.4928,0.73911 -0.5517,0.85915 -0.089,0.1835 -1.9146,1.27861 -2.8479,1.70828 -0.1204,0.0539 -1.2194,0.66085 -2.4447,1.34632 -1.2252,0.68573 -2.3258,1.29122 -2.4459,1.3455 -0.1212,0.0533 -0.6923,0.37059 -1.2721,0.70247 -0.5795,0.33205 -1.1155,0.61069 -1.1913,0.61929 -0.076,0.008 -0.2132,0.0971 -0.3051,0.19745 -0.097,0.096 -0.2245,0.17085 -0.2951,0.15674 -0.07,-0.0139 -0.2026,0.057 -0.2951,0.1568 -0.097,0.096 -0.2301,0.18834 -0.3061,0.19663 -0.076,0.008 -0.4764,0.20967 -0.8905,0.44658 -0.4143,0.23696 -0.8151,0.4379 -0.8906,0.44646 -0.076,0.008 -0.1987,0.0817 -0.274,0.16208 -0.08,0.0758 -0.2394,0.18554 -0.3656,0.23299 -0.1258,0.0478 -0.3331,0.12501 -0.4596,0.17221 -0.1273,0.0464 -0.2908,0.15227 -0.3656,0.23307 -0.08,0.0758 -0.1983,0.15343 -0.274,0.162 -0.077,0.007 -0.3391,0.13341 -0.5848,0.27843 -0.2465,0.1441 -0.5026,0.27892 -0.5711,0.29839 -0.069,0.0201 -0.3057,0.13816 -0.5273,0.26386 -0.2219,0.12554 -0.526,0.28389 -0.6765,0.35141 -0.5401,0.24181 -0.7128,0.32859 -1.2115,0.60808 -0.2785,0.15575 -0.6567,0.34721 -0.841,0.42492 -0.1835,0.0779 -0.5631,0.26821 -0.8422,0.42356 -0.2794,0.15492 -0.6561,0.34761 -0.8381,0.42728 -0.1815,0.0801 -0.4932,0.23157 -0.6918,0.33729 -0.3962,0.21145 -0.8066,0.40834 -1.0701,0.51347 -0.094,0.0379 -0.3824,0.19536 -0.6419,0.3509 -0.5006,0.30085 -0.7322,0.29864 -1.4056,-0.0134 -0.4121,-0.19069 -0.5779,-0.25875 -1.1446,-0.46845 -0.1542,-0.0567 -0.4482,-0.17768 -0.6535,-0.26827 -0.2052,-0.0911 -0.4997,-0.21123 -0.6537,-0.26832 -0.4025,-0.14876 -0.6683,-0.25677 -1.0923,-0.44377 -0.2051,-0.091 -0.4996,-0.21131 -0.6535,-0.26834 -0.4026,-0.14876 -0.6683,-0.25671 -1.0922,-0.44365 -0.4275,-0.18803 -0.6939,-0.29659 -1.0927,-0.44352 -0.3023,-0.11145 -1.3452,-0.5446 -1.6721,-0.69462 -0.1877,-0.0874 -0.2496,-0.0312 -1.014,0.91761 -0.4467,0.55583 -1.2801,1.55789 -1.8451,2.23215 l -1.0362,1.2188 0.2707,0.35716 c 0.2509,0.32981 0.7566,0.89745 2.9517,3.30906 0.4511,0.49541 1.1866,1.30888 1.6348,1.80768 0.9236,1.02794 1.983,2.19684 3.2359,3.57031 0.4724,0.51715 0.9865,1.09499 1.1429,1.28341 0.1569,0.1879 0.5938,0.66611 0.9721,1.06154 l 0.6879,0.7186 0.3582,-0.15975 c 0.1971,-0.0879 0.7373,-0.3165 1.2006,-0.50798 1.8602,-0.76864 2.2074,-0.91383 2.6299,-1.10029 0.4696,-0.20692 0.9143,-0.39236 2.6707,-1.11381 0.6093,-0.25033 1.1197,-0.46781 1.1339,-0.48326 0.014,-0.0161 0.5498,-0.24111 1.1899,-0.50171 0.64,-0.26031 1.3635,-0.559 1.6077,-0.66382 0.2443,-0.10489 0.7477,-0.31576 1.1185,-0.46882 0.6388,-0.26344 1.1794,-0.49126 2.4569,-1.03489 0.6747,-0.28693 1.6171,-0.67769 2.7493,-1.13998 0.4652,-0.18989 1.0826,-0.44746 1.3721,-0.57235 0.2895,-0.12503 0.7633,-0.32955 1.0528,-0.45444 0.2891,-0.12512 0.8296,-0.35251 1.2007,-0.5054 0.3709,-0.153 0.8725,-0.36535 1.1147,-0.47208 0.2424,-0.1067 0.7963,-0.33854 1.2313,-0.51489 0.4351,-0.17634 1.0273,-0.42344 1.3159,-0.54918 1.0103,-0.43952 1.5835,-0.68504 2.2779,-0.97487 l 0.6999,-0.29225 0.3755,0.34701 c 0.3214,0.29687 1.5042,2.26456 1.8317,3.04646 0.051,0.12329 0.6397,1.20572 1.3071,2.4059 0.6674,1.20032 1.2438,2.27661 1.2808,2.39175 0.037,0.11618 0.1386,0.27531 0.2258,0.35582 0.083,0.084 0.1475,0.2033 0.1336,0.27379 -0.014,0.0697 0.058,0.20386 0.1593,0.29757 0.099,0.0971 0.1866,0.21601 0.1887,0.27184 0,0.0919 0.4832,1.02747 1.1622,2.26686 0.6159,1.12424 0.9847,2.17996 0.8844,2.53156 -0.099,0.34564 -0.8541,1.29596 -3.3396,4.20052 -0.987,1.15353 -2.6182,3.0605 -3.6255,4.23682 -1.0065,1.17696 -2.6898,3.13704 -3.7404,4.35591 -2.5872,3.00316 -2.93,3.46094 -2.876,3.83684 0.023,0.1642 0.1066,0.35958 0.1842,0.4331 0.079,0.0736 0.1719,0.22773 0.2092,0.34268 0.038,0.11461 0.3864,0.77871 0.7756,1.47518 0.3892,0.6966 0.7533,1.36319 0.8093,1.48163 0.1817,0.38377 0.6454,1.23319 0.9484,1.73757 0.1628,0.27099 0.3389,0.59241 0.3914,0.71433 0.053,0.1225 0.2008,0.4006 0.3295,0.61908 0.1288,0.21827 0.2788,0.49465 0.334,0.61382 0.055,0.1194 0.653,1.21758 1.3288,2.44104 1.1321,2.04981 1.2463,2.2207 1.4576,2.17946 0.2167,-0.0424 1.668,-0.82845 3.1998,-1.73259 0.3819,-0.22557 0.7857,-0.44309 0.8972,-0.48357 0.4821,-0.17481 0.688,-0.58556 0.6824,-1.36207 z m -3.128,0.7989 c -0.5773,0.20983 -1.087,0.37421 -1.1331,0.36515 -0.077,-0.0151 -1.6393,-2.7781 -1.8572,-3.28465 -0.052,-0.12175 -0.2007,-0.40054 -0.3294,-0.61902 -0.1288,-0.21826 -0.2801,-0.49346 -0.3367,-0.61106 -0.057,-0.11784 -0.496,-0.9224 -0.9766,-1.78841 -0.4804,-0.86589 -0.9014,-1.65417 -0.9355,-1.75148 -0.035,-0.0974 -0.1898,-0.39008 -0.3463,-0.65074 -0.4779,-0.79611 -0.4755,-0.8019 1.1737,-2.71402 6.6083,-7.66177 10.9309,-12.80519 11.4288,-13.59907 0.2983,-0.47471 0.4259,-0.9967 0.3605,-1.47035 -0.055,-0.40218 -0.6099,-1.83611 -1.0669,-2.75924 -0.1317,-0.26596 -0.3199,-0.66099 -0.4983,-1.04615 -0.2612,-0.56412 -0.3684,-0.78287 -0.6891,-1.40825 -0.177,-0.345 -0.3677,-0.72393 -0.4238,-0.84201 -0.056,-0.11864 -0.1892,-0.37647 -0.2956,-0.57422 -0.1067,-0.19756 -0.2385,-0.45727 -0.2933,-0.5769 -0.054,-0.11948 -0.2649,-0.51405 -0.4666,-0.87672 -0.2021,-0.36281 -0.4109,-0.75865 -0.4644,-0.87975 -0.053,-0.1217 -0.2023,-0.39888 -0.3309,-0.61739 -0.129,-0.21769 -0.2914,-0.51757 -0.3619,-0.66489 -0.2486,-0.51999 -0.3463,-0.69856 -0.9497,-1.73596 -0.3353,-0.57611 -0.6426,-1.13876 -0.6832,-1.25028 -0.041,-0.11155 -0.1295,-0.25371 -0.1972,-0.31703 -0.07,-0.0613 -0.1564,-0.20592 -0.1973,-0.31701 -0.041,-0.11156 -0.2701,-0.53878 -0.5102,-0.94948 -0.2405,-0.41078 -0.4439,-0.80857 -0.4524,-0.88422 -0.01,-0.0756 -0.1341,-0.24728 -0.279,-0.38148 -0.2263,-0.20965 -0.3188,-0.22307 -0.6794,-0.0645 -0.7761,0.334 -2.5983,1.08615 -4.3689,1.80332 -0.4431,0.17948 -1.1517,0.47107 -1.5748,0.64808 -0.4231,0.17687 -1.2289,0.50532 -1.7909,0.72968 -0.5619,0.22427 -1.4274,0.57382 -1.9233,0.77664 -2.2273,0.91101 -2.635,1.07838 -3.321,1.3629 -0.4011,0.16654 -1.2408,0.50607 -1.8659,0.75454 -0.6253,0.24854 -1.5294,0.61304 -2.0094,0.80976 -1.9539,0.80161 -2.6663,1.09165 -3.6395,1.4817 -0.5612,0.22509 -1.4135,0.57 -1.8936,0.7668 -0.48,0.19659 -1.2658,0.51832 -1.7459,0.71499 -0.4802,0.19669 -1.2005,0.49442 -1.6008,0.66161 -1.5475,0.64641 -1.7633,0.70114 -1.9521,0.49546 -0.097,-0.10582 -0.6317,-0.68737 -1.1884,-1.29233 -1.3253,-1.44102 -2.5306,-2.75727 -3.5893,-3.91976 -0.4716,-0.51773 -1.2777,-1.40154 -1.7912,-1.96335 -2.1531,-2.3559 -2.0495,-2.21777 -1.8889,-2.52207 0.08,-0.15031 0.4929,-0.67675 0.9208,-1.16778 l 0.776,-0.89437 0.4877,0.20302 c 0.2687,0.11112 0.5863,0.24257 0.7068,0.29132 0.12,0.0498 0.3617,0.15306 0.5371,0.23137 0.1752,0.0786 0.4182,0.18156 0.5403,0.22822 0.1226,0.0467 0.39,0.15936 0.5956,0.24977 0.4521,0.19919 0.8596,0.35449 1.1379,0.43303 0.1137,0.032 0.2622,0.11027 0.33,0.17354 0.07,0.0613 0.2182,0.13929 0.3334,0.16983 0.116,0.0311 0.4895,0.17348 0.8313,0.3176 0.342,0.1441 0.9014,0.3801 1.2435,0.52411 0.3418,0.14404 0.7159,0.28715 0.8312,0.31767 0.1161,0.0312 0.2527,0.095 0.3048,0.14375 0.051,0.0482 0.2892,0.15475 0.5263,0.23591 0.403,0.13836 0.4901,0.11484 1.3522,-0.36517 1.0352,-0.57649 1.8463,-1.01386 2.1645,-1.16758 0.1183,-0.0559 0.5103,-0.2683 0.8731,-0.47009 0.3627,-0.20192 0.7589,-0.41034 0.8807,-0.46315 0.122,-0.0526 0.6539,-0.33847 1.1827,-0.63479 0.5292,-0.29602 1.0555,-0.5692 1.1702,-0.60674 0.115,-0.0379 0.2599,-0.12383 0.3221,-0.19247 0.069,-0.0626 0.2177,-0.16259 0.3443,-0.20987 0.1258,-0.0478 0.3331,-0.12488 0.4596,-0.17222 0.1257,-0.0477 0.2813,-0.14154 0.3442,-0.20973 0.069,-0.0626 0.2074,-0.15497 0.3222,-0.19246 0.115,-0.0379 0.6404,-0.31139 1.1683,-0.60835 0.5282,-0.29678 1.0541,-0.57058 1.1686,-0.60832 0.115,-0.0379 0.2692,-0.13472 0.3442,-0.21527 0.08,-0.0758 0.1983,-0.15343 0.2739,-0.16214 0.077,-0.007 0.3393,-0.13343 0.5849,-0.27815 0.2465,-0.1441 0.5028,-0.27902 0.5713,-0.29849 0.069,-0.0201 0.3057,-0.13816 0.5272,-0.26391 0.2219,-0.12555 0.4993,-0.27479 0.617,-0.33116 0.1184,-0.0559 0.3929,-0.20779 0.6115,-0.33644 0.2181,-0.12881 0.4962,-0.27753 0.6173,-0.33093 0.1213,-0.0532 0.517,-0.2622 0.8797,-0.46412 0.3626,-0.2019 0.7586,-0.41079 0.8796,-0.46404 0.1212,-0.0532 0.5163,-0.26287 0.8782,-0.46563 0.3618,-0.20254 0.7511,-0.39957 0.8652,-0.43773 0.115,-0.0379 0.2591,-0.12468 0.3213,-0.19331 0.069,-0.0626 0.2075,-0.15506 0.3213,-0.19346 0.1142,-0.0385 0.5034,-0.23518 0.8653,-0.43767 0.3619,-0.20276 0.7569,-0.41248 0.8778,-0.46605 0.4319,-0.19148 1.7818,-0.91418 2.0073,-1.07445 0.1267,-0.0894 0.288,-0.17696 0.3601,-0.19315 0.6123,-0.13921 1.2822,-0.80517 2.1539,-2.14109 0.5541,-0.85019 1.045,-1.61093 1.4262,-2.21265 0.1983,-0.31262 0.5245,-0.8224 0.7256,-1.13229 0.2012,-0.30991 0.5009,-0.77674 0.6655,-1.03774 0.1645,-0.26128 0.4676,-0.72489 0.6723,-1.0314 0.2048,-0.30659 0.5204,-0.79225 0.703,-1.07825 0.1818,-0.28658 0.5087,-0.79571 0.7259,-1.13206 0.2177,-0.33588 0.5167,-0.8033 0.6654,-1.03758 0.647,-1.02298 1.0735,-1.68827 1.361,-2.12284 0.1696,-0.25637 0.4844,-0.74315 0.6992,-1.08167 0.2139,-0.33923 0.5346,-0.83748 0.7104,-1.10872 0.1757,-0.27151 0.4605,-0.71834 0.634,-0.99168 0.172,-0.27487 0.4262,-0.66545 0.5619,-0.87051 0.3415,-0.51249 0.3195,-0.77285 -0.1078,-1.29696 -0.2022,-0.24767 -0.5207,-0.65045 -0.7081,-0.89482 -0.1877,-0.24366 -0.5261,-0.68232 -0.7531,-0.97346 -0.2264,-0.29136 -0.6107,-0.78997 -0.8534,-1.10847 -1.2533,-1.64564 -2.1398,-2.71634 -2.3019,-2.78001 -0.065,-0.0249 -0.2337,-0.002 -0.3738,0.0531 -0.1391,0.0559 -0.7864,0.28476 -1.4362,0.51062 -3.2365,1.12489 -8.2026,2.96487 -9.2256,3.41808 -1.6299,0.72255 -1.8429,0.84616 -2.2945,1.33307 -0.4378,0.47349 -0.5442,0.81468 -0.9105,2.94943 -0.082,0.47923 -0.1929,0.91832 -0.246,0.97574 -0.122,0.12594 -3.3644,0.14852 -5.1379,0.0318 -0.4284,-0.0283 -0.8761,-0.05 -0.9947,-0.0481 -0.3781,0.006 -1.1999,-1.07229 -1.6352,-2.14601 -0.1793,-0.4423 -0.1757,-0.54868 0.028,-0.81602 0.2103,-0.27553 0.3965,-0.41132 1.2787,-0.92329 0.1378,-0.0793 0.4459,-0.26773 0.6863,-0.41745 0.2399,-0.15012 0.549,-0.33764 0.6863,-0.41745 0.1378,-0.0793 0.4461,-0.26761 0.6863,-0.41745 0.2399,-0.1502 0.549,-0.33764 0.6863,-0.41745 0.1377,-0.0793 0.446,-0.26767 0.6862,-0.4175 0.2398,-0.15013 0.5314,-0.32036 0.6469,-0.37864 0.205,-0.1037 0.4353,-0.23988 1.3372,-0.79265 0.2421,-0.14809 0.7108,-0.42483 1.0421,-0.61433 0.3313,-0.18972 0.7342,-0.42582 0.8954,-0.52478 0.9808,-0.60253 1.2269,-0.75007 1.7249,-1.03508 0.3035,-0.17403 0.7495,-0.438 0.9906,-0.58699 0.2413,-0.14883 0.5504,-0.3364 0.6877,-0.41599 0.137,-0.08 0.4459,-0.26782 0.6862,-0.41773 0.2399,-0.15012 0.5312,-0.32019 0.6469,-0.37863 0.205,-0.10362 0.4352,-0.23972 1.3372,-0.79257 0.2421,-0.14825 0.6881,-0.41201 0.9916,-0.5859 0.3036,-0.17403 0.887,-0.51372 1.2966,-0.7551 0.4095,-0.24117 0.8401,-0.4857 0.9565,-0.54313 0.1169,-0.0573 0.4084,-0.2274 0.6485,-0.37721 0.24,-0.15028 0.532,-0.31968 0.6489,-0.37691 0.1169,-0.0574 0.4109,-0.22506 0.6536,-0.37255 0.2436,-0.14678 0.5035,-0.27506 0.5796,-0.28321 0.077,-0.008 0.1956,-0.0779 0.2668,-0.15366 0.3444,-0.37232 1.5831,-0.65671 2.9686,-0.68135 1.6023,-0.0283 2.6783,0.1015 3.8002,0.45887 l 0.7587,0.24164 1.0527,1.07876 c 0.5789,0.59309 1.6769,1.71973 2.4405,2.50302 0.7639,0.78283 2.0505,2.07907 2.8602,2.87951 1.2748,1.25993 1.4874,1.43881 1.5832,1.3354 0.1456,-0.15418 0.2456,-0.84108 0.2942,-1.98098 0.1006,-2.36242 0.6484,-3.75334 2.0943,-5.31785 1.5132,-1.63766 2.6721,-2.17559 4.8687,-2.26141 1.3408,-0.0522 1.9567,0.0464 3.0763,0.49274 0.2372,0.094 0.7098,0.45644 1.2329,0.94205 0.9964,0.93071 1.4386,1.67141 1.7301,2.91903 0.2411,1.03184 0.2547,1.6548 0.056,2.55952 -0.3039,1.38622 -0.6701,2.09234 -1.616,3.11559 -1.1118,1.20168 -1.9984,1.76495 -3.5149,2.22866 -0.7517,0.22999 -2.6816,0.36787 -3.9118,0.27969 -1.0751,-0.0772 -1.2084,-0.0404 -1.0584,0.29148 0.1022,0.22653 0.9858,1.22413 2.5544,2.88555 0.627,0.66272 1.6507,1.74972 2.2762,2.41422 0.6255,0.66443 2.2497,2.27208 3.6094,3.57266 2.4103,2.30505 3.1209,2.8843 3.7503,3.05264 0.1143,0.0312 0.2655,0.10894 0.3356,0.17265 0.2148,0.1991 1.5957,0.0801 1.9427,-0.16685 0.5269,-0.37476 1.9275,-1.69166 3.9843,-3.74577 1.0745,-1.07293 2.4402,-2.42669 3.035,-3.00825 1.8479,-1.80667 2.2824,-2.59709 2.6445,-4.81422 0.1057,-0.64591 0.2092,-1.40675 0.2299,-1.69082 0.025,-0.34189 0.123,-0.60885 0.2915,-0.79096 0.2123,-0.22958 1.6417,-0.90632 2.49,-1.17865 0.1247,-0.0402 0.4053,-0.13066 0.6226,-0.20086 1.3302,-0.43045 1.802,-0.38038 2.0883,0.22164 0.2059,0.43308 0.6147,2.15653 0.6352,2.67912 0,0.0429 0.055,0.58601 0.1183,1.20698 0.124,1.21589 0.027,2.65151 -0.2356,3.48891 -0.1444,0.4599 -0.2479,0.59919 -0.8814,1.18309 -0.3941,0.36474 -1.9036,1.87854 -3.3547,3.36382 -4.9122,5.02891 -10.8132,10.78169 -11.6657,11.37268 -0.2168,0.15052 -0.633,0.33198 -0.9246,0.40338 -0.724,0.17733 -2.9002,0.29709 -3.8466,0.21183 l -0.7762,-0.0698 -1.9311,-1.82401 c -1.0619,-1.00315 -2.2816,-2.2126 -2.7102,-2.68777 -0.4279,-0.47589 -1.3401,-1.41788 -2.0258,-2.09483 l -1.2468,-1.23065 -0.6448,0.79175 c -0.3499,0.43972 -0.919,1.16415 -1.2541,1.61891 -0.335,0.45477 -0.875,1.18951 -1.2012,1.63171 -0.3253,0.44313 -0.8603,1.16564 -1.1853,1.60901 -0.3261,0.4424 -0.8668,1.1764 -1.2022,1.63085 -0.3358,0.45411 -0.8622,1.16785 -1.1696,1.58598 -1.1538,1.56331 -1.687,2.30417 -3.0875,4.2832 -0.6693,0.9478 -0.682,1.1703 -0.1707,3.18567 0.2535,0.99868 0.4701,1.87878 0.4816,1.95568 0.026,0.17182 0.3992,1.61274 0.7238,2.79325 0.1327,0.48243 0.3613,1.34996 0.5081,1.92784 0.147,0.57785 0.2892,1.0712 0.3161,1.09603 0.029,0.0206 0.082,0.20388 0.1231,0.39678 0.041,0.19321 0.1376,0.5469 0.2154,0.78588 0.2991,0.92007 0.3268,1.01227 0.3277,1.09003 0,0.0806 0.7159,2.36683 1.0824,3.46204 0.7051,2.10658 0.8867,3.39425 0.5557,3.93883 -0.3741,0.61667 -3.4016,4.098 -8.8486,10.13805 -3.029,3.36643 -5.656,6.33175 -5.8376,6.58947 -0.3211,0.45358 -0.3282,0.52599 -0.2306,2.33069 0.1081,2.01409 0.2489,4.13426 0.3004,4.52448 0.051,0.38516 -0.2287,0.59181 -1.3529,1.00051 z"
       id="path3815"
       inkscape:connector-curvature="0" /><path
       style="opacity:0.98000004;fill:#a5a5a5;fill-opacity:1;stroke:#000000;stroke-width:1.72329581;stroke-miterlimit:4;stroke-dasharray:none;stroke-dashoffset:0;stroke-opacity:1"
       d="m 1837.598,983.06038 c -1.1411,0 -2.2392,-0.1697 -3.2795,-0.47375 h -52.5603 c -6.5549,0 -11.8327,-5.27772 -11.8327,-11.83267 0,-6.55496 5.2778,-11.83085 11.8327,-11.83085 h 44.2293 V 839.53318 h -44.2293 c -6.5549,0 -11.8327,-5.27772 -11.8327,-11.83268 0,-6.55495 5.2778,-11.83083 11.8327,-11.83083 h 55.6195 c 0.037,0 0.073,0.005 0.1102,0.006 0.037,-3.5e-4 0.073,-0.006 0.1101,-0.006 6.4323,0 11.6104,5.17824 11.6104,11.61049 v 0.22034 143.05346 0.69592 c 0,6.43225 -5.1781,11.6105 -11.6104,11.6105 z"
       id="rect3834"
       inkscape:connector-curvature="0" /></g></svg>