<?xml version="1.0" encoding="UTF-8" standalone="no"?>
<!-- Created with Inkscape (http://www.inkscape.org/) -->

<svg
   xmlns:dc="http://purl.org/dc/elements/1.1/"
   xmlns:cc="http://creativecommons.org/ns#"
   xmlns:rdf="http://www.w3.org/1999/02/22-rdf-syntax-ns#"
   xmlns:svg="http://www.w3.org/2000/svg"
   xmlns="http://www.w3.org/2000/svg"
   xmlns:sodipodi="http://sodipodi.sourceforge.net/DTD/sodipodi-0.dtd"
   xmlns:inkscape="http://www.inkscape.org/namespaces/inkscape"
   id="svg2"
   version="1.1"
   inkscape:version="0.91 r13725"
   xml:space="preserve"
   width="1693.465"
   height="1098.4016"
   viewBox="0 0 1693.465 1098.4016"
   sodipodi:docname="id-software-office-mesquite.svg"><metadata
     id="metadata8"><rdf:RDF><cc:Work
         rdf:about=""><dc:format>image/svg+xml</dc:format><dc:type
           rdf:resource="http://purl.org/dc/dcmitype/StillImage" /><dc:title></dc:title></cc:Work></rdf:RDF></metadata><defs
     id="defs6"><clipPath
       clipPathUnits="userSpaceOnUse"
       id="clipPath22"><path
         d="m 0,0 1920,0 0,1080 L 0,1080 0,0 Z"
         id="path24"
         inkscape:connector-curvature="0" /></clipPath><clipPath
       clipPathUnits="userSpaceOnUse"
       id="clipPath212"><path
         d="m 1303.128,486.0355 125.246,72.3999 18.954,-32.7899 -125.246,-72.4 -18.954,32.79 z"
         id="path214"
         inkscape:connector-curvature="0" /></clipPath><clipPath
       clipPathUnits="userSpaceOnUse"
       id="clipPath218"><path
         d="m 0,0 1920,0 0,1080 L 0,1080 0,0 Z"
         id="path220"
         inkscape:connector-curvature="0" /></clipPath><clipPath
       clipPathUnits="userSpaceOnUse"
       id="clipPath232"><path
         d="m 0,0 1920,0 0,1080 L 0,1080 0,0 Z"
         id="path234"
         inkscape:connector-curvature="0" /></clipPath></defs><sodipodi:namedview
     pagecolor="#ffffff"
     bordercolor="#666666"
     borderopacity="1"
     objecttolerance="10"
     gridtolerance="10"
     guidetolerance="10"
     inkscape:pageopacity="0"
     inkscape:pageshadow="2"
     inkscape:window-width="1344"
     inkscape:window-height="769"
     id="namedview4"
     showgrid="false"
     inkscape:zoom="0.34962963"
     inkscape:cx="802.52631"
     inkscape:cy="392.45561"
     inkscape:window-x="0"
     inkscape:window-y="0"
     inkscape:window-maximized="0"
     inkscape:current-layer="g10"
     fit-margin-top="0"
     fit-margin-left="0"
     fit-margin-right="0"
     fit-margin-bottom="0" /><g
     id="g10"
     inkscape:groupmode="layer"
     inkscape:label="id-software-office-mesquite"
     transform="matrix(1.25,0,0,-1.25,-626.1915,1313.4)"><path
       inkscape:connector-curvature="0"
       id="path30"
       style="fill:none;stroke:#000000;stroke-width:5;stroke-linecap:butt;stroke-linejoin:miter;stroke-miterlimit:4;stroke-dasharray:none;stroke-opacity:1"
       d="m 1217.518,1048.22 286.1175,0 0,-149.435 -286.1175,0 0,149.435 z" /><path
       inkscape:connector-curvature="0"
       id="path34"
       style="fill:none;stroke:#000000;stroke-width:5;stroke-linecap:butt;stroke-linejoin:miter;stroke-miterlimit:4;stroke-dasharray:none;stroke-opacity:1"
       d="m 1217.518,897.7175 286.1175,0 0,-152.435 -286.1175,0 0,152.435 z" /><path
       inkscape:connector-curvature="0"
       id="path38"
       style="fill:none;stroke:#000000;stroke-width:5;stroke-linecap:butt;stroke-linejoin:miter;stroke-miterlimit:4;stroke-dasharray:none;stroke-opacity:1"
       d="m 1396.646,401.7187 456.5514,0 0,-226.7516 -456.5514,0 0,226.7516 z" /><path
       inkscape:connector-curvature="0"
       id="path42"
       style="fill:none;stroke:#000000;stroke-width:5;stroke-linecap:butt;stroke-linejoin:miter;stroke-miterlimit:4;stroke-dasharray:none;stroke-opacity:1"
       d="m 1053.321,370.6775 275.0516,0 0,-131.82 -275.0516,0 0,131.82 z" /><path
       inkscape:connector-curvature="0"
       id="path46"
       style="fill:none;stroke:#000000;stroke-width:5;stroke-linecap:butt;stroke-linejoin:miter;stroke-miterlimit:4;stroke-dasharray:none;stroke-opacity:1"
       d="m 964.55,588.5675 252.885,0 0,-217.4625 -252.885,0 0,217.4625 z" /><path
       inkscape:connector-curvature="0"
       id="path50"
       style="fill:none;stroke:#000000;stroke-width:5;stroke-linecap:butt;stroke-linejoin:miter;stroke-miterlimit:4;stroke-dasharray:none;stroke-opacity:1"
       d="m 1217.11,747.7344 341.3775,0 0,-203.985 -341.3775,0 0,203.985 z" /><path
       d="m 1497.934,1048.22 355.291,0 0,-645.6981 -355.291,0 0,645.6981 z"
       style="fill:#ffffff;fill-opacity:1;fill-rule:nonzero;stroke:none"
       id="path52"
       inkscape:connector-curvature="0" /><path
       inkscape:connector-curvature="0"
       id="path56"
       style="fill:none;stroke:#000000;stroke-width:5;stroke-linecap:butt;stroke-linejoin:miter;stroke-miterlimit:4;stroke-dasharray:none;stroke-opacity:1"
       d="m 1497.934,1048.22 355.2912,0 0,-645.6981 -355.2912,0 0,645.6981 z" /><path
       d="m 936.5388,647.7175 317.5592,0 0,-60.3675 -317.5592,0 0,60.3675 z"
       style="fill:#ffffff;fill-opacity:1;fill-rule:nonzero;stroke:none"
       id="path58"
       inkscape:connector-curvature="0" /><path
       inkscape:connector-curvature="0"
       id="path62"
       style="fill:none;stroke:#000000;stroke-width:5;stroke-linecap:butt;stroke-linejoin:miter;stroke-miterlimit:4;stroke-dasharray:none;stroke-opacity:1"
       d="m 936.5388,647.7175 317.5587,0 0,-60.36749 -317.5587,0 0,60.36749 z" /><path
       d="m 1219.742,744.9637 310.901,0 0,-339.68 -310.901,0 0,339.68 z"
       style="fill:#ffffff;fill-opacity:1;fill-rule:nonzero;stroke:none"
       id="path64"
       inkscape:connector-curvature="0" /><text
       id="text68"
       style="font-variant:normal;font-weight:normal;font-size:35px;font-family:Georgia;-inkscape-font-specification:Georgia;writing-mode:lr-tb;fill:#000000;fill-opacity:1;fill-rule:nonzero;stroke:none"
       transform="scale(1,-1)"
       x="1031"
       y="-467"><tspan
         id="tspan70"
         sodipodi:role="line"
         y="-467"
         x="1031 1055.3005 1065.5555 1077.6375 1093.531 1113.901 1130.8199">Kitchen</tspan></text>
<text
       id="text74"
       style="font-variant:normal;font-weight:normal;font-size:29px;font-family:Georgia;-inkscape-font-specification:Georgia;writing-mode:lr-tb;fill:#000000;fill-opacity:1;fill-rule:nonzero;stroke:none"
       transform="scale(1,-1)"
       x="1111"
       y="-318"><tspan
         id="tspan76"
         sodipodi:role="line"
         y="-318"
         x="1111 1132.028 1146.6469 1172.1987 1186.2086 1193.2004 1213.5614 1229.1953 1244.8292">Game Room</tspan></text>
<text
       id="text80"
       style="font-variant:normal;font-weight:normal;font-size:35px;font-family:Georgia;-inkscape-font-specification:Georgia;writing-mode:lr-tb;fill:#000000;fill-opacity:1;fill-rule:nonzero;stroke:none"
       transform="scale(1,-1)"
       x="1302"
       y="-813"><tspan
         id="tspan82"
         sodipodi:role="line"
         y="-813"
         x="1302 1326.5594 1345.4141 1376.2385 1393.168 1407.5074">Romero</tspan></text>
<text
       id="text86"
       style="font-variant:normal;font-weight:normal;font-size:35px;font-family:Georgia;-inkscape-font-specification:Georgia;writing-mode:lr-tb;fill:#000000;fill-opacity:1;fill-rule:nonzero;stroke:none"
       transform="scale(1,-1)"
       x="1289"
       y="-963"><tspan
         id="tspan88"
         sodipodi:role="line"
         y="-963"
         x="1289 1311.4735 1329.1169 1343.4705 1374.309 1391.9525 1407.8459">Carmack</tspan></text>
<text
       id="text92"
       style="font-variant:normal;font-weight:normal;font-size:35px;font-family:Georgia;-inkscape-font-specification:Georgia;writing-mode:lr-tb;fill:#000000;fill-opacity:1;fill-rule:nonzero;stroke:none"
       transform="scale(1,-1)"
       x="1508"
       y="-224"><tspan
         id="tspan94"
         sodipodi:role="line"
         y="-224"
         x="1508 1532.3005 1549.2195 1566.6005 1576.8555">Kevin</tspan></text>
<text
       id="text98"
       style="font-variant:normal;font-weight:normal;font-size:35px;font-family:Georgia;-inkscape-font-specification:Georgia;writing-mode:lr-tb;fill:#000000;fill-opacity:1;fill-rule:nonzero;stroke:none"
       transform="scale(1,-1)"
       x="1676"
       y="-224"><tspan
         id="tspan100"
         sodipodi:role="line"
         y="-224"
         x="1676 1699.4814 1719.5785 1733.918 1744.173 1761.8094">Adrian</tspan></text>
<text
       id="text104"
       style="font-variant:normal;font-weight:normal;font-size:35px;font-family:Georgia;-inkscape-font-specification:Georgia;writing-mode:lr-tb;fill:#000000;fill-opacity:1;fill-rule:nonzero;stroke:none"
       transform="scale(1,-1)"
       x="1615.6003"
       y="-467"><tspan
         id="tspan106"
         sodipodi:role="line"
         y="-467"
         x="1615.6003 1637.2549 1656.1233 1686.9548 1703.3594 1722.9944 1740.6309 1761.3088 1781.4059">Tom/Sandy</tspan></text>
<text
       id="text110"
       style="font-variant:normal;font-weight:normal;font-size:35px;font-family:Georgia;-inkscape-font-specification:Georgia;writing-mode:lr-tb;fill:#000000;fill-opacity:1;fill-rule:nonzero;stroke:none"
       transform="scale(1,-1)"
       x="1716"
       y="-647"><tspan
         id="tspan112"
         sodipodi:role="line"
         y="-647"
         x="1716 1742.215 1759.8516 1777.2325">Dave</tspan></text>
<path
       inkscape:connector-curvature="0"
       id="path116"
       style="fill:none;stroke:#000000;stroke-width:2;stroke-linecap:butt;stroke-linejoin:miter;stroke-miterlimit:4;stroke-dasharray:none;stroke-opacity:1"
       d="m 1478.61,216.0284 145.4175,0 0,-39.7325 -145.4175,0 0,39.7325 z" /><path
       inkscape:connector-curvature="0"
       id="path120"
       style="fill:none;stroke:#000000;stroke-width:2;stroke-linecap:butt;stroke-linejoin:miter;stroke-miterlimit:4;stroke-dasharray:none;stroke-opacity:1"
       d="m 1662.61,216.6285 145.4175,0 0,-39.7325 -145.4175,0 0,39.7325 z" /><path
       inkscape:connector-curvature="0"
       id="path124"
       style="fill:none;stroke:#000000;stroke-width:2;stroke-linecap:butt;stroke-linejoin:miter;stroke-miterlimit:4;stroke-dasharray:none;stroke-opacity:1"
       d="m 967.0525,371.3735 0,145.4175 39.7325,0 0,-145.4175 -39.7325,0 z" /><path
       inkscape:connector-curvature="0"
       id="path128"
       style="fill:none;stroke:#000000;stroke-width:2;stroke-linecap:butt;stroke-linejoin:miter;stroke-miterlimit:4;stroke-dasharray:none;stroke-opacity:1"
       d="m 1810.892,406.1275 0,145.4175 39.7325,0 0,-145.4175 -39.7325,0 z" /><path
       inkscape:connector-curvature="0"
       id="path132"
       style="fill:none;stroke:#000000;stroke-width:2;stroke-linecap:butt;stroke-linejoin:miter;stroke-miterlimit:4;stroke-dasharray:none;stroke-opacity:1"
       d="m 1662.85,447.5812 145.4175,0 0,-39.7325 -145.4175,0 0,39.7325 z" /><path
       inkscape:connector-curvature="0"
       id="path136"
       style="fill:none;stroke:#000000;stroke-width:2;stroke-linecap:butt;stroke-linejoin:miter;stroke-miterlimit:4;stroke-dasharray:none;stroke-opacity:1"
       d="m 1707.57,550.8237 100.6974,0 0,-39.7325 -100.6974,0 0,39.7325 z" /><path
       inkscape:connector-curvature="0"
       id="path140"
       style="fill:none;stroke:#000000;stroke-width:2;stroke-linecap:butt;stroke-linejoin:miter;stroke-miterlimit:4;stroke-dasharray:none;stroke-opacity:1"
       d="m 1814.492,578.3335 0,145.4175 39.7325,0 0,-145.4175 -39.7325,0 z" /><path
       inkscape:connector-curvature="0"
       id="path144"
       style="fill:none;stroke:#000000;stroke-width:2;stroke-linecap:butt;stroke-linejoin:miter;stroke-miterlimit:4;stroke-dasharray:none;stroke-opacity:1"
       d="m 967.0525,520.1635 0,65.3475 53.735,0 0,-65.3475 -53.735,0 z" /><path
       inkscape:connector-curvature="0"
       id="path148"
       style="fill:none;stroke:#000000;stroke-width:2;stroke-linecap:butt;stroke-linejoin:miter;stroke-miterlimit:4;stroke-dasharray:none;stroke-opacity:1"
       d="m 1118.138,286.1681 145.4175,0 0,-39.7325 -145.4175,0 0,39.7325 z" /><path
       inkscape:connector-curvature="0"
       id="path152"
       style="fill:none;stroke:#000000;stroke-width:2;stroke-linecap:butt;stroke-linejoin:miter;stroke-miterlimit:4;stroke-dasharray:none;stroke-opacity:1"
       d="m 1611.052,814.1375 0,170.8275 88.4018,0 0,-170.8275 -88.4018,0 z" /><text
       id="text156"
       style="font-variant:normal;font-weight:normal;font-size:26px;font-family:Georgia;-inkscape-font-specification:Georgia;writing-mode:lr-tb;fill:#000000;fill-opacity:1;fill-rule:nonzero;stroke:none"
       transform="scale(1,-1)"
       x="1630"
       y="-905"><tspan
         id="tspan158"
         sodipodi:role="line"
         y="-905"
         x="1630 1645.8574 1659.8688 1673.8802 1681.3136">Pool </tspan></text>
<text
       id="text162"
       style="font-variant:normal;font-weight:normal;font-size:26px;font-family:Georgia;-inkscape-font-specification:Georgia;writing-mode:lr-tb;fill:#000000;fill-opacity:1;fill-rule:nonzero;stroke:none"
       transform="scale(1,-1)"
       x="1623"
       y="-875"><tspan
         id="tspan164"
         sodipodi:role="line"
         y="-875"
         x="1623 1639.0862 1652.1824 1666.7346 1674.1628">Table</tspan></text>
<path
       inkscape:connector-curvature="0"
       id="path168"
       style="fill:none;stroke:#000000;stroke-width:5;stroke-linecap:butt;stroke-linejoin:miter;stroke-miterlimit:4;stroke-dasharray:none;stroke-opacity:1"
       d="m 697.4984,370.6775 355.2912,0 0,-131.82 -355.2912,0 0,131.82 z" /><text
       id="text172"
       style="font-variant:normal;font-weight:normal;font-size:35px;font-family:Georgia;-inkscape-font-specification:Georgia;writing-mode:lr-tb;fill:#000000;fill-opacity:1;fill-rule:nonzero;stroke:none"
       transform="scale(1,-1)"
       x="816"
       y="-292"><tspan
         id="tspan174"
         sodipodi:role="line"
         y="-292"
         x="816 835.63501 847.71698 866.58551 880.92499 898.56152 916.38702">Storage</tspan></text>
<path
       inkscape:connector-curvature="0"
       id="path178"
       style="fill:none;stroke:#000000;stroke-width:5;stroke-linecap:butt;stroke-linejoin:miter;stroke-miterlimit:4;stroke-dasharray:none;stroke-opacity:1"
       d="m 964.9501,1047.61 252.0848,0 0,-399.9725 -252.0848,0 0,399.9725 z" /><text
       id="text182"
       style="font-variant:normal;font-weight:normal;font-size:35px;font-family:Georgia;-inkscape-font-specification:Georgia;writing-mode:lr-tb;fill:#000000;fill-opacity:1;fill-rule:nonzero;stroke:none"
       transform="scale(1,-1)"
       x="1015"
       y="-875"><tspan
         id="tspan184"
         sodipodi:role="line"
         y="-875"
         x="1015 1038.4814 1069.313 1086.2321 1100.5715 1110.8265 1126.72 1144.3564 1165.0345">American </tspan></text>
<text
       id="text188"
       style="font-variant:normal;font-weight:normal;font-size:35px;font-family:Georgia;-inkscape-font-specification:Georgia;writing-mode:lr-tb;fill:#000000;fill-opacity:1;fill-rule:nonzero;stroke:none"
       transform="scale(1,-1)"
       x="1077"
       y="-835"><tspan
         id="tspan190"
         sodipodi:role="line"
         y="-835"
         x="1077 1101.864">&amp; </tspan></text>
<text
       id="text194"
       style="font-variant:normal;font-weight:normal;font-size:35px;font-family:Georgia;-inkscape-font-specification:Georgia;writing-mode:lr-tb;fill:#000000;fill-opacity:1;fill-rule:nonzero;stroke:none"
       transform="scale(1,-1)"
       x="1038"
       y="-795"><tspan
         id="tspan196"
         sodipodi:role="line"
         y="-795"
         x="1038 1057.635 1078.005 1095.6415 1121.447">Shawn</tspan></text>
<path
       d="m 894.3638,650.6088 68.1412,0 0,-67.3475 -68.1412,0 0,67.3475 z"
       style="fill:#ffffff;fill-opacity:1;fill-rule:nonzero;stroke:none"
       id="path198"
       inkscape:connector-curvature="0" /><path
       inkscape:connector-curvature="0"
       id="path202"
       style="fill:none;stroke:#000000;stroke-width:5;stroke-linecap:butt;stroke-linejoin:miter;stroke-miterlimit:4;stroke-dasharray:none;stroke-opacity:1"
       d="m 694.6913,174.4987 750.5845,0" /><path
       inkscape:connector-curvature="0"
       id="path206"
       style="fill:none;stroke:#000000;stroke-width:2;stroke-linecap:butt;stroke-linejoin:miter;stroke-miterlimit:4;stroke-dasharray:none;stroke-opacity:1"
       d="m 1302.302,486.7132 125.8964,72.77603 19.8846,-34.39873 -125.8964,-72.77603 -19.8846,34.39873 z" /><text
       transform="matrix(0.8657581,0.5004627,0.5004627,-0.8657581,0,0)"
       style="font-variant:normal;font-weight:normal;font-size:22px;font-family:Georgia;-inkscape-font-specification:Georgia;writing-mode:lr-tb;fill:#000000;fill-opacity:1;fill-rule:nonzero;stroke:none"
       id="text224"
       x="1393.1844"
       y="258.17966"><tspan
         x="1393.1844 1403.1747 1415.0348 1428.0391 1435.1913 1441.1115 1446.4156 1454.0078 1465.098 1477.4203 1483.7145"
         y="258.17966"
         sodipodi:role="line"
         id="tspan226">conf. table</tspan></text>
<path
       inkscape:connector-curvature="0"
       id="path238"
       style="fill:none;stroke:#000000;stroke-width:5;stroke-linecap:butt;stroke-linejoin:miter;stroke-miterlimit:4;stroke-dasharray:none;stroke-opacity:1"
       d="m 505.8481,770.11 458.1569,0 0,-399.9725 -458.1569,0 0,399.9725 z" /><path
       d="m 943.3638,646 68.1412,0 0,-55 -68.1412,0 0,55 z"
       style="fill:#ffffff;fill-opacity:1;fill-rule:nonzero;stroke:none"
       id="path240"
       inkscape:connector-curvature="0" /><path
       inkscape:connector-curvature="0"
       id="path244"
       style="fill:none;stroke:#000000;stroke-width:5;stroke-linecap:butt;stroke-linejoin:miter;stroke-miterlimit:4;stroke-dasharray:none;stroke-opacity:1"
       d="m 696.4852,1047.61 200.0214,0 0,-276.6756 -200.0214,0 0,276.6756 z" /><text
       id="text248"
       style="font-variant:normal;font-weight:normal;font-size:35px;font-family:Georgia;-inkscape-font-specification:Georgia;writing-mode:lr-tb;fill:#000000;fill-opacity:1;fill-rule:nonzero;stroke:none"
       transform="scale(1,-1)"
       x="709"
       y="-907"><tspan
         id="tspan250"
         sodipodi:role="line"
         y="-907"
         x="709 731.47351 750.34198 771.03052 782.409 799.3175 813.67102 830.57947 851.26801 867.1615 884.07001">Conference </tspan></text>
<text
       id="text254"
       style="font-variant:normal;font-weight:normal;font-size:35px;font-family:Georgia;-inkscape-font-specification:Georgia;writing-mode:lr-tb;fill:#000000;fill-opacity:1;fill-rule:nonzero;stroke:none"
       transform="scale(1,-1)"
       x="750"
       y="-867"><tspan
         id="tspan256"
         sodipodi:role="line"
         y="-867"
         x="750 774.55951 793.414 812.26849">Room</tspan></text>
<text
       id="text260"
       style="font-variant:normal;font-weight:normal;font-size:35px;font-family:Georgia;-inkscape-font-specification:Georgia;writing-mode:lr-tb;fill:#000000;fill-opacity:1;fill-rule:nonzero;stroke:none"
       transform="scale(1,-1)"
       x="627"
       y="-730"><tspan
         id="tspan262"
         sodipodi:role="line"
         y="-730"
         x="627 653.21503 672.0835 692.76147 713.43951">Donna</tspan></text>
<path
       inkscape:connector-curvature="0"
       id="path266"
       style="fill:none;stroke:#000000;stroke-width:5;stroke-linecap:butt;stroke-linejoin:miter;stroke-miterlimit:4;stroke-dasharray:none;stroke-opacity:1"
       d="m 505.7794,1047.61 190.7607,0 0,-276.6756 -190.7607,0 0,276.6756 z" /><text
       id="text270"
       style="font-variant:normal;font-weight:normal;font-size:35px;font-family:Georgia;-inkscape-font-specification:Georgia;writing-mode:lr-tb;fill:#000000;fill-opacity:1;fill-rule:nonzero;stroke:none"
       transform="scale(1,-1)"
       x="571"
       y="-897"><tspan
         id="tspan272"
         sodipodi:role="line"
         y="-897"
         x="571 589.11603 606.742">Jay</tspan></text>
<path
       d="m 500.9532,373.3637 193.9485,0 0,-18.804 -193.9485,0 0,18.804 z"
       style="fill:#ffffff;fill-opacity:1;fill-rule:nonzero;stroke:none"
       id="path276"
       inkscape:connector-curvature="0" /><path
       inkscape:connector-curvature="0"
       id="path280"
       style="fill:none;stroke:#000000;stroke-width:5;stroke-linecap:butt;stroke-linejoin:miter;stroke-miterlimit:4;stroke-dasharray:none;stroke-opacity:1"
       d="M 506.2279,588.9449 697.72662,369.75125" /><path
       d="m 847.3007,783.6088 47.0631,0 0,-54.3475 -47.0631,0 0,54.3475 z"
       style="fill:#ffffff;fill-opacity:1;fill-rule:nonzero;stroke:none"
       id="path282"
       inkscape:connector-curvature="0" /><path
       d="m 898.9316,785.0019 64,0 0,-142.4488 -64,0 0,142.4488 z"
       style="fill:#ffffff;fill-opacity:1;fill-rule:nonzero;stroke:none"
       id="path284"
       inkscape:connector-curvature="0" /><path
       d="m 938.9316,1002.247 62.7574,0 0,-54.3476 -62.7574,0 0,54.3476 z"
       style="fill:#ffffff;fill-opacity:1;fill-rule:nonzero;stroke:none"
       id="path286"
       inkscape:connector-curvature="0" /><path
       d="m 517.9316,798.2469 52.7576,0 0,-54.3475 -52.7576,0 0,54.3475 z"
       style="fill:#ffffff;fill-opacity:1;fill-rule:nonzero;stroke:none"
       id="path288"
       inkscape:connector-curvature="0" /><path
       d="m 566.5487,506.01 62.7575,0 0,-54.3475 -62.7575,0 0,54.3475 z"
       style="fill:#ffffff;fill-opacity:1;fill-rule:nonzero;stroke:none"
       id="path290"
       inkscape:connector-curvature="0" /><path
       d="m 962.8418,256.6003 55.4562,0 0,-54.3475 -55.4562,0 0,54.3475 z"
       style="fill:#ffffff;fill-opacity:1;fill-rule:nonzero;stroke:none"
       id="path292"
       inkscape:connector-curvature="0" /><path
       d="m 1293.54,355.4212 62.758,0 0,-54.3475 -62.758,0 0,54.3475 z"
       style="fill:#ffffff;fill-opacity:1;fill-rule:nonzero;stroke:none"
       id="path294"
       inkscape:connector-curvature="0" /><path
       d="m 1169.587,441.3825 62.757,0 0,-54.3475 -62.757,0 0,54.3475 z"
       style="fill:#ffffff;fill-opacity:1;fill-rule:nonzero;stroke:none"
       id="path296"
       inkscape:connector-curvature="0" /><path
       d="m 1449.773,421.9525 52.757,0 0,-54.3475 -52.757,0 0,54.3475 z"
       style="fill:#ffffff;fill-opacity:1;fill-rule:nonzero;stroke:none"
       id="path298"
       inkscape:connector-curvature="0" /><path
       d="m 1480.482,817.9525 62.758,0 0,-54.3475 -62.758,0 0,54.3475 z"
       style="fill:#ffffff;fill-opacity:1;fill-rule:nonzero;stroke:none"
       id="path300"
       inkscape:connector-curvature="0" /><path
       d="m 1470.482,1032.953 62.758,0 0,-54.348 -62.758,0 0,54.348 z"
       style="fill:#ffffff;fill-opacity:1;fill-rule:nonzero;stroke:none"
       id="path302"
       inkscape:connector-curvature="0" /><path
       inkscape:connector-curvature="0"
       id="path306"
       style="fill:none;stroke:#000000;stroke-width:2;stroke-linecap:butt;stroke-linejoin:miter;stroke-miterlimit:4;stroke-dasharray:none;stroke-opacity:1"
       d="m 695.3858,179.9502 0,53.45573 5.70913,0 0,-53.45573 -5.70913,0 z" /><path
       inkscape:connector-curvature="0"
       id="path310"
       style="fill:none;stroke:#000000;stroke-width:2;stroke-linecap:butt;stroke-linejoin:miter;stroke-miterlimit:4;stroke-dasharray:none;stroke-opacity:1"
       d="m 1326.052,300.9655 0,53.45573 5.7091,0 0,-53.45573 -5.7091,0 z" /><path
       inkscape:connector-curvature="0"
       id="path314"
       style="fill:none;stroke:#000000;stroke-width:2;stroke-linecap:butt;stroke-linejoin:miter;stroke-miterlimit:4;stroke-dasharray:none;stroke-opacity:1"
       d="m 1017.298,236.3178 -53.45573,0 0,5.70913 53.45573,0 0,-5.70913 z" /><path
       inkscape:connector-curvature="0"
       id="path318"
       style="fill:none;stroke:#000000;stroke-width:2;stroke-linecap:butt;stroke-linejoin:miter;stroke-miterlimit:4;stroke-dasharray:none;stroke-opacity:1"
       d="m 1214.052,387.2355 0,53.45573 5.7091,0 0,-53.45573 -5.7091,0 z" /><path
       inkscape:connector-curvature="0"
       id="path322"
       style="fill:none;stroke:#000000;stroke-width:2;stroke-linecap:butt;stroke-linejoin:miter;stroke-miterlimit:4;stroke-dasharray:none;stroke-opacity:1"
       d="m 1502.879,398.5096 -53.4557,0 0,5.70913 53.4557,0 0,-5.70913 z" /><path
       inkscape:connector-curvature="0"
       id="path326"
       style="fill:none;stroke:#000000;stroke-width:2;stroke-linecap:butt;stroke-linejoin:miter;stroke-miterlimit:4;stroke-dasharray:none;stroke-opacity:1"
       d="m 1495.434,763.605 0,53.45573 5.7091,0 0,-53.45573 -5.7091,0 z" /><path
       inkscape:connector-curvature="0"
       id="path330"
       style="fill:none;stroke:#000000;stroke-width:2;stroke-linecap:butt;stroke-linejoin:miter;stroke-miterlimit:4;stroke-dasharray:none;stroke-opacity:1"
       d="m 1495.152,979.0509 0,53.4557 5.7091,0 0,-53.4557 -5.7091,0 z" /><path
       inkscape:connector-curvature="0"
       id="path334"
       style="fill:none;stroke:#000000;stroke-width:2;stroke-linecap:butt;stroke-linejoin:miter;stroke-miterlimit:4;stroke-dasharray:none;stroke-opacity:1"
       d="m 962.4501,947.8994 0,53.4557 5.70913,0 0,-53.4557 -5.70913,0 z" /><path
       inkscape:connector-curvature="0"
       id="path338"
       style="fill:none;stroke:#000000;stroke-width:5;stroke-linecap:butt;stroke-linejoin:miter;stroke-miterlimit:4;stroke-dasharray:none;stroke-opacity:1"
       d="m 877.0857,1047.667 102.6974,0" /><path
       d="m 895.5601,768.2186 -53.4557,0 0,5.7091 53.4557,0 0,-5.7091 z"
       style="fill:#ffffff;fill-opacity:1;fill-rule:nonzero;stroke:none"
       id="path340"
       inkscape:connector-curvature="0" /><path
       inkscape:connector-curvature="0"
       id="path344"
       style="fill:none;stroke:#000000;stroke-width:2;stroke-linecap:butt;stroke-linejoin:miter;stroke-miterlimit:4;stroke-dasharray:none;stroke-opacity:1"
       d="m 895.5601,768.2186 -53.45573,0 0,5.70913 53.45573,0 0,-5.70913 z" /><path
       d="m 571.6892,768.0421 -53.4557,0 0,5.7092 53.4557,0 0,-5.7092 z"
       style="fill:#ffffff;fill-opacity:1;fill-rule:nonzero;stroke:none"
       id="path346"
       inkscape:connector-curvature="0" /><path
       inkscape:connector-curvature="0"
       id="path350"
       style="fill:none;stroke:#000000;stroke-width:2;stroke-linecap:butt;stroke-linejoin:miter;stroke-miterlimit:4;stroke-dasharray:none;stroke-opacity:1"
       d="m 571.6892,768.0421 -53.45573,0 0,5.70913 53.45573,0 0,-5.70913 z" /><path
       d="m 620.0833,442.5207 -52.0557,60.4441 12.7329,10.9659 52.0557,-60.4442 -12.7329,-10.9658 z"
       style="fill:#ffffff;fill-opacity:1;fill-rule:nonzero;stroke:none"
       id="path352"
       inkscape:connector-curvature="0" /><path
       inkscape:connector-curvature="0"
       id="path356"
       style="fill:none;stroke:#000000;stroke-width:2;stroke-linecap:butt;stroke-linejoin:miter;stroke-miterlimit:4;stroke-dasharray:none;stroke-opacity:1"
       d="m 620.0833,442.5207 -52.05572,60.4442 12.73291,10.96583 52.05572,-60.4442 -12.73291,-10.96583 z" /><path
       inkscape:connector-curvature="0"
       id="path360"
       style="fill:none;stroke:#000000;stroke-width:2;stroke-linecap:butt;stroke-linejoin:miter;stroke-miterlimit:4;stroke-dasharray:none;stroke-opacity:1"
       d="m 581.2935,684.2045 0,80.3328 39.7325,0 0,-80.3328 -39.7325,0 z" /><path
       inkscape:connector-curvature="0"
       id="path364"
       style="fill:none;stroke:#000000;stroke-width:2;stroke-linecap:butt;stroke-linejoin:miter;stroke-miterlimit:4;stroke-dasharray:none;stroke-opacity:1"
       d="m 621.6268,684.6126 0,29.76305 88.40185,0 0,-29.76305 -88.40185,0 z" /></g></svg>