<?xml version="1.0" encoding="UTF-8" standalone="no"?>
<!-- Created with Inkscape (http://www.inkscape.org/) -->

<svg
   xmlns:dc="http://purl.org/dc/elements/1.1/"
   xmlns:cc="http://creativecommons.org/ns#"
   xmlns:rdf="http://www.w3.org/1999/02/22-rdf-syntax-ns#"
   xmlns:svg="http://www.w3.org/2000/svg"
   xmlns="http://www.w3.org/2000/svg"
   xmlns:sodipodi="http://sodipodi.sourceforge.net/DTD/sodipodi-0.dtd"
   xmlns:inkscape="http://www.inkscape.org/namespaces/inkscape"
   width="451.52951mm"
   height="235.57927mm"
   viewBox="0 0 1599.9077 834.72969"
   id="svg2"
   version="1.1"
   inkscape:version="0.91 r13725"
   sodipodi:docname="intel_logo.svg">
  <defs
     id="defs4" />
  <sodipodi:namedview
     id="base"
     pagecolor="#ffffff"
     bordercolor="#666666"
     borderopacity="1.0"
     inkscape:pageopacity="0.0"
     inkscape:pageshadow="2"
     inkscape:zoom="0.35"
     inkscape:cx="719.28572"
     inkscape:cy="194.37258"
     inkscape:document-units="px"
     inkscape:current-layer="layer1"
     showgrid="false"
     inkscape:window-width="1440"
     inkscape:window-height="855"
     inkscape:window-x="0"
     inkscape:window-y="1"
     inkscape:window-maximized="1"
     fit-margin-top="0"
     fit-margin-left="0"
     fit-margin-right="0"
     fit-margin-bottom="0"
     showguides="false">
    <inkscape:grid
       type="xygrid"
       id="grid4870" />
  </sodipodi:namedview>
  <metadata
     id="metadata7">
    <rdf:RDF>
      <cc:Work
         rdf:about="">
        <dc:format>image/svg+xml</dc:format>
        <dc:type
           rdf:resource="http://purl.org/dc/dcmitype/StillImage" />
        <dc:title />
      </cc:Work>
    </rdf:RDF>
  </metadata>
  <g
     inkscape:label="Layer 1"
     inkscape:groupmode="layer"
     id="layer1"
     transform="translate(314.28572,-120.5765)">
    <path
       style="fill:#127cc1;fill-opacity:1"
       d="M 2.5 0 L 2.5 53.75 L 2.5 107.5 L 56.875 107.5 L 111.25 107.5 L 111.25 53.75 L 111.25 0 L 56.875 0 L 2.5 0 z M 677.51758 0 L 677.19727 82.8125 L 676.875 165.625 L 639.6875 165.95703 L 602.5 166.28711 L 602.5 210.62305 L 602.5 254.96094 L 637.1875 255.29297 L 671.875 255.625 L 672.58008 400 C 673.34421 556.31487 673.04158 549.46097 680.14453 571.21484 C 690.73074 603.63664 712.57246 622.3934 748.125 629.5957 C 757.78235 631.5521 765.5303 631.86473 802.84961 631.80273 C 845.75935 631.73093 846.33001 631.76343 846.8457 634.30273 C 847.13306 635.71773 848.55793 642.94819 850.01172 650.37109 C 868.97365 747.18919 950.56721 823.60159 1045.6895 833.62109 C 1075.9109 836.80449 1107.3555 833.10394 1136.7598 822.90234 C 1199.8498 801.01374 1249.6048 749.61763 1265.6133 689.79883 L 1268.5703 678.75 L 1212.623 678.75 L 1156.6738 678.75 L 1152.0547 687.85156 C 1135.5504 720.36756 1101.778 738.14109 1060.7559 735.90039 C 1037.7472 734.64359 1019.9053 726.92001 1002.959 710.87891 C 991.30192 699.84451 983.51914 688.93866 976.28711 673.50586 C 970.57877 661.32456 965.21053 643.606 964.14648 633.4375 L 963.39453 626.25 L 1182.3223 626.25 L 1401.25 626.25 L 1401.25 313.125 L 1401.25 0 L 1346.25 0 L 1291.25 0 L 1291.0938 275.625 C 1291.0079 427.21875 1290.7969 551.8125 1290.625 552.5 C 1290.4532 553.1875 1290.2423 554.62841 1290.1562 555.70117 C 1290.0389 557.16667 1288.8497 557.55517 1285.3711 557.26367 L 1280.7402 556.875 L 1279.0605 545 C 1272.921 501.60599 1254.988 458.4649 1228.918 424.375 C 1203.1482 390.6777 1162.8558 362.56248 1124.375 351.42578 C 1102.9112 345.21394 1095.7867 344.37252 1065 344.41992 C 1039.2121 344.45961 1034.0275 344.81182 1022.5508 347.30859 C 991.78456 354.00183 962.35003 366.70094 938.76953 383.45312 C 923.51307 394.29171 899.19606 418.58145 888.41602 433.75 C 878.44776 447.77629 862.93962 478.43933 857.66406 494.55273 C 855.6064 500.83756 852.73007 511.80631 851.27148 518.92773 C 849.8129 526.04914 848.33669 533.22281 847.99023 534.87109 C 847.36238 537.8581 847.31764 537.86672 834.61719 537.11719 C 816.91418 536.0724 807.54878 532.71089 799.27148 524.43359 C 791.52583 516.68794 788.03607 508.19744 786.27148 492.79688 C 785.52651 486.29501 785.01577 435.96825 785.00977 368.4375 L 785 255 L 826.25 255 L 867.5 255 L 867.5 210.64062 L 867.5 166.2832 L 824.6875 165.95312 L 781.875 165.625 L 781.55273 82.8125 L 781.23242 0 L 729.375 0 L 677.51758 0 z M 426.12891 157.0293 C 416.47169 157.04732 407.21787 157.53923 401.26172 158.54102 C 388.17419 160.74226 371.06016 166.68097 360 172.85938 C 345.80931 180.78654 325.64482 201.57615 314.54492 219.72266 C 309.82567 227.43785 305.38573 233.75 304.67969 233.75 C 303.81065 233.75 303.6909 222.84791 304.30664 200 L 305.21484 166.25 L 248.85742 166.25 L 192.5 166.25 L 192.5 396.25 L 192.5 626.25 L 248.75 626.25 L 305 626.25 L 305.00781 489.6875 C 305.01386 377.53716 305.33586 351.00061 306.80664 341.24414 C 311.38121 310.89874 322.62751 290.53447 341.94922 277.61133 C 371.06043 258.14056 415.087 259.80696 440.27148 281.33398 C 448.49995 288.36748 457.854 302.9261 461.8457 314.91211 C 469.34182 337.42089 469.08533 331.81693 469.64258 485.3125 L 470.1543 626.25 L 526.27344 626.25 L 582.39258 626.25 L 582.35547 489.0625 C 582.31193 329.58941 581.5264 298.87975 576.92578 276.67383 C 573.22554 258.81371 569.14658 246.84714 562.13086 233.26172 C 541.99095 194.26228 505.87219 168.28246 459.2168 159.23828 C 451.62629 157.76685 438.54532 157.00613 426.12891 157.0293 z M 0 166.25 L 0 396.25 L 0 626.25 L 56.25 626.25 L 112.5 626.25 L 112.5 396.25 L 112.5 166.25 L 56.25 166.25 L 0 166.25 z M 1067.7734 436.48438 C 1091.8793 436.69592 1115.7739 444.99042 1133.5938 461.875 C 1152.2333 479.5362 1162.7099 501.24918 1165.7109 528.4375 L 1166.5723 536.25 L 1065.1621 536.25 L 963.75 536.25 L 963.75 532.03516 C 963.75 524.73173 969.73627 503.85053 974.85938 493.28516 C 977.56905 487.69702 982.67215 479.31894 986.19922 474.66797 C 1005.4365 449.30077 1036.7802 436.21239 1067.7734 436.48438 z "
       transform="translate(-314.28572,120.5765)"
       id="path4201" />
  </g>
</svg>
