<?xml version="1.0" encoding="iso-8859-1"?>
<!DOCTYPE svg PUBLIC "-//W3C//DTD SVG 1.0//EN" "http://www.w3.org/TR/2001/REC-SVG-20010904/DTD/svg10.dtd">
<!-- Creator: CorelDRAW -->
<svg xmlns="http://www.w3.org/2000/svg" xmlns:odm="http://product.corel.com/CGS/11/cddns/" xml:space="preserve" width="300px" height="300px" style="shape-rendering:geometricPrecision; text-rendering:geometricPrecision; image-rendering:optimizeQuality; fill-rule:evenodd"
     viewBox="0 0 300 300">
 <defs>
  <style type="text/css">
   <![CDATA[
    .str3 {stroke:#FB16BB;stroke-width:7}
    .str1 {stroke:#16D41A;stroke-width:8}
    .str0 {stroke:#FA1516;stroke-width:8}
    .str2 {stroke:#FB16BB;stroke-width:8}
    .str4 {stroke:#FCFC17;stroke-width:8}
    .fil1 {fill:none}
    .fil0 {fill:#000000}
   ]]>
  </style>
 </defs>
 <g id="Layer 1">
  <path class="fil0" d="M60 83l135 -72 71 135 -134 72 -72 -135z"/>
  <path class="fil1 str0" d="M106 140l-26 -48 68 16 -26 -48"/>
  <path class="fil1 str1" d="M137 204l24 -80"/>
  <path class="fil1 str1" d="M188 177l-79 -25"/>
  <path class="fil1 str2" d="M171 121l56 -30"/>
  <path class="fil1 str3" d="M199 106l28 52"/>
  <path class="fil1 str4" d="M208 64c0,12 -6,23 -16,28 -16,8 -35,1 -42,-15 -6,-14 0,-30 13,-38 14,-7 31,-3 40,10l-53 28"/>
  <path class="fil0" d="M48 162l12 -72 68 129 -16 63 -64 -120z"/>
  <path class="fil0" d="M134 220l-18 64 125 -67 24 -66 -131 69z"/>
 </g>
</svg>
