<?xml version="1.0" encoding="UTF-8" standalone="no"?>
<!-- Created with Inkscape (http://www.inkscape.org/) -->

<svg
   xmlns:dc="http://purl.org/dc/elements/1.1/"
   xmlns:cc="http://creativecommons.org/ns#"
   xmlns:rdf="http://www.w3.org/1999/02/22-rdf-syntax-ns#"
   xmlns:svg="http://www.w3.org/2000/svg"
   xmlns="http://www.w3.org/2000/svg"
   xmlns:sodipodi="http://sodipodi.sourceforge.net/DTD/sodipodi-0.dtd"
   xmlns:inkscape="http://www.inkscape.org/namespaces/inkscape"
   id="svg2"
   version="1.1"
   inkscape:version="0.91 r13725"
   xml:space="preserve"
   width="720"
   height="810"
   viewBox="0 0 720 810"
   sodipodi:docname="ram_vs_cpu.svg"><metadata
     id="metadata8"><rdf:RDF><cc:Work
         rdf:about=""><dc:format>image/svg+xml</dc:format><dc:type
           rdf:resource="http://purl.org/dc/dcmitype/StillImage" /><dc:title></dc:title></cc:Work></rdf:RDF></metadata><defs
     id="defs6"><clipPath
       clipPathUnits="userSpaceOnUse"
       id="clipPath84"><path
         d="m 67.541,566.066 415.332,0 0,-205.434 -415.332,0 0,205.434 z"
         id="path86"
         inkscape:connector-curvature="0" /></clipPath></defs><sodipodi:namedview
     pagecolor="#ffffff"
     bordercolor="#666666"
     borderopacity="1"
     objecttolerance="10"
     gridtolerance="10"
     guidetolerance="10"
     inkscape:pageopacity="0"
     inkscape:pageshadow="2"
     inkscape:window-width="1440"
     inkscape:window-height="887"
     id="namedview4"
     showgrid="false"
     inkscape:zoom="2.32"
     inkscape:cx="322.79723"
     inkscape:cy="600.05099"
     inkscape:window-x="40"
     inkscape:window-y="33"
     inkscape:window-maximized="0"
     inkscape:current-layer="g10" /><g
     id="g10"
     inkscape:groupmode="layer"
     inkscape:label="patterson_book"
     transform="matrix(1.25,0,0,-1.25,0,810)"><path
       inkscape:connector-curvature="0"
       id="path96"
       style="fill:none;stroke:#231f20;stroke-width:1;stroke-linecap:butt;stroke-linejoin:miter;stroke-miterlimit:4;stroke-dasharray:none;stroke-opacity:1"
       d="M 471.72391,525.45109 460.203,523.012 l -13.527,-0.679 -40.603,-17.201 -13,-5 -14.199,-5.399 -67.667,-30.334 -67.667,-28.666 -13.667,-6.334 -13.333,-6.666 -13.333,-3.467 -14,-3.469 -13.667,-3.464 -13.333,-3.467 -13.667,-3.467 -13.416,-4.416 13.5,2.5 13.5,0.5 13.417,1.083 13.691,0.471 27.109,1.305 13.554,1.152 135.544,6.522 13.554,1.152 13.555,0.902 13.554,0.652 13.554,0.402 13.555,0.652 13.555,0.153 27.108,0.804"
       sodipodi:nodetypes="cccccccccccccccccccccccccccccc" /><g
       id="g98"
       transform="translate(473.541,556.929)"><path
         d="M 0,0 -338.413,0 M 0,-31.317 l -338.413,0 m 338.412,-93.67 -338.412,0 M 0,-62.541 l -338.413,0 M 0,-93.764 l -338.413,0"
         style="fill:none;stroke:#231f20;stroke-width:1;stroke-linecap:round;stroke-linejoin:miter;stroke-miterlimit:4;stroke-dasharray:0, 3;stroke-dashoffset:0;stroke-opacity:1"
         id="path100"
         inkscape:connector-curvature="0" /></g><g
       id="g108"
       transform="translate(135.129,400.638)"><path
         d="M 0,0 0,-3.269 M 13.543,0 l 0,-3.269 M 27.086,0 l 0,-3.269"
         style="fill:none;stroke:#231f20;stroke-width:0.5;stroke-linecap:butt;stroke-linejoin:miter;stroke-miterlimit:4;stroke-dasharray:none;stroke-opacity:1"
         id="path110"
         inkscape:connector-curvature="0" /></g><text
       transform="matrix(1,0,0,-1,125.2591,398.886)"
       style="font-variant:normal;font-weight:normal;font-size:8px;font-family:sans-serif;-inkscape-font-specification:sans-serif;writing-mode:lr-tb;fill:#231f20;fill-opacity:1;fill-rule:nonzero;stroke:none;font-style:normal;font-stretch:normal;"
       id="text112"><tspan
         x="0"
         y="0"
         id="tspan114"
         style="-inkscape-font-specification:sans-serif;font-family:sans-serif;font-weight:normal;font-style:normal;font-stretch:normal;font-variant:normal;">1</tspan></text>
<text
       transform="matrix(0.70710678,0.70710678,0.70710678,-0.70710678,123.8291,378.997)"
       style="font-variant:normal;font-weight:normal;font-size:7.99992323px;font-family:sans-serif;-inkscape-font-specification:sans-serif;writing-mode:lr-tb;fill:#231f20;fill-opacity:1;fill-rule:nonzero;stroke:none;font-style:normal;font-stretch:normal;"
       id="text116"><tspan
         x="0 4.4479575 8.895915 13.343872"
         y="0"
         sodipodi:role="line"
         id="tspan118">1980</tspan><tspan
         x="0"
         sodipodi:role="line"
         id="tspan120"
         y="0" /></text>
<g
       id="g122"
       transform="translate(473.707,400.752)"><path
         d="m 0,0 -338.578,0 -0.001,156.177"
         style="fill:none;stroke:#231f20;stroke-width:1;stroke-linecap:square;stroke-linejoin:miter;stroke-miterlimit:4;stroke-dasharray:none;stroke-opacity:1"
         id="path124"
         inkscape:connector-curvature="0" /></g><text
       transform="matrix(1,0,0,-1,120.8111,429.88)"
       style="font-style:normal;font-variant:normal;font-weight:normal;font-stretch:normal;font-size:8px;font-family:sans-serif;-inkscape-font-specification:sans-serif;text-align:start;writing-mode:lr-tb;text-anchor:start;fill:#231f20;fill-opacity:1;fill-rule:nonzero;stroke:none"
       id="text126"
       x="0.87890625"
       y="0"><tspan
         x="0 4.448"
         y="0"
         sodipodi:role="line"
         id="tspan128">10</tspan><tspan
         x="-4.448 0 4.448"
         y="-31.296"
         sodipodi:role="line"
         id="tspan130">100</tspan><tspan
         x="0"
         y="0"
         sodipodi:role="line"
         id="tspan134" /><tspan
         sodipodi:role="line"
         id="tspan136"
         x="0"
         y="-0" /></text>
<g
       id="g138"
       transform="translate(175.758,400.638)"><path
         d="M 0,0 0,-3.27 M 297.949,0 l 0,-3.27"
         style="fill:none;stroke:#231f20;stroke-width:0.5;stroke-linecap:butt;stroke-linejoin:miter;stroke-miterlimit:4;stroke-dasharray:none;stroke-opacity:1"
         id="path140"
         inkscape:connector-curvature="0" /></g><text
       transform="matrix(0.70710678,0.70710678,0.70710678,-0.70710678,151.0681,378.997)"
       style="font-variant:normal;font-weight:normal;font-size:7.99992323px;font-family:sans-serif;-inkscape-font-specification:sans-serif;writing-mode:lr-tb;fill:#231f20;fill-opacity:1;fill-rule:nonzero;stroke:none;font-style:normal;font-stretch:normal;"
       id="text142"><tspan
         x="0"
         y="0"
         sodipodi:role="line"
         id="tspan144" /><tspan
         x="0"
         y="9.9999037"
         sodipodi:role="line"
         id="tspan146" /></text>
<g
       id="g148"
       transform="translate(131.064,400.723)"><path
         d="M 0,0 3.663,0 M 0,31.219 l 3.663,0 M 0,62.442 l 3.663,0 M 0,93.665 l 3.663,0 M 0,124.889 l 3.663,0 M 0,156.206 l 3.663,0 m 68.118,-156.291 0,-3.269 m 13.543,3.269 0,-3.269"
         style="fill:none;stroke:#231f20;stroke-width:0.5;stroke-linecap:butt;stroke-linejoin:miter;stroke-miterlimit:4;stroke-dasharray:none;stroke-opacity:1"
         id="path150"
         inkscape:connector-curvature="0" /></g><text
       transform="matrix(0.70710678,0.70710678,0.70710678,-0.70710678,178.3071,378.997)"
       style="font-variant:normal;font-weight:normal;font-size:7.99992323px;font-family:sans-serif;-inkscape-font-specification:sans-serif;writing-mode:lr-tb;fill:#231f20;fill-opacity:1;fill-rule:nonzero;stroke:none;font-style:normal;font-stretch:normal;"
       id="text152"><tspan
         x="0"
         y="0"
         sodipodi:role="line"
         id="tspan154" /><tspan
         x="9.6319075 14.079865 18.527822 22.97578"
         y="9.6319075"
         sodipodi:role="line"
         id="tspan156">1985</tspan></text>
<g
       id="g158"
       transform="translate(229.931,400.638)"><path
         d="M 0,0 0,-3.27"
         style="fill:none;stroke:#231f20;stroke-width:0.5;stroke-linecap:butt;stroke-linejoin:miter;stroke-miterlimit:4;stroke-dasharray:none;stroke-opacity:1"
         id="path160"
         inkscape:connector-curvature="0" /></g><text
       transform="matrix(0.70710678,0.70710678,0.70710678,-0.70710678,205.5461,378.997)"
       style="font-variant:normal;font-weight:normal;font-size:7.99992323px;font-family:sans-serif;-inkscape-font-specification:sans-serif;writing-mode:lr-tb;fill:#231f20;fill-opacity:1;fill-rule:nonzero;stroke:none;font-style:normal;font-stretch:normal;"
       id="text162"><tspan
         x="0"
         y="0"
         sodipodi:role="line"
         id="tspan164" /><tspan
         x="0"
         y="9.9999037"
         sodipodi:role="line"
         id="tspan166" /></text>
<g
       id="g168"
       transform="translate(189.301,400.638)"><path
         d="M 0,0 0,-3.269 M 54.173,0 l 0,-3.269 M 67.716,0 l 0,-3.269 M 81.259,0 l 0,-3.269"
         style="fill:none;stroke:#231f20;stroke-width:0.5;stroke-linecap:butt;stroke-linejoin:miter;stroke-miterlimit:4;stroke-dasharray:none;stroke-opacity:1"
         id="path170"
         inkscape:connector-curvature="0" /></g><text
       transform="matrix(0.70710678,0.70710678,0.70710678,-0.70710678,232.7861,378.997)"
       style="font-variant:normal;font-weight:normal;font-size:7.99992323px;font-family:sans-serif;-inkscape-font-specification:sans-serif;writing-mode:lr-tb;fill:#231f20;fill-opacity:1;fill-rule:nonzero;stroke:none;font-style:normal;font-stretch:normal;"
       id="text172"><tspan
         x="0"
         sodipodi:role="line"
         id="tspan176"
         y="0" /></text>
<g
       id="g178"
       transform="translate(284.103,400.638)"><path
         d="M 0,0 0,-3.27"
         style="fill:none;stroke:#231f20;stroke-width:0.5;stroke-linecap:butt;stroke-linejoin:miter;stroke-miterlimit:4;stroke-dasharray:none;stroke-opacity:1"
         id="path180"
         inkscape:connector-curvature="0" /></g><text
       transform="matrix(0.70710678,0.70710678,0.70710678,-0.70710678,260.0251,378.997)"
       style="font-style:normal;font-variant:normal;font-weight:normal;font-stretch:normal;font-size:7.99992323px;font-family:sans-serif;-inkscape-font-specification:sans-serif;writing-mode:lr-tb;fill:#231f20;fill-opacity:1;fill-rule:nonzero;stroke:none"
       id="text182"><tspan
         x="0"
         sodipodi:role="line"
         id="tspan186"
         y="0">1990</tspan></text>
<g
       id="g188"
       transform="translate(311.189,400.638)"><path
         d="M 0,0 0,-3.269 M 40.63,0 l 0,-3.269"
         style="fill:none;stroke:#231f20;stroke-width:0.5;stroke-linecap:butt;stroke-linejoin:miter;stroke-miterlimit:4;stroke-dasharray:none;stroke-opacity:1"
         id="path190"
         inkscape:connector-curvature="0" /></g><text
       transform="matrix(0.70710678,0.70710678,0.70710678,-0.70710678,287.2651,378.997)"
       style="font-variant:normal;font-weight:normal;font-size:7.99992323px;font-family:sans-serif;-inkscape-font-specification:sans-serif;writing-mode:lr-tb;fill:#231f20;fill-opacity:1;fill-rule:nonzero;stroke:none;font-style:normal;font-stretch:normal;"
       id="text192"><tspan
         x="0"
         y="0"
         sodipodi:role="line"
         id="tspan194" /><tspan
         x="0"
         y="9.9999037"
         sodipodi:role="line"
         id="tspan196" /></text>
<g
       id="g198"
       transform="translate(378.905,400.638)"><path
         d="M 0,0 0,-3.27"
         style="fill:none;stroke:#231f20;stroke-width:0.5;stroke-linecap:butt;stroke-linejoin:miter;stroke-miterlimit:4;stroke-dasharray:none;stroke-opacity:1"
         id="path200"
         inkscape:connector-curvature="0" /></g><text
       transform="matrix(0.70710678,0.70710678,0.70710678,-0.70710678,314.5041,378.997)"
       style="font-variant:normal;font-weight:normal;font-size:7.99992323px;font-family:sans-serif;-inkscape-font-specification:sans-serif;writing-mode:lr-tb;fill:#231f20;fill-opacity:1;fill-rule:nonzero;stroke:none;font-style:normal;font-stretch:normal;"
       id="text202"><tspan
         x="0"
         y="0"
         sodipodi:role="line"
         id="tspan204" /><tspan
         x="9.6319075 14.079865 18.527822 22.97578"
         y="9.6319075"
         sodipodi:role="line"
         id="tspan206">1995</tspan></text>
<g
       id="g208"
       transform="translate(297.647,400.638)"><path
         d="M 0,0 0,-3.269 M 40.628,0 l 0,-3.269 M 67.715,0 l 0,-3.269 M 94.801,0 l 0,-3.27"
         style="fill:none;stroke:#231f20;stroke-width:0.5;stroke-linecap:butt;stroke-linejoin:miter;stroke-miterlimit:4;stroke-dasharray:none;stroke-opacity:1"
         id="path210"
         inkscape:connector-curvature="0" /></g><text
       transform="matrix(0.70710678,0.70710678,0.70710678,-0.70710678,341.7431,378.997)"
       style="font-variant:normal;font-weight:normal;font-size:7.99992323px;font-family:sans-serif;-inkscape-font-specification:sans-serif;writing-mode:lr-tb;fill:#231f20;fill-opacity:1;fill-rule:nonzero;stroke:none;font-style:normal;font-stretch:normal;"
       id="text212"><tspan
         x="0"
         y="0"
         sodipodi:role="line"
         id="tspan216" /></text>
<g
       id="g218"
       transform="translate(405.991,400.638)"><path
         d="M 0,0 0,-3.269 M 13.543,0 l 0,-3.269 M 27.087,0 l 0,-3.269"
         style="fill:none;stroke:#231f20;stroke-width:0.5;stroke-linecap:butt;stroke-linejoin:miter;stroke-miterlimit:4;stroke-dasharray:none;stroke-opacity:1"
         id="path220"
         inkscape:connector-curvature="0" /></g><text
       transform="matrix(0.70710678,0.70710678,0.70710678,-0.70710678,368.9821,378.997)"
       style="font-variant:normal;font-weight:normal;font-size:7.99992323px;font-family:sans-serif;-inkscape-font-specification:sans-serif;writing-mode:lr-tb;fill:#231f20;fill-opacity:1;fill-rule:nonzero;stroke:none;font-style:normal;font-stretch:normal;"
       id="text222"><tspan
         x="0"
         y="0"
         sodipodi:role="line"
         id="tspan226" /></text>
<g
       id="g228"
       transform="translate(446.621,400.638)"><path
         d="M 0,0 0,-3.27"
         style="fill:none;stroke:#231f20;stroke-width:0.5;stroke-linecap:butt;stroke-linejoin:miter;stroke-miterlimit:4;stroke-dasharray:none;stroke-opacity:1"
         id="path230"
         inkscape:connector-curvature="0" /></g><text
       transform="matrix(0.70710678,0.70710678,0.70710678,-0.70710678,396.2221,378.997)"
       style="font-variant:normal;font-weight:normal;font-size:7.99992323px;font-family:sans-serif;-inkscape-font-specification:sans-serif;writing-mode:lr-tb;fill:#231f20;fill-opacity:1;fill-rule:nonzero;stroke:none;font-style:normal;font-stretch:normal;"
       id="text232"><tspan
         x="0 4.4479575 8.895915 13.343872"
         y="0"
         sodipodi:role="line"
         id="tspan234">2000</tspan><tspan
         x="0"
         sodipodi:role="line"
         id="tspan236"
         y="39.999615" /><tspan
         x="0"
         y="48.159538"
         sodipodi:role="line"
         id="tspan238" /><tspan
         x="0"
         y="4.4530821"
         sodipodi:role="line"
         id="tspan240" /><tspan
         x="0"
         y="0"
         sodipodi:role="line"
         id="tspan242" /><tspan
         x="48.159538 52.607494 57.055454 61.50341"
         y="48.159538"
         sodipodi:role="line"
         id="tspan244">2005</tspan></text>
<g
       id="g246"
       transform="translate(460.164,400.638)"><path
         d="M 0,0 0,-3.269 M -135.432,0 l 0,-3.269"
         style="fill:none;stroke:#231f20;stroke-width:0.5;stroke-linecap:butt;stroke-linejoin:miter;stroke-miterlimit:4;stroke-dasharray:none;stroke-opacity:1"
         id="path248"
         inkscape:connector-curvature="0" /></g><g
       id="g250"
       transform="translate(137.207,401.066)"><path
         d="m 0,0 c 0,-1.105 -0.896,-2 -2,-2 -1.105,0 -2,0.895 -2,2 0,1.104 0.895,2 2,2 1.104,0 2,-0.896 2,-2 z"
         style="fill:#918f90;fill-opacity:1;fill-rule:nonzero;stroke:#231f20;stroke-width:0.5;stroke-linecap:round;stroke-linejoin:miter;stroke-miterlimit:4;stroke-dasharray:none;stroke-opacity:1"
         id="path252"
         inkscape:connector-curvature="0" /></g><g
       id="g350"
       transform="translate(462.141,522.933)"><g
         id="g4633"
         style="stroke:#000000;stroke-opacity:1;fill:#ff0000;fill-opacity:1"><g
           transform="translate(-311.601,-117.534)"
           id="g254"
           style="stroke:#000000;stroke-opacity:1;fill:#ff0000;fill-opacity:1"><path
             inkscape:connector-curvature="0"
             id="path256"
             style="fill:#ff0000;fill-opacity:1;fill-rule:nonzero;stroke:#000000;stroke-width:0.5;stroke-linecap:round;stroke-linejoin:miter;stroke-miterlimit:4;stroke-dasharray:none;stroke-opacity:1"
             d="m 0,0 c 0,-1.104 -0.895,-2 -2,-2 -1.104,0 -2,0.896 -2,2 0,1.105 0.896,2 2,2 1.105,0 2,-0.895 2,-2 z" /></g><g
           transform="translate(-297.934,-114.067)"
           id="g258"
           style="stroke:#000000;stroke-opacity:1;fill:#ff0000;fill-opacity:1"><path
             inkscape:connector-curvature="0"
             id="path260"
             style="fill:#ff0000;fill-opacity:1;fill-rule:nonzero;stroke:#000000;stroke-width:0.5;stroke-linecap:round;stroke-linejoin:miter;stroke-miterlimit:4;stroke-dasharray:none;stroke-opacity:1"
             d="m 0,0 c 0,-1.104 -0.896,-2 -2,-2 -1.105,0 -2,0.896 -2,2 0,1.105 0.895,2 2,2 1.104,0 2,-0.895 2,-2 z" /></g><g
           transform="translate(-230.267,-93.534)"
           id="g262"
           style="stroke:#000000;stroke-opacity:1;fill:#ff0000;fill-opacity:1"><path
             inkscape:connector-curvature="0"
             id="path264"
             style="fill:#ff0000;fill-opacity:1;fill-rule:nonzero;stroke:#000000;stroke-width:0.5;stroke-linecap:round;stroke-linejoin:miter;stroke-miterlimit:4;stroke-dasharray:none;stroke-opacity:1"
             d="m 0,0 c 0,-1.104 -0.896,-2 -2.001,-2 -1.104,0 -2,0.896 -2,2 0,1.105 0.896,2 2,2 C -0.896,2 0,1.105 0,0 Z" /></g><g
           transform="translate(-243.601,-100.2)"
           id="g266"
           style="stroke:#000000;stroke-opacity:1;fill:#ff0000;fill-opacity:1"><path
             inkscape:connector-curvature="0"
             id="path268"
             style="fill:#ff0000;fill-opacity:1;fill-rule:nonzero;stroke:#000000;stroke-width:0.5;stroke-linecap:round;stroke-linejoin:miter;stroke-miterlimit:4;stroke-dasharray:none;stroke-opacity:1"
             d="m 0,0 c 0,-1.105 -0.895,-2 -2,-2 -1.104,0 -2,0.895 -2,2 0,1.104 0.896,2 2,2 1.105,0 2,-0.896 2,-2 z" /></g><g
           transform="translate(-256.934,-103.667)"
           id="g270"
           style="stroke:#000000;stroke-opacity:1;fill:#ff0000;fill-opacity:1"><path
             inkscape:connector-curvature="0"
             id="path272"
             style="fill:#ff0000;fill-opacity:1;fill-rule:nonzero;stroke:#000000;stroke-width:0.5;stroke-linecap:round;stroke-linejoin:miter;stroke-miterlimit:4;stroke-dasharray:none;stroke-opacity:1"
             d="m 0,0 c 0,-1.104 -0.896,-2 -2,-2 -1.105,0 -2,0.896 -2,2 0,1.105 0.895,2 2,2 1.104,0 2,-0.895 2,-2 z" /></g><g
           transform="translate(-216.601,-87.2)"
           id="g274"
           style="stroke:#000000;stroke-opacity:1;fill:#ff0000;fill-opacity:1"><path
             inkscape:connector-curvature="0"
             id="path276"
             style="fill:#ff0000;fill-opacity:1;fill-rule:nonzero;stroke:#000000;stroke-width:0.5;stroke-linecap:round;stroke-linejoin:miter;stroke-miterlimit:4;stroke-dasharray:none;stroke-opacity:1"
             d="m 0,0 c 0,-1.105 -0.896,-2 -2,-2 -1.105,0 -2,0.895 -2,2 0,1.104 0.895,2 2,2 1.104,0 2,-0.896 2,-2 z" /></g><g
           transform="translate(-270.934,-107.134)"
           id="g278"
           style="stroke:#000000;stroke-opacity:1;fill:#ff0000;fill-opacity:1"><path
             inkscape:connector-curvature="0"
             id="path280"
             style="fill:#ff0000;fill-opacity:1;fill-rule:nonzero;stroke:#000000;stroke-width:0.5;stroke-linecap:round;stroke-linejoin:miter;stroke-miterlimit:4;stroke-dasharray:none;stroke-opacity:1"
             d="m 0,0 c 0,-1.104 -0.896,-2 -2,-2 -1.105,0 -2,0.896 -2,2 0,1.105 0.895,2 2,2 1.104,0 2,-0.895 2,-2 z" /></g><g
           transform="translate(-284.601,-110.6)"
           id="g282"
           style="stroke:#000000;stroke-opacity:1;fill:#ff0000;fill-opacity:1"><path
             inkscape:connector-curvature="0"
             id="path284"
             style="fill:#ff0000;fill-opacity:1;fill-rule:nonzero;stroke:#000000;stroke-width:0.5;stroke-linecap:round;stroke-linejoin:miter;stroke-miterlimit:4;stroke-dasharray:none;stroke-opacity:1"
             d="m 0,0 c 0,-1.104 -0.895,-2 -2,-2 -1.104,0 -2,0.896 -2,2 0,1.105 0.896,2 2,2 1.105,0 2,-0.895 2,-2 z" /></g><g
           transform="translate(-148.934,-58.534)"
           id="g286"
           style="stroke:#000000;stroke-opacity:1;fill:#ff0000;fill-opacity:1"><path
             inkscape:connector-curvature="0"
             id="path288"
             style="fill:#ff0000;fill-opacity:1;fill-rule:nonzero;stroke:#000000;stroke-width:0.5;stroke-linecap:round;stroke-linejoin:miter;stroke-miterlimit:4;stroke-dasharray:none;stroke-opacity:1"
             d="m 0,0 c 0,-1.104 -0.896,-2 -2,-2 -1.105,0 -2,0.896 -2,2 0,1.105 0.895,2 2,2 1.104,0 2,-0.895 2,-2 z" /></g><g
           transform="translate(-81.267,-28.2)"
           id="g290"
           style="stroke:#000000;stroke-opacity:1;fill:#ff0000;fill-opacity:1"><path
             inkscape:connector-curvature="0"
             id="path292"
             style="fill:#ff0000;fill-opacity:1;fill-rule:nonzero;stroke:#000000;stroke-width:0.5;stroke-linecap:round;stroke-linejoin:miter;stroke-miterlimit:4;stroke-dasharray:none;stroke-opacity:1"
             d="m 0,0 c 0,-1.105 -0.896,-2 -2,-2 -1.105,0 -2,0.895 -2,2 0,1.105 0.895,2 2,2 1.104,0 2,-0.895 2,-2 z" /></g><g
           transform="translate(-203.068,-81.467)"
           id="g294"
           style="stroke:#000000;stroke-opacity:1;fill:#ff0000;fill-opacity:1"><path
             inkscape:connector-curvature="0"
             id="path296"
             style="fill:#ff0000;fill-opacity:1;fill-rule:nonzero;stroke:#000000;stroke-width:0.5;stroke-linecap:round;stroke-linejoin:miter;stroke-miterlimit:4;stroke-dasharray:none;stroke-opacity:1"
             d="m 0,0 c 0,-1.105 -0.895,-2 -2,-2 -1.104,0 -2,0.895 -2,2 0,1.104 0.896,2 2,2 1.105,0 2,-0.896 2,-2 z" /></g><g
           transform="translate(-162.467,-64.267)"
           id="g298"
           style="stroke:#000000;stroke-opacity:1;fill:#ff0000;fill-opacity:1"><path
             inkscape:connector-curvature="0"
             id="path300"
             style="fill:#ff0000;fill-opacity:1;fill-rule:nonzero;stroke:#000000;stroke-width:0.5;stroke-linecap:round;stroke-linejoin:miter;stroke-miterlimit:4;stroke-dasharray:none;stroke-opacity:1"
             d="m 0,0 c 0,-1.104 -0.896,-2 -2,-2 -1.105,0 -2,0.896 -2,2 0,1.105 0.895,2 2,2 1.104,0 2,-0.895 2,-2 z" /></g><g
           transform="translate(-176,-70)"
           id="g302"
           style="stroke:#000000;stroke-opacity:1;fill:#ff0000;fill-opacity:1"><path
             inkscape:connector-curvature="0"
             id="path304"
             style="fill:#ff0000;fill-opacity:1;fill-rule:nonzero;stroke:#000000;stroke-width:0.5;stroke-linecap:round;stroke-linejoin:miter;stroke-miterlimit:4;stroke-dasharray:none;stroke-opacity:1"
             d="m 0,0 c 0,-1.105 -0.896,-2 -2,-2 -1.105,0 -2,0.895 -2,2 0,1.104 0.895,2 2,2 1.104,0 2,-0.896 2,-2 z" /></g><g
           transform="translate(-189.534,-75.734)"
           id="g306"
           style="stroke:#000000;stroke-opacity:1;fill:#ff0000;fill-opacity:1"><path
             inkscape:connector-curvature="0"
             id="path308"
             style="fill:#ff0000;fill-opacity:1;fill-rule:nonzero;stroke:#000000;stroke-width:0.5;stroke-linecap:round;stroke-linejoin:miter;stroke-miterlimit:4;stroke-dasharray:none;stroke-opacity:1"
             d="m 0,0 c 0,-1.104 -0.896,-2 -2,-2 -1.105,0 -2,0.896 -2,2 0,1.105 0.895,2 2,2 1.104,0 2,-0.895 2,-2 z" /></g><g
           transform="translate(-135.401,-52.467)"
           id="g310"
           style="stroke:#000000;stroke-opacity:1;fill:#ff0000;fill-opacity:1"><path
             inkscape:connector-curvature="0"
             id="path312"
             style="fill:#ff0000;fill-opacity:1;fill-rule:nonzero;stroke:#000000;stroke-width:0.5;stroke-linecap:round;stroke-linejoin:miter;stroke-miterlimit:4;stroke-dasharray:none;stroke-opacity:1"
             d="m 0,0 c 0,-1.104 -0.895,-2 -2,-2 -1.104,0 -2,0.896 -2,2 0,1.105 0.896,2 2,2 1.105,0 2,-0.895 2,-2 z" /></g><g
           transform="translate(-94.8,-34.267)"
           id="g314"
           style="stroke:#000000;stroke-opacity:1;fill:#ff0000;fill-opacity:1"><path
             inkscape:connector-curvature="0"
             id="path316"
             style="fill:#ff0000;fill-opacity:1;fill-rule:nonzero;stroke:#000000;stroke-width:0.5;stroke-linecap:round;stroke-linejoin:miter;stroke-miterlimit:4;stroke-dasharray:none;stroke-opacity:1"
             d="m 0,0 c 0,-1.104 -0.896,-2 -2,-2 -1.105,0 -2,0.896 -2,2 0,1.105 0.895,2 2,2 1.104,0 2,-0.895 2,-2 z" /></g><g
           transform="translate(-108.333,-40.333)"
           id="g318"
           style="stroke:#000000;stroke-opacity:1;fill:#ff0000;fill-opacity:1"><path
             inkscape:connector-curvature="0"
             id="path320"
             style="fill:#ff0000;fill-opacity:1;fill-rule:nonzero;stroke:#000000;stroke-width:0.5;stroke-linecap:round;stroke-linejoin:miter;stroke-miterlimit:4;stroke-dasharray:none;stroke-opacity:1"
             d="m 0,0 c 0,-1.105 -0.896,-2 -2,-2 -1.105,0 -2,0.895 -2,2 0,1.104 0.895,2 2,2 1.104,0 2,-0.896 2,-2 z" /></g><g
           transform="translate(-121.868,-46.4)"
           id="g322"
           style="stroke:#000000;stroke-opacity:1;fill:#ff0000;fill-opacity:1"><path
             inkscape:connector-curvature="0"
             id="path324"
             style="fill:#ff0000;fill-opacity:1;fill-rule:nonzero;stroke:#000000;stroke-width:0.5;stroke-linecap:round;stroke-linejoin:miter;stroke-miterlimit:4;stroke-dasharray:none;stroke-opacity:1"
             d="m 0,0 c 0,-1.105 -0.896,-2 -2,-2 -1.105,0 -2,0.895 -2,2 0,1.104 0.895,2 2,2 1.104,0 2,-0.896 2,-2 z" /></g><g
           id="g4582"
           style="stroke:#000000;stroke-opacity:1;fill:#ff0000;fill-opacity:1"><g
             style="stroke:#000000;stroke-opacity:1;fill:#ff0000;fill-opacity:1"
             id="g326"
             transform="translate(-54.068,-17.801)"><path
               d="m 0,0 c 0,-1.104 -0.895,-2 -2,-2 -1.104,0 -2,0.896 -2,2 0,1.105 0.896,2 2,2 1.105,0 2,-0.895 2,-2 z"
               style="fill:#ff0000;fill-opacity:1;fill-rule:nonzero;stroke:#000000;stroke-width:0.5;stroke-linecap:round;stroke-linejoin:miter;stroke-miterlimit:4;stroke-dasharray:none;stroke-opacity:1"
               id="path328"
               inkscape:connector-curvature="0" /></g><g
             style="stroke:#000000;stroke-opacity:1;fill:#ff0000;fill-opacity:1"
             id="g330"
             transform="translate(-13.467,-0.6)"><path
               d="m 0,0 c 0,-1.105 -0.896,-2 -2,-2 -1.105,0 -2,0.895 -2,2 0,1.104 0.895,2 2,2 1.104,0 2,-0.896 2,-2 z"
               style="fill:#ff0000;fill-opacity:1;fill-rule:nonzero;stroke:#000000;stroke-width:0.5;stroke-linecap:round;stroke-linejoin:miter;stroke-miterlimit:4;stroke-dasharray:none;stroke-opacity:1"
               id="path332"
               inkscape:connector-curvature="0" /></g><g
             style="stroke:#000000;stroke-opacity:1;fill:#ff0000;fill-opacity:1"
             id="g334"
             transform="translate(-27,-6.334)"><path
               d="m 0,0 c 0,-1.104 -0.896,-2 -2,-2 -1.105,0 -2,0.896 -2,2 0,1.105 0.895,2 2,2 1.104,0 2,-0.895 2,-2 z"
               style="fill:#ff0000;fill-opacity:1;fill-rule:nonzero;stroke:#000000;stroke-width:0.5;stroke-linecap:round;stroke-linejoin:miter;stroke-miterlimit:4;stroke-dasharray:none;stroke-opacity:1"
               id="path336"
               inkscape:connector-curvature="0" /></g><g
             style="stroke:#000000;stroke-opacity:1;fill:#ff0000;fill-opacity:1"
             id="g338"
             transform="translate(-40.534,-12.067)"><path
               d="m 0,0 c 0,-1.105 -0.896,-2 -2,-2 -1.105,0 -2,0.895 -2,2 0,1.104 0.895,2 2,2 1.104,0 2,-0.896 2,-2 z"
               style="fill:#ff0000;fill-opacity:1;fill-rule:nonzero;stroke:#000000;stroke-width:0.5;stroke-linecap:round;stroke-linejoin:miter;stroke-miterlimit:4;stroke-dasharray:none;stroke-opacity:1"
               id="path340"
               inkscape:connector-curvature="0" /></g><g
             style="stroke:#000000;stroke-opacity:1;fill:#ff0000;fill-opacity:1"
             id="g342"
             transform="translate(-67.068,-22.801)"><path
               d="m 0,0 c 0,-1.104 -0.895,-2 -2,-2 -1.104,0 -2,0.896 -2,2 0,1.105 0.896,2 2,2 1.105,0 2,-0.895 2,-2 z"
               style="fill:#ff0000;fill-opacity:1;fill-rule:nonzero;stroke:#000000;stroke-width:0.5;stroke-linecap:round;stroke-linejoin:miter;stroke-miterlimit:4;stroke-dasharray:none;stroke-opacity:1"
               id="path344"
               inkscape:connector-curvature="0" /></g><g
             style="stroke:#000000;stroke-opacity:1;fill:#ff0000;fill-opacity:1"
             id="g346"
             transform="translate(13.533,2.733)"><path
               d="m -1.8287244,-0.36574489 c 0,-1.10400001 -0.896,-2.00000001 -2,-2.00000001 -1.105,0 -2,0.896 -2,2.00000001 0,1.105 0.895,1.99999999 2,1.99999999 1.104,0 2,-0.89499999 2,-1.99999999 z"
               style="fill:#ff0000;fill-opacity:1;fill-rule:nonzero;stroke:#000000;stroke-width:0.5;stroke-linecap:round;stroke-linejoin:miter;stroke-miterlimit:4;stroke-dasharray:none;stroke-opacity:1"
               id="path348"
               inkscape:connector-curvature="0" /></g><path
             d="m 0,0 c 0,-1.105 -0.896,-2 -2,-2 -1.105,0 -2,0.895 -2,2 0,1.104 0.895,2 2,2 1.104,0 2,-0.896 2,-2 z"
             style="fill:#ff0000;fill-opacity:1;fill-rule:nonzero;stroke:#000000;stroke-width:0.5;stroke-linecap:round;stroke-linejoin:miter;stroke-miterlimit:4;stroke-dasharray:none;stroke-opacity:1"
             id="path352"
             inkscape:connector-curvature="0" /></g></g></g><path
       d="m 133.624,402.483 3,0 0,-3 -3,0 0,3 z"
       style="fill:#ffffff;fill-opacity:1;fill-rule:nonzero;stroke:#231f20;stroke-width:0.5;stroke-linecap:butt;stroke-linejoin:miter;stroke-miterlimit:4;stroke-dasharray:none;stroke-opacity:1"
       id="path354"
       inkscape:connector-curvature="0" /><path
       d="m 174.178,403.385 3,0 0,3 -3,0 0,-3 z"
       style="fill:#ffffff;fill-opacity:1;fill-rule:nonzero;stroke:#231f20;stroke-width:0.5;stroke-linecap:butt;stroke-linejoin:miter;stroke-miterlimit:4;stroke-dasharray:none;stroke-opacity:1"
       id="path404"
       inkscape:connector-curvature="0" /><g
       id="g4697"
       style="fill:#1c24e8;fill-opacity:1"><path
         inkscape:connector-curvature="0"
         id="path356"
         style="fill:#1c24e8;fill-opacity:1;fill-rule:nonzero;stroke:#231f20;stroke-width:0.5;stroke-linecap:butt;stroke-linejoin:miter;stroke-miterlimit:4;stroke-dasharray:none;stroke-opacity:1"
         d="m 147.124,404.983 3,0 0,-3 -3,0 0,3 z" /><path
         inkscape:connector-curvature="0"
         id="path358"
         style="fill:#1c24e8;fill-opacity:1;fill-rule:nonzero;stroke:#231f20;stroke-width:0.5;stroke-linecap:butt;stroke-linejoin:miter;stroke-miterlimit:4;stroke-dasharray:none;stroke-opacity:1"
         d="m 160.624,405.483 3,0 0,-3 -3,0 0,3 z" /><g
         id="g4685"
         style="fill:#1c24e8;fill-opacity:1"><path
           d="m 470.66719,420.733 3,0 0,-3 -3,0 0,3 z"
           style="fill:#1c24e8;fill-opacity:1;fill-rule:nonzero;stroke:#231f20;stroke-width:0.5;stroke-linecap:butt;stroke-linejoin:miter;stroke-miterlimit:4;stroke-dasharray:none;stroke-opacity:1"
           id="path360"
           inkscape:connector-curvature="0" /><path
           d="m 458.819,420.331 3,0 0,-3 -3,0 0,3 z"
           style="fill:#1c24e8;fill-opacity:1;fill-rule:nonzero;stroke:#231f20;stroke-width:0.5;stroke-linecap:butt;stroke-linejoin:miter;stroke-miterlimit:4;stroke-dasharray:none;stroke-opacity:1"
           id="path362"
           inkscape:connector-curvature="0" /><path
           d="m 445.266,419.929 3,0 0,-3 -3,0 0,3 z"
           style="fill:#1c24e8;fill-opacity:1;fill-rule:nonzero;stroke:#231f20;stroke-width:0.5;stroke-linecap:butt;stroke-linejoin:miter;stroke-miterlimit:4;stroke-dasharray:none;stroke-opacity:1"
           id="path364"
           inkscape:connector-curvature="0" /><path
           d="m 431.711,419.776 3,0 0,-3 -3,0 0,3 z"
           style="fill:#1c24e8;fill-opacity:1;fill-rule:nonzero;stroke:#231f20;stroke-width:0.5;stroke-linecap:butt;stroke-linejoin:miter;stroke-miterlimit:4;stroke-dasharray:none;stroke-opacity:1"
           id="path366"
           inkscape:connector-curvature="0" /><path
           d="m 418.156,419.124 3,0 0,-3 -3,0 0,3 z"
           style="fill:#1c24e8;fill-opacity:1;fill-rule:nonzero;stroke:#231f20;stroke-width:0.5;stroke-linecap:butt;stroke-linejoin:miter;stroke-miterlimit:4;stroke-dasharray:none;stroke-opacity:1"
           id="path368"
           inkscape:connector-curvature="0" /><path
           d="m 404.602,418.722 3,0 0,-3 -3,0 0,3 z"
           style="fill:#1c24e8;fill-opacity:1;fill-rule:nonzero;stroke:#231f20;stroke-width:0.5;stroke-linecap:butt;stroke-linejoin:miter;stroke-miterlimit:4;stroke-dasharray:none;stroke-opacity:1"
           id="path370"
           inkscape:connector-curvature="0" /><path
           d="m 391.048,418.07 3,0 0,-3 -3,0 0,3 z"
           style="fill:#1c24e8;fill-opacity:1;fill-rule:nonzero;stroke:#231f20;stroke-width:0.5;stroke-linecap:butt;stroke-linejoin:miter;stroke-miterlimit:4;stroke-dasharray:none;stroke-opacity:1"
           id="path372"
           inkscape:connector-curvature="0" /><path
           d="m 377.493,417.168 3,0 0,-3 -3,0 0,3 z"
           style="fill:#1c24e8;fill-opacity:1;fill-rule:nonzero;stroke:#231f20;stroke-width:0.5;stroke-linecap:butt;stroke-linejoin:miter;stroke-miterlimit:4;stroke-dasharray:none;stroke-opacity:1"
           id="path374"
           inkscape:connector-curvature="0" /><path
           d="m 363.939,413.016 3,0 0,3 -3,0 0,-3 z"
           style="fill:#1c24e8;fill-opacity:1;fill-rule:nonzero;stroke:#231f20;stroke-width:0.5;stroke-linecap:butt;stroke-linejoin:miter;stroke-miterlimit:4;stroke-dasharray:none;stroke-opacity:1"
           id="path376"
           inkscape:connector-curvature="0" /><path
           d="m 350.385,412.363 3,0 0,3 -3,0 0,-3 z"
           style="fill:#1c24e8;fill-opacity:1;fill-rule:nonzero;stroke:#231f20;stroke-width:0.5;stroke-linecap:butt;stroke-linejoin:miter;stroke-miterlimit:4;stroke-dasharray:none;stroke-opacity:1"
           id="path378"
           inkscape:connector-curvature="0" /></g><path
         inkscape:connector-curvature="0"
         id="path380"
         style="fill:#1c24e8;fill-opacity:1;fill-rule:nonzero;stroke:#231f20;stroke-width:0.5;stroke-linecap:butt;stroke-linejoin:miter;stroke-miterlimit:4;stroke-dasharray:none;stroke-opacity:1"
         d="m 336.83,411.712 3,0 0,3 -3,0 0,-3 z" /><path
         inkscape:connector-curvature="0"
         id="path382"
         style="fill:#1c24e8;fill-opacity:1;fill-rule:nonzero;stroke:#231f20;stroke-width:0.5;stroke-linecap:butt;stroke-linejoin:miter;stroke-miterlimit:4;stroke-dasharray:none;stroke-opacity:1"
         d="m 323.275,411.059 3,0 0,3 -3,0 0,-3 z" /><path
         inkscape:connector-curvature="0"
         id="path384"
         style="fill:#1c24e8;fill-opacity:1;fill-rule:nonzero;stroke:#231f20;stroke-width:0.5;stroke-linecap:butt;stroke-linejoin:miter;stroke-miterlimit:4;stroke-dasharray:none;stroke-opacity:1"
         d="m 309.722,410.407 3,0 0,3 -3,0 0,-3 z" /><path
         inkscape:connector-curvature="0"
         id="path386"
         style="fill:#1c24e8;fill-opacity:1;fill-rule:nonzero;stroke:#231f20;stroke-width:0.5;stroke-linecap:butt;stroke-linejoin:miter;stroke-miterlimit:4;stroke-dasharray:none;stroke-opacity:1"
         d="m 296.167,409.754 3,0 0,3 -3,0 0,-3 z" /><path
         inkscape:connector-curvature="0"
         id="path388"
         style="fill:#1c24e8;fill-opacity:1;fill-rule:nonzero;stroke:#231f20;stroke-width:0.5;stroke-linecap:butt;stroke-linejoin:miter;stroke-miterlimit:4;stroke-dasharray:none;stroke-opacity:1"
         d="m 282.613,409.103 3,0 0,3 -3,0 0,-3 z" /><path
         inkscape:connector-curvature="0"
         id="path390"
         style="fill:#1c24e8;fill-opacity:1;fill-rule:nonzero;stroke:#231f20;stroke-width:0.5;stroke-linecap:butt;stroke-linejoin:miter;stroke-miterlimit:4;stroke-dasharray:none;stroke-opacity:1"
         d="m 269.059,408.45 3,0 0,3 -3,0 0,-3 z" /><path
         inkscape:connector-curvature="0"
         id="path392"
         style="fill:#1c24e8;fill-opacity:1;fill-rule:nonzero;stroke:#231f20;stroke-width:0.5;stroke-linecap:butt;stroke-linejoin:miter;stroke-miterlimit:4;stroke-dasharray:none;stroke-opacity:1"
         d="m 255.504,407.798 3,0 0,3 -3,0 0,-3 z" /><path
         inkscape:connector-curvature="0"
         id="path394"
         style="fill:#1c24e8;fill-opacity:1;fill-rule:nonzero;stroke:#231f20;stroke-width:0.5;stroke-linecap:butt;stroke-linejoin:miter;stroke-miterlimit:4;stroke-dasharray:none;stroke-opacity:1"
         d="m 241.949,407.146 3,0 0,3 -3,0 0,-3 z" /><path
         inkscape:connector-curvature="0"
         id="path396"
         style="fill:#1c24e8;fill-opacity:1;fill-rule:nonzero;stroke:#231f20;stroke-width:0.5;stroke-linecap:butt;stroke-linejoin:miter;stroke-miterlimit:4;stroke-dasharray:none;stroke-opacity:1"
         d="m 228.395,406.494 3,0 0,3 -3,0 0,-3 z" /><path
         inkscape:connector-curvature="0"
         id="path398"
         style="fill:#1c24e8;fill-opacity:1;fill-rule:nonzero;stroke:#231f20;stroke-width:0.5;stroke-linecap:butt;stroke-linejoin:miter;stroke-miterlimit:4;stroke-dasharray:none;stroke-opacity:1"
         d="m 214.841,405.342 3,0 0,3 -3,0 0,-3 z" /><path
         inkscape:connector-curvature="0"
         id="path400"
         style="fill:#1c24e8;fill-opacity:1;fill-rule:nonzero;stroke:#231f20;stroke-width:0.5;stroke-linecap:butt;stroke-linejoin:miter;stroke-miterlimit:4;stroke-dasharray:none;stroke-opacity:1"
         d="m 201.287,404.689 3,0 0,3 -3,0 0,-3 z" /><path
         inkscape:connector-curvature="0"
         id="path402"
         style="fill:#1c24e8;fill-opacity:1;fill-rule:nonzero;stroke:#231f20;stroke-width:0.5;stroke-linecap:butt;stroke-linejoin:miter;stroke-miterlimit:4;stroke-dasharray:none;stroke-opacity:1"
         d="m 187.732,404.037 3,0 0,3 -3,0 0,-3 z" /><path
         inkscape:connector-curvature="0"
         id="path406"
         style="fill:#1c24e8;fill-opacity:1;fill-rule:nonzero;stroke:#231f20;stroke-width:0.5;stroke-linecap:butt;stroke-linejoin:miter;stroke-miterlimit:4;stroke-dasharray:none;stroke-opacity:1"
         d="m 174.178,405.483 3,0 0,-3 -3,0 0,3 z" /></g><text
       xml:space="preserve"
       style="font-style:normal;font-weight:normal;font-size:10px;line-height:125%;font-family:sans-serif;letter-spacing:0px;word-spacing:0px;fill:#000000;fill-opacity:1;stroke:none;stroke-width:1px;stroke-linecap:butt;stroke-linejoin:miter;stroke-opacity:1"
       x="108.27586"
       y="-572.41382"
       id="text4548"
       sodipodi:linespacing="125%"
       transform="scale(1,-1)"><tspan
         sodipodi:role="line"
         id="tspan4550"
         x="108.27586"
         y="-572.41382"
         style="font-weight:bold">PERFORMANCE</tspan></text>
<text
       xml:space="preserve"
       style="font-style:normal;font-weight:normal;font-size:10px;line-height:125%;font-family:sans-serif;letter-spacing:0px;word-spacing:0px;fill:#000000;fill-opacity:1;stroke:none;stroke-width:1px;stroke-linecap:butt;stroke-linejoin:miter;stroke-opacity:1"
       x="287.31143"
       y="-361.45282"
       id="text4548-1"
       sodipodi:linespacing="125%"
       transform="scale(1,-1)"><tspan
         sodipodi:role="line"
         id="tspan4550-0"
         x="287.31143"
         y="-361.45282"
         style="font-weight:bold">YEAR</tspan></text>
<text
       xml:space="preserve"
       style="font-style:normal;font-weight:normal;font-size:10px;line-height:125%;font-family:sans-serif;letter-spacing:0px;word-spacing:0px;fill:#000000;fill-opacity:1;stroke:none;stroke-width:1px;stroke-linecap:butt;stroke-linejoin:miter;stroke-opacity:1"
       x="401.34409"
       y="-434.50491"
       id="text4763"
       sodipodi:linespacing="125%"
       transform="scale(1,-1)"><tspan
         sodipodi:role="line"
         id="tspan4765"
         x="401.34409"
         y="-434.50491"
         style="font-weight:bold">MEMORY</tspan></text>
<text
       xml:space="preserve"
       style="font-style:normal;font-weight:normal;font-size:10px;line-height:125%;font-family:sans-serif;letter-spacing:0px;word-spacing:0px;fill:#000000;fill-opacity:1;stroke:none;stroke-width:1px;stroke-linecap:butt;stroke-linejoin:miter;stroke-opacity:1"
       x="412.07257"
       y="-530.08624"
       id="text4767"
       sodipodi:linespacing="125%"
       transform="scale(1,-1)"><tspan
         sodipodi:role="line"
         id="tspan4769"
         x="412.07257"
         y="-530.08624"
         style="font-weight:bold">CPU</tspan></text>
<text
       xml:space="preserve"
       style="font-style:normal;font-weight:normal;font-size:8px;line-height:125%;font-family:sans-serif;letter-spacing:0px;word-spacing:0px;fill:#000000;fill-opacity:1;stroke:none;stroke-width:1px;stroke-linecap:butt;stroke-linejoin:miter;stroke-opacity:1"
       x="100.34483"
       y="-554.13794"
       id="text4829"
       sodipodi:linespacing="125%"
       transform="scale(1,-1)"><tspan
         sodipodi:role="line"
         id="tspan4831"
         x="100.34483"
         y="-554.13794">   100K</tspan></text>
<text
       xml:space="preserve"
       style="font-style:normal;font-weight:normal;font-size:8px;line-height:125%;font-family:sans-serif;letter-spacing:0px;word-spacing:0px;fill:#000000;fill-opacity:1;stroke:none;stroke-width:1px;stroke-linecap:butt;stroke-linejoin:miter;stroke-opacity:1"
       x="105.48721"
       y="-522.94995"
       id="text4829-1"
       sodipodi:linespacing="125%"
       transform="scale(1,-1)"><tspan
         sodipodi:role="line"
         id="tspan4831-4"
         x="105.48721"
         y="-522.94995">   10K</tspan></text>
<text
       xml:space="preserve"
       style="font-style:normal;font-weight:normal;font-size:8px;line-height:125%;font-family:sans-serif;letter-spacing:0px;word-spacing:0px;fill:#000000;fill-opacity:1;stroke:none;stroke-width:1px;stroke-linecap:butt;stroke-linejoin:miter;stroke-opacity:1"
       x="109.62514"
       y="-492.26031"
       id="text4829-7"
       sodipodi:linespacing="125%"
       transform="scale(1,-1)"><tspan
         sodipodi:role="line"
         id="tspan4831-9"
         x="109.62514"
         y="-492.26031">   1K</tspan></text>
</g></svg>