<?xml version="1.0" encoding="UTF-8" standalone="no"?>
<!-- Created with Inkscape (http://www.inkscape.org/) -->

<svg
   xmlns:dc="http://purl.org/dc/elements/1.1/"
   xmlns:cc="http://creativecommons.org/ns#"
   xmlns:rdf="http://www.w3.org/1999/02/22-rdf-syntax-ns#"
   xmlns:svg="http://www.w3.org/2000/svg"
   xmlns="http://www.w3.org/2000/svg"
   xmlns:sodipodi="http://sodipodi.sourceforge.net/DTD/sodipodi-0.dtd"
   xmlns:inkscape="http://www.inkscape.org/namespaces/inkscape"
   version="1.1"
   id="svg4624"
   xml:space="preserve"
   width="398.66666"
   height="492"
   viewBox="0 0 398.66666 492"
   sodipodi:docname="vga.svg"
   inkscape:version="0.92.2 5c3e80d, 2017-08-06"><metadata
     id="metadata4630"><rdf:RDF><cc:Work
         rdf:about=""><dc:format>image/svg+xml</dc:format><dc:type
           rdf:resource="http://purl.org/dc/dcmitype/StillImage" /><dc:title /></cc:Work></rdf:RDF></metadata><defs
     id="defs4628"><clipPath
       clipPathUnits="userSpaceOnUse"
       id="clipPath4642"><path
         d="M 0,1.05859 H 2990 V 3681.0586 H 0 Z"
         id="path4640"
         inkscape:connector-curvature="0" /></clipPath></defs><sodipodi:namedview
     pagecolor="#ffffff"
     bordercolor="#666666"
     borderopacity="1"
     objecttolerance="10"
     gridtolerance="10"
     guidetolerance="10"
     inkscape:pageopacity="0"
     inkscape:pageshadow="2"
     inkscape:window-width="1381"
     inkscape:window-height="856"
     id="namedview4626"
     showgrid="false"
     inkscape:zoom="1.9186992"
     inkscape:cx="270.62017"
     inkscape:cy="138.08141"
     inkscape:window-x="0"
     inkscape:window-y="0"
     inkscape:window-maximized="0"
     inkscape:current-layer="g4632" /><g
     id="g4632"
     inkscape:groupmode="layer"
     inkscape:label="ink_ext_XXXXXX"
     transform="matrix(1.3333333,0,0,-1.3333333,0,492)"><g
       id="g4634"
       transform="scale(0.1)"><g
         id="g4636"><g
           id="g4638"
           clip-path="url(#clipPath4642)"><path
             d="M 222.699,3558.45 H 1640.04"
             style="fill:none;stroke:#000000;stroke-width:15.94040012;stroke-linecap:butt;stroke-linejoin:miter;stroke-miterlimit:10;stroke-dasharray:none;stroke-opacity:1"
             id="path4644"
             inkscape:connector-curvature="0" /><path
             d="m 233.551,3240.4 v -189.61 c 0,-21.99 17.859,-39.84 39.847,-39.84 H 1611.05 c 22,0 39.85,17.85 39.85,39.84 v 189.61 c 0,21.99 -17.85,39.84 -39.85,39.84 H 273.398 c -21.988,0 -39.847,-17.85 -39.847,-39.84 z"
             style="fill:#bfbfbf;fill-opacity:1;fill-rule:nonzero;stroke:none"
             id="path4646"
             inkscape:connector-curvature="0" /><path
             d="m 233.551,3240.4 v -189.61 c 0,-21.99 17.859,-39.84 39.847,-39.84 H 1611.05 c 22,0 39.85,17.85 39.85,39.84 v 189.61 c 0,21.99 -17.85,39.84 -39.85,39.84 H 273.398 c -21.988,0 -39.847,-17.85 -39.847,-39.84 z"
             style="fill:none;stroke:#000000;stroke-width:7.97009993;stroke-linecap:butt;stroke-linejoin:miter;stroke-miterlimit:10;stroke-dasharray:none;stroke-opacity:1"
             id="path4648"
             inkscape:connector-curvature="0" /><path
             d="m 233.551,2857.7 v -189.57 c 0,-22.03 17.859,-39.84 39.847,-39.84 H 1611.05 c 22,0 39.85,17.81 39.85,39.84 v 189.57 c 0,22.04 -17.85,39.85 -39.85,39.85 H 273.398 c -21.988,0 -39.847,-17.81 -39.847,-39.85 z"
             style="fill:#bfbfbf;fill-opacity:1;fill-rule:nonzero;stroke:none"
             id="path4650"
             inkscape:connector-curvature="0" /><path
             d="m 233.551,2857.7 v -189.57 c 0,-22.03 17.859,-39.84 39.847,-39.84 H 1611.05 c 22,0 39.85,17.81 39.85,39.84 v 189.57 c 0,22.04 -17.85,39.85 -39.85,39.85 H 273.398 c -21.988,0 -39.847,-17.81 -39.847,-39.85 z"
             style="fill:none;stroke:#000000;stroke-width:7.97009993;stroke-linecap:butt;stroke-linejoin:miter;stroke-miterlimit:10;stroke-dasharray:none;stroke-opacity:1"
             id="path4652"
             inkscape:connector-curvature="0" /><path
             d="m 233.551,1338.49 h 283.48 v 992.141 h -283.48 z"
             style="fill:#bfbfbf;fill-opacity:1;fill-rule:nonzero;stroke:none"
             id="path4654"
             inkscape:connector-curvature="0" /><path
             d="m 233.551,1338.49 h 283.48 v 992.141 h -283.48 z"
             style="fill:none;stroke:#000000;stroke-width:7.97009993;stroke-linecap:butt;stroke-linejoin:miter;stroke-miterlimit:10;stroke-dasharray:none;stroke-opacity:1"
             id="path4656"
             inkscape:connector-curvature="0" /><path
             d="m 602.07,1338.49 h 283.48 v 992.141 H 602.07 Z"
             style="fill:#bfbfbf;fill-opacity:1;fill-rule:nonzero;stroke:none"
             id="path4658"
             inkscape:connector-curvature="0" /><path
             d="m 602.07,1338.49 h 283.48 v 992.141 H 602.07 Z"
             style="fill:none;stroke:#000000;stroke-width:7.97009993;stroke-linecap:butt;stroke-linejoin:miter;stroke-miterlimit:10;stroke-dasharray:none;stroke-opacity:1"
             id="path4660"
             inkscape:connector-curvature="0" /><path
             d="m 970.59,1338.49 h 283.43 v 992.141 H 970.59 Z"
             style="fill:#bfbfbf;fill-opacity:1;fill-rule:nonzero;stroke:none"
             id="path4662"
             inkscape:connector-curvature="0" /><path
             d="m 970.59,1338.49 h 283.43 v 992.141 H 970.59 Z"
             style="fill:none;stroke:#000000;stroke-width:7.97009993;stroke-linecap:butt;stroke-linejoin:miter;stroke-miterlimit:10;stroke-dasharray:none;stroke-opacity:1"
             id="path4664"
             inkscape:connector-curvature="0" /><path
             d="m 1339.06,1338.49 h 311.84 v 992.141 h -311.84 z"
             style="fill:#bfbfbf;fill-opacity:1;fill-rule:nonzero;stroke:none"
             id="path4666"
             inkscape:connector-curvature="0" /><path
             d="m 1339.06,1338.49 h 311.84 v 992.141 h -311.84 z"
             style="fill:none;stroke:#000000;stroke-width:7.97009993;stroke-linecap:butt;stroke-linejoin:miter;stroke-miterlimit:10;stroke-dasharray:none;stroke-opacity:1"
             id="path4668"
             inkscape:connector-curvature="0" /><path
             d="M 233.551,1015.17 V 811.422 c 0,-22.043 17.859,-39.852 39.847,-39.852 H 1611.05 c 22,0 39.85,17.809 39.85,39.852 v 203.748 c 0,22.03 -17.85,39.84 -39.85,39.84 H 273.398 c -21.988,0 -39.847,-17.81 -39.847,-39.84 z"
             style="fill:#bfbfbf;fill-opacity:1;fill-rule:nonzero;stroke:none"
             id="path4670"
             inkscape:connector-curvature="0" /><path
             d="M 233.551,1015.17 V 811.422 c 0,-22.043 17.859,-39.852 39.847,-39.852 H 1611.05 c 22,0 39.85,17.809 39.85,39.852 v 203.748 c 0,22.03 -17.85,39.84 -39.85,39.84 H 273.398 c -21.988,0 -39.847,-17.81 -39.847,-39.84 z"
             style="fill:none;stroke:#000000;stroke-width:7.97009993;stroke-linecap:butt;stroke-linejoin:miter;stroke-miterlimit:10;stroke-dasharray:none;stroke-opacity:1"
             id="path4672"
             inkscape:connector-curvature="0" /><path
             d="m 233.551,386.219 v 203.75 c 0,21.992 17.859,39.84 39.847,39.84 H 1611.05 c 22,0 39.85,-17.848 39.85,-39.84 v -203.75 c 0,-22.028 -17.85,-39.879 -39.85,-39.879 H 273.398 c -21.988,0 -39.847,17.851 -39.847,39.879 z"
             style="fill:#bfbfbf;fill-opacity:1;fill-rule:nonzero;stroke:none"
             id="path4674"
             inkscape:connector-curvature="0" /><path
             d="m 233.551,386.219 v 203.75 c 0,21.992 17.859,39.84 39.847,39.84 H 1611.05 c 22,0 39.85,-17.848 39.85,-39.84 v -203.75 c 0,-22.028 -17.85,-39.879 -39.85,-39.879 H 273.398 c -21.988,0 -39.847,17.851 -39.847,39.879 z"
             style="fill:none;stroke:#000000;stroke-width:7.97009993;stroke-linecap:butt;stroke-linejoin:miter;stroke-miterlimit:10;stroke-dasharray:none;stroke-opacity:1"
             id="path4676"
             inkscape:connector-curvature="0" /><path
             d="m 945.82,3554.85 -3.59,-274.61"
             style="fill:none;stroke:#000000;stroke-width:15.94040012;stroke-linecap:butt;stroke-linejoin:miter;stroke-miterlimit:10;stroke-dasharray:none;stroke-opacity:1"
             id="path4678"
             inkscape:connector-curvature="0" /><path
             d="m 942.23,3010.95 v -113.4"
             style="fill:none;stroke:#000000;stroke-width:15.94040012;stroke-linecap:butt;stroke-linejoin:miter;stroke-miterlimit:10;stroke-dasharray:none;stroke-opacity:1"
             id="path4680"
             inkscape:connector-curvature="0" /><path
             d="m 942.23,2472.35 v 155.94"
             style="fill:none;stroke:#000000;stroke-width:15.94040012;stroke-linecap:butt;stroke-linejoin:miter;stroke-miterlimit:10;stroke-dasharray:none;stroke-opacity:1"
             id="path4682"
             inkscape:connector-curvature="0" /><path
             d="M 375.27,2472.35 H 1509.18"
             style="fill:none;stroke:#000000;stroke-width:15.94040012;stroke-linecap:butt;stroke-linejoin:miter;stroke-miterlimit:10;stroke-dasharray:none;stroke-opacity:1"
             id="path4684"
             inkscape:connector-curvature="0" /><path
             d="M 375.27,2472.35 V 2330.63"
             style="fill:none;stroke:#000000;stroke-width:15.94040012;stroke-linecap:butt;stroke-linejoin:miter;stroke-miterlimit:10;stroke-dasharray:none;stroke-opacity:1"
             id="path4686"
             inkscape:connector-curvature="0" /><path
             d="M 743.789,2472.35 V 2330.63"
             style="fill:none;stroke:#000000;stroke-width:15.94040012;stroke-linecap:butt;stroke-linejoin:miter;stroke-miterlimit:10;stroke-dasharray:none;stroke-opacity:1"
             id="path4688"
             inkscape:connector-curvature="0" /><path
             d="M 1112.3,2472.35 V 2330.63"
             style="fill:none;stroke:#000000;stroke-width:15.94040012;stroke-linecap:butt;stroke-linejoin:miter;stroke-miterlimit:10;stroke-dasharray:none;stroke-opacity:1"
             id="path4690"
             inkscape:connector-curvature="0" /><path
             d="M 1509.18,2472.35 V 2330.63"
             style="fill:none;stroke:#000000;stroke-width:15.94040012;stroke-linecap:butt;stroke-linejoin:miter;stroke-miterlimit:10;stroke-dasharray:none;stroke-opacity:1"
             id="path4692"
             inkscape:connector-curvature="0" /><path
             d="M 375.27,1338.49 V 1055.01"
             style="fill:none;stroke:#000000;stroke-width:15.94040012;stroke-linecap:butt;stroke-linejoin:miter;stroke-miterlimit:10;stroke-dasharray:none;stroke-opacity:1"
             id="path4694"
             inkscape:connector-curvature="0" /><path
             d="M 743.789,1338.49 V 1055.01"
             style="fill:none;stroke:#000000;stroke-width:15.94040012;stroke-linecap:butt;stroke-linejoin:miter;stroke-miterlimit:10;stroke-dasharray:none;stroke-opacity:1"
             id="path4696"
             inkscape:connector-curvature="0" /><path
             d="M 1112.3,1338.49 V 1055.01"
             style="fill:none;stroke:#000000;stroke-width:15.94040012;stroke-linecap:butt;stroke-linejoin:miter;stroke-miterlimit:10;stroke-dasharray:none;stroke-opacity:1"
             id="path4698"
             inkscape:connector-curvature="0" /><path
             d="M 1509.18,1338.49 V 1055.01"
             style="fill:none;stroke:#000000;stroke-width:15.94040012;stroke-linecap:butt;stroke-linejoin:miter;stroke-miterlimit:10;stroke-dasharray:none;stroke-opacity:1"
             id="path4700"
             inkscape:connector-curvature="0" /><path
             d="M 942.23,771.57 V 629.809"
             style="fill:none;stroke:#000000;stroke-width:15.94040012;stroke-linecap:butt;stroke-linejoin:miter;stroke-miterlimit:10;stroke-dasharray:none;stroke-opacity:1"
             id="path4702"
             inkscape:connector-curvature="0" /><path
             d="M 19.0586,3384.23 H 2853.75"
             style="fill:none;stroke:#000000;stroke-width:3.9849999;stroke-linecap:butt;stroke-linejoin:miter;stroke-miterlimit:10;stroke-dasharray:3.985, 19.9255;stroke-dashoffset:0;stroke-opacity:1"
             id="path4704"
             inkscape:connector-curvature="0" /><path
             d="M 0,2387.08 H 2834.69"
             style="fill:none;stroke:#000000;stroke-width:3.9849999;stroke-linecap:butt;stroke-linejoin:miter;stroke-miterlimit:10;stroke-dasharray:3.985, 19.9255;stroke-dashoffset:0;stroke-opacity:1"
             id="path4706"
             inkscape:connector-curvature="0" /><path
             d="M 4.76953,1138.25 H 2839.45"
             style="fill:none;stroke:#000000;stroke-width:3.9849999;stroke-linecap:butt;stroke-linejoin:miter;stroke-miterlimit:10;stroke-dasharray:3.985, 19.9255;stroke-dashoffset:0;stroke-opacity:1"
             id="path4708"
             inkscape:connector-curvature="0" /><path
             d="m 2068.63,386.219 v 203.75 c 0,21.992 11.57,39.84 25.82,39.84 h 866.6 c 14.26,0 25.83,-17.848 25.83,-39.84 v -203.75 c 0,-22.028 -11.57,-39.879 -25.83,-39.879 h -866.6 c -14.25,0 -25.82,17.851 -25.82,39.879 z"
             style="fill:#bfbfbf;fill-opacity:1;fill-rule:nonzero;stroke:none"
             id="path4710"
             inkscape:connector-curvature="0" /><g
             id="g4712"
             transform="scale(0.786319,1.21368)"><path
               d="m 2630.78,318.224 v 167.878 c 0,18.12 14.7,32.826 32.84,32.826 h 1102.1 c 18.13,0 32.83,-14.706 32.83,-32.826 V 318.224 c 0,-18.159 -14.7,-32.864 -32.83,-32.864 h -1102.1 c -18.14,0 -32.84,14.705 -32.84,32.864 z"
               style="fill:none;stroke:#000000;stroke-width:6.56688023;stroke-linecap:butt;stroke-linejoin:miter;stroke-miterlimit:10;stroke-dasharray:none;stroke-opacity:1"
               id="path4714"
               inkscape:connector-curvature="0" /></g><path
             d="m 2067.77,493.445 -369.25,-1.293"
             style="fill:none;stroke:#000000;stroke-width:16;stroke-linecap:butt;stroke-linejoin:miter;stroke-miterlimit:4;stroke-dasharray:none;stroke-opacity:1"
             id="path4716"
             inkscape:connector-curvature="0" /><path
             d="m 1661.6,492.039 55.24,32.191 0.23,-63.992 z"
             style="fill:#000000;fill-opacity:1;fill-rule:evenodd;stroke:none"
             id="path4718"
             inkscape:connector-curvature="0" /><path
             d="m 1661.61,492.047 55.22,32.18 0.24,-63.981 z"
             style="fill:none;stroke:#000000;stroke-width:8;stroke-linecap:butt;stroke-linejoin:miter;stroke-miterlimit:4;stroke-dasharray:none;stroke-opacity:1"
             id="path4720"
             inkscape:connector-curvature="0" /><g
             id="g4722"
             transform="scale(10)"><text
               transform="matrix(1,0,0,-1,82.0332,43.8266)"
               style="font-variant:normal;font-weight:normal;font-size:12.80000019px;font-family:'Bitstream Vera Sans';-inkscape-font-specification:BitstreamVeraSans-Roman;writing-mode:lr-tb;fill:#000000;fill-opacity:1;fill-rule:nonzero;stroke:none"
               id="text4728"><tspan
                 x="0 9.6255312 18.150261"
                 y="0"
                 sodipodi:role="line"
                 id="tspan4724">DAC</tspan><tspan
                 x="-18.792999 -13.135477 -5.3147674 -1.2314768 9.8149233 17.648523 25.776613 29.322123 34.352615 42.173325"
                 y="42.645302"
                 sodipodi:role="line"
                 id="tspan4726">To Monitor</tspan></text>
</g><path
             d="M 954.059,351.535 V 178.055"
             style="fill:none;stroke:#000000;stroke-width:16;stroke-linecap:butt;stroke-linejoin:miter;stroke-miterlimit:4;stroke-dasharray:none;stroke-opacity:1"
             id="path4730"
             inkscape:connector-curvature="0" /><path
             d="m 954.059,141.141 -32.028,55.347 h 64.02 z"
             style="fill:#000000;fill-opacity:1;fill-rule:evenodd;stroke:none"
             id="path4732"
             inkscape:connector-curvature="0" /><path
             d="m 954.059,141.145 -32.028,55.347 h 64.02 z"
             style="fill:none;stroke:#000000;stroke-width:8;stroke-linecap:butt;stroke-linejoin:miter;stroke-miterlimit:4;stroke-dasharray:none;stroke-opacity:1"
             id="path4734"
             inkscape:connector-curvature="0" /><g
             id="g4736"
             transform="scale(10)"><text
               transform="scale(1,-1)"
               style="font-variant:normal;font-weight:normal;font-size:12.80000019px;font-family:'Bitstream Vera Sans';-inkscape-font-specification:BitstreamVeraSans-Roman;writing-mode:lr-tb;fill:#000000;fill-opacity:1;fill-rule:nonzero;stroke:none"
               id="text4742"
               x="264.42896"
               y="-43.40612"><tspan
                 sodipodi:role="line"
                 id="tspan4738"
                 x="264.42896"
                 y="-32.08112" /><tspan
                 x="79.030975 87.978256 95.952774 103.03101 111.97829"
                 y="-87.135818"
                 sodipodi:role="line"
                 id="tspan4740">CRTC </tspan></text>
<text
               transform="matrix(0.91144,0,0,-1,136.412,178.609)"
               style="font-variant:normal;font-weight:normal;font-size:11.3991003px;font-family:'Bitstream Vera Sans';-inkscape-font-specification:BitstreamVeraSans-Roman;writing-mode:lr-tb;fill:#000000;fill-opacity:1;fill-rule:nonzero;stroke:none"
               id="text4746"><tspan
                 x="0 7.2498274 14.5112 21.12261"
                 y="0"
                 sodipodi:role="line"
                 id="tspan4744">64kB</tspan></text>
<text
               transform="matrix(1,0,0,-1,30.7145,271.147)"
               style="font-variant:normal;font-weight:normal;font-size:12.80000019px;font-family:'Bitstream Vera Sans';-inkscape-font-specification:BitstreamVeraSans-Roman;writing-mode:lr-tb;fill:#000000;fill-opacity:1;fill-rule:nonzero;stroke:none"
               id="text4752"><tspan
                 x="0 8.1280003 16 24.128 32.256092 40.12809 48.25618 55.309071 63.181072 67.251472 76.198761 84.032364 92.160454 97.178055 102.18299 110.0037 113.5621 117.10761 124.97961"
                 y="0"
                 sodipodi:role="line"
                 id="tspan4748">Sequence Controller</tspan><tspan
                 x="7.5894499 17.509451 22.78314 30.642431 38.770432 46.898521 50.444031 57.496922 61.580212 70.527504 78.348213 86.476303 91.50679 96.49884 104.33244 107.87795 111.43636 119.30835"
                 y="-39.754299"
                 sodipodi:role="line"
                 id="tspan4750">Graphic Controller</tspan></text>
<text
               transform="matrix(0.91144,0,0,-1,97.7418,178.248)"
               style="font-variant:normal;font-weight:normal;font-size:11.3991003px;font-family:'Bitstream Vera Sans';-inkscape-font-specification:BitstreamVeraSans-Roman;writing-mode:lr-tb;fill:#000000;fill-opacity:1;fill-rule:nonzero;stroke:none"
               id="text4758"><tspan
                 x="0 7.2498274 14.5112 21.12261 -39.651798 -32.401974 -25.140606 -18.529198"
                 y="0"
                 sodipodi:role="line"
                 id="tspan4754">64kB64kB</tspan><tspan
                 x="-80.889297 -73.639473 -66.378105 -59.766693"
                 y="-0.72265601"
                 sodipodi:role="line"
                 id="tspan4756">64kB</tspan></text>
<text
               transform="matrix(1,0,0,-1,69.3844,358.606)"
               style="font-variant:normal;font-weight:normal;font-size:12.80000019px;font-family:'Bitstream Vera Sans';-inkscape-font-specification:BitstreamVeraSans-Roman;writing-mode:lr-tb;fill:#000000;fill-opacity:1;fill-rule:nonzero;stroke:none"
               id="text4762"><tspan
                 x="0 8.7807999 16.896 23.57769 27.64809 32.678581 40.49929 44.582581 53.529873 61.248272"
                 y="0"
                 sodipodi:role="line"
                 id="tspan4760">Bus to CPU</tspan></text>
</g></g></g></g><text
       style="font-variant:normal;font-weight:normal;font-size:12.79999924px;font-family:'Bitstream Vera Sans';-inkscape-font-specification:BitstreamVeraSans-Roman;writing-mode:lr-tb;fill:#000000;fill-opacity:1;fill-rule:nonzero;stroke:none;stroke-width:0.99999994"
       id="text4742-7"
       x="232.24088"
       y="-71.614128"
       transform="scale(1,-1)"><tspan
         style="stroke-width:0.99999994"
         sodipodi:role="line"
         id="tspan4738-9"
         x="232.24088"
         y="-60.289131" /><tspan
         style="stroke-width:0.99999994"
         x="232.24088"
         sodipodi:role="line"
         id="tspan4740-3"
         y="-44.289131">Palette</tspan></text>
</g></svg>