<?xml version="1.0" encoding="UTF-8" standalone="no"?>
<!-- Created with Inkscape (http://www.inkscape.org/) -->

<svg
   xmlns:dc="http://purl.org/dc/elements/1.1/"
   xmlns:cc="http://creativecommons.org/ns#"
   xmlns:rdf="http://www.w3.org/1999/02/22-rdf-syntax-ns#"
   xmlns:svg="http://www.w3.org/2000/svg"
   xmlns="http://www.w3.org/2000/svg"
   xmlns:sodipodi="http://sodipodi.sourceforge.net/DTD/sodipodi-0.dtd"
   xmlns:inkscape="http://www.inkscape.org/namespaces/inkscape"
   version="1.1"
   id="svg4624"
   xml:space="preserve"
   width="398.66666"
   height="492"
   viewBox="0 0 398.66666 492"
   sodipodi:docname="vga.svg"
   inkscape:version="0.91 r13725"><metadata
     id="metadata4630"><rdf:RDF><cc:Work
         rdf:about=""><dc:format>image/svg+xml</dc:format><dc:type
           rdf:resource="http://purl.org/dc/dcmitype/StillImage" /><dc:title /></cc:Work></rdf:RDF></metadata><defs
     id="defs4628"><clipPath
       clipPathUnits="userSpaceOnUse"
       id="clipPath4642"><path
         d="M 0,1.05859 H 2990 V 3681.0586 H 0 Z"
         id="path4640"
         inkscape:connector-curvature="0" /></clipPath></defs><sodipodi:namedview
     pagecolor="#ffffff"
     bordercolor="#666666"
     borderopacity="1"
     objecttolerance="10"
     gridtolerance="10"
     guidetolerance="10"
     inkscape:pageopacity="0"
     inkscape:pageshadow="2"
     inkscape:window-width="1381"
     inkscape:window-height="856"
     id="namedview4626"
     showgrid="false"
     inkscape:zoom="1.9186992"
     inkscape:cx="194.52695"
     inkscape:cy="138.08141"
     inkscape:window-x="0"
     inkscape:window-y="0"
     inkscape:window-maximized="0"
     inkscape:current-layer="g4632" /><g
     id="g4632"
     inkscape:groupmode="layer"
     inkscape:label="ink_ext_XXXXXX"
     transform="matrix(1.3333333,0,0,-1.3333333,0,492)"><path
       inkscape:connector-curvature="0"
       id="path4644"
       style="fill:none;stroke:#000000;stroke-width:1.59404004;stroke-linecap:butt;stroke-linejoin:miter;stroke-miterlimit:10;stroke-dasharray:none;stroke-opacity:1"
       d="m 22.2699,355.845 141.7341,0" /><path
       inkscape:connector-curvature="0"
       id="path4646"
       style="fill:#bfbfbf;fill-opacity:1;fill-rule:nonzero;stroke:none"
       d="m 23.3551,324.04 0,-18.961 c 0,-2.199 1.7859,-3.984 3.9847,-3.984 l 133.7652,0 c 2.2,0 3.985,1.785 3.985,3.984 l 0,18.961 c 0,2.199 -1.785,3.984 -3.985,3.984 l -133.7652,0 c -2.1988,0 -3.9847,-1.785 -3.9847,-3.984 z" /><path
       inkscape:connector-curvature="0"
       id="path4648"
       style="fill:none;stroke:#000000;stroke-width:0.79701;stroke-linecap:butt;stroke-linejoin:miter;stroke-miterlimit:10;stroke-dasharray:none;stroke-opacity:1"
       d="m 23.3551,324.04 0,-18.961 c 0,-2.199 1.7859,-3.984 3.9847,-3.984 l 133.7652,0 c 2.2,0 3.985,1.785 3.985,3.984 l 0,18.961 c 0,2.199 -1.785,3.984 -3.985,3.984 l -133.7652,0 c -2.1988,0 -3.9847,-1.785 -3.9847,-3.984 z" /><path
       inkscape:connector-curvature="0"
       id="path4650"
       style="fill:#bfbfbf;fill-opacity:1;fill-rule:nonzero;stroke:none"
       d="m 23.3551,285.77 0,-18.957 c 0,-2.203 1.7859,-3.984 3.9847,-3.984 l 133.7652,0 c 2.2,0 3.985,1.781 3.985,3.984 l 0,18.957 c 0,2.204 -1.785,3.985 -3.985,3.985 l -133.7652,0 c -2.1988,0 -3.9847,-1.781 -3.9847,-3.985 z" /><path
       inkscape:connector-curvature="0"
       id="path4652"
       style="fill:none;stroke:#000000;stroke-width:0.79701;stroke-linecap:butt;stroke-linejoin:miter;stroke-miterlimit:10;stroke-dasharray:none;stroke-opacity:1"
       d="m 23.3551,285.77 0,-18.957 c 0,-2.203 1.7859,-3.984 3.9847,-3.984 l 133.7652,0 c 2.2,0 3.985,1.781 3.985,3.984 l 0,18.957 c 0,2.204 -1.785,3.985 -3.985,3.985 l -133.7652,0 c -2.1988,0 -3.9847,-1.781 -3.9847,-3.985 z" /><path
       inkscape:connector-curvature="0"
       id="path4654"
       style="fill:#bfbfbf;fill-opacity:1;fill-rule:nonzero;stroke:none"
       d="m 23.3551,133.849 28.348,0 0,99.2141 -28.348,0 z" /><path
       inkscape:connector-curvature="0"
       id="path4656"
       style="fill:none;stroke:#000000;stroke-width:0.79701;stroke-linecap:butt;stroke-linejoin:miter;stroke-miterlimit:10;stroke-dasharray:none;stroke-opacity:1"
       d="m 23.3551,133.849 28.348,0 0,99.2141 -28.348,0 z" /><path
       inkscape:connector-curvature="0"
       id="path4658"
       style="fill:#bfbfbf;fill-opacity:1;fill-rule:nonzero;stroke:none"
       d="m 60.207,133.849 28.348,0 0,99.2141 -28.348,0 z" /><path
       inkscape:connector-curvature="0"
       id="path4660"
       style="fill:none;stroke:#000000;stroke-width:0.79701;stroke-linecap:butt;stroke-linejoin:miter;stroke-miterlimit:10;stroke-dasharray:none;stroke-opacity:1"
       d="m 60.207,133.849 28.348,0 0,99.2141 -28.348,0 z" /><path
       inkscape:connector-curvature="0"
       id="path4662"
       style="fill:#bfbfbf;fill-opacity:1;fill-rule:nonzero;stroke:none"
       d="m 97.059,133.849 28.343,0 0,99.2141 -28.343,0 z" /><path
       inkscape:connector-curvature="0"
       id="path4664"
       style="fill:none;stroke:#000000;stroke-width:0.79701;stroke-linecap:butt;stroke-linejoin:miter;stroke-miterlimit:10;stroke-dasharray:none;stroke-opacity:1"
       d="m 97.059,133.849 28.343,0 0,99.2141 -28.343,0 z" /><path
       inkscape:connector-curvature="0"
       id="path4666"
       style="fill:#bfbfbf;fill-opacity:1;fill-rule:nonzero;stroke:none"
       d="m 133.906,133.849 31.184,0 0,99.2141 -31.184,0 z" /><path
       inkscape:connector-curvature="0"
       id="path4668"
       style="fill:none;stroke:#000000;stroke-width:0.79701;stroke-linecap:butt;stroke-linejoin:miter;stroke-miterlimit:10;stroke-dasharray:none;stroke-opacity:1"
       d="m 133.906,133.849 31.184,0 0,99.2141 -31.184,0 z" /><path
       inkscape:connector-curvature="0"
       id="path4670"
       style="fill:#bfbfbf;fill-opacity:1;fill-rule:nonzero;stroke:none"
       d="m 23.3551,101.517 0,-20.3748 c 0,-2.2043 1.7859,-3.9852 3.9847,-3.9852 l 133.7652,0 c 2.2,0 3.985,1.7809 3.985,3.9852 l 0,20.3748 c 0,2.203 -1.785,3.984 -3.985,3.984 l -133.7652,0 c -2.1988,0 -3.9847,-1.781 -3.9847,-3.984 z" /><path
       inkscape:connector-curvature="0"
       id="path4672"
       style="fill:none;stroke:#000000;stroke-width:0.79701;stroke-linecap:butt;stroke-linejoin:miter;stroke-miterlimit:10;stroke-dasharray:none;stroke-opacity:1"
       d="m 23.3551,101.517 0,-20.3748 c 0,-2.2043 1.7859,-3.9852 3.9847,-3.9852 l 133.7652,0 c 2.2,0 3.985,1.7809 3.985,3.9852 l 0,20.3748 c 0,2.203 -1.785,3.984 -3.985,3.984 l -133.7652,0 c -2.1988,0 -3.9847,-1.781 -3.9847,-3.984 z" /><path
       inkscape:connector-curvature="0"
       id="path4674"
       style="fill:#bfbfbf;fill-opacity:1;fill-rule:nonzero;stroke:none"
       d="m 23.3551,38.6219 0,20.375 c 0,2.1992 1.7859,3.984 3.9847,3.984 l 133.7652,0 c 2.2,0 3.985,-1.7848 3.985,-3.984 l 0,-20.375 c 0,-2.2028 -1.785,-3.9879 -3.985,-3.9879 l -133.7652,0 c -2.1988,0 -3.9847,1.7851 -3.9847,3.9879 z" /><path
       inkscape:connector-curvature="0"
       id="path4676"
       style="fill:none;stroke:#000000;stroke-width:0.79701;stroke-linecap:butt;stroke-linejoin:miter;stroke-miterlimit:10;stroke-dasharray:none;stroke-opacity:1"
       d="m 23.3551,38.6219 0,20.375 c 0,2.1992 1.7859,3.984 3.9847,3.984 l 133.7652,0 c 2.2,0 3.985,-1.7848 3.985,-3.984 l 0,-20.375 c 0,-2.2028 -1.785,-3.9879 -3.985,-3.9879 l -133.7652,0 c -2.1988,0 -3.9847,1.7851 -3.9847,3.9879 z" /><path
       inkscape:connector-curvature="0"
       id="path4678"
       style="fill:none;stroke:#000000;stroke-width:1.59404004;stroke-linecap:butt;stroke-linejoin:miter;stroke-miterlimit:10;stroke-dasharray:none;stroke-opacity:1"
       d="M 94.582,355.485 94.223,328.024" /><path
       inkscape:connector-curvature="0"
       id="path4680"
       style="fill:none;stroke:#000000;stroke-width:1.59404004;stroke-linecap:butt;stroke-linejoin:miter;stroke-miterlimit:10;stroke-dasharray:none;stroke-opacity:1"
       d="m 94.223,301.095 0,-11.34" /><path
       inkscape:connector-curvature="0"
       id="path4682"
       style="fill:none;stroke:#000000;stroke-width:1.59404004;stroke-linecap:butt;stroke-linejoin:miter;stroke-miterlimit:10;stroke-dasharray:none;stroke-opacity:1"
       d="m 94.223,247.235 0,15.594" /><path
       inkscape:connector-curvature="0"
       id="path4684"
       style="fill:none;stroke:#000000;stroke-width:1.59404004;stroke-linecap:butt;stroke-linejoin:miter;stroke-miterlimit:10;stroke-dasharray:none;stroke-opacity:1"
       d="m 37.527,247.235 113.391,0" /><path
       inkscape:connector-curvature="0"
       id="path4686"
       style="fill:none;stroke:#000000;stroke-width:1.59404004;stroke-linecap:butt;stroke-linejoin:miter;stroke-miterlimit:10;stroke-dasharray:none;stroke-opacity:1"
       d="m 37.527,247.235 0,-14.172" /><path
       inkscape:connector-curvature="0"
       id="path4688"
       style="fill:none;stroke:#000000;stroke-width:1.59404004;stroke-linecap:butt;stroke-linejoin:miter;stroke-miterlimit:10;stroke-dasharray:none;stroke-opacity:1"
       d="m 74.3789,247.235 0,-14.172" /><path
       inkscape:connector-curvature="0"
       id="path4690"
       style="fill:none;stroke:#000000;stroke-width:1.59404004;stroke-linecap:butt;stroke-linejoin:miter;stroke-miterlimit:10;stroke-dasharray:none;stroke-opacity:1"
       d="m 111.23,247.235 0,-14.172" /><path
       inkscape:connector-curvature="0"
       id="path4692"
       style="fill:none;stroke:#000000;stroke-width:1.59404004;stroke-linecap:butt;stroke-linejoin:miter;stroke-miterlimit:10;stroke-dasharray:none;stroke-opacity:1"
       d="m 150.918,247.235 0,-14.172" /><path
       inkscape:connector-curvature="0"
       id="path4694"
       style="fill:none;stroke:#000000;stroke-width:1.59404004;stroke-linecap:butt;stroke-linejoin:miter;stroke-miterlimit:10;stroke-dasharray:none;stroke-opacity:1"
       d="m 37.527,133.849 0,-28.348" /><path
       inkscape:connector-curvature="0"
       id="path4696"
       style="fill:none;stroke:#000000;stroke-width:1.59404004;stroke-linecap:butt;stroke-linejoin:miter;stroke-miterlimit:10;stroke-dasharray:none;stroke-opacity:1"
       d="m 74.3789,133.849 0,-28.348" /><path
       inkscape:connector-curvature="0"
       id="path4698"
       style="fill:none;stroke:#000000;stroke-width:1.59404004;stroke-linecap:butt;stroke-linejoin:miter;stroke-miterlimit:10;stroke-dasharray:none;stroke-opacity:1"
       d="m 111.23,133.849 0,-28.348" /><path
       inkscape:connector-curvature="0"
       id="path4700"
       style="fill:none;stroke:#000000;stroke-width:1.59404004;stroke-linecap:butt;stroke-linejoin:miter;stroke-miterlimit:10;stroke-dasharray:none;stroke-opacity:1"
       d="m 150.918,133.849 0,-28.348" /><path
       inkscape:connector-curvature="0"
       id="path4702"
       style="fill:none;stroke:#000000;stroke-width:1.59404004;stroke-linecap:butt;stroke-linejoin:miter;stroke-miterlimit:10;stroke-dasharray:none;stroke-opacity:1"
       d="m 94.223,77.157 0,-14.1761" /><path
       inkscape:connector-curvature="0"
       id="path4704"
       style="fill:none;stroke:#000000;stroke-width:0.3985;stroke-linecap:butt;stroke-linejoin:miter;stroke-miterlimit:10;stroke-dasharray:0.3985, 1.99255;stroke-dashoffset:0;stroke-opacity:1"
       d="m 1.90586,338.423 283.46914,0" /><path
       inkscape:connector-curvature="0"
       id="path4706"
       style="fill:none;stroke:#000000;stroke-width:0.3985;stroke-linecap:butt;stroke-linejoin:miter;stroke-miterlimit:10;stroke-dasharray:0.3985, 1.99255;stroke-dashoffset:0;stroke-opacity:1"
       d="m 0,238.708 283.469,0" /><path
       inkscape:connector-curvature="0"
       id="path4708"
       style="fill:none;stroke:#000000;stroke-width:0.3985;stroke-linecap:butt;stroke-linejoin:miter;stroke-miterlimit:10;stroke-dasharray:0.3985, 1.99255;stroke-dashoffset:0;stroke-opacity:1"
       d="m 0.476953,113.825 283.468047,0" /><path
       inkscape:connector-curvature="0"
       id="path4710"
       style="fill:#bfbfbf;fill-opacity:1;fill-rule:nonzero;stroke:none"
       d="m 206.86272,38.621863 0,20.375 c 0,2.1992 1.157,3.984 2.582,3.984 l 86.66,0 c 1.426,0 2.583,-1.7848 2.583,-3.984 l 0,-20.375 c 0,-2.2028 -1.157,-3.9879 -2.583,-3.9879 l -86.66,0 c -1.425,0 -2.582,1.7851 -2.582,3.9879 z" /><g
       transform="scale(0.0786319,0.121368)"
       id="g4712"><path
         inkscape:connector-curvature="0"
         id="path4714"
         style="fill:none;stroke:#000000;stroke-width:6.56688023;stroke-linecap:butt;stroke-linejoin:miter;stroke-miterlimit:10;stroke-dasharray:none;stroke-opacity:1"
         d="m 2630.78,318.224 0,167.878 c 0,18.12 14.7,32.826 32.84,32.826 l 1102.1,0 c 18.13,0 32.83,-14.706 32.83,-32.826 l 0,-167.878 c 0,-18.159 -14.7,-32.864 -32.83,-32.864 l -1102.1,0 c -18.14,0 -32.84,14.705 -32.84,32.864 z" /></g><path
       inkscape:connector-curvature="0"
       id="path4716"
       style="fill:none;stroke:#000000;stroke-width:1.60000002;stroke-linecap:butt;stroke-linejoin:miter;stroke-miterlimit:4;stroke-dasharray:none;stroke-opacity:1"
       d="M 206.777,49.3445 169.852,49.2152" /><path
       inkscape:connector-curvature="0"
       id="path4718"
       style="fill:#000000;fill-opacity:1;fill-rule:evenodd;stroke:none"
       d="m 166.16,49.2039 5.524,3.2191 0.023,-6.3992 z" /><path
       inkscape:connector-curvature="0"
       id="path4720"
       style="fill:none;stroke:#000000;stroke-width:0.80000001;stroke-linecap:butt;stroke-linejoin:miter;stroke-miterlimit:4;stroke-dasharray:none;stroke-opacity:1"
       d="m 166.161,49.2047 5.522,3.218 0.024,-6.3981 z" /><g
       id="g4722"><text
         id="text4728"
         style="font-variant:normal;font-weight:normal;font-size:12.80000019px;font-family:'Bitstream Vera Sans';-inkscape-font-specification:BitstreamVeraSans-Roman;writing-mode:lr-tb;fill:#000000;fill-opacity:1;fill-rule:nonzero;stroke:none"
         transform="matrix(1,0,0,-1,82.0332,43.8266)"><tspan
           id="tspan4724"
           sodipodi:role="line"
           y="0"
           x="0 9.6255312 18.150261">DAC</tspan><tspan
           id="tspan4726"
           sodipodi:role="line"
           y="42.645302"
           x="-18.792999 -13.135477 -5.3147674 -1.2314768 9.8149233 17.648523 25.776613 29.322123 34.352615 42.173325">To Monitor</tspan></text>
</g><path
       inkscape:connector-curvature="0"
       id="path4730"
       style="fill:none;stroke:#000000;stroke-width:1.60000002;stroke-linecap:butt;stroke-linejoin:miter;stroke-miterlimit:4;stroke-dasharray:none;stroke-opacity:1"
       d="m 95.4059,35.1535 0,-17.348" /><path
       inkscape:connector-curvature="0"
       id="path4732"
       style="fill:#000000;fill-opacity:1;fill-rule:evenodd;stroke:none"
       d="m 95.4059,14.1141 -3.2028,5.5347 6.402,0 z" /><path
       inkscape:connector-curvature="0"
       id="path4734"
       style="fill:none;stroke:#000000;stroke-width:0.80000001;stroke-linecap:butt;stroke-linejoin:miter;stroke-miterlimit:4;stroke-dasharray:none;stroke-opacity:1"
       d="m 95.4059,14.1145 -3.2028,5.5347 6.402,0 z" /><g
       id="g4736"><text
         y="-43.40612"
         x="264.42896"
         id="text4742"
         style="font-variant:normal;font-weight:normal;font-size:12.80000019px;font-family:'Bitstream Vera Sans';-inkscape-font-specification:BitstreamVeraSans-Roman;writing-mode:lr-tb;fill:#000000;fill-opacity:1;fill-rule:nonzero;stroke:none"
         transform="scale(1,-1)"><tspan
           y="-43.40612"
           x="264.42896"
           id="tspan4738"
           sodipodi:role="line" /><tspan
           id="tspan4740"
           sodipodi:role="line"
           y="-87.135818"
           x="79.030975 87.978256 95.952774 103.03101 111.97829">CRTC </tspan></text>
<text
         id="text4746"
         style="font-variant:normal;font-weight:normal;font-size:11.3991003px;font-family:'Bitstream Vera Sans';-inkscape-font-specification:BitstreamVeraSans-Roman;writing-mode:lr-tb;fill:#000000;fill-opacity:1;fill-rule:nonzero;stroke:none"
         transform="matrix(0.91144,0,0,-1,136.412,178.609)"><tspan
           id="tspan4744"
           sodipodi:role="line"
           y="0"
           x="0 7.2498274 14.5112 21.12261">64kB</tspan></text>
<text
         id="text4752"
         style="font-variant:normal;font-weight:normal;font-size:12.80000019px;font-family:'Bitstream Vera Sans';-inkscape-font-specification:BitstreamVeraSans-Roman;writing-mode:lr-tb;fill:#000000;fill-opacity:1;fill-rule:nonzero;stroke:none"
         transform="matrix(1,0,0,-1,30.7145,271.147)"><tspan
           id="tspan4748"
           sodipodi:role="line"
           y="0"
           x="0 8.1280003 16 24.128 32.256092 40.12809 48.25618 55.309071 63.181072 67.251472 76.198761 84.032364 92.160454 97.178055 102.18299 110.0037 113.5621 117.10761 124.97961">Sequence Controller</tspan><tspan
           id="tspan4750"
           sodipodi:role="line"
           y="-39.754299"
           x="7.5894499 17.509451 22.78314 30.642431 38.770432 46.898521 50.444031 57.496922 61.580212 70.527504 78.348213 86.476303 91.50679 96.49884 104.33244 107.87795 111.43636 119.30835">Graphic Controller</tspan></text>
<text
         id="text4758"
         style="font-variant:normal;font-weight:normal;font-size:11.3991003px;font-family:'Bitstream Vera Sans';-inkscape-font-specification:BitstreamVeraSans-Roman;writing-mode:lr-tb;fill:#000000;fill-opacity:1;fill-rule:nonzero;stroke:none"
         transform="matrix(0.91144,0,0,-1,97.7418,178.248)"><tspan
           id="tspan4754"
           sodipodi:role="line"
           y="0"
           x="0 7.2498274 14.5112 21.12261 -39.651798 -32.401974 -25.140606 -18.529198">64kB64kB</tspan><tspan
           id="tspan4756"
           sodipodi:role="line"
           y="-0.72265601"
           x="-80.889297 -73.639473 -66.378105 -59.766693">64kB</tspan></text>
<text
         id="text4762"
         style="font-variant:normal;font-weight:normal;font-size:12.80000019px;font-family:'Bitstream Vera Sans';-inkscape-font-specification:BitstreamVeraSans-Roman;writing-mode:lr-tb;fill:#000000;fill-opacity:1;fill-rule:nonzero;stroke:none"
         transform="matrix(1,0,0,-1,69.3844,358.606)"><tspan
           id="tspan4760"
           sodipodi:role="line"
           y="0"
           x="0 8.7807999 16.896 23.57769 27.64809 32.678581 40.49929 44.582581 53.529873 61.248272">Bus to CPU</tspan></text>
</g><text
       style="font-variant:normal;font-weight:normal;font-size:12.79999924px;font-family:'Bitstream Vera Sans';-inkscape-font-specification:BitstreamVeraSans-Roman;writing-mode:lr-tb;fill:#000000;fill-opacity:1;fill-rule:nonzero;stroke:none;stroke-width:0.99999994"
       id="text4742-7"
       x="230.30022"
       y="-60.035538"
       transform="scale(1,-1)"><tspan
         style="stroke-width:0.99999994"
         sodipodi:role="line"
         id="tspan4738-9"
         x="230.30022"
         y="-60.035538" /><tspan
         style="stroke-width:0.99999994"
         x="230.30022"
         sodipodi:role="line"
         id="tspan4740-3"
         y="-44.035538">Palette</tspan></text>
</g></svg>