<?xml version="1.0" encoding="UTF-8" standalone="no"?>
<!-- Created with Inkscape (http://www.inkscape.org/) -->

<svg
   xmlns:dc="http://purl.org/dc/elements/1.1/"
   xmlns:cc="http://creativecommons.org/ns#"
   xmlns:rdf="http://www.w3.org/1999/02/22-rdf-syntax-ns#"
   xmlns:svg="http://www.w3.org/2000/svg"
   xmlns="http://www.w3.org/2000/svg"
   xmlns:sodipodi="http://sodipodi.sourceforge.net/DTD/sodipodi-0.dtd"
   xmlns:inkscape="http://www.inkscape.org/namespaces/inkscape"
   version="1.1"
   id="svg2"
   xml:space="preserve"
   width="810.66669"
   height="1106.6667"
   viewBox="0 0 810.66669 1106.6667"
   sodipodi:docname="vga_ram_screen_layout.svg"
   inkscape:version="0.92.2 5c3e80d, 2017-08-06"><metadata
     id="metadata8"><rdf:RDF><cc:Work
         rdf:about=""><dc:format>image/svg+xml</dc:format><dc:type
           rdf:resource="http://purl.org/dc/dcmitype/StillImage" /><dc:title></dc:title></cc:Work></rdf:RDF></metadata><defs
     id="defs6" /><sodipodi:namedview
     pagecolor="#ffffff"
     bordercolor="#666666"
     borderopacity="1"
     objecttolerance="10"
     gridtolerance="10"
     guidetolerance="10"
     inkscape:pageopacity="0"
     inkscape:pageshadow="2"
     inkscape:window-width="740"
     inkscape:window-height="480"
     id="namedview4"
     showgrid="false"
     inkscape:zoom="0.213253"
     inkscape:cx="405.33334"
     inkscape:cy="553.33337"
     inkscape:window-x="0"
     inkscape:window-y="0"
     inkscape:window-maximized="0"
     inkscape:current-layer="g10" /><g
     id="g10"
     inkscape:groupmode="layer"
     inkscape:label="ink_ext_XXXXXX"
     transform="matrix(1.3333333,0,0,-1.3333333,0,1106.6667)"><g
       id="g12"
       transform="scale(0.1)"><path
         d="M 100.781,7611.29 H 1188.79 c 53.16,0 96.01,-20.78 96.01,-46.6 V 4737.66 c 0,-25.82 -42.85,-46.61 -96.01,-46.61 H 100.781 c -53.1599,0 -95.98022,20.79 -95.98022,46.61 v 2827.03 c 0,25.82 42.82032,46.6 95.98022,46.6 z"
         style="fill:#f0f0f0;fill-opacity:1;fill-rule:nonzero;stroke:none"
         id="path14"
         inkscape:connector-curvature="0" /><path
         d="M 100.781,7611.33 H 1188.79 c 53.16,0 96.01,-20.78 96.01,-46.64 V 4737.66 c 0,-25.82 -42.85,-46.61 -96.01,-46.61 H 100.781 c -53.1599,0 -95.98022,20.79 -95.98022,46.61 v 2827.03 c 0,25.86 42.82032,46.64 95.98022,46.64 z"
         style="fill:none;stroke:#000000;stroke-width:7.23976994;stroke-linecap:butt;stroke-linejoin:miter;stroke-miterlimit:4;stroke-dasharray:7.23977, 7.23977;stroke-dashoffset:0;stroke-opacity:1"
         id="path16"
         inkscape:connector-curvature="0" /><path
         d="M 1632.23,7592.54 H 2720.2 c 53.2,0 96.01,-20.78 96.01,-46.56 V 4718.91 c 0,-25.79 -42.81,-46.57 -96.01,-46.57 H 1632.23 c -53.21,0 -96.02,20.78 -96.02,46.57 v 2827.07 c 0,25.78 42.81,46.56 96.02,46.56 z"
         style="fill:#f0f0f0;fill-opacity:1;fill-rule:nonzero;stroke:none"
         id="path18"
         inkscape:connector-curvature="0" /><path
         d="M 1632.23,7592.58 H 2720.2 c 53.2,0 96.01,-20.82 96.01,-46.6 V 4718.91 c 0,-25.79 -42.81,-46.57 -96.01,-46.57 H 1632.23 c -53.21,0 -96.02,20.78 -96.02,46.57 v 2827.07 c 0,25.78 42.81,46.6 96.02,46.6 z"
         style="fill:none;stroke:#000000;stroke-width:7.23976994;stroke-linecap:butt;stroke-linejoin:miter;stroke-miterlimit:4;stroke-dasharray:7.23977, 7.23977;stroke-dashoffset:0;stroke-opacity:1"
         id="path20"
         inkscape:connector-curvature="0" /><path
         d="m 3186.48,7592.54 h 1088.01 c 53.21,0 96.02,-20.78 96.02,-46.56 V 4718.91 c 0,-25.79 -42.81,-46.57 -96.02,-46.57 H 3186.48 c -53.16,0 -95.97,20.78 -95.97,46.57 v 2827.07 c 0,25.78 42.81,46.56 95.97,46.56 z"
         style="fill:#f0f0f0;fill-opacity:1;fill-rule:nonzero;stroke:none"
         id="path22"
         inkscape:connector-curvature="0" /><path
         d="m 3186.48,7592.58 h 1088.01 c 53.21,0 96.02,-20.82 96.02,-46.6 V 4718.91 c 0,-25.79 -42.81,-46.57 -96.02,-46.57 H 3186.48 c -53.16,0 -95.97,20.78 -95.97,46.57 v 2827.07 c 0,25.78 42.81,46.6 95.97,46.6 z"
         style="fill:none;stroke:#000000;stroke-width:7.23976994;stroke-linecap:butt;stroke-linejoin:miter;stroke-miterlimit:4;stroke-dasharray:7.23977, 7.23977;stroke-dashoffset:0;stroke-opacity:1"
         id="path24"
         inkscape:connector-curvature="0" /><path
         d="m 4717.93,7592.54 h 1088.01 c 53.16,0 95.97,-20.78 95.97,-46.56 V 4718.91 c 0,-25.79 -42.81,-46.57 -95.97,-46.57 H 4717.93 c -53.2,0 -96.02,20.78 -96.02,46.57 v 2827.07 c 0,25.78 42.82,46.56 96.02,46.56 z"
         style="fill:#f0f0f0;fill-opacity:1;fill-rule:nonzero;stroke:none"
         id="path26"
         inkscape:connector-curvature="0" /><path
         d="m 4717.93,7592.58 h 1088.01 c 53.16,0 95.97,-20.82 95.97,-46.6 V 4718.91 c 0,-25.79 -42.81,-46.57 -95.97,-46.57 H 4717.93 c -53.2,0 -96.02,20.78 -96.02,46.57 v 2827.07 c 0,25.78 42.82,46.6 96.02,46.6 z"
         style="fill:none;stroke:#000000;stroke-width:7.23976994;stroke-linecap:butt;stroke-linejoin:miter;stroke-miterlimit:4;stroke-dasharray:7.23977, 7.23977;stroke-dashoffset:0;stroke-opacity:1"
         id="path28"
         inkscape:connector-curvature="0" /><path
         d="m 50.5117,622.422 h 6011.41 v 2187.03 H 50.5117 Z"
         style="fill:#f0f0f0;fill-opacity:1;fill-rule:nonzero;stroke:none"
         id="path30"
         inkscape:connector-curvature="0" /><path
         d="m 50.5117,622.422 h 6011.41 v 2187.03 H 50.5117 Z"
         style="fill:none;stroke:#000000;stroke-width:18.91769981;stroke-linecap:butt;stroke-linejoin:miter;stroke-miterlimit:4;stroke-dasharray:none;stroke-opacity:1"
         id="path32"
         inkscape:connector-curvature="0" /><g
         id="g34"
         transform="scale(10)"><text
           transform="matrix(1,0,0,-1,125.279,1.63438)"
           style="font-variant:normal;font-weight:normal;font-size:44.79999924px;font-family:Verdana;-inkscape-font-specification:Verdana;writing-mode:lr-tb;fill:#000000;fill-opacity:1;fill-rule:nonzero;stroke:none"
           id="text40"><tspan
             x="0 29.164907 56.716908 80.057709 108.41611 120.96006 138.61125 152.81285 180.18576 208.54416 222.92508 246.26588 270.99536 288.46753 316.01953 343.61642"
             y="0"
             sodipodi:role="line"
             id="tspan36">Result on screen</tspan><tspan
             x="-38.171501 -7.5282998 27.1917 57.8349 72.125984 110.78848 138.34048 182.06528 209.43817 227.8959 254.4175 268.75351 297.20142 324.6637 353.02209 379.09567"
             y="-793.94299"
             sodipodi:role="line"
             id="tspan38">VGA Memory banks</tspan></text>
</g><path
         d="M 50.5117,2352.34 H 6039.06"
         style="fill:none;stroke:#000000;stroke-width:24;stroke-linecap:butt;stroke-linejoin:miter;stroke-miterlimit:4;stroke-dasharray:none;stroke-opacity:1"
         id="path42"
         inkscape:connector-curvature="0" /><path
         d="M 525.199,2811.95 V 2364.73"
         style="fill:none;stroke:#000000;stroke-width:24;stroke-linecap:butt;stroke-linejoin:miter;stroke-miterlimit:4;stroke-dasharray:none;stroke-opacity:1"
         id="path44"
         inkscape:connector-curvature="0" /><path
         d="M 972.461,2811.95 V 2364.73"
         style="fill:none;stroke:#000000;stroke-width:24;stroke-linecap:butt;stroke-linejoin:miter;stroke-miterlimit:4;stroke-dasharray:none;stroke-opacity:1"
         id="path46"
         inkscape:connector-curvature="0" /><path
         d="M 1430.86,2811.95 V 2364.73"
         style="fill:none;stroke:#000000;stroke-width:24;stroke-linecap:butt;stroke-linejoin:miter;stroke-miterlimit:4;stroke-dasharray:none;stroke-opacity:1"
         id="path48"
         inkscape:connector-curvature="0" /><path
         d="M 1900.47,2811.95 V 2364.73"
         style="fill:none;stroke:#000000;stroke-width:24;stroke-linecap:butt;stroke-linejoin:miter;stroke-miterlimit:4;stroke-dasharray:none;stroke-opacity:1"
         id="path50"
         inkscape:connector-curvature="0" /><path
         d="M 2358.87,2811.95 V 2364.73"
         style="fill:none;stroke:#000000;stroke-width:24;stroke-linecap:butt;stroke-linejoin:miter;stroke-miterlimit:4;stroke-dasharray:none;stroke-opacity:1"
         id="path52"
         inkscape:connector-curvature="0" /><path
         d="M 2798.01,2798.87 V 2351.6"
         style="fill:none;stroke:#000000;stroke-width:24;stroke-linecap:butt;stroke-linejoin:miter;stroke-miterlimit:4;stroke-dasharray:none;stroke-opacity:1"
         id="path54"
         inkscape:connector-curvature="0" /><path
         d="M 3286.88,2800.78 V 2353.52"
         style="fill:none;stroke:#000000;stroke-width:24;stroke-linecap:butt;stroke-linejoin:miter;stroke-miterlimit:4;stroke-dasharray:none;stroke-opacity:1"
         id="path56"
         inkscape:connector-curvature="0" /><path
         d="M 3767.54,2803.87 V 2356.6"
         style="fill:none;stroke:#000000;stroke-width:24;stroke-linecap:butt;stroke-linejoin:miter;stroke-miterlimit:4;stroke-dasharray:none;stroke-opacity:1"
         id="path58"
         inkscape:connector-curvature="0" /><g
         id="g60"
         transform="scale(10)"><text
           transform="matrix(1,0,0,-1,15.45,244.834)"
           style="font-variant:normal;font-weight:normal;font-size:38.40000153px;font-family:Verdana;-inkscape-font-specification:Verdana;writing-mode:lr-tb;fill:#000000;fill-opacity:1;fill-rule:nonzero;stroke:none"
           id="text76"><tspan
             x="0"
             y="0"
             id="tspan62">0</tspan><tspan
             x="49.599998"
             y="0.80000001"
             id="tspan64">1</tspan><tspan
             x="232"
             y="1.6"
             id="tspan66">5</tspan><tspan
             x="94.400002"
             y="0.80000001"
             id="tspan68">2</tspan><tspan
             x="186.39999"
             y="1.6"
             id="tspan70">4</tspan><tspan
             x="139.2 276.7872"
             y="0.80000001"
             sodipodi:role="line"
             id="tspan72">36</tspan><tspan
             x="326.39999"
             y="0"
             id="tspan74">7</tspan></text>
</g><path
         d="M 8.78906,4985.23 H 1280.82"
         style="fill:none;stroke:#000000;stroke-width:8;stroke-linecap:butt;stroke-linejoin:miter;stroke-miterlimit:4;stroke-dasharray:8, 8;stroke-dashoffset:0;stroke-opacity:1"
         id="path78"
         inkscape:connector-curvature="0" /><path
         d="m 1552.81,4993.24 h 1280"
         style="fill:none;stroke:#000000;stroke-width:8;stroke-linecap:butt;stroke-linejoin:miter;stroke-miterlimit:4;stroke-dasharray:8, 8;stroke-dashoffset:0;stroke-opacity:1"
         id="path80"
         inkscape:connector-curvature="0" /><path
         d="m 3082.03,4999.92 h 1280"
         style="fill:none;stroke:#000000;stroke-width:8;stroke-linecap:butt;stroke-linejoin:miter;stroke-miterlimit:4;stroke-dasharray:8, 8;stroke-dashoffset:0;stroke-opacity:1"
         id="path82"
         inkscape:connector-curvature="0" /><path
         d="M 4623.55,5001.17 H 5911.56"
         style="fill:none;stroke:#000000;stroke-width:8;stroke-linecap:butt;stroke-linejoin:miter;stroke-miterlimit:4;stroke-dasharray:8, 8;stroke-dashoffset:0;stroke-opacity:1"
         id="path84"
         inkscape:connector-curvature="0" /><path
         d="M 2946.48,4152.34 V 3390.16"
         style="fill:none;stroke:#000000;stroke-width:61.25930023;stroke-linecap:butt;stroke-linejoin:miter;stroke-miterlimit:4;stroke-dasharray:none;stroke-opacity:1"
         id="path86"
         inkscape:connector-curvature="0" /><path
         d="m 2946.48,3107.38 -245.03,423.91 h 490.07 z"
         style="fill:#000000;fill-opacity:1;fill-rule:evenodd;stroke:none"
         id="path88"
         inkscape:connector-curvature="0" /><path
         d="m 2946.48,3107.38 -245.03,423.95 h 490.07 z"
         style="fill:none;stroke:#000000;stroke-width:61.25930023;stroke-linecap:butt;stroke-linejoin:miter;stroke-miterlimit:4;stroke-dasharray:none;stroke-opacity:1"
         id="path90"
         inkscape:connector-curvature="0" /><path
         d="M 578.52,4160.31 H 5250.51"
         style="fill:none;stroke:#000000;stroke-width:40;stroke-linecap:butt;stroke-linejoin:miter;stroke-miterlimit:4;stroke-dasharray:none;stroke-opacity:1"
         id="path92"
         inkscape:connector-curvature="0" /><path
         d="M 562.621,4140.27 V 4696.6"
         style="fill:none;stroke:#000000;stroke-width:40.32860184;stroke-linecap:butt;stroke-linejoin:miter;stroke-miterlimit:4;stroke-dasharray:none;stroke-opacity:1"
         id="path94"
         inkscape:connector-curvature="0" /><path
         d="m 2150.43,4162.85 v 513.52"
         style="fill:none;stroke:#000000;stroke-width:40;stroke-linecap:butt;stroke-linejoin:miter;stroke-miterlimit:4;stroke-dasharray:none;stroke-opacity:1"
         id="path96"
         inkscape:connector-curvature="0" /><path
         d="m 3758.52,4169.61 v 506.76"
         style="fill:none;stroke:#000000;stroke-width:40;stroke-linecap:butt;stroke-linejoin:miter;stroke-miterlimit:4;stroke-dasharray:none;stroke-opacity:1"
         id="path98"
         inkscape:connector-curvature="0" /><path
         d="m 5230.62,4163.05 v 506.72"
         style="fill:none;stroke:#000000;stroke-width:40;stroke-linecap:butt;stroke-linejoin:miter;stroke-miterlimit:4;stroke-dasharray:none;stroke-opacity:1"
         id="path100"
         inkscape:connector-curvature="0" /><path
         d="M 11.6406,5299.45 H 1283.67"
         style="fill:none;stroke:#000000;stroke-width:8;stroke-linecap:butt;stroke-linejoin:miter;stroke-miterlimit:4;stroke-dasharray:8, 8;stroke-dashoffset:0;stroke-opacity:1"
         id="path102"
         inkscape:connector-curvature="0" /><path
         d="m 1555.66,5307.46 h 1280"
         style="fill:none;stroke:#000000;stroke-width:8;stroke-linecap:butt;stroke-linejoin:miter;stroke-miterlimit:4;stroke-dasharray:8, 8;stroke-dashoffset:0;stroke-opacity:1"
         id="path104"
         inkscape:connector-curvature="0" /><path
         d="m 3084.88,5314.14 h 1280"
         style="fill:none;stroke:#000000;stroke-width:8;stroke-linecap:butt;stroke-linejoin:miter;stroke-miterlimit:4;stroke-dasharray:8, 8;stroke-dashoffset:0;stroke-opacity:1"
         id="path106"
         inkscape:connector-curvature="0" /><path
         d="m 4626.41,5315.39 h 1288"
         style="fill:none;stroke:#000000;stroke-width:8;stroke-linecap:butt;stroke-linejoin:miter;stroke-miterlimit:4;stroke-dasharray:8, 8;stroke-dashoffset:0;stroke-opacity:1"
         id="path108"
         inkscape:connector-curvature="0" /><g
         id="g110"
         transform="scale(10)"><text
           transform="matrix(1,0,0,-1,49.2371,475.668)"
           style="font-variant:normal;font-weight:normal;font-size:22px;font-family:Verdana;-inkscape-font-specification:Verdana;writing-mode:lr-tb;fill:#000000;fill-opacity:1;fill-rule:nonzero;stroke:none"
           id="text124"><tspan
             x="0"
             y="0"
             id="tspan112">0</tspan><tspan
             x="159.172 318.31979"
             y="1.83789"
             sodipodi:role="line"
             id="tspan114">12</tspan><tspan
             x="467.784"
             y="0.079300001"
             id="tspan116">3</tspan><tspan
             x="0.029999999 159.17778"
             y="-30.694099"
             sodipodi:role="line"
             id="tspan118">45</tspan><tspan
             x="318.314"
             y="-31.573397"
             id="tspan120">6</tspan><tspan
             x="466.905"
             y="-33.331596"
             id="tspan122">7</tspan></text>
<text
           transform="matrix(1,0,0,-1,5.2751,728.0086)"
           style="font-variant:normal;font-weight:normal;font-size:32px;font-family:Verdana;-inkscape-font-specification:Verdana;writing-mode:lr-tb;fill:#000000;fill-opacity:1;fill-rule:nonzero;stroke:none"
           id="text128"><tspan
             x="0 21.952 41.183998 61.439999 80.384003 91.648003 155.48801 177.44 196.672 216.92799 235.87199 247.136 315.58401 337.53601 356.76801 377.02399 395.96799 407.23199 465.12 487.07199 506.30399 526.56 545.50403 556.76801"
             y="0"
             sodipodi:role="line"
             id="tspan126">Bank 0Bank 1Bank 2Bank 3</tspan></text>
</g></g></g></svg>