<?xml version="1.0" standalone="no"?><!DOCTYPE svg PUBLIC "-//W3C//DTD SVG 1.1//EN" "http://www.w3.org/Graphics/SVG/1.1/DTD/svg11.dtd">
<svg x="0.0000mm" y="0.0000mm" width="187.0600mm" height="82.8150mm" viewBox="0.0000 0.0000 187.0600 82.8150" version="1.1" xmlns="http://www.w3.org/2000/svg" shape-rendering="crispEdges">
<title>TBarCode - 11.14.0.16673</title>
<desc>BarCode licensed to MEM:TEC-IT Datenverarbeitung GmbH Internal License</desc>
<g fill="rgb(0%,0%,0%)">
</g>
<g fill="rgb(100%,100%,100%)">
<rect x="0.0000" y="0.0000" width="187.0600" height="82.8150" />
</g>
<g fill="rgb(0%,0%,0%)">
</g>
<g fill="rgb(0%,0%,0%)">
<rect x="18.2094" y="0.0000" width="1.6554" height="72.3386" />
<rect x="21.5202" y="0.0000" width="1.6554" height="72.3386" />
<rect x="24.7036" y="0.0000" width="5.0935" height="63.6082" />
<rect x="31.3252" y="0.0000" width="3.4381" height="63.6082" />
<rect x="39.8569" y="0.0000" width="1.5281" height="63.6082" />
<rect x="44.8231" y="0.0000" width="1.5281" height="63.6082" />
<rect x="49.5346" y="0.0000" width="3.4381" height="63.6082" />
<rect x="54.5008" y="0.0000" width="3.4381" height="63.6082" />
<rect x="62.9051" y="0.0000" width="1.6554" height="63.6082" />
<rect x="66.2159" y="0.0000" width="3.3108" height="63.6082" />
<rect x="71.1821" y="0.0000" width="4.9662" height="63.6082" />
<rect x="79.4591" y="0.0000" width="1.6554" height="63.6082" />
<rect x="82.7699" y="0.0000" width="1.6554" height="63.6082" />
<rect x="86.0807" y="0.0000" width="6.6216" height="63.6082" />
<rect x="94.3577" y="0.0000" width="1.6554" height="72.3386" />
<rect x="97.6685" y="0.0000" width="1.6554" height="72.3386" />
<rect x="100.9793" y="0.0000" width="1.5281" height="63.6082" />
<rect x="105.9455" y="0.0000" width="1.5281" height="63.6082" />
<rect x="112.5671" y="0.0000" width="4.9662" height="63.6082" />
<rect x="120.8441" y="0.0000" width="1.6554" height="63.6082" />
<rect x="124.1549" y="0.0000" width="1.5281" height="63.6082" />
<rect x="129.1211" y="0.0000" width="1.5281" height="63.6082" />
<rect x="135.7427" y="0.0000" width="3.4381" height="63.6082" />
<rect x="140.7088" y="0.0000" width="3.4381" height="63.6082" />
<rect x="147.3304" y="0.0000" width="3.4381" height="63.6082" />
<rect x="153.9520" y="0.0000" width="3.4381" height="63.6082" />
<rect x="158.9182" y="0.0000" width="1.6554" height="63.6082" />
<rect x="167.1952" y="0.0000" width="1.6554" height="63.6082" />
<rect x="170.5060" y="0.0000" width="1.6554" height="72.3386" />
<rect x="173.8168" y="0.0000" width="1.6554" height="72.3386" />
</g>
<g fill="rgb(0%,0%,0%)">
<text x="9.1047" y="79.2137" transform="rotate(360 9.1047,79.2137)" text-anchor="middle" font-family="Arial" font-size="17.2861" >9</text>
<text x="58.7666" y="79.2137" transform="rotate(360 58.7666,79.2137)" text-anchor="middle" font-family="Arial" font-size="17.2861" >782956</text>
<text x="134.9150" y="79.2137" transform="rotate(360 134.9150,79.2137)" text-anchor="middle" font-family="Arial" font-size="17.2861" >808213</text>
</g>
</svg>
